<?xml version="1.0" encoding="utf-8"?>
<!-- Generator: Adobe Illustrator 19.0.0, SVG Export Plug-In . SVG Version: 6.00 Build 0)  -->
<svg version="1.1" id="Layer_1" xmlns="http://www.w3.org/2000/svg" xmlns:xlink="http://www.w3.org/1999/xlink" x="0px" y="0px"
	 viewBox="350 -100 800 300" style="enable-background:new 350 -100 800 300;" xml:space="preserve">
<style type="text/css">
	.st0{fill:#FFFFFF;}
	.st1{fill:none;}
	.st2{fill:#939393;}
</style>
<g id="XMLID_2_">
	<path id="XMLID_5_" class="st0" d="M659.2,115.9c0.1,0,0.2,0,0.3,0c0.5,0,1.2,0.1,2.1,0.3c1.6,0.3,2.9,0.9,3.9,1.6v28.7h-6.4v-2.6
		c-2.4,1.7-5.1,2.6-8,2.6c-2,0-3.8-0.4-5.6-1.2c-1.7-0.8-3.3-1.9-4.6-3.3c-1.3-1.4-2.4-3-3.1-4.9c-0.8-1.9-1.1-3.9-1.1-6
		c0-2.1,0.4-4.1,1.1-6c0.7-1.8,1.8-3.4,3.1-4.9c1.3-1.4,2.9-2.5,4.6-3.3c1.8-0.8,3.6-1.2,5.6-1.2c2.9,0,5.6,0.9,8,2.6V115.9z
		 M651.1,140.1c1.1,0,2.1-0.2,3.1-0.7c1-0.4,1.8-1.1,2.6-1.9c0.8-0.8,1.3-1.8,1.7-2.8c0.4-1.1,0.7-2.3,0.7-3.5
		c0-1.2-0.2-2.4-0.7-3.5c-0.4-1.1-1-2-1.7-2.8c-0.7-0.8-1.6-1.4-2.6-1.9c-1-0.5-2-0.7-3.1-0.7c-1.1,0-2.1,0.2-3.1,0.7
		c-0.9,0.5-1.8,1.1-2.5,1.9c-0.7,0.8-1.3,1.8-1.7,2.8c-0.4,1.1-0.6,2.3-0.6,3.5c0,1.2,0.2,2.4,0.6,3.5c0.4,1.1,1,2,1.7,2.8
		c0.8,0.8,1.6,1.5,2.5,1.9C649,139.8,650.1,140.1,651.1,140.1z"/>
	<path id="XMLID_12_" class="st0" d="M694.5,103.3c0.9-0.7,2.2-1.3,3.9-1.6c1-0.2,1.7-0.3,2.2-0.3c0.1,0,0.2,0,0.3,0v45.1h-6.4v-2.6
		c-2.4,1.7-5.1,2.6-8,2.6c-2,0-3.8-0.4-5.6-1.2c-1.7-0.8-3.3-1.9-4.6-3.3c-1.3-1.4-2.4-3-3.1-4.9c-0.8-1.9-1.1-3.9-1.1-6
		c0-2.1,0.4-4.1,1.1-6c0.7-1.8,1.8-3.4,3.1-4.9c1.3-1.4,2.9-2.5,4.6-3.3c1.8-0.8,3.6-1.2,5.6-1.2c2.9,0,5.6,0.9,8,2.6V103.3z
		 M686.4,140.1c1.1,0,2.1-0.2,3.1-0.7c1-0.4,1.8-1.1,2.6-1.9c0.8-0.8,1.3-1.8,1.7-2.8c0.4-1.1,0.7-2.3,0.7-3.5
		c0-1.2-0.2-2.4-0.7-3.5c-0.4-1.1-1-2-1.7-2.8c-0.7-0.8-1.6-1.4-2.6-1.9c-1-0.5-2-0.7-3.1-0.7c-1.1,0-2.1,0.2-3.1,0.7
		c-0.9,0.5-1.8,1.1-2.5,1.9c-0.7,0.8-1.3,1.8-1.7,2.8c-0.4,1.1-0.6,2.3-0.6,3.5c0,1.2,0.2,2.4,0.6,3.5c0.4,1.1,1,2,1.7,2.8
		c0.8,0.8,1.6,1.5,2.5,1.9C684.3,139.8,685.3,140.1,686.4,140.1z"/>
	<path id="XMLID_15_" class="st0" d="M727.5,144.2c-1.1,0.8-2.3,1.4-3.4,1.6c-1.4,0.4-2.9,0.6-4.6,0.7c-0.8,0-1.3,0-1.3,0
		c-2.6-0.1-4.9-0.6-6.6-1.5c-1.6-0.8-3-2-4.2-3.6c-0.2-0.3-0.5-0.8-0.9-1.4l0-0.1c0.6-0.4,1.5-0.9,2.7-1.4c1.6-0.7,2.9-1,4-1l0,0.1
		c1.1,1.8,3.1,2.8,6,3.1c0.2,0,0.4,0,0.7,0c0.6,0,1.1-0.1,1.6-0.2c0.4-0.1,0.9-0.4,1.4-0.7c0.4-0.3,0.8-0.7,0.9-1.2
		c0.1-0.3,0.2-0.7,0.2-1v-0.2c-0.1-0.9-0.8-1.7-2.2-2.3c-0.3-0.1-1.4-0.5-3.3-1.2c-0.1,0-1-0.3-2.6-0.8c-1.3-0.4-2.2-0.7-2.6-0.9
		c-1.8-0.7-3.1-1.8-4-3.2c-0.7-1.1-1.1-2.5-1.1-3.9c0-2.6,0.9-4.7,2.8-6.3c1.1-1,2.5-1.7,4-2.2c1.2-0.4,2.7-0.5,4.5-0.5
		c0.3,0,0.6,0,0.9,0c4.2,0.1,7.3,2,9.5,5.6c0.1,0.2,0.2,0.3,0.2,0.3c-0.6,0.4-1.4,0.8-2.4,1.2c-1.2,0.5-2.3,0.7-3.2,0.7h-0.1
		c0,0,0-0.1,0-0.1c-0.3-0.6-0.8-1.1-1.7-1.5c-0.8-0.4-1.8-0.6-2.9-0.7c-0.3,0-0.6,0-0.9,0c-1.3,0-2.3,0.2-2.9,0.6
		c-0.4,0.3-0.8,0.6-1,1c-0.2,0.4-0.3,0.8-0.3,1.2c0,1.1,0.8,2,2.4,2.8c0.7,0.3,1.8,0.7,3.6,1.2c2,0.6,3.8,1.3,5.5,2.2
		c2.1,1.1,3.5,2.6,4.3,4.4c0.4,1,0.6,2,0.6,3.1C730.9,140.4,729.8,142.6,727.5,144.2z"/>
	<path id="XMLID_20_" class="st0" d="M758.8,118.4c2,1.4,3.5,3.2,4.7,5.4c1.2,2.3,1.7,4.7,1.7,7.3v15.3h-6.4v-15.3
		c0-1.2-0.2-2.4-0.6-3.5c-0.4-1.1-1-2-1.7-2.8c-0.7-0.8-1.6-1.4-2.5-1.9c-1-0.5-2-0.7-3.1-0.7c-1.1,0-2.1,0.2-3.1,0.7
		c-0.9,0.5-1.8,1.1-2.5,1.9c-0.7,0.8-1.3,1.7-1.7,2.8c-0.4,1.1-0.7,2.2-0.7,3.4v15.4h-6.4v-43.2c0.9-0.7,2.2-1.3,3.9-1.6
		c1-0.2,1.7-0.3,2.2-0.3c0.1,0,0.2,0,0.3,0v17.1c2.4-1.7,5.1-2.6,8-2.6C753.8,115.9,756.4,116.7,758.8,118.4z"/>
	<path id="XMLID_23_" class="st0" d="M794,115.9c0.1,0,0.2,0,0.3,0c0.5,0,1.2,0.1,2.1,0.3c1.6,0.3,2.9,0.9,3.9,1.6v28.7H794v-2.6
		c-2.4,1.7-5.1,2.6-8,2.6c-2,0-3.8-0.4-5.6-1.2c-1.7-0.8-3.3-1.9-4.6-3.3c-1.3-1.4-2.4-3-3.1-4.9c-0.8-1.9-1.1-3.9-1.1-6
		c0-2.1,0.4-4.1,1.1-6c0.7-1.8,1.8-3.4,3.1-4.9c1.3-1.4,2.9-2.5,4.6-3.3c1.8-0.8,3.6-1.2,5.6-1.2c2.9,0,5.6,0.9,8,2.6V115.9z
		 M786,140.1c1.1,0,2.1-0.2,3.1-0.7c1-0.4,1.8-1.1,2.6-1.9c0.8-0.8,1.3-1.8,1.7-2.8c0.4-1.1,0.7-2.3,0.7-3.5c0-1.2-0.2-2.4-0.7-3.5
		c-0.4-1.1-1-2-1.7-2.8c-0.7-0.8-1.6-1.4-2.6-1.9c-1-0.5-2-0.7-3.1-0.7c-1.1,0-2.1,0.2-3.1,0.7c-0.9,0.5-1.8,1.1-2.5,1.9
		c-0.7,0.8-1.3,1.8-1.7,2.8c-0.4,1.1-0.6,2.3-0.6,3.5c0,1.2,0.2,2.4,0.6,3.5c0.4,1.1,1,2,1.7,2.8c0.8,0.8,1.6,1.5,2.5,1.9
		C783.9,139.8,784.9,140.1,786,140.1z"/>
	<path id="XMLID_26_" class="st0" d="M823.8,115.9c0,0.1,0,0.2,0,0.3c0,0.5-0.1,1.2-0.3,2.2c-0.3,1.6-0.8,2.9-1.6,3.9
		c-1.2,0.1-2.5,0.6-3.7,1.4c-2.5,1.6-3.7,4.1-3.7,7.6v15.3h-6.4v-28.7c0.9-0.8,2.2-1.3,3.9-1.6c1-0.2,1.7-0.3,2.2-0.3
		c0.1,0,0.2,0,0.3,0v2.6c0.5-0.3,0.9-0.6,1.3-0.8c0.3-0.2,0.7-0.4,0.9-0.5c0.5-0.2,1-0.4,1.5-0.6c0.3-0.1,0.7-0.2,1-0.3
		c0.2-0.1,0.4-0.1,0.5-0.1c0.3-0.1,0.7-0.1,1.1-0.2c0.5-0.1,1.1-0.1,1.7-0.1H823.8z"/>
	<path id="XMLID_28_" class="st0" d="M849.8,115.9c0.1,0,0.2,0,0.3,0c0.5,0,1.2,0.1,2.1,0.3c1.6,0.3,2.9,0.9,3.9,1.6v28.7h-6.4v-2.6
		c-2.4,1.7-5.1,2.6-8,2.6c-2,0-3.8-0.4-5.6-1.2c-1.7-0.8-3.3-1.9-4.6-3.3c-1.3-1.4-2.4-3-3.1-4.9c-0.8-1.9-1.1-3.9-1.1-6
		c0-2.1,0.4-4.1,1.1-6c0.7-1.8,1.8-3.4,3.1-4.9c1.3-1.4,2.9-2.5,4.6-3.3c1.8-0.8,3.6-1.2,5.6-1.2c2.9,0,5.6,0.9,8,2.6V115.9z
		 M841.7,140.1c1.1,0,2.1-0.2,3.1-0.7c1-0.4,1.8-1.1,2.6-1.9c0.8-0.8,1.3-1.8,1.7-2.8c0.4-1.1,0.7-2.3,0.7-3.5
		c0-1.2-0.2-2.4-0.7-3.5c-0.4-1.1-1-2-1.7-2.8c-0.7-0.8-1.6-1.4-2.6-1.9c-1-0.5-2-0.7-3.1-0.7c-1.1,0-2.1,0.2-3.1,0.7
		c-0.9,0.5-1.8,1.1-2.6,1.9c-0.7,0.8-1.3,1.8-1.7,2.8c-0.4,1.1-0.6,2.3-0.6,3.5c0,1.2,0.2,2.4,0.6,3.5c0.4,1.1,1,2,1.7,2.8
		c0.8,0.8,1.6,1.5,2.6,1.9C839.6,139.8,840.6,140.1,841.7,140.1z"/>
	<path id="XMLID_31_" class="st0" d="M863.2,143.3c0-2.2,1.5-3.8,3.6-3.8c2.1,0,3.6,1.6,3.6,3.8c0,2.2-1.4,3.8-3.6,3.8
		C864.6,147.1,863.2,145.5,863.2,143.3z"/>
</g>
<g id="XMLID_3_">
	<path id="XMLID_4_" class="st1" d="M751.6-1.4c-0.4-5-0.8-10-1.1-15.1c-0.1-1-0.3-2-0.3-3.1c-0.1-1.3,0-2.7,0-4
		c-0.1-2.4-0.1-4.9-0.2-7.3c-0.1-1.9-0.2-3.7-0.3-5.6c0-0.6-0.3-1.1-0.8-1.4c-0.7-0.4-1.3-0.3-1.9,0.1c-0.7,0.4-0.8,1.1-0.8,1.8
		c0.2,3,0.3,6.1,0.5,9.1c0.1,1,0,2.1,0.1,3.1c-1.5-0.1-2.7,0.5-3.6,1.6c-0.8,0.9-1.4,2-2,3c-0.2,0.3-0.3,0.6-0.5,1
		c-0.1-0.2-0.2-0.2-0.3-0.3c-0.6-0.8-1.2-1.5-1.8-2.3c-0.6-0.7-1.7-0.7-2.4-0.1c-0.7,0.6-0.9,1.5-0.3,2.3c0.2,0.2,0.4,0.5,0.5,0.7
		c1,1.2,1.9,2.5,2.9,3.7c0.9,1.1,2.2,1.1,3-0.1c0.2-0.3,0.4-0.5,0.5-0.8c0.1-0.2,0.2-0.3,0.4-0.5c0,0.2,0,0.4,0.1,0.5
		c0.2,2.1,0.4,4.2,0.2,6.3c-0.3,3.8-0.6,7.7-1,11.5c-0.2,2.4-0.4,4.7-0.6,7.1l-5.7,20.5c2.9,0.6,5.9,2.1,8.8,4.9
		c0,0,4.1-7.5,11.3-10l-4-14.7C752.2,6.5,751.9,2.6,751.6-1.4z"/>
	<path id="XMLID_7_" class="st1" d="M740.6-23.2c2,0.4,3.9-1,4.3-3c0.4-2-1-3.9-3-4.3c-2-0.4-3.9,1-4.3,3
		C737.3-25.5,738.6-23.6,740.6-23.2z"/>
	<path id="XMLID_8_" class="st1" d="M731.9,13.1c5-8,3.7-1.4,6.4-1.9c0.1-0.7,0.3-1.5,0.4-2.2c3.5-3.6-1.1-9.7,2.8-10.4
		c-1.5-2,0.5-5.4,0.7-8.1c0.1-1,0-1.9,0-2.9c-0.5,0.1-1,0.3-1.4,0.2c-0.6-0.1-0.7,0.2-0.9,0.6c0.8,2.9-1.8,5.3-2.7,8
		c-3.5,1.5-1.5,4.4-2.2,6.6c-1,2.9-3.9,5.3-3,8.8c0.1,0.4-0.2,0.7-0.4,1.1C731.8,13.1,731.8,13.1,731.9,13.1z"/>
	<path id="XMLID_16_" class="st0" d="M706.7,47.8c0,0,14.2-20.8,29.5-17.5l5.7-20.5c0.2-2.4,0.4-4.7,0.6-7.1c0.3-3.8,0.6-7.7,1-11.5
		c0.2-2.1,0-4.2-0.2-6.3c0-0.1,0-0.2-0.1-0.5c-0.2,0.2-0.3,0.4-0.4,0.5c-0.2,0.3-0.4,0.5-0.5,0.8c-0.8,1.2-2.2,1.2-3,0.1
		c-1-1.2-1.9-2.5-2.9-3.7c-0.2-0.2-0.4-0.5-0.5-0.7c-0.6-0.8-0.4-1.7,0.3-2.3c0.8-0.6,1.8-0.6,2.4,0.1c0.6,0.7,1.2,1.5,1.8,2.3
		c0.1,0.1,0.1,0.2,0.3,0.3c0.2-0.3,0.3-0.7,0.5-1c0.7-1,1.3-2.1,2-3c0.9-1.1,2.1-1.7,3.6-1.6c0-1.1,0-2.1-0.1-3.1
		c-0.2-3-0.3-6.1-0.5-9.1c0-0.7,0.1-1.4,0.8-1.8c0.6-0.4,1.3-0.4,1.9-0.1c0.5,0.3,0.8,0.8,0.8,1.4c0.1,1.9,0.3,3.7,0.3,5.6
		c0.1,2.4,0.2,4.9,0.2,7.3c0,1.3,0,2.7,0,4c0,1,0.3,2,0.3,3.1c0.4,5,0.8,10,1.1,15.1c0.3,3.9,0.5,7.9,0.8,11.8l4,14.7
		c4.7-1.6,10.6-1.2,17.6,4.8c0,0,8.3,4.1,7.2,11.8c0,0,12.3,2.3,12.1,17.6c0,0,17.8,10.4,23.9,7L777.7-46.6c-1.2-4.4-4.2-6.6-9-6.6
		h-43.2c-4.8,0-7.8,2.2-9,6.6L677.2,65.9C683.2,56.5,692.6,47.8,706.7,47.8z M737.6-27.5c0.4-2,2.3-3.3,4.3-3c2,0.4,3.4,2.3,3,4.3
		c-0.4,2-2.3,3.3-4.3,3C738.6-23.6,737.3-25.5,737.6-27.5z M732,12c-1-3.5,2-5.9,3-8.8c0.7-2.2-1.2-5.1,2.2-6.6
		c0.9-2.7,3.5-5.1,2.7-8c0.1-0.4,0.3-0.7,0.9-0.6c0.4,0.1,0.9-0.1,1.4-0.2c0,1,0.1,1.9,0,2.9c-0.2,2.7-2.2,6-0.7,8.1
		c-3.9,0.8,0.7,6.9-2.8,10.4c-0.1,0.7-0.3,1.5-0.4,2.2c0,0.2-2.2,0.4,0,0c-2.7,0.5-1.4-6.1-6.4,1.9c-0.1,0-0.1,0-0.3,0
		C731.8,12.7,732.1,12.3,732,12z"/>
	<path id="XMLID_18_" class="st0" d="M738.3,11.2C736.1,11.6,738.3,11.4,738.3,11.2L738.3,11.2z"/>
	<path id="XMLID_21_" class="st2" d="M671.9,81c0,0.9,0.4,1.7,1.3,2.6c0.9,0.9,1.9,1.3,3.1,1.3h17.8c4.4-4.6,6-8.4,6-8.4
		c1.7-3.1,4.5-5.5,7.9-6.7c0.2-0.1,0.5-0.2,0.7-0.3c1.4-0.4,2.8-0.7,4.4-0.7c4.5,0,8.6,2,11.3,5.3c0.1-2.5,0.9-4.8,2.1-6.8
		c0.5-0.7,1-1.5,1.6-2.1c2.6-2.8,6.3-4.6,10.4-4.6c2.6,0,5,0.7,7.1,1.9c2.8-7,9.6-11.9,17.5-11.9h0c9.2,0,16.9,6.7,18.5,15.4
		c0.2,1.1,0.3,2.3,0.3,3.5c0,0.2,0,0.4,0,0.6c1.2-0.3,2.4-0.4,3.6-0.4c2.6,0,5.5,1.2,7.5,3.6c2,3,6.3,7.5,10.9,11.7H818
		c1.2,0,2.2-0.4,3.1-1.3c0.9-0.9,1.3-1.7,1.3-2.6c0-0.9-0.1-1.5-0.2-1.9l-5-14.2c-6.2,3.5-23.9-7-23.9-7
		c0.2-15.3-12.1-17.6-12.1-17.6c1.1-7.7-7.2-11.8-7.2-11.8c-6.9-6-12.9-6.4-17.6-4.8l5.5,20.4c0,0-14.5-0.5-18,10.5
		c0,0-11.3-4.6-15.7,3.3l8-29c-15.2-3.2-29.5,17.5-29.5,17.5c-14.1,0-23.5,8.7-29.6,18.1l-5.1,14.6C672,79.5,671.9,80.1,671.9,81z"
		/>
</g>
</svg>
