<?xml version="1.0" encoding="utf-8"?>
<!-- Generator: Adobe Illustrator 19.0.0, SVG Export Plug-In . SVG Version: 6.00 Build 0)  -->
<svg version="1.1" xmlns="http://www.w3.org/2000/svg" xmlns:xlink="http://www.w3.org/1999/xlink" x="0px" y="0px"
	 viewBox="0 0 100 100" style="enable-background:new 0 0 100 100;" xml:space="preserve">
<style type="text/css">
	.st0{display:none;}
	.st1{display:inline;stroke:#FFFFFF;stroke-width:6.6389;stroke-linecap:round;stroke-linejoin:round;stroke-miterlimit:10;}
	.st2{opacity:0.1;}
	.st3{fill:#FFFFFF;}
	.st4{fill:#FED41B;}
</style>
<g id="Layer_2" class="st0">
	<rect id="XMLID_1_" x="0" y="0" class="st1" width="100" height="100"/>
</g>
<g id="Layer_1">
	<g id="XMLID_2_" class="st2">
		<path id="XMLID_27_" class="st3" d="M43.8,63.8c-2.2,2.1-5.3,3.3-8.8,3.3s-6.7-1.2-8.8-3.3s-3.5-4.7-3.5-9.1V23.1
			c0-4.4,1.3-7.1,3.5-9.1c2.2-2.1,5.4-3.3,8.8-3.3s6.6,1.2,8.8,3.3c2.2,2.1,3.5,4.7,3.5,9.1v31.6C47.2,59.1,45.9,61.7,43.8,63.8z
			 M39,22.8c0-3.2-1.8-4.7-4-4.7c-2.2,0-4.1,1.5-4.1,4.7V55c0,3.2,1.9,4.7,4.1,4.7c2.2,0,4-1.5,4-4.7V22.8z"/>
		<path id="XMLID_32_" class="st3" d="M64.2,66.5V20.9l-8.3,6.4v-9.3l8.3-6.7h8.2v55.2H64.2z"/>
	</g>
	<g id="XMLID_25_">
		<g id="XMLID_56_">
			<g id="XMLID_61_">
				<path id="XMLID_24_" class="st3" d="M76.7,70.3C76.7,70.3,76.6,70.3,76.7,70.3c-0.6-0.1-1-0.5-1-1.1l2.6-30c0-0.5-0.1-1-0.5-1.4
					c-0.4-0.4-0.8-0.6-1.4-0.6H57.1c-0.9,0-1.7-0.4-2.3-1c-0.6-0.6-0.9-1.5-0.8-2.4l0.1-1.3c0-0.3-0.1-0.6-0.3-0.9s-0.5-0.4-0.8-0.4
					H33.1c-0.6,0-1.1,0.4-1.1,1l-0.2,2c-0.1,1.6-1.5,2.9-3.1,2.9h-0.3c-1,0-1.8,0.7-1.9,1.7l-0.1,1.7c0,0.5-0.5,1-1.1,0.9
					c-0.5,0-1-0.5-0.9-1.1l0.1-1.7c0.2-2,1.8-3.5,3.8-3.5h0.3c0.6,0,1.1-0.4,1.1-1l0.2-2c0.1-1.6,1.5-2.9,3.1-2.9h19.8
					c0.9,0,1.7,0.4,2.3,1c0.6,0.6,0.9,1.5,0.8,2.4L55.9,34c0,0.3,0.1,0.6,0.3,0.9c0.2,0.2,0.5,0.4,0.8,0.4h19.4
					c1.1,0,2.1,0.5,2.8,1.2c0.7,0.8,1.1,1.9,1,2.9l-2.6,30C77.6,69.9,77.2,70.3,76.7,70.3z"/>
			</g>
			<g id="XMLID_59_">
				<path id="XMLID_23_" class="st3" d="M52.5,34.2h-19c-0.5,0-1-0.4-1-1c0-0.5,0.4-1,1-1h19c0.5,0,1,0.4,1,1
					C53.4,33.8,53,34.2,52.5,34.2z"/>
			</g>
			<g id="XMLID_57_">
				<path id="XMLID_22_" class="st3" d="M52.2,37.2h-19c-0.5,0-1-0.4-1-1s0.4-1,1-1h19c0.5,0,1,0.4,1,1S52.7,37.2,52.2,37.2z"/>
			</g>
		</g>
		<g id="XMLID_54_">
			<path id="XMLID_21_" class="st3" d="M44.7,76.5H23.5c-1.4,0-2.7-1-3-2.3l-7.6-28.3c-0.3-0.9-0.1-1.9,0.5-2.7
				c0.6-0.8,1.5-1.2,2.5-1.2h11.3c1.7,0,3.3,1.2,3.7,2.8l0.7,2.6c0.1,0.5,0.6,0.8,1.1,0.8h33.7c1.7,0,3.3,1.2,3.7,2.8l0.7,2.6
				c0.1,0.5-0.2,1.1-0.7,1.2c-0.5,0.1-1.1-0.2-1.2-0.7l-0.7-2.6c-0.2-0.8-1-1.4-1.8-1.4H32.7c-1.4,0-2.7-1-3-2.3L29,45.4
				c-0.2-0.8-1-1.4-1.8-1.4H15.9c-0.4,0-0.7,0.2-0.9,0.4c-0.2,0.3-0.3,0.6-0.2,1l7.6,28.3c0.1,0.5,0.6,0.8,1.1,0.8h21.2
				c0.5,0,1,0.4,1,1S45.2,76.5,44.7,76.5z"/>
		</g>
		<g id="XMLID_52_">
			<path id="XMLID_20_" class="st3" d="M75.7,76.5h-1.2c-0.5,0-1-0.4-1-1c0-0.5,0.4-0.9,0.9-1l-0.8-3.1c-0.1-0.5,0.2-1.1,0.7-1.2
				c0.5-0.1,1.1,0.2,1.2,0.7l1.2,4.4c0.1,0.3,0,0.6-0.2,0.9C76.3,76.4,76,76.5,75.7,76.5z"/>
		</g>
		<g id="XMLID_50_">
			<path id="XMLID_19_" class="st3" d="M42,64.9h-3.7c-0.5,0-1-0.4-1-1c0-0.5,0.4-1,1-1H42c0.5,0,1,0.4,1,1
				C43,64.5,42.6,64.9,42,64.9z"/>
		</g>
		<g id="XMLID_48_">
			<path id="XMLID_18_" class="st3" d="M42.7,61.2h-5.4c-0.5,0-1-0.4-1-1s0.4-1,1-1h5.4c0.5,0,1,0.4,1,1S43.2,61.2,42.7,61.2z"/>
		</g>
		<g id="XMLID_46_">
			<path id="XMLID_17_" class="st3" d="M41.6,68.6h-6.3c-0.4,0-0.8-0.3-1-0.7l-3-11.1c-0.1-0.3,0-0.6,0.2-0.9
				c0.2-0.2,0.5-0.4,0.8-0.4h12c0.5,0,1,0.4,1,1s-0.4,1-1,1H33.6l2.4,9.1h5.5c0.5,0,1,0.4,1,1S42.1,68.6,41.6,68.6z"/>
		</g>
		<g id="XMLID_44_">
			<path id="XMLID_16_" class="st3" d="M73.8,56.3C73.7,56.3,73.7,56.3,73.8,56.3c-0.6-0.1-1-0.5-1-1.1l1.2-13.4H34l-0.3,3.6
				c0,0.5-0.5,0.9-1.1,0.9c-0.5,0-1-0.5-0.9-1.1l0.4-4.5c0-0.5,0.5-0.9,1-0.9H75c0.3,0,0.5,0.1,0.7,0.3c0.2,0.2,0.3,0.5,0.3,0.8
				l-1.3,14.5C74.7,56,74.3,56.3,73.8,56.3z"/>
		</g>
		<g id="XMLID_40_">
			<path id="XMLID_13_" class="st4" d="M58.7,81.6c-4.1,0-8-1.6-10.9-4.5c-6-6-6-15.8,0-21.8c6-6,15.8-6,21.8,0c6,6,6,15.8,0,21.8
				C66.7,80,62.8,81.6,58.7,81.6z M58.7,52.7c-3.4,0-6.9,1.3-9.5,3.9c-5.2,5.2-5.2,13.8,0,19c2.5,2.5,5.9,3.9,9.5,3.9
				c3.6,0,7-1.4,9.5-3.9c5.2-5.2,5.2-13.8,0-19C65.6,54,62.1,52.7,58.7,52.7z"/>
		</g>
		<g id="XMLID_36_">
			<path id="XMLID_10_" class="st4" d="M58.7,77.8c-3.1,0-6-1.2-8.2-3.4c-4.5-4.5-4.5-11.9,0-16.5c2.2-2.2,5.1-3.4,8.2-3.4
				c3.1,0,6,1.2,8.2,3.4c2.2,2.2,3.4,5.1,3.4,8.2s-1.2,6-3.4,8.2C64.7,76.6,61.8,77.8,58.7,77.8z M58.7,56.5c-2.6,0-5,1-6.8,2.8
				c-3.8,3.8-3.8,9.9,0,13.7c1.8,1.8,4.2,2.8,6.8,2.8c2.6,0,5-1,6.8-2.8c1.8-1.8,2.8-4.2,2.8-6.8s-1-5-2.8-6.8
				C63.7,57.5,61.2,56.5,58.7,56.5z"/>
		</g>
		<g id="XMLID_34_">
			<path id="XMLID_9_" class="st4" d="M72,83.5c-0.3,0-0.5-0.1-0.7-0.3l-4.6-4.6c-0.4-0.4-0.4-1,0-1.4c0.4-0.4,1-0.4,1.4,0l3.9,3.9
				l1.7-1.7l-3.9-3.9c-0.4-0.4-0.4-1,0-1.4c0.4-0.4,1-0.4,1.4,0l4.6,4.6c0.4,0.4,0.4,1,0,1.4l-3.1,3.1C72.5,83.4,72.2,83.5,72,83.5z
				"/>
		</g>
		<g id="XMLID_30_">
			<path id="XMLID_5_" class="st4" d="M80.3,93.7c-0.3,0-0.5-0.1-0.7-0.3l-9.3-9.3c-0.4-0.4-0.4-1,0-1.4l5-5c0.4-0.4,1-0.4,1.4,0
				l9.3,9.3c0.4,0.4,0.4,1,0,1.4l-5,5C80.8,93.6,80.6,93.7,80.3,93.7z M72.4,83.5l7.9,7.9l3.6-3.6L76,79.9L72.4,83.5z"/>
		</g>
		<g id="XMLID_28_">
			<path id="XMLID_4_" class="st4" d="M75.7,88.7c-0.3,0-0.5-0.1-0.7-0.3c-0.4-0.4-0.4-1,0-1.4l4.8-4.8c0.4-0.4,1-0.4,1.4,0
				c0.4,0.4,0.4,1,0,1.4l-4.8,4.8C76.2,88.6,75.9,88.7,75.7,88.7z"/>
		</g>
		<g id="XMLID_26_">
			<path id="XMLID_3_" class="st4" d="M73.5,86.5c-0.3,0-0.5-0.1-0.7-0.3c-0.4-0.4-0.4-1,0-1.4l4.8-4.8c0.4-0.4,1-0.4,1.4,0
				c0.4,0.4,0.4,1,0,1.4l-4.8,4.8C74,86.4,73.7,86.5,73.5,86.5z"/>
		</g>
	</g>
</g>
</svg>
