<?xml version="1.0" encoding="utf-8"?>
<!-- Generator: Adobe Illustrator 19.0.0, SVG Export Plug-In . SVG Version: 6.00 Build 0)  -->
<svg version="1.1" id="Layer_1" xmlns="http://www.w3.org/2000/svg" xmlns:xlink="http://www.w3.org/1999/xlink" x="0px" y="0px"
	 viewBox="350 -100 800 300" style="enable-background:new 350 -100 800 300;" xml:space="preserve">
<style type="text/css">
	.st0{fill:#969696;}
	.st1{fill:#FFFFFF;}
</style>
<g id="_x34_401Ci.tif">
	<g>
		<path class="st0" d="M523,67.7c3.4-1,4.8-0.6,6.6,2.4c0.5,0.8,0.8,0.8,1.4,0.2c0.7-0.8,1.4-1.5,2.2-2.4c0.8,1.7,1.7,3.2,2.4,4.7
			c0.4,0.9,1.3,0.4,1.9,0.7c0.2-0.7,0.8-1.4,0-2c-3-2.4-4.5-5.9-6.9-8.8c-0.3-0.4-0.6-0.7-0.9-1c-0.5-0.4-0.7-0.3-1.1,0.4
			c-0.3,0.4-0.6,0.2-0.9,0.2c-4.7-0.8-9.3-1.7-14-2.5c-0.9-0.2-1-0.8-1.2-1.5c-2.2-13.2-4.4-26.3-6.6-39.5c-0.2-1.1,0.4-1.5,1.1-2.1
			C523.9,4.6,540.7-7.2,557.4-19c14-9.9,27.9-19.7,41.9-29.5c0.5-0.3,0.9-0.6,1.5-1c0.3,2.3-0.2,4.4-0.3,6.5
			c-0.6,9.4-1.3,18.7-2,28.1c-0.4,5.5-0.8,11-1.1,16.5c-0.1,1-0.3,1.5-1.3,1.8c-2.2,0.7-4.3,1.5-6.4,2.3c-0.9,0.3-1.9,0.7-2.9,0.2
			c-0.4-0.2-0.9-0.1-1.4,0.1c-2.8,1.4-5.7,0-8.5,0c-0.4,0-0.7-0.2-0.8-0.6c-0.2-1.3-1.3-1.3-2.2-1c-3.7,1.3-7.2,0.2-10.8-0.3
			c-2.7-0.3-5.4-0.8-8.1-1.2c-1.7-0.3-2.9,0.9-4.7,1.7c8.3,2,16.2,3.9,24.3,5.8c-2,1.5-4,2.4-6.1,2.9c-1.3,0.3-2.4-0.2-3.3-1.1
			c-1.4-1.3-2.8-2.4-4.2-3.7c-1.3-1.2-2.4-0.2-3.5,0.2c-0.5,0.2-0.1,0.7,0,1.1c0.4,1.6,0.8,3.1,1.3,4.7c0.3,1,0.1,1.2-0.9,1.1
			c-2.5-0.3-5-0.3-7.5,0.8c3.2,1,6.3,1.4,9.3,2.4c0.9,0.3,1.7,0.6,2.5,1.1c1.1,0.7,2.2,0.8,3-0.4c0.4-0.5,0.9-0.6,1.3-0.7
			c5.8-0.5,11.2-2.8,16.7-4.4c3.1-0.9,3.1-1,4.8,1.9c0.3,0.5,0.6,1,0.9,1.5c0.2,0.3,0.4,0.7,0.8,0.4c0.9-0.6,1.9-1,3.1-0.9
			c1.1,0.1,2.1-0.7,3.4-0.8c-0.2,2.7-0.3,5.3-0.5,7.9c-0.5,8.1-1.1,16.2-1.7,24.3c-0.7,9.2-1.3,18.5-2,27.7c-0.5,7.5-1,15-1.5,22.5
			c-0.6,9.3-1.3,18.6-2,27.9c-0.3,4-0.6,8.1-0.8,12.1c-0.1,1.2-0.2,1.6-1.6,1.2c-8.5-2.3-17-4.5-25.5-6.7c-0.8-0.2-1.3-0.6-1.6-1.4
			c-2.3-5.7-6-10.1-11.9-12.5c-2.2-0.9-3.9-2.5-4.9-4.7c-1-2.2-2.1-4.2-3.4-6.2c-0.6-0.9-0.7-1.9-0.5-3c0.6-4.2,1.8-8,4.8-11.1
			c1.6-1.6,1.3-4-0.4-5.6c-0.8-0.7-1.3-1.4-1.4-2.5c-0.1-0.9-0.8-1.6-1.4-2.1c-1.2-0.9-1.8-2-1.4-3.6c0.4-1.3-0.1-2.1-1.7-2
			c-0.7,0.1-1.3,0-1.8-0.4c-1.4-1-2.9-1.7-4.6-2c-0.7-0.1-0.9-0.4-0.5-1.1c0.7-1.5,0.3-2.1-1.3-2.3c-0.8-0.1-1.6,0.1-2.4,0.3
			c-0.5,0.1-1,0.1-1.2-0.4c-0.2-0.7,0.5-0.7,0.9-0.8c0.8-0.2,1.6-0.4,2.5-0.5c-0.5-1.4-1.2-2.6-2.7-3.1c-0.8-0.3-1.6-0.1-2.4-0.1
			C523.4,68.1,523,68.2,523,67.7z"/>
		<g>
			<path class="st1" d="M635.9,25.8h5l10.3,15.9h0.1V25.8h3.8v21.4h-4.8l-10.6-16.4h-0.1v16.4h-3.8V25.8z"/>
			<path class="st1" d="M667.6,25.8h3.3l9.2,21.4h-4.3l-2-4.9h-9.3l-1.9,4.9h-4.3L667.6,25.8z M672.4,39l-3.3-8.7l-3.3,8.7H672.4z"
				/>
			<path class="st1" d="M684.8,29.2h-6.5v-3.4h16.9v3.4h-6.5v17.9h-3.8V29.2z"/>
			<path class="st1" d="M698.4,25.8h3.8v21.4h-3.8V25.8z"/>
			<path class="st1" d="M706.5,36.5c0-1.7,0.3-3.3,0.8-4.7c0.6-1.4,1.3-2.6,2.3-3.6c1-1,2.2-1.7,3.6-2.3s2.9-0.8,4.5-0.8
				c1.7,0,3.2,0.2,4.6,0.7s2.6,1.3,3.6,2.2c1,1,1.8,2.2,2.4,3.6c0.6,1.4,0.8,2.9,0.8,4.6c0,1.7-0.3,3.2-0.8,4.6
				c-0.6,1.4-1.3,2.5-2.4,3.5c-1,1-2.2,1.8-3.6,2.3c-1.4,0.6-2.9,0.8-4.6,0.9c-1.6,0-3.2-0.3-4.5-0.8c-1.4-0.5-2.6-1.3-3.6-2.3
				c-1-1-1.8-2.1-2.3-3.5C706.8,39.7,706.5,38.2,706.5,36.5z M710.5,36.3c0,1.1,0.2,2.2,0.5,3.2s0.8,1.8,1.5,2.5
				c0.6,0.7,1.4,1.3,2.3,1.7c0.9,0.4,1.9,0.6,3,0.6c1.1,0,2.1-0.2,3-0.6c0.9-0.4,1.7-1,2.3-1.7s1.1-1.5,1.5-2.5c0.4-1,0.5-2,0.5-3.2
				c0-1.1-0.2-2.1-0.5-3c-0.4-0.9-0.8-1.7-1.5-2.4c-0.6-0.7-1.4-1.2-2.3-1.6c-0.9-0.4-1.9-0.6-3-0.6c-1.1,0-2.1,0.2-3,0.6
				c-0.9,0.4-1.7,0.9-2.3,1.6c-0.6,0.7-1.1,1.5-1.5,2.4C710.6,34.2,710.5,35.2,710.5,36.3z"/>
			<path class="st1" d="M733.5,25.8h5l10.3,15.9h0.1V25.8h3.8v21.4h-4.8l-10.6-16.4h-0.1v16.4h-3.8V25.8z"/>
			<path class="st1" d="M765.2,25.8h3.3l9.2,21.4h-4.3l-2-4.9h-9.3l-1.9,4.9h-4.3L765.2,25.8z M770,39l-3.3-8.7l-3.3,8.7H770z"/>
			<path class="st1" d="M780.8,25.8h3.8v17.9h9.1v3.4h-12.9V25.8z"/>
			<path class="st1" d="M813.8,25.8h3.3l9.2,21.4H822l-2-4.9h-9.3l-1.9,4.9h-4.3L813.8,25.8z M818.6,39l-3.3-8.7L812,39H818.6z"/>
			<path class="st1" d="M825.1,25.8h4.4l5.8,16.1l6-16.1h4.1l-8.6,21.4h-3.3L825.1,25.8z"/>
			<path class="st1" d="M848.4,25.8h3.8v21.4h-3.8V25.8z"/>
			<path class="st1" d="M864.5,25.8h3.3l9.2,21.4h-4.3l-2-4.9h-9.3l-1.9,4.9h-4.3L864.5,25.8z M869.3,39l-3.3-8.7l-3.3,8.7H869.3z"
				/>
			<path class="st1" d="M881.7,29.2h-6.5v-3.4h16.9v3.4h-6.5v17.9h-3.8V29.2z"/>
			<path class="st1" d="M895.3,25.8h3.8v21.4h-3.8V25.8z"/>
			<path class="st1" d="M903.4,36.5c0-1.7,0.3-3.3,0.8-4.7c0.6-1.4,1.3-2.6,2.3-3.6c1-1,2.2-1.7,3.6-2.3s2.9-0.8,4.5-0.8
				c1.7,0,3.2,0.2,4.6,0.7s2.6,1.3,3.6,2.2c1,1,1.8,2.2,2.4,3.6c0.6,1.4,0.8,2.9,0.8,4.6c0,1.7-0.3,3.2-0.8,4.6
				c-0.6,1.4-1.3,2.5-2.4,3.5c-1,1-2.2,1.8-3.6,2.3c-1.4,0.6-2.9,0.8-4.6,0.9c-1.6,0-3.2-0.3-4.5-0.8c-1.4-0.5-2.6-1.3-3.6-2.3
				c-1-1-1.8-2.1-2.3-3.5C903.7,39.7,903.4,38.2,903.4,36.5z M907.4,36.3c0,1.1,0.2,2.2,0.5,3.2s0.8,1.8,1.5,2.5
				c0.6,0.7,1.4,1.3,2.3,1.7c0.9,0.4,1.9,0.6,3,0.6c1.1,0,2.1-0.2,3-0.6c0.9-0.4,1.7-1,2.3-1.7s1.1-1.5,1.5-2.5c0.4-1,0.5-2,0.5-3.2
				c0-1.1-0.2-2.1-0.5-3c-0.4-0.9-0.8-1.7-1.5-2.4c-0.6-0.7-1.4-1.2-2.3-1.6c-0.9-0.4-1.9-0.6-3-0.6c-1.1,0-2.1,0.2-3,0.6
				c-0.9,0.4-1.7,0.9-2.3,1.6c-0.6,0.7-1.1,1.5-1.5,2.4C907.6,34.2,907.4,35.2,907.4,36.3z"/>
			<path class="st1" d="M930.5,25.8h5l10.3,15.9h0.1V25.8h3.8v21.4h-4.8l-10.6-16.4h-0.1v16.4h-3.8V25.8z"/>
			<path class="st1" d="M653,75.5c0,1.3-0.2,2.4-0.7,3.5c-0.4,1-1,1.9-1.8,2.6s-1.7,1.3-2.7,1.7c-1,0.4-2.2,0.6-3.4,0.6
				s-2.4-0.2-3.4-0.6c-1-0.4-2-1-2.7-1.7c-0.8-0.7-1.4-1.6-1.8-2.6s-0.6-2.2-0.6-3.5V62h3.8v13.4c0,0.5,0.1,1.1,0.2,1.6
				s0.4,1.1,0.8,1.6c0.4,0.5,0.9,0.9,1.5,1.2c0.6,0.3,1.4,0.5,2.3,0.5c0.9,0,1.7-0.2,2.3-0.5c0.6-0.3,1.1-0.7,1.5-1.2
				c0.4-0.5,0.6-1,0.8-1.6s0.2-1.1,0.2-1.6V62h3.8V75.5z"/>
			<path class="st1" d="M658.4,62h5l10.3,15.9h0.1V62h3.8v21.4h-4.8l-10.6-16.4h-0.1v16.4h-3.8V62z"/>
			<path class="st1" d="M683.1,62h3.8v21.4h-3.8V62z"/>
			<path class="st1" d="M689.9,62h4.4l5.8,16.1l6-16.1h4.1l-8.6,21.4h-3.3L689.9,62z"/>
			<path class="st1" d="M713.2,62h14.1v3.4H717v5.2h9.8v3.4H717v5.8h10.9v3.4h-14.7V62z"/>
			<path class="st1" d="M732.4,62h7.4c1,0,2,0.1,3,0.3c1,0.2,1.8,0.5,2.5,1s1.3,1.1,1.8,1.9s0.7,1.8,0.7,3c0,1.5-0.4,2.8-1.3,3.9
				c-0.9,1-2.1,1.7-3.7,1.9l5.7,9.4h-4.6l-4.9-9.1h-2.8v9.1h-3.8V62z M739.2,71c0.5,0,1.1,0,1.6-0.1c0.5,0,1-0.2,1.5-0.4
				c0.5-0.2,0.8-0.5,1.1-0.9c0.3-0.4,0.4-0.9,0.4-1.6c0-0.6-0.1-1.1-0.4-1.5c-0.3-0.4-0.6-0.7-1-0.9c-0.4-0.2-0.9-0.3-1.4-0.4
				s-1-0.1-1.5-0.1h-3.3V71H739.2z"/>
			<path class="st1" d="M762.6,66.5c-0.4-0.6-0.9-1-1.6-1.3s-1.4-0.4-2.1-0.4c-0.4,0-0.9,0.1-1.3,0.2c-0.4,0.1-0.8,0.3-1.1,0.5
				s-0.6,0.5-0.8,0.9c-0.2,0.4-0.3,0.8-0.3,1.3c0,0.7,0.3,1.3,0.8,1.7c0.5,0.4,1.1,0.7,1.9,1c0.7,0.3,1.6,0.6,2.4,0.8
				c0.9,0.3,1.7,0.6,2.4,1.1c0.7,0.5,1.4,1.1,1.9,1.8s0.8,1.8,0.8,3c0,1.1-0.2,2.1-0.6,3c-0.4,0.9-1,1.6-1.7,2.1
				c-0.7,0.6-1.5,1-2.5,1.3c-0.9,0.3-1.9,0.4-3,0.4c-1.3,0-2.6-0.2-3.8-0.7c-1.2-0.4-2.3-1.2-3.2-2.2l2.9-2.8
				c0.5,0.7,1.1,1.3,1.8,1.6c0.8,0.4,1.6,0.6,2.4,0.6c0.4,0,0.9-0.1,1.3-0.2c0.4-0.1,0.8-0.3,1.2-0.5s0.7-0.5,0.9-0.9
				c0.2-0.4,0.3-0.8,0.3-1.3c0-0.8-0.3-1.4-0.8-1.8c-0.5-0.4-1.1-0.8-1.9-1.1c-0.7-0.3-1.6-0.6-2.4-0.8c-0.9-0.3-1.7-0.6-2.4-1.1
				c-0.7-0.5-1.4-1.1-1.9-1.8c-0.5-0.8-0.8-1.8-0.8-3c0-1.1,0.2-2.1,0.7-2.9c0.5-0.8,1-1.5,1.8-2s1.6-0.9,2.5-1.2
				c0.9-0.3,1.9-0.4,2.9-0.4c1.1,0,2.2,0.2,3.3,0.5c1.1,0.3,2,0.9,2.9,1.7L762.6,66.5z"/>
			<path class="st1" d="M770.1,62h3.8v21.4h-3.8V62z"/>
			<path class="st1" d="M783.7,65.4h-6.5V62h16.9v3.4h-6.5v17.9h-3.8V65.4z"/>
			<path class="st1" d="M802.7,74.2l-8-12.2h4.8l5.2,8.5L810,62h4.5l-8,12.2v9.1h-3.8V74.2z"/>
		</g>
	</g>
</g>
</svg>
