<?xml version="1.0" encoding="utf-8"?>
<!-- Generator: Adobe Illustrator 19.0.0, SVG Export Plug-In . SVG Version: 6.00 Build 0)  -->
<svg version="1.1" xmlns="http://www.w3.org/2000/svg" xmlns:xlink="http://www.w3.org/1999/xlink" x="0px" y="0px"
	 viewBox="0 0 100 100" style="enable-background:new 0 0 100 100;" xml:space="preserve">
<style type="text/css">
	.st0{display:none;}
	.st1{display:inline;stroke:#FFFFFF;stroke-width:6.6389;stroke-linecap:round;stroke-linejoin:round;stroke-miterlimit:10;}
	.st2{opacity:0.1;}
	.st3{fill:#FFFFFF;}
	.st4{fill:#FFCE06;}
</style>
<g id="Layer_2" class="st0">
	<rect id="XMLID_1_" x="0" y="0" class="st1" width="100" height="100"/>
</g>
<g id="Layer_1">
	<g id="XMLID_2_" class="st2">
		<path id="XMLID_17_" class="st3" d="M43.8,63.8c-2.2,2.1-5.3,3.3-8.8,3.3s-6.7-1.2-8.8-3.3s-3.5-4.7-3.5-9.1V23.1
			c0-4.4,1.3-7.1,3.5-9.1c2.2-2.1,5.4-3.3,8.8-3.3s6.6,1.2,8.8,3.3c2.2,2.1,3.5,4.7,3.5,9.1v31.6C47.2,59.1,45.9,61.7,43.8,63.8z
			 M39,22.8c0-3.2-1.8-4.7-4-4.7c-2.2,0-4.1,1.5-4.1,4.7V55c0,3.2,1.9,4.7,4.1,4.7c2.2,0,4-1.5,4-4.7V22.8z"/>
		<path id="XMLID_23_" class="st3" d="M74.8,63.9c-2.2,2-5.5,3.2-8.8,3.2s-6.7-1.1-8.9-3.3c-2.2-2.1-3.4-4.7-3.4-9.1v-3.3h8.2V55
			c0,3.2,1.8,4.7,4.1,4.7c1.1,0,2.1-0.3,2.9-1.3c0.9-1.1,1.4-2.9,1.4-7.7c0-5.9-0.3-7.4-1.2-8.6c-0.6-0.9-1.7-1.4-3.1-1.4h-2.7v-6.9
			h2.7c1.2,0,2.1-0.5,2.6-1.1c1.1-1.3,1.2-2.9,1.2-7c0-3.9-0.2-5.4-1.1-6.5C68.1,18.5,67.2,18,66,18c-2.2,0-3.7,1.5-3.7,4.4v3.9
			h-8.2V23c0-4.3,1.2-7,3.4-9.1c2.2-2.2,5.2-3.2,8.5-3.2c3.6,0,6.5,1.2,8.4,3.1c2.5,2.4,3.6,6,3.6,11.5c0,3.8-0.2,6.4-1.4,8.8
			c-0.7,1.3-1.7,2.5-3,3.3c1.4,1,2.5,2,3.2,3.3c1.6,2.6,1.7,5.4,1.7,10.2C78.5,57.3,78.1,60.7,74.8,63.9z"/>
	</g>
	<g id="XMLID_15_">
		<g id="XMLID_30_">
			<path id="XMLID_12_" class="st4" d="M34.4,87c-0.6,0-1.1-0.2-1.6-0.5c-0.8-0.6-1.3-1.6-1.1-2.7L34.6,67L22.5,55.2
				c-0.7-0.7-1-1.8-0.7-2.8c0.3-1,1.2-1.7,2.2-1.9l16.8-2.4l7.5-15.2c0.5-0.9,1.4-1.5,2.4-1.5c1,0,2,0.6,2.4,1.5l7.5,15.2l16.8,2.4
				c1,0.2,1.9,0.9,2.2,1.9c0.3,1,0.1,2.1-0.7,2.8L66.9,67l2.9,16.8c0.2,1-0.2,2.1-1.1,2.7c-0.8,0.6-1.9,0.7-2.9,0.2l-15.1-7.9
				l-15.1,7.9C35.3,86.9,34.9,87,34.4,87z M50.8,32.8c-0.5,0-0.9,0.3-1.1,0.7L42,49.1c-0.1,0.2-0.3,0.4-0.6,0.4L24.2,52
				c-0.5,0.1-0.8,0.4-1,0.8c-0.1,0.4,0,0.9,0.3,1.2L36,66.2c0.2,0.2,0.3,0.4,0.2,0.7L33.2,84c-0.1,0.5,0.1,0.9,0.5,1.2
				c0.4,0.3,0.9,0.3,1.3,0.1l15.4-8.1c0.2-0.1,0.5-0.1,0.7,0l15.4,8.1c0.4,0.2,0.9,0.2,1.3-0.1c0.4-0.3,0.6-0.7,0.5-1.2l-2.9-17.2
				c0-0.2,0-0.5,0.2-0.7L78,54.1c0.3-0.3,0.5-0.8,0.3-1.2c-0.1-0.4-0.5-0.8-1-0.8l-17.2-2.5c-0.2,0-0.5-0.2-0.6-0.4l-7.7-15.6
				C51.6,33.1,51.2,32.8,50.8,32.8z"/>
		</g>
		<g id="XMLID_26_">
			<path id="XMLID_9_" class="st3" d="M66.8,84.6c-0.1,0-0.2,0-0.4-0.1l-15.7-8.2l-15.7,8.2c-0.3,0.1-0.6,0.1-0.8-0.1
				C34,84.3,33.9,84,34,83.7l3-17.5L24.3,53.9c-0.2-0.2-0.3-0.5-0.2-0.8c0.1-0.3,0.3-0.5,0.6-0.5l17.5-2.5l7.8-15.9
				c0.1-0.3,0.4-0.4,0.7-0.4c0.3,0,0.6,0.2,0.7,0.4l7.8,15.9l17.5,2.5c0.3,0,0.5,0.2,0.6,0.5c0.1,0.3,0,0.6-0.2,0.8L64.5,66.3
				l3,17.5c0,0.3-0.1,0.6-0.3,0.7C67.1,84.6,66.9,84.6,66.8,84.6z M50.8,74.7c0.1,0,0.2,0,0.4,0.1l14.7,7.7L63,66.1
				c0-0.2,0-0.5,0.2-0.7l11.9-11.6l-16.4-2.4c-0.2,0-0.5-0.2-0.6-0.4l-7.3-14.9l-7.3,14.9c-0.1,0.2-0.3,0.4-0.6,0.4l-16.4,2.4
				l11.9,11.6c0.2,0.2,0.3,0.4,0.2,0.7l-2.8,16.3l14.7-7.7C50.5,74.7,50.6,74.7,50.8,74.7z"/>
		</g>
		<g id="XMLID_24_">
			<path id="XMLID_8_" class="st3" d="M50.8,76.2c-0.4,0-0.8-0.3-0.8-0.8V34.5c0-0.4,0.3-0.8,0.8-0.8c0.4,0,0.8,0.3,0.8,0.8v40.9
				C51.5,75.8,51.2,76.2,50.8,76.2z"/>
		</g>
		<g id="XMLID_22_">
			<path id="XMLID_7_" class="st3" d="M66.8,84.6c-0.2,0-0.5-0.1-0.6-0.3L42.1,51.2c-0.2-0.3-0.2-0.8,0.2-1.1
				c0.3-0.2,0.8-0.2,1.1,0.2l24.1,33.1c0.2,0.3,0.2,0.8-0.2,1.1C67.1,84.6,66.9,84.6,66.8,84.6z"/>
		</g>
		<g id="XMLID_20_">
			<path id="XMLID_5_" class="st3" d="M34.7,84.6c-0.2,0-0.3,0-0.4-0.1c-0.3-0.2-0.4-0.7-0.2-1.1l24.1-33.1c0.2-0.3,0.7-0.4,1.1-0.2
				c0.3,0.2,0.4,0.7,0.2,1.1L35.3,84.3C35.2,84.5,35,84.6,34.7,84.6z"/>
		</g>
		<g id="XMLID_18_">
			<path id="XMLID_4_" class="st3" d="M37.8,66.8c-0.3,0-0.6-0.2-0.7-0.5c-0.1-0.4,0.1-0.8,0.5-1l38.9-12.6c0.4-0.1,0.8,0.1,1,0.5
				s-0.1,0.8-0.5,1L38,66.7C37.9,66.7,37.9,66.8,37.8,66.8z"/>
		</g>
		<g id="XMLID_16_">
			<path id="XMLID_3_" class="st3" d="M63.7,66.8c-0.1,0-0.2,0-0.2,0L24.6,54.1c-0.4-0.1-0.6-0.6-0.5-1c0.1-0.4,0.6-0.6,1-0.5
				L64,65.3c0.4,0.1,0.6,0.6,0.5,1C64.3,66.5,64,66.8,63.7,66.8z"/>
		</g>
	</g>
</g>
</svg>
