<?xml version="1.0" encoding="utf-8"?>
<!-- Generator: Adobe Illustrator 19.0.0, SVG Export Plug-In . SVG Version: 6.00 Build 0)  -->
<svg version="1.1" id="Layer_1" xmlns="http://www.w3.org/2000/svg" xmlns:xlink="http://www.w3.org/1999/xlink" x="0px" y="0px"
	 viewBox="-620 689.3 176 40" style="enable-background:new -620 689.3 176 40;" xml:space="preserve">
<style type="text/css">
	.st0{fill:url(#SVGID_1_);}
</style>
<g>
	
		<linearGradient id="SVGID_1_" gradientUnits="userSpaceOnUse" x1="-559.1847" y1="757.7252" x2="-504.8153" y2="663.5549" gradientTransform="matrix(1 0 0 -1 0 1419.9601)">
		<stop  offset="0" style="stop-color:#E8A995"/>
		<stop  offset="1" style="stop-color:#AB5743"/>
	</linearGradient>
	<path class="st0" d="M-620,708.3v2c0,10.5,8.5,19,19,19h138c10.5,0,19-8.5,19-19v-2c0-10.5-8.5-19-19-19h-138
		C-611.5,689.3-620,697.8-620,708.3z M-464,728.3h-136c-10.5,0-19-8.5-19-19l0,0c0-10.5,8.5-19,19-19h136c10.5,0,19,8.5,19,19l0,0
		C-445,719.8-453.5,728.3-464,728.3z"/>
</g>
</svg>
