<?xml version="1.0" encoding="utf-8"?>
<!-- Generator: Adobe Illustrator 19.0.0, SVG Export Plug-In . SVG Version: 6.00 Build 0)  -->
<svg version="1.1" id="Layer_1" xmlns="http://www.w3.org/2000/svg" xmlns:xlink="http://www.w3.org/1999/xlink" x="0px" y="0px"
	 viewBox="-683 684.3 50 50" style="enable-background:new -683 684.3 50 50;" xml:space="preserve">
<style type="text/css">
	.st0{fill:url(#SVGID_1_);}
	.st1{fill:#FFFFFF;}
	.st2{fill:#EF2538;}
	.st3{fill:#41479B; }
</style>
<g id="surface1">
	
		<linearGradient id="SVGID_1_" gradientUnits="userSpaceOnUse" x1="-681.5244" y1="710.1693" x2="-635.5244" y2="710.1693" gradientTransform="matrix(1 0 0 -1 0 1419.9601)">
		<stop  offset="0" style="stop-color:#D79888"/>
		<stop  offset="1" style="stop-color:#BA7A67"/>
		<stop  offset="1" style="stop-color:#B2725E"/>
	</linearGradient>
	<path class="st0" d="M-681.5,709.8c0,12.7,10.3,23,23,23s23-10.3,23-23s-10.3-23-23-23S-681.5,697.1-681.5,709.8z M-637.5,709.8
		c0,11.6-9.4,21-21,21s-21-9.4-21-21s9.4-21,21-21S-637.5,698.2-637.5,709.8z"/>
</g>
<g>
	<polygon class="st1" points="-675.7,716.5 -641.3,716.5 -641.3,716.5 	"/>
	<path class="st1" d="M-658.5,691.4c-7.9,0-14.7,5-17.3,12h34.6C-643.9,696.4-650.6,691.4-658.5,691.4z"/>
	<path class="st2" d="M-658.5,728.3c7.8,0,14.5-4.9,17.2-11.8h-34.4C-673.1,723.4-666.4,728.3-658.5,728.3z"/>
	<path class="st3" d="M-677,709.8L-677,709.8c0,2.4,0.5,4.7,1.3,6.7h34.4c0.8-2.1,1.3-4.3,1.3-6.7c0,0,0,0,0-0.1
		c0-2.2-0.4-4.4-1.2-6.4h-34.6C-676.6,705.4-677,707.5-677,709.8z"/>
</g>
</svg>
