<?xml version="1.0" encoding="utf-8"?>
<!-- Generator: Adobe Illustrator 19.0.0, SVG Export Plug-In . SVG Version: 6.00 Build 0)  -->
<svg version="1.1" id="Layer_1" xmlns="http://www.w3.org/2000/svg" xmlns:xlink="http://www.w3.org/1999/xlink" x="0px" y="0px"
	 viewBox="-683 684.3 50 50" style="enable-background:new -683 684.3 50 50;" xml:space="preserve">
<style type="text/css">
	.st0{fill:url(#SVGID_1_);}
	.st1{fill:#41479B;}
	.st2{fill:#F5F5F5;}
	.st3{fill:#F22F4B;}
</style>
<g id="surface1">
	
		<linearGradient id="SVGID_1_" gradientUnits="userSpaceOnUse" x1="-682" y1="710.9794" x2="-636" y2="710.9794" gradientTransform="matrix(1 0 0 -1 0 1419.9601)">
		<stop  offset="0" style="stop-color:#D79888"/>
		<stop  offset="1" style="stop-color:#BA7A67"/>
		<stop  offset="1" style="stop-color:#B2725E"/>
	</linearGradient>
	<path class="st0" d="M-682,709c0,12.7,10.3,23,23,23s23-10.3,23-23s-10.3-23-23-23S-682,696.3-682,709z M-638,709
		c0,11.6-9.4,21-21,21s-21-9.4-21-21s9.4-21,21-21S-638,697.4-638,709z"/>
</g>
<g>
	<path class="st1" d="M-675.8,701.4c-0.2,0.4-0.4,0.8-0.5,1.2l0,0c-0.1,0.4-0.3,0.8-0.4,1.2h4.6L-675.8,701.4z"/>
	<path class="st1" d="M-664,691.3c-3.3,0.9-6.2,2.7-8.4,5.2l8.4,5.5V691.3z"/>
	<path class="st1" d="M-672.7,721.3c2.3,2.6,5.3,4.5,8.7,5.4v-11.2L-672.7,721.3z"/>
	<path class="st1" d="M-676.8,713.8c0.2,0.7,0.4,1.3,0.6,1.9l0,0c0.1,0.2,0.2,0.4,0.3,0.6l3.9-2.5H-676.8z"/>
	<path class="st1" d="M-641.3,703.8c-0.1-0.4-0.2-0.8-0.4-1.2l0,0c-0.2-0.4-0.3-0.8-0.5-1.2l-3.7,2.4H-641.3z"/>
	<path class="st1" d="M-645.6,696.4c-2.3-2.4-5.2-4.2-8.5-5.1V702L-645.6,696.4z"/>
	<path class="st1" d="M-642.1,716.3c0.1-0.2,0.2-0.4,0.3-0.6l0,0c0.2-0.6,0.4-1.3,0.6-1.9h-4.8L-642.1,716.3z"/>
	<path class="st1" d="M-654,726.8c3.4-1,6.4-2.9,8.7-5.4l-8.7-5.7V726.8z"/>
	<path class="st2" d="M-661.7,705.8v-15c-0.8,0.1-1.5,0.3-2.3,0.5V702l-8.4-5.5c-0.6,0.6-1.1,1.3-1.6,2l8.3,5.4h-3.7l-5.8-3.7
		c-0.2,0.4-0.5,0.9-0.7,1.3l3.7,2.4h-4.6c-0.2,0.7-0.4,1.3-0.5,2h15.6V705.8z"/>
	<path class="st2" d="M-661.7,711.8h-15.5c0.1,0.7,0.2,1.3,0.4,2h4.8l-3.9,2.5c0.3,0.8,0.7,1.5,1.1,2.2l7.4-4.8l0,0h3.7l-9.9,6.4
		c0.3,0.4,0.6,0.8,1,1.1l8.7-5.7v11.2c0.7,0.2,1.5,0.4,2.3,0.5L-661.7,711.8L-661.7,711.8z"/>
	<path class="st2" d="M-655.7,705.8h14.9c-0.1-0.7-0.3-1.3-0.5-2h-4.6l3.7-2.4c-0.3-0.7-0.7-1.4-1-2l-6.8,4.4h-3.7l9.3-6.1
		c-0.4-0.5-0.7-0.9-1.1-1.3l-8.5,5.5v-10.7c-0.6-0.2-1.1-0.3-1.7-0.4L-655.7,705.8L-655.7,705.8z"/>
	<path class="st2" d="M-652.2,713.8h3.7l5.9,3.8c0.2-0.4,0.4-0.8,0.6-1.3l-3.9-2.5h4.8c0.2-0.7,0.3-1.3,0.4-2h-15v15.4
		c0.6-0.1,1.2-0.2,1.7-0.4v-11.2l8.7,5.7c0.6-0.6,1.1-1.3,1.6-2L-652.2,713.8z"/>
	<path class="st3" d="M-663.8,713.8h-3.7l0,0l-7.4,4.8c0.3,0.6,0.7,1.1,1.1,1.7L-663.8,713.8z"/>
	<path class="st3" d="M-669.4,703.8h3.7l-8.3-5.4c-0.4,0.5-0.7,1.1-1.1,1.7L-669.4,703.8z"/>
	<path class="st3" d="M-653.8,703.8h3.7l6.8-4.4c-0.3-0.6-0.7-1.1-1.1-1.6L-653.8,703.8z"/>
	<path class="st3" d="M-640.5,709c0-1.1-0.1-2.1-0.3-3.2h-14.9v-14.9c-1.1-0.2-2.1-0.3-3.3-0.3c-0.9,0-1.8,0.1-2.7,0.2v15h-15.4
		c-0.2,1-0.3,2.1-0.3,3.2c0,0,0,0,0,0.1c0,0.9,0.1,1.9,0.2,2.8h15.5v15.5c0.9,0.1,1.8,0.2,2.7,0.2c1.1,0,2.2-0.1,3.3-0.3v-15.4h15
		C-640.6,710.9-640.5,710-640.5,709L-640.5,709z"/>
	<path class="st3" d="M-652.2,713.8l8.5,5.5c0.4-0.6,0.7-1.1,1-1.7l-5.9-3.8H-652.2z"/>
</g>
</svg>
