<?xml version="1.0" encoding="utf-8"?>
<!-- Generator: Adobe Illustrator 19.0.0, SVG Export Plug-In . SVG Version: 6.00 Build 0)  -->
<svg version="1.1" id="Layer_1" xmlns="http://www.w3.org/2000/svg" xmlns:xlink="http://www.w3.org/1999/xlink" x="0px" y="0px"
	 viewBox="-696 697 25 24.3" style="enable-background:new -696 697 25 24.3;" xml:space="preserve">
<style type="text/css">
	.st0{fill:url(#svg_1_1_);}
</style>
<g>
	<title>Layer 1</title>
	<linearGradient id="svg_1_1_" gradientUnits="userSpaceOnUse" x1="-691.7977" y1="695.4075" x2="-676.0023" y2="722.7658">
		<stop  offset="0" style="stop-color:#D79888"/>
		<stop  offset="1" style="stop-color:#BA7A67"/>
		<stop  offset="1" style="stop-color:#B2725E"/>
	</linearGradient>
	<path id="svg_1" class="st0" d="M-694,697c-1.1,0-2,0.9-2,2v20.2c0,1.1,0.9,2,2,2h20.2c1.1,0,2-0.9,2-2V699c0-1.1-0.9-2-2-2H-694z
		 M-694,697.8h1.6h2.4h2.4h2.4h2.4h2.4h2.4h2.4h1.6c0.2,0,0.4,0,0.5,0.1c-0.1,0.1-0.1,0.2-0.1,0.3c0,0.2,0.2,0.4,0.4,0.4
		c0.1,0,0.2,0,0.3-0.1c0.1,0.2,0.1,0.3,0.1,0.5v1.6v2.4v2.4v2.4v2.4v2.4v2.4v2.4v1.6c0,0.2,0,0.4-0.1,0.5c-0.1-0.1-0.2-0.1-0.3-0.1
		c-0.2,0-0.4,0.2-0.4,0.4c0,0.1,0,0.2,0.1,0.3c-0.2,0.1-0.3,0.1-0.5,0.1h-1.6h-2.4h-2.4h-2.4h-2.4h-2.4h-2.4h-2.4h-1.6
		c-0.2,0-0.4,0-0.5-0.1c0.1-0.1,0.1-0.2,0.1-0.3c0-0.2-0.2-0.4-0.4-0.4c-0.1,0-0.2,0-0.3,0.1c-0.1-0.2-0.1-0.3-0.1-0.5v-1.6V715
		v-2.4v-2.4v-2.4v-2.3v-2.4v-2.4v-1.6c0-0.2,0-0.4,0.1-0.5c0.1,0.1,0.2,0.1,0.3,0.1c0.2,0,0.4-0.2,0.4-0.4c0-0.1,0-0.2-0.1-0.3
		C-694.4,697.9-694.2,697.8-694,697.8z M-695.2,700.6c0,0.2,0.2,0.4,0.4,0.4s0.4-0.2,0.4-0.4c0-0.2-0.2-0.4-0.4-0.4
		S-695.2,700.4-695.2,700.6z M-695.2,703.1c0,0.2,0.2,0.4,0.4,0.4s0.4-0.2,0.4-0.4c0-0.2-0.2-0.4-0.4-0.4S-695.2,702.8-695.2,703.1z
		 M-695.2,705.5c0,0.2,0.2,0.4,0.4,0.4s0.4-0.2,0.4-0.4s-0.2-0.4-0.4-0.4S-695.2,705.3-695.2,705.5z M-695.2,707.9
		c0,0.2,0.2,0.4,0.4,0.4s0.4-0.2,0.4-0.4c0-0.2-0.2-0.4-0.4-0.4S-695.2,707.7-695.2,707.9z M-695.2,710.3c0,0.2,0.2,0.4,0.4,0.4
		s0.4-0.2,0.4-0.4s-0.2-0.4-0.4-0.4S-695.2,710.1-695.2,710.3z M-695.2,712.8c0,0.2,0.2,0.4,0.4,0.4s0.4-0.2,0.4-0.4
		s-0.2-0.4-0.4-0.4S-695.2,712.5-695.2,712.8z M-695.2,715.2c0,0.2,0.2,0.4,0.4,0.4s0.4-0.2,0.4-0.4s-0.2-0.4-0.4-0.4
		S-695.2,715-695.2,715.2z M-695.2,717.6c0,0.2,0.2,0.4,0.4,0.4s0.4-0.2,0.4-0.4c0-0.2-0.2-0.4-0.4-0.4S-695.2,717.4-695.2,717.6z
		 M-692.4,720.4c0.2,0,0.4-0.2,0.4-0.4s-0.2-0.4-0.4-0.4c-0.2,0-0.4,0.2-0.4,0.4S-692.6,720.4-692.4,720.4z M-689.9,720.4
		c0.2,0,0.4-0.2,0.4-0.4s-0.2-0.4-0.4-0.4c-0.2,0-0.4,0.2-0.4,0.4S-690.2,720.4-689.9,720.4z M-687.5,720.4c0.2,0,0.4-0.2,0.4-0.4
		s-0.2-0.4-0.4-0.4s-0.4,0.2-0.4,0.4S-687.7,720.4-687.5,720.4z M-685.1,720.4c0.2,0,0.4-0.2,0.4-0.4s-0.2-0.4-0.4-0.4
		c-0.2,0-0.4,0.2-0.4,0.4S-685.3,720.4-685.1,720.4z M-682.7,720.4c0.2,0,0.4-0.2,0.4-0.4s-0.2-0.4-0.4-0.4s-0.4,0.2-0.4,0.4
		S-682.9,720.4-682.7,720.4z M-680.3,720.4c0.2,0,0.4-0.2,0.4-0.4s-0.2-0.4-0.4-0.4s-0.4,0.2-0.4,0.4S-680.5,720.4-680.3,720.4z
		 M-677.8,720.4c0.2,0,0.4-0.2,0.4-0.4s-0.2-0.4-0.4-0.4s-0.4,0.2-0.4,0.4S-678.1,720.4-677.8,720.4z M-675.4,720.4
		c0.2,0,0.4-0.2,0.4-0.4s-0.2-0.4-0.4-0.4c-0.2,0-0.4,0.2-0.4,0.4S-675.6,720.4-675.4,720.4z M-672.6,717.6c0-0.2-0.2-0.4-0.4-0.4
		s-0.4,0.2-0.4,0.4c0,0.2,0.2,0.4,0.4,0.4S-672.6,717.8-672.6,717.6z M-672.6,715.2c0-0.2-0.2-0.4-0.4-0.4s-0.4,0.2-0.4,0.4
		s0.2,0.4,0.4,0.4S-672.6,715.4-672.6,715.2z M-672.6,712.8c0-0.2-0.2-0.4-0.4-0.4s-0.4,0.2-0.4,0.4s0.2,0.4,0.4,0.4
		S-672.6,713-672.6,712.8z M-672.6,710.3c0-0.2-0.2-0.4-0.4-0.4s-0.4,0.2-0.4,0.4s0.2,0.4,0.4,0.4S-672.6,710.6-672.6,710.3z
		 M-672.6,707.9c0-0.2-0.2-0.4-0.4-0.4s-0.4,0.2-0.4,0.4c0,0.2,0.2,0.4,0.4,0.4S-672.6,708.1-672.6,707.9z M-672.6,705.5
		c0-0.2-0.2-0.4-0.4-0.4s-0.4,0.2-0.4,0.4s0.2,0.4,0.4,0.4S-672.6,705.7-672.6,705.5z M-672.6,703.1c0-0.2-0.2-0.4-0.4-0.4
		s-0.4,0.2-0.4,0.4c0,0.2,0.2,0.4,0.4,0.4S-672.6,703.3-672.6,703.1z M-672.6,700.6c0-0.2-0.2-0.4-0.4-0.4s-0.4,0.2-0.4,0.4
		c0,0.2,0.2,0.4,0.4,0.4S-672.6,700.9-672.6,700.6z M-675.4,697.8c-0.2,0-0.4,0.2-0.4,0.4s0.2,0.4,0.4,0.4c0.2,0,0.4-0.2,0.4-0.4
		S-675.2,697.8-675.4,697.8z M-677.8,697.8c-0.2,0-0.4,0.2-0.4,0.4s0.2,0.4,0.4,0.4s0.4-0.2,0.4-0.4S-677.6,697.8-677.8,697.8z
		 M-680.3,697.8c-0.2,0-0.4,0.2-0.4,0.4s0.2,0.4,0.4,0.4s0.4-0.2,0.4-0.4S-680,697.8-680.3,697.8z M-682.7,697.8
		c-0.2,0-0.4,0.2-0.4,0.4s0.2,0.4,0.4,0.4s0.4-0.2,0.4-0.4S-682.5,697.8-682.7,697.8z M-685.1,697.8c-0.2,0-0.4,0.2-0.4,0.4
		s0.2,0.4,0.4,0.4c0.2,0,0.4-0.2,0.4-0.4S-684.9,697.8-685.1,697.8z M-687.5,697.8c-0.2,0-0.4,0.2-0.4,0.4s0.2,0.4,0.4,0.4
		s0.4-0.2,0.4-0.4S-687.3,697.8-687.5,697.8z M-689.9,697.8c-0.2,0-0.4,0.2-0.4,0.4s0.2,0.4,0.4,0.4c0.2,0,0.4-0.2,0.4-0.4
		S-689.7,697.8-689.9,697.8z M-692.4,697.8c-0.2,0-0.4,0.2-0.4,0.4s0.2,0.4,0.4,0.4c0.2,0,0.4-0.2,0.4-0.4S-692.1,697.8-692.4,697.8
		z M-693.6,699c-0.2,0-0.4,0.2-0.4,0.4c0,0.2,0.2,0.4,0.4,0.4c0.2,0,0.4-0.2,0.4-0.4C-693.2,699.2-693.4,699-693.6,699z M-691.2,699
		c-0.2,0-0.4,0.2-0.4,0.4c0,0.2,0.2,0.4,0.4,0.4s0.4-0.2,0.4-0.4C-690.8,699.2-690.9,699-691.2,699z M-688.7,699
		c-0.2,0-0.4,0.2-0.4,0.4c0,0.2,0.2,0.4,0.4,0.4s0.4-0.2,0.4-0.4C-688.3,699.2-688.5,699-688.7,699z M-686.3,699
		c-0.2,0-0.4,0.2-0.4,0.4c0,0.2,0.2,0.4,0.4,0.4s0.4-0.2,0.4-0.4C-685.9,699.2-686.1,699-686.3,699z M-683.9,699
		c-0.2,0-0.4,0.2-0.4,0.4c0,0.2,0.2,0.4,0.4,0.4c0.2,0,0.4-0.2,0.4-0.4C-683.5,699.2-683.7,699-683.9,699z M-681.5,699
		c-0.2,0-0.4,0.2-0.4,0.4c0,0.2,0.2,0.4,0.4,0.4s0.4-0.2,0.4-0.4C-681.1,699.2-681.2,699-681.5,699z M-679,699
		c-0.2,0-0.4,0.2-0.4,0.4c0,0.2,0.2,0.4,0.4,0.4s0.4-0.2,0.4-0.4C-678.6,699.2-678.8,699-679,699z M-676.6,699
		c-0.2,0-0.4,0.2-0.4,0.4c0,0.2,0.2,0.4,0.4,0.4c0.2,0,0.4-0.2,0.4-0.4C-676.2,699.2-676.4,699-676.6,699z M-674.2,699
		c-0.2,0-0.4,0.2-0.4,0.4c0,0.2,0.2,0.4,0.4,0.4s0.4-0.2,0.4-0.4C-673.8,699.2-674,699-674.2,699z M-692.4,700.2
		c-0.2,0-0.4,0.2-0.4,0.4c0,0.2,0.2,0.4,0.4,0.4c0.2,0,0.4-0.2,0.4-0.4C-692,700.4-692.1,700.2-692.4,700.2z M-689.9,700.2
		c-0.2,0-0.4,0.2-0.4,0.4c0,0.2,0.2,0.4,0.4,0.4c0.2,0,0.4-0.2,0.4-0.4C-689.5,700.4-689.7,700.2-689.9,700.2z M-687.5,700.2
		c-0.2,0-0.4,0.2-0.4,0.4c0,0.2,0.2,0.4,0.4,0.4s0.4-0.2,0.4-0.4C-687.1,700.4-687.3,700.2-687.5,700.2z M-685.1,700.2
		c-0.2,0-0.4,0.2-0.4,0.4c0,0.2,0.2,0.4,0.4,0.4c0.2,0,0.4-0.2,0.4-0.4C-684.7,700.4-684.9,700.2-685.1,700.2z M-682.7,700.2
		c-0.2,0-0.4,0.2-0.4,0.4c0,0.2,0.2,0.4,0.4,0.4s0.4-0.2,0.4-0.4C-682.3,700.4-682.5,700.2-682.7,700.2z M-680.3,700.2
		c-0.2,0-0.4,0.2-0.4,0.4c0,0.2,0.2,0.4,0.4,0.4s0.4-0.2,0.4-0.4C-679.9,700.4-680,700.2-680.3,700.2z M-677.8,700.2
		c-0.2,0-0.4,0.2-0.4,0.4c0,0.2,0.2,0.4,0.4,0.4s0.4-0.2,0.4-0.4C-677.4,700.4-677.6,700.2-677.8,700.2z M-675.4,700.2
		c-0.2,0-0.4,0.2-0.4,0.4c0,0.2,0.2,0.4,0.4,0.4c0.2,0,0.4-0.2,0.4-0.4C-675,700.4-675.2,700.2-675.4,700.2z M-693.6,701.4
		c-0.2,0-0.4,0.2-0.4,0.4s0.2,0.4,0.4,0.4c0.2,0,0.4-0.2,0.4-0.4S-693.4,701.4-693.6,701.4z M-691.2,701.4c-0.2,0-0.4,0.2-0.4,0.4
		s0.2,0.4,0.4,0.4s0.4-0.2,0.4-0.4S-690.9,701.4-691.2,701.4z M-688.7,701.4c-0.2,0-0.4,0.2-0.4,0.4s0.2,0.4,0.4,0.4
		s0.4-0.2,0.4-0.4S-688.5,701.4-688.7,701.4z M-686.3,701.4c-0.2,0-0.4,0.2-0.4,0.4s0.2,0.4,0.4,0.4s0.4-0.2,0.4-0.4
		S-686.1,701.4-686.3,701.4z M-683.9,701.4c-0.2,0-0.4,0.2-0.4,0.4s0.2,0.4,0.4,0.4c0.2,0,0.4-0.2,0.4-0.4S-683.7,701.4-683.9,701.4
		z M-681.5,701.4c-0.2,0-0.4,0.2-0.4,0.4s0.2,0.4,0.4,0.4s0.4-0.2,0.4-0.4S-681.2,701.4-681.5,701.4z M-679,701.4
		c-0.2,0-0.4,0.2-0.4,0.4s0.2,0.4,0.4,0.4s0.4-0.2,0.4-0.4S-678.8,701.4-679,701.4z M-676.6,701.4c-0.2,0-0.4,0.2-0.4,0.4
		s0.2,0.4,0.4,0.4c0.2,0,0.4-0.2,0.4-0.4S-676.4,701.4-676.6,701.4z M-674.2,701.4c-0.2,0-0.4,0.2-0.4,0.4s0.2,0.4,0.4,0.4
		s0.4-0.2,0.4-0.4S-674,701.4-674.2,701.4z M-692.4,702.7c-0.2,0-0.4,0.2-0.4,0.4c0,0.2,0.2,0.4,0.4,0.4c0.2,0,0.4-0.2,0.4-0.4
		C-692,702.8-692.1,702.7-692.4,702.7z M-689.9,702.7c-0.2,0-0.4,0.2-0.4,0.4c0,0.2,0.2,0.4,0.4,0.4c0.2,0,0.4-0.2,0.4-0.4
		C-689.5,702.8-689.7,702.7-689.9,702.7z M-687.5,702.7c-0.2,0-0.4,0.2-0.4,0.4c0,0.2,0.2,0.4,0.4,0.4s0.4-0.2,0.4-0.4
		C-687.1,702.8-687.3,702.7-687.5,702.7z M-685.5,702.7v4.8h-4.8v3.2h4.8v4.8h3.2v-4.8h4.8v-3.2h-0.4h-4.4v-4.8H-685.5z
		 M-680.3,702.7c-0.2,0-0.4,0.2-0.4,0.4c0,0.2,0.2,0.4,0.4,0.4s0.4-0.2,0.4-0.4C-679.9,702.8-680,702.7-680.3,702.7z M-677.8,702.7
		c-0.2,0-0.4,0.2-0.4,0.4c0,0.2,0.2,0.4,0.4,0.4s0.4-0.2,0.4-0.4C-677.4,702.8-677.6,702.7-677.8,702.7z M-675.4,702.7
		c-0.2,0-0.4,0.2-0.4,0.4c0,0.2,0.2,0.4,0.4,0.4c0.2,0,0.4-0.2,0.4-0.4C-675,702.8-675.2,702.7-675.4,702.7z M-684.7,703.5h1.6v4.8
		h4.8v1.6h-4.8v4.8h-1.6v-4.8h-4.8v-1.6h4.8C-684.7,708.3-684.7,703.5-684.7,703.5z M-693.6,703.9c-0.2,0-0.4,0.2-0.4,0.4
		s0.2,0.4,0.4,0.4c0.2,0,0.4-0.2,0.4-0.4S-693.4,703.9-693.6,703.9z M-691.2,703.9c-0.2,0-0.4,0.2-0.4,0.4s0.2,0.4,0.4,0.4
		s0.4-0.2,0.4-0.4S-690.9,703.9-691.2,703.9z M-688.7,703.9c-0.2,0-0.4,0.2-0.4,0.4s0.2,0.4,0.4,0.4s0.4-0.2,0.4-0.4
		S-688.5,703.9-688.7,703.9z M-686.3,703.9c-0.2,0-0.4,0.2-0.4,0.4s0.2,0.4,0.4,0.4s0.4-0.2,0.4-0.4S-686.1,703.9-686.3,703.9z
		 M-681.5,703.9c-0.2,0-0.4,0.2-0.4,0.4s0.2,0.4,0.4,0.4s0.4-0.2,0.4-0.4S-681.2,703.9-681.5,703.9z M-679,703.9
		c-0.2,0-0.4,0.2-0.4,0.4s0.2,0.4,0.4,0.4s0.4-0.2,0.4-0.4S-678.8,703.9-679,703.9z M-676.6,703.9c-0.2,0-0.4,0.2-0.4,0.4
		s0.2,0.4,0.4,0.4c0.2,0,0.4-0.2,0.4-0.4S-676.4,703.9-676.6,703.9z M-674.2,703.9c-0.2,0-0.4,0.2-0.4,0.4s0.2,0.4,0.4,0.4
		s0.4-0.2,0.4-0.4S-674,703.9-674.2,703.9z M-692.4,705.1c-0.2,0-0.4,0.2-0.4,0.4s0.2,0.4,0.4,0.4c0.2,0,0.4-0.2,0.4-0.4
		S-692.1,705.1-692.4,705.1z M-689.9,705.1c-0.2,0-0.4,0.2-0.4,0.4s0.2,0.4,0.4,0.4c0.2,0,0.4-0.2,0.4-0.4S-689.7,705.1-689.9,705.1
		z M-687.5,705.1c-0.2,0-0.4,0.2-0.4,0.4s0.2,0.4,0.4,0.4s0.4-0.2,0.4-0.4S-687.3,705.1-687.5,705.1z M-680.3,705.1
		c-0.2,0-0.4,0.2-0.4,0.4s0.2,0.4,0.4,0.4s0.4-0.2,0.4-0.4S-680,705.1-680.3,705.1z M-677.8,705.1c-0.2,0-0.4,0.2-0.4,0.4
		s0.2,0.4,0.4,0.4s0.4-0.2,0.4-0.4S-677.6,705.1-677.8,705.1z M-675.4,705.1c-0.2,0-0.4,0.2-0.4,0.4s0.2,0.4,0.4,0.4
		c0.2,0,0.4-0.2,0.4-0.4S-675.2,705.1-675.4,705.1z M-693.6,706.3c-0.2,0-0.4,0.2-0.4,0.4s0.2,0.4,0.4,0.4c0.2,0,0.4-0.2,0.4-0.4
		S-693.4,706.3-693.6,706.3z M-691.2,706.3c-0.2,0-0.4,0.2-0.4,0.4s0.2,0.4,0.4,0.4s0.4-0.2,0.4-0.4S-690.9,706.3-691.2,706.3z
		 M-688.7,706.3c-0.2,0-0.4,0.2-0.4,0.4s0.2,0.4,0.4,0.4s0.4-0.2,0.4-0.4S-688.5,706.3-688.7,706.3z M-686.3,706.3
		c-0.2,0-0.4,0.2-0.4,0.4s0.2,0.4,0.4,0.4s0.4-0.2,0.4-0.4S-686.1,706.3-686.3,706.3z M-681.5,706.3c-0.2,0-0.4,0.2-0.4,0.4
		s0.2,0.4,0.4,0.4s0.4-0.2,0.4-0.4S-681.2,706.3-681.5,706.3z M-679,706.3c-0.2,0-0.4,0.2-0.4,0.4s0.2,0.4,0.4,0.4s0.4-0.2,0.4-0.4
		S-678.8,706.3-679,706.3z M-676.6,706.3c-0.2,0-0.4,0.2-0.4,0.4s0.2,0.4,0.4,0.4c0.2,0,0.4-0.2,0.4-0.4S-676.4,706.3-676.6,706.3z
		 M-674.2,706.3c-0.2,0-0.4,0.2-0.4,0.4s0.2,0.4,0.4,0.4s0.4-0.2,0.4-0.4S-674,706.3-674.2,706.3z M-692.4,707.5
		c-0.2,0-0.4,0.2-0.4,0.4c0,0.2,0.2,0.4,0.4,0.4c0.2,0,0.4-0.2,0.4-0.4C-692,707.7-692.1,707.5-692.4,707.5z M-675.4,707.5
		c-0.2,0-0.4,0.2-0.4,0.4c0,0.2,0.2,0.4,0.4,0.4c0.2,0,0.4-0.2,0.4-0.4C-675,707.7-675.2,707.5-675.4,707.5z M-693.6,708.7
		c-0.2,0-0.4,0.2-0.4,0.4c0,0.2,0.2,0.4,0.4,0.4c0.2,0,0.4-0.2,0.4-0.4C-693.2,708.9-693.4,708.7-693.6,708.7z M-691.2,708.7
		c-0.2,0-0.4,0.2-0.4,0.4c0,0.2,0.2,0.4,0.4,0.4s0.4-0.2,0.4-0.4C-690.8,708.9-690.9,708.7-691.2,708.7z M-676.6,708.7
		c-0.2,0-0.4,0.2-0.4,0.4c0,0.2,0.2,0.4,0.4,0.4c0.2,0,0.4-0.2,0.4-0.4C-676.2,708.9-676.4,708.7-676.6,708.7z M-674.2,708.7
		c-0.2,0-0.4,0.2-0.4,0.4c0,0.2,0.2,0.4,0.4,0.4s0.4-0.2,0.4-0.4C-673.8,708.9-674,708.7-674.2,708.7z M-692.4,709.9
		c-0.2,0-0.4,0.2-0.4,0.4s0.2,0.4,0.4,0.4c0.2,0,0.4-0.2,0.4-0.4S-692.1,709.9-692.4,709.9z M-675.4,709.9c-0.2,0-0.4,0.2-0.4,0.4
		s0.2,0.4,0.4,0.4c0.2,0,0.4-0.2,0.4-0.4S-675.2,709.9-675.4,709.9z M-693.6,711.1c-0.2,0-0.4,0.2-0.4,0.4s0.2,0.4,0.4,0.4
		c0.2,0,0.4-0.2,0.4-0.4S-693.4,711.1-693.6,711.1z M-691.2,711.1c-0.2,0-0.4,0.2-0.4,0.4s0.2,0.4,0.4,0.4s0.4-0.2,0.4-0.4
		S-690.9,711.1-691.2,711.1z M-688.7,711.1c-0.2,0-0.4,0.2-0.4,0.4s0.2,0.4,0.4,0.4s0.4-0.2,0.4-0.4S-688.5,711.1-688.7,711.1z
		 M-686.3,711.1c-0.2,0-0.4,0.2-0.4,0.4s0.2,0.4,0.4,0.4s0.4-0.2,0.4-0.4S-686.1,711.1-686.3,711.1z M-681.5,711.1
		c-0.2,0-0.4,0.2-0.4,0.4s0.2,0.4,0.4,0.4s0.4-0.2,0.4-0.4S-681.2,711.1-681.5,711.1z M-679,711.1c-0.2,0-0.4,0.2-0.4,0.4
		s0.2,0.4,0.4,0.4s0.4-0.2,0.4-0.4S-678.8,711.1-679,711.1z M-676.6,711.1c-0.2,0-0.4,0.2-0.4,0.4s0.2,0.4,0.4,0.4
		c0.2,0,0.4-0.2,0.4-0.4S-676.4,711.1-676.6,711.1z M-674.2,711.1c-0.2,0-0.4,0.2-0.4,0.4s0.2,0.4,0.4,0.4s0.4-0.2,0.4-0.4
		S-674,711.1-674.2,711.1z M-692.4,712.4c-0.2,0-0.4,0.2-0.4,0.4s0.2,0.4,0.4,0.4c0.2,0,0.4-0.2,0.4-0.4
		C-692,712.5-692.1,712.4-692.4,712.4z M-689.9,712.4c-0.2,0-0.4,0.2-0.4,0.4s0.2,0.4,0.4,0.4c0.2,0,0.4-0.2,0.4-0.4
		C-689.5,712.5-689.7,712.4-689.9,712.4z M-687.5,712.4c-0.2,0-0.4,0.2-0.4,0.4s0.2,0.4,0.4,0.4s0.4-0.2,0.4-0.4
		C-687.1,712.5-687.3,712.4-687.5,712.4z M-680.3,712.4c-0.2,0-0.4,0.2-0.4,0.4s0.2,0.4,0.4,0.4s0.4-0.2,0.4-0.4
		C-679.9,712.5-680,712.4-680.3,712.4z M-677.8,712.4c-0.2,0-0.4,0.2-0.4,0.4s0.2,0.4,0.4,0.4s0.4-0.2,0.4-0.4
		C-677.4,712.5-677.6,712.4-677.8,712.4z M-675.4,712.4c-0.2,0-0.4,0.2-0.4,0.4s0.2,0.4,0.4,0.4c0.2,0,0.4-0.2,0.4-0.4
		C-675,712.5-675.2,712.4-675.4,712.4z M-693.6,713.6c-0.2,0-0.4,0.2-0.4,0.4s0.2,0.4,0.4,0.4c0.2,0,0.4-0.2,0.4-0.4
		C-693.2,713.7-693.4,713.6-693.6,713.6z M-691.2,713.6c-0.2,0-0.4,0.2-0.4,0.4s0.2,0.4,0.4,0.4s0.4-0.2,0.4-0.4
		C-690.8,713.7-690.9,713.6-691.2,713.6z M-688.7,713.6c-0.2,0-0.4,0.2-0.4,0.4s0.2,0.4,0.4,0.4s0.4-0.2,0.4-0.4
		C-688.3,713.7-688.5,713.6-688.7,713.6z M-686.3,713.6c-0.2,0-0.4,0.2-0.4,0.4s0.2,0.4,0.4,0.4s0.4-0.2,0.4-0.4
		C-685.9,713.7-686.1,713.6-686.3,713.6z M-681.5,713.6c-0.2,0-0.4,0.2-0.4,0.4s0.2,0.4,0.4,0.4s0.4-0.2,0.4-0.4
		C-681.1,713.7-681.2,713.6-681.5,713.6z M-679,713.6c-0.2,0-0.4,0.2-0.4,0.4s0.2,0.4,0.4,0.4s0.4-0.2,0.4-0.4
		C-678.6,713.7-678.8,713.6-679,713.6z M-676.6,713.6c-0.2,0-0.4,0.2-0.4,0.4s0.2,0.4,0.4,0.4c0.2,0,0.4-0.2,0.4-0.4
		C-676.2,713.7-676.4,713.6-676.6,713.6z M-674.2,713.6c-0.2,0-0.4,0.2-0.4,0.4s0.2,0.4,0.4,0.4s0.4-0.2,0.4-0.4
		C-673.8,713.7-674,713.6-674.2,713.6z M-692.4,714.8c-0.2,0-0.4,0.2-0.4,0.4s0.2,0.4,0.4,0.4c0.2,0,0.4-0.2,0.4-0.4
		S-692.1,714.8-692.4,714.8z M-689.9,714.8c-0.2,0-0.4,0.2-0.4,0.4s0.2,0.4,0.4,0.4c0.2,0,0.4-0.2,0.4-0.4S-689.7,714.8-689.9,714.8
		z M-687.5,714.8c-0.2,0-0.4,0.2-0.4,0.4s0.2,0.4,0.4,0.4s0.4-0.2,0.4-0.4S-687.3,714.8-687.5,714.8z M-680.3,714.8
		c-0.2,0-0.4,0.2-0.4,0.4s0.2,0.4,0.4,0.4s0.4-0.2,0.4-0.4S-680,714.8-680.3,714.8z M-677.8,714.8c-0.2,0-0.4,0.2-0.4,0.4
		s0.2,0.4,0.4,0.4s0.4-0.2,0.4-0.4S-677.6,714.8-677.8,714.8z M-675.4,714.8c-0.2,0-0.4,0.2-0.4,0.4s0.2,0.4,0.4,0.4
		c0.2,0,0.4-0.2,0.4-0.4S-675.2,714.8-675.4,714.8z M-693.6,716c-0.2,0-0.4,0.2-0.4,0.4c0,0.2,0.2,0.4,0.4,0.4
		c0.2,0,0.4-0.2,0.4-0.4C-693.2,716.2-693.4,716-693.6,716z M-691.2,716c-0.2,0-0.4,0.2-0.4,0.4c0,0.2,0.2,0.4,0.4,0.4
		s0.4-0.2,0.4-0.4C-690.8,716.2-690.9,716-691.2,716z M-688.7,716c-0.2,0-0.4,0.2-0.4,0.4c0,0.2,0.2,0.4,0.4,0.4s0.4-0.2,0.4-0.4
		C-688.3,716.2-688.5,716-688.7,716z M-686.3,716c-0.2,0-0.4,0.2-0.4,0.4c0,0.2,0.2,0.4,0.4,0.4s0.4-0.2,0.4-0.4
		C-685.9,716.2-686.1,716-686.3,716z M-683.9,716c-0.2,0-0.4,0.2-0.4,0.4c0,0.2,0.2,0.4,0.4,0.4c0.2,0,0.4-0.2,0.4-0.4
		C-683.5,716.2-683.7,716-683.9,716z M-681.5,716c-0.2,0-0.4,0.2-0.4,0.4c0,0.2,0.2,0.4,0.4,0.4s0.4-0.2,0.4-0.4
		C-681.1,716.2-681.2,716-681.5,716z M-679,716c-0.2,0-0.4,0.2-0.4,0.4c0,0.2,0.2,0.4,0.4,0.4s0.4-0.2,0.4-0.4
		C-678.6,716.2-678.8,716-679,716z M-676.6,716c-0.2,0-0.4,0.2-0.4,0.4c0,0.2,0.2,0.4,0.4,0.4c0.2,0,0.4-0.2,0.4-0.4
		C-676.2,716.2-676.4,716-676.6,716z M-674.2,716c-0.2,0-0.4,0.2-0.4,0.4c0,0.2,0.2,0.4,0.4,0.4s0.4-0.2,0.4-0.4
		C-673.8,716.2-674,716-674.2,716z M-692.4,717.2c-0.2,0-0.4,0.2-0.4,0.4c0,0.2,0.2,0.4,0.4,0.4c0.2,0,0.4-0.2,0.4-0.4
		C-692,717.4-692.1,717.2-692.4,717.2z M-689.9,717.2c-0.2,0-0.4,0.2-0.4,0.4c0,0.2,0.2,0.4,0.4,0.4c0.2,0,0.4-0.2,0.4-0.4
		C-689.5,717.4-689.7,717.2-689.9,717.2z M-687.5,717.2c-0.2,0-0.4,0.2-0.4,0.4c0,0.2,0.2,0.4,0.4,0.4s0.4-0.2,0.4-0.4
		C-687.1,717.4-687.3,717.2-687.5,717.2z M-685.1,717.2c-0.2,0-0.4,0.2-0.4,0.4c0,0.2,0.2,0.4,0.4,0.4c0.2,0,0.4-0.2,0.4-0.4
		C-684.7,717.4-684.9,717.2-685.1,717.2z M-682.7,717.2c-0.2,0-0.4,0.2-0.4,0.4c0,0.2,0.2,0.4,0.4,0.4s0.4-0.2,0.4-0.4
		C-682.3,717.4-682.5,717.2-682.7,717.2z M-680.3,717.2c-0.2,0-0.4,0.2-0.4,0.4c0,0.2,0.2,0.4,0.4,0.4s0.4-0.2,0.4-0.4
		C-679.9,717.4-680,717.2-680.3,717.2z M-677.8,717.2c-0.2,0-0.4,0.2-0.4,0.4c0,0.2,0.2,0.4,0.4,0.4s0.4-0.2,0.4-0.4
		C-677.4,717.4-677.6,717.2-677.8,717.2z M-675.4,717.2c-0.2,0-0.4,0.2-0.4,0.4c0,0.2,0.2,0.4,0.4,0.4c0.2,0,0.4-0.2,0.4-0.4
		C-675,717.4-675.2,717.2-675.4,717.2z M-693.6,718.4c-0.2,0-0.4,0.2-0.4,0.4s0.2,0.4,0.4,0.4c0.2,0,0.4-0.2,0.4-0.4
		S-693.4,718.4-693.6,718.4z M-691.2,718.4c-0.2,0-0.4,0.2-0.4,0.4s0.2,0.4,0.4,0.4s0.4-0.2,0.4-0.4S-690.9,718.4-691.2,718.4z
		 M-688.7,718.4c-0.2,0-0.4,0.2-0.4,0.4s0.2,0.4,0.4,0.4s0.4-0.2,0.4-0.4S-688.5,718.4-688.7,718.4z M-686.3,718.4
		c-0.2,0-0.4,0.2-0.4,0.4s0.2,0.4,0.4,0.4s0.4-0.2,0.4-0.4S-686.1,718.4-686.3,718.4z M-683.9,718.4c-0.2,0-0.4,0.2-0.4,0.4
		s0.2,0.4,0.4,0.4c0.2,0,0.4-0.2,0.4-0.4S-683.7,718.4-683.9,718.4z M-681.5,718.4c-0.2,0-0.4,0.2-0.4,0.4s0.2,0.4,0.4,0.4
		s0.4-0.2,0.4-0.4S-681.2,718.4-681.5,718.4z M-679,718.4c-0.2,0-0.4,0.2-0.4,0.4s0.2,0.4,0.4,0.4s0.4-0.2,0.4-0.4
		S-678.8,718.4-679,718.4z M-676.6,718.4c-0.2,0-0.4,0.2-0.4,0.4s0.2,0.4,0.4,0.4c0.2,0,0.4-0.2,0.4-0.4S-676.4,718.4-676.6,718.4z
		 M-674.2,718.4c-0.2,0-0.4,0.2-0.4,0.4s0.2,0.4,0.4,0.4s0.4-0.2,0.4-0.4S-674,718.4-674.2,718.4z"/>
</g>
</svg>
