<svg xmlns="http://www.w3.org/2000/svg" xmlns:xlink="http://www.w3.org/1999/xlink" version="1.1" style="" xml:space="preserve" width="25" height="24.333333200878542"><rect id="backgroundrect" width="100%" height="100%" x="0" y="0" fill="none" stroke="none" class="selected" style=""/>
<style type="text/css">
	.st0{fill:url(#SVGID_1_);}
	.st1{fill:url(#SVGID_2_);}
	.st2{fill:url(#SVGID_3_);}
	.st3{fill:url(#SVGID_4_);}
	.st4{fill:url(#SVGID_5_);}
	.st5{fill:url(#SVGID_6_);}
	.st6{fill:url(#SVGID_7_);}
	.st7{fill:url(#SVGID_8_);}
	.st8{fill:url(#SVGID_9_);}
	.st9{fill:url(#SVGID_10_);}
	.st10{fill:url(#SVGID_11_);}
</style>
<linearGradient id="SVGID_1_" gradientUnits="userSpaceOnUse" x1="-616.2086181640625" y1="709.62158203125" x2="-591.9713745117188" y2="709.62158203125">
	<stop offset="0" style="stop-color:#B2725E"/>
	<stop offset="1" style="stop-color:#D79888"/>
</linearGradient>


<g class="currentLayer" style=""><title>Layer 1</title><path class="st0" d="M2.0000122070312045,0 c-1.1,0 -2,0.9 -2,2 v20.2 c0,1.1 0.9,2 2,2 h20.2 c1.1,0 2,-0.9 2,-2 v-20.2 c0,-1.1 -0.9,-2 -2,-2 H2.0000122070312045 zM2.0000122070312045,0.7999999999999545 h1.6 h2.4 h2.4 h2.4 h2.4 h2.4 h2.4 h2.4 h1.6 c0.2,0 0.4,0 0.5,0.1 c-0.1,0.1 -0.1,0.2 -0.1,0.30000000000000004 c0,0.2 0.2,0.4 0.4,0.4 c0.1,0 0.2,0 0.30000000000000004,-0.1 c0.1,0.2 0.1,0.30000000000000004 0.1,0.5 v1.6 v2.4 v2.4 v2.4 v2.4 v2.4 v2.4 v2.4 v1.6 c0,0.2 0,0.4 -0.1,0.5 c-0.1,-0.1 -0.2,-0.1 -0.30000000000000004,-0.1 c-0.2,0 -0.4,0.2 -0.4,0.4 c0,0.1 0,0.2 0.1,0.30000000000000004 c-0.2,0.1 -0.30000000000000004,0.1 -0.5,0.1 h-1.6 h-2.4 h-2.4 h-2.4 h-2.4 h-2.4 h-2.4 h-2.4 h-1.6 c-0.2,0 -0.4,0 -0.5,-0.1 c0.1,-0.1 0.1,-0.2 0.1,-0.30000000000000004 c0,-0.2 -0.2,-0.4 -0.4,-0.4 c-0.1,0 -0.2,0 -0.30000000000000004,0.1 c-0.1,-0.2 -0.1,-0.30000000000000004 -0.1,-0.5 v-1.6 v-2.4 v-2.4 v-2.4 v-2.4 V8.5 v-2.4 v-2.4 v-1.6 c0,-0.2 0,-0.4 0.1,-0.5 c0.1,0.1 0.2,0.1 0.30000000000000004,0.1 c0.2,0 0.4,-0.2 0.4,-0.4 c0,-0.1 0,-0.2 -0.1,-0.30000000000000004 C1.6000122070312273,0.8999999999999773 1.8000122070312727,0.7999999999999545 2.0000122070312045,0.7999999999999545 zM0.8000122070312727,3.6000000000000227 c0,0.2 0.2,0.4 0.4,0.4 c0.2,0 0.4,-0.2 0.4,-0.4 c0,-0.2 -0.2,-0.4 -0.4,-0.4 C1.0000122070312045,3.2000000000000455 0.8000122070312727,3.3999999999999773 0.8000122070312727,3.6000000000000227 zM0.8000122070312727,6.100000000000023 c0,0.2 0.2,0.4 0.4,0.4 c0.2,0 0.4,-0.2 0.4,-0.4 c0,-0.2 -0.2,-0.4 -0.4,-0.4 C1.0000122070312045,5.7000000000000455 0.8000122070312727,5.7999999999999545 0.8000122070312727,6.100000000000023 zM0.8000122070312727,8.5 c0,0.2 0.2,0.4 0.4,0.4 c0.2,0 0.4,-0.2 0.4,-0.4 s-0.2,-0.4 -0.4,-0.4 C1.0000122070312045,8.100000000000023 0.8000122070312727,8.299999999999955 0.8000122070312727,8.5 zM0.8000122070312727,10.899999999999977 c0,0.2 0.2,0.4 0.4,0.4 c0.2,0 0.4,-0.2 0.4,-0.4 s-0.2,-0.4 -0.4,-0.4 C1.0000122070312045,10.5 0.8000122070312727,10.700000000000045 0.8000122070312727,10.899999999999977 zM0.8000122070312727,13.299999999999955 c0,0.2 0.2,0.4 0.4,0.4 c0.2,0 0.4,-0.2 0.4,-0.4 s-0.2,-0.4 -0.4,-0.4 C1.0000122070312045,12.899999999999977 0.8000122070312727,13.100000000000023 0.8000122070312727,13.299999999999955 zM0.8000122070312727,15.799999999999955 c0,0.2 0.2,0.4 0.4,0.4 c0.2,0 0.4,-0.2 0.4,-0.4 c0,-0.2 -0.2,-0.4 -0.4,-0.4 C1.0000122070312045,15.399999999999977 0.8000122070312727,15.5 0.8000122070312727,15.799999999999955 zM0.8000122070312727,18.200000000000045 c0,0.2 0.2,0.4 0.4,0.4 c0.2,0 0.4,-0.2 0.4,-0.4 c0,-0.2 -0.2,-0.4 -0.4,-0.4 C1.0000122070312045,17.799999999999955 0.8000122070312727,18 0.8000122070312727,18.200000000000045 zM0.8000122070312727,20.600000000000023 c0,0.2 0.2,0.4 0.4,0.4 c0.2,0 0.4,-0.2 0.4,-0.4 s-0.2,-0.4 -0.4,-0.4 C1.0000122070312045,20.200000000000045 0.8000122070312727,20.399999999999977 0.8000122070312727,20.600000000000023 zM3.6000122070312273,23.399999999999977 c0.2,0 0.4,-0.2 0.4,-0.4 s-0.2,-0.4 -0.4,-0.4 s-0.4,0.2 -0.4,0.4 S3.4000122070312955,23.399999999999977 3.6000122070312273,23.399999999999977 zM6.100012207031227,23.399999999999977 c0.2,0 0.4,-0.2 0.4,-0.4 s-0.2,-0.4 -0.4,-0.4 s-0.4,0.2 -0.4,0.4 S5.800012207031273,23.399999999999977 6.100012207031227,23.399999999999977 zM8.500012207031205,23.399999999999977 c0.2,0 0.4,-0.2 0.4,-0.4 s-0.2,-0.4 -0.4,-0.4 s-0.4,0.2 -0.4,0.4 S8.300012207031273,23.399999999999977 8.500012207031205,23.399999999999977 zM10.900012207031295,23.399999999999977 c0.2,0 0.4,-0.2 0.4,-0.4 s-0.2,-0.4 -0.4,-0.4 c-0.2,0 -0.4,0.2 -0.4,0.4 S10.70001220703125,23.399999999999977 10.900012207031295,23.399999999999977 zM13.300012207031273,23.399999999999977 c0.2,0 0.4,-0.2 0.4,-0.4 s-0.2,-0.4 -0.4,-0.4 c-0.2,0 -0.4,0.2 -0.4,0.4 S13.100012207031227,23.399999999999977 13.300012207031273,23.399999999999977 zM15.70001220703125,23.399999999999977 c0.2,0 0.4,-0.2 0.4,-0.4 s-0.2,-0.4 -0.4,-0.4 s-0.4,0.2 -0.4,0.4 S15.500012207031205,23.399999999999977 15.70001220703125,23.399999999999977 zM18.20001220703125,23.399999999999977 c0.2,0 0.4,-0.2 0.4,-0.4 s-0.2,-0.4 -0.4,-0.4 s-0.4,0.2 -0.4,0.4 S17.900012207031295,23.399999999999977 18.20001220703125,23.399999999999977 zM20.600012207031227,23.399999999999977 c0.2,0 0.4,-0.2 0.4,-0.4 s-0.2,-0.4 -0.4,-0.4 s-0.4,0.2 -0.4,0.4 S20.400012207031295,23.399999999999977 20.600012207031227,23.399999999999977 zM23.400012207031295,20.600000000000023 c0,-0.2 -0.2,-0.4 -0.4,-0.4 c-0.2,0 -0.4,0.2 -0.4,0.4 s0.2,0.4 0.4,0.4 C23.20001220703125,21 23.400012207031295,20.799999999999955 23.400012207031295,20.600000000000023 zM23.400012207031295,18.200000000000045 c0,-0.2 -0.2,-0.4 -0.4,-0.4 c-0.2,0 -0.4,0.2 -0.4,0.4 c0,0.2 0.2,0.4 0.4,0.4 C23.20001220703125,18.600000000000023 23.400012207031295,18.399999999999977 23.400012207031295,18.200000000000045 zM23.400012207031295,15.799999999999955 c0,-0.2 -0.2,-0.4 -0.4,-0.4 c-0.2,0 -0.4,0.2 -0.4,0.4 c0,0.2 0.2,0.4 0.4,0.4 C23.20001220703125,16.200000000000045 23.400012207031295,16 23.400012207031295,15.799999999999955 zM23.400012207031295,13.299999999999955 c0,-0.2 -0.2,-0.4 -0.4,-0.4 c-0.2,0 -0.4,0.2 -0.4,0.4 s0.2,0.4 0.4,0.4 C23.20001220703125,13.700000000000045 23.400012207031295,13.600000000000023 23.400012207031295,13.299999999999955 zM23.400012207031295,10.899999999999977 c0,-0.2 -0.2,-0.4 -0.4,-0.4 c-0.2,0 -0.4,0.2 -0.4,0.4 s0.2,0.4 0.4,0.4 C23.20001220703125,11.299999999999955 23.400012207031295,11.100000000000023 23.400012207031295,10.899999999999977 zM23.400012207031295,8.5 c0,-0.2 -0.2,-0.4 -0.4,-0.4 c-0.2,0 -0.4,0.2 -0.4,0.4 s0.2,0.4 0.4,0.4 C23.20001220703125,8.899999999999977 23.400012207031295,8.700000000000045 23.400012207031295,8.5 zM23.400012207031295,6.100000000000023 c0,-0.2 -0.2,-0.4 -0.4,-0.4 c-0.2,0 -0.4,0.2 -0.4,0.4 c0,0.2 0.2,0.4 0.4,0.4 C23.20001220703125,6.5 23.400012207031295,6.2999999999999545 23.400012207031295,6.100000000000023 zM23.400012207031295,3.6000000000000227 c0,-0.2 -0.2,-0.4 -0.4,-0.4 c-0.2,0 -0.4,0.2 -0.4,0.4 c0,0.2 0.2,0.4 0.4,0.4 C23.20001220703125,4 23.400012207031295,3.8999999999999773 23.400012207031295,3.6000000000000227 zM20.600012207031227,0.7999999999999545 c-0.2,0 -0.4,0.2 -0.4,0.4 s0.2,0.4 0.4,0.4 s0.4,-0.2 0.4,-0.4 S20.800012207031273,0.7999999999999545 20.600012207031227,0.7999999999999545 zM18.20001220703125,0.7999999999999545 c-0.2,0 -0.4,0.2 -0.4,0.4 s0.2,0.4 0.4,0.4 s0.4,-0.2 0.4,-0.4 S18.400012207031295,0.7999999999999545 18.20001220703125,0.7999999999999545 zM15.70001220703125,0.7999999999999545 c-0.2,0 -0.4,0.2 -0.4,0.4 s0.2,0.4 0.4,0.4 s0.4,-0.2 0.4,-0.4 S16.000012207031205,0.7999999999999545 15.70001220703125,0.7999999999999545 zM13.300012207031273,0.7999999999999545 c-0.2,0 -0.4,0.2 -0.4,0.4 s0.2,0.4 0.4,0.4 c0.2,0 0.4,-0.2 0.4,-0.4 S13.500012207031205,0.7999999999999545 13.300012207031273,0.7999999999999545 zM10.900012207031295,0.7999999999999545 c-0.2,0 -0.4,0.2 -0.4,0.4 s0.2,0.4 0.4,0.4 c0.2,0 0.4,-0.2 0.4,-0.4 S11.100012207031227,0.7999999999999545 10.900012207031295,0.7999999999999545 zM8.500012207031205,0.7999999999999545 c-0.2,0 -0.4,0.2 -0.4,0.4 s0.2,0.4 0.4,0.4 s0.4,-0.2 0.4,-0.4 S8.70001220703125,0.7999999999999545 8.500012207031205,0.7999999999999545 zM6.100012207031227,0.7999999999999545 c-0.2,0 -0.4,0.2 -0.4,0.4 s0.2,0.4 0.4,0.4 s0.4,-0.2 0.4,-0.4 S6.300012207031273,0.7999999999999545 6.100012207031227,0.7999999999999545 zM3.6000122070312273,0.7999999999999545 c-0.2,0 -0.4,0.2 -0.4,0.4 s0.2,0.4 0.4,0.4 s0.4,-0.2 0.4,-0.4 S3.9000122070312955,0.7999999999999545 3.6000122070312273,0.7999999999999545 zM2.4000122070312955,2 c-0.2,0 -0.4,0.2 -0.4,0.4 c0,0.2 0.2,0.4 0.4,0.4 c0.2,0 0.4,-0.2 0.4,-0.4 C2.8000122070312727,2.2000000000000455 2.6000122070312273,2 2.4000122070312955,2 zM4.800012207031273,2 c-0.2,0 -0.4,0.2 -0.4,0.4 c0,0.2 0.2,0.4 0.4,0.4 s0.4,-0.2 0.4,-0.4 C5.20001220703125,2.2000000000000455 5.100012207031227,2 4.800012207031273,2 zM7.300012207031273,2 c-0.2,0 -0.4,0.2 -0.4,0.4 c0,0.2 0.2,0.4 0.4,0.4 s0.4,-0.2 0.4,-0.4 C7.70001220703125,2.2000000000000455 7.5000122070312045,2 7.300012207031273,2 zM9.70001220703125,2 c-0.2,0 -0.4,0.2 -0.4,0.4 c0,0.2 0.2,0.4 0.4,0.4 c0.2,0 0.4,-0.2 0.4,-0.4 C10.100012207031227,2.2000000000000455 9.900012207031295,2 9.70001220703125,2 zM12.100012207031227,2 c-0.2,0 -0.4,0.2 -0.4,0.4 c0,0.2 0.2,0.4 0.4,0.4 c0.2,0 0.4,-0.2 0.4,-0.4 C12.500012207031205,2.2000000000000455 12.300012207031273,2 12.100012207031227,2 zM14.500012207031205,2 c-0.2,0 -0.4,0.2 -0.4,0.4 c0,0.2 0.2,0.4 0.4,0.4 c0.2,0 0.4,-0.2 0.4,-0.4 C14.900012207031295,2.2000000000000455 14.800012207031273,2 14.500012207031205,2 zM17.000012207031205,2 c-0.2,0 -0.4,0.2 -0.4,0.4 c0,0.2 0.2,0.4 0.4,0.4 s0.4,-0.2 0.4,-0.4 C17.400012207031295,2.2000000000000455 17.20001220703125,2 17.000012207031205,2 zM19.400012207031295,2 c-0.2,0 -0.4,0.2 -0.4,0.4 c0,0.2 0.2,0.4 0.4,0.4 s0.4,-0.2 0.4,-0.4 C19.800012207031273,2.2000000000000455 19.600012207031227,2 19.400012207031295,2 zM21.800012207031273,2 c-0.2,0 -0.4,0.2 -0.4,0.4 c0,0.2 0.2,0.4 0.4,0.4 s0.4,-0.2 0.4,-0.4 C22.20001220703125,2.2000000000000455 22.000012207031205,2 21.800012207031273,2 zM3.6000122070312273,3.2000000000000455 c-0.2,0 -0.4,0.2 -0.4,0.4 c0,0.2 0.2,0.4 0.4,0.4 s0.4,-0.2 0.4,-0.4 C4.0000122070312045,3.3999999999999773 3.9000122070312955,3.2000000000000455 3.6000122070312273,3.2000000000000455 zM6.100012207031227,3.2000000000000455 c-0.2,0 -0.4,0.2 -0.4,0.4 c0,0.2 0.2,0.4 0.4,0.4 s0.4,-0.2 0.4,-0.4 C6.5000122070312045,3.3999999999999773 6.300012207031273,3.2000000000000455 6.100012207031227,3.2000000000000455 zM8.500012207031205,3.2000000000000455 c-0.2,0 -0.4,0.2 -0.4,0.4 c0,0.2 0.2,0.4 0.4,0.4 s0.4,-0.2 0.4,-0.4 C8.900012207031295,3.3999999999999773 8.70001220703125,3.2000000000000455 8.500012207031205,3.2000000000000455 zM10.900012207031295,3.2000000000000455 c-0.2,0 -0.4,0.2 -0.4,0.4 c0,0.2 0.2,0.4 0.4,0.4 c0.2,0 0.4,-0.2 0.4,-0.4 C11.300012207031273,3.3999999999999773 11.100012207031227,3.2000000000000455 10.900012207031295,3.2000000000000455 zM13.300012207031273,3.2000000000000455 c-0.2,0 -0.4,0.2 -0.4,0.4 c0,0.2 0.2,0.4 0.4,0.4 c0.2,0 0.4,-0.2 0.4,-0.4 C13.70001220703125,3.3999999999999773 13.500012207031205,3.2000000000000455 13.300012207031273,3.2000000000000455 zM15.70001220703125,3.2000000000000455 c-0.2,0 -0.4,0.2 -0.4,0.4 c0,0.2 0.2,0.4 0.4,0.4 s0.4,-0.2 0.4,-0.4 C16.100012207031227,3.3999999999999773 16.000012207031205,3.2000000000000455 15.70001220703125,3.2000000000000455 zM18.20001220703125,3.2000000000000455 c-0.2,0 -0.4,0.2 -0.4,0.4 c0,0.2 0.2,0.4 0.4,0.4 s0.4,-0.2 0.4,-0.4 C18.600012207031227,3.3999999999999773 18.400012207031295,3.2000000000000455 18.20001220703125,3.2000000000000455 zM20.600012207031227,3.2000000000000455 c-0.2,0 -0.4,0.2 -0.4,0.4 c0,0.2 0.2,0.4 0.4,0.4 s0.4,-0.2 0.4,-0.4 C21.000012207031205,3.3999999999999773 20.800012207031273,3.2000000000000455 20.600012207031227,3.2000000000000455 zM2.4000122070312955,4.399999999999977 c-0.2,0 -0.4,0.2 -0.4,0.4 c0,0.2 0.2,0.4 0.4,0.4 c0.2,0 0.4,-0.2 0.4,-0.4 C2.8000122070312727,4.600000000000023 2.6000122070312273,4.399999999999977 2.4000122070312955,4.399999999999977 zM4.800012207031273,4.399999999999977 c-0.2,0 -0.4,0.2 -0.4,0.4 c0,0.2 0.2,0.4 0.4,0.4 s0.4,-0.2 0.4,-0.4 C5.20001220703125,4.600000000000023 5.100012207031227,4.399999999999977 4.800012207031273,4.399999999999977 zM7.300012207031273,4.399999999999977 c-0.2,0 -0.4,0.2 -0.4,0.4 c0,0.2 0.2,0.4 0.4,0.4 s0.4,-0.2 0.4,-0.4 C7.70001220703125,4.600000000000023 7.5000122070312045,4.399999999999977 7.300012207031273,4.399999999999977 zM9.70001220703125,4.399999999999977 c-0.2,0 -0.4,0.2 -0.4,0.4 c0,0.2 0.2,0.4 0.4,0.4 c0.2,0 0.4,-0.2 0.4,-0.4 C10.100012207031227,4.600000000000023 9.900012207031295,4.399999999999977 9.70001220703125,4.399999999999977 zM12.100012207031227,4.399999999999977 c-0.2,0 -0.4,0.2 -0.4,0.4 c0,0.2 0.2,0.4 0.4,0.4 c0.2,0 0.4,-0.2 0.4,-0.4 C12.500012207031205,4.600000000000023 12.300012207031273,4.399999999999977 12.100012207031227,4.399999999999977 zM14.500012207031205,4.399999999999977 c-0.2,0 -0.4,0.2 -0.4,0.4 c0,0.2 0.2,0.4 0.4,0.4 c0.2,0 0.4,-0.2 0.4,-0.4 C14.900012207031295,4.600000000000023 14.800012207031273,4.399999999999977 14.500012207031205,4.399999999999977 zM17.000012207031205,4.399999999999977 c-0.2,0 -0.4,0.2 -0.4,0.4 c0,0.2 0.2,0.4 0.4,0.4 s0.4,-0.2 0.4,-0.4 C17.400012207031295,4.600000000000023 17.20001220703125,4.399999999999977 17.000012207031205,4.399999999999977 zM19.400012207031295,4.399999999999977 c-0.2,0 -0.4,0.2 -0.4,0.4 c0,0.2 0.2,0.4 0.4,0.4 s0.4,-0.2 0.4,-0.4 C19.800012207031273,4.600000000000023 19.600012207031227,4.399999999999977 19.400012207031295,4.399999999999977 zM21.800012207031273,4.399999999999977 c-0.2,0 -0.4,0.2 -0.4,0.4 c0,0.2 0.2,0.4 0.4,0.4 s0.4,-0.2 0.4,-0.4 C22.20001220703125,4.600000000000023 22.000012207031205,4.399999999999977 21.800012207031273,4.399999999999977 zM3.6000122070312273,5.7000000000000455 c-0.2,0 -0.4,0.2 -0.4,0.4 c0,0.2 0.2,0.4 0.4,0.4 s0.4,-0.2 0.4,-0.4 C4.0000122070312045,5.7999999999999545 3.9000122070312955,5.7000000000000455 3.6000122070312273,5.7000000000000455 zM6.100012207031227,5.7000000000000455 c-0.2,0 -0.4,0.2 -0.4,0.4 c0,0.2 0.2,0.4 0.4,0.4 s0.4,-0.2 0.4,-0.4 C6.5000122070312045,5.7999999999999545 6.300012207031273,5.7000000000000455 6.100012207031227,5.7000000000000455 zM8.500012207031205,5.7000000000000455 c-0.2,0 -0.4,0.2 -0.4,0.4 c0,0.2 0.2,0.4 0.4,0.4 s0.4,-0.2 0.4,-0.4 C8.900012207031295,5.7999999999999545 8.70001220703125,5.7000000000000455 8.500012207031205,5.7000000000000455 zM10.500012207031205,5.7000000000000455 v4.8 h-4.8 v3.2 h4.8 v4.8 h3.2 v-4.8 h4.8 V10.5 h-0.4 h-4.4 v-4.8 H10.500012207031205 zM15.70001220703125,5.7000000000000455 c-0.2,0 -0.4,0.2 -0.4,0.4 c0,0.2 0.2,0.4 0.4,0.4 s0.4,-0.2 0.4,-0.4 C16.100012207031227,5.7999999999999545 16.000012207031205,5.7000000000000455 15.70001220703125,5.7000000000000455 zM18.20001220703125,5.7000000000000455 c-0.2,0 -0.4,0.2 -0.4,0.4 c0,0.2 0.2,0.4 0.4,0.4 s0.4,-0.2 0.4,-0.4 C18.600012207031227,5.7999999999999545 18.400012207031295,5.7000000000000455 18.20001220703125,5.7000000000000455 zM20.600012207031227,5.7000000000000455 c-0.2,0 -0.4,0.2 -0.4,0.4 c0,0.2 0.2,0.4 0.4,0.4 s0.4,-0.2 0.4,-0.4 C21.000012207031205,5.7999999999999545 20.800012207031273,5.7000000000000455 20.600012207031227,5.7000000000000455 zM11.300012207031273,6.5 h1.6 v4.8 h4.8 v1.6 h-4.8 v4.8 h-1.6 v-4.8 h-4.8 v-1.6 h4.8 V6.5 zM2.4000122070312955,6.899999999999977 c-0.2,0 -0.4,0.2 -0.4,0.4 s0.2,0.4 0.4,0.4 c0.2,0 0.4,-0.2 0.4,-0.4 S2.6000122070312273,6.899999999999977 2.4000122070312955,6.899999999999977 zM4.800012207031273,6.899999999999977 c-0.2,0 -0.4,0.2 -0.4,0.4 s0.2,0.4 0.4,0.4 s0.4,-0.2 0.4,-0.4 S5.100012207031227,6.899999999999977 4.800012207031273,6.899999999999977 zM7.300012207031273,6.899999999999977 c-0.2,0 -0.4,0.2 -0.4,0.4 s0.2,0.4 0.4,0.4 s0.4,-0.2 0.4,-0.4 S7.5000122070312045,6.899999999999977 7.300012207031273,6.899999999999977 zM9.70001220703125,6.899999999999977 c-0.2,0 -0.4,0.2 -0.4,0.4 s0.2,0.4 0.4,0.4 c0.2,0 0.4,-0.2 0.4,-0.4 S9.900012207031295,6.899999999999977 9.70001220703125,6.899999999999977 zM14.500012207031205,6.899999999999977 c-0.2,0 -0.4,0.2 -0.4,0.4 s0.2,0.4 0.4,0.4 c0.2,0 0.4,-0.2 0.4,-0.4 S14.800012207031273,6.899999999999977 14.500012207031205,6.899999999999977 zM17.000012207031205,6.899999999999977 c-0.2,0 -0.4,0.2 -0.4,0.4 s0.2,0.4 0.4,0.4 s0.4,-0.2 0.4,-0.4 S17.20001220703125,6.899999999999977 17.000012207031205,6.899999999999977 zM19.400012207031295,6.899999999999977 c-0.2,0 -0.4,0.2 -0.4,0.4 s0.2,0.4 0.4,0.4 s0.4,-0.2 0.4,-0.4 S19.600012207031227,6.899999999999977 19.400012207031295,6.899999999999977 zM21.800012207031273,6.899999999999977 c-0.2,0 -0.4,0.2 -0.4,0.4 s0.2,0.4 0.4,0.4 s0.4,-0.2 0.4,-0.4 S22.000012207031205,6.899999999999977 21.800012207031273,6.899999999999977 zM3.6000122070312273,8.100000000000023 c-0.2,0 -0.4,0.2 -0.4,0.4 s0.2,0.4 0.4,0.4 s0.4,-0.2 0.4,-0.4 S3.9000122070312955,8.100000000000023 3.6000122070312273,8.100000000000023 zM6.100012207031227,8.100000000000023 c-0.2,0 -0.4,0.2 -0.4,0.4 s0.2,0.4 0.4,0.4 s0.4,-0.2 0.4,-0.4 S6.300012207031273,8.100000000000023 6.100012207031227,8.100000000000023 zM8.500012207031205,8.100000000000023 c-0.2,0 -0.4,0.2 -0.4,0.4 s0.2,0.4 0.4,0.4 s0.4,-0.2 0.4,-0.4 S8.70001220703125,8.100000000000023 8.500012207031205,8.100000000000023 zM15.70001220703125,8.100000000000023 c-0.2,0 -0.4,0.2 -0.4,0.4 s0.2,0.4 0.4,0.4 s0.4,-0.2 0.4,-0.4 S16.000012207031205,8.100000000000023 15.70001220703125,8.100000000000023 zM18.20001220703125,8.100000000000023 c-0.2,0 -0.4,0.2 -0.4,0.4 s0.2,0.4 0.4,0.4 s0.4,-0.2 0.4,-0.4 S18.400012207031295,8.100000000000023 18.20001220703125,8.100000000000023 zM20.600012207031227,8.100000000000023 c-0.2,0 -0.4,0.2 -0.4,0.4 s0.2,0.4 0.4,0.4 s0.4,-0.2 0.4,-0.4 S20.800012207031273,8.100000000000023 20.600012207031227,8.100000000000023 zM2.4000122070312955,9.299999999999955 c-0.2,0 -0.4,0.2 -0.4,0.4 s0.2,0.4 0.4,0.4 c0.2,0 0.4,-0.2 0.4,-0.4 S2.6000122070312273,9.299999999999955 2.4000122070312955,9.299999999999955 zM4.800012207031273,9.299999999999955 c-0.2,0 -0.4,0.2 -0.4,0.4 s0.2,0.4 0.4,0.4 s0.4,-0.2 0.4,-0.4 S5.100012207031227,9.299999999999955 4.800012207031273,9.299999999999955 zM7.300012207031273,9.299999999999955 c-0.2,0 -0.4,0.2 -0.4,0.4 s0.2,0.4 0.4,0.4 s0.4,-0.2 0.4,-0.4 S7.5000122070312045,9.299999999999955 7.300012207031273,9.299999999999955 zM9.70001220703125,9.299999999999955 c-0.2,0 -0.4,0.2 -0.4,0.4 s0.2,0.4 0.4,0.4 c0.2,0 0.4,-0.2 0.4,-0.4 S9.900012207031295,9.299999999999955 9.70001220703125,9.299999999999955 zM14.500012207031205,9.299999999999955 c-0.2,0 -0.4,0.2 -0.4,0.4 s0.2,0.4 0.4,0.4 c0.2,0 0.4,-0.2 0.4,-0.4 S14.800012207031273,9.299999999999955 14.500012207031205,9.299999999999955 zM17.000012207031205,9.299999999999955 c-0.2,0 -0.4,0.2 -0.4,0.4 s0.2,0.4 0.4,0.4 s0.4,-0.2 0.4,-0.4 S17.20001220703125,9.299999999999955 17.000012207031205,9.299999999999955 zM19.400012207031295,9.299999999999955 c-0.2,0 -0.4,0.2 -0.4,0.4 s0.2,0.4 0.4,0.4 s0.4,-0.2 0.4,-0.4 S19.600012207031227,9.299999999999955 19.400012207031295,9.299999999999955 zM21.800012207031273,9.299999999999955 c-0.2,0 -0.4,0.2 -0.4,0.4 s0.2,0.4 0.4,0.4 s0.4,-0.2 0.4,-0.4 S22.000012207031205,9.299999999999955 21.800012207031273,9.299999999999955 zM3.6000122070312273,10.5 c-0.2,0 -0.4,0.2 -0.4,0.4 s0.2,0.4 0.4,0.4 s0.4,-0.2 0.4,-0.4 S3.9000122070312955,10.5 3.6000122070312273,10.5 zM20.600012207031227,10.5 c-0.2,0 -0.4,0.2 -0.4,0.4 s0.2,0.4 0.4,0.4 s0.4,-0.2 0.4,-0.4 S20.800012207031273,10.5 20.600012207031227,10.5 zM2.4000122070312955,11.700000000000045 c-0.2,0 -0.4,0.2 -0.4,0.4 s0.2,0.4 0.4,0.4 c0.2,0 0.4,-0.2 0.4,-0.4 S2.6000122070312273,11.700000000000045 2.4000122070312955,11.700000000000045 zM4.800012207031273,11.700000000000045 c-0.2,0 -0.4,0.2 -0.4,0.4 s0.2,0.4 0.4,0.4 s0.4,-0.2 0.4,-0.4 S5.100012207031227,11.700000000000045 4.800012207031273,11.700000000000045 zM19.400012207031295,11.700000000000045 c-0.2,0 -0.4,0.2 -0.4,0.4 s0.2,0.4 0.4,0.4 s0.4,-0.2 0.4,-0.4 S19.600012207031227,11.700000000000045 19.400012207031295,11.700000000000045 zM21.800012207031273,11.700000000000045 c-0.2,0 -0.4,0.2 -0.4,0.4 s0.2,0.4 0.4,0.4 s0.4,-0.2 0.4,-0.4 S22.000012207031205,11.700000000000045 21.800012207031273,11.700000000000045 zM3.6000122070312273,12.899999999999977 c-0.2,0 -0.4,0.2 -0.4,0.4 s0.2,0.4 0.4,0.4 s0.4,-0.2 0.4,-0.4 S3.9000122070312955,12.899999999999977 3.6000122070312273,12.899999999999977 zM20.600012207031227,12.899999999999977 c-0.2,0 -0.4,0.2 -0.4,0.4 s0.2,0.4 0.4,0.4 s0.4,-0.2 0.4,-0.4 S20.800012207031273,12.899999999999977 20.600012207031227,12.899999999999977 zM2.4000122070312955,14.100000000000023 c-0.2,0 -0.4,0.2 -0.4,0.4 c0,0.2 0.2,0.4 0.4,0.4 c0.2,0 0.4,-0.2 0.4,-0.4 C2.8000122070312727,14.299999999999955 2.6000122070312273,14.100000000000023 2.4000122070312955,14.100000000000023 zM4.800012207031273,14.100000000000023 c-0.2,0 -0.4,0.2 -0.4,0.4 c0,0.2 0.2,0.4 0.4,0.4 s0.4,-0.2 0.4,-0.4 C5.20001220703125,14.299999999999955 5.100012207031227,14.100000000000023 4.800012207031273,14.100000000000023 zM7.300012207031273,14.100000000000023 c-0.2,0 -0.4,0.2 -0.4,0.4 c0,0.2 0.2,0.4 0.4,0.4 s0.4,-0.2 0.4,-0.4 C7.70001220703125,14.299999999999955 7.5000122070312045,14.100000000000023 7.300012207031273,14.100000000000023 zM9.70001220703125,14.100000000000023 c-0.2,0 -0.4,0.2 -0.4,0.4 c0,0.2 0.2,0.4 0.4,0.4 c0.2,0 0.4,-0.2 0.4,-0.4 C10.100012207031227,14.299999999999955 9.900012207031295,14.100000000000023 9.70001220703125,14.100000000000023 zM14.500012207031205,14.100000000000023 c-0.2,0 -0.4,0.2 -0.4,0.4 c0,0.2 0.2,0.4 0.4,0.4 c0.2,0 0.4,-0.2 0.4,-0.4 C14.900012207031295,14.299999999999955 14.800012207031273,14.100000000000023 14.500012207031205,14.100000000000023 zM17.000012207031205,14.100000000000023 c-0.2,0 -0.4,0.2 -0.4,0.4 c0,0.2 0.2,0.4 0.4,0.4 s0.4,-0.2 0.4,-0.4 C17.400012207031295,14.299999999999955 17.20001220703125,14.100000000000023 17.000012207031205,14.100000000000023 zM19.400012207031295,14.100000000000023 c-0.2,0 -0.4,0.2 -0.4,0.4 c0,0.2 0.2,0.4 0.4,0.4 s0.4,-0.2 0.4,-0.4 C19.800012207031273,14.299999999999955 19.600012207031227,14.100000000000023 19.400012207031295,14.100000000000023 zM21.800012207031273,14.100000000000023 c-0.2,0 -0.4,0.2 -0.4,0.4 c0,0.2 0.2,0.4 0.4,0.4 s0.4,-0.2 0.4,-0.4 C22.20001220703125,14.299999999999955 22.000012207031205,14.100000000000023 21.800012207031273,14.100000000000023 zM3.6000122070312273,15.399999999999977 c-0.2,0 -0.4,0.2 -0.4,0.4 c0,0.2 0.2,0.4 0.4,0.4 s0.4,-0.2 0.4,-0.4 C4.0000122070312045,15.5 3.9000122070312955,15.399999999999977 3.6000122070312273,15.399999999999977 zM6.100012207031227,15.399999999999977 c-0.2,0 -0.4,0.2 -0.4,0.4 c0,0.2 0.2,0.4 0.4,0.4 s0.4,-0.2 0.4,-0.4 C6.5000122070312045,15.5 6.300012207031273,15.399999999999977 6.100012207031227,15.399999999999977 zM8.500012207031205,15.399999999999977 c-0.2,0 -0.4,0.2 -0.4,0.4 c0,0.2 0.2,0.4 0.4,0.4 s0.4,-0.2 0.4,-0.4 C8.900012207031295,15.5 8.70001220703125,15.399999999999977 8.500012207031205,15.399999999999977 zM15.70001220703125,15.399999999999977 c-0.2,0 -0.4,0.2 -0.4,0.4 c0,0.2 0.2,0.4 0.4,0.4 s0.4,-0.2 0.4,-0.4 C16.100012207031227,15.5 16.000012207031205,15.399999999999977 15.70001220703125,15.399999999999977 zM18.20001220703125,15.399999999999977 c-0.2,0 -0.4,0.2 -0.4,0.4 c0,0.2 0.2,0.4 0.4,0.4 s0.4,-0.2 0.4,-0.4 C18.600012207031227,15.5 18.400012207031295,15.399999999999977 18.20001220703125,15.399999999999977 zM20.600012207031227,15.399999999999977 c-0.2,0 -0.4,0.2 -0.4,0.4 c0,0.2 0.2,0.4 0.4,0.4 s0.4,-0.2 0.4,-0.4 C21.000012207031205,15.5 20.800012207031273,15.399999999999977 20.600012207031227,15.399999999999977 zM2.4000122070312955,16.600000000000023 c-0.2,0 -0.4,0.2 -0.4,0.4 c0,0.2 0.2,0.4 0.4,0.4 c0.2,0 0.4,-0.2 0.4,-0.4 C2.8000122070312727,16.700000000000045 2.6000122070312273,16.600000000000023 2.4000122070312955,16.600000000000023 zM4.800012207031273,16.600000000000023 c-0.2,0 -0.4,0.2 -0.4,0.4 c0,0.2 0.2,0.4 0.4,0.4 s0.4,-0.2 0.4,-0.4 C5.20001220703125,16.700000000000045 5.100012207031227,16.600000000000023 4.800012207031273,16.600000000000023 zM7.300012207031273,16.600000000000023 c-0.2,0 -0.4,0.2 -0.4,0.4 c0,0.2 0.2,0.4 0.4,0.4 s0.4,-0.2 0.4,-0.4 C7.70001220703125,16.700000000000045 7.5000122070312045,16.600000000000023 7.300012207031273,16.600000000000023 zM9.70001220703125,16.600000000000023 c-0.2,0 -0.4,0.2 -0.4,0.4 c0,0.2 0.2,0.4 0.4,0.4 c0.2,0 0.4,-0.2 0.4,-0.4 C10.100012207031227,16.700000000000045 9.900012207031295,16.600000000000023 9.70001220703125,16.600000000000023 zM14.500012207031205,16.600000000000023 c-0.2,0 -0.4,0.2 -0.4,0.4 c0,0.2 0.2,0.4 0.4,0.4 c0.2,0 0.4,-0.2 0.4,-0.4 C14.900012207031295,16.700000000000045 14.800012207031273,16.600000000000023 14.500012207031205,16.600000000000023 zM17.000012207031205,16.600000000000023 c-0.2,0 -0.4,0.2 -0.4,0.4 c0,0.2 0.2,0.4 0.4,0.4 s0.4,-0.2 0.4,-0.4 C17.400012207031295,16.700000000000045 17.20001220703125,16.600000000000023 17.000012207031205,16.600000000000023 zM19.400012207031295,16.600000000000023 c-0.2,0 -0.4,0.2 -0.4,0.4 c0,0.2 0.2,0.4 0.4,0.4 s0.4,-0.2 0.4,-0.4 C19.800012207031273,16.700000000000045 19.600012207031227,16.600000000000023 19.400012207031295,16.600000000000023 zM21.800012207031273,16.600000000000023 c-0.2,0 -0.4,0.2 -0.4,0.4 c0,0.2 0.2,0.4 0.4,0.4 s0.4,-0.2 0.4,-0.4 C22.20001220703125,16.700000000000045 22.000012207031205,16.600000000000023 21.800012207031273,16.600000000000023 zM3.6000122070312273,17.799999999999955 c-0.2,0 -0.4,0.2 -0.4,0.4 c0,0.2 0.2,0.4 0.4,0.4 s0.4,-0.2 0.4,-0.4 C4.0000122070312045,18 3.9000122070312955,17.799999999999955 3.6000122070312273,17.799999999999955 zM6.100012207031227,17.799999999999955 c-0.2,0 -0.4,0.2 -0.4,0.4 c0,0.2 0.2,0.4 0.4,0.4 s0.4,-0.2 0.4,-0.4 C6.5000122070312045,18 6.300012207031273,17.799999999999955 6.100012207031227,17.799999999999955 zM8.500012207031205,17.799999999999955 c-0.2,0 -0.4,0.2 -0.4,0.4 c0,0.2 0.2,0.4 0.4,0.4 s0.4,-0.2 0.4,-0.4 C8.900012207031295,18 8.70001220703125,17.799999999999955 8.500012207031205,17.799999999999955 zM15.70001220703125,17.799999999999955 c-0.2,0 -0.4,0.2 -0.4,0.4 c0,0.2 0.2,0.4 0.4,0.4 s0.4,-0.2 0.4,-0.4 C16.100012207031227,18 16.000012207031205,17.799999999999955 15.70001220703125,17.799999999999955 zM18.20001220703125,17.799999999999955 c-0.2,0 -0.4,0.2 -0.4,0.4 c0,0.2 0.2,0.4 0.4,0.4 s0.4,-0.2 0.4,-0.4 C18.600012207031227,18 18.400012207031295,17.799999999999955 18.20001220703125,17.799999999999955 zM20.600012207031227,17.799999999999955 c-0.2,0 -0.4,0.2 -0.4,0.4 c0,0.2 0.2,0.4 0.4,0.4 s0.4,-0.2 0.4,-0.4 C21.000012207031205,18 20.800012207031273,17.799999999999955 20.600012207031227,17.799999999999955 zM2.4000122070312955,19 c-0.2,0 -0.4,0.2 -0.4,0.4 s0.2,0.4 0.4,0.4 c0.2,0 0.4,-0.2 0.4,-0.4 S2.6000122070312273,19 2.4000122070312955,19 zM4.800012207031273,19 c-0.2,0 -0.4,0.2 -0.4,0.4 s0.2,0.4 0.4,0.4 s0.4,-0.2 0.4,-0.4 S5.100012207031227,19 4.800012207031273,19 zM7.300012207031273,19 c-0.2,0 -0.4,0.2 -0.4,0.4 s0.2,0.4 0.4,0.4 s0.4,-0.2 0.4,-0.4 S7.5000122070312045,19 7.300012207031273,19 zM9.70001220703125,19 c-0.2,0 -0.4,0.2 -0.4,0.4 s0.2,0.4 0.4,0.4 c0.2,0 0.4,-0.2 0.4,-0.4 S9.900012207031295,19 9.70001220703125,19 zM12.100012207031227,19 c-0.2,0 -0.4,0.2 -0.4,0.4 s0.2,0.4 0.4,0.4 c0.2,0 0.4,-0.2 0.4,-0.4 S12.300012207031273,19 12.100012207031227,19 zM14.500012207031205,19 c-0.2,0 -0.4,0.2 -0.4,0.4 s0.2,0.4 0.4,0.4 c0.2,0 0.4,-0.2 0.4,-0.4 S14.800012207031273,19 14.500012207031205,19 zM17.000012207031205,19 c-0.2,0 -0.4,0.2 -0.4,0.4 s0.2,0.4 0.4,0.4 s0.4,-0.2 0.4,-0.4 S17.20001220703125,19 17.000012207031205,19 zM19.400012207031295,19 c-0.2,0 -0.4,0.2 -0.4,0.4 s0.2,0.4 0.4,0.4 s0.4,-0.2 0.4,-0.4 S19.600012207031227,19 19.400012207031295,19 zM21.800012207031273,19 c-0.2,0 -0.4,0.2 -0.4,0.4 s0.2,0.4 0.4,0.4 s0.4,-0.2 0.4,-0.4 S22.000012207031205,19 21.800012207031273,19 zM3.6000122070312273,20.200000000000045 c-0.2,0 -0.4,0.2 -0.4,0.4 s0.2,0.4 0.4,0.4 s0.4,-0.2 0.4,-0.4 S3.9000122070312955,20.200000000000045 3.6000122070312273,20.200000000000045 zM6.100012207031227,20.200000000000045 c-0.2,0 -0.4,0.2 -0.4,0.4 s0.2,0.4 0.4,0.4 s0.4,-0.2 0.4,-0.4 S6.300012207031273,20.200000000000045 6.100012207031227,20.200000000000045 zM8.500012207031205,20.200000000000045 c-0.2,0 -0.4,0.2 -0.4,0.4 s0.2,0.4 0.4,0.4 s0.4,-0.2 0.4,-0.4 S8.70001220703125,20.200000000000045 8.500012207031205,20.200000000000045 zM10.900012207031295,20.200000000000045 c-0.2,0 -0.4,0.2 -0.4,0.4 s0.2,0.4 0.4,0.4 c0.2,0 0.4,-0.2 0.4,-0.4 S11.100012207031227,20.200000000000045 10.900012207031295,20.200000000000045 zM13.300012207031273,20.200000000000045 c-0.2,0 -0.4,0.2 -0.4,0.4 s0.2,0.4 0.4,0.4 c0.2,0 0.4,-0.2 0.4,-0.4 S13.500012207031205,20.200000000000045 13.300012207031273,20.200000000000045 zM15.70001220703125,20.200000000000045 c-0.2,0 -0.4,0.2 -0.4,0.4 s0.2,0.4 0.4,0.4 s0.4,-0.2 0.4,-0.4 S16.000012207031205,20.200000000000045 15.70001220703125,20.200000000000045 zM18.20001220703125,20.200000000000045 c-0.2,0 -0.4,0.2 -0.4,0.4 s0.2,0.4 0.4,0.4 s0.4,-0.2 0.4,-0.4 S18.400012207031295,20.200000000000045 18.20001220703125,20.200000000000045 zM20.600012207031227,20.200000000000045 c-0.2,0 -0.4,0.2 -0.4,0.4 s0.2,0.4 0.4,0.4 s0.4,-0.2 0.4,-0.4 S20.800012207031273,20.200000000000045 20.600012207031227,20.200000000000045 zM2.4000122070312955,21.399999999999977 c-0.2,0 -0.4,0.2 -0.4,0.4 s0.2,0.4 0.4,0.4 c0.2,0 0.4,-0.2 0.4,-0.4 S2.6000122070312273,21.399999999999977 2.4000122070312955,21.399999999999977 zM4.800012207031273,21.399999999999977 c-0.2,0 -0.4,0.2 -0.4,0.4 s0.2,0.4 0.4,0.4 s0.4,-0.2 0.4,-0.4 S5.100012207031227,21.399999999999977 4.800012207031273,21.399999999999977 zM7.300012207031273,21.399999999999977 c-0.2,0 -0.4,0.2 -0.4,0.4 s0.2,0.4 0.4,0.4 s0.4,-0.2 0.4,-0.4 S7.5000122070312045,21.399999999999977 7.300012207031273,21.399999999999977 zM9.70001220703125,21.399999999999977 c-0.2,0 -0.4,0.2 -0.4,0.4 s0.2,0.4 0.4,0.4 c0.2,0 0.4,-0.2 0.4,-0.4 S9.900012207031295,21.399999999999977 9.70001220703125,21.399999999999977 zM12.100012207031227,21.399999999999977 c-0.2,0 -0.4,0.2 -0.4,0.4 s0.2,0.4 0.4,0.4 c0.2,0 0.4,-0.2 0.4,-0.4 S12.300012207031273,21.399999999999977 12.100012207031227,21.399999999999977 zM14.500012207031205,21.399999999999977 c-0.2,0 -0.4,0.2 -0.4,0.4 s0.2,0.4 0.4,0.4 c0.2,0 0.4,-0.2 0.4,-0.4 S14.800012207031273,21.399999999999977 14.500012207031205,21.399999999999977 zM17.000012207031205,21.399999999999977 c-0.2,0 -0.4,0.2 -0.4,0.4 s0.2,0.4 0.4,0.4 s0.4,-0.2 0.4,-0.4 S17.20001220703125,21.399999999999977 17.000012207031205,21.399999999999977 zM19.400012207031295,21.399999999999977 c-0.2,0 -0.4,0.2 -0.4,0.4 s0.2,0.4 0.4,0.4 s0.4,-0.2 0.4,-0.4 S19.600012207031227,21.399999999999977 19.400012207031295,21.399999999999977 zM21.800012207031273,21.399999999999977 c-0.2,0 -0.4,0.2 -0.4,0.4 s0.2,0.4 0.4,0.4 s0.4,-0.2 0.4,-0.4 S22.000012207031205,21.399999999999977 21.800012207031273,21.399999999999977 z" id="svg_1"/></g></svg>