<?xml version="1.0" encoding="utf-8"?>
<!-- Generator: Adobe Illustrator 19.0.0, SVG Export Plug-In . SVG Version: 6.00 Build 0)  -->
<svg version="1.1" id="Layer_1" xmlns="http://www.w3.org/2000/svg" xmlns:xlink="http://www.w3.org/1999/xlink" x="0px" y="0px"
	 viewBox="0 0 275.3 586.2" style="enable-background:new 0 0 275.3 586.2;" xml:space="preserve">
<style type="text/css">
	.st0{opacity:0.3;}
	.st1{fill:#FFFFFF;}
	.st2{fill:url(#XMLID_57_);}
	.st3{fill:url(#XMLID_58_);}
	.st4{fill:url(#XMLID_59_);}
	.st5{fill:url(#XMLID_60_);}
</style>
<g id="XMLID_1_" class="st0">
	<path id="XMLID_3_" class="st1" d="M249,35.9v526.8H107.1V155.3H29V35.9H249z"/>
</g>
<linearGradient id="XMLID_57_" gradientUnits="userSpaceOnUse" x1="27.3887" y1="46.1464" x2="247.3911" y2="46.1464">
	<stop  offset="0" style="stop-color:#D79889"/>
	<stop  offset="1" style="stop-color:#BA7B67"/>
	<stop  offset="1" style="stop-color:#B2735F"/>
</linearGradient>
<path id="XMLID_101_" class="st2" d="M242.4,56.9c1.2-0.3,2.4-0.5,3.8-0.5c0.4,0,0.8,0,1.2,0.1v-21h-35.6c0.1,1.7,0,3.4-0.5,5h31
	V56.9z"/>
<linearGradient id="XMLID_58_" gradientUnits="userSpaceOnUse" x1="27.3887" y1="323.6543" x2="247.3911" y2="323.6543">
	<stop  offset="0" style="stop-color:#D79889"/>
	<stop  offset="1" style="stop-color:#BA7B67"/>
	<stop  offset="1" style="stop-color:#B2735F"/>
</linearGradient>
<path id="XMLID_159_" class="st3" d="M246.2,85.6c-1.4,0-2.6-0.2-3.8-0.5v37.2c-17.7-3.4-18,22.6-17.9,27.5
	c-0.8,0.2-1.7,0.4-2.6,0.5V557H118.6c0,0.1,0,0.1,0,0.2h-8.1V213.5h-5v348.7h141.9V85.5C247,85.5,246.6,85.6,246.2,85.6z
	 M242.4,557.2h-7.1l7.1-7.1V557.2z M242.4,531.6l-15.5,15.5v-7l15.5-15.5V531.6z M242.4,506.8l-15.5,15.5v-7.7l15.5-15.5V506.8z
	 M242.4,482l-15.5,15.5v-8.4l15.5-15.5V482z M242.4,457.2l-15.5,15.5v-9.1l15.5-15.5V457.2z M242.4,432.4l-15.5,15.5v-9.9l15.5-15.5
	V432.4z M242.4,407.7l-15.5,15.5v-10.6l15.5-15.5V407.7z M242.4,382.9l-15.5,15.5v-11.3l15.5-15.5V382.9z M242.4,358.1l-15.5,15.5
	v-12l15.5-15.5V358.1z M242.4,333.3l-15.5,15.5v-12.7l15.5-15.5V333.3z M242.4,308.5L226.9,324v-13.4l15.5-15.5V308.5z M242.4,283.7
	l-15.5,15.5v-14.1l15.5-15.5V283.7z M242.4,259l-15.5,15.5v-14.8l15.5-15.5V259z M242.4,234.2l-15.5,15.5v-15.5l15.5-15.5V234.2z
	 M242.4,209.4l-15.5,15.5v-16.2l15.5-15.5V209.4z M242.4,184.6l-15.5,15.5v-17l15.5-15.5V184.6z M242.4,159.8l-15.5,15.5v-17.7
	l15.5-15.5V159.8z M242.4,135l-15.5,15.5v-1.7c-0.5,0.3-1.1,0.5-1.6,0.7l17.1-23.7V135z"/>
<linearGradient id="XMLID_59_" gradientUnits="userSpaceOnUse" x1="27.3887" y1="109.8885" x2="247.3911" y2="109.8885">
	<stop  offset="0" style="stop-color:#D79889"/>
	<stop  offset="1" style="stop-color:#BA7B67"/>
	<stop  offset="1" style="stop-color:#B2735F"/>
</linearGradient>
<path id="XMLID_98_" class="st4" d="M105.5,184.3h5v-34.6H54.6c0,0,0-0.1,0-0.1h-2.9V74.4h-5v75.4H32.4V40.5h93
	c-0.4-1.6-0.6-3.3-0.5-5H27.4v119.4h78.1V184.3z"/>
<linearGradient id="XMLID_60_" gradientUnits="userSpaceOnUse" x1="124.8119" y1="390.2872" x2="129.8396" y2="390.2872">
	<stop  offset="0" style="stop-color:#D79889"/>
	<stop  offset="1" style="stop-color:#BA7B67"/>
	<stop  offset="1" style="stop-color:#B2735F"/>
</linearGradient>
<path id="XMLID_291_" class="st5" d="M129.8,251.9c-1.6,0.4-3.3,0.7-5,0.9v275.3c1.7,0.1,3.4,0.3,5,0.6V251.9z"/>
</svg>
