<?xml version="1.0" encoding="utf-8"?>
<!-- Generator: Adobe Illustrator 19.0.0, SVG Export Plug-In . SVG Version: 6.00 Build 0)  -->
<svg version="1.1" id="Layer_1" xmlns="http://www.w3.org/2000/svg" xmlns:xlink="http://www.w3.org/1999/xlink" x="0px" y="0px"
	 viewBox="-683 684.3 50 50" style="enable-background:new -683 684.3 50 50;" xml:space="preserve">
<style type="text/css">
	.st0{fill:url(#SVGID_1_);}
</style>
<g id="surface1">
	<linearGradient id="SVGID_1_" gradientUnits="userSpaceOnUse" x1="-681" y1="709.3201" x2="-635" y2="709.3201">
		<stop  offset="0" style="stop-color:#D79888"/>
		<stop  offset="1" style="stop-color:#BA7A67"/>
		<stop  offset="1" style="stop-color:#B2725E"/>
	</linearGradient>
	<path class="st0" d="M-681,709.3c0,12.7,10.3,23,23,23s23-10.3,23-23s-10.3-23-23-23S-681,696.6-681,709.3z M-637,709.3
		c0,11.6-9.4,21-21,21s-21-9.4-21-21s9.4-21,21-21S-637,697.7-637,709.3z M-655.7,698.6l-10,10c-0.2,0.2-0.3,0.4-0.3,0.7
		s0.1,0.5,0.3,0.7l10,10c0.4,0.4,1,0.4,1.4,0s0.4-1,0-1.4l-9.3-9.3l9.3-9.3c0.3-0.3,0.4-0.6,0.3-1c-0.1-0.4-0.4-0.6-0.8-0.7
		c0,0-0.1,0-0.1,0C-655.2,698.3-655.5,698.4-655.7,698.6z"/>
</g>
</svg>
