<svg id="Layer_1" data-name="Layer 1" xmlns="http://www.w3.org/2000/svg" viewBox="0 0 722.31 260.79">
  <defs>
    <style>
      .cls-1 {
        fill: none;
      }

      .cls-2 {
        fill: #cc2128;
      }
    </style>
  </defs>
  <title>dsideLogo</title>
  <g>
    <path class="cls-1" d="M807.93,313.32a62.58,62.58,0,0,0-19.74-13.27,60.3,60.3,0,0,0-24.08-4.87H712.77V419.1h51.34a60.46,60.46,0,0,0,24.08-4.86,62,62,0,0,0,33-33,62,62,0,0,0,0-48.16A62.78,62.78,0,0,0,807.93,313.32Zm-6.2,59.49a39.8,39.8,0,0,1-22,21.95,40,40,0,0,1-15.58,3.1H734V316.42h30.09a40,40,0,0,1,15.58,3.1,39.59,39.59,0,0,1,22,22,40.93,40.93,0,0,1,0,31.25Z" transform="translate(-336.42 -226.6)"/>
    <rect class="cls-1" x="336.7" y="68.75" width="21.24" height="123.75"/>
    <path class="cls-1" d="M643.27,357a63,63,0,0,0-7.88-4.6q-4-2-7.34-3.36a52.14,52.14,0,0,0-5.84-2.13c-1.66-.47-2.78-.82-3.37-1.06l-2.12-.53q-3.19-.88-6.91-1.95a37,37,0,0,1-7.08-2.83,21.35,21.35,0,0,1-6.37-4.78,11.4,11.4,0,0,1-3.19-8.15q0-7.79,7.79-12.57a27.19,27.19,0,0,1,6.2-2.3,29.09,29.09,0,0,1,7.08-.88,35.82,35.82,0,0,1,15.58,3.54,38,38,0,0,1,9.74,7.26l15-15.23c-.94-.82-2-1.74-3.27-2.74a39.89,39.89,0,0,0-4.52-3.1,79.33,79.33,0,0,0-13.8-6q-8.68-3-21.43-3a53.47,53.47,0,0,0-14.07,2,36.85,36.85,0,0,0-13,6.46A33.72,33.72,0,0,0,575,312.61q-3.63,7.17-3.62,17.62,0,15.76,16.11,26.56A69.51,69.51,0,0,0,601.4,364c4.66,1.77,8.24,3,10.71,3.72a2.68,2.68,0,0,0,1.07.36,2.87,2.87,0,0,0,1.24.44A6.87,6.87,0,0,1,616,369q2.84.88,6.37,1.95a33.86,33.86,0,0,1,6.73,2.83,18.6,18.6,0,0,1,6.37,4.6,11.61,11.61,0,0,1,3.19,8,13.84,13.84,0,0,1-6,11.69,23.52,23.52,0,0,1-6.64,3.09,28.88,28.88,0,0,1-8.41,1.16,48.2,48.2,0,0,1-6.37-.54,35.19,35.19,0,0,1-8.32-2.3,41.84,41.84,0,0,1-13.1-8.14L575.11,406a74.51,74.51,0,0,0,18.95,10.71,68.84,68.84,0,0,0,26.2,4.69,49.27,49.27,0,0,0,16.64-2.65,36.14,36.14,0,0,0,12.66-7.52,32.84,32.84,0,0,0,8.05-11.87,41.33,41.33,0,0,0,2.84-15.66Q660.45,368.3,643.27,357Z" transform="translate(-336.42 -226.6)"/>
    <path class="cls-1" d="M541,313.35A62.94,62.94,0,0,0,521.2,300a60.74,60.74,0,0,0-24.21-4.9h-51.6V419.68H497a60.73,60.73,0,0,0,24.21-4.89,62.24,62.24,0,0,0,33.18-33.19,62.21,62.21,0,0,0,0-48.4A63,63,0,0,0,541,313.35Z" transform="translate(-336.42 -226.6)"/>
    <polygon class="cls-1" points="503.07 192.5 586.46 192.5 586.46 171.26 524.32 171.26 524.32 141.16 569.09 141.16 577.27 119.92 524.32 119.92 524.32 89.82 586.46 89.82 586.46 68.58 503.07 68.58 503.07 192.5"/>
    <path class="cls-2" d="M793,328.28a42.21,42.21,0,0,0-13.28-8.76,40,40,0,0,0-15.58-3.1H734v81.44h30.09a40,40,0,0,0,15.58-3.1,39.8,39.8,0,0,0,22-21.95,40.93,40.93,0,0,0,0-31.25A42.15,42.15,0,0,0,793,328.28Z" transform="translate(-336.42 -226.6)"/>
    <path class="cls-2" d="M336.42,226.6V487.39h722.31V226.6Zm218,155a62.24,62.24,0,0,1-33.18,33.19A60.73,60.73,0,0,1,497,419.68h-51.6V295.11H497A60.74,60.74,0,0,1,521.2,300a62.15,62.15,0,0,1,33.18,33.19,62.21,62.21,0,0,1,0,48.4Zm103.23,17.76a32.84,32.84,0,0,1-8.05,11.87,36.14,36.14,0,0,1-12.66,7.52,49.27,49.27,0,0,1-16.64,2.65,68.84,68.84,0,0,1-26.2-4.69A74.51,74.51,0,0,1,575.11,406l14.7-14.69a41.84,41.84,0,0,0,13.1,8.14,35.19,35.19,0,0,0,8.32,2.3,48.2,48.2,0,0,0,6.37.54,28.88,28.88,0,0,0,8.41-1.16,23.52,23.52,0,0,0,6.64-3.09,13.84,13.84,0,0,0,6-11.69,11.61,11.61,0,0,0-3.19-8,18.6,18.6,0,0,0-6.37-4.6,33.86,33.86,0,0,0-6.73-2.83q-3.54-1.06-6.37-1.95a6.87,6.87,0,0,0-1.59-.44,2.87,2.87,0,0,1-1.24-.44,2.68,2.68,0,0,1-1.07-.36c-2.47-.71-6.05-1.95-10.71-3.72a69.51,69.51,0,0,1-13.89-7.25Q571.39,346,571.4,330.23q0-10.44,3.62-17.62a33.72,33.72,0,0,1,9.48-11.68,36.85,36.85,0,0,1,13-6.46,53.47,53.47,0,0,1,14.07-2q12.75,0,21.43,3a79.33,79.33,0,0,1,13.8,6,39.89,39.89,0,0,1,4.52,3.1c1.24,1,2.33,1.92,3.27,2.74l-15,15.23a38,38,0,0,0-9.74-7.26,35.82,35.82,0,0,0-15.58-3.54,29.09,29.09,0,0,0-7.08.88A27.19,27.19,0,0,0,601,315q-7.79,4.78-7.79,12.57a11.4,11.4,0,0,0,3.19,8.15,21.35,21.35,0,0,0,6.37,4.78,37,37,0,0,0,7.08,2.83q3.72,1.07,6.91,1.95l2.12.53c.59.24,1.71.59,3.37,1.06a52.14,52.14,0,0,1,5.84,2.13q3.36,1.41,7.34,3.36a63,63,0,0,1,7.88,4.6q17.18,11.34,17.18,26.74A41.33,41.33,0,0,1,657.61,399.36Zm36.75,19.74H673.12V295.35h21.24Zm126.85-37.88a62,62,0,0,1-33,33,60.46,60.46,0,0,1-24.08,4.86H712.77V295.18h51.34a60.3,60.3,0,0,1,24.08,4.87,61.89,61.89,0,0,1,33,33,62,62,0,0,1,0,48.16Zm101.67-64.8H860.74v30.1h53l-8.18,21.24H860.74v30.1h62.14V419.1H839.49V295.18h83.39Zm39.19,103.24H940.46V398.05h21.61Z" transform="translate(-336.42 -226.6)"/>
  </g>
</svg>
