<?xml version="1.0" encoding="utf-8"?>
<!-- Generator: Adobe Illustrator 19.0.0, SVG Export Plug-In . SVG Version: 6.00 Build 0)  -->
<svg version="1.1" id="Layer_1" xmlns="http://www.w3.org/2000/svg" xmlns:xlink="http://www.w3.org/1999/xlink" x="0px" y="0px"
	 viewBox="0 0 83.9 82.1" style="enable-background:new 0 0 83.9 82.1;" xml:space="preserve">
<style type="text/css">
	.st0{fill:none;stroke:url(#XMLID_89_);stroke-width:2.4;stroke-miterlimit:10;}
	.st1{fill:none;stroke:url(#XMLID_90_);stroke-width:2.4;stroke-miterlimit:10;}
	.st2{fill:none;stroke:url(#XMLID_91_);stroke-width:2.4;stroke-miterlimit:10;}
	.st3{fill:none;stroke:url(#XMLID_92_);stroke-width:2.4;stroke-miterlimit:10;}
	.st4{fill:none;stroke:url(#XMLID_93_);stroke-width:2.4;stroke-miterlimit:10;}
	.st5{fill:none;stroke:url(#XMLID_94_);stroke-width:2.4;stroke-miterlimit:10;}
	.st6{fill:none;stroke:url(#XMLID_95_);stroke-width:2.4;stroke-miterlimit:10;}
	.st7{fill:none;stroke:url(#XMLID_96_);stroke-width:2.4;stroke-miterlimit:10;}
</style>
<g id="_x31_0">
	<linearGradient id="XMLID_89_" gradientUnits="userSpaceOnUse" x1="6.5563" y1="37.107" x2="72.3435" y2="37.107">
		<stop  offset="0" style="stop-color:#D79888"/>
		<stop  offset="1" style="stop-color:#BA7A67"/>
		<stop  offset="1" style="stop-color:#B2725E"/>
	</linearGradient>
	<path id="XMLID_88_" class="st0" d="M68.1,45c2.4-4.3,3.3-9.3,3-14.6C70.1,17,59.3,6.1,46,5.1C30.4,3.9,17.4,15.7,16.6,30.8L8.4,49
		h8.3v13.6c0,3.7,3,6.7,6.6,6.7h12.7"/>
	<linearGradient id="XMLID_90_" gradientUnits="userSpaceOnUse" x1="62.7107" y1="64.9827" x2="65.1107" y2="64.9827">
		<stop  offset="0" style="stop-color:#D79888"/>
		<stop  offset="1" style="stop-color:#BA7A67"/>
		<stop  offset="1" style="stop-color:#B2725E"/>
	</linearGradient>
	<polyline id="XMLID_87_" class="st1" points="63.9,78.4 63.9,69.2 63.9,51.6 	"/>
	<linearGradient id="XMLID_91_" gradientUnits="userSpaceOnUse" x1="34.8775" y1="73.791" x2="37.2775" y2="73.791">
		<stop  offset="0" style="stop-color:#D79888"/>
		<stop  offset="1" style="stop-color:#BA7A67"/>
		<stop  offset="1" style="stop-color:#B2725E"/>
	</linearGradient>
	<line id="XMLID_86_" class="st2" x1="36.1" y1="69.2" x2="36.1" y2="78.4"/>
	<g id="XMLID_84_">
		<linearGradient id="XMLID_92_" gradientUnits="userSpaceOnUse" x1="38.9046" y1="31.2751" x2="49.1712" y2="31.2751">
			<stop  offset="0" style="stop-color:#D79888"/>
			<stop  offset="1" style="stop-color:#BA7A67"/>
			<stop  offset="1" style="stop-color:#B2725E"/>
		</linearGradient>
		<path id="XMLID_85_" class="st3" d="M40.4,34.9c0.6,0.9,2,1.6,3.6,1.6c2.2,0,3.9-0.6,3.9-2.6c0-2-1.8-2.6-3.9-2.6l0,0
			c-2.2,0-3.9-0.7-3.9-2.6c0-1.9,1.8-2.6,3.9-2.6c1.5,0,2.8,0.6,3.5,1.4"/>
	</g>
	<linearGradient id="XMLID_93_" gradientUnits="userSpaceOnUse" x1="42.8379" y1="24.8128" x2="45.2379" y2="24.8128">
		<stop  offset="0" style="stop-color:#D79888"/>
		<stop  offset="1" style="stop-color:#BA7A67"/>
		<stop  offset="1" style="stop-color:#B2725E"/>
	</linearGradient>
	<line id="XMLID_83_" class="st4" x1="44" y1="26" x2="44" y2="23.6"/>
	<linearGradient id="XMLID_94_" gradientUnits="userSpaceOnUse" x1="42.8379" y1="37.8821" x2="45.2379" y2="37.8821">
		<stop  offset="0" style="stop-color:#D79888"/>
		<stop  offset="1" style="stop-color:#BA7A67"/>
		<stop  offset="1" style="stop-color:#B2725E"/>
	</linearGradient>
	<line id="XMLID_82_" class="st5" x1="44" y1="39.1" x2="44" y2="36.7"/>
	<linearGradient id="XMLID_95_" gradientUnits="userSpaceOnUse" x1="30.0668" y1="31.2655" x2="58.009" y2="31.2655">
		<stop  offset="0" style="stop-color:#D79888"/>
		<stop  offset="1" style="stop-color:#BA7A67"/>
		<stop  offset="1" style="stop-color:#B2725E"/>
	</linearGradient>
	<path id="XMLID_81_" class="st6" d="M55.1,24.8c1.1,1.9,1.8,4.1,1.8,6.5C56.8,38.3,51.1,44,44,44s-12.8-5.7-12.8-12.8
		S37,18.5,44,18.5c2.5,0,4.9,0.7,6.8,2"/>
	<linearGradient id="XMLID_96_" gradientUnits="userSpaceOnUse" x1="24.1874" y1="31.2655" x2="63.8884" y2="31.2655">
		<stop  offset="0" style="stop-color:#D79888"/>
		<stop  offset="1" style="stop-color:#BA7A67"/>
		<stop  offset="1" style="stop-color:#B2725E"/>
	</linearGradient>
	<circle id="XMLID_80_" class="st7" cx="44" cy="31.3" r="18.7"/>
</g>
</svg>
