<?xml version="1.0" encoding="utf-8"?>
<!-- Generator: Adobe Illustrator 19.0.0, SVG Export Plug-In . SVG Version: 6.00 Build 0)  -->
<svg version="1.1" id="Layer_1" xmlns="http://www.w3.org/2000/svg" xmlns:xlink="http://www.w3.org/1999/xlink" x="0px" y="0px"
	 viewBox="0 0 83.9 82.1" style="enable-background:new 0 0 83.9 82.1;" xml:space="preserve">
<style type="text/css">
	.st0{fill:none;stroke:url(#SVGID_1_);stroke-width:2.4;stroke-miterlimit:10;}
	.st1{fill:none;stroke:url(#SVGID_2_);stroke-width:2.4;stroke-miterlimit:10;}
	.st2{fill:none;stroke:url(#SVGID_3_);stroke-width:2.4;stroke-miterlimit:10;}
	.st3{fill:none;stroke:url(#SVGID_4_);stroke-width:2.4;stroke-miterlimit:10;}
	.st4{fill:none;stroke:url(#SVGID_5_);stroke-width:2.4;stroke-miterlimit:10;}
	.st5{fill:none;stroke:url(#SVGID_6_);stroke-width:2.4;stroke-miterlimit:10;}
</style>
<g id="_x34_">
	<linearGradient id="SVGID_1_" gradientUnits="userSpaceOnUse" x1="20.2015" y1="70.7805" x2="54.0036" y2="70.7805">
		<stop  offset="0" style="stop-color:#D79888"/>
		<stop  offset="1" style="stop-color:#BA7A67"/>
		<stop  offset="1" style="stop-color:#B2725E"/>
	</linearGradient>
	<polygon class="st0" points="26.6,61.2 47.6,61.2 52.8,68.4 52.8,80.3 21.4,80.3 21.4,68.4 	"/>
	<linearGradient id="SVGID_2_" gradientUnits="userSpaceOnUse" x1="27.3772" y1="68.427" x2="50.4418" y2="68.427">
		<stop  offset="0" style="stop-color:#D79888"/>
		<stop  offset="1" style="stop-color:#BA7A67"/>
		<stop  offset="1" style="stop-color:#B2725E"/>
	</linearGradient>
	<line class="st1" x1="50.4" y1="68.4" x2="27.4" y2="68.4"/>
	<linearGradient id="SVGID_3_" gradientUnits="userSpaceOnUse" x1="18.0524" y1="31.3327" x2="65.3811" y2="31.3327">
		<stop  offset="0" style="stop-color:#D79888"/>
		<stop  offset="1" style="stop-color:#BA7A67"/>
		<stop  offset="1" style="stop-color:#B2725E"/>
	</linearGradient>
	<path class="st2" d="M48.1,61.2L64,29.1l-13.3-18h-5.6l-8.3-7.5v7.7c0,0-11.2,0-17.3,13.3l5.4,7c0,0,9-5,16.9-1.3L22.4,48.5
		c-0.8,0.7-1,1.9-0.5,2.9l2.3,4.5"/>
	<linearGradient id="SVGID_4_" gradientUnits="userSpaceOnUse" x1="57.2522" y1="62.0549" x2="65.1983" y2="62.0549">
		<stop  offset="0" style="stop-color:#D79888"/>
		<stop  offset="1" style="stop-color:#BA7A67"/>
		<stop  offset="1" style="stop-color:#B2725E"/>
	</linearGradient>
	<line class="st3" x1="57.3" y1="62.1" x2="65.2" y2="62.1"/>
	<linearGradient id="SVGID_5_" gradientUnits="userSpaceOnUse" x1="59.417" y1="68.427" x2="69.4537" y2="68.427">
		<stop  offset="0" style="stop-color:#D79888"/>
		<stop  offset="1" style="stop-color:#BA7A67"/>
		<stop  offset="1" style="stop-color:#B2725E"/>
	</linearGradient>
	<line class="st4" x1="59.4" y1="68.4" x2="69.5" y2="68.4"/>
	<linearGradient id="SVGID_6_" gradientUnits="userSpaceOnUse" x1="61.5818" y1="74.7991" x2="74.6689" y2="74.7991">
		<stop  offset="0" style="stop-color:#D79888"/>
		<stop  offset="1" style="stop-color:#BA7A67"/>
		<stop  offset="1" style="stop-color:#B2725E"/>
	</linearGradient>
	<line class="st5" x1="61.6" y1="74.8" x2="74.7" y2="74.8"/>
</g>
</svg>
