<?xml version="1.0" encoding="utf-8"?>
<!-- Generator: Adobe Illustrator 19.0.0, SVG Export Plug-In . SVG Version: 6.00 Build 0)  -->
<svg version="1.1" id="Layer_1" xmlns="http://www.w3.org/2000/svg" xmlns:xlink="http://www.w3.org/1999/xlink" x="0px" y="0px"
	 viewBox="0 0 83.9 82.1" style="enable-background:new 0 0 83.9 82.1;" xml:space="preserve">
<style type="text/css">
	.st0{fill:none;stroke:url(#XMLID_91_);stroke-width:2.4;stroke-miterlimit:10;}
	.st1{fill:none;stroke:url(#XMLID_92_);stroke-width:2.4;stroke-miterlimit:10;}
	.st2{fill:none;stroke:url(#XMLID_93_);stroke-width:2.4;stroke-miterlimit:10;}
	.st3{fill:none;stroke:url(#XMLID_94_);stroke-width:2.4;stroke-miterlimit:10;}
	.st4{fill:none;stroke:url(#XMLID_95_);stroke-width:2.4;stroke-miterlimit:10;}
	.st5{fill:none;stroke:url(#XMLID_96_);stroke-width:2.4;stroke-miterlimit:10;}
	.st6{fill:none;stroke:url(#XMLID_97_);stroke-width:2.4;stroke-miterlimit:10;}
	.st7{fill:none;stroke:url(#XMLID_98_);stroke-width:2.4;stroke-miterlimit:10;}
	.st8{fill:none;stroke:url(#XMLID_99_);stroke-width:2.4;stroke-miterlimit:10;}
	.st9{fill:none;stroke:url(#XMLID_100_);stroke-width:2.4;stroke-miterlimit:10;}
	.st10{fill:none;stroke:url(#XMLID_101_);stroke-width:2.4;stroke-miterlimit:10;}
</style>
<g id="_x31_6">
	<linearGradient id="XMLID_91_" gradientUnits="userSpaceOnUse" x1="67.8083" y1="41.2675" x2="79.6231" y2="41.2675">
		<stop  offset="0" style="stop-color:#D79888"/>
		<stop  offset="1" style="stop-color:#BA7A67"/>
		<stop  offset="1" style="stop-color:#B2725E"/>
	</linearGradient>
	<path id="XMLID_90_" class="st0" d="M70,35.6l-0.4-13.1c0-1.1,0.9-1.9,1.9-2.1l1.4-0.2c1.2-0.1,2.2,0.7,2.4,1.8l3,19.5
		c0.3,1.9,0,3.8-0.9,5.5l-8.5,16"/>
	<linearGradient id="XMLID_92_" gradientUnits="userSpaceOnUse" x1="53.5992" y1="51.6059" x2="71.4102" y2="51.6059">
		<stop  offset="0" style="stop-color:#D79888"/>
		<stop  offset="1" style="stop-color:#BA7A67"/>
		<stop  offset="1" style="stop-color:#B2725E"/>
	</linearGradient>
	<path id="XMLID_89_" class="st1" d="M56.7,64.4c-3.8-6.2-1.5-15.7,4.5-17.3l3.6-6.7c0.4-0.8,1.4-1.1,2.3-0.7l2.3,1.2
		c0.8,0.4,1.1,1.4,0.7,2.3l-4.4,8.2"/>
	<linearGradient id="XMLID_93_" gradientUnits="userSpaceOnUse" x1="50.4023" y1="70.0655" x2="70.8722" y2="70.0655">
		<stop  offset="0" style="stop-color:#D79888"/>
		<stop  offset="1" style="stop-color:#BA7A67"/>
		<stop  offset="1" style="stop-color:#B2725E"/>
	</linearGradient>
	
		<rect id="XMLID_88_" x="52.6" y="66.4" transform="matrix(0.9606 0.278 -0.278 0.9606 21.8728 -14.0972)" class="st2" width="16.1" height="7.3"/>
	<linearGradient id="XMLID_94_" gradientUnits="userSpaceOnUse" x1="3.8108" y1="41.2675" x2="15.6255" y2="41.2675">
		<stop  offset="0" style="stop-color:#D79888"/>
		<stop  offset="1" style="stop-color:#BA7A67"/>
		<stop  offset="1" style="stop-color:#B2725E"/>
	</linearGradient>
	<path id="XMLID_87_" class="st3" d="M13.4,35.6l0.4-13.1c0-1.1-0.9-1.9-1.9-2.1l-1.4-0.2c-1.2-0.1-2.2,0.7-2.4,1.8l-3,19.5
		c-0.3,1.9,0,3.8,0.9,5.5l8.5,16"/>
	<linearGradient id="XMLID_95_" gradientUnits="userSpaceOnUse" x1="12.0237" y1="51.6059" x2="29.8347" y2="51.6059">
		<stop  offset="0" style="stop-color:#D79888"/>
		<stop  offset="1" style="stop-color:#BA7A67"/>
		<stop  offset="1" style="stop-color:#B2725E"/>
	</linearGradient>
	<path id="XMLID_86_" class="st4" d="M26.8,64.4c3.8-6.2,1.5-15.7-4.5-17.3l-3.6-6.7c-0.4-0.8-1.4-1.1-2.3-0.7l-2.3,1.2
		c-0.8,0.4-1.1,1.4-0.7,2.3l4.4,8.2"/>
	<linearGradient id="XMLID_96_" gradientUnits="userSpaceOnUse" x1="12.5616" y1="70.0655" x2="33.0315" y2="70.0655">
		<stop  offset="0" style="stop-color:#D79888"/>
		<stop  offset="1" style="stop-color:#BA7A67"/>
		<stop  offset="1" style="stop-color:#B2725E"/>
	</linearGradient>
	
		<rect id="XMLID_85_" x="14.8" y="66.4" transform="matrix(-0.9606 0.2781 -0.2781 -0.9606 64.1761 131.0294)" class="st5" width="16.1" height="7.3"/>
	<linearGradient id="XMLID_97_" gradientUnits="userSpaceOnUse" x1="21.2593" y1="27.4798" x2="62.1746" y2="27.4798">
		<stop  offset="0" style="stop-color:#D79888"/>
		<stop  offset="1" style="stop-color:#BA7A67"/>
		<stop  offset="1" style="stop-color:#B2725E"/>
	</linearGradient>
	<circle id="XMLID_84_" class="st6" cx="41.7" cy="27.5" r="19.3"/>
	<linearGradient id="XMLID_98_" gradientUnits="userSpaceOnUse" x1="30.2779" y1="27.4798" x2="53.156" y2="27.4798">
		<stop  offset="0" style="stop-color:#D79888"/>
		<stop  offset="1" style="stop-color:#BA7A67"/>
		<stop  offset="1" style="stop-color:#B2725E"/>
	</linearGradient>
	<path id="XMLID_83_" class="st7" d="M52,27.5c0,10.6-6.3,19.3-10.2,19.3c-3.9,0-10.2-8.6-10.2-19.3S38.2,8.2,41.7,8.2
		C45.2,8.2,52,16.8,52,27.5z"/>
	<linearGradient id="XMLID_99_" gradientUnits="userSpaceOnUse" x1="40.517" y1="27.4799" x2="42.917" y2="27.4799">
		<stop  offset="0" style="stop-color:#D79888"/>
		<stop  offset="1" style="stop-color:#BA7A67"/>
		<stop  offset="1" style="stop-color:#B2725E"/>
	</linearGradient>
	<line id="XMLID_82_" class="st8" x1="41.7" y1="8.6" x2="41.7" y2="46.3"/>
	<linearGradient id="XMLID_100_" gradientUnits="userSpaceOnUse" x1="29.5372" y1="20.2582" x2="58.5801" y2="20.2582">
		<stop  offset="0" style="stop-color:#D79888"/>
		<stop  offset="1" style="stop-color:#BA7A67"/>
		<stop  offset="1" style="stop-color:#B2725E"/>
	</linearGradient>
	<line id="XMLID_81_" class="st9" x1="29.5" y1="20.3" x2="58.6" y2="20.3"/>
	<linearGradient id="XMLID_101_" gradientUnits="userSpaceOnUse" x1="24.8538" y1="34.7016" x2="54.2872" y2="34.7016">
		<stop  offset="0" style="stop-color:#D79888"/>
		<stop  offset="1" style="stop-color:#BA7A67"/>
		<stop  offset="1" style="stop-color:#B2725E"/>
	</linearGradient>
	<line id="XMLID_80_" class="st10" x1="54.3" y1="34.7" x2="24.9" y2="34.7"/>
</g>
</svg>
