<?xml version="1.0" encoding="utf-8"?>
<!-- Generator: Adobe Illustrator 19.0.0, SVG Export Plug-In . SVG Version: 6.00 Build 0)  -->
<svg version="1.1" id="Layer_1" xmlns="http://www.w3.org/2000/svg" xmlns:xlink="http://www.w3.org/1999/xlink" x="0px" y="0px"
	 viewBox="0 0 600 400" style="enable-background:new 0 0 600 400;" xml:space="preserve">
<style type="text/css">
	.st0{fill:#FFFFFF;}
</style>
<g id="_x37_znH5h.tif">
	<g id="XMLID_1_">
		<path id="XMLID_39_" class="st0" d="M287,341c-3.3,0-6.7,0-10,0c-2.5-0.3-4.9-0.8-7.4-0.9c-27.6-1.7-54.3-7.3-80.2-16.9
			c-63.1-23.3-116.2-61.4-162-110.1c-3-3.2-5.9-6.6-9-10c0.9-1.2,1.5-2,2.1-2.7c36.8-41.4,79.6-75.1,128.8-100.5
			c35.4-18.2,72.7-30.3,112.5-33.7c42.8-3.6,83.9,4.1,123.4,20.3c61.9,25.3,113.9,64.4,158.3,113.9c0.7,0.8,1.3,1.8,1.9,2.8
			c-0.7,0.9-1.1,1.5-1.7,2.2C504.4,249.5,458.4,285,405,310.6c-26.9,13-55.1,22.4-84.8,26.5C309.1,338.7,298.1,339.7,287,341z
			 M282.3,99.9c-35.5,0.1-69.1,8.9-101.3,23.4c-1.5,0.7-3,2.1-3.8,3.6c-14.7,26.4-19.2,54.6-12.7,83.9
			c14.7,66.9,78.3,107,145.1,92.1c77-17.1,116.7-107.8,77.1-175.9c-0.9-1.6-2.5-3.3-4.1-4C350.7,108.8,317.4,100.1,282.3,99.9z
			 M68,203.2c24.4,24.4,50.8,45.8,80.8,62.7c-20.2-36-26.5-73.9-17.5-114.4C119,157.3,80.8,188.6,68,203.2z M432.6,150.7
			c9.2,41.3,2.7,79.3-18.2,115.7c18.8-8.1,72.9-50.8,81.3-63.9C476.7,183.4,456,166.3,432.6,150.7z"/>
		<path id="XMLID_32_" class="st0" d="M281.4,237.4c-28.8-0.6-52-24.3-51.2-52.4c0.8-28.8,24.3-51.4,52.8-50.9
			c28.1,0.5,51.5,24.7,50.7,52.5C332.9,215.2,309.5,238,281.4,237.4z"/>
	</g>
</g>
</svg>
