<svg version="1.1" xmlns="http://www.w3.org/2000/svg" xmlns:xlink="http://www.w3.org/1999/xlink" viewBox="0 0 252 252">
    <style>
        #subtracted-icon{fill:url(#SVGID_1_);}
    </style>
    <linearGradient xmlns="http://www.w3.org/2000/svg" id="SVGID_1_" gradientUnits="userSpaceOnUse" x1="-616.2086" y1="709.6216" x2="-591.9714" y2="709.6216">
	<stop offset="0" style="stop-color:#B2725E"/>
	<stop offset="1" style="stop-color:#D79888"/>
</linearGradient>
    <g fill="none" fill-rule="nonzero" stroke="none" stroke-width="1" stroke-linecap="butt" stroke-linejoin="miter" stroke-miterlimit="10" stroke-dasharray="" stroke-dashoffset="0" font-family="none" font-weight="none" font-size="none" text-anchor="none" style="mix-blend-mode: normal"><path  d="M0,252v-252h252v252z" fill="none"></path><g id="subtracted-icon" opacity="0" visibility="hidden"><path d="M34.65,40.95c-6.9216,0 -12.6,5.6784 -12.6,12.6v157.5h3.15h204.75v-157.5c0,-6.9216 -5.6784,-12.6 -12.6,-12.6zM34.65,47.25h182.7c3.5175,0 6.3,2.7825 6.3,6.3v37.8h-195.3v-37.8c0,-3.5175 2.7825,-6.3 6.3,-6.3zM50.4,56.7c-6.92148,0 -12.6,5.67852 -12.6,12.6c0,6.92148 5.67852,12.6 12.6,12.6c3.77096,0 7.13424,-1.72053 9.45,-4.37432c2.31576,2.65378 5.67904,4.37432 9.45,4.37432c6.92148,0 12.6,-5.67852 12.6,-12.6c0,-6.92148 -5.67852,-12.6 -12.6,-12.6c-3.77096,0 -7.13424,1.72053 -9.45,4.37432c-2.31576,-2.65378 -5.67904,-4.37432 -9.45,-4.37432zM91.35,56.7v3.15v22.05h122.85v-25.2zM50.4,63c3.5167,0 6.3,2.7833 6.3,6.3c0,3.5167 -2.7833,6.3 -6.3,6.3c-3.5167,0 -6.3,-2.7833 -6.3,-6.3c0,-3.5167 2.7833,-6.3 6.3,-6.3zM69.3,63c3.5167,0 6.3,2.7833 6.3,6.3c0,3.5167 -2.7833,6.3 -6.3,6.3c-3.5167,0 -6.3,-2.7833 -6.3,-6.3c0,-3.5167 2.7833,-6.3 6.3,-6.3zM97.65,63h110.25v12.6h-110.25zM28.35,97.65h195.3v107.1h-195.3zM44.1,110.25c-1.7397,0 -3.15,1.4103 -3.15,3.15c0,1.7397 1.4103,3.15 3.15,3.15c1.7397,0 3.15,-1.4103 3.15,-3.15c0,-1.7397 -1.4103,-3.15 -3.15,-3.15zM56.7,110.25c-1.7397,0 -3.15,1.4103 -3.15,3.15c0,1.7397 1.4103,3.15 3.15,3.15c1.7397,0 3.15,-1.4103 3.15,-3.15c0,-1.7397 -1.4103,-3.15 -3.15,-3.15zM69.3,110.25c-1.7397,0 -3.15,1.4103 -3.15,3.15c0,1.7397 1.4103,3.15 3.15,3.15c1.7397,0 3.15,-1.4103 3.15,-3.15c0,-1.7397 -1.4103,-3.15 -3.15,-3.15zM81.9,110.25c-1.7397,0 -3.15,1.4103 -3.15,3.15c0,1.7397 1.4103,3.15 3.15,3.15c1.7397,0 3.15,-1.4103 3.15,-3.15c0,-1.7397 -1.4103,-3.15 -3.15,-3.15zM94.5,110.25c-1.7397,0 -3.15,1.4103 -3.15,3.15c0,1.7397 1.4103,3.15 3.15,3.15c1.7397,0 3.15,-1.4103 3.15,-3.15c0,-1.7397 -1.4103,-3.15 -3.15,-3.15zM107.1,110.25c-1.7397,0 -3.15,1.4103 -3.15,3.15c0,1.7397 1.4103,3.15 3.15,3.15c1.7397,0 3.15,-1.4103 3.15,-3.15c0,-1.7397 -1.4103,-3.15 -3.15,-3.15zM119.7,110.25c-1.7397,0 -3.15,1.4103 -3.15,3.15c0,1.7397 1.4103,3.15 3.15,3.15c1.7397,0 3.15,-1.4103 3.15,-3.15c0,-1.7397 -1.4103,-3.15 -3.15,-3.15zM144.9,110.25c-1.7397,0 -3.15,1.4103 -3.15,3.15c0,1.7397 1.4103,3.15 3.15,3.15c1.7397,0 3.15,-1.4103 3.15,-3.15c0,-1.7397 -1.4103,-3.15 -3.15,-3.15zM157.5,110.25c-1.7397,0 -3.15,1.4103 -3.15,3.15c0,1.7397 1.4103,3.15 3.15,3.15c1.7397,0 3.15,-1.4103 3.15,-3.15c0,-1.7397 -1.4103,-3.15 -3.15,-3.15zM170.1,110.25c-1.7397,0 -3.15,1.4103 -3.15,3.15c0,1.7397 1.4103,3.15 3.15,3.15c1.7397,0 3.15,-1.4103 3.15,-3.15c0,-1.7397 -1.4103,-3.15 -3.15,-3.15zM182.7,110.25c-1.7397,0 -3.15,1.4103 -3.15,3.15c0,1.7397 1.4103,3.15 3.15,3.15c1.7397,0 3.15,-1.4103 3.15,-3.15c0,-1.7397 -1.4103,-3.15 -3.15,-3.15zM195.3,110.25c-1.7397,0 -3.15,1.4103 -3.15,3.15c0,1.7397 1.4103,3.15 3.15,3.15c1.7397,0 3.15,-1.4103 3.15,-3.15c0,-1.7397 -1.4103,-3.15 -3.15,-3.15zM207.9,110.25c-1.7397,0 -3.15,1.4103 -3.15,3.15c0,1.7397 1.4103,3.15 3.15,3.15c1.7397,0 3.15,-1.4103 3.15,-3.15c0,-1.7397 -1.4103,-3.15 -3.15,-3.15zM44.1,122.85c-1.7397,0 -3.15,1.4103 -3.15,3.15c0,1.7397 1.4103,3.15 3.15,3.15c1.7397,0 3.15,-1.4103 3.15,-3.15c0,-1.7397 -1.4103,-3.15 -3.15,-3.15zM119.7,122.85c-1.7397,0 -3.15,1.4103 -3.15,3.15c0,1.7397 1.4103,3.15 3.15,3.15c1.7397,0 3.15,-1.4103 3.15,-3.15c0,-1.7397 -1.4103,-3.15 -3.15,-3.15zM144.9,122.85c-1.7397,0 -3.15,1.4103 -3.15,3.15c0,1.7397 1.4103,3.15 3.15,3.15c1.7397,0 3.15,-1.4103 3.15,-3.15c0,-1.7397 -1.4103,-3.15 -3.15,-3.15zM207.9,122.85c-1.7397,0 -3.15,1.4103 -3.15,3.15c0,1.7397 1.4103,3.15 3.15,3.15c1.7397,0 3.15,-1.4103 3.15,-3.15c0,-1.7397 -1.4103,-3.15 -3.15,-3.15zM44.1,135.45c-1.7397,0 -3.15,1.4103 -3.15,3.15c0,1.7397 1.4103,3.15 3.15,3.15c1.7397,0 3.15,-1.4103 3.15,-3.15c0,-1.7397 -1.4103,-3.15 -3.15,-3.15zM56.7,135.45c-1.7397,0 -3.15,1.4103 -3.15,3.15c0,1.7397 1.4103,3.15 3.15,3.15c1.7397,0 3.15,-1.4103 3.15,-3.15c0,-1.7397 -1.4103,-3.15 -3.15,-3.15zM69.3,135.45c-1.7397,0 -3.15,1.4103 -3.15,3.15c0,1.7397 1.4103,3.15 3.15,3.15c1.7397,0 3.15,-1.4103 3.15,-3.15c0,-1.7397 -1.4103,-3.15 -3.15,-3.15zM81.9,135.45c-1.7397,0 -3.15,1.4103 -3.15,3.15c0,1.7397 1.4103,3.15 3.15,3.15c1.7397,0 3.15,-1.4103 3.15,-3.15c0,-1.7397 -1.4103,-3.15 -3.15,-3.15zM94.5,135.45c-1.7397,0 -3.15,1.4103 -3.15,3.15c0,1.7397 1.4103,3.15 3.15,3.15c1.7397,0 3.15,-1.4103 3.15,-3.15c0,-1.7397 -1.4103,-3.15 -3.15,-3.15zM107.1,135.45c-1.7397,0 -3.15,1.4103 -3.15,3.15c0,1.7397 1.4103,3.15 3.15,3.15c1.7397,0 3.15,-1.4103 3.15,-3.15c0,-1.7397 -1.4103,-3.15 -3.15,-3.15zM119.7,135.45c-1.7397,0 -3.15,1.4103 -3.15,3.15c0,1.7397 1.4103,3.15 3.15,3.15c1.7397,0 3.15,-1.4103 3.15,-3.15c0,-1.7397 -1.4103,-3.15 -3.15,-3.15zM144.9,135.45c-1.7397,0 -3.15,1.4103 -3.15,3.15c0,1.7397 1.4103,3.15 3.15,3.15c1.7397,0 3.15,-1.4103 3.15,-3.15c0,-1.7397 -1.4103,-3.15 -3.15,-3.15zM207.9,135.45c-1.7397,0 -3.15,1.4103 -3.15,3.15c0,1.7397 1.4103,3.15 3.15,3.15c1.7397,0 3.15,-1.4103 3.15,-3.15c0,-1.7397 -1.4103,-3.15 -3.15,-3.15zM144.9,148.05c-1.7397,0 -3.15,1.4103 -3.15,3.15c0,1.7397 1.4103,3.15 3.15,3.15c1.7397,0 3.15,-1.4103 3.15,-3.15c0,-1.7397 -1.4103,-3.15 -3.15,-3.15zM207.9,148.05c-1.7397,0 -3.15,1.4103 -3.15,3.15c0,1.7397 1.4103,3.15 3.15,3.15c1.7397,0 3.15,-1.4103 3.15,-3.15c0,-1.7397 -1.4103,-3.15 -3.15,-3.15zM44.1,160.65c-1.7397,0 -3.15,1.4103 -3.15,3.15c0,1.7397 1.4103,3.15 3.15,3.15c1.7397,0 3.15,-1.4103 3.15,-3.15c0,-1.7397 -1.4103,-3.15 -3.15,-3.15zM56.7,160.65c-1.7397,0 -3.15,1.4103 -3.15,3.15c0,1.7397 1.4103,3.15 3.15,3.15c1.7397,0 3.15,-1.4103 3.15,-3.15c0,-1.7397 -1.4103,-3.15 -3.15,-3.15zM69.3,160.65c-1.7397,0 -3.15,1.4103 -3.15,3.15c0,1.7397 1.4103,3.15 3.15,3.15c1.7397,0 3.15,-1.4103 3.15,-3.15c0,-1.7397 -1.4103,-3.15 -3.15,-3.15zM81.9,160.65c-1.7397,0 -3.15,1.4103 -3.15,3.15c0,1.7397 1.4103,3.15 3.15,3.15c1.7397,0 3.15,-1.4103 3.15,-3.15c0,-1.7397 -1.4103,-3.15 -3.15,-3.15zM94.5,160.65c-1.7397,0 -3.15,1.4103 -3.15,3.15c0,1.7397 1.4103,3.15 3.15,3.15c1.7397,0 3.15,-1.4103 3.15,-3.15c0,-1.7397 -1.4103,-3.15 -3.15,-3.15zM107.1,160.65c-1.7397,0 -3.15,1.4103 -3.15,3.15c0,1.7397 1.4103,3.15 3.15,3.15c1.7397,0 3.15,-1.4103 3.15,-3.15c0,-1.7397 -1.4103,-3.15 -3.15,-3.15zM119.7,160.65c-1.7397,0 -3.15,1.4103 -3.15,3.15c0,1.7397 1.4103,3.15 3.15,3.15c1.7397,0 3.15,-1.4103 3.15,-3.15c0,-1.7397 -1.4103,-3.15 -3.15,-3.15zM144.9,160.65c-1.7397,0 -3.15,1.4103 -3.15,3.15c0,1.7397 1.4103,3.15 3.15,3.15c1.7397,0 3.15,-1.4103 3.15,-3.15c0,-1.7397 -1.4103,-3.15 -3.15,-3.15zM207.9,160.65c-1.7397,0 -3.15,1.4103 -3.15,3.15c0,1.7397 1.4103,3.15 3.15,3.15c1.7397,0 3.15,-1.4103 3.15,-3.15c0,-1.7397 -1.4103,-3.15 -3.15,-3.15zM44.1,173.25c-1.7397,0 -3.15,1.4103 -3.15,3.15c0,1.7397 1.4103,3.15 3.15,3.15c1.7397,0 3.15,-1.4103 3.15,-3.15c0,-1.7397 -1.4103,-3.15 -3.15,-3.15zM119.7,173.25c-1.7397,0 -3.15,1.4103 -3.15,3.15c0,1.7397 1.4103,3.15 3.15,3.15c1.7397,0 3.15,-1.4103 3.15,-3.15c0,-1.7397 -1.4103,-3.15 -3.15,-3.15zM144.9,173.25c-1.7397,0 -3.15,1.4103 -3.15,3.15c0,1.7397 1.4103,3.15 3.15,3.15c1.7397,0 3.15,-1.4103 3.15,-3.15c0,-1.7397 -1.4103,-3.15 -3.15,-3.15zM207.9,173.25c-1.7397,0 -3.15,1.4103 -3.15,3.15c0,1.7397 1.4103,3.15 3.15,3.15c1.7397,0 3.15,-1.4103 3.15,-3.15c0,-1.7397 -1.4103,-3.15 -3.15,-3.15zM44.1,185.85c-1.7397,0 -3.15,1.4103 -3.15,3.15c0,1.7397 1.4103,3.15 3.15,3.15c1.7397,0 3.15,-1.4103 3.15,-3.15c0,-1.7397 -1.4103,-3.15 -3.15,-3.15zM56.7,185.85c-1.7397,0 -3.15,1.4103 -3.15,3.15c0,1.7397 1.4103,3.15 3.15,3.15c1.7397,0 3.15,-1.4103 3.15,-3.15c0,-1.7397 -1.4103,-3.15 -3.15,-3.15zM69.3,185.85c-1.7397,0 -3.15,1.4103 -3.15,3.15c0,1.7397 1.4103,3.15 3.15,3.15c1.7397,0 3.15,-1.4103 3.15,-3.15c0,-1.7397 -1.4103,-3.15 -3.15,-3.15zM81.9,185.85c-1.7397,0 -3.15,1.4103 -3.15,3.15c0,1.7397 1.4103,3.15 3.15,3.15c1.7397,0 3.15,-1.4103 3.15,-3.15c0,-1.7397 -1.4103,-3.15 -3.15,-3.15zM94.5,185.85c-1.7397,0 -3.15,1.4103 -3.15,3.15c0,1.7397 1.4103,3.15 3.15,3.15c1.7397,0 3.15,-1.4103 3.15,-3.15c0,-1.7397 -1.4103,-3.15 -3.15,-3.15zM107.1,185.85c-1.7397,0 -3.15,1.4103 -3.15,3.15c0,1.7397 1.4103,3.15 3.15,3.15c1.7397,0 3.15,-1.4103 3.15,-3.15c0,-1.7397 -1.4103,-3.15 -3.15,-3.15zM119.7,185.85c-1.7397,0 -3.15,1.4103 -3.15,3.15c0,1.7397 1.4103,3.15 3.15,3.15c1.7397,0 3.15,-1.4103 3.15,-3.15c0,-1.7397 -1.4103,-3.15 -3.15,-3.15zM144.9,185.85c-1.7397,0 -3.15,1.4103 -3.15,3.15c0,1.7397 1.4103,3.15 3.15,3.15c1.7397,0 3.15,-1.4103 3.15,-3.15c0,-1.7397 -1.4103,-3.15 -3.15,-3.15zM157.5,185.85c-1.7397,0 -3.15,1.4103 -3.15,3.15c0,1.7397 1.4103,3.15 3.15,3.15c1.7397,0 3.15,-1.4103 3.15,-3.15c0,-1.7397 -1.4103,-3.15 -3.15,-3.15zM170.1,185.85c-1.7397,0 -3.15,1.4103 -3.15,3.15c0,1.7397 1.4103,3.15 3.15,3.15c1.7397,0 3.15,-1.4103 3.15,-3.15c0,-1.7397 -1.4103,-3.15 -3.15,-3.15zM182.7,185.85c-1.7397,0 -3.15,1.4103 -3.15,3.15c0,1.7397 1.4103,3.15 3.15,3.15c1.7397,0 3.15,-1.4103 3.15,-3.15c0,-1.7397 -1.4103,-3.15 -3.15,-3.15zM195.3,185.85c-1.7397,0 -3.15,1.4103 -3.15,3.15c0,1.7397 1.4103,3.15 3.15,3.15c1.7397,0 3.15,-1.4103 3.15,-3.15c0,-1.7397 -1.4103,-3.15 -3.15,-3.15zM207.9,185.85c-1.7397,0 -3.15,1.4103 -3.15,3.15c0,1.7397 1.4103,3.15 3.15,3.15c1.7397,0 3.15,-1.4103 3.15,-3.15c0,-1.7397 -1.4103,-3.15 -3.15,-3.15z"></path></g><g fill="#000000"><path d="M217.35,40.95c6.9216,0 12.6,5.6784 12.6,12.6v157.5h-207.9v-157.5c0,-6.9216 5.6784,-12.6 12.6,-12.6zM28.35,53.55v37.8h38.41731c-0.15355,0.33317 -0.28867,0.6775 -0.40395,1.03185c-0.56599,1.73971 -0.60206,3.56521 -0.16488,5.26815l-37.84848,0v107.1h195.3v-107.1l-44.64512,0c0.43589,-1.70276 0.39886,-3.5275 -0.16691,-5.265c-0.11564,-0.35547 -0.25126,-0.70085 -0.4054,-1.035h45.21743v-37.8c0,-3.5175 -2.7825,-6.3 -6.3,-6.3h-182.7c-3.5175,0 -6.3,2.7825 -6.3,6.3zM59.85,61.07432c2.31576,-2.65378 5.67904,-4.37432 9.45,-4.37432c6.92148,0 12.6,5.67852 12.6,12.6c0,6.92148 -5.67852,12.6 -12.6,12.6c-3.77096,0 -7.13424,-1.72053 -9.45,-4.37432c-2.31576,2.65378 -5.67904,4.37432 -9.45,4.37432c-6.92148,0 -12.6,-5.67852 -12.6,-12.6c0,-6.92148 5.67852,-12.6 12.6,-12.6c3.77096,0 7.13424,1.72053 9.45,4.37432zM214.2,56.7v25.2l-71.92014,0l-2.8094,-6.3h68.42954v-12.6l-74.04833,0l-2.61862,-5.87219c-0.06442,-0.1448 -0.13224,-0.28743 -0.20335,-0.42781zM91.35,81.9v-25.2h22.82481c-0.07226,0.14241 -0.14114,0.28714 -0.20654,0.43411l-2.61605,5.86589h-13.70222v12.6l8.0829,0l-2.80966,6.3zM44.1,69.3c0,3.5167 2.7833,6.3 6.3,6.3c3.5167,0 6.3,-2.7833 6.3,-6.3c0,-3.5167 -2.7833,-6.3 -6.3,-6.3c-3.5167,0 -6.3,2.7833 -6.3,6.3zM63,69.3c0,3.5167 2.7833,6.3 6.3,6.3c3.5167,0 6.3,-2.7833 6.3,-6.3c0,-3.5167 -2.7833,-6.3 -6.3,-6.3c-3.5167,0 -6.3,2.7833 -6.3,6.3zM47.25,113.4c0,1.7397 -1.4103,3.15 -3.15,3.15c-1.7397,0 -3.15,-1.4103 -3.15,-3.15c0,-1.7397 1.4103,-3.15 3.15,-3.15c1.7397,0 3.15,1.4103 3.15,3.15zM59.85,113.4c0,1.7397 -1.4103,3.15 -3.15,3.15c-1.7397,0 -3.15,-1.4103 -3.15,-3.15c0,-1.7397 1.4103,-3.15 3.15,-3.15c1.7397,0 3.15,1.4103 3.15,3.15zM72.45,113.4c0,1.7397 -1.4103,3.15 -3.15,3.15c-1.7397,0 -3.15,-1.4103 -3.15,-3.15c0,-1.7397 1.4103,-3.15 3.15,-3.15c1.7397,0 3.15,1.4103 3.15,3.15zM81.9,116.55c-1.7397,0 -3.15,-1.4103 -3.15,-3.15c0,-0.66984 0.20908,-1.29085 0.56553,-1.80132l4.64326,4.18548c-0.55213,0.4772 -1.27175,0.76584 -2.05879,0.76584zM173.25,113.4c0,1.7397 -1.4103,3.15 -3.15,3.15c-1.7397,0 -3.15,-1.4103 -3.15,-3.15c0,-1.7397 1.4103,-3.15 3.15,-3.15c1.7397,0 3.15,1.4103 3.15,3.15zM185.85,113.4c0,1.7397 -1.4103,3.15 -3.15,3.15c-1.7397,0 -3.15,-1.4103 -3.15,-3.15c0,-1.7397 1.4103,-3.15 3.15,-3.15c1.7397,0 3.15,1.4103 3.15,3.15zM198.45,113.4c0,1.7397 -1.4103,3.15 -3.15,3.15c-1.7397,0 -3.15,-1.4103 -3.15,-3.15c0,-1.7397 1.4103,-3.15 3.15,-3.15c1.7397,0 3.15,1.4103 3.15,3.15zM211.05,113.4c0,1.7397 -1.4103,3.15 -3.15,3.15c-1.7397,0 -3.15,-1.4103 -3.15,-3.15c0,-1.7397 1.4103,-3.15 3.15,-3.15c1.7397,0 3.15,1.4103 3.15,3.15zM47.25,126c0,1.7397 -1.4103,3.15 -3.15,3.15c-1.7397,0 -3.15,-1.4103 -3.15,-3.15c0,-1.7397 1.4103,-3.15 3.15,-3.15c1.7397,0 3.15,1.4103 3.15,3.15zM211.05,126c0,1.7397 -1.4103,3.15 -3.15,3.15c-1.7397,0 -3.15,-1.4103 -3.15,-3.15c0,-1.7397 1.4103,-3.15 3.15,-3.15c1.7397,0 3.15,1.4103 3.15,3.15zM47.25,138.6c0,1.7397 -1.4103,3.15 -3.15,3.15c-1.7397,0 -3.15,-1.4103 -3.15,-3.15c0,-1.7397 1.4103,-3.15 3.15,-3.15c1.7397,0 3.15,1.4103 3.15,3.15zM59.85,138.6c0,1.7397 -1.4103,3.15 -3.15,3.15c-1.7397,0 -3.15,-1.4103 -3.15,-3.15c0,-1.7397 1.4103,-3.15 3.15,-3.15c1.7397,0 3.15,1.4103 3.15,3.15zM72.45,138.6c0,1.7397 -1.4103,3.15 -3.15,3.15c-1.7397,0 -3.15,-1.4103 -3.15,-3.15c0,-1.7397 1.4103,-3.15 3.15,-3.15c1.7397,0 3.15,1.4103 3.15,3.15zM85.05,138.6c0,1.7397 -1.4103,3.15 -3.15,3.15c-1.7397,0 -3.15,-1.4103 -3.15,-3.15c0,-1.7397 1.4103,-3.15 3.15,-3.15c1.7397,0 3.15,1.4103 3.15,3.15zM211.05,138.6c0,1.7397 -1.4103,3.15 -3.15,3.15c-1.7397,0 -3.15,-1.4103 -3.15,-3.15c0,-1.7397 1.4103,-3.15 3.15,-3.15c1.7397,0 3.15,1.4103 3.15,3.15zM211.05,151.2c0,1.7397 -1.4103,3.15 -3.15,3.15c-1.7397,0 -3.15,-1.4103 -3.15,-3.15c0,-1.7397 1.4103,-3.15 3.15,-3.15c1.7397,0 3.15,1.4103 3.15,3.15zM47.25,163.8c0,1.7397 -1.4103,3.15 -3.15,3.15c-1.7397,0 -3.15,-1.4103 -3.15,-3.15c0,-1.7397 1.4103,-3.15 3.15,-3.15c1.7397,0 3.15,1.4103 3.15,3.15zM59.85,163.8c0,1.7397 -1.4103,3.15 -3.15,3.15c-1.7397,0 -3.15,-1.4103 -3.15,-3.15c0,-1.7397 1.4103,-3.15 3.15,-3.15c1.7397,0 3.15,1.4103 3.15,3.15zM72.45,163.8c0,1.7397 -1.4103,3.15 -3.15,3.15c-1.7397,0 -3.15,-1.4103 -3.15,-3.15c0,-1.7397 1.4103,-3.15 3.15,-3.15c1.7397,0 3.15,1.4103 3.15,3.15zM85.05,163.8c0,1.7397 -1.4103,3.15 -3.15,3.15c-1.7397,0 -3.15,-1.4103 -3.15,-3.15c0,-1.7397 1.4103,-3.15 3.15,-3.15c1.7397,0 3.15,1.4103 3.15,3.15zM97.65,163.8c0,1.7397 -1.4103,3.15 -3.15,3.15c-1.7397,0 -3.15,-1.4103 -3.15,-3.15c0,-1.7397 1.4103,-3.15 3.15,-3.15c1.7397,0 3.15,1.4103 3.15,3.15zM110.25,163.8c0,1.7397 -1.4103,3.15 -3.15,3.15c-1.7397,0 -3.15,-1.4103 -3.15,-3.15c0,-1.7397 1.4103,-3.15 3.15,-3.15c1.7397,0 3.15,1.4103 3.15,3.15zM122.85,163.8c0,1.7397 -1.4103,3.15 -3.15,3.15c-1.7397,0 -3.15,-1.4103 -3.15,-3.15c0,-1.7397 1.4103,-3.15 3.15,-3.15c1.7397,0 3.15,1.4103 3.15,3.15zM148.05,163.8c0,1.7397 -1.4103,3.15 -3.15,3.15c-1.7397,0 -3.15,-1.4103 -3.15,-3.15c0,-1.7397 1.4103,-3.15 3.15,-3.15c1.7397,0 3.15,1.4103 3.15,3.15zM211.05,163.8c0,1.7397 -1.4103,3.15 -3.15,3.15c-1.7397,0 -3.15,-1.4103 -3.15,-3.15c0,-1.7397 1.4103,-3.15 3.15,-3.15c1.7397,0 3.15,1.4103 3.15,3.15zM47.25,176.4c0,1.7397 -1.4103,3.15 -3.15,3.15c-1.7397,0 -3.15,-1.4103 -3.15,-3.15c0,-1.7397 1.4103,-3.15 3.15,-3.15c1.7397,0 3.15,1.4103 3.15,3.15zM122.85,176.4c0,1.7397 -1.4103,3.15 -3.15,3.15c-1.7397,0 -3.15,-1.4103 -3.15,-3.15c0,-1.7397 1.4103,-3.15 3.15,-3.15c1.7397,0 3.15,1.4103 3.15,3.15zM148.05,176.4c0,1.7397 -1.4103,3.15 -3.15,3.15c-1.7397,0 -3.15,-1.4103 -3.15,-3.15c0,-1.7397 1.4103,-3.15 3.15,-3.15c1.7397,0 3.15,1.4103 3.15,3.15zM211.05,176.4c0,1.7397 -1.4103,3.15 -3.15,3.15c-1.7397,0 -3.15,-1.4103 -3.15,-3.15c0,-1.7397 1.4103,-3.15 3.15,-3.15c1.7397,0 3.15,1.4103 3.15,3.15zM47.25,189c0,1.7397 -1.4103,3.15 -3.15,3.15c-1.7397,0 -3.15,-1.4103 -3.15,-3.15c0,-1.7397 1.4103,-3.15 3.15,-3.15c1.7397,0 3.15,1.4103 3.15,3.15zM59.85,189c0,1.7397 -1.4103,3.15 -3.15,3.15c-1.7397,0 -3.15,-1.4103 -3.15,-3.15c0,-1.7397 1.4103,-3.15 3.15,-3.15c1.7397,0 3.15,1.4103 3.15,3.15zM72.45,189c0,1.7397 -1.4103,3.15 -3.15,3.15c-1.7397,0 -3.15,-1.4103 -3.15,-3.15c0,-1.7397 1.4103,-3.15 3.15,-3.15c1.7397,0 3.15,1.4103 3.15,3.15zM85.05,189c0,1.7397 -1.4103,3.15 -3.15,3.15c-1.7397,0 -3.15,-1.4103 -3.15,-3.15c0,-1.7397 1.4103,-3.15 3.15,-3.15c1.7397,0 3.15,1.4103 3.15,3.15zM97.65,189c0,1.7397 -1.4103,3.15 -3.15,3.15c-1.7397,0 -3.15,-1.4103 -3.15,-3.15c0,-1.7397 1.4103,-3.15 3.15,-3.15c1.7397,0 3.15,1.4103 3.15,3.15zM110.25,189c0,1.7397 -1.4103,3.15 -3.15,3.15c-1.7397,0 -3.15,-1.4103 -3.15,-3.15c0,-1.7397 1.4103,-3.15 3.15,-3.15c1.7397,0 3.15,1.4103 3.15,3.15zM122.85,189c0,1.7397 -1.4103,3.15 -3.15,3.15c-1.7397,0 -3.15,-1.4103 -3.15,-3.15c0,-1.7397 1.4103,-3.15 3.15,-3.15c1.7397,0 3.15,1.4103 3.15,3.15zM148.05,189c0,1.7397 -1.4103,3.15 -3.15,3.15c-1.7397,0 -3.15,-1.4103 -3.15,-3.15c0,-1.7397 1.4103,-3.15 3.15,-3.15c1.7397,0 3.15,1.4103 3.15,3.15zM160.65,189c0,1.7397 -1.4103,3.15 -3.15,3.15c-1.7397,0 -3.15,-1.4103 -3.15,-3.15c0,-1.7397 1.4103,-3.15 3.15,-3.15c1.7397,0 3.15,1.4103 3.15,3.15zM173.25,189c0,1.7397 -1.4103,3.15 -3.15,3.15c-1.7397,0 -3.15,-1.4103 -3.15,-3.15c0,-1.7397 1.4103,-3.15 3.15,-3.15c1.7397,0 3.15,1.4103 3.15,3.15zM185.85,189c0,1.7397 -1.4103,3.15 -3.15,3.15c-1.7397,0 -3.15,-1.4103 -3.15,-3.15c0,-1.7397 1.4103,-3.15 3.15,-3.15c1.7397,0 3.15,1.4103 3.15,3.15zM198.45,189c0,1.7397 -1.4103,3.15 -3.15,3.15c-1.7397,0 -3.15,-1.4103 -3.15,-3.15c0,-1.7397 1.4103,-3.15 3.15,-3.15c1.7397,0 3.15,1.4103 3.15,3.15zM211.05,189c0,1.7397 -1.4103,3.15 -3.15,3.15c-1.7397,0 -3.15,-1.4103 -3.15,-3.15c0,-1.7397 1.4103,-3.15 3.15,-3.15c1.7397,0 3.15,1.4103 3.15,3.15z"></path></g><g fill="#000000"><g id="subtracted-icon"><path d="M172.84551,94.32932c-0.38429,-1.18122 -1.42692,-2.02856 -2.66484,-2.16085l-31.71351,-3.35153l-12.99032,-29.12742c-0.50399,-1.13398 -1.63166,-1.86476 -2.87589,-1.86476c-1.24422,0 -2.3719,0.73078 -2.87589,1.86791l-12.99032,29.12742l-31.71351,3.34838c-1.23792,0.1323 -2.28055,0.97648 -2.66484,2.16085c-0.38429,1.18437 -0.0378,2.48215 0.88513,3.31373l23.69064,21.35339l-6.61486,31.19693c-0.25829,1.21587 0.22365,2.4727 1.23162,3.20348c1.00798,0.73393 2.353,0.80323 3.42398,0.17955l27.62805,-15.92921l27.62805,15.92921c0.48509,0.28034 1.03003,0.42209 1.57182,0.42209c0.65204,0 1.30092,-0.2016 1.85216,-0.60164c1.00483,-0.73078 1.48992,-1.98446 1.23162,-3.20348l-6.61486,-31.19693l23.69064,-21.35339c0.92293,-0.83473 1.26942,-2.1325 0.88513,-3.31373zM142.70381,115.53151c-0.83473,0.75283 -1.20642,1.89311 -0.97333,2.99244l5.52498,26.06569l-23.0827,-13.30846c-0.48509,-0.28034 -1.02688,-0.42209 -1.57182,-0.42209c-0.54494,0 -1.08673,0.1386 -1.57182,0.42209l-23.0827,13.30846l5.52498,-26.06569c0.23309,-1.09933 -0.1386,-2.2396 -0.97333,-2.99244l-19.79102,-17.84121l26.49723,-2.80029c1.11508,-0.1197 2.08525,-0.82213 2.54514,-1.84901l10.85152,-24.33322l10.85152,24.33637c0.45989,1.02688 1.42692,1.73246 2.54514,1.84901l26.49723,2.80029z"></path></g></g></g></svg>