<svg xmlns="http://www.w3.org/2000/svg" viewBox="0 0 80 80">
    <path style="line-height:normal;text-indent:0;text-align:start;text-decoration-line:none;text-decoration-style:solid;text-decoration-color:#000;text-transform:none;block-progression:tb;isolation:auto;mix-blend-mode:normal" d="M 11 13 C 8.8026661 13 7 14.802666 7 17 L 7 67 L 8 67 L 73 67 L 73 17 C 73 14.802666 71.197334 13 69 13 L 11 13 z M 11 15 L 69 15 C 70.116666 15 71 15.883334 71 17 L 71 29 L 9 29 L 9 17 C 9 15.883334 9.8833339 15 11 15 z M 16 18 C 13.802706 18 12 19.802706 12 22 C 12 24.197294 13.802706 26 16 26 C 17.197129 26 18.264839 25.453799 19 24.611328 C 19.735161 25.453799 20.802871 26 22 26 C 24.197294 26 26 24.197294 26 22 C 26 19.802706 24.197294 18 22 18 C 20.802871 18 19.735161 18.546201 19 19.388672 C 18.264839 18.546201 17.197129 18 16 18 z M 29 18 L 29 19 L 29 26 L 68 26 L 68 18 L 29 18 z M 16 20 C 17.116414 20 18 20.883586 18 22 C 18 23.116414 17.116414 24 16 24 C 14.883586 24 14 23.116414 14 22 C 14 20.883586 14.883586 20 16 20 z M 22 20 C 23.116414 20 24 20.883586 24 22 C 24 23.116414 23.116414 24 22 24 C 20.883586 24 20 23.116414 20 22 C 20 20.883586 20.883586 20 22 20 z M 31 20 L 66 20 L 66 24 L 31 24 L 31 20 z M 9 31 L 71 31 L 71 65 L 9 65 L 9 31 z M 14 35 A 1 1 0 0 0 13 36 A 1 1 0 0 0 14 37 A 1 1 0 0 0 15 36 A 1 1 0 0 0 14 35 z M 18 35 A 1 1 0 0 0 17 36 A 1 1 0 0 0 18 37 A 1 1 0 0 0 19 36 A 1 1 0 0 0 18 35 z M 22 35 A 1 1 0 0 0 21 36 A 1 1 0 0 0 22 37 A 1 1 0 0 0 23 36 A 1 1 0 0 0 22 35 z M 26 35 A 1 1 0 0 0 25 36 A 1 1 0 0 0 26 37 A 1 1 0 0 0 27 36 A 1 1 0 0 0 26 35 z M 30 35 A 1 1 0 0 0 29 36 A 1 1 0 0 0 30 37 A 1 1 0 0 0 31 36 A 1 1 0 0 0 30 35 z M 34 35 A 1 1 0 0 0 33 36 A 1 1 0 0 0 34 37 A 1 1 0 0 0 35 36 A 1 1 0 0 0 34 35 z M 38 35 A 1 1 0 0 0 37 36 A 1 1 0 0 0 38 37 A 1 1 0 0 0 39 36 A 1 1 0 0 0 38 35 z M 46 35 A 1 1 0 0 0 45 36 A 1 1 0 0 0 46 37 A 1 1 0 0 0 47 36 A 1 1 0 0 0 46 35 z M 50 35 A 1 1 0 0 0 49 36 A 1 1 0 0 0 50 37 A 1 1 0 0 0 51 36 A 1 1 0 0 0 50 35 z M 54 35 A 1 1 0 0 0 53 36 A 1 1 0 0 0 54 37 A 1 1 0 0 0 55 36 A 1 1 0 0 0 54 35 z M 58 35 A 1 1 0 0 0 57 36 A 1 1 0 0 0 58 37 A 1 1 0 0 0 59 36 A 1 1 0 0 0 58 35 z M 62 35 A 1 1 0 0 0 61 36 A 1 1 0 0 0 62 37 A 1 1 0 0 0 63 36 A 1 1 0 0 0 62 35 z M 66 35 A 1 1 0 0 0 65 36 A 1 1 0 0 0 66 37 A 1 1 0 0 0 67 36 A 1 1 0 0 0 66 35 z M 14 39 A 1 1 0 0 0 13 40 A 1 1 0 0 0 14 41 A 1 1 0 0 0 15 40 A 1 1 0 0 0 14 39 z M 38 39 A 1 1 0 0 0 37 40 A 1 1 0 0 0 38 41 A 1 1 0 0 0 39 40 A 1 1 0 0 0 38 39 z M 46 39 A 1 1 0 0 0 45 40 A 1 1 0 0 0 46 41 A 1 1 0 0 0 47 40 A 1 1 0 0 0 46 39 z M 66 39 A 1 1 0 0 0 65 40 A 1 1 0 0 0 66 41 A 1 1 0 0 0 67 40 A 1 1 0 0 0 66 39 z M 14 43 A 1 1 0 0 0 13 44 A 1 1 0 0 0 14 45 A 1 1 0 0 0 15 44 A 1 1 0 0 0 14 43 z M 18 43 A 1 1 0 0 0 17 44 A 1 1 0 0 0 18 45 A 1 1 0 0 0 19 44 A 1 1 0 0 0 18 43 z M 22 43 A 1 1 0 0 0 21 44 A 1 1 0 0 0 22 45 A 1 1 0 0 0 23 44 A 1 1 0 0 0 22 43 z M 26 43 A 1 1 0 0 0 25 44 A 1 1 0 0 0 26 45 A 1 1 0 0 0 27 44 A 1 1 0 0 0 26 43 z M 30 43 A 1 1 0 0 0 29 44 A 1 1 0 0 0 30 45 A 1 1 0 0 0 31 44 A 1 1 0 0 0 30 43 z M 34 43 A 1 1 0 0 0 33 44 A 1 1 0 0 0 34 45 A 1 1 0 0 0 35 44 A 1 1 0 0 0 34 43 z M 38 43 A 1 1 0 0 0 37 44 A 1 1 0 0 0 38 45 A 1 1 0 0 0 39 44 A 1 1 0 0 0 38 43 z M 46 43 A 1 1 0 0 0 45 44 A 1 1 0 0 0 46 45 A 1 1 0 0 0 47 44 A 1 1 0 0 0 46 43 z M 66 43 A 1 1 0 0 0 65 44 A 1 1 0 0 0 66 45 A 1 1 0 0 0 67 44 A 1 1 0 0 0 66 43 z M 46 47 A 1 1 0 0 0 45 48 A 1 1 0 0 0 46 49 A 1 1 0 0 0 47 48 A 1 1 0 0 0 46 47 z M 66 47 A 1 1 0 0 0 65 48 A 1 1 0 0 0 66 49 A 1 1 0 0 0 67 48 A 1 1 0 0 0 66 47 z M 14 51 A 1 1 0 0 0 13 52 A 1 1 0 0 0 14 53 A 1 1 0 0 0 15 52 A 1 1 0 0 0 14 51 z M 18 51 A 1 1 0 0 0 17 52 A 1 1 0 0 0 18 53 A 1 1 0 0 0 19 52 A 1 1 0 0 0 18 51 z M 22 51 A 1 1 0 0 0 21 52 A 1 1 0 0 0 22 53 A 1 1 0 0 0 23 52 A 1 1 0 0 0 22 51 z M 26 51 A 1 1 0 0 0 25 52 A 1 1 0 0 0 26 53 A 1 1 0 0 0 27 52 A 1 1 0 0 0 26 51 z M 30 51 A 1 1 0 0 0 29 52 A 1 1 0 0 0 30 53 A 1 1 0 0 0 31 52 A 1 1 0 0 0 30 51 z M 34 51 A 1 1 0 0 0 33 52 A 1 1 0 0 0 34 53 A 1 1 0 0 0 35 52 A 1 1 0 0 0 34 51 z M 38 51 A 1 1 0 0 0 37 52 A 1 1 0 0 0 38 53 A 1 1 0 0 0 39 52 A 1 1 0 0 0 38 51 z M 46 51 A 1 1 0 0 0 45 52 A 1 1 0 0 0 46 53 A 1 1 0 0 0 47 52 A 1 1 0 0 0 46 51 z M 66 51 A 1 1 0 0 0 65 52 A 1 1 0 0 0 66 53 A 1 1 0 0 0 67 52 A 1 1 0 0 0 66 51 z M 14 55 A 1 1 0 0 0 13 56 A 1 1 0 0 0 14 57 A 1 1 0 0 0 15 56 A 1 1 0 0 0 14 55 z M 38 55 A 1 1 0 0 0 37 56 A 1 1 0 0 0 38 57 A 1 1 0 0 0 39 56 A 1 1 0 0 0 38 55 z M 46 55 A 1 1 0 0 0 45 56 A 1 1 0 0 0 46 57 A 1 1 0 0 0 47 56 A 1 1 0 0 0 46 55 z M 66 55 A 1 1 0 0 0 65 56 A 1 1 0 0 0 66 57 A 1 1 0 0 0 67 56 A 1 1 0 0 0 66 55 z M 14 59 A 1 1 0 0 0 13 60 A 1 1 0 0 0 14 61 A 1 1 0 0 0 15 60 A 1 1 0 0 0 14 59 z M 18 59 A 1 1 0 0 0 17 60 A 1 1 0 0 0 18 61 A 1 1 0 0 0 19 60 A 1 1 0 0 0 18 59 z M 22 59 A 1 1 0 0 0 21 60 A 1 1 0 0 0 22 61 A 1 1 0 0 0 23 60 A 1 1 0 0 0 22 59 z M 26 59 A 1 1 0 0 0 25 60 A 1 1 0 0 0 26 61 A 1 1 0 0 0 27 60 A 1 1 0 0 0 26 59 z M 30 59 A 1 1 0 0 0 29 60 A 1 1 0 0 0 30 61 A 1 1 0 0 0 31 60 A 1 1 0 0 0 30 59 z M 34 59 A 1 1 0 0 0 33 60 A 1 1 0 0 0 34 61 A 1 1 0 0 0 35 60 A 1 1 0 0 0 34 59 z M 38 59 A 1 1 0 0 0 37 60 A 1 1 0 0 0 38 61 A 1 1 0 0 0 39 60 A 1 1 0 0 0 38 59 z M 46 59 A 1 1 0 0 0 45 60 A 1 1 0 0 0 46 61 A 1 1 0 0 0 47 60 A 1 1 0 0 0 46 59 z M 50 59 A 1 1 0 0 0 49 60 A 1 1 0 0 0 50 61 A 1 1 0 0 0 51 60 A 1 1 0 0 0 50 59 z M 54 59 A 1 1 0 0 0 53 60 A 1 1 0 0 0 54 61 A 1 1 0 0 0 55 60 A 1 1 0 0 0 54 59 z M 58 59 A 1 1 0 0 0 57 60 A 1 1 0 0 0 58 61 A 1 1 0 0 0 59 60 A 1 1 0 0 0 58 59 z M 62 59 A 1 1 0 0 0 61 60 A 1 1 0 0 0 62 61 A 1 1 0 0 0 63 60 A 1 1 0 0 0 62 59 z M 66 59 A 1 1 0 0 0 65 60 A 1 1 0 0 0 66 61 A 1 1 0 0 0 67 60 A 1 1 0 0 0 66 59 z"></path>
</svg>