<?xml version="1.0" encoding="utf-8"?>
<!-- Generator: Adobe Illustrator 19.0.0, SVG Export Plug-In . SVG Version: 6.00 Build 0)  -->
<svg version="1.1" id="Layer_1" xmlns="http://www.w3.org/2000/svg" xmlns:xlink="http://www.w3.org/1999/xlink" x="0px" y="0px"
	 viewBox="-643 685.3 130 47" style="enable-background:new -643 685.3 130 47;" xml:space="preserve">
<style type="text/css">
	.st0{fill:url(#SVGID_1_);}
	.st1{fill:url(#SVGID_2_);}
	.st2{fill:url(#SVGID_3_);}
	.st3{fill:url(#SVGID_4_);}
	.st4{fill:url(#SVGID_5_);}
	.st5{fill:url(#SVGID_6_);}
	.st6{fill:url(#SVGID_7_);}
	.st7{fill:url(#SVGID_8_);}
	.st8{fill:url(#SVGID_9_);}
	.st9{fill:url(#SVGID_10_);}
	.st10{fill:url(#SVGID_11_);}
</style>
<linearGradient id="SVGID_1_" gradientUnits="userSpaceOnUse" x1="-616.2086" y1="709.6216" x2="-591.9714" y2="709.6216">
	<stop  offset="0" style="stop-color:#B2725E"/>
	<stop  offset="1" style="stop-color:#D79888"/>
</linearGradient>
<path class="st0" d="M-614.2,697.5c-1.1,0-2,0.9-2,2v20.2c0,1.1,0.9,2,2,2h20.2c1.1,0,2-0.9,2-2v-20.2c0-1.1-0.9-2-2-2H-614.2z
	 M-614.2,698.3h1.6h2.4h2.4h2.4h2.4h2.4h2.4h2.4h1.6c0.2,0,0.4,0,0.5,0.1c-0.1,0.1-0.1,0.2-0.1,0.3c0,0.2,0.2,0.4,0.4,0.4
	c0.1,0,0.2,0,0.3-0.1c0.1,0.2,0.1,0.3,0.1,0.5v1.6v2.4v2.4v2.4v2.4v2.4v2.4v2.4v1.6c0,0.2,0,0.4-0.1,0.5c-0.1-0.1-0.2-0.1-0.3-0.1
	c-0.2,0-0.4,0.2-0.4,0.4c0,0.1,0,0.2,0.1,0.3c-0.2,0.1-0.3,0.1-0.5,0.1h-1.6h-2.4h-2.4h-2.4h-2.4h-2.4h-2.4h-2.4h-1.6
	c-0.2,0-0.4,0-0.5-0.1c0.1-0.1,0.1-0.2,0.1-0.3c0-0.2-0.2-0.4-0.4-0.4c-0.1,0-0.2,0-0.3,0.1c-0.1-0.2-0.1-0.3-0.1-0.5v-1.6v-2.4
	v-2.4v-2.4v-2.4V706v-2.4v-2.4v-1.6c0-0.2,0-0.4,0.1-0.5c0.1,0.1,0.2,0.1,0.3,0.1c0.2,0,0.4-0.2,0.4-0.4c0-0.1,0-0.2-0.1-0.3
	C-614.6,698.4-614.4,698.3-614.2,698.3z M-615.4,701.1c0,0.2,0.2,0.4,0.4,0.4c0.2,0,0.4-0.2,0.4-0.4c0-0.2-0.2-0.4-0.4-0.4
	C-615.2,700.7-615.4,700.9-615.4,701.1z M-615.4,703.6c0,0.2,0.2,0.4,0.4,0.4c0.2,0,0.4-0.2,0.4-0.4c0-0.2-0.2-0.4-0.4-0.4
	C-615.2,703.2-615.4,703.3-615.4,703.6z M-615.4,706c0,0.2,0.2,0.4,0.4,0.4c0.2,0,0.4-0.2,0.4-0.4s-0.2-0.4-0.4-0.4
	C-615.2,705.6-615.4,705.8-615.4,706z M-615.4,708.4c0,0.2,0.2,0.4,0.4,0.4c0.2,0,0.4-0.2,0.4-0.4s-0.2-0.4-0.4-0.4
	C-615.2,708-615.4,708.2-615.4,708.4z M-615.4,710.8c0,0.2,0.2,0.4,0.4,0.4c0.2,0,0.4-0.2,0.4-0.4s-0.2-0.4-0.4-0.4
	C-615.2,710.4-615.4,710.6-615.4,710.8z M-615.4,713.3c0,0.2,0.2,0.4,0.4,0.4c0.2,0,0.4-0.2,0.4-0.4c0-0.2-0.2-0.4-0.4-0.4
	C-615.2,712.9-615.4,713-615.4,713.3z M-615.4,715.7c0,0.2,0.2,0.4,0.4,0.4c0.2,0,0.4-0.2,0.4-0.4c0-0.2-0.2-0.4-0.4-0.4
	C-615.2,715.3-615.4,715.5-615.4,715.7z M-615.4,718.1c0,0.2,0.2,0.4,0.4,0.4c0.2,0,0.4-0.2,0.4-0.4s-0.2-0.4-0.4-0.4
	C-615.2,717.7-615.4,717.9-615.4,718.1z M-612.6,720.9c0.2,0,0.4-0.2,0.4-0.4s-0.2-0.4-0.4-0.4s-0.4,0.2-0.4,0.4
	S-612.8,720.9-612.6,720.9z M-610.1,720.9c0.2,0,0.4-0.2,0.4-0.4s-0.2-0.4-0.4-0.4s-0.4,0.2-0.4,0.4S-610.4,720.9-610.1,720.9z
	 M-607.7,720.9c0.2,0,0.4-0.2,0.4-0.4s-0.2-0.4-0.4-0.4s-0.4,0.2-0.4,0.4S-607.9,720.9-607.7,720.9z M-605.3,720.9
	c0.2,0,0.4-0.2,0.4-0.4s-0.2-0.4-0.4-0.4c-0.2,0-0.4,0.2-0.4,0.4S-605.5,720.9-605.3,720.9z M-602.9,720.9c0.2,0,0.4-0.2,0.4-0.4
	s-0.2-0.4-0.4-0.4c-0.2,0-0.4,0.2-0.4,0.4S-603.1,720.9-602.9,720.9z M-600.5,720.9c0.2,0,0.4-0.2,0.4-0.4s-0.2-0.4-0.4-0.4
	s-0.4,0.2-0.4,0.4S-600.7,720.9-600.5,720.9z M-598,720.9c0.2,0,0.4-0.2,0.4-0.4s-0.2-0.4-0.4-0.4s-0.4,0.2-0.4,0.4
	S-598.3,720.9-598,720.9z M-595.6,720.9c0.2,0,0.4-0.2,0.4-0.4s-0.2-0.4-0.4-0.4s-0.4,0.2-0.4,0.4S-595.8,720.9-595.6,720.9z
	 M-592.8,718.1c0-0.2-0.2-0.4-0.4-0.4c-0.2,0-0.4,0.2-0.4,0.4s0.2,0.4,0.4,0.4C-593,718.5-592.8,718.3-592.8,718.1z M-592.8,715.7
	c0-0.2-0.2-0.4-0.4-0.4c-0.2,0-0.4,0.2-0.4,0.4c0,0.2,0.2,0.4,0.4,0.4C-593,716.1-592.8,715.9-592.8,715.7z M-592.8,713.3
	c0-0.2-0.2-0.4-0.4-0.4c-0.2,0-0.4,0.2-0.4,0.4c0,0.2,0.2,0.4,0.4,0.4C-593,713.7-592.8,713.5-592.8,713.3z M-592.8,710.8
	c0-0.2-0.2-0.4-0.4-0.4c-0.2,0-0.4,0.2-0.4,0.4s0.2,0.4,0.4,0.4C-593,711.2-592.8,711.1-592.8,710.8z M-592.8,708.4
	c0-0.2-0.2-0.4-0.4-0.4c-0.2,0-0.4,0.2-0.4,0.4s0.2,0.4,0.4,0.4C-593,708.8-592.8,708.6-592.8,708.4z M-592.8,706
	c0-0.2-0.2-0.4-0.4-0.4c-0.2,0-0.4,0.2-0.4,0.4s0.2,0.4,0.4,0.4C-593,706.4-592.8,706.2-592.8,706z M-592.8,703.6
	c0-0.2-0.2-0.4-0.4-0.4c-0.2,0-0.4,0.2-0.4,0.4c0,0.2,0.2,0.4,0.4,0.4C-593,704-592.8,703.8-592.8,703.6z M-592.8,701.1
	c0-0.2-0.2-0.4-0.4-0.4c-0.2,0-0.4,0.2-0.4,0.4c0,0.2,0.2,0.4,0.4,0.4C-593,701.5-592.8,701.4-592.8,701.1z M-595.6,698.3
	c-0.2,0-0.4,0.2-0.4,0.4s0.2,0.4,0.4,0.4s0.4-0.2,0.4-0.4S-595.4,698.3-595.6,698.3z M-598,698.3c-0.2,0-0.4,0.2-0.4,0.4
	s0.2,0.4,0.4,0.4s0.4-0.2,0.4-0.4S-597.8,698.3-598,698.3z M-600.5,698.3c-0.2,0-0.4,0.2-0.4,0.4s0.2,0.4,0.4,0.4s0.4-0.2,0.4-0.4
	S-600.2,698.3-600.5,698.3z M-602.9,698.3c-0.2,0-0.4,0.2-0.4,0.4s0.2,0.4,0.4,0.4c0.2,0,0.4-0.2,0.4-0.4S-602.7,698.3-602.9,698.3z
	 M-605.3,698.3c-0.2,0-0.4,0.2-0.4,0.4s0.2,0.4,0.4,0.4c0.2,0,0.4-0.2,0.4-0.4S-605.1,698.3-605.3,698.3z M-607.7,698.3
	c-0.2,0-0.4,0.2-0.4,0.4s0.2,0.4,0.4,0.4s0.4-0.2,0.4-0.4S-607.5,698.3-607.7,698.3z M-610.1,698.3c-0.2,0-0.4,0.2-0.4,0.4
	s0.2,0.4,0.4,0.4s0.4-0.2,0.4-0.4S-609.9,698.3-610.1,698.3z M-612.6,698.3c-0.2,0-0.4,0.2-0.4,0.4s0.2,0.4,0.4,0.4s0.4-0.2,0.4-0.4
	S-612.3,698.3-612.6,698.3z M-613.8,699.5c-0.2,0-0.4,0.2-0.4,0.4c0,0.2,0.2,0.4,0.4,0.4c0.2,0,0.4-0.2,0.4-0.4
	C-613.4,699.7-613.6,699.5-613.8,699.5z M-611.4,699.5c-0.2,0-0.4,0.2-0.4,0.4c0,0.2,0.2,0.4,0.4,0.4s0.4-0.2,0.4-0.4
	C-611,699.7-611.1,699.5-611.4,699.5z M-608.9,699.5c-0.2,0-0.4,0.2-0.4,0.4c0,0.2,0.2,0.4,0.4,0.4s0.4-0.2,0.4-0.4
	C-608.5,699.7-608.7,699.5-608.9,699.5z M-606.5,699.5c-0.2,0-0.4,0.2-0.4,0.4c0,0.2,0.2,0.4,0.4,0.4c0.2,0,0.4-0.2,0.4-0.4
	C-606.1,699.7-606.3,699.5-606.5,699.5z M-604.1,699.5c-0.2,0-0.4,0.2-0.4,0.4c0,0.2,0.2,0.4,0.4,0.4c0.2,0,0.4-0.2,0.4-0.4
	C-603.7,699.7-603.9,699.5-604.1,699.5z M-601.7,699.5c-0.2,0-0.4,0.2-0.4,0.4c0,0.2,0.2,0.4,0.4,0.4c0.2,0,0.4-0.2,0.4-0.4
	C-601.3,699.7-601.4,699.5-601.7,699.5z M-599.2,699.5c-0.2,0-0.4,0.2-0.4,0.4c0,0.2,0.2,0.4,0.4,0.4s0.4-0.2,0.4-0.4
	C-598.8,699.7-599,699.5-599.2,699.5z M-596.8,699.5c-0.2,0-0.4,0.2-0.4,0.4c0,0.2,0.2,0.4,0.4,0.4s0.4-0.2,0.4-0.4
	C-596.4,699.7-596.6,699.5-596.8,699.5z M-594.4,699.5c-0.2,0-0.4,0.2-0.4,0.4c0,0.2,0.2,0.4,0.4,0.4s0.4-0.2,0.4-0.4
	C-594,699.7-594.2,699.5-594.4,699.5z M-612.6,700.7c-0.2,0-0.4,0.2-0.4,0.4c0,0.2,0.2,0.4,0.4,0.4s0.4-0.2,0.4-0.4
	C-612.2,700.9-612.3,700.7-612.6,700.7z M-610.1,700.7c-0.2,0-0.4,0.2-0.4,0.4c0,0.2,0.2,0.4,0.4,0.4s0.4-0.2,0.4-0.4
	C-609.7,700.9-609.9,700.7-610.1,700.7z M-607.7,700.7c-0.2,0-0.4,0.2-0.4,0.4c0,0.2,0.2,0.4,0.4,0.4s0.4-0.2,0.4-0.4
	C-607.3,700.9-607.5,700.7-607.7,700.7z M-605.3,700.7c-0.2,0-0.4,0.2-0.4,0.4c0,0.2,0.2,0.4,0.4,0.4c0.2,0,0.4-0.2,0.4-0.4
	C-604.9,700.9-605.1,700.7-605.3,700.7z M-602.9,700.7c-0.2,0-0.4,0.2-0.4,0.4c0,0.2,0.2,0.4,0.4,0.4c0.2,0,0.4-0.2,0.4-0.4
	C-602.5,700.9-602.7,700.7-602.9,700.7z M-600.5,700.7c-0.2,0-0.4,0.2-0.4,0.4c0,0.2,0.2,0.4,0.4,0.4s0.4-0.2,0.4-0.4
	C-600.1,700.9-600.2,700.7-600.5,700.7z M-598,700.7c-0.2,0-0.4,0.2-0.4,0.4c0,0.2,0.2,0.4,0.4,0.4s0.4-0.2,0.4-0.4
	C-597.6,700.9-597.8,700.7-598,700.7z M-595.6,700.7c-0.2,0-0.4,0.2-0.4,0.4c0,0.2,0.2,0.4,0.4,0.4s0.4-0.2,0.4-0.4
	C-595.2,700.9-595.4,700.7-595.6,700.7z M-613.8,701.9c-0.2,0-0.4,0.2-0.4,0.4c0,0.2,0.2,0.4,0.4,0.4c0.2,0,0.4-0.2,0.4-0.4
	C-613.4,702.1-613.6,701.9-613.8,701.9z M-611.4,701.9c-0.2,0-0.4,0.2-0.4,0.4c0,0.2,0.2,0.4,0.4,0.4s0.4-0.2,0.4-0.4
	C-611,702.1-611.1,701.9-611.4,701.9z M-608.9,701.9c-0.2,0-0.4,0.2-0.4,0.4c0,0.2,0.2,0.4,0.4,0.4s0.4-0.2,0.4-0.4
	C-608.5,702.1-608.7,701.9-608.9,701.9z M-606.5,701.9c-0.2,0-0.4,0.2-0.4,0.4c0,0.2,0.2,0.4,0.4,0.4c0.2,0,0.4-0.2,0.4-0.4
	C-606.1,702.1-606.3,701.9-606.5,701.9z M-604.1,701.9c-0.2,0-0.4,0.2-0.4,0.4c0,0.2,0.2,0.4,0.4,0.4c0.2,0,0.4-0.2,0.4-0.4
	C-603.7,702.1-603.9,701.9-604.1,701.9z M-601.7,701.9c-0.2,0-0.4,0.2-0.4,0.4c0,0.2,0.2,0.4,0.4,0.4c0.2,0,0.4-0.2,0.4-0.4
	C-601.3,702.1-601.4,701.9-601.7,701.9z M-599.2,701.9c-0.2,0-0.4,0.2-0.4,0.4c0,0.2,0.2,0.4,0.4,0.4s0.4-0.2,0.4-0.4
	C-598.8,702.1-599,701.9-599.2,701.9z M-596.8,701.9c-0.2,0-0.4,0.2-0.4,0.4c0,0.2,0.2,0.4,0.4,0.4s0.4-0.2,0.4-0.4
	C-596.4,702.1-596.6,701.9-596.8,701.9z M-594.4,701.9c-0.2,0-0.4,0.2-0.4,0.4c0,0.2,0.2,0.4,0.4,0.4s0.4-0.2,0.4-0.4
	C-594,702.1-594.2,701.9-594.4,701.9z M-612.6,703.2c-0.2,0-0.4,0.2-0.4,0.4c0,0.2,0.2,0.4,0.4,0.4s0.4-0.2,0.4-0.4
	C-612.2,703.3-612.3,703.2-612.6,703.2z M-610.1,703.2c-0.2,0-0.4,0.2-0.4,0.4c0,0.2,0.2,0.4,0.4,0.4s0.4-0.2,0.4-0.4
	C-609.7,703.3-609.9,703.2-610.1,703.2z M-607.7,703.2c-0.2,0-0.4,0.2-0.4,0.4c0,0.2,0.2,0.4,0.4,0.4s0.4-0.2,0.4-0.4
	C-607.3,703.3-607.5,703.2-607.7,703.2z M-605.7,703.2v4.8h-4.8v3.2h4.8v4.8h3.2v-4.8h4.8V708h-0.4h-4.4v-4.8H-605.7z M-600.5,703.2
	c-0.2,0-0.4,0.2-0.4,0.4c0,0.2,0.2,0.4,0.4,0.4s0.4-0.2,0.4-0.4C-600.1,703.3-600.2,703.2-600.5,703.2z M-598,703.2
	c-0.2,0-0.4,0.2-0.4,0.4c0,0.2,0.2,0.4,0.4,0.4s0.4-0.2,0.4-0.4C-597.6,703.3-597.8,703.2-598,703.2z M-595.6,703.2
	c-0.2,0-0.4,0.2-0.4,0.4c0,0.2,0.2,0.4,0.4,0.4s0.4-0.2,0.4-0.4C-595.2,703.3-595.4,703.2-595.6,703.2z M-604.9,704h1.6v4.8h4.8v1.6
	h-4.8v4.8h-1.6v-4.8h-4.8v-1.6h4.8V704z M-613.8,704.4c-0.2,0-0.4,0.2-0.4,0.4s0.2,0.4,0.4,0.4c0.2,0,0.4-0.2,0.4-0.4
	S-613.6,704.4-613.8,704.4z M-611.4,704.4c-0.2,0-0.4,0.2-0.4,0.4s0.2,0.4,0.4,0.4s0.4-0.2,0.4-0.4S-611.1,704.4-611.4,704.4z
	 M-608.9,704.4c-0.2,0-0.4,0.2-0.4,0.4s0.2,0.4,0.4,0.4s0.4-0.2,0.4-0.4S-608.7,704.4-608.9,704.4z M-606.5,704.4
	c-0.2,0-0.4,0.2-0.4,0.4s0.2,0.4,0.4,0.4c0.2,0,0.4-0.2,0.4-0.4S-606.3,704.4-606.5,704.4z M-601.7,704.4c-0.2,0-0.4,0.2-0.4,0.4
	s0.2,0.4,0.4,0.4c0.2,0,0.4-0.2,0.4-0.4S-601.4,704.4-601.7,704.4z M-599.2,704.4c-0.2,0-0.4,0.2-0.4,0.4s0.2,0.4,0.4,0.4
	s0.4-0.2,0.4-0.4S-599,704.4-599.2,704.4z M-596.8,704.4c-0.2,0-0.4,0.2-0.4,0.4s0.2,0.4,0.4,0.4s0.4-0.2,0.4-0.4
	S-596.6,704.4-596.8,704.4z M-594.4,704.4c-0.2,0-0.4,0.2-0.4,0.4s0.2,0.4,0.4,0.4s0.4-0.2,0.4-0.4S-594.2,704.4-594.4,704.4z
	 M-612.6,705.6c-0.2,0-0.4,0.2-0.4,0.4s0.2,0.4,0.4,0.4s0.4-0.2,0.4-0.4S-612.3,705.6-612.6,705.6z M-610.1,705.6
	c-0.2,0-0.4,0.2-0.4,0.4s0.2,0.4,0.4,0.4s0.4-0.2,0.4-0.4S-609.9,705.6-610.1,705.6z M-607.7,705.6c-0.2,0-0.4,0.2-0.4,0.4
	s0.2,0.4,0.4,0.4s0.4-0.2,0.4-0.4S-607.5,705.6-607.7,705.6z M-600.5,705.6c-0.2,0-0.4,0.2-0.4,0.4s0.2,0.4,0.4,0.4s0.4-0.2,0.4-0.4
	S-600.2,705.6-600.5,705.6z M-598,705.6c-0.2,0-0.4,0.2-0.4,0.4s0.2,0.4,0.4,0.4s0.4-0.2,0.4-0.4S-597.8,705.6-598,705.6z
	 M-595.6,705.6c-0.2,0-0.4,0.2-0.4,0.4s0.2,0.4,0.4,0.4s0.4-0.2,0.4-0.4S-595.4,705.6-595.6,705.6z M-613.8,706.8
	c-0.2,0-0.4,0.2-0.4,0.4s0.2,0.4,0.4,0.4c0.2,0,0.4-0.2,0.4-0.4S-613.6,706.8-613.8,706.8z M-611.4,706.8c-0.2,0-0.4,0.2-0.4,0.4
	s0.2,0.4,0.4,0.4s0.4-0.2,0.4-0.4S-611.1,706.8-611.4,706.8z M-608.9,706.8c-0.2,0-0.4,0.2-0.4,0.4s0.2,0.4,0.4,0.4s0.4-0.2,0.4-0.4
	S-608.7,706.8-608.9,706.8z M-606.5,706.8c-0.2,0-0.4,0.2-0.4,0.4s0.2,0.4,0.4,0.4c0.2,0,0.4-0.2,0.4-0.4S-606.3,706.8-606.5,706.8z
	 M-601.7,706.8c-0.2,0-0.4,0.2-0.4,0.4s0.2,0.4,0.4,0.4c0.2,0,0.4-0.2,0.4-0.4S-601.4,706.8-601.7,706.8z M-599.2,706.8
	c-0.2,0-0.4,0.2-0.4,0.4s0.2,0.4,0.4,0.4s0.4-0.2,0.4-0.4S-599,706.8-599.2,706.8z M-596.8,706.8c-0.2,0-0.4,0.2-0.4,0.4
	s0.2,0.4,0.4,0.4s0.4-0.2,0.4-0.4S-596.6,706.8-596.8,706.8z M-594.4,706.8c-0.2,0-0.4,0.2-0.4,0.4s0.2,0.4,0.4,0.4s0.4-0.2,0.4-0.4
	S-594.2,706.8-594.4,706.8z M-612.6,708c-0.2,0-0.4,0.2-0.4,0.4s0.2,0.4,0.4,0.4s0.4-0.2,0.4-0.4S-612.3,708-612.6,708z M-595.6,708
	c-0.2,0-0.4,0.2-0.4,0.4s0.2,0.4,0.4,0.4s0.4-0.2,0.4-0.4S-595.4,708-595.6,708z M-613.8,709.2c-0.2,0-0.4,0.2-0.4,0.4
	s0.2,0.4,0.4,0.4c0.2,0,0.4-0.2,0.4-0.4S-613.6,709.2-613.8,709.2z M-611.4,709.2c-0.2,0-0.4,0.2-0.4,0.4s0.2,0.4,0.4,0.4
	s0.4-0.2,0.4-0.4S-611.1,709.2-611.4,709.2z M-596.8,709.2c-0.2,0-0.4,0.2-0.4,0.4s0.2,0.4,0.4,0.4s0.4-0.2,0.4-0.4
	S-596.6,709.2-596.8,709.2z M-594.4,709.2c-0.2,0-0.4,0.2-0.4,0.4s0.2,0.4,0.4,0.4s0.4-0.2,0.4-0.4S-594.2,709.2-594.4,709.2z
	 M-612.6,710.4c-0.2,0-0.4,0.2-0.4,0.4s0.2,0.4,0.4,0.4s0.4-0.2,0.4-0.4S-612.3,710.4-612.6,710.4z M-595.6,710.4
	c-0.2,0-0.4,0.2-0.4,0.4s0.2,0.4,0.4,0.4s0.4-0.2,0.4-0.4S-595.4,710.4-595.6,710.4z M-613.8,711.6c-0.2,0-0.4,0.2-0.4,0.4
	c0,0.2,0.2,0.4,0.4,0.4c0.2,0,0.4-0.2,0.4-0.4C-613.4,711.8-613.6,711.6-613.8,711.6z M-611.4,711.6c-0.2,0-0.4,0.2-0.4,0.4
	c0,0.2,0.2,0.4,0.4,0.4s0.4-0.2,0.4-0.4C-611,711.8-611.1,711.6-611.4,711.6z M-608.9,711.6c-0.2,0-0.4,0.2-0.4,0.4
	c0,0.2,0.2,0.4,0.4,0.4s0.4-0.2,0.4-0.4C-608.5,711.8-608.7,711.6-608.9,711.6z M-606.5,711.6c-0.2,0-0.4,0.2-0.4,0.4
	c0,0.2,0.2,0.4,0.4,0.4c0.2,0,0.4-0.2,0.4-0.4C-606.1,711.8-606.3,711.6-606.5,711.6z M-601.7,711.6c-0.2,0-0.4,0.2-0.4,0.4
	c0,0.2,0.2,0.4,0.4,0.4c0.2,0,0.4-0.2,0.4-0.4C-601.3,711.8-601.4,711.6-601.7,711.6z M-599.2,711.6c-0.2,0-0.4,0.2-0.4,0.4
	c0,0.2,0.2,0.4,0.4,0.4s0.4-0.2,0.4-0.4C-598.8,711.8-599,711.6-599.2,711.6z M-596.8,711.6c-0.2,0-0.4,0.2-0.4,0.4
	c0,0.2,0.2,0.4,0.4,0.4s0.4-0.2,0.4-0.4C-596.4,711.8-596.6,711.6-596.8,711.6z M-594.4,711.6c-0.2,0-0.4,0.2-0.4,0.4
	c0,0.2,0.2,0.4,0.4,0.4s0.4-0.2,0.4-0.4C-594,711.8-594.2,711.6-594.4,711.6z M-612.6,712.9c-0.2,0-0.4,0.2-0.4,0.4
	c0,0.2,0.2,0.4,0.4,0.4s0.4-0.2,0.4-0.4C-612.2,713-612.3,712.9-612.6,712.9z M-610.1,712.9c-0.2,0-0.4,0.2-0.4,0.4
	c0,0.2,0.2,0.4,0.4,0.4s0.4-0.2,0.4-0.4C-609.7,713-609.9,712.9-610.1,712.9z M-607.7,712.9c-0.2,0-0.4,0.2-0.4,0.4
	c0,0.2,0.2,0.4,0.4,0.4s0.4-0.2,0.4-0.4C-607.3,713-607.5,712.9-607.7,712.9z M-600.5,712.9c-0.2,0-0.4,0.2-0.4,0.4
	c0,0.2,0.2,0.4,0.4,0.4s0.4-0.2,0.4-0.4C-600.1,713-600.2,712.9-600.5,712.9z M-598,712.9c-0.2,0-0.4,0.2-0.4,0.4
	c0,0.2,0.2,0.4,0.4,0.4s0.4-0.2,0.4-0.4C-597.6,713-597.8,712.9-598,712.9z M-595.6,712.9c-0.2,0-0.4,0.2-0.4,0.4
	c0,0.2,0.2,0.4,0.4,0.4s0.4-0.2,0.4-0.4C-595.2,713-595.4,712.9-595.6,712.9z M-613.8,714.1c-0.2,0-0.4,0.2-0.4,0.4
	c0,0.2,0.2,0.4,0.4,0.4c0.2,0,0.4-0.2,0.4-0.4C-613.4,714.2-613.6,714.1-613.8,714.1z M-611.4,714.1c-0.2,0-0.4,0.2-0.4,0.4
	c0,0.2,0.2,0.4,0.4,0.4s0.4-0.2,0.4-0.4C-611,714.2-611.1,714.1-611.4,714.1z M-608.9,714.1c-0.2,0-0.4,0.2-0.4,0.4
	c0,0.2,0.2,0.4,0.4,0.4s0.4-0.2,0.4-0.4C-608.5,714.2-608.7,714.1-608.9,714.1z M-606.5,714.1c-0.2,0-0.4,0.2-0.4,0.4
	c0,0.2,0.2,0.4,0.4,0.4c0.2,0,0.4-0.2,0.4-0.4C-606.1,714.2-606.3,714.1-606.5,714.1z M-601.7,714.1c-0.2,0-0.4,0.2-0.4,0.4
	c0,0.2,0.2,0.4,0.4,0.4c0.2,0,0.4-0.2,0.4-0.4C-601.3,714.2-601.4,714.1-601.7,714.1z M-599.2,714.1c-0.2,0-0.4,0.2-0.4,0.4
	c0,0.2,0.2,0.4,0.4,0.4s0.4-0.2,0.4-0.4C-598.8,714.2-599,714.1-599.2,714.1z M-596.8,714.1c-0.2,0-0.4,0.2-0.4,0.4
	c0,0.2,0.2,0.4,0.4,0.4s0.4-0.2,0.4-0.4C-596.4,714.2-596.6,714.1-596.8,714.1z M-594.4,714.1c-0.2,0-0.4,0.2-0.4,0.4
	c0,0.2,0.2,0.4,0.4,0.4s0.4-0.2,0.4-0.4C-594,714.2-594.2,714.1-594.4,714.1z M-612.6,715.3c-0.2,0-0.4,0.2-0.4,0.4
	c0,0.2,0.2,0.4,0.4,0.4s0.4-0.2,0.4-0.4C-612.2,715.5-612.3,715.3-612.6,715.3z M-610.1,715.3c-0.2,0-0.4,0.2-0.4,0.4
	c0,0.2,0.2,0.4,0.4,0.4s0.4-0.2,0.4-0.4C-609.7,715.5-609.9,715.3-610.1,715.3z M-607.7,715.3c-0.2,0-0.4,0.2-0.4,0.4
	c0,0.2,0.2,0.4,0.4,0.4s0.4-0.2,0.4-0.4C-607.3,715.5-607.5,715.3-607.7,715.3z M-600.5,715.3c-0.2,0-0.4,0.2-0.4,0.4
	c0,0.2,0.2,0.4,0.4,0.4s0.4-0.2,0.4-0.4C-600.1,715.5-600.2,715.3-600.5,715.3z M-598,715.3c-0.2,0-0.4,0.2-0.4,0.4
	c0,0.2,0.2,0.4,0.4,0.4s0.4-0.2,0.4-0.4C-597.6,715.5-597.8,715.3-598,715.3z M-595.6,715.3c-0.2,0-0.4,0.2-0.4,0.4
	c0,0.2,0.2,0.4,0.4,0.4s0.4-0.2,0.4-0.4C-595.2,715.5-595.4,715.3-595.6,715.3z M-613.8,716.5c-0.2,0-0.4,0.2-0.4,0.4
	s0.2,0.4,0.4,0.4c0.2,0,0.4-0.2,0.4-0.4S-613.6,716.5-613.8,716.5z M-611.4,716.5c-0.2,0-0.4,0.2-0.4,0.4s0.2,0.4,0.4,0.4
	s0.4-0.2,0.4-0.4S-611.1,716.5-611.4,716.5z M-608.9,716.5c-0.2,0-0.4,0.2-0.4,0.4s0.2,0.4,0.4,0.4s0.4-0.2,0.4-0.4
	S-608.7,716.5-608.9,716.5z M-606.5,716.5c-0.2,0-0.4,0.2-0.4,0.4s0.2,0.4,0.4,0.4c0.2,0,0.4-0.2,0.4-0.4S-606.3,716.5-606.5,716.5z
	 M-604.1,716.5c-0.2,0-0.4,0.2-0.4,0.4s0.2,0.4,0.4,0.4c0.2,0,0.4-0.2,0.4-0.4S-603.9,716.5-604.1,716.5z M-601.7,716.5
	c-0.2,0-0.4,0.2-0.4,0.4s0.2,0.4,0.4,0.4c0.2,0,0.4-0.2,0.4-0.4S-601.4,716.5-601.7,716.5z M-599.2,716.5c-0.2,0-0.4,0.2-0.4,0.4
	s0.2,0.4,0.4,0.4s0.4-0.2,0.4-0.4S-599,716.5-599.2,716.5z M-596.8,716.5c-0.2,0-0.4,0.2-0.4,0.4s0.2,0.4,0.4,0.4s0.4-0.2,0.4-0.4
	S-596.6,716.5-596.8,716.5z M-594.4,716.5c-0.2,0-0.4,0.2-0.4,0.4s0.2,0.4,0.4,0.4s0.4-0.2,0.4-0.4S-594.2,716.5-594.4,716.5z
	 M-612.6,717.7c-0.2,0-0.4,0.2-0.4,0.4s0.2,0.4,0.4,0.4s0.4-0.2,0.4-0.4S-612.3,717.7-612.6,717.7z M-610.1,717.7
	c-0.2,0-0.4,0.2-0.4,0.4s0.2,0.4,0.4,0.4s0.4-0.2,0.4-0.4S-609.9,717.7-610.1,717.7z M-607.7,717.7c-0.2,0-0.4,0.2-0.4,0.4
	s0.2,0.4,0.4,0.4s0.4-0.2,0.4-0.4S-607.5,717.7-607.7,717.7z M-605.3,717.7c-0.2,0-0.4,0.2-0.4,0.4s0.2,0.4,0.4,0.4
	c0.2,0,0.4-0.2,0.4-0.4S-605.1,717.7-605.3,717.7z M-602.9,717.7c-0.2,0-0.4,0.2-0.4,0.4s0.2,0.4,0.4,0.4c0.2,0,0.4-0.2,0.4-0.4
	S-602.7,717.7-602.9,717.7z M-600.5,717.7c-0.2,0-0.4,0.2-0.4,0.4s0.2,0.4,0.4,0.4s0.4-0.2,0.4-0.4S-600.2,717.7-600.5,717.7z
	 M-598,717.7c-0.2,0-0.4,0.2-0.4,0.4s0.2,0.4,0.4,0.4s0.4-0.2,0.4-0.4S-597.8,717.7-598,717.7z M-595.6,717.7
	c-0.2,0-0.4,0.2-0.4,0.4s0.2,0.4,0.4,0.4s0.4-0.2,0.4-0.4S-595.4,717.7-595.6,717.7z M-613.8,718.9c-0.2,0-0.4,0.2-0.4,0.4
	s0.2,0.4,0.4,0.4c0.2,0,0.4-0.2,0.4-0.4S-613.6,718.9-613.8,718.9z M-611.4,718.9c-0.2,0-0.4,0.2-0.4,0.4s0.2,0.4,0.4,0.4
	s0.4-0.2,0.4-0.4S-611.1,718.9-611.4,718.9z M-608.9,718.9c-0.2,0-0.4,0.2-0.4,0.4s0.2,0.4,0.4,0.4s0.4-0.2,0.4-0.4
	S-608.7,718.9-608.9,718.9z M-606.5,718.9c-0.2,0-0.4,0.2-0.4,0.4s0.2,0.4,0.4,0.4c0.2,0,0.4-0.2,0.4-0.4S-606.3,718.9-606.5,718.9z
	 M-604.1,718.9c-0.2,0-0.4,0.2-0.4,0.4s0.2,0.4,0.4,0.4c0.2,0,0.4-0.2,0.4-0.4S-603.9,718.9-604.1,718.9z M-601.7,718.9
	c-0.2,0-0.4,0.2-0.4,0.4s0.2,0.4,0.4,0.4c0.2,0,0.4-0.2,0.4-0.4S-601.4,718.9-601.7,718.9z M-599.2,718.9c-0.2,0-0.4,0.2-0.4,0.4
	s0.2,0.4,0.4,0.4s0.4-0.2,0.4-0.4S-599,718.9-599.2,718.9z M-596.8,718.9c-0.2,0-0.4,0.2-0.4,0.4s0.2,0.4,0.4,0.4s0.4-0.2,0.4-0.4
	S-596.6,718.9-596.8,718.9z M-594.4,718.9c-0.2,0-0.4,0.2-0.4,0.4s0.2,0.4,0.4,0.4s0.4-0.2,0.4-0.4S-594.2,718.9-594.4,718.9z"/>
<g>
	<linearGradient id="SVGID_2_" gradientUnits="userSpaceOnUse" x1="-581.9948" y1="703.2712" x2="-574.2623" y2="703.2712">
		<stop  offset="0" style="stop-color:#B2725E"/>
		<stop  offset="1" style="stop-color:#D79888"/>
	</linearGradient>
	<path class="st1" d="M-575.9,705.2h-4.5l-1,2.3h-0.6l3.5-8.4h0.5l3.6,8.4h-0.7L-575.9,705.2z M-580.1,704.6h4l-2-4.7L-580.1,704.6z
		"/>
	<linearGradient id="SVGID_3_" gradientUnits="userSpaceOnUse" x1="-572.8528" y1="705.3259" x2="-566.1448" y2="705.3259">
		<stop  offset="0" style="stop-color:#B2725E"/>
		<stop  offset="1" style="stop-color:#D79888"/>
	</linearGradient>
	<path class="st2" d="M-566.1,704.2c0,1.9-1.4,3.4-3.3,3.4c-1.2,0-2.2-0.6-2.8-1.5v3.7h-0.6V701h0.4l0.1,1.4
		c0.6-0.9,1.6-1.6,2.8-1.6C-567.5,700.8-566.1,702.3-566.1,704.2z M-566.7,704.2c0-1.6-1.2-2.8-2.8-2.8c-1.6,0-2.8,1.2-2.8,2.8
		c0,1.6,1.2,2.8,2.8,2.8C-567.9,707.1-566.7,705.9-566.7,704.2z"/>
	<linearGradient id="SVGID_4_" gradientUnits="userSpaceOnUse" x1="-564.4324" y1="705.3259" x2="-557.7244" y2="705.3259">
		<stop  offset="0" style="stop-color:#B2725E"/>
		<stop  offset="1" style="stop-color:#D79888"/>
	</linearGradient>
	<path class="st3" d="M-557.7,704.2c0,1.9-1.4,3.4-3.3,3.4c-1.2,0-2.2-0.6-2.8-1.5v3.7h-0.6V701h0.4l0.1,1.4
		c0.6-0.9,1.6-1.6,2.8-1.6C-559.1,700.8-557.7,702.3-557.7,704.2z M-558.3,704.2c0-1.6-1.2-2.8-2.8-2.8c-1.6,0-2.8,1.2-2.8,2.8
		c0,1.6,1.2,2.8,2.8,2.8C-559.5,707.1-558.3,705.9-558.3,704.2z"/>
	<linearGradient id="SVGID_5_" gradientUnits="userSpaceOnUse" x1="-556.012" y1="703.0818" x2="-555.4199" y2="703.0818">
		<stop  offset="0" style="stop-color:#B2725E"/>
		<stop  offset="1" style="stop-color:#D79888"/>
	</linearGradient>
	<path class="st4" d="M-556,698.7h0.6v8.8h-0.6V698.7z"/>
	<linearGradient id="SVGID_6_" gradientUnits="userSpaceOnUse" x1="-554.0303" y1="705.3918" x2="-547.5829" y2="705.3918">
		<stop  offset="0" style="stop-color:#B2725E"/>
		<stop  offset="1" style="stop-color:#D79888"/>
	</linearGradient>
	<path class="st5" d="M-547.6,701l-3.3,7c-0.7,1.4-1.2,1.8-2.3,1.8h-0.5v-0.5h0.5c0.9,0,1.3-0.3,1.8-1.4l0.3-0.7l-3-6.1h0.6l2.7,5.5
		l2.5-5.5H-547.6z"/>
	<linearGradient id="SVGID_7_" gradientUnits="userSpaceOnUse" x1="-582.006" y1="717.1011" x2="-575.5587" y2="717.1011">
		<stop  offset="0" style="stop-color:#B2725E"/>
		<stop  offset="1" style="stop-color:#D79888"/>
	</linearGradient>
	<path class="st6" d="M-575.6,712.7l-3.3,7c-0.7,1.4-1.2,1.8-2.3,1.8h-0.5V721h0.5c0.9,0,1.3-0.3,1.8-1.4l0.3-0.7l-3-6.1h0.6
		l2.7,5.5l2.5-5.5H-575.6z"/>
	<linearGradient id="SVGID_8_" gradientUnits="userSpaceOnUse" x1="-574.9199" y1="715.9467" x2="-568.0954" y2="715.9467">
		<stop  offset="0" style="stop-color:#B2725E"/>
		<stop  offset="1" style="stop-color:#D79888"/>
	</linearGradient>
	<path class="st7" d="M-574.9,715.9c0-2,1.5-3.4,3.4-3.4c2,0,3.4,1.4,3.4,3.4c0,1.9-1.5,3.4-3.4,3.4
		C-573.5,719.3-574.9,717.9-574.9,715.9z M-568.7,715.9c0-1.6-1.2-2.8-2.8-2.8c-1.6,0-2.8,1.2-2.8,2.8c0,1.6,1.2,2.8,2.8,2.8
		C-569.9,718.8-568.7,717.6-568.7,715.9z"/>
	<linearGradient id="SVGID_9_" gradientUnits="userSpaceOnUse" x1="-566.5081" y1="716.0123" x2="-560.9239" y2="716.0123">
		<stop  offset="0" style="stop-color:#B2725E"/>
		<stop  offset="1" style="stop-color:#D79888"/>
	</linearGradient>
	<path class="st8" d="M-566.5,716.5v-3.8h0.6v3.7c0,1.5,0.8,2.4,2.2,2.4c1.4,0,2.2-0.9,2.2-2.4v-3.7h0.6v3.8c0,1.7-1.1,2.9-2.8,2.9
		C-565.4,719.3-566.5,718.2-566.5,716.5z"/>
	<linearGradient id="SVGID_10_" gradientUnits="userSpaceOnUse" x1="-558.7747" y1="715.935" x2="-555.4302" y2="715.935">
		<stop  offset="0" style="stop-color:#B2725E"/>
		<stop  offset="1" style="stop-color:#D79888"/>
	</linearGradient>
	<path class="st9" d="M-555.4,712.7v0.6h-0.6c-1.3,0-2.1,1-2.1,2.3v3.6h-0.6v-6.5h0.4l0.1,1.3c0.4-0.8,1.2-1.3,2.2-1.3H-555.4z"/>
	<linearGradient id="SVGID_11_" gradientUnits="userSpaceOnUse" x1="-554.8157" y1="715.9467" x2="-549.7959" y2="715.9467">
		<stop  offset="0" style="stop-color:#B2725E"/>
		<stop  offset="1" style="stop-color:#D79888"/>
	</linearGradient>
	<path class="st10" d="M-554.8,717.4h0.6c0.1,0.9,0.8,1.4,2,1.4c1.1,0,1.9-0.5,1.9-1.3c0-1-1-1.2-2-1.4c-1.1-0.2-2.3-0.4-2.3-1.7
		c0-1.1,1-1.8,2.4-1.8c1.4,0,2.3,0.7,2.4,1.9h-0.6c-0.1-0.9-0.7-1.3-1.8-1.3c-1.1,0-1.8,0.5-1.8,1.2c0,0.9,0.9,1,1.9,1.2
		c1.1,0.2,2.4,0.4,2.4,1.9c0,1.2-1,1.9-2.5,1.9C-553.8,719.3-554.7,718.6-554.8,717.4z"/>
</g>
</svg>
