<svg xmlns="http://www.w3.org/2000/svg" viewBox="0 0 80 80">
    <path style="line-height:normal;text-indent:0;text-align:start;text-decoration-line:none;text-decoration-style:solid;text-decoration-color:#000;text-transform:none;block-progression:tb;isolation:auto;mix-blend-mode:normal" d="M 15 10 C 12.250484 10 10 12.250484 10 15 L 10 65 C 10 67.749516 12.250484 70 15 70 L 65 70 C 67.749516 70 70 67.749516 70 65 L 70 15 C 70 12.250484 67.749516 10 65 10 L 15 10 z M 15 12 L 19 12 L 25 12 L 31 12 L 37 12 L 43 12 L 49 12 L 55 12 L 61 12 L 65 12 C 65.464928 12 65.897983 12.111616 66.289062 12.296875 A 1 1 0 0 0 66 13 A 1 1 0 0 0 67 14 A 1 1 0 0 0 67.703125 13.710938 C 67.888384 14.102017 68 14.535072 68 15 L 68 19 L 68 25 L 68 31 L 68 37 L 68 43 L 68 49 L 68 55 L 68 61 L 68 65 C 68 65.464928 67.888384 65.897983 67.703125 66.289062 A 1 1 0 0 0 67 66 A 1 1 0 0 0 66 67 A 1 1 0 0 0 66.289062 67.703125 C 65.897983 67.888384 65.464928 68 65 68 L 61 68 L 55 68 L 49 68 L 43 68 L 37 68 L 31 68 L 25 68 L 19 68 L 15 68 C 14.535072 68 14.102017 67.888384 13.710938 67.703125 A 1 1 0 0 0 14 67 A 1 1 0 0 0 13 66 A 1 1 0 0 0 12.296875 66.289062 C 12.111616 65.897983 12 65.464928 12 65 L 12 61 L 12 55 L 12 49 L 12 43 L 12 37 L 12 31 L 12 25 L 12 19 L 12 15 C 12 14.535072 12.111616 14.102017 12.296875 13.710938 A 1 1 0 0 0 13 14 A 1 1 0 0 0 14 13 A 1 1 0 0 0 13.710938 12.296875 C 14.102017 12.111616 14.535072 12 15 12 z M 12 19 A 1 1 0 0 0 13 20 A 1 1 0 0 0 14 19 A 1 1 0 0 0 13 18 A 1 1 0 0 0 12 19 z M 12 25 A 1 1 0 0 0 13 26 A 1 1 0 0 0 14 25 A 1 1 0 0 0 13 24 A 1 1 0 0 0 12 25 z M 12 31 A 1 1 0 0 0 13 32 A 1 1 0 0 0 14 31 A 1 1 0 0 0 13 30 A 1 1 0 0 0 12 31 z M 12 37 A 1 1 0 0 0 13 38 A 1 1 0 0 0 14 37 A 1 1 0 0 0 13 36 A 1 1 0 0 0 12 37 z M 12 43 A 1 1 0 0 0 13 44 A 1 1 0 0 0 14 43 A 1 1 0 0 0 13 42 A 1 1 0 0 0 12 43 z M 12 49 A 1 1 0 0 0 13 50 A 1 1 0 0 0 14 49 A 1 1 0 0 0 13 48 A 1 1 0 0 0 12 49 z M 12 55 A 1 1 0 0 0 13 56 A 1 1 0 0 0 14 55 A 1 1 0 0 0 13 54 A 1 1 0 0 0 12 55 z M 12 61 A 1 1 0 0 0 13 62 A 1 1 0 0 0 14 61 A 1 1 0 0 0 13 60 A 1 1 0 0 0 12 61 z M 19 68 A 1 1 0 0 0 20 67 A 1 1 0 0 0 19 66 A 1 1 0 0 0 18 67 A 1 1 0 0 0 19 68 z M 25 68 A 1 1 0 0 0 26 67 A 1 1 0 0 0 25 66 A 1 1 0 0 0 24 67 A 1 1 0 0 0 25 68 z M 31 68 A 1 1 0 0 0 32 67 A 1 1 0 0 0 31 66 A 1 1 0 0 0 30 67 A 1 1 0 0 0 31 68 z M 37 68 A 1 1 0 0 0 38 67 A 1 1 0 0 0 37 66 A 1 1 0 0 0 36 67 A 1 1 0 0 0 37 68 z M 43 68 A 1 1 0 0 0 44 67 A 1 1 0 0 0 43 66 A 1 1 0 0 0 42 67 A 1 1 0 0 0 43 68 z M 49 68 A 1 1 0 0 0 50 67 A 1 1 0 0 0 49 66 A 1 1 0 0 0 48 67 A 1 1 0 0 0 49 68 z M 55 68 A 1 1 0 0 0 56 67 A 1 1 0 0 0 55 66 A 1 1 0 0 0 54 67 A 1 1 0 0 0 55 68 z M 61 68 A 1 1 0 0 0 62 67 A 1 1 0 0 0 61 66 A 1 1 0 0 0 60 67 A 1 1 0 0 0 61 68 z M 68 61 A 1 1 0 0 0 67 60 A 1 1 0 0 0 66 61 A 1 1 0 0 0 67 62 A 1 1 0 0 0 68 61 z M 68 55 A 1 1 0 0 0 67 54 A 1 1 0 0 0 66 55 A 1 1 0 0 0 67 56 A 1 1 0 0 0 68 55 z M 68 49 A 1 1 0 0 0 67 48 A 1 1 0 0 0 66 49 A 1 1 0 0 0 67 50 A 1 1 0 0 0 68 49 z M 68 43 A 1 1 0 0 0 67 42 A 1 1 0 0 0 66 43 A 1 1 0 0 0 67 44 A 1 1 0 0 0 68 43 z M 68 37 A 1 1 0 0 0 67 36 A 1 1 0 0 0 66 37 A 1 1 0 0 0 67 38 A 1 1 0 0 0 68 37 z M 68 31 A 1 1 0 0 0 67 30 A 1 1 0 0 0 66 31 A 1 1 0 0 0 67 32 A 1 1 0 0 0 68 31 z M 68 25 A 1 1 0 0 0 67 24 A 1 1 0 0 0 66 25 A 1 1 0 0 0 67 26 A 1 1 0 0 0 68 25 z M 68 19 A 1 1 0 0 0 67 18 A 1 1 0 0 0 66 19 A 1 1 0 0 0 67 20 A 1 1 0 0 0 68 19 z M 61 12 A 1 1 0 0 0 60 13 A 1 1 0 0 0 61 14 A 1 1 0 0 0 62 13 A 1 1 0 0 0 61 12 z M 55 12 A 1 1 0 0 0 54 13 A 1 1 0 0 0 55 14 A 1 1 0 0 0 56 13 A 1 1 0 0 0 55 12 z M 49 12 A 1 1 0 0 0 48 13 A 1 1 0 0 0 49 14 A 1 1 0 0 0 50 13 A 1 1 0 0 0 49 12 z M 43 12 A 1 1 0 0 0 42 13 A 1 1 0 0 0 43 14 A 1 1 0 0 0 44 13 A 1 1 0 0 0 43 12 z M 37 12 A 1 1 0 0 0 36 13 A 1 1 0 0 0 37 14 A 1 1 0 0 0 38 13 A 1 1 0 0 0 37 12 z M 31 12 A 1 1 0 0 0 30 13 A 1 1 0 0 0 31 14 A 1 1 0 0 0 32 13 A 1 1 0 0 0 31 12 z M 25 12 A 1 1 0 0 0 24 13 A 1 1 0 0 0 25 14 A 1 1 0 0 0 26 13 A 1 1 0 0 0 25 12 z M 19 12 A 1 1 0 0 0 18 13 A 1 1 0 0 0 19 14 A 1 1 0 0 0 20 13 A 1 1 0 0 0 19 12 z M 16 15 A 1 1 0 0 0 15 16 A 1 1 0 0 0 16 17 A 1 1 0 0 0 17 16 A 1 1 0 0 0 16 15 z M 22 15 A 1 1 0 0 0 21 16 A 1 1 0 0 0 22 17 A 1 1 0 0 0 23 16 A 1 1 0 0 0 22 15 z M 28 15 A 1 1 0 0 0 27 16 A 1 1 0 0 0 28 17 A 1 1 0 0 0 29 16 A 1 1 0 0 0 28 15 z M 34 15 A 1 1 0 0 0 33 16 A 1 1 0 0 0 34 17 A 1 1 0 0 0 35 16 A 1 1 0 0 0 34 15 z M 40 15 A 1 1 0 0 0 39 16 A 1 1 0 0 0 40 17 A 1 1 0 0 0 41 16 A 1 1 0 0 0 40 15 z M 46 15 A 1 1 0 0 0 45 16 A 1 1 0 0 0 46 17 A 1 1 0 0 0 47 16 A 1 1 0 0 0 46 15 z M 52 15 A 1 1 0 0 0 51 16 A 1 1 0 0 0 52 17 A 1 1 0 0 0 53 16 A 1 1 0 0 0 52 15 z M 58 15 A 1 1 0 0 0 57 16 A 1 1 0 0 0 58 17 A 1 1 0 0 0 59 16 A 1 1 0 0 0 58 15 z M 64 15 A 1 1 0 0 0 63 16 A 1 1 0 0 0 64 17 A 1 1 0 0 0 65 16 A 1 1 0 0 0 64 15 z M 19 18 A 1 1 0 0 0 18 19 A 1 1 0 0 0 19 20 A 1 1 0 0 0 20 19 A 1 1 0 0 0 19 18 z M 25 18 A 1 1 0 0 0 24 19 A 1 1 0 0 0 25 20 A 1 1 0 0 0 26 19 A 1 1 0 0 0 25 18 z M 31 18 A 1 1 0 0 0 30 19 A 1 1 0 0 0 31 20 A 1 1 0 0 0 32 19 A 1 1 0 0 0 31 18 z M 37 18 A 1 1 0 0 0 36 19 A 1 1 0 0 0 37 20 A 1 1 0 0 0 38 19 A 1 1 0 0 0 37 18 z M 43 18 A 1 1 0 0 0 42 19 A 1 1 0 0 0 43 20 A 1 1 0 0 0 44 19 A 1 1 0 0 0 43 18 z M 49 18 A 1 1 0 0 0 48 19 A 1 1 0 0 0 49 20 A 1 1 0 0 0 50 19 A 1 1 0 0 0 49 18 z M 55 18 A 1 1 0 0 0 54 19 A 1 1 0 0 0 55 20 A 1 1 0 0 0 56 19 A 1 1 0 0 0 55 18 z M 61 18 A 1 1 0 0 0 60 19 A 1 1 0 0 0 61 20 A 1 1 0 0 0 62 19 A 1 1 0 0 0 61 18 z M 16 21 A 1 1 0 0 0 15 22 A 1 1 0 0 0 16 23 A 1 1 0 0 0 17 22 A 1 1 0 0 0 16 21 z M 22 21 A 1 1 0 0 0 21 22 A 1 1 0 0 0 22 23 A 1 1 0 0 0 23 22 A 1 1 0 0 0 22 21 z M 28 21 A 1 1 0 0 0 27 22 A 1 1 0 0 0 28 23 A 1 1 0 0 0 29 22 A 1 1 0 0 0 28 21 z M 34 21 A 1 1 0 0 0 33 22 A 1 1 0 0 0 34 23 A 1 1 0 0 0 35 22 A 1 1 0 0 0 34 21 z M 40 21 A 1 1 0 0 0 39 22 A 1 1 0 0 0 40 23 A 1 1 0 0 0 41 22 A 1 1 0 0 0 40 21 z M 46 21 A 1 1 0 0 0 45 22 A 1 1 0 0 0 46 23 A 1 1 0 0 0 47 22 A 1 1 0 0 0 46 21 z M 52 21 A 1 1 0 0 0 51 22 A 1 1 0 0 0 52 23 A 1 1 0 0 0 53 22 A 1 1 0 0 0 52 21 z M 58 21 A 1 1 0 0 0 57 22 A 1 1 0 0 0 58 23 A 1 1 0 0 0 59 22 A 1 1 0 0 0 58 21 z M 64 21 A 1 1 0 0 0 63 22 A 1 1 0 0 0 64 23 A 1 1 0 0 0 65 22 A 1 1 0 0 0 64 21 z M 19 24 A 1 1 0 0 0 18 25 A 1 1 0 0 0 19 26 A 1 1 0 0 0 20 25 A 1 1 0 0 0 19 24 z M 25 24 A 1 1 0 0 0 24 25 A 1 1 0 0 0 25 26 A 1 1 0 0 0 26 25 A 1 1 0 0 0 25 24 z M 31 24 A 1 1 0 0 0 30 25 A 1 1 0 0 0 31 26 A 1 1 0 0 0 32 25 A 1 1 0 0 0 31 24 z M 36 24 L 36 36 L 24 36 L 24 44 L 36 44 L 36 56 L 44 56 L 44 44 L 56 44 L 56 36 L 55 36 L 44 36 L 44 24 L 36 24 z M 49 24 A 1 1 0 0 0 48 25 A 1 1 0 0 0 49 26 A 1 1 0 0 0 50 25 A 1 1 0 0 0 49 24 z M 55 24 A 1 1 0 0 0 54 25 A 1 1 0 0 0 55 26 A 1 1 0 0 0 56 25 A 1 1 0 0 0 55 24 z M 61 24 A 1 1 0 0 0 60 25 A 1 1 0 0 0 61 26 A 1 1 0 0 0 62 25 A 1 1 0 0 0 61 24 z M 38 26 L 42 26 L 42 38 L 54 38 L 54 42 L 42 42 L 42 54 L 38 54 L 38 42 L 26 42 L 26 38 L 38 38 L 38 26 z M 16 27 A 1 1 0 0 0 15 28 A 1 1 0 0 0 16 29 A 1 1 0 0 0 17 28 A 1 1 0 0 0 16 27 z M 22 27 A 1 1 0 0 0 21 28 A 1 1 0 0 0 22 29 A 1 1 0 0 0 23 28 A 1 1 0 0 0 22 27 z M 28 27 A 1 1 0 0 0 27 28 A 1 1 0 0 0 28 29 A 1 1 0 0 0 29 28 A 1 1 0 0 0 28 27 z M 34 27 A 1 1 0 0 0 33 28 A 1 1 0 0 0 34 29 A 1 1 0 0 0 35 28 A 1 1 0 0 0 34 27 z M 46 27 A 1 1 0 0 0 45 28 A 1 1 0 0 0 46 29 A 1 1 0 0 0 47 28 A 1 1 0 0 0 46 27 z M 52 27 A 1 1 0 0 0 51 28 A 1 1 0 0 0 52 29 A 1 1 0 0 0 53 28 A 1 1 0 0 0 52 27 z M 58 27 A 1 1 0 0 0 57 28 A 1 1 0 0 0 58 29 A 1 1 0 0 0 59 28 A 1 1 0 0 0 58 27 z M 64 27 A 1 1 0 0 0 63 28 A 1 1 0 0 0 64 29 A 1 1 0 0 0 65 28 A 1 1 0 0 0 64 27 z M 19 30 A 1 1 0 0 0 18 31 A 1 1 0 0 0 19 32 A 1 1 0 0 0 20 31 A 1 1 0 0 0 19 30 z M 25 30 A 1 1 0 0 0 24 31 A 1 1 0 0 0 25 32 A 1 1 0 0 0 26 31 A 1 1 0 0 0 25 30 z M 31 30 A 1 1 0 0 0 30 31 A 1 1 0 0 0 31 32 A 1 1 0 0 0 32 31 A 1 1 0 0 0 31 30 z M 49 30 A 1 1 0 0 0 48 31 A 1 1 0 0 0 49 32 A 1 1 0 0 0 50 31 A 1 1 0 0 0 49 30 z M 55 30 A 1 1 0 0 0 54 31 A 1 1 0 0 0 55 32 A 1 1 0 0 0 56 31 A 1 1 0 0 0 55 30 z M 61 30 A 1 1 0 0 0 60 31 A 1 1 0 0 0 61 32 A 1 1 0 0 0 62 31 A 1 1 0 0 0 61 30 z M 16 33 A 1 1 0 0 0 15 34 A 1 1 0 0 0 16 35 A 1 1 0 0 0 17 34 A 1 1 0 0 0 16 33 z M 22 33 A 1 1 0 0 0 21 34 A 1 1 0 0 0 22 35 A 1 1 0 0 0 23 34 A 1 1 0 0 0 22 33 z M 28 33 A 1 1 0 0 0 27 34 A 1 1 0 0 0 28 35 A 1 1 0 0 0 29 34 A 1 1 0 0 0 28 33 z M 34 33 A 1 1 0 0 0 33 34 A 1 1 0 0 0 34 35 A 1 1 0 0 0 35 34 A 1 1 0 0 0 34 33 z M 46 33 A 1 1 0 0 0 45 34 A 1 1 0 0 0 46 35 A 1 1 0 0 0 47 34 A 1 1 0 0 0 46 33 z M 52 33 A 1 1 0 0 0 51 34 A 1 1 0 0 0 52 35 A 1 1 0 0 0 53 34 A 1 1 0 0 0 52 33 z M 58 33 A 1 1 0 0 0 57 34 A 1 1 0 0 0 58 35 A 1 1 0 0 0 59 34 A 1 1 0 0 0 58 33 z M 64 33 A 1 1 0 0 0 63 34 A 1 1 0 0 0 64 35 A 1 1 0 0 0 65 34 A 1 1 0 0 0 64 33 z M 19 36 A 1 1 0 0 0 18 37 A 1 1 0 0 0 19 38 A 1 1 0 0 0 20 37 A 1 1 0 0 0 19 36 z M 61 36 A 1 1 0 0 0 60 37 A 1 1 0 0 0 61 38 A 1 1 0 0 0 62 37 A 1 1 0 0 0 61 36 z M 16 39 A 1 1 0 0 0 15 40 A 1 1 0 0 0 16 41 A 1 1 0 0 0 17 40 A 1 1 0 0 0 16 39 z M 22 39 A 1 1 0 0 0 21 40 A 1 1 0 0 0 22 41 A 1 1 0 0 0 23 40 A 1 1 0 0 0 22 39 z M 58 39 A 1 1 0 0 0 57 40 A 1 1 0 0 0 58 41 A 1 1 0 0 0 59 40 A 1 1 0 0 0 58 39 z M 64 39 A 1 1 0 0 0 63 40 A 1 1 0 0 0 64 41 A 1 1 0 0 0 65 40 A 1 1 0 0 0 64 39 z M 19 42 A 1 1 0 0 0 18 43 A 1 1 0 0 0 19 44 A 1 1 0 0 0 20 43 A 1 1 0 0 0 19 42 z M 61 42 A 1 1 0 0 0 60 43 A 1 1 0 0 0 61 44 A 1 1 0 0 0 62 43 A 1 1 0 0 0 61 42 z M 16 45 A 1 1 0 0 0 15 46 A 1 1 0 0 0 16 47 A 1 1 0 0 0 17 46 A 1 1 0 0 0 16 45 z M 22 45 A 1 1 0 0 0 21 46 A 1 1 0 0 0 22 47 A 1 1 0 0 0 23 46 A 1 1 0 0 0 22 45 z M 28 45 A 1 1 0 0 0 27 46 A 1 1 0 0 0 28 47 A 1 1 0 0 0 29 46 A 1 1 0 0 0 28 45 z M 34 45 A 1 1 0 0 0 33 46 A 1 1 0 0 0 34 47 A 1 1 0 0 0 35 46 A 1 1 0 0 0 34 45 z M 46 45 A 1 1 0 0 0 45 46 A 1 1 0 0 0 46 47 A 1 1 0 0 0 47 46 A 1 1 0 0 0 46 45 z M 52 45 A 1 1 0 0 0 51 46 A 1 1 0 0 0 52 47 A 1 1 0 0 0 53 46 A 1 1 0 0 0 52 45 z M 58 45 A 1 1 0 0 0 57 46 A 1 1 0 0 0 58 47 A 1 1 0 0 0 59 46 A 1 1 0 0 0 58 45 z M 64 45 A 1 1 0 0 0 63 46 A 1 1 0 0 0 64 47 A 1 1 0 0 0 65 46 A 1 1 0 0 0 64 45 z M 19 48 A 1 1 0 0 0 18 49 A 1 1 0 0 0 19 50 A 1 1 0 0 0 20 49 A 1 1 0 0 0 19 48 z M 25 48 A 1 1 0 0 0 24 49 A 1 1 0 0 0 25 50 A 1 1 0 0 0 26 49 A 1 1 0 0 0 25 48 z M 31 48 A 1 1 0 0 0 30 49 A 1 1 0 0 0 31 50 A 1 1 0 0 0 32 49 A 1 1 0 0 0 31 48 z M 49 48 A 1 1 0 0 0 48 49 A 1 1 0 0 0 49 50 A 1 1 0 0 0 50 49 A 1 1 0 0 0 49 48 z M 55 48 A 1 1 0 0 0 54 49 A 1 1 0 0 0 55 50 A 1 1 0 0 0 56 49 A 1 1 0 0 0 55 48 z M 61 48 A 1 1 0 0 0 60 49 A 1 1 0 0 0 61 50 A 1 1 0 0 0 62 49 A 1 1 0 0 0 61 48 z M 16 51 A 1 1 0 0 0 15 52 A 1 1 0 0 0 16 53 A 1 1 0 0 0 17 52 A 1 1 0 0 0 16 51 z M 22 51 A 1 1 0 0 0 21 52 A 1 1 0 0 0 22 53 A 1 1 0 0 0 23 52 A 1 1 0 0 0 22 51 z M 28 51 A 1 1 0 0 0 27 52 A 1 1 0 0 0 28 53 A 1 1 0 0 0 29 52 A 1 1 0 0 0 28 51 z M 34 51 A 1 1 0 0 0 33 52 A 1 1 0 0 0 34 53 A 1 1 0 0 0 35 52 A 1 1 0 0 0 34 51 z M 46 51 A 1 1 0 0 0 45 52 A 1 1 0 0 0 46 53 A 1 1 0 0 0 47 52 A 1 1 0 0 0 46 51 z M 52 51 A 1 1 0 0 0 51 52 A 1 1 0 0 0 52 53 A 1 1 0 0 0 53 52 A 1 1 0 0 0 52 51 z M 58 51 A 1 1 0 0 0 57 52 A 1 1 0 0 0 58 53 A 1 1 0 0 0 59 52 A 1 1 0 0 0 58 51 z M 64 51 A 1 1 0 0 0 63 52 A 1 1 0 0 0 64 53 A 1 1 0 0 0 65 52 A 1 1 0 0 0 64 51 z M 19 54 A 1 1 0 0 0 18 55 A 1 1 0 0 0 19 56 A 1 1 0 0 0 20 55 A 1 1 0 0 0 19 54 z M 25 54 A 1 1 0 0 0 24 55 A 1 1 0 0 0 25 56 A 1 1 0 0 0 26 55 A 1 1 0 0 0 25 54 z M 31 54 A 1 1 0 0 0 30 55 A 1 1 0 0 0 31 56 A 1 1 0 0 0 32 55 A 1 1 0 0 0 31 54 z M 49 54 A 1 1 0 0 0 48 55 A 1 1 0 0 0 49 56 A 1 1 0 0 0 50 55 A 1 1 0 0 0 49 54 z M 55 54 A 1 1 0 0 0 54 55 A 1 1 0 0 0 55 56 A 1 1 0 0 0 56 55 A 1 1 0 0 0 55 54 z M 61 54 A 1 1 0 0 0 60 55 A 1 1 0 0 0 61 56 A 1 1 0 0 0 62 55 A 1 1 0 0 0 61 54 z M 16 57 A 1 1 0 0 0 15 58 A 1 1 0 0 0 16 59 A 1 1 0 0 0 17 58 A 1 1 0 0 0 16 57 z M 22 57 A 1 1 0 0 0 21 58 A 1 1 0 0 0 22 59 A 1 1 0 0 0 23 58 A 1 1 0 0 0 22 57 z M 28 57 A 1 1 0 0 0 27 58 A 1 1 0 0 0 28 59 A 1 1 0 0 0 29 58 A 1 1 0 0 0 28 57 z M 34 57 A 1 1 0 0 0 33 58 A 1 1 0 0 0 34 59 A 1 1 0 0 0 35 58 A 1 1 0 0 0 34 57 z M 40 57 A 1 1 0 0 0 39 58 A 1 1 0 0 0 40 59 A 1 1 0 0 0 41 58 A 1 1 0 0 0 40 57 z M 46 57 A 1 1 0 0 0 45 58 A 1 1 0 0 0 46 59 A 1 1 0 0 0 47 58 A 1 1 0 0 0 46 57 z M 52 57 A 1 1 0 0 0 51 58 A 1 1 0 0 0 52 59 A 1 1 0 0 0 53 58 A 1 1 0 0 0 52 57 z M 58 57 A 1 1 0 0 0 57 58 A 1 1 0 0 0 58 59 A 1 1 0 0 0 59 58 A 1 1 0 0 0 58 57 z M 64 57 A 1 1 0 0 0 63 58 A 1 1 0 0 0 64 59 A 1 1 0 0 0 65 58 A 1 1 0 0 0 64 57 z M 19 60 A 1 1 0 0 0 18 61 A 1 1 0 0 0 19 62 A 1 1 0 0 0 20 61 A 1 1 0 0 0 19 60 z M 25 60 A 1 1 0 0 0 24 61 A 1 1 0 0 0 25 62 A 1 1 0 0 0 26 61 A 1 1 0 0 0 25 60 z M 31 60 A 1 1 0 0 0 30 61 A 1 1 0 0 0 31 62 A 1 1 0 0 0 32 61 A 1 1 0 0 0 31 60 z M 37 60 A 1 1 0 0 0 36 61 A 1 1 0 0 0 37 62 A 1 1 0 0 0 38 61 A 1 1 0 0 0 37 60 z M 43 60 A 1 1 0 0 0 42 61 A 1 1 0 0 0 43 62 A 1 1 0 0 0 44 61 A 1 1 0 0 0 43 60 z M 49 60 A 1 1 0 0 0 48 61 A 1 1 0 0 0 49 62 A 1 1 0 0 0 50 61 A 1 1 0 0 0 49 60 z M 55 60 A 1 1 0 0 0 54 61 A 1 1 0 0 0 55 62 A 1 1 0 0 0 56 61 A 1 1 0 0 0 55 60 z M 61 60 A 1 1 0 0 0 60 61 A 1 1 0 0 0 61 62 A 1 1 0 0 0 62 61 A 1 1 0 0 0 61 60 z M 16 63 A 1 1 0 0 0 15 64 A 1 1 0 0 0 16 65 A 1 1 0 0 0 17 64 A 1 1 0 0 0 16 63 z M 22 63 A 1 1 0 0 0 21 64 A 1 1 0 0 0 22 65 A 1 1 0 0 0 23 64 A 1 1 0 0 0 22 63 z M 28 63 A 1 1 0 0 0 27 64 A 1 1 0 0 0 28 65 A 1 1 0 0 0 29 64 A 1 1 0 0 0 28 63 z M 34 63 A 1 1 0 0 0 33 64 A 1 1 0 0 0 34 65 A 1 1 0 0 0 35 64 A 1 1 0 0 0 34 63 z M 40 63 A 1 1 0 0 0 39 64 A 1 1 0 0 0 40 65 A 1 1 0 0 0 41 64 A 1 1 0 0 0 40 63 z M 46 63 A 1 1 0 0 0 45 64 A 1 1 0 0 0 46 65 A 1 1 0 0 0 47 64 A 1 1 0 0 0 46 63 z M 52 63 A 1 1 0 0 0 51 64 A 1 1 0 0 0 52 65 A 1 1 0 0 0 53 64 A 1 1 0 0 0 52 63 z M 58 63 A 1 1 0 0 0 57 64 A 1 1 0 0 0 58 65 A 1 1 0 0 0 59 64 A 1 1 0 0 0 58 63 z M 64 63 A 1 1 0 0 0 63 64 A 1 1 0 0 0 64 65 A 1 1 0 0 0 65 64 A 1 1 0 0 0 64 63 z"></path>
</svg>