<?xml version="1.0" encoding="utf-8"?>
<!-- Generator: Adobe Illustrator 19.0.0, SVG Export Plug-In . SVG Version: 6.00 Build 0)  -->
<svg version="1.1" id="Layer_1" xmlns="http://www.w3.org/2000/svg" xmlns:xlink="http://www.w3.org/1999/xlink" x="0px" y="0px"
	 viewBox="-683 684.3 50 50" style="enable-background:new -683 684.3 50 50;" xml:space="preserve">
<g id="surface1">
	<path class="st0" d="M-663.7,686.5c-0.1,0-0.2,0-0.3,0.1c-0.8,0.1-1.4,0.7-1.6,1.4c-0.2,0.7,0,1.5,0.6,2.1l18.8,18.8l-18.8,18.8
		c-0.8,0.8-0.8,2.1,0,2.9s2.1,0.8,2.9,0l20.2-20.2c0.4-0.4,0.6-0.9,0.6-1.5s-0.2-1.1-0.6-1.5l-20.2-20.2
		C-662.5,686.6-663.1,686.4-663.7,686.5z"/>
</g>
         <style>
        .st0{fill:url(#SVGID_1_);}
    </style>
<linearGradient id="SVGID_1_" gradientUnits="userSpaceOnUse" x1="-616.2086" y1="709.6216" x2="-591.9714" y2="709.6216">
	<stop  offset="0" style="stop-color:#B2725E"/>
	<stop  offset="1" style="stop-color:#D79888"/>
</linearGradient>
</svg>
