<svg viewBox="0 0 100 100" style="enable-background:new 0 0 100 100;" xml:space="preserve">
<style type="text/css">
	.st0{display:none;}
	.st1{display:inline;stroke:#FFFFFF;stroke-width:6.6389;stroke-linecap:round;stroke-linejoin:round;stroke-miterlimit:10;}
	.st2{fill:#FFC91A;}
	.st3{fill:#FFFFFF;}
	.st4{opacity:0.1;}
</style>
<g id="Layer_1">
	<g id="XMLID_30_">
		<g id="XMLID_31_">
			<g id="XMLID_81_">
				<g id="XMLID_86_">
					<path id="XMLID_29_" class="st2" d="M35,58.5c-0.4,0-0.7-0.2-1-0.5l-8.7-14.1c-0.3-0.5-0.2-1.2,0.4-1.6
						c0.5-0.3,1.2-0.2,1.6,0.4l8.7,14.1c0.3,0.5,0.2,1.2-0.4,1.6C35.4,58.4,35.2,58.5,35,58.5z"/>
				</g>
				<g id="XMLID_84_">
					<path id="XMLID_28_" class="st2" d="M63.7,58.6c-0.2,0-0.4,0-0.6-0.1c-0.5-0.3-0.7-1-0.4-1.5L71,42.5c0.3-0.5,1-0.7,1.5-0.4
						c0.5,0.3,0.7,1,0.4,1.5l-8.3,14.4C64.5,58.4,64.1,58.6,63.7,58.6z"/>
				</g>
				<g id="XMLID_82_">
					<path id="XMLID_27_" class="st2" d="M28.9,48c-0.6,0-1.1-0.4-1.1-1c0-0.6,0.5-1,1.1-1h2.8l0.7-3.9l3.8,0.7l1.5-3.6l3.6,1.5
						l2.1-3.3l3.2,2.2l2.7-2.8l2.7,2.8l3.2-2.2l2.1,3.3l3.6-1.5l1.5,3.6l3.8-0.8l0.7,3.8l2.7,0c0.6,0,1.1,0.5,1.1,1.1
						c0,0.6-0.5,1.1-1.1,1.1l-4.6,0l-0.6-3.4l-3.4,0.7l-1.3-3.2l-3.2,1.4l-1.9-2.9l-2.9,2L49.4,40l-2.5,2.5l-2.9-2l-1.9,2.9
						l-3.2-1.3l-1.3,3.2l-3.4-0.7L33.5,48H28.9z"/>
				</g>
			</g>
			<g id="XMLID_37_">
				<g id="XMLID_38_">
					<g id="XMLID_60_">
						<g id="XMLID_77_">
							<path id="XMLID_78_" class="st3" d="M55.4,47.8c3.3,0,6,2.7,6,6c0,0.2,0,0.4,0,0.6c0.4-0.1,0.8-0.2,1.2-0.2
								c2.4,0,4.4,2,4.4,4.4c0,1.2-0.5,2.3-1.3,3.1c2.8,1.2,4.8,4,4.8,7.2c0,2.8-1.5,5.3-3.7,6.7c0.4,0.8,0.7,1.8,0.7,2.8
								c0,3.3-2.7,6-6,6c-0.2,0-0.3,0-0.5,0c0,0.3,0.1,0.6,0.1,0.9c0,3.3-2.7,6-6,6c-2,0-3.8-1-4.9-2.5V51
								C51.1,49.1,53.1,47.8,55.4,47.8 M55.4,46.4c-2.8,0-5.3,1.5-6.5,4l-0.2,0.3V51v38v0.4l0.3,0.4c1.4,1.9,3.6,3,6,3
								c3.9,0,7.2-3.1,7.4-7c3.6-0.5,6.5-3.6,6.5-7.3c0-0.8-0.1-1.6-0.4-2.3c2.1-1.7,3.4-4.3,3.4-7.1c0-3.1-1.6-6-4.1-7.7
								c0.4-0.8,0.7-1.7,0.7-2.7c0-3.1-2.5-5.7-5.6-5.8C62.3,49.2,59.2,46.4,55.4,46.4L55.4,46.4z"/>
						</g>
						<g id="XMLID_75_">
							<path id="XMLID_26_" class="st3" d="M63.5,77.5c-0.5,0-1-0.4-1-1c0-0.5,0.4-1,1-1c3.3,0,6-2.7,6-6c0-3.3-2.7-6-6-6
								c-0.5,0-1-0.4-1-1c0-0.5,0.4-1,1-1c4.4,0,8,3.6,8,8C71.5,73.9,68,77.5,63.5,77.5z"/>
						</g>
						<g id="XMLID_73_">
							<path id="XMLID_25_" class="st3" d="M53.1,67.2c0,0-0.1,0-0.1,0c-0.5-0.1-0.9-0.6-0.9-1.1c0.1-1-0.1-1.9-0.7-2.7
								C50.8,62.5,50,62,49,61.9c-0.5-0.1-0.9-0.6-0.9-1.1c0.1-0.5,0.6-0.9,1.1-0.9c1.5,0.2,2.8,1,3.7,2.2c0.9,1.2,1.3,2.7,1.1,4.2
								C54,66.8,53.6,67.2,53.1,67.2z"/>
						</g>
						<g id="XMLID_71_">
							<path id="XMLID_24_" class="st3" d="M54.5,92.3c-0.9,0-1.7-0.1-2.5-0.4c-1.9-0.7-3.4-2.1-4.3-3.9c-0.2-0.5,0-1,0.4-1.2
								c0.5-0.2,1,0,1.2,0.4c0.6,1.4,1.8,2.4,3.2,2.9c1.4,0.5,3,0.4,4.3-0.2c2.8-1.3,4-4.7,2.7-7.5c-0.2-0.5,0-1,0.4-1.2
								c0.5-0.2,1,0,1.2,0.4c1.8,3.8,0.2,8.2-3.6,10C56.7,92,55.6,92.3,54.5,92.3z"/>
						</g>
						<g id="XMLID_69_">
							<path id="XMLID_23_" class="st3" d="M53.1,80.4c-0.4,0-0.9,0-1.3-0.1c-2-0.4-3.7-1.5-4.8-3.1c-0.3-0.4-0.2-1,0.2-1.3
								c0.4-0.3,1-0.2,1.3,0.2c0.9,1.2,2.2,2.1,3.6,2.3c1.5,0.3,3-0.1,4.2-0.9c0.4-0.3,1-0.2,1.3,0.2c0.3,0.4,0.2,1-0.2,1.3
								C56.1,80,54.6,80.4,53.1,80.4z"/>
						</g>
						<g id="XMLID_67_">
							<path id="XMLID_22_" class="st3" d="M61.1,56.4c-0.1,0-0.2,0-0.3,0c-0.5-0.1-0.7-0.6-0.6-1.1c0.8-2.8-0.7-5.7-3.5-6.6
								c-2.8-0.8-5.7,0.7-6.6,3.5c-0.1,0.5-0.6,0.7-1.1,0.6c-0.5-0.1-0.7-0.6-0.6-1.1c1.1-3.7,5-5.8,8.7-4.7
								c1.8,0.5,3.3,1.7,4.1,3.4c0.9,1.6,1.1,3.5,0.5,5.3C61.8,56.2,61.5,56.4,61.1,56.4z"/>
						</g>
						<g id="XMLID_65_">
							<path id="XMLID_21_" class="st3" d="M65.6,76.8c-0.2,0-0.3,0-0.4-0.1c-0.1-0.1-2.7-1.4-2.6-4.7c0-0.5,0.5-1,1-1
								c0.5,0,1,0.5,1,1c-0.1,2.1,1.5,2.9,1.5,2.9c0.5,0.2,0.7,0.8,0.4,1.3C66.3,76.6,66,76.8,65.6,76.8z"/>
						</g>
						<g id="XMLID_63_">
							<path id="XMLID_20_" class="st3" d="M57.4,65.1c-0.3,0-0.6-0.1-0.8-0.4c-1.2-1.6-3.5-0.5-3.5-0.5c-0.5,0.2-1.1,0.1-1.3-0.4
								c-0.2-0.5-0.1-1.1,0.4-1.3c1.3-0.7,4.2-1.3,6,1.1c0.3,0.4,0.2,1.1-0.2,1.4C57.8,65.1,57.6,65.1,57.4,65.1z"/>
						</g>
						<g id="XMLID_61_">
							<path id="XMLID_19_" class="st3" d="M53.1,80.3c-0.2,0-0.5-0.1-0.7-0.3c-0.4-0.4-0.4-1,0-1.3c1.1-1.1,1.6-2.2,1.5-3.1
								c-0.1-0.5,0.3-1,0.8-1.1c0.5-0.1,1,0.3,1.1,0.8c0.2,1.5-0.5,3.1-2,4.6C53.6,80.2,53.4,80.3,53.1,80.3z"/>
						</g>
					</g>
					<g id="XMLID_39_">
						<g id="XMLID_56_">
							<path id="XMLID_57_" class="st3" d="M43.3,47.8c2.3,0,4.3,1.3,5.3,3.2v38c-1.1,1.5-2.9,2.5-4.9,2.5c-3.3,0-6-2.7-6-6
								c0-0.3,0-0.6,0.1-0.9c-0.2,0-0.3,0-0.5,0c-3.3,0-6-2.7-6-6c0-1,0.2-2,0.7-2.8c-2.2-1.4-3.7-3.9-3.7-6.7c0-3.3,2-6,4.8-7.2
								c-0.8-0.8-1.3-1.9-1.3-3.1c0-2.4,2-4.4,4.4-4.4c0.4,0,0.8,0.1,1.2,0.2c0-0.2,0-0.4,0-0.6C37.3,50.5,40,47.8,43.3,47.8
								 M43.3,46.4c-3.8,0-6.9,2.8-7.3,6.5c-3.1,0.1-5.6,2.7-5.6,5.8c0,1,0.2,1.9,0.7,2.7c-2.5,1.7-4.1,4.6-4.1,7.7
								c0,2.8,1.2,5.4,3.4,7.1c-0.2,0.7-0.4,1.5-0.4,2.3c0,3.8,2.8,6.9,6.5,7.3c0.2,3.9,3.4,7,7.4,7c2.4,0,4.6-1.1,6-3l0.3-0.4V89
								V51v-0.3l-0.2-0.3C48.6,47.9,46.1,46.4,43.3,46.4L43.3,46.4z"/>
						</g>
						<g id="XMLID_54_">
							<path id="XMLID_18_" class="st3" d="M35.2,77.5c-4.4,0-8-3.6-8-8c0-4.4,3.6-8,8-8c0.5,0,1,0.4,1,1c0,0.5-0.4,1-1,1
								c-3.3,0-6,2.7-6,6c0,3.3,2.7,6,6,6c0.5,0,1,0.4,1,1C36.2,77,35.8,77.5,35.2,77.5z"/>
						</g>
						<g id="XMLID_52_">
							<path id="XMLID_17_" class="st3" d="M47.5,69.8c-2,0-4-1.1-5-3c-0.3-0.5-0.1-1.1,0.4-1.3c0.5-0.3,1.1-0.1,1.3,0.4
								c0.8,1.6,2.9,2.3,4.6,1.7c0.5-0.2,1.1,0.1,1.3,0.6c0.2,0.5-0.1,1.1-0.6,1.3C48.8,69.6,48.1,69.8,47.5,69.8z"/>
						</g>
						<g id="XMLID_50_">
							<path id="XMLID_16_" class="st3" d="M44.3,92.3c-1.1,0-2.2-0.2-3.2-0.7c-3.8-1.8-5.4-6.3-3.6-10c0.2-0.5,0.8-0.7,1.2-0.4
								c0.5,0.2,0.7,0.8,0.4,1.2c-1.3,2.8-0.1,6.2,2.7,7.5c2.4,1.1,5.2,0.5,6.8-1.6c0.3-0.4,0.9-0.5,1.3-0.2
								c0.4,0.3,0.5,0.9,0.2,1.3C48.7,91.3,46.5,92.3,44.3,92.3z"/>
						</g>
						<g id="XMLID_48_">
							<path id="XMLID_15_" class="st3" d="M37.7,56.4c-0.4,0-0.7-0.2-0.8-0.6c-1.1-3.7,1-7.6,4.7-8.7c1.8-0.5,3.7-0.4,5.3,0.5
								c1.6,0.9,2.9,2.4,3.4,4.1c0.1,0.5-0.1,0.9-0.6,1.1c-0.5,0.1-0.9-0.1-1.1-0.6c-0.4-1.3-1.3-2.4-2.6-3.1
								c-1.2-0.7-2.7-0.8-4-0.4c-2.8,0.8-4.3,3.8-3.5,6.6c0.1,0.5-0.1,0.9-0.6,1.1C37.8,56.4,37.7,56.4,37.7,56.4z"/>
						</g>
						<g id="XMLID_46_">
							<path id="XMLID_14_" class="st3" d="M33.2,76.8c-0.4,0-0.7-0.2-0.9-0.5c-0.2-0.5-0.1-1.1,0.4-1.3c0.1,0,1.5-0.9,1.5-2.9
								c0-0.6,0.4-1,1-1c0.5,0,1,0.4,1,1c0.1,3.4-2.5,4.7-2.6,4.7C33.5,76.7,33.3,76.8,33.2,76.8z"/>
						</g>
						<g id="XMLID_44_">
							<path id="XMLID_13_" class="st3" d="M42,71.6c-0.4,0-0.8-0.1-1.2-0.2c-0.5-0.2-0.8-0.7-0.7-1.2c0.2-0.5,0.7-0.8,1.2-0.7
								c2,0.6,3.1-1.6,3.1-1.7c0.2-0.5,0.9-0.7,1.3-0.4c0.5,0.2,0.7,0.8,0.4,1.3C45.6,69.9,44.1,71.6,42,71.6z"/>
						</g>
						<g id="XMLID_42_">
							<path id="XMLID_12_" class="st3" d="M47.5,57.8c-1.5,0-3.3-0.6-4.5-2.8c-0.3-0.5-0.1-1.1,0.4-1.3c0.5-0.3,1.1-0.1,1.3,0.4
								c1.3,2.4,3.7,1.6,3.8,1.5c0.5-0.2,1.1,0.1,1.3,0.6c0.2,0.5-0.1,1.1-0.6,1.3C48.8,57.7,48.2,57.8,47.5,57.8z"/>
						</g>
						<g id="XMLID_40_">
							<path id="XMLID_11_" class="st3" d="M46.5,84.5c-0.2,0-0.4-0.1-0.5-0.2c-0.5-0.3-0.6-0.9-0.3-1.4c1.1-1.7,2.6-1.9,3.4-1.7
								l-0.3,2l0,0c-0.1,0-0.8-0.1-1.4,0.9C47.2,84.3,46.9,84.5,46.5,84.5z"/>
						</g>
					</g>
				</g>
			</g>
			<g id="XMLID_2_">
				<path id="XMLID_33_" class="st3" d="M50.7,26L50.7,26 M50.6,25.8L49.4,33h4.4L48,42.6l0.8-7.6H45L50.6,25.8 M50.6,24
					c-0.1,0-0.1,0-0.2,0c-0.3,0-0.7,0.2-0.9,0.3c-0.2,0.1-0.3,0.3-0.5,0.4c-0.1,0.1-0.1,0.1-0.1,0.2l-5.6,9.3
					c-0.4,0.6-0.4,1.2,0,1.9c0.4,0.6,1,0.9,1.7,0.9h1.6L46,42.4c-0.1,0.9,0.5,1.9,1.4,2.2c0.2,0.1,0.4,0.1,0.6,0.1
					c0.7,0,1.4-0.3,1.7-1l5.7-9.7c0.4-0.6,0.4-1.4,0-2c-0.4-0.6-1-1-1.7-1h-2l0.8-4.6c0-0.1,0-0.3,0-0.4c0-1-0.8-1.9-1.8-2
					C50.7,24,50.7,24,50.6,24L50.6,24z"/>
			</g>
		</g>
	</g>
	<g id="XMLID_32_" class="st4">
		<path id="XMLID_34_" class="st3" d="M43.8,63.8c-2.2,2.1-5.3,3.3-8.8,3.3s-6.7-1.2-8.8-3.3s-3.5-4.7-3.5-9.1V23.1
			c0-4.4,1.3-7.1,3.5-9.1c2.2-2.1,5.4-3.3,8.8-3.3s6.6,1.2,8.8,3.3c2.2,2.1,3.5,4.7,3.5,9.1v31.6C47.2,59.1,45.9,61.7,43.8,63.8z
			 M39,22.8c0-3.2-1.8-4.7-4-4.7c-2.2,0-4.1,1.5-4.1,4.7V55c0,3.2,1.9,4.7,4.1,4.7c2.2,0,4-1.5,4-4.7V22.8z"/>
		<path id="XMLID_41_" class="st3" d="M54.1,66.5v-7l13.8-26.8c1.2-2.3,2.2-5.8,2.2-9.8c0-3.2-1.7-4.8-4-4.8s-4.1,1.5-4.1,4.7v3.6
			h-8.2v-3.3c0-4.4,1.2-7.1,3.4-9.1c2.2-2.1,5.6-3.3,8.9-3.3s6.3,0.9,8.5,2.9c2.2,2,3.6,5.1,3.6,9.5c0,4-1.2,8.7-3,12.1L62.9,59.1
			h15.5v7.4H54.1z"/>
	</g>
</g>
</svg>
