<?xml version="1.0" encoding="utf-8"?>
<!-- Generator: Adobe Illustrator 19.0.0, SVG Export Plug-In . SVG Version: 6.00 Build 0)  -->
<svg version="1.1" id="Layer_1" xmlns="http://www.w3.org/2000/svg" xmlns:xlink="http://www.w3.org/1999/xlink" x="0px" y="0px"
	 viewBox="-692 693.3 32 32" style="enable-background:new -692 693.3 32 32;" xml:space="preserve">
<style type="text/css">
	.st0{fill:#75C144;}
</style>
<g id="surface1">
	<path class="st0" d="M-676.5,700.2c-3.6,0-6.6,2.9-6.6,6.6s2.9,6.6,6.6,6.6s6.6-2.9,6.6-6.6S-672.8,700.2-676.5,700.2z
		 M-676.5,701.2c3.1,0,5.6,2.5,5.6,5.6s-2.5,5.6-5.6,5.6s-5.6-2.5-5.6-5.6S-679.5,701.2-676.5,701.2z M-673.3,704.4l-3.7,3.7
		l-2.2-2.2l-0.7,0.7l2.5,2.5l0.4,0.3l0.4-0.3l4-4L-673.3,704.4z"/>
</g>
</svg>
