<?xml version="1.0" encoding="utf-8"?>
<!-- Generator: Adobe Illustrator 19.0.0, SVG Export Plug-In . SVG Version: 6.00 Build 0)  -->
<svg version="1.1" id="Layer_1" xmlns="http://www.w3.org/2000/svg" xmlns:xlink="http://www.w3.org/1999/xlink" x="0px" y="0px"
	 viewBox="0 0 100 100" style="enable-background:new 0 0 100 100;" xml:space="preserve">
<path d="M44.8,68.4V43.3c-1.7-11.7-8.3-16.1-13.6-17.7l1.5-4.8c6.7,2,15,7.5,17.1,22c0,0.3,0,25.4,0,25.6H44.8z M63.8,81.6v5.6
	c0,1.4-1.1,2.5-2.5,2.5H14c-1.4,0-2.5-1.1-2.5-2.5v-5.6c0-4,3-8.2,8.8-8.2c0.5-8.1,3.2-13.5,7.8-19.9c3.1-4.4,2.7-5.8,2.7-5.8
	c-0.2-0.3-0.4-0.5-0.6-0.6c-3.6,2.6-8,2.5-12.2-1.6l-4.3,0.9c-4,0.9-7.9-1.3-9.5-5.3l4.6-1.9c2.3,5.8,9.3-1.2,12,1.9
	c6.3,7.5,7.1-4.2,13.7,3.2c3.4,3.8-1,10-2.4,12c-4,5.7-6.4,10.3-6.8,17h27V42.6c-2.9-22.5-19.3-25.9-25.5-26.4c0,8.2,1.1,6-5.5,11.1
	c-1.2,5.3,0.7,3-12.6,11L6.2,34l9.9-5.9c1-4.4,0-3,5.8-7.5v-7c0-1.3,1-2.4,2.4-2.5c0.3,0,29-1.2,33.1,31c0,0.2,0,31.2,0,31.4
	C61,74.4,63.8,77.6,63.8,81.6z M58.8,81.6c0-1.8-1.4-3.2-3.2-3.2H19.7c-1.8,0-3.2,1.4-3.2,3.2v3.1h42.3V81.6z M52.7,24.9
	c0,1.4,1.1,2.5,2.5,2.5c10.7,0,9.4,1.1,9.4-8.9h4.5c0,10.8-1.4,9.3,10.5,9.3c1.4,0,2.5-1.1,2.5-2.5v-6.4h2.7v12.3H61.3v5h26
	c1.4,0,2.5-1.1,2.5-2.5V16.4c0-1.4-1.1-2.5-2.5-2.5h-7.7c-1.4,0-2.5,1.1-2.5,2.5v6.4h-3V16c0-1.4-1.1-2.5-2.5-2.5
	c-13.7,0-12-1.4-12,8.9h-1.9c0-10.3,1.2-8.9-10.3-8.9v5h5.3V24.9z M80.5,71.2l4.8-1.4C85.2,69.6,80,52,80,39.9h-5
	C75,52.8,80.3,70.5,80.5,71.2z M90.2,73.9H67.1v5h23c0.9,0.8,0.7,3.5,0.7,5.2H67.1v5h26.1c1.4,0,2.5-1.1,2.5-2.5v-5.5
	C95.7,77,93.3,73.9,90.2,73.9z"/>
</svg>
