<?xml version="1.0" encoding="utf-8"?>
<!-- Generator: Adobe Illustrator 19.0.0, SVG Export Plug-In . SVG Version: 6.00 Build 0)  -->
<svg version="1.1" xmlns="http://www.w3.org/2000/svg" xmlns:xlink="http://www.w3.org/1999/xlink" x="0px" y="0px"
	 viewBox="0 0 100 100" style="enable-background:new 0 0 100 100;" xml:space="preserve">
<style type="text/css">
	.st0{display:none;}
	.st1{display:inline;stroke:#FFFFFF;stroke-width:6.6389;stroke-linecap:round;stroke-linejoin:round;stroke-miterlimit:10;}
	.st2{opacity:0.1;}
	.st3{fill:#FFFFFF;}
	.st4{fill:#FED402;}
</style>
<g id="Layer_2" class="st0">
	<rect id="XMLID_1_" x="0" y="0" class="st1" width="100" height="100"/>
</g>
<g id="Layer_1">
	<g id="XMLID_6_" class="st2">
		<path id="XMLID_8_" class="st3" d="M74.3,56.2v8.4h-8v-8.4h-15V49l13.8-38.2h7.8L59.5,49h6.7v-9.6h8V49H78v7.2H74.3z"/>
	</g>
	<g id="XMLID_2_" class="st2">
		<path id="XMLID_17_" class="st3" d="M43.8,63.8c-2.2,2.1-5.3,3.3-8.8,3.3s-6.7-1.2-8.8-3.3s-3.5-4.7-3.5-9.1V23.1
			c0-4.4,1.3-7.1,3.5-9.1c2.2-2.1,5.4-3.3,8.8-3.3s6.6,1.2,8.8,3.3c2.2,2.1,3.5,4.7,3.5,9.1v31.6C47.2,59.1,45.9,61.7,43.8,63.8z
			 M39,22.8c0-3.2-1.8-4.7-4-4.7c-2.2,0-4.1,1.5-4.1,4.7V55c0,3.2,1.9,4.7,4.1,4.7c2.2,0,4-1.5,4-4.7V22.8z"/>
	</g>
	<g id="XMLID_4_">
		<g id="XMLID_91_">
			<path id="XMLID_56_" class="st4" d="M50.8,77.3c-7.5,0-13.6-6.1-13.6-13.6S43.3,50,50.8,50s13.6,6.1,13.6,13.6
				S58.3,77.3,50.8,77.3z M50.8,51.3c-6.8,0-12.3,5.5-12.3,12.3S44,76,50.8,76s12.3-5.5,12.3-12.3S57.6,51.3,50.8,51.3z"/>
		</g>
		<g id="XMLID_87_">
			<path id="XMLID_53_" class="st4" d="M50.8,74.6c-6,0-10.9-4.9-10.9-10.9c0-6,4.9-10.9,10.9-10.9s10.9,4.9,10.9,10.9
				C61.7,69.7,56.8,74.6,50.8,74.6z M50.8,54.1c-5.3,0-9.6,4.3-9.6,9.6c0,5.3,4.3,9.6,9.6,9.6s9.6-4.3,9.6-9.6
				C60.4,58.4,56.1,54.1,50.8,54.1z"/>
		</g>
		<g id="XMLID_83_">
			<path id="XMLID_50_" class="st3" d="M50.8,67.4c-2.1,0-3.7-1.7-3.7-3.7s1.7-3.7,3.7-3.7s3.7,1.7,3.7,3.7S52.8,67.4,50.8,67.4z
				 M50.8,61.2c-1.3,0-2.4,1.1-2.4,2.4c0,1.3,1.1,2.4,2.4,2.4s2.4-1.1,2.4-2.4C53.2,62.3,52.1,61.2,50.8,61.2z"/>
		</g>
		<g id="XMLID_79_">
			<path id="XMLID_47_" class="st3" d="M50.8,89.7c-14.4,0-26.1-11.7-26.1-26.1s11.7-26.1,26.1-26.1s26.1,11.7,26.1,26.1
				S65.2,89.7,50.8,89.7z M50.8,38.9C37.1,38.9,26,50,26,63.7s11.1,24.8,24.8,24.8s24.8-11.1,24.8-24.8S64.4,38.9,50.8,38.9z"/>
		</g>
		<g id="XMLID_77_">
			<path id="XMLID_46_" class="st3" d="M50.8,85c-0.4,0-0.6-0.3-0.6-0.6s0.3-0.6,0.6-0.6c2.7,0,5.2-0.5,7.7-1.5
				c0.3-0.1,0.7,0,0.8,0.3s0,0.7-0.3,0.8C56.4,84.4,53.6,85,50.8,85z"/>
		</g>
		<g id="XMLID_75_">
			<path id="XMLID_45_" class="st3" d="M61.6,81.9c-0.2,0-0.4-0.1-0.6-0.3c-0.2-0.3-0.1-0.7,0.2-0.9c2.2-1.4,4.2-3.2,5.7-5.3
				c0.2-0.3,0.6-0.4,0.9-0.1c0.3,0.2,0.4,0.6,0.1,0.9c-1.6,2.3-3.7,4.2-6.1,5.6C61.9,81.9,61.7,81.9,61.6,81.9z"/>
		</g>
		<g id="XMLID_73_">
			<path id="XMLID_44_" class="st3" d="M69.9,72.2c-0.1,0-0.2,0-0.2,0c-0.3-0.1-0.5-0.5-0.4-0.8c1-2.4,1.5-5,1.5-7.6
				c0-0.4,0.3-0.6,0.6-0.6c0.4,0,0.6,0.3,0.6,0.6c0,2.8-0.5,5.5-1.6,8.1C70.4,72,70.2,72.2,69.9,72.2z"/>
		</g>
		<g id="XMLID_71_">
			<path id="XMLID_43_" class="st3" d="M70.7,58.9c-0.3,0-0.5-0.2-0.6-0.5c-0.4-1.3-0.8-2.6-1.5-3.8c-0.2-0.3,0-0.7,0.3-0.9
				c0.3-0.2,0.7,0,0.9,0.3c0.7,1.3,1.2,2.6,1.5,4c0.1,0.3-0.1,0.7-0.5,0.8C70.9,58.9,70.8,58.9,70.7,58.9z"/>
		</g>
		<g id="XMLID_69_">
			<path id="XMLID_42_" class="st3" d="M64.4,48.7c-0.2,0-0.3-0.1-0.4-0.2c-1-0.9-2.2-1.7-3.4-2.4c-3-1.7-6.4-2.5-9.8-2.5
				c-0.4,0-0.6-0.3-0.6-0.6c0-0.4,0.3-0.6,0.6-0.6c3.6,0,7.3,0.9,10.4,2.7c1.3,0.7,2.5,1.6,3.6,2.6c0.3,0.2,0.3,0.6,0.1,0.9
				C64.7,48.7,64.6,48.7,64.4,48.7z"/>
		</g>
		<g id="XMLID_67_">
			<path id="XMLID_41_" class="st3" d="M41,46.1c-0.2,0-0.5-0.1-0.6-0.3c-0.2-0.3-0.1-0.7,0.3-0.9c1.3-0.7,2.7-1.3,4.1-1.7
				c0.3-0.1,0.7,0.1,0.8,0.4c0.1,0.3-0.1,0.7-0.4,0.8c-1.3,0.4-2.6,0.9-3.8,1.6C41.2,46.1,41.1,46.1,41,46.1z"/>
		</g>
		<g id="XMLID_65_">
			<path id="XMLID_40_" class="st3" d="M30.4,60.6c0,0-0.1,0-0.1,0c-0.4-0.1-0.6-0.4-0.5-0.8c0.8-4.1,2.7-7.9,5.6-10.9
				c0.2-0.3,0.7-0.3,0.9,0c0.3,0.2,0.3,0.7,0,0.9c-2.7,2.8-4.6,6.4-5.3,10.3C31,60.4,30.7,60.6,30.4,60.6z"/>
		</g>
		<g id="XMLID_63_">
			<path id="XMLID_39_" class="st3" d="M34.1,76.5c-0.2,0-0.4-0.1-0.5-0.3c-1.4-1.9-2.5-4.1-3.2-6.4c-0.6-2-0.9-4.1-0.9-6.2
				c0-0.4,0.3-0.6,0.6-0.6s0.6,0.3,0.6,0.6c0,2,0.3,4,0.9,5.8c0.7,2.2,1.7,4.2,3,6c0.2,0.3,0.1,0.7-0.1,0.9
				C34.4,76.5,34.2,76.5,34.1,76.5z"/>
		</g>
		<g id="XMLID_61_">
			<path id="XMLID_38_" class="st3" d="M49,84.9C49,84.9,49,84.9,49,84.9c-3.1-0.3-6-1.2-8.7-2.7c-0.3-0.2-0.4-0.6-0.2-0.9
				c0.2-0.3,0.6-0.4,0.9-0.2c2.5,1.4,5.2,2.2,8.1,2.5c0.4,0,0.6,0.3,0.6,0.7C49.6,84.7,49.3,84.9,49,84.9z"/>
		</g>
		<g id="XMLID_59_">
			<path id="XMLID_37_" class="st3" d="M47.1,48c-0.3,0-0.6-0.2-0.6-0.5c-0.1-0.3,0.1-0.7,0.5-0.8c1.3-0.3,2.6-0.4,3.9-0.4
				c0.4,0,0.6,0.3,0.6,0.6c0,0.4-0.3,0.6-0.6,0.6c-1.2,0-2.4,0.1-3.6,0.4C47.2,47.9,47.1,48,47.1,48z"/>
		</g>
		<g id="XMLID_26_">
			<path id="XMLID_36_" class="st3" d="M38.6,52.8c-0.2,0-0.3-0.1-0.4-0.2c-0.3-0.2-0.3-0.7,0-0.9c1.3-1.4,2.8-2.5,4.5-3.4
				c0.3-0.2,0.7,0,0.9,0.3c0.2,0.3,0,0.7-0.3,0.9c-1.6,0.8-3,1.9-4.2,3.2C38.9,52.7,38.8,52.8,38.6,52.8z"/>
		</g>
		<g id="XMLID_22_">
			<path id="XMLID_35_" class="st3" d="M34,64.3c-0.4,0-0.6-0.3-0.6-0.6c0-2.8,0.6-5.5,1.9-7.9c0.2-0.3,0.6-0.4,0.9-0.3
				c0.3,0.2,0.4,0.6,0.3,0.9c-1.2,2.3-1.8,4.8-1.8,7.3C34.6,64,34.4,64.3,34,64.3z"/>
		</g>
		<g id="XMLID_18_">
			<path id="XMLID_34_" class="st3" d="M37.4,74.5c-0.2,0-0.4-0.1-0.5-0.3c-1.4-1.9-2.4-4-3-6.2c-0.1-0.3,0.1-0.7,0.5-0.8
				c0.3-0.1,0.7,0.1,0.8,0.5c0.5,2.1,1.5,4,2.8,5.8c0.2,0.3,0.2,0.7-0.1,0.9C37.7,74.4,37.6,74.5,37.4,74.5z"/>
		</g>
		<g id="XMLID_15_">
			<path id="XMLID_33_" class="st3" d="M45.5,80.3c-0.1,0-0.1,0-0.2,0c-1.8-0.6-3.6-1.5-5.1-2.7c-0.3-0.2-0.3-0.6-0.1-0.9
				c0.2-0.3,0.6-0.3,0.9-0.1c1.4,1.1,3,1.9,4.7,2.5c0.3,0.1,0.5,0.5,0.4,0.8C46.1,80.1,45.8,80.3,45.5,80.3z"/>
		</g>
		<g id="XMLID_13_">
			<path id="XMLID_32_" class="st3" d="M50.8,81.1c-0.4,0-0.6-0.3-0.6-0.6c0-0.4,0.3-0.6,0.6-0.6c0.7,0,1.4,0,2.1-0.1
				c0.4,0,0.7,0.2,0.7,0.6c0,0.4-0.2,0.7-0.6,0.7C52.3,81,51.5,81.1,50.8,81.1z"/>
		</g>
		<g id="XMLID_11_">
			<path id="XMLID_31_" class="st3" d="M58.7,79.1c-0.2,0-0.5-0.1-0.6-0.3c-0.2-0.3-0.1-0.7,0.3-0.9c1.8-1,3.3-2.2,4.6-3.8
				c0.2-0.3,0.6-0.3,0.9-0.1c0.3,0.2,0.3,0.6,0.1,0.9c-1.4,1.7-3.1,3-5,4.1C58.9,79.1,58.8,79.1,58.7,79.1z"/>
		</g>
		<g id="XMLID_9_">
			<path id="XMLID_29_" class="st3" d="M66.5,70.1c-0.1,0-0.1,0-0.2,0c-0.3-0.1-0.5-0.5-0.4-0.8c0.6-1.8,1-3.6,1-5.5
				c0-0.4,0.3-0.6,0.6-0.6s0.6,0.3,0.6,0.6c0,2.1-0.4,4.1-1.1,6C67.1,69.9,66.8,70.1,66.5,70.1z"/>
		</g>
		<g id="XMLID_7_">
			<path id="XMLID_28_" class="st3" d="M67.2,60.9c-0.3,0-0.6-0.2-0.6-0.5c-0.3-1.5-0.9-3-1.6-4.4c-0.2-0.3-0.1-0.7,0.3-0.9
				c0.3-0.2,0.7-0.1,0.9,0.3c0.8,1.5,1.4,3.1,1.7,4.8c0.1,0.4-0.2,0.7-0.5,0.8C67.3,60.9,67.3,60.9,67.2,60.9z"/>
		</g>
		<g id="XMLID_5_">
			<path id="XMLID_27_" class="st3" d="M61.3,51.3c-0.1,0-0.3,0-0.4-0.1c-1.3-1.1-2.8-1.9-4.4-2.5c-0.3-0.1-0.5-0.5-0.4-0.8
				c0.1-0.3,0.5-0.5,0.8-0.4c1.7,0.7,3.3,1.6,4.7,2.7c0.3,0.2,0.3,0.6,0.1,0.9C61.7,51.2,61.5,51.3,61.3,51.3z"/>
		</g>
	</g>
</g>
</svg>
