<?xml version="1.0" encoding="utf-8"?>
<!-- Generator: Adobe Illustrator 19.0.0, SVG Export Plug-In . SVG Version: 6.00 Build 0)  -->
<svg version="1.1" id="Layer_1" xmlns="http://www.w3.org/2000/svg" xmlns:xlink="http://www.w3.org/1999/xlink" x="0px" y="0px"
	 viewBox="0 0 100 100" style="enable-background:new 0 0 100 100;" xml:space="preserve">
<g>
	<path d="M24,90v5h75.1L83.4,67.7c3.8-2.9,5.6-4.9,7.4-6.7C85,55.3,78.9,50.9,72.2,47.6C48,5.9,72.7,47.7,50.1,8.9L27.7,47.8
		C20.2,51.5,14.5,56,9.5,61c2.4,2.4,3.9,4.1,7.3,6.6L1.2,95H17v-5H9.8l11.1-19.5c19.2,12.6,38.7,13,58.4,0.1L90.4,90H24z M50.2,18.9
		c10.4,17.9,0.5,1.5,14.5,25.6c-10-3.3-19.2-3.3-29.3,0.1L50.2,18.9z M16.8,61c21.8-18.6,44.9-18.6,66.7,0C61,80.2,37.8,79,16.8,61z
		"/>
	<path d="M50.1,67.4c-6.3,0-11.4-5.4-11.4-11.4h-5c0,9,7.4,16.4,16.4,16.4c9.1,0,16.4-7.4,16.4-16.4h-5C61.6,62,56.4,67.4,50.1,67.4
		z"/>
	<path d="M49.9,62c3.3,0,6.1-2.7,6.1-6.1c0-3.3-2.7-6.1-6.1-6.1c-3.3,0-6.1,2.7-6.1,6.1C43.9,59.3,46.6,62,49.9,62z"/>
</g>
</svg>
