<svg xmlns="http://www.w3.org/2000/svg" viewBox="0 0 80 80">
    <path d="M 35 0 L 35.005859 7.3769531 C 30.992536 7.9915658 27.088489 9.3453581 23.46875 11.441406 C 15.84075 15.859406 10.389141 22.983 8.1191406 31.5 C 4.9751406 43.3 8.668 55.340391 16.75 63.400391 C 20.712 67.351391 25.727766 70.345719 31.509766 71.886719 C 40.026766 74.156719 48.918875 72.973687 56.546875 68.554688 C 64.173875 64.136688 69.624531 57.014094 71.894531 48.496094 C 75.125531 36.372094 71.137938 23.996359 62.585938 15.943359 L 61.164062 17.367188 C 61.395063 17.583188 61.632469 17.793625 61.855469 18.015625 C 69.447469 25.586625 72.915891 36.897469 69.962891 47.980469 C 67.830891 55.982469 62.708922 62.673219 55.544922 66.824219 C 48.377922 70.974219 40.026391 72.085125 32.025391 69.953125 C 15.506391 65.550125 5.6517344 48.531625 10.052734 32.015625 C 12.184734 24.013625 17.306703 17.322875 24.470703 13.171875 C 27.780266 11.255578 31.343811 9.9967959 35.007812 9.3984375 L 35.013672 16 L 47.023438 8 L 35 0 z M 29.677734 14.054688 A 1 1 0 0 0 28.677734 15.054688 A 1 1 0 0 0 29.677734 16.054688 A 1 1 0 0 0 30.677734 15.054688 A 1 1 0 0 0 29.677734 14.054688 z M 25.009766 16.550781 A 1 1 0 0 0 24.009766 17.550781 A 1 1 0 0 0 25.009766 18.550781 A 1 1 0 0 0 26.009766 17.550781 A 1 1 0 0 0 25.009766 16.550781 z M 20.916016 19.908203 A 1 1 0 0 0 19.916016 20.908203 A 1 1 0 0 0 20.916016 21.908203 A 1 1 0 0 0 21.916016 20.908203 A 1 1 0 0 0 20.916016 19.908203 z M 59.099609 19.908203 A 1 1 0 0 0 58.099609 20.908203 A 1 1 0 0 0 59.099609 21.908203 A 1 1 0 0 0 60.099609 20.908203 A 1 1 0 0 0 59.099609 19.908203 z M 17.560547 24 A 1 1 0 0 0 16.560547 25 A 1 1 0 0 0 17.560547 26 A 1 1 0 0 0 18.560547 25 A 1 1 0 0 0 17.560547 24 z M 62.455078 24 A 1 1 0 0 0 61.455078 25 A 1 1 0 0 0 62.455078 26 A 1 1 0 0 0 63.455078 25 A 1 1 0 0 0 62.455078 24 z M 15.064453 28.667969 A 1 1 0 0 0 14.064453 29.667969 A 1 1 0 0 0 15.064453 30.667969 A 1 1 0 0 0 16.064453 29.667969 A 1 1 0 0 0 15.064453 28.667969 z M 64.951172 28.667969 A 1 1 0 0 0 63.951172 29.667969 A 1 1 0 0 0 64.951172 30.667969 A 1 1 0 0 0 65.951172 29.667969 A 1 1 0 0 0 64.951172 28.667969 z M 35.130859 31.505859 L 34.240234 41.185547 L 36.642578 41.185547 C 37.298578 40.096547 38.470828 39.451172 39.923828 39.451172 C 41.985828 39.451172 43.416016 40.892672 43.416016 43.013672 C 43.416016 45.122672 41.997672 46.517578 39.888672 46.517578 C 38.036672 46.517578 36.665797 45.428109 36.466797 43.787109 L 33.970703 43.787109 C 34.122703 46.751109 36.501234 48.826172 39.865234 48.826172 C 43.509234 48.826172 45.982422 46.447359 45.982422 42.943359 C 45.982422 39.615359 43.720766 37.271484 40.509766 37.271484 C 38.904766 37.271484 37.708547 37.810641 36.935547 38.806641 L 36.736328 38.806641 L 37.181641 33.849609 L 44.998047 33.849609 L 44.998047 31.505859 L 35.130859 31.505859 z M 13.527344 33.732422 A 1 1 0 0 0 12.527344 34.732422 A 1 1 0 0 0 13.527344 35.732422 A 1 1 0 0 0 14.527344 34.732422 A 1 1 0 0 0 13.527344 33.732422 z M 66.488281 33.732422 A 1 1 0 0 0 65.488281 34.732422 A 1 1 0 0 0 66.488281 35.732422 A 1 1 0 0 0 67.488281 34.732422 A 1 1 0 0 0 66.488281 33.732422 z M 13.007812 39 A 1 1 0 0 0 12.007812 40 A 1 1 0 0 0 13.007812 41 A 1 1 0 0 0 14.007812 40 A 1 1 0 0 0 13.007812 39 z M 67.007812 39 A 1 1 0 0 0 66.007812 40 A 1 1 0 0 0 67.007812 41 A 1 1 0 0 0 68.007812 40 A 1 1 0 0 0 67.007812 39 z M 13.527344 44.267578 A 1 1 0 0 0 12.527344 45.267578 A 1 1 0 0 0 13.527344 46.267578 A 1 1 0 0 0 14.527344 45.267578 A 1 1 0 0 0 13.527344 44.267578 z M 66.490234 44.267578 A 1 1 0 0 0 65.490234 45.267578 A 1 1 0 0 0 66.490234 46.267578 A 1 1 0 0 0 67.490234 45.267578 A 1 1 0 0 0 66.490234 44.267578 z M 15.064453 49.332031 A 1 1 0 0 0 14.064453 50.332031 A 1 1 0 0 0 15.064453 51.332031 A 1 1 0 0 0 16.064453 50.332031 A 1 1 0 0 0 15.064453 49.332031 z M 64.955078 49.332031 A 1 1 0 0 0 63.955078 50.332031 A 1 1 0 0 0 64.955078 51.332031 A 1 1 0 0 0 65.955078 50.332031 A 1 1 0 0 0 64.955078 49.332031 z M 62.460938 54 A 1 1 0 0 0 61.460938 55 A 1 1 0 0 0 62.460938 56 A 1 1 0 0 0 63.460938 55 A 1 1 0 0 0 62.460938 54 z M 17.560547 54.001953 A 1 1 0 0 0 16.560547 55.001953 A 1 1 0 0 0 17.560547 56.001953 A 1 1 0 0 0 18.560547 55.001953 A 1 1 0 0 0 17.560547 54.001953 z M 20.916016 58.091797 A 1 1 0 0 0 19.916016 59.091797 A 1 1 0 0 0 20.916016 60.091797 A 1 1 0 0 0 21.916016 59.091797 A 1 1 0 0 0 20.916016 58.091797 z M 59.099609 58.091797 A 1 1 0 0 0 58.099609 59.091797 A 1 1 0 0 0 59.099609 60.091797 A 1 1 0 0 0 60.099609 59.091797 A 1 1 0 0 0 59.099609 58.091797 z M 55.011719 61.449219 A 1 1 0 0 0 54.011719 62.449219 A 1 1 0 0 0 55.011719 63.449219 A 1 1 0 0 0 56.011719 62.449219 A 1 1 0 0 0 55.011719 61.449219 z M 25.011719 61.451172 A 1 1 0 0 0 24.011719 62.451172 A 1 1 0 0 0 25.011719 63.451172 A 1 1 0 0 0 26.011719 62.451172 A 1 1 0 0 0 25.011719 61.451172 z M 29.677734 63.945312 A 1 1 0 0 0 28.677734 64.945312 A 1 1 0 0 0 29.677734 65.945312 A 1 1 0 0 0 30.677734 64.945312 A 1 1 0 0 0 29.677734 63.945312 z M 50.34375 63.945312 A 1 1 0 0 0 49.34375 64.945312 A 1 1 0 0 0 50.34375 65.945312 A 1 1 0 0 0 51.34375 64.945312 A 1 1 0 0 0 50.34375 63.945312 z M 34.742188 65.480469 A 1 1 0 0 0 33.742188 66.480469 A 1 1 0 0 0 34.742188 67.480469 A 1 1 0 0 0 35.742188 66.480469 A 1 1 0 0 0 34.742188 65.480469 z M 45.277344 65.482422 A 1 1 0 0 0 44.277344 66.482422 A 1 1 0 0 0 45.277344 67.482422 A 1 1 0 0 0 46.277344 66.482422 A 1 1 0 0 0 45.277344 65.482422 z M 40.007812 66 A 1 1 0 0 0 39.007812 67 A 1 1 0 0 0 40.007812 68 A 1 1 0 0 0 41.007812 67 A 1 1 0 0 0 40.007812 66 z"></path>
</svg>