<?xml version="1.0" encoding="utf-8"?>
<!-- Generator: Adobe Illustrator 19.0.0, SVG Export Plug-In . SVG Version: 6.00 Build 0)  -->
<svg version="1.1" id="Layer_1" xmlns="http://www.w3.org/2000/svg" xmlns:xlink="http://www.w3.org/1999/xlink" x="0px" y="0px"
	 viewBox="0 0 100 100" style="enable-background:new 0 0 100 100;" xml:space="preserve">
<g>
	<path d="M22,37v13h5v-8.2l21-3v38.6l-16.4-2.7L46,51l-4.5-2.6L27,71.5V56h-5v21.7l1,0.6c0.1,0,0.1,0,0.2,0l27,20.4l27.8-21V37
		l-28-21L22,37z M68.2,48.4L53,72.7V38.7l20,3v32.6l-17,2.5l16.3-25.8L68.2,48.4z M53,33.7v-9.5L68.6,36L53,33.7z M32.4,36L48,24.2
		v9.5L32.4,36z M33.8,80.1l16.3,2.7L66,80.4l-15.9,12L33.8,80.1z"/>
	<rect x="60.2" y="1.8" transform="matrix(0.9394 0.3429 -0.3429 0.9394 6.3364 -21.0536)" width="5" height="11.1"/>
	<rect x="74.7" y="11.3" transform="matrix(0.7187 0.6953 -0.6953 0.7187 32.7613 -49.1847)" width="5" height="9.2"/>
	<rect x="18.5" y="13.4" transform="matrix(0.6951 0.7189 -0.7189 0.6951 18.4766 -11.7677)" width="9.2" height="5"/>
	<rect x="32.2" y="5.1" transform="matrix(0.3537 0.9354 -0.9354 0.3537 31.3739 -30.2658)" width="10.8" height="5"/>
</g>
</svg>
