<?xml version="1.0" encoding="utf-8"?>
<!-- Generator: Adobe Illustrator 19.0.0, SVG Export Plug-In . SVG Version: 6.00 Build 0)  -->
<svg version="1.1" id="Layer_1" xmlns="http://www.w3.org/2000/svg" xmlns:xlink="http://www.w3.org/1999/xlink" x="0px" y="0px"
	 viewBox="0 0 100 100" style="enable-background:new 0 0 100 100;" xml:space="preserve">
<g>
	<path d="M31.5,18l4.6-2c-1.5-3.5-5.6-5.2-9.2-3.7l2,4.6C29.9,16.6,31,17,31.5,18z"/>
	<path d="M96.7,43.4H80.4c-1.4,0-2.5,1.1-2.5,2.5V52h-6.2l-0.5-1c-2.5-4.7-6.5-8.4-11.3-10.4l-1,2.3l0.9-2.4c-0.1,0-0.2-0.1-0.3-0.1
		l-6.1-1.7l-8.8-12.2l-0.7-0.9c0.2-3.1-1.9-6-5-6.8l-1.2,4.8c0.9,0.2,1.4,1.1,1.2,2c-0.2,0.7,0,1.5,0.4,2.1l10.6,14.6
		c0.3,0.5,0.8,0.8,1.3,0.9l6.7,1.9c3.7,1.6,6.9,4.4,8.8,8.1l1.2,2.4c0.4,0.8,1.3,1.3,2.2,1.3h7.7v18.6l-47,0c-0.1,0-0.3,0-0.4,0
		c-2.5,0.4-5-0.9-6.1-3.2l-0.9-1.9c0-0.1-0.1-0.1-0.1-0.2L8.9,46.2l6.6-24.7c0.6-1.5,1.9-2.4,3.4-2.4L14.8,44
		c-0.1,0.4,0,0.8,0.1,1.1l2.8,9.2l4.8-1.5l-2.7-8.6l3.7-22.4h0.6c0.4,0,0.8,0.2,1,0.6l0.6,1L24.4,43c0,0.3,0,0.6,0.1,0.9l4.9,16.6
		l4.8-1.4l-4.7-16.2l1.2-17.5c0.4,0,0.8,0.3,1,0.7l1.8,3.3l5.9,22.4c0.3,1.2,1.4,2,2.7,1.9l0.6-0.1c1.9-0.2,3.8,0.6,5.1,2l1.1,1.3
		l3.8-3.3l-1.1-1.3c-2-2.3-4.8-3.7-7.8-3.8l-5.4-20.7c-0.1-0.2-0.1-0.4-0.2-0.6l-2-3.6c-1.1-2-3.2-3.3-5.5-3.3h-0.8l-0.2-0.4
		c-1.1-2-3.1-3.2-5.4-3.2h-2.5l0.6-2.2l-1-0.3c-4.4-1.1-8.9,1.2-10.5,5.6c0,0.1,0,0.1-0.1,0.2L3.8,46c-0.2,0.7-0.1,1.3,0.3,1.9
		L19,72.8l0.9,1.8c1.8,3.8,5.6,6.1,9.7,6.1c0.5,0,1.1,0,1.6-0.1l46.8,0v6.6c0,1.4,1.1,2.5,2.5,2.5h16.3v-5H82.9V48.4h13.8V43.4z"/>
	<rect x="88.2" y="71.8" width="5" height="6.4"/>
</g>
</svg>
