<?xml version="1.0" encoding="utf-8"?>
<!-- Generator: Adobe Illustrator 19.0.0, SVG Export Plug-In . SVG Version: 6.00 Build 0)  -->
<svg version="1.1" id="Layer_1" xmlns="http://www.w3.org/2000/svg" xmlns:xlink="http://www.w3.org/1999/xlink" x="0px" y="0px"
	 viewBox="350 -100 800 300" style="enable-background:new 350 -100 800 300;" xml:space="preserve">
<style type="text/css">
	.st0{fill:#FFFFFF;}
	.st1{opacity:0.5;}
	.st2{opacity:0.6;}
	.st3{opacity:0.3;}
	.st4{opacity:0.2;}
	.st5{opacity:0.1;}
	.st6{opacity:0.4;}
	.st7{fill:#4D4D4D;}
	.st8{fill:#5C5C5C;}
	.st9{fill:#2B2B2B;}
	.st10{fill:#525252;}
	.st11{fill:#D2D2D2;}
	.st12{fill:#202020;}
	.st13{fill:#D2D2D2;stroke:#202020;stroke-width:4;stroke-linecap:round;stroke-linejoin:round;}
	.st14{fill:#E6E7E8;}
</style>
<g>
	<path class="st0" d="M764.2,78.6c9,0,17.8-1.6,25.1-8.3c7.6-7,8.7-14.8,8.7-20.8c0-9-2.9-14-5.6-16.5c-2.6-2.6-8.5-6.3-21.4-6.3
		h-3.4l-3.3,24.8l-2.6,27H764.2z"/>
</g>
<g>
	<polygon class="st0" points="599.5,100.3 581.3,91.8 583.8,2.9 578.9,92.6 	"/>
</g>
<g>
	<path class="st0" d="M633.6,69.8c0-0.9,16.4,32.6,16.4,32.6l-7.7,0h-10.3L617.2,79l3.8-8.1L604.8,47l41.5-44.1h6.9l-18.6,47.4
		l46.2-47.4h-35.6L607,44.7l5.6-41.9h-30.4l0,0h1.6l15.7,97.4c0,0.1,0,0.1,0,0.2l5.5-40.9l27.1,42.8h36.6l-34.9-49.9
		C633.7,52.6,633.6,68.9,633.6,69.8z"/>
</g>
<g>
	<polygon class="st0" points="700.7,81.7 677.8,99 677.3,102.5 707.7,102.5 687.2,102.4 	"/>
</g>
<g>
	<polygon class="st0" points="716.3,37.9 705.5,45.6 711.2,3 700.7,81.7 707.7,102.5 721,3 711.2,3 	"/>
</g>
<g>
	<polygon class="st0" points="690.6,2.9 682.9,60.5 682.9,60.5 	"/>
</g>
<g>
	<path class="st0" d="M816.4,63c-0.1-0.2-0.2-0.4-0.3-0.7c0.5,3.7,0.9,7,0.9,9.9C817.4,68.9,817.4,65.2,816.4,63z"/>
</g>
<g>
	<path class="st0" d="M812.4,43.3c-2.6-10.9-5.7-20.9-8-28.9L812.4,43.3z"/>
</g>
<g>
	<path class="st0" d="M816.4,34.8c-1.3,2.8-2.8,5.7-4.1,8.5c0.2,0.8,0.4,1.5,0.5,2.3l0.9-5.3C813.8,40.3,815.4,38.3,816.4,34.8z"/>
</g>
<g>
	<path class="st0" d="M821.3-15.1l8,3C826.7-13.3,824-14.3,821.3-15.1z"/>
</g>
<g>
	<path class="st0" d="M821.4,18.2C817.6,13.4,813,10,808,7.7c0,0,4.5,4.4,8.9,11.8c0.4,0.6,0.8,1.2,1,1.8
		c7.3,13.2,13.5,34.8-2.3,59.1v0c-0.2,0.4-0.5,0.7-0.7,0.9c-8.7,8-34.9,5.6-45.7,5.6l-14.4,15.5h12.7c13.3,0,30.7-2.4,45.2-16.2
		c11.3-10.7,16.6-23.8,16.6-40.9C829.3,36.4,827.9,26.5,821.4,18.2z"/>
</g>
<g>
	<path class="st0" d="M764.4,51.6L764.4,51.6l3.3-24.8h3.4c12.9,0,18.7,3.7,21.4,6.3c2.6,2.6,5.6,7.5,5.6,16.5
		c0,6-1.1,13.8-8.7,20.8c-7.3,6.7-16.1,8.3-25.1,8.3h-2.4l-1.1,11.7l-15.7,10.3l65.4-42.9c0-2.8,0.7-11.5,2-14.5l-10.5-6.7V5.5
		c-2.8-0.8-5.6-1.4-8.3-1.8l-38.6,32.9L764.4,51.6z"/>
</g>
<g>
	<polygon class="st0" points="740.5,2.8 727.2,102.5 727.9,102.5 747.5,16.5 	"/>
</g>
<g>
	<polygon class="st0" points="879.5,55 879.4,54.8 850.2,89.8 	"/>
</g>
<g>
	<polygon class="st0" points="883.7,59.5 883.7,59.5 881.8,61.2 	"/>
</g>
<g>
	<polygon class="st0" points="887.2,84.3 881.6,61.4 850.2,89.8 849.7,89.6 814.9,102.5 849.6,102.5 875.6,69.6 892.5,102.5 
		903.4,102.5 901.7,100.1 	"/>
</g>
<g>
	<polygon class="st0" points="861.2,35 855.1,40 848.5,29.4 831.7,2.8 861.5,50.1 865.4,39.6 	"/>
</g>
<g class="st1">
	
		<rect x="525.4" y="52.6" transform="matrix(0.1325 -0.9912 0.9912 0.1325 447.1052 616.12)" class="st0" width="100.4" height="0"/>
</g>
<g>
	<path class="st0" d="M578.9,92.6l4.9-89.7h-1.6l-13.3,99.5h30.4l0.3-1.9c0-0.1,0-0.1,0-0.2L578.9,92.6z"/>
</g>
<g class="st1">
	<path class="st0" d="M578.9,92.6l4.9-89.7h-1.6l-13.3,99.5h30.4l0.3-1.9c0-0.1,0-0.1,0-0.2L578.9,92.6z"/>
</g>
<g>
	<polygon class="st0" points="646.4,2.9 604.8,47 621,70.9 653.2,2.9 	"/>
</g>
<g class="st1">
	<polygon class="st0" points="646.4,2.9 604.8,47 621,70.9 653.2,2.9 	"/>
</g>
<g>
	<polygon class="st0" points="617.2,79 632.1,102.4 642.3,102.4 621,70.9 	"/>
</g>
<g class="st1">
	<polygon class="st0" points="617.2,79 632.1,102.4 642.3,102.4 621,70.9 	"/>
</g>
<g class="st1">
	<polygon class="st0" points="677.8,99.1 677.8,99 682.9,60.5 	"/>
</g>
<g>
	<polygon class="st0" points="711.2,3 708.1,3 682.9,60.5 682.9,60.5 677.8,99 700.7,81.7 	"/>
</g>
<g class="st1">
	<polygon class="st0" points="711.2,3 708.1,3 682.9,60.5 682.9,60.5 677.8,99 700.7,81.7 	"/>
</g>
<g>
	<polygon class="st0" points="754.9,36.6 793.6,3.7 793.6,3.7 774.9,2.9 747.5,16.5 727.9,102.5 742.5,102.5 744.9,100.6 	"/>
</g>
<g class="st2">
	<polygon class="st0" points="754.9,36.6 793.6,3.7 793.6,3.7 774.9,2.9 747.5,16.5 727.9,102.5 742.5,102.5 744.9,100.6 	"/>
</g>
<g>
	<path class="st0" d="M815,81.4c0.3-0.3,0.5-0.6,0.7-0.9c0,0,0.9-3.9,1.4-8.2c-0.1-2.9-0.4-6.2-0.9-9.9c-2.1-5.3-3.3-16.8-3.3-16.8
		l0,0c-0.2-0.8-0.3-1.5-0.5-2.3c-1.3,3-2,11.6-2,14.5l-65.4,42.9l-0.3,1.9h10.2L769.3,87C780,87,806.2,89.4,815,81.4z"/>
</g>
<g class="st2">
	<path class="st0" d="M815,81.4c0.3-0.3,0.5-0.6,0.7-0.9c0,0,0.9-3.9,1.4-8.2c-0.1-2.9-0.4-6.2-0.9-9.9c-2.1-5.3-3.3-16.8-3.3-16.8
		l0,0c-0.2-0.8-0.3-1.5-0.5-2.3c-1.3,3-2,11.6-2,14.5l-65.4,42.9l-0.3,1.9h10.2L769.3,87C780,87,806.2,89.4,815,81.4z"/>
</g>
<g class="st2">
	<polygon class="st0" points="821.3,-15.1 821.3,-15.1 821.3,-15.1 	"/>
</g>
<g class="st2">
	<polygon class="st0" points="829.3,-12.1 829.3,-12.1 829.3,-12.1 	"/>
</g>
<g>
	<path class="st0" d="M804.3,14.3c2.4,8,5.5,18,8,28.9c1.2-2.8,2.8-5.7,4.1-8.5c1.5-5.5,1.6-15-8.4-27c0,0,0,0,0,0l-6.1-2.3
		c0,0,0,0,0,0L804.3,14.3z"/>
</g>
<g class="st2">
	<path class="st0" d="M804.3,14.3c2.4,8,5.5,18,8,28.9c1.2-2.8,2.8-5.7,4.1-8.5c1.5-5.5,1.6-15-8.4-27c0,0,0,0,0,0l-6.1-2.3
		c0,0,0,0,0,0L804.3,14.3z"/>
</g>
<g>
	<path class="st0" d="M816.9,19.6c0.3,0.6,0.7,1.2,1,1.8C817.7,20.8,817.4,20.2,816.9,19.6z"/>
</g>
<g class="st2">
	<path class="st0" d="M816.9,19.6c0.3,0.6,0.7,1.2,1,1.8C817.7,20.8,817.4,20.2,816.9,19.6z"/>
</g>
<g>
	<polygon class="st0" points="887.8,64 890.5,84 903.8,102.3 901.7,100.1 903.4,102.5 903.5,102.6 923.1,102.5 	"/>
</g>
<g>
	<polygon class="st0" points="849.7,89.6 849.7,89.6 850.2,89.8 879.4,54.8 865.4,39.6 861.5,50.1 831.4,83.9 	"/>
</g>
<g>
	<polygon class="st0" points="855.7,29 831.7,2.8 848.5,29.4 	"/>
</g>
<g>
	<polygon class="st0" points="895,48.7 935.1,2.8 901.6,2.8 881,29.7 866.8,2.8 865.3,2.8 923.1,102.5 927.5,102.5 	"/>
</g>
<g>
	<polygon class="st0" points="599.5,100.3 583.8,2.9 581.3,91.8 	"/>
</g>
<g class="st3">
	<polygon class="st0" points="599.5,100.3 583.8,2.9 581.3,91.8 	"/>
</g>
<g class="st4">
	<polygon class="st0" points="633.7,52.6 633.7,52.6 634.7,50.3 633.2,51.8 	"/>
</g>
<g>
	<path class="st0" d="M621,70.9l21.3,31.5l7.7,0c0,0-16.3-33.4-16.4-32.6c0-0.9,0.1-17.2,0.1-17.2l-0.6-0.8l1.5-1.5l18.6-47.4
		L621,70.9z"/>
</g>
<g class="st4">
	<path class="st0" d="M621,70.9l21.3,31.5l7.7,0c0,0-16.3-33.4-16.4-32.6c0-0.9,0.1-17.2,0.1-17.2l-0.6-0.8l1.5-1.5l18.6-47.4
		L621,70.9z"/>
</g>
<g>
	<path class="st0" d="M708.1,3h-7.3c-0.2,0-0.4,0-0.5-0.1l-1.5,0h-8.2l-7.7,57.5L708.1,3z"/>
</g>
<g class="st5">
	<path class="st0" d="M708.1,3h-7.3c-0.2,0-0.4,0-0.5-0.1l-1.5,0h-8.2l-7.7,57.5L708.1,3z"/>
</g>
<g>
	<polygon class="st0" points="716.3,37.9 711.2,3 705.5,45.6 	"/>
</g>
<g class="st4">
	<polygon class="st0" points="716.3,37.9 711.2,3 705.5,45.6 	"/>
</g>
<g>
	<polygon class="st0" points="687.2,102.4 707.7,102.5 700.7,81.7 	"/>
</g>
<g class="st3">
	<polygon class="st0" points="687.2,102.4 707.7,102.5 700.7,81.7 	"/>
</g>
<g>
	<polygon class="st0" points="774.9,2.9 740.5,2.8 747.5,16.5 	"/>
</g>
<g class="st6">
	<polygon class="st0" points="774.9,2.9 740.5,2.8 747.5,16.5 	"/>
</g>
<g class="st4">
	<polygon class="st0" points="761.8,78.6 764.4,51.6 760.8,78.6 	"/>
</g>
<g>
	<polygon class="st0" points="761.8,78.6 760.8,78.6 764.4,51.6 764.4,51.6 754.9,36.6 744.9,100.6 760.7,90.3 	"/>
</g>
<g class="st4">
	<polygon class="st0" points="761.8,78.6 760.8,78.6 764.4,51.6 764.4,51.6 754.9,36.6 744.9,100.6 760.7,90.3 	"/>
</g>
<g class="st5">
	<polygon class="st0" points="821.3,-15.1 821.3,-15.1 821.3,-15.1 	"/>
</g>
<g>
	<path class="st0" d="M812.4,43.3l-8-28.9c-1-3.3-1.8-6.3-2.5-8.9c0,0,0,0,0,0l0,31.2L812.4,43.3z"/>
</g>
<g class="st5">
	<path class="st0" d="M812.4,43.3l-8-28.9c-1-3.3-1.8-6.3-2.5-8.9c0,0,0,0,0,0l0,31.2L812.4,43.3z"/>
</g>
<g class="st2">
	<polygon class="st0" points="821.3,-15.1 821.3,-15.1 821.3,-15.1 	"/>
</g>
<g class="st5">
	<polygon class="st0" points="821.3,-15.1 821.3,-15.1 821.3,-15.1 	"/>
</g>
<g>
	<path class="st0" d="M801.9,5.5c0.6,2.6,1.5,5.6,2.5,8.9L801.9,5.5L801.9,5.5z"/>
</g>
<g class="st2">
	<path class="st0" d="M801.9,5.5c0.6,2.6,1.5,5.6,2.5,8.9L801.9,5.5L801.9,5.5z"/>
</g>
<g class="st5">
	<path class="st0" d="M801.9,5.5c0.6,2.6,1.5,5.6,2.5,8.9L801.9,5.5L801.9,5.5z"/>
</g>
<g class="st3">
	<polygon class="st0" points="829.3,-12.1 829.3,-12.1 829.3,-12.1 	"/>
</g>
<g>
	<path class="st0" d="M816.4,34.8c-1,3.5-2.6,5.5-2.6,5.5l-0.9,5.3c1.3,5.9,2.5,11.7,3.3,16.8c0.1,0.2,0.2,0.5,0.3,0.7
		c1,2.2,1,5.8,0.6,9.2c0.1,3.7-0.3,6.5-1.4,8.2v0c15.7-24.3,9.6-45.8,2.3-59.1C819.9,25.6,818.5,30.2,816.4,34.8z"/>
</g>
<g class="st3">
	<path class="st0" d="M816.4,34.8c-1,3.5-2.6,5.5-2.6,5.5l-0.9,5.3c1.3,5.9,2.5,11.7,3.3,16.8c0.1,0.2,0.2,0.5,0.3,0.7
		c1,2.2,1,5.8,0.6,9.2c0.1,3.7-0.3,6.5-1.4,8.2v0c15.7-24.3,9.6-45.8,2.3-59.1C819.9,25.6,818.5,30.2,816.4,34.8z"/>
</g>
<g>
	<path class="st0" d="M816.5,19.1c0.1,0.2,0.3,0.4,0.4,0.5c-4.4-7.5-8.9-11.8-8.9-11.8l0,0C811.2,11.3,810.8,11.7,816.5,19.1z"/>
</g>
<g class="st3">
	<path class="st0" d="M816.5,19.1c0.1,0.2,0.3,0.4,0.4,0.5c-4.4-7.5-8.9-11.8-8.9-11.8l0,0C811.2,11.3,810.8,11.7,816.5,19.1z"/>
</g>
<g>
	<path class="st0" d="M812.9,45.6c0,0,1.2,11.5,3.3,16.8C815.4,57.2,814.2,51.5,812.9,45.6L812.9,45.6z"/>
</g>
<g class="st2">
	<path class="st0" d="M812.9,45.6c0,0,1.2,11.5,3.3,16.8C815.4,57.2,814.2,51.5,812.9,45.6L812.9,45.6z"/>
</g>
<g class="st3">
	<path class="st0" d="M812.9,45.6c0,0,1.2,11.5,3.3,16.8C815.4,57.2,814.2,51.5,812.9,45.6L812.9,45.6z"/>
</g>
<g>
	<path class="st0" d="M817.1,72.2c-0.4,4.3-1.4,8.2-1.4,8.2C816.7,78.8,817.1,75.9,817.1,72.2z"/>
</g>
<g class="st2">
	<path class="st0" d="M817.1,72.2c-0.4,4.3-1.4,8.2-1.4,8.2C816.7,78.8,817.1,75.9,817.1,72.2z"/>
</g>
<g class="st3">
	<path class="st0" d="M817.1,72.2c-0.4,4.3-1.4,8.2-1.4,8.2C816.7,78.8,817.1,75.9,817.1,72.2z"/>
</g>
<g class="st2">
	<polygon class="st0" points="829.3,-12.1 829.3,-12.1 829.3,-12.1 	"/>
</g>
<g class="st3">
	<polygon class="st0" points="829.3,-12.1 829.3,-12.1 829.3,-12.1 	"/>
</g>
<g>
	<path class="st0" d="M808,7.7L808,7.7c10,12,10,21.5,8.4,27c2.1-4.6,3.4-9.2,1.6-13.4c-0.3-0.6-0.7-1.2-1-1.8
		c-0.1-0.2-0.3-0.4-0.4-0.5C810.8,11.7,811.2,11.3,808,7.7z"/>
</g>
<g class="st2">
	<path class="st0" d="M808,7.7L808,7.7c10,12,10,21.5,8.4,27c2.1-4.6,3.4-9.2,1.6-13.4c-0.3-0.6-0.7-1.2-1-1.8
		c-0.1-0.2-0.3-0.4-0.4-0.5C810.8,11.7,811.2,11.3,808,7.7z"/>
</g>
<g class="st3">
	<path class="st0" d="M808,7.7L808,7.7c10,12,10,21.5,8.4,27c2.1-4.6,3.4-9.2,1.6-13.4c-0.3-0.6-0.7-1.2-1-1.8
		c-0.1-0.2-0.3-0.4-0.4-0.5C810.8,11.7,811.2,11.3,808,7.7z"/>
</g>
<g>
	<polygon class="st0" points="855.1,40 861.2,35 855.7,29 848.5,29.4 	"/>
</g>
<g class="st4">
	<polygon class="st0" points="855.1,40 861.2,35 855.7,29 848.5,29.4 	"/>
</g>
<g>
	<polygon class="st0" points="881.8,61.2 883.7,59.5 879.5,55 850.2,89.8 881.6,61.4 881.6,61.4 	"/>
</g>
<g class="st4">
	<polygon class="st0" points="881.8,61.2 883.7,59.5 879.5,55 850.2,89.8 881.6,61.4 881.6,61.4 	"/>
</g>
<g>
	<polygon class="st0" points="883.7,59.5 886.7,57 886.6,56.9 883.7,59.5 	"/>
</g>
<g class="st4">
	<polygon class="st0" points="883.7,59.5 886.7,57 886.6,56.9 883.7,59.5 	"/>
</g>
<g>
	<polygon class="st0" points="865.4,39.6 869.8,28 861.2,35 	"/>
</g>
<g class="st4">
	<polygon class="st0" points="865.4,39.6 869.8,28 861.2,35 	"/>
</g>
<g>
	<polygon class="st0" points="885.5,47.9 885.4,47.6 879.4,54.8 879.5,55 	"/>
</g>
<g class="st4">
	<polygon class="st0" points="885.5,47.9 885.4,47.6 879.4,54.8 879.5,55 	"/>
</g>
<g>
	<polygon class="st0" points="865.3,2.8 831.7,2.8 855.7,29 869.8,28 865.4,39.6 879.4,54.8 885.4,47.6 885.5,47.9 885.7,47.6 
		886.9,56.6 886.6,56.9 886.7,57 886.9,56.8 887.8,64 923.1,102.5 923.1,102.5 	"/>
</g>
<g class="st4">
	<polygon class="st0" points="865.3,2.8 831.7,2.8 855.7,29 869.8,28 865.4,39.6 879.4,54.8 885.4,47.6 885.5,47.9 885.7,47.6 
		886.9,56.6 886.6,56.9 886.7,57 886.9,56.8 887.8,64 923.1,102.5 923.1,102.5 	"/>
</g>
<g>
	<polygon class="st0" points="869.8,28 855.7,29 861.2,35 	"/>
</g>
<g class="st4">
	<polygon class="st0" points="869.8,28 855.7,29 861.2,35 	"/>
</g>
<g class="st4">
	<polygon class="st0" points="869.8,28 855.7,29 861.2,35 	"/>
</g>
<g>
	<polygon class="st0" points="883.7,59.5 886.6,56.9 885.5,47.9 879.5,55 	"/>
</g>
<g class="st4">
	<polygon class="st0" points="883.7,59.5 886.6,56.9 885.5,47.9 879.5,55 	"/>
</g>
<g class="st4">
	<polygon class="st0" points="883.7,59.5 886.6,56.9 885.5,47.9 879.5,55 	"/>
</g>
<g>
	<polygon class="st0" points="886.9,56.6 885.7,47.6 885.5,47.9 886.6,56.9 	"/>
</g>
<g class="st4">
	<polygon class="st0" points="886.9,56.6 885.7,47.6 885.5,47.9 886.6,56.9 	"/>
</g>
<g class="st4">
	<polygon class="st0" points="886.9,56.6 885.7,47.6 885.5,47.9 886.6,56.9 	"/>
</g>
<g class="st4">
	<polygon class="st0" points="831.4,83.9 814.9,102.5 831.4,83.9 	"/>
</g>
<g>
	<polygon class="st0" points="831.4,83.9 814.9,102.5 849.7,89.6 	"/>
</g>
<g class="st4">
	<polygon class="st0" points="831.4,83.9 814.9,102.5 849.7,89.6 	"/>
</g>
<g>
	<rect x="840.6" y="77.2" class="st0" width="0" height="19.2"/>
</g>
<g class="st4">
	<rect x="840.6" y="77.2" class="st0" width="0" height="19.2"/>
</g>
<g>
	<polygon class="st0" points="887.5,63.7 883.7,59.5 881.8,61.2 881.6,61.4 887.2,84.3 901.7,100.1 890.2,84.2 	"/>
</g>
<g class="st3">
	<polygon class="st0" points="887.5,63.7 883.7,59.5 881.8,61.2 881.6,61.4 887.2,84.3 901.7,100.1 890.2,84.2 	"/>
</g>
<g>
	<polygon class="st0" points="890.2,84.2 901.7,100.1 903.8,102.3 890.5,84 887.8,64 887.5,63.7 	"/>
</g>
<g class="st3">
	<polygon class="st0" points="890.2,84.2 901.7,100.1 903.8,102.3 890.5,84 887.8,64 887.5,63.7 	"/>
</g>
<g>
	<polygon class="st0" points="881.6,61.4 881.6,61.4 881.8,61.2 	"/>
</g>
<g class="st4">
	<polygon class="st0" points="881.6,61.4 881.6,61.4 881.8,61.2 	"/>
</g>
<g class="st3">
	<polygon class="st0" points="881.6,61.4 881.6,61.4 881.8,61.2 	"/>
</g>
<g>
	<polygon class="st0" points="887.5,63.7 886.7,57 883.7,59.5 	"/>
</g>
<g class="st4">
	<polygon class="st0" points="887.5,63.7 886.7,57 883.7,59.5 	"/>
</g>
<g class="st3">
	<polygon class="st0" points="887.5,63.7 886.7,57 883.7,59.5 	"/>
</g>
<g>
	<polygon class="st0" points="887.8,64 886.9,56.8 886.7,57 887.5,63.7 	"/>
</g>
<g class="st4">
	<polygon class="st0" points="887.8,64 886.9,56.8 886.7,57 887.5,63.7 	"/>
</g>
<g class="st3">
	<polygon class="st0" points="887.8,64 886.9,56.8 886.7,57 887.5,63.7 	"/>
</g>
<g id="XMLID_855_">
	<g id="XMLID_994_">
		<g id="XMLID_995_">
			<polygon id="XMLID_315_" class="st7" points="879.6,55.3 879.5,55.2 850.5,91.4 			"/>
		</g>
	</g>
	<g id="XMLID_991_">
		<g id="XMLID_992_">
			<polygon id="XMLID_314_" class="st7" points="883.8,60.1 883.8,60.1 881.9,61.8 			"/>
		</g>
	</g>
	<g id="XMLID_988_">
		<g id="XMLID_989_">
			<polygon id="XMLID_313_" class="st7" points="887.2,85.7 881.7,62 850.5,91.4 850,91.2 815.4,104.5 849.9,104.5 875.7,70.5 
				892.5,104.5 903.4,104.5 901.7,102.1 			"/>
		</g>
	</g>
	<g id="XMLID_985_">
		<g id="XMLID_986_">
			<polygon id="XMLID_312_" class="st7" points="861.5,34.7 855.4,39.8 848.8,28.9 832.2,1.4 861.7,50.3 865.6,39.4 			"/>
		</g>
	</g>
	<g id="XMLID_982_">
		<g id="XMLID_983_">
			<polygon id="XMLID_311_" class="st8" points="887.9,64.7 890.5,85.4 903.7,104.4 901.7,102.1 903.4,104.5 903.4,104.6 
				922.9,104.5 			"/>
		</g>
	</g>
	<g id="XMLID_979_">
		<g id="XMLID_980_">
			<polygon id="XMLID_310_" class="st8" points="850,91.2 850,91.2 850.5,91.4 879.5,55.2 865.6,39.4 861.7,50.3 831.9,85.3 			"/>
		</g>
	</g>
	<g id="XMLID_976_">
		<g id="XMLID_977_">
			<polygon id="XMLID_309_" class="st8" points="856,28.4 832.2,1.4 848.8,28.9 			"/>
		</g>
	</g>
	<g id="XMLID_973_">
		<g id="XMLID_974_">
			<polygon id="XMLID_308_" class="st8" points="895,48.8 934.8,1.4 901.6,1.4 881.1,29.2 867,1.4 865.5,1.4 923,104.5 927.3,104.5 
							"/>
		</g>
	</g>
	<g id="XMLID_970_">
		<g id="XMLID_971_">
			<polygon id="XMLID_307_" class="st7" points="855.4,39.8 861.5,34.7 856,28.4 848.8,28.9 			"/>
		</g>
	</g>
	<g id="XMLID_967_" class="st4">
		<g id="XMLID_968_">
			<polygon id="XMLID_306_" class="st9" points="855.4,39.8 861.5,34.7 856,28.4 848.8,28.9 			"/>
		</g>
	</g>
	<g id="XMLID_964_">
		<g id="XMLID_965_">
			<polygon id="XMLID_305_" class="st7" points="881.9,61.8 883.8,60.1 879.6,55.3 850.5,91.4 881.7,62 881.7,62 			"/>
		</g>
	</g>
	<g id="XMLID_961_" class="st4">
		<g id="XMLID_962_">
			<polygon id="XMLID_304_" class="st9" points="881.9,61.8 883.8,60.1 879.6,55.3 850.5,91.4 881.7,62 881.7,62 			"/>
		</g>
	</g>
	<g id="XMLID_958_" class="st4">
		<g id="XMLID_959_">
			<polygon id="XMLID_303_" class="st10" points="923,104.6 923,104.5 922.9,104.5 			"/>
		</g>
	</g>
	<g id="XMLID_955_">
		<g id="XMLID_956_">
			<polygon id="XMLID_302_" class="st7" points="883.8,60.1 886.7,57.4 886.7,57.3 883.8,60.1 			"/>
		</g>
	</g>
	<g id="XMLID_952_" class="st4">
		<g id="XMLID_953_">
			<polygon id="XMLID_301_" class="st10" points="883.8,60.1 886.7,57.4 886.7,57.3 883.8,60.1 			"/>
		</g>
	</g>
	<g id="XMLID_949_">
		<g id="XMLID_950_">
			<polygon id="XMLID_300_" class="st7" points="865.6,39.4 869.9,27.5 861.5,34.7 			"/>
		</g>
	</g>
	<g id="XMLID_946_" class="st4">
		<g id="XMLID_947_">
			<polygon id="XMLID_299_" class="st10" points="865.6,39.4 869.9,27.5 861.5,34.7 			"/>
		</g>
	</g>
	<g id="XMLID_943_">
		<g id="XMLID_944_">
			<polygon id="XMLID_298_" class="st7" points="885.5,48.1 885.5,47.8 879.5,55.2 879.6,55.3 			"/>
		</g>
	</g>
	<g id="XMLID_940_" class="st4">
		<g id="XMLID_941_">
			<polygon id="XMLID_297_" class="st10" points="885.5,48.1 885.5,47.8 879.5,55.2 879.6,55.3 			"/>
		</g>
	</g>
	<g id="XMLID_937_">
		<g id="XMLID_938_">
			<polygon id="XMLID_296_" class="st8" points="865.5,1.4 832.2,1.4 856,28.4 869.9,27.5 865.6,39.4 879.5,55.2 885.5,47.8 
				885.5,48.1 885.8,47.8 887,57.1 886.7,57.3 886.7,57.4 886.9,57.2 887.9,64.7 922.9,104.5 923,104.5 			"/>
		</g>
	</g>
	<g id="XMLID_934_" class="st4">
		<g id="XMLID_935_">
			<polygon id="XMLID_295_" class="st10" points="865.5,1.4 832.2,1.4 856,28.4 869.9,27.5 865.6,39.4 879.5,55.2 885.5,47.8 
				885.5,48.1 885.8,47.8 887,57.1 886.7,57.3 886.7,57.4 886.9,57.2 887.9,64.7 922.9,104.5 923,104.5 			"/>
		</g>
	</g>
	<g id="XMLID_931_">
		<g id="XMLID_932_">
			<polygon id="XMLID_294_" class="st7" points="869.9,27.5 856,28.4 861.5,34.7 			"/>
		</g>
	</g>
	<g id="XMLID_928_" class="st4">
		<g id="XMLID_929_">
			<polygon id="XMLID_293_" class="st9" points="869.9,27.5 856,28.4 861.5,34.7 			"/>
		</g>
	</g>
	<g id="XMLID_925_" class="st4">
		<g id="XMLID_926_">
			<polygon id="XMLID_292_" class="st10" points="869.9,27.5 856,28.4 861.5,34.7 			"/>
		</g>
	</g>
	<g id="XMLID_922_">
		<g id="XMLID_923_">
			<polygon id="XMLID_291_" class="st7" points="883.8,60.1 886.7,57.3 885.5,48.1 879.6,55.3 			"/>
		</g>
	</g>
	<g id="XMLID_919_" class="st4">
		<g id="XMLID_920_">
			<polygon id="XMLID_290_" class="st9" points="883.8,60.1 886.7,57.3 885.5,48.1 879.6,55.3 			"/>
		</g>
	</g>
	<g id="XMLID_916_" class="st4">
		<g id="XMLID_917_">
			<polygon id="XMLID_289_" class="st10" points="883.8,60.1 886.7,57.3 885.5,48.1 879.6,55.3 			"/>
		</g>
	</g>
	<g id="XMLID_913_">
		<g id="XMLID_914_">
			<polygon id="XMLID_288_" class="st8" points="887,57.1 885.8,47.8 885.5,48.1 886.7,57.3 			"/>
		</g>
	</g>
	<g id="XMLID_910_" class="st4">
		<g id="XMLID_911_">
			<polygon id="XMLID_287_" class="st9" points="887,57.1 885.8,47.8 885.5,48.1 886.7,57.3 			"/>
		</g>
	</g>
	<g id="XMLID_907_" class="st4">
		<g id="XMLID_908_">
			<polygon id="XMLID_286_" class="st10" points="887,57.1 885.8,47.8 885.5,48.1 886.7,57.3 			"/>
		</g>
	</g>
	<g id="XMLID_904_">
		<g id="XMLID_905_">
			<polygon id="XMLID_285_" class="st7" points="831.9,85.3 815.4,104.5 850,91.2 			"/>
		</g>
	</g>
	<g id="XMLID_901_" class="st4">
		<g id="XMLID_902_">
			<polygon id="XMLID_284_" class="st9" points="831.9,85.3 815.4,104.5 850,91.2 			"/>
		</g>
	</g>
	<g id="XMLID_898_">
		<g id="XMLID_899_">
			<rect id="XMLID_283_" x="840.9" y="78.7" class="st8" width="0" height="19.1"/>
		</g>
	</g>
	<g id="XMLID_895_" class="st4">
		<g id="XMLID_896_">
			<rect id="XMLID_282_" x="840.9" y="78.7" class="st9" width="0" height="19.1"/>
		</g>
	</g>
	<g id="XMLID_892_">
		<g id="XMLID_893_">
			<polygon id="XMLID_281_" class="st7" points="887.6,64.4 883.8,60.1 881.9,61.8 881.7,62 887.2,85.7 901.7,102.1 890.3,85.6 			
				"/>
		</g>
	</g>
	<g id="XMLID_889_" class="st3">
		<g id="XMLID_890_">
			<polygon id="XMLID_280_" class="st9" points="887.6,64.4 883.8,60.1 881.9,61.8 881.7,62 887.2,85.7 901.7,102.1 890.3,85.6 			
				"/>
		</g>
	</g>
	<g id="XMLID_886_">
		<g id="XMLID_887_">
			<polygon id="XMLID_279_" class="st8" points="890.3,85.6 901.7,102.1 903.7,104.4 890.5,85.4 887.9,64.7 887.6,64.4 			"/>
		</g>
	</g>
	<g id="XMLID_883_" class="st3">
		<g id="XMLID_884_">
			<polygon id="XMLID_278_" class="st9" points="890.3,85.6 901.7,102.1 903.7,104.4 890.5,85.4 887.9,64.7 887.6,64.4 			"/>
		</g>
	</g>
	<g id="XMLID_880_">
		<g id="XMLID_881_">
			<polygon id="XMLID_277_" class="st7" points="881.7,62 881.7,62 881.9,61.8 			"/>
		</g>
	</g>
	<g id="XMLID_877_" class="st4">
		<g id="XMLID_878_">
			<polygon id="XMLID_276_" class="st9" points="881.7,62 881.7,62 881.9,61.8 			"/>
		</g>
	</g>
	<g id="XMLID_874_" class="st3">
		<g id="XMLID_875_">
			<polygon id="XMLID_275_" class="st9" points="881.7,62 881.7,62 881.9,61.8 			"/>
		</g>
	</g>
	<g id="XMLID_871_">
		<g id="XMLID_872_">
			<polygon id="XMLID_274_" class="st7" points="887.6,64.4 886.7,57.4 883.8,60.1 			"/>
		</g>
	</g>
	<g id="XMLID_868_" class="st4">
		<g id="XMLID_869_">
			<polygon id="XMLID_273_" class="st10" points="887.6,64.4 886.7,57.4 883.8,60.1 			"/>
		</g>
	</g>
	<g id="XMLID_865_" class="st3">
		<g id="XMLID_866_">
			<polygon id="XMLID_272_" class="st9" points="887.6,64.4 886.7,57.4 883.8,60.1 			"/>
		</g>
	</g>
	<g id="XMLID_862_">
		<g id="XMLID_863_">
			<polygon id="XMLID_271_" class="st8" points="887.9,64.7 886.9,57.2 886.7,57.4 887.6,64.4 			"/>
		</g>
	</g>
	<g id="XMLID_859_" class="st4">
		<g id="XMLID_860_">
			<polygon id="XMLID_270_" class="st10" points="887.9,64.7 886.9,57.2 886.7,57.4 887.6,64.4 			"/>
		</g>
	</g>
	<g id="XMLID_856_" class="st3">
		<g id="XMLID_857_">
			<polygon id="XMLID_269_" class="st9" points="887.9,64.7 886.9,57.2 886.7,57.4 887.6,64.4 			"/>
		</g>
	</g>
</g>
<g id="XMLID_454_">
	<g id="XMLID_852_">
		<line id="XMLID_262_" class="st11" x1="599.2" y1="104.4" x2="599.2" y2="104.2"/>
		<path id="XMLID_263_" class="st12" d="M599.2,104.9C599.1,104.9,599.1,104.9,599.2,104.9c-0.3,0-0.5-0.3-0.5-0.6l0-0.1
			c0-0.3,0.3-0.5,0.6-0.4c0.3,0,0.5,0.3,0.5,0.6l0,0.1C599.6,104.7,599.4,104.9,599.2,104.9z"/>
	</g>
	<g id="XMLID_849_">
		<polyline id="XMLID_260_" class="st11" points="569,104.2 569,104.4 599.2,104.4 		"/>
		<path id="XMLID_261_" class="st12" d="M599.2,104.9H569c-0.1,0-0.3-0.1-0.4-0.2c-0.1-0.1-0.1-0.2-0.1-0.4l0-0.1
			c0-0.3,0.3-0.5,0.6-0.4c0.1,0,0.2,0.1,0.3,0.1h29.8c0.3,0,0.5,0.2,0.5,0.5C599.7,104.6,599.5,104.9,599.2,104.9z"/>
	</g>
	<g id="XMLID_846_">
		<polyline id="XMLID_258_" class="st11" points="612.4,1.2 582.2,1.2 582.2,1.3 		"/>
		<path id="XMLID_259_" class="st12" d="M582.2,1.8C582.2,1.8,582.2,1.8,582.2,1.8c-0.3,0-0.5-0.3-0.5-0.6l0,0
			c0-0.2,0.3-0.4,0.5-0.4h30.2c0.3,0,0.5,0.2,0.5,0.5s-0.2,0.5-0.5,0.5h-29.9C582.4,1.8,582.3,1.8,582.2,1.8z"/>
	</g>
	<g id="XMLID_843_">
		<polyline id="XMLID_256_" class="st11" points="634.4,50.3 680.3,1.2 644.9,1.2 606.9,44.5 612.4,1.2 		"/>
		<path id="XMLID_257_" class="st12" d="M634.4,50.8c-0.1,0-0.2,0-0.3-0.1c-0.2-0.2-0.2-0.5,0-0.7l45.1-48.3h-34l-37.9,43.1
			c-0.1,0.2-0.4,0.2-0.6,0.1c-0.2-0.1-0.3-0.3-0.3-0.5l5.5-43.3c0-0.3,0.3-0.5,0.6-0.4c0.3,0,0.5,0.3,0.4,0.6L607.6,43l36.9-42
			c0.1-0.1,0.2-0.2,0.4-0.2h35.4c0.2,0,0.4,0.1,0.5,0.3c0.1,0.2,0,0.4-0.1,0.5l-45.9,49.1C634.6,50.8,634.5,50.8,634.4,50.8z"/>
	</g>
	<g id="XMLID_840_">
		<line id="XMLID_254_" class="st11" x1="599.4" y1="102.2" x2="599.4" y2="102.3"/>
		<path id="XMLID_255_" class="st12" d="M599.4,102.8C599.4,102.8,599.4,102.8,599.4,102.8c-0.3,0-0.5-0.3-0.5-0.6l0-0.1
			c0-0.3,0.3-0.5,0.6-0.4c0.3,0,0.5,0.3,0.4,0.6l0,0.1C599.9,102.6,599.7,102.8,599.4,102.8z"/>
	</g>
	<g id="XMLID_837_">
		<polyline id="XMLID_252_" class="st11" points="633.4,52.8 668.1,104.4 631.8,104.4 604.9,60 599.4,102.2 		"/>
		<path id="XMLID_253_" class="st12" d="M668.1,104.9h-36.3c-0.2,0-0.4-0.1-0.4-0.2l-26.2-43.1l-5.2,40.7c0,0.3-0.3,0.5-0.6,0.4
			c-0.3,0-0.5-0.3-0.4-0.6l5.4-42.2c0-0.2,0.2-0.4,0.4-0.4c0.2,0,0.4,0.1,0.6,0.2l26.8,44.1h35.1L633,53c-0.2-0.2-0.1-0.5,0.2-0.7
			c0.2-0.1,0.6-0.1,0.7,0.1l34.7,51.6c0.1,0.2,0.1,0.3,0,0.5C668.5,104.8,668.3,104.9,668.1,104.9z"/>
	</g>
	<g id="XMLID_834_">
		<polyline id="XMLID_250_" class="st11" points="677.2,100.8 676.7,104.4 706.9,104.4 		"/>
		<path id="XMLID_251_" class="st12" d="M706.9,104.9h-30.2c-0.1,0-0.3-0.1-0.4-0.2c-0.1-0.1-0.1-0.2-0.1-0.4l0.5-3.6
			c0-0.3,0.3-0.5,0.6-0.4c0.3,0,0.5,0.3,0.4,0.6l-0.4,3h29.6c0.3,0,0.5,0.2,0.5,0.5C707.4,104.6,707.2,104.9,706.9,104.9z"/>
	</g>
	<g id="XMLID_831_">
		<path id="XMLID_248_" class="st11" d="M699.6,1.3C699.5,1.3,699.5,1.3,699.6,1.3l-1.5,0"/>
		<path id="XMLID_249_" class="st12" d="M699.6,1.8c0,0-0.1,0-0.1,0h-1.4c-0.3,0-0.5-0.2-0.5-0.5s0.2-0.5,0.5-0.5h1.5
			c0.1,0,0.2,0,0.2,0c0.3,0.1,0.4,0.4,0.3,0.6C699.9,1.7,699.8,1.8,699.6,1.8z"/>
	</g>
	<g id="XMLID_828_">
		<polyline id="XMLID_246_" class="st11" points="706.9,104.4 720.1,1.4 710.4,1.4 		"/>
		<path id="XMLID_247_" class="st12" d="M706.9,104.9C706.9,104.9,706.9,104.9,706.9,104.9c-0.3,0-0.5-0.3-0.5-0.6L719.5,1.9h-9.1
			c-0.3,0-0.5-0.2-0.5-0.5s0.2-0.5,0.5-0.5h9.7c0.1,0,0.3,0.1,0.4,0.2c0.1,0.1,0.1,0.2,0.1,0.4l-13.2,102.9
			C707.4,104.7,707.2,104.9,706.9,104.9z"/>
	</g>
	<g id="XMLID_825_">
		<line id="XMLID_244_" class="st11" x1="690" y1="1.3" x2="682.3" y2="60.9"/>
		<path id="XMLID_245_" class="st12" d="M682.3,61.4C682.3,61.4,682.3,61.4,682.3,61.4c-0.3,0-0.5-0.3-0.5-0.6l7.6-59.6
			c0-0.3,0.3-0.5,0.6-0.4c0.3,0,0.5,0.3,0.4,0.6L682.8,61C682.8,61.2,682.6,61.4,682.3,61.4z"/>
	</g>
	<g id="XMLID_822_">
		<path id="XMLID_242_" class="st11" d="M806.5,6.3c-2-1-4-1.7-6.1-2.4"/>
		<path id="XMLID_243_" class="st12" d="M806.5,6.8c-0.1,0-0.2,0-0.2-0.1c-1.9-0.9-3.9-1.7-6-2.3C800,4.3,799.9,4,800,3.8
			c0.1-0.3,0.4-0.4,0.7-0.3c2.2,0.7,4.2,1.5,6.2,2.4c0.3,0.1,0.4,0.4,0.2,0.7C806.9,6.7,806.7,6.8,806.5,6.8z"/>
	</g>
	<g id="XMLID_819_">
		<path id="XMLID_240_" class="st11" d="M806.5,6.3c4.9,2.4,9.5,5.8,13.3,10.8c6.5,8.5,7.8,18.9,7.8,28.1c0,17.7-5.2,31.2-16.5,42.3
			c-14.5,14.3-31.7,16.8-44.9,16.8h-12.6"/>
		<path id="XMLID_241_" class="st12" d="M766.3,104.9h-12.6c-0.3,0-0.5-0.2-0.5-0.5c0-0.3,0.2-0.5,0.5-0.5h12.6c8.2,0,15.3-1,21.8-3
			c8.6-2.7,16.3-7.3,22.7-13.6c11.1-11,16.3-24.3,16.3-41.9c0-7.6-0.8-18.7-7.8-27.9c-3.4-4.5-7.8-8.1-13.1-10.7
			c-0.3-0.1-0.4-0.4-0.2-0.7c0.1-0.2,0.4-0.3,0.7-0.2c5.5,2.6,10,6.3,13.5,11c7.1,9.4,7.9,20.7,7.9,28.4c0,17.9-5.3,31.5-16.6,42.6
			C800.1,99.3,785.2,104.9,766.3,104.9z"/>
	</g>
	<g id="XMLID_816_">
		<path id="XMLID_238_" class="st11" d="M800.5,3.9c-2.8-0.9-5.6-1.5-8.3-1.9"/>
		<path id="XMLID_239_" class="st12" d="M800.5,4.4c-0.1,0-0.1,0-0.2,0c-2.5-0.8-5.3-1.4-8.2-1.8c-0.3,0-0.5-0.3-0.4-0.6
			c0-0.3,0.3-0.5,0.6-0.4c2.9,0.4,5.8,1.1,8.3,1.9c0.3,0.1,0.4,0.4,0.3,0.6C800.9,4.3,800.7,4.4,800.5,4.4z"/>
	</g>
	<g id="XMLID_813_">
		<path id="XMLID_236_" class="st11" d="M760.7,79.6h2.4c8.9,0,17.7-1.6,24.9-8.5c7.5-7.2,8.6-15.3,8.6-21.5
			c0-9.3-2.9-14.4-5.5-17.1c-2.6-2.7-8.5-6.5-21.2-6.5h-3.4l-3.2,25.7"/>
		<path id="XMLID_237_" class="st12" d="M763.1,80.1h-2.4c-0.3,0-0.5-0.2-0.5-0.5c0-0.3,0.2-0.5,0.5-0.5h2.4
			c10.9,0,18.5-2.6,24.6-8.4c7.6-7.3,8.5-15.6,8.5-21.2c0-9.3-2.9-14.3-5.4-16.8c-2.8-2.9-8.8-6.3-20.9-6.3h-2.9l-3.2,25.3
			c0,0.3-0.3,0.5-0.6,0.4c-0.3,0-0.5-0.3-0.5-0.6l3.2-25.7c0-0.2,0.3-0.4,0.5-0.4h3.4c12.5,0,18.6,3.6,21.6,6.6
			c2.6,2.6,5.7,7.8,5.7,17.4c0,5.8-0.9,14.3-8.8,21.9C780.3,79.1,770.6,80.1,763.1,80.1z"/>
	</g>
	<g id="XMLID_810_">
		<line id="XMLID_234_" class="st11" x1="741.4" y1="104.4" x2="743.6" y2="104.4"/>
		<path id="XMLID_235_" class="st12" d="M743.6,104.9h-2.2c-0.3,0-0.5-0.2-0.5-0.5c0-0.3,0.2-0.5,0.5-0.5h2.2c0.3,0,0.5,0.2,0.5,0.5
			C744.1,104.6,743.9,104.9,743.6,104.9z"/>
	</g>
	<g id="XMLID_807_">
		<polyline id="XMLID_232_" class="st11" points="739.5,1.2 726.3,104.4 726.9,104.4 		"/>
		<path id="XMLID_233_" class="st12" d="M726.9,104.9h-0.6c-0.1,0-0.3-0.1-0.4-0.2c-0.1-0.1-0.1-0.2-0.1-0.4L739,1.2
			c0-0.3,0.3-0.5,0.6-0.4c0.3,0,0.5,0.3,0.4,0.6l-13.2,102.6h0.1c0.3,0,0.5,0.2,0.5,0.5C727.4,104.6,727.2,104.9,726.9,104.9z"/>
	</g>
	<g id="XMLID_804_">
		<path id="XMLID_230_" class="st11" d="M739.5,1.2h39.4c3.6,0,8.3,0.1,13.3,0.8"/>
		<path id="XMLID_231_" class="st12" d="M792.2,2.6C792.2,2.6,792.1,2.6,792.2,2.6c-5.1-0.8-9.8-0.8-13.3-0.8h-39.4
			c-0.3,0-0.5-0.2-0.5-0.5s0.2-0.5,0.5-0.5h39.4c3.6,0,8.3,0.1,13.4,0.9c0.3,0,0.5,0.3,0.4,0.6C792.7,2.4,792.4,2.6,792.2,2.6z"/>
	</g>
	<g id="XMLID_801_">
		<line id="XMLID_228_" class="st11" x1="599.2" y1="104.2" x2="599.2" y2="104.2"/>
		<path id="XMLID_229_" class="st12" d="M599.2,104.2"/>
	</g>
	<g id="XMLID_798_">
		<path id="XMLID_226_" class="st11" d="M599.2,104.2h0.1c0.1-0.6,0.2-1.3,0.1-1.9"/>
		<path id="XMLID_227_" class="st12" d="M599.3,104.7h-0.1c-0.3,0-0.5-0.2-0.5-0.5c0-0.2,0.1-0.3,0.2-0.4c0.1-0.5,0.1-1,0.1-1.5
			c0-0.3,0.2-0.5,0.5-0.5c0.3,0,0.5,0.2,0.6,0.4c0.1,0.6,0,1.3-0.1,2.1C599.8,104.6,599.6,104.7,599.3,104.7z"/>
	</g>
	<g id="XMLID_795_">
		<polyline id="XMLID_224_" class="st11" points="583.8,2.1 578.9,94.1 580.6,94.7 		"/>
		<path id="XMLID_225_" class="st12" d="M580.6,95.2c-0.1,0-0.1,0-0.2,0l-1.6-0.6c-0.2-0.1-0.3-0.3-0.3-0.5l4.8-92
			c0-0.3,0.3-0.5,0.5-0.5c0.3,0,0.5,0.2,0.5,0.5l-4.8,91.7l1.3,0.5c0.3,0.1,0.4,0.4,0.3,0.6C581,95.1,580.8,95.2,580.6,95.2z"/>
	</g>
	<g id="XMLID_792_">
		<line id="XMLID_222_" class="st11" x1="590.5" y1="98.6" x2="599.4" y2="102.1"/>
		<path id="XMLID_223_" class="st12" d="M599.4,102.6c-0.1,0-0.1,0-0.2,0l-8.9-3.5c-0.3-0.1-0.4-0.4-0.3-0.6
			c0.1-0.3,0.4-0.4,0.7-0.3l8.9,3.5c0.3,0.1,0.4,0.4,0.3,0.6C599.8,102.5,599.6,102.6,599.4,102.6z"/>
	</g>
	<g id="XMLID_789_">
		<line id="XMLID_220_" class="st11" x1="580.6" y1="94.7" x2="590.5" y2="98.6"/>
		<path id="XMLID_221_" class="st12" d="M590.5,99.1c-0.1,0-0.1,0-0.2,0l-9.9-3.9c-0.3-0.1-0.4-0.4-0.3-0.6c0.1-0.3,0.4-0.4,0.7-0.3
			l9.9,3.9c0.3,0.1,0.4,0.4,0.3,0.6C590.9,99,590.7,99.1,590.5,99.1z"/>
	</g>
	<g id="XMLID_786_">
		<line id="XMLID_218_" class="st11" x1="583.8" y1="2.1" x2="583.8" y2="1.3"/>
		<path id="XMLID_219_" class="st12" d="M583.8,2.6C583.7,2.6,583.7,2.6,583.8,2.6c-0.3,0-0.5-0.2-0.5-0.5l0-0.8
			c0-0.3,0.3-0.5,0.5-0.5c0.3,0,0.5,0.2,0.5,0.5l0,0.8C584.3,2.4,584,2.6,583.8,2.6z"/>
	</g>
	<g id="XMLID_783_">
		<line id="XMLID_216_" class="st11" x1="569" y1="104.2" x2="598.9" y2="104.2"/>
		<path id="XMLID_217_" class="st12" d="M598.9,104.7H569c-0.3,0-0.5-0.2-0.5-0.5s0.2-0.5,0.5-0.5h29.9c0.3,0,0.5,0.2,0.5,0.5
			S599.2,104.7,598.9,104.7z"/>
	</g>
	<g id="XMLID_780_">
		<line id="XMLID_214_" class="st11" x1="598.9" y1="104.2" x2="599.2" y2="104.2"/>
		<path id="XMLID_215_" class="st12" d="M599.2,104.7h-0.3c-0.3,0-0.5-0.2-0.5-0.5s0.2-0.5,0.5-0.5h0.3c0.3,0,0.5,0.2,0.5,0.5
			S599.5,104.7,599.2,104.7z"/>
	</g>
	<g id="XMLID_777_">
		<path id="XMLID_212_" class="st11" d="M599.4,102.1C599.4,102.1,599.4,102.2,599.4,102.1"/>
		<path id="XMLID_213_" class="st12" d="M599.4,102.7c-0.3,0-0.5-0.2-0.5-0.4l0-0.1c0-0.3,0.2-0.5,0.4-0.6c0.3,0,0.5,0.1,0.6,0.4
			l0,0.1C600,102.4,599.8,102.6,599.4,102.7C599.5,102.7,599.4,102.7,599.4,102.7z"/>
	</g>
	<g id="XMLID_774_">
		<path id="XMLID_210_" class="st11" d="M599.4,102.2c0,0,0,0.1,0,0.1"/>
		<path id="XMLID_211_" class="st12" d="M599.4,102.8c-0.3,0-0.5-0.2-0.5-0.4l0-0.1c0-0.3,0.2-0.5,0.5-0.5c0.3,0,0.5,0.2,0.6,0.4
			l0,0.1C600,102.5,599.8,102.8,599.4,102.8C599.5,102.8,599.5,102.8,599.4,102.8z"/>
	</g>
	<g id="XMLID_771_">
		<line id="XMLID_208_" class="st11" x1="599.4" y1="102.3" x2="599.4" y2="102.3"/>
		<path id="XMLID_209_" class="st12" d="M599.4,102.8c-0.2,0-0.4-0.2-0.5-0.4c-0.1-0.2,0.1-0.5,0.3-0.6c0.3-0.1,0.6,0,0.7,0.2
			c0,0.1,0.1,0.1,0.1,0.2C599.9,102.6,599.7,102.8,599.4,102.8z"/>
	</g>
	<g id="XMLID_768_">
		<line id="XMLID_206_" class="st11" x1="583.8" y1="1.3" x2="582.2" y2="1.3"/>
		<path id="XMLID_207_" class="st12" d="M583.8,1.8h-1.6c-0.3,0-0.5-0.2-0.5-0.5s0.2-0.5,0.5-0.5h1.6c0.3,0,0.5,0.2,0.5,0.5
			S584.1,1.8,583.8,1.8z"/>
	</g>
	<g id="XMLID_765_">
		<line id="XMLID_204_" class="st11" x1="569" y1="104.2" x2="582.2" y2="1.3"/>
		<path id="XMLID_205_" class="st12" d="M569,104.7C569,104.7,569,104.7,569,104.7c-0.3,0-0.5-0.3-0.5-0.6l13.2-103
			c0-0.3,0.3-0.5,0.6-0.4c0.3,0,0.5,0.3,0.4,0.6l-13.2,103C569.5,104.6,569.3,104.7,569,104.7z"/>
	</g>
	<g id="XMLID_762_">
		<line id="XMLID_202_" class="st11" x1="599.2" y1="104.1" x2="599.4" y2="102.3"/>
		<path id="XMLID_203_" class="st12" d="M599.2,104.6C599.2,104.6,599.2,104.6,599.2,104.6c-0.3,0-0.5-0.3-0.5-0.6l0.2-1.8
			c0-0.3,0.3-0.5,0.6-0.4c0.3,0,0.5,0.3,0.4,0.6l-0.2,1.8C599.7,104.5,599.5,104.6,599.2,104.6z"/>
	</g>
	<g id="XMLID_759_">
		<line id="XMLID_200_" class="st11" x1="599.2" y1="104.2" x2="599.2" y2="104.1"/>
		<path id="XMLID_201_" class="st12" d="M599.2,104.7C599.2,104.7,599.1,104.7,599.2,104.7c-0.3,0-0.5-0.3-0.5-0.6l0-0.1
			c0-0.3,0.3-0.5,0.6-0.4c0.3,0,0.5,0.3,0.4,0.6l0,0.1C599.7,104.6,599.4,104.7,599.2,104.7z"/>
	</g>
	<g id="XMLID_757_">
		<path id="XMLID_268_" class="st13" d="M606.2,49.2"/>
	</g>
	<g id="XMLID_755_">
		<path id="XMLID_267_" class="st13" d="M606.8,44.6"/>
	</g>
	<g id="XMLID_752_">
		<line id="XMLID_198_" class="st11" x1="620.8" y1="71.7" x2="606.2" y2="49.2"/>
		<path id="XMLID_199_" class="st12" d="M620.8,72.2c-0.2,0-0.3-0.1-0.4-0.2l-14.6-22.4c-0.2-0.2-0.1-0.5,0.2-0.7
			c0.2-0.1,0.6-0.1,0.7,0.2l14.6,22.4c0.2,0.2,0.1,0.5-0.2,0.7C621,72.1,620.9,72.2,620.8,72.2z"/>
	</g>
	<g id="XMLID_749_">
		<polyline id="XMLID_196_" class="st11" points="620.8,71.7 617,80 631.8,104.2 642,104.2 		"/>
		<path id="XMLID_197_" class="st12" d="M642,104.7h-10.2c-0.2,0-0.4-0.1-0.4-0.2l-14.8-24.2c-0.1-0.1-0.1-0.3,0-0.4l3.8-8.4
			c0.1-0.3,0.4-0.4,0.7-0.3c0.3,0.1,0.4,0.4,0.3,0.7l-3.7,8.1l14.5,23.7h9.9c0.3,0,0.5,0.2,0.5,0.5S642.2,104.7,642,104.7z"/>
	</g>
	<g id="XMLID_746_">
		<line id="XMLID_194_" class="st11" x1="677.2" y1="100.8" x2="677.2" y2="100.8"/>
		<path id="XMLID_195_" class="st12" d="M677.2,101.3c-0.1,0-0.3-0.1-0.4-0.2c-0.2-0.2-0.1-0.5,0.1-0.7l0,0c0.2-0.2,0.5-0.1,0.7,0.1
			c0.2,0.2,0.1,0.5-0.1,0.7l0,0C677.4,101.3,677.3,101.3,677.2,101.3z"/>
	</g>
	<g id="XMLID_743_">
		<line id="XMLID_192_" class="st11" x1="677.2" y1="100.8" x2="682.3" y2="60.9"/>
		<path id="XMLID_193_" class="st12" d="M677.2,101.3C677.1,101.3,677.1,101.3,677.2,101.3c-0.3,0-0.5-0.3-0.5-0.6l5.2-39.9
			c0-0.3,0.3-0.5,0.6-0.4c0.3,0,0.5,0.3,0.4,0.6l-5.2,39.9C677.6,101.1,677.4,101.3,677.2,101.3z"/>
	</g>
	<g id="XMLID_740_">
		<line id="XMLID_190_" class="st11" x1="710.4" y1="1.4" x2="707.3" y2="1.4"/>
		<path id="XMLID_191_" class="st12" d="M710.4,1.9h-3.1c-0.3,0-0.5-0.2-0.5-0.5s0.2-0.5,0.5-0.5h3.1c0.3,0,0.5,0.2,0.5,0.5
			S710.7,1.9,710.4,1.9z"/>
	</g>
	<g id="XMLID_737_">
		<line id="XMLID_188_" class="st11" x1="677.2" y1="100.8" x2="699.9" y2="82.8"/>
		<path id="XMLID_189_" class="st12" d="M677.2,101.3c-0.1,0-0.3-0.1-0.4-0.2c-0.2-0.2-0.2-0.5,0.1-0.7l22.8-18
			c0.2-0.2,0.5-0.1,0.7,0.1c0.2,0.2,0.2,0.5-0.1,0.7l-22.8,18C677.4,101.3,677.3,101.3,677.2,101.3z"/>
	</g>
	<g id="XMLID_734_">
		<line id="XMLID_186_" class="st11" x1="682.3" y1="60.9" x2="682.3" y2="60.9"/>
		<path id="XMLID_187_" class="st12" d="M682.3,61.4C682.3,61.4,682.3,61.4,682.3,61.4c-0.3,0-0.5-0.3-0.5-0.6l0,0
			c0-0.3,0.3-0.5,0.6-0.4c0.3,0,0.5,0.3,0.4,0.6l0,0C682.8,61.2,682.6,61.4,682.3,61.4z"/>
	</g>
	<g id="XMLID_731_">
		<line id="XMLID_184_" class="st11" x1="677.2" y1="100.8" x2="677.2" y2="100.8"/>
		<path id="XMLID_185_" class="st12" d="M677.2,101.3c-0.1,0-0.3-0.1-0.4-0.1c-0.1-0.1-0.1-0.2-0.1-0.3c0-0.1,0.1-0.3,0.1-0.4
			c0.2-0.2,0.5-0.2,0.7,0c0.1,0.1,0.2,0.2,0.2,0.4c0,0.1-0.1,0.3-0.2,0.3C677.5,101.2,677.3,101.3,677.2,101.3z"/>
	</g>
	<g id="XMLID_728_">
		<line id="XMLID_182_" class="st11" x1="677.2" y1="100.8" x2="682.3" y2="60.9"/>
		<path id="XMLID_183_" class="st12" d="M677.2,101.3C677.2,101.3,677.1,101.3,677.2,101.3c-0.3,0-0.5-0.3-0.5-0.6l5.1-39.9
			c0-0.3,0.3-0.5,0.6-0.4c0.3,0,0.5,0.3,0.4,0.6l-5.1,39.9C677.7,101.1,677.4,101.3,677.2,101.3z"/>
	</g>
	<g id="XMLID_725_">
		<polyline id="XMLID_180_" class="st11" points="726.9,104.4 726.9,104.4 741.3,104.4 741.4,104.4 		"/>
		<path id="XMLID_181_" class="st12" d="M741.3,104.9h-14.4c-0.2,0-0.3-0.1-0.4-0.2c-0.1-0.1-0.1-0.3-0.1-0.4l0-0.1
			c0.1-0.3,0.3-0.4,0.6-0.4c0.1,0,0.1,0,0.2,0.1h13.9c0.2-0.1,0.5-0.1,0.7,0.1c0.2,0.2,0.1,0.5-0.1,0.7l-0.1,0.1
			C741.6,104.9,741.4,104.9,741.3,104.9z"/>
	</g>
	<g id="XMLID_722_">
		<polyline id="XMLID_178_" class="st11" points="792.2,2.1 792.2,2.1 792.2,2.1 		"/>
		<path id="XMLID_179_" class="st12" d="M792.2,2.6c-0.3,0-0.5-0.2-0.5-0.5s0.2-0.5,0.5-0.5h0c0.3,0,0.5,0.2,0.5,0.5
			S792.5,2.6,792.2,2.6z"/>
	</g>
	<g id="XMLID_719_">
		<line id="XMLID_176_" class="st11" x1="753.8" y1="36.2" x2="792.2" y2="2.1"/>
		<path id="XMLID_177_" class="st12" d="M753.8,36.7c-0.1,0-0.3-0.1-0.4-0.2c-0.2-0.2-0.2-0.5,0-0.7l38.4-34.1
			c0.2-0.2,0.5-0.2,0.7,0c0.2,0.2,0.2,0.5,0,0.7l-38.4,34.1C754,36.6,753.9,36.7,753.8,36.7z"/>
	</g>
	<g id="XMLID_716_">
		<line id="XMLID_174_" class="st11" x1="741.4" y1="104.4" x2="743.9" y2="102.4"/>
		<path id="XMLID_175_" class="st12" d="M741.4,104.9c-0.2,0-0.3-0.1-0.4-0.2c-0.2-0.2-0.1-0.5,0.1-0.7l2.5-1.9
			c0.2-0.2,0.5-0.1,0.7,0.1c0.2,0.2,0.1,0.5-0.1,0.7l-2.5,1.9C741.7,104.8,741.6,104.9,741.4,104.9z"/>
	</g>
	<g id="XMLID_713_">
		<line id="XMLID_172_" class="st11" x1="726.9" y1="104.4" x2="746.4" y2="15.4"/>
		<path id="XMLID_173_" class="st12" d="M726.9,104.9c0,0-0.1,0-0.1,0c-0.3-0.1-0.5-0.3-0.4-0.6l19.5-89c0.1-0.3,0.3-0.4,0.6-0.4
			c0.3,0.1,0.5,0.3,0.4,0.6l-19.5,89C727.4,104.7,727.2,104.9,726.9,104.9z"/>
	</g>
	<g id="XMLID_710_">
		<line id="XMLID_170_" class="st11" x1="773.6" y1="1.3" x2="792.2" y2="2.1"/>
		<path id="XMLID_171_" class="st12" d="M792.2,2.6C792.2,2.6,792.2,2.6,792.2,2.6l-18.6-0.8c-0.3,0-0.5-0.2-0.5-0.5
			c0-0.3,0.3-0.5,0.5-0.5l18.6,0.8c0.3,0,0.5,0.2,0.5,0.5C792.7,2.4,792.5,2.6,792.2,2.6z"/>
	</g>
	<g id="XMLID_707_">
		<line id="XMLID_168_" class="st11" x1="726.9" y1="104.4" x2="741.4" y2="104.4"/>
		<path id="XMLID_169_" class="st12" d="M741.4,104.9h-14.5c-0.3,0-0.5-0.2-0.5-0.5c0-0.3,0.2-0.5,0.5-0.5h14.5
			c0.3,0,0.5,0.2,0.5,0.5C742,104.6,741.7,104.9,741.4,104.9z"/>
	</g>
	<g id="XMLID_704_">
		<line id="XMLID_166_" class="st11" x1="792.2" y1="2.1" x2="792.2" y2="2.1"/>
		<path id="XMLID_167_" class="st12" d="M792.2,2.6c-0.1,0-0.3-0.1-0.4-0.1c-0.1-0.1-0.2-0.2-0.2-0.3s0.1-0.3,0.2-0.4
			c0.2-0.2,0.5-0.2,0.7,0c0.1,0.1,0.1,0.2,0.1,0.4c0,0.1-0.1,0.3-0.1,0.3C792.5,2.5,792.3,2.6,792.2,2.6z"/>
	</g>
	<g id="XMLID_701_">
		<polyline id="XMLID_164_" class="st11" points="743.6,104.4 743.6,104.4 753.6,104.4 753.7,104.4 		"/>
		<path id="XMLID_165_" class="st12" d="M753.6,104.9h-10c-0.1,0-0.3-0.1-0.4-0.2c-0.1-0.1-0.1-0.3-0.1-0.4l0-0.1
			c0-0.3,0.3-0.5,0.6-0.4c0.1,0,0.2,0,0.2,0.1h9.5c0.2-0.1,0.4-0.1,0.6,0c0.2,0.2,0.2,0.5,0.1,0.7l-0.1,0.1
			C753.9,104.9,753.8,104.9,753.6,104.9z"/>
	</g>
	<g id="XMLID_698_">
		<path id="XMLID_162_" class="st11" d="M815.5,72.4c-0.1-2.5-0.3-5.4-0.7-8.5"/>
		<path id="XMLID_163_" class="st12" d="M815.5,72.9c-0.3,0-0.5-0.2-0.5-0.5c-0.1-2.4-0.3-5.2-0.7-8.4c0-0.3,0.2-0.5,0.4-0.6
			c0.3,0,0.5,0.2,0.6,0.4c0.4,3.2,0.7,6.1,0.8,8.5C816,72.7,815.8,72.9,815.5,72.9C815.5,72.9,815.5,72.9,815.5,72.9z"/>
	</g>
	<g id="XMLID_695_">
		<path id="XMLID_160_" class="st11" d="M815.5,73.1c0-0.2,0-0.4,0-0.6"/>
		<path id="XMLID_161_" class="st12" d="M815.5,73.5c-0.3,0-0.5-0.2-0.5-0.5c0-0.1,0-0.3,0-0.4l0-0.2c0-0.3,0.2-0.5,0.5-0.5
			c0.3,0,0.5,0.2,0.5,0.5l0,0.2c0,0.2,0,0.3,0,0.5C816.1,73.3,815.8,73.5,815.5,73.5C815.5,73.5,815.5,73.5,815.5,73.5z"/>
	</g>
	<g id="XMLID_692_">
		<path id="XMLID_158_" class="st11" d="M814.6,62.8c0.1,0.4,0.1,0.7,0.2,1.1"/>
		<path id="XMLID_159_" class="st12" d="M814.8,64.4c-0.3,0-0.5-0.2-0.5-0.4c0-0.4-0.1-0.7-0.1-1.1c0-0.3,0.2-0.5,0.4-0.6
			c0.3,0,0.5,0.2,0.6,0.4c0.1,0.4,0.1,0.7,0.2,1.1C815.3,64.1,815.1,64.4,814.8,64.4C814.8,64.4,814.8,64.4,814.8,64.4z"/>
	</g>
	<g id="XMLID_689_">
		<path id="XMLID_156_" class="st11" d="M810.9,43.1c0.2,0.8,0.4,1.6,0.5,2.4"/>
		<path id="XMLID_157_" class="st12" d="M811.4,45.9c-0.2,0-0.5-0.2-0.5-0.4c-0.2-0.8-0.3-1.6-0.5-2.4c-0.1-0.3,0.1-0.5,0.4-0.6
			c0.3-0.1,0.6,0.1,0.6,0.4c0.2,0.8,0.4,1.6,0.5,2.4c0.1,0.3-0.1,0.5-0.4,0.6C811.5,45.9,811.4,45.9,811.4,45.9z"/>
	</g>
	<g id="XMLID_686_">
		<path id="XMLID_154_" class="st11" d="M814.2,81.6c-0.2,0.4-0.5,0.7-0.7,0.9c-8.7,8.3-34.7,5.8-45.4,5.8l-14.3,16.1"/>
		<path id="XMLID_155_" class="st12" d="M753.7,104.9c-0.1,0-0.2,0-0.3-0.1c-0.2-0.2-0.2-0.5-0.1-0.7L767.7,88
			c0.1-0.1,0.2-0.2,0.4-0.2c1.8,0,4,0.1,6.5,0.1c12.5,0.4,31.5,1,38.6-5.8c0.2-0.2,0.4-0.5,0.6-0.8c0.1-0.2,0.5-0.3,0.7-0.2
			c0.2,0.1,0.3,0.4,0.2,0.7c-0.2,0.4-0.5,0.8-0.8,1.1c-7.4,7.1-26.6,6.5-39.3,6.1c-2.4-0.1-4.5-0.1-6.2-0.1l-14.2,15.9
			C754,104.8,753.9,104.9,753.7,104.9z"/>
	</g>
	<g id="XMLID_683_">
		<path id="XMLID_152_" class="st11" d="M810.7,43.7c0.1-0.2,0.1-0.4,0.2-0.6"/>
		<path id="XMLID_153_" class="st12" d="M810.7,44.2c-0.1,0-0.1,0-0.2,0c-0.3-0.1-0.4-0.4-0.3-0.6c0.1-0.2,0.2-0.4,0.2-0.6
			c0.1-0.3,0.4-0.4,0.7-0.3c0.3,0.1,0.4,0.4,0.3,0.6c-0.1,0.2-0.1,0.3-0.2,0.5C811.1,44,810.9,44.2,810.7,44.2z"/>
	</g>
	<g id="XMLID_680_">
		<path id="XMLID_150_" class="st11" d="M810.7,43.7c-1.2,3.5-1.8,11.6-1.8,14.4l-65,44.4"/>
		<path id="XMLID_151_" class="st12" d="M743.9,102.9c-0.2,0-0.3-0.1-0.4-0.2c-0.2-0.2-0.1-0.5,0.1-0.7l64.8-44.2
			c0-3,0.6-10.9,1.8-14.3c0.1-0.3,0.4-0.4,0.6-0.3c0.3,0.1,0.4,0.4,0.3,0.6c-1.1,3.4-1.7,11.5-1.7,14.2c0,0.2-0.1,0.3-0.2,0.4
			l-65,44.4C744.1,102.9,744,102.9,743.9,102.9z"/>
	</g>
	<g id="XMLID_677_">
		<line id="XMLID_148_" class="st11" x1="753.7" y1="104.4" x2="743.6" y2="104.4"/>
		<path id="XMLID_149_" class="st12" d="M753.7,104.9h-10.1c-0.3,0-0.5-0.2-0.5-0.5c0-0.3,0.2-0.5,0.5-0.5h10.1
			c0.3,0,0.5,0.2,0.5,0.5C754.2,104.6,754,104.9,753.7,104.9z"/>
	</g>
	<g id="XMLID_674_">
		<line id="XMLID_146_" class="st11" x1="800.5" y1="3.9" x2="800.5" y2="3.9"/>
		<path id="XMLID_147_" class="st12" d="M800.5,4.4c-0.1,0-0.1,0-0.2,0l0,0C800,4.3,799.9,4,800,3.7c0.1-0.3,0.4-0.4,0.7-0.3
			c0.3,0.1,0.4,0.4,0.3,0.6C800.9,4.3,800.7,4.4,800.5,4.4z"/>
	</g>
	<g id="XMLID_671_">
		<path id="XMLID_144_" class="st11" d="M810.9,43.1c0-0.1,0-0.2-0.1-0.3"/>
		<path id="XMLID_145_" class="st12" d="M810.9,43.6c-0.2,0-0.5-0.2-0.5-0.4l-0.1-0.3c-0.1-0.3,0.1-0.5,0.4-0.6
			c0.3-0.1,0.6,0.1,0.6,0.4l0.1,0.3c0.1,0.3-0.1,0.5-0.4,0.6C810.9,43.6,810.9,43.6,810.9,43.6z"/>
	</g>
	<g id="XMLID_668_">
		<path id="XMLID_142_" class="st11" d="M814.9,34.3c-0.4,1-0.9,2-1.4,3.1"/>
		<path id="XMLID_143_" class="st12" d="M813.5,37.8c-0.1,0-0.1,0-0.2,0c-0.3-0.1-0.4-0.4-0.3-0.7c0.4-0.9,0.9-2,1.4-3
			c0.1-0.3,0.4-0.4,0.7-0.3c0.3,0.1,0.4,0.4,0.3,0.6c-0.5,1.1-1,2.2-1.4,3.1C813.9,37.7,813.7,37.8,813.5,37.8z"/>
	</g>
	<g id="XMLID_665_">
		<path id="XMLID_140_" class="st11" d="M810.9,43.1c0.2-0.6,0.5-1.1,0.8-1.7"/>
		<path id="XMLID_141_" class="st12" d="M810.9,43.6c-0.1,0-0.1,0-0.2,0c-0.3-0.1-0.4-0.4-0.3-0.6c0.2-0.5,0.4-1,0.8-1.7
			c0.1-0.3,0.4-0.4,0.7-0.3c0.3,0.1,0.4,0.4,0.3,0.7c-0.3,0.7-0.5,1.2-0.7,1.7C811.3,43.5,811.1,43.6,810.9,43.6z"/>
	</g>
	<g id="XMLID_662_">
		<path id="XMLID_138_" class="st11" d="M813.5,37.4c-0.6,1.3-1.3,2.7-1.9,4"/>
		<path id="XMLID_139_" class="st12" d="M811.6,41.9c-0.1,0-0.1,0-0.2,0c-0.3-0.1-0.4-0.4-0.3-0.7c0.4-1,0.9-2,1.4-3l0.5-1.1
			c0.1-0.2,0.4-0.4,0.7-0.2c0.3,0.1,0.4,0.4,0.3,0.7l-0.5,1.1c-0.5,1-0.9,2-1.4,3C812,41.8,811.8,41.9,811.6,41.9z"/>
	</g>
	<g id="XMLID_659_">
		<line id="XMLID_136_" class="st11" x1="800.5" y1="3.9" x2="806.5" y2="6.3"/>
		<path id="XMLID_137_" class="st12" d="M806.5,6.8c-0.1,0-0.1,0-0.2,0l-6.1-2.4C800,4.3,799.9,4,800,3.7c0.1-0.3,0.4-0.4,0.7-0.3
			l6.1,2.4c0.3,0.1,0.4,0.4,0.3,0.6C806.9,6.7,806.7,6.8,806.5,6.8z"/>
	</g>
	<g id="XMLID_656_">
		<line id="XMLID_134_" class="st11" x1="800.5" y1="3.9" x2="800.5" y2="3.9"/>
		<path id="XMLID_135_" class="st12" d="M800.5,4.4c-0.1,0-0.1,0-0.2,0c0,0,0,0-0.1,0C800,4.3,799.9,4,800,3.7
			c0.1-0.2,0.4-0.3,0.6-0.2c0,0,0,0,0,0c0.3,0.1,0.4,0.4,0.3,0.6C800.9,4.3,800.7,4.4,800.5,4.4z"/>
	</g>
	<g id="XMLID_654_">
		<line id="XMLID_133_" class="st11" x1="806.5" y1="6.3" x2="806.5" y2="6.3"/>
	</g>
	<g id="XMLID_651_">
		<path id="XMLID_131_" class="st11" d="M815.4,18.6c0.4,0.6,0.8,1.2,1,1.9"/>
		<path id="XMLID_132_" class="st12" d="M816.4,20.9c-0.2,0-0.4-0.1-0.5-0.3c-0.3-0.6-0.6-1.2-1-1.8c-0.2-0.2-0.1-0.5,0.2-0.7
			c0.2-0.1,0.6-0.1,0.7,0.1c0.4,0.6,0.8,1.3,1.1,2c0.1,0.3,0,0.5-0.3,0.6C816.6,20.9,816.5,20.9,816.4,20.9z"/>
	</g>
	<g id="XMLID_648_">
		<line id="XMLID_129_" class="st11" x1="583.8" y1="1.3" x2="584" y2="2.5"/>
		<path id="XMLID_130_" class="st12" d="M584,3c-0.3,0-0.5-0.2-0.5-0.4l-0.2-1.2c0-0.3,0.2-0.5,0.4-0.6c0.3,0,0.5,0.1,0.6,0.4
			l0.2,1.2C584.5,2.7,584.3,3,584,3C584,3,584,3,584,3z"/>
	</g>
	<g id="XMLID_645_">
		<line id="XMLID_127_" class="st11" x1="584" y1="2.5" x2="599.4" y2="102.1"/>
		<path id="XMLID_128_" class="st12" d="M599.4,102.6c-0.3,0-0.5-0.2-0.5-0.4L583.5,2.6c0-0.3,0.2-0.5,0.4-0.6
			c0.3,0,0.5,0.1,0.6,0.4l15.4,99.6C600,102.3,599.8,102.6,599.4,102.6C599.5,102.6,599.4,102.6,599.4,102.6z"/>
	</g>
	<g id="XMLID_642_">
		<polyline id="XMLID_125_" class="st11" points="633.4,52.8 633.4,52.8 634.4,50.3 		"/>
		<path id="XMLID_126_" class="st12" d="M633.4,53.3c-0.1,0-0.1,0-0.2,0c-0.3-0.1-0.4-0.4-0.3-0.6l0.9-2.4c0.1-0.3,0.4-0.4,0.7-0.3
			c0.3,0.1,0.4,0.4,0.3,0.6l-0.9,2.4C633.8,53.1,633.7,53.3,633.4,53.3z"/>
	</g>
	<g id="XMLID_639_">
		<polyline id="XMLID_123_" class="st11" points="633.4,52.8 632.9,51.9 634.4,50.3 		"/>
		<path id="XMLID_124_" class="st12" d="M633.4,53.3c-0.2,0-0.3-0.1-0.4-0.2l-0.6-0.8c-0.1-0.2-0.1-0.4,0-0.6L634,50
			c0.2-0.2,0.5-0.2,0.7,0s0.2,0.5,0,0.7l-1.2,1.3l0.4,0.5c0.2,0.2,0.1,0.5-0.2,0.7C633.6,53.2,633.5,53.3,633.4,53.3z"/>
	</g>
	<g id="XMLID_636_">
		<line id="XMLID_121_" class="st11" x1="707.3" y1="1.4" x2="699.6" y2="1.3"/>
		<path id="XMLID_122_" class="st12" d="M707.3,1.9C707.3,1.9,707.3,1.9,707.3,1.9l-7.8-0.1c-0.3,0-0.5-0.2-0.5-0.5
			c0-0.3,0.2-0.5,0.5-0.5c0,0,0,0,0,0l7.8,0.1c0.3,0,0.5,0.2,0.5,0.5C707.8,1.7,707.6,1.9,707.3,1.9z"/>
	</g>
	<g id="XMLID_633_">
		<line id="XMLID_119_" class="st11" x1="698.1" y1="1.3" x2="690" y2="1.3"/>
		<path id="XMLID_120_" class="st12" d="M698.1,1.8H690c-0.3,0-0.5-0.2-0.5-0.5s0.2-0.5,0.5-0.5h8.1c0.3,0,0.5,0.2,0.5,0.5
			S698.3,1.8,698.1,1.8z"/>
	</g>
	<g id="XMLID_630_">
		<line id="XMLID_117_" class="st11" x1="698.1" y1="1.3" x2="699.6" y2="1.3"/>
		<path id="XMLID_118_" class="st12" d="M699.6,1.8C699.6,1.8,699.6,1.8,699.6,1.8l-1.5,0c-0.3,0-0.5-0.2-0.5-0.5
			c0-0.3,0.2-0.5,0.5-0.5c0,0,0,0,0,0l1.5,0c0.3,0,0.5,0.2,0.5,0.5C700.1,1.6,699.8,1.8,699.6,1.8z"/>
	</g>
	<g id="XMLID_627_">
		<line id="XMLID_115_" class="st11" x1="682.3" y1="60.9" x2="690" y2="1.3"/>
		<path id="XMLID_116_" class="st12" d="M682.3,61.3C682.3,61.3,682.3,61.3,682.3,61.3c-0.3,0-0.5-0.3-0.5-0.6l7.6-59.5
			c0-0.3,0.3-0.5,0.6-0.4c0.3,0,0.5,0.3,0.4,0.6l-7.6,59.5C682.8,61.2,682.6,61.3,682.3,61.3z"/>
	</g>
	<g id="XMLID_624_">
		<line id="XMLID_113_" class="st11" x1="707.3" y1="1.4" x2="682.3" y2="60.9"/>
		<path id="XMLID_114_" class="st12" d="M682.3,61.3c-0.1,0-0.1,0-0.2,0c-0.3-0.1-0.4-0.4-0.3-0.6l25-59.4c0.1-0.3,0.4-0.4,0.7-0.3
			c0.3,0.1,0.4,0.4,0.3,0.6l-25,59.4C682.7,61.2,682.5,61.3,682.3,61.3z"/>
	</g>
	<g id="XMLID_621_">
		<path id="XMLID_111_" class="st11" d="M707.3,1.4h-7.2c-0.2,0-0.4,0-0.5-0.1"/>
		<path id="XMLID_112_" class="st12" d="M707.3,1.9h-7.2c-0.2,0-0.5,0-0.7-0.1c-0.3-0.1-0.4-0.4-0.3-0.6c0.1-0.3,0.4-0.4,0.7-0.3
			c0.1,0,0.2,0.1,0.3,0.1h7.2c0.3,0,0.5,0.2,0.5,0.5S707.6,1.9,707.3,1.9z"/>
	</g>
	<g id="XMLID_616_">
		<polyline id="XMLID_107_" class="st11" points="710.4,1.4 704.7,45.4 715.5,37.5 710.4,1.4 		"/>
		<path id="XMLID_108_" class="st12" d="M704.7,45.9c-0.1,0-0.2,0-0.3-0.1c-0.2-0.1-0.3-0.3-0.3-0.5l5.6-44c0-0.2,0.2-0.4,0.5-0.4
			c0,0,0,0,0,0c0.3,0,0.5,0.2,0.5,0.4l5.1,36.1c0,0.2-0.1,0.4-0.2,0.5l-10.7,7.9C705,45.9,704.8,45.9,704.7,45.9z M710.4,5.3l-5,39
			l9.5-7L710.4,5.3z"/>
	</g>
	<g id="XMLID_613_">
		<polyline id="XMLID_105_" class="st11" points="699.9,82.8 686.5,104.2 706.9,104.4 		"/>
		<path id="XMLID_106_" class="st12" d="M706.9,104.9C706.9,104.9,706.9,104.9,706.9,104.9l-20.4-0.1c-0.2,0-0.4-0.1-0.4-0.3
			c-0.1-0.2-0.1-0.3,0-0.5l13.4-21.4c0.1-0.2,0.5-0.3,0.7-0.2c0.2,0.1,0.3,0.4,0.2,0.7l-13,20.7l19.5,0.1c0.3,0,0.5,0.2,0.5,0.5
			C707.4,104.6,707.2,104.9,706.9,104.9z"/>
	</g>
	<g id="XMLID_610_">
		<line id="XMLID_103_" class="st11" x1="706.9" y1="104.4" x2="699.9" y2="82.8"/>
		<path id="XMLID_104_" class="st12" d="M706.9,104.9c-0.2,0-0.4-0.1-0.5-0.3l-7-21.6c-0.1-0.3,0.1-0.5,0.3-0.6
			c0.3-0.1,0.6,0.1,0.6,0.3l7,21.6c0.1,0.3-0.1,0.5-0.3,0.6C707,104.9,706.9,104.9,706.9,104.9z"/>
	</g>
	<g id="XMLID_607_">
		<line id="XMLID_101_" class="st11" x1="739.5" y1="1.2" x2="746.4" y2="15.4"/>
		<path id="XMLID_102_" class="st12" d="M746.4,15.9c-0.2,0-0.4-0.1-0.5-0.3l-6.9-14.2c-0.1-0.2,0-0.5,0.2-0.7
			c0.3-0.1,0.6,0,0.7,0.2l6.9,14.2c0.1,0.2,0,0.5-0.2,0.7C746.6,15.9,746.5,15.9,746.4,15.9z"/>
	</g>
	<g id="XMLID_604_">
		<line id="XMLID_99_" class="st11" x1="739.5" y1="1.2" x2="773.6" y2="1.3"/>
		<path id="XMLID_100_" class="st12" d="M773.6,1.8C773.6,1.8,773.6,1.8,773.6,1.8l-34.1,0c-0.3,0-0.5-0.2-0.5-0.5
			c0-0.3,0.2-0.5,0.5-0.5c0,0,0,0,0,0l34.1,0c0.3,0,0.5,0.2,0.5,0.5C774.1,1.5,773.9,1.8,773.6,1.8z"/>
	</g>
	<g id="XMLID_601_">
		<line id="XMLID_97_" class="st11" x1="746.4" y1="15.4" x2="773.6" y2="1.3"/>
		<path id="XMLID_98_" class="st12" d="M746.4,15.9c-0.2,0-0.4-0.1-0.5-0.3c-0.1-0.2,0-0.5,0.2-0.7l27.2-14.1c0.3-0.1,0.6,0,0.7,0.2
			c0.1,0.2,0,0.5-0.2,0.7l-27.2,14.1C746.6,15.9,746.5,15.9,746.4,15.9z"/>
	</g>
	<g id="XMLID_598_">
		<polyline id="XMLID_95_" class="st11" points="763.2,51.7 763.2,51.7 753.8,36.2 		"/>
		<path id="XMLID_96_" class="st12" d="M763.2,52.2c-0.2,0-0.4-0.1-0.4-0.2l-9.4-15.5c-0.1-0.2-0.1-0.5,0.2-0.7
			c0.2-0.1,0.6-0.1,0.7,0.2l9.4,15.5c0.1,0.2,0.1,0.5-0.2,0.7C763.4,52.2,763.3,52.2,763.2,52.2z"/>
	</g>
	<g id="XMLID_595_">
		<polyline id="XMLID_93_" class="st11" points="763.2,51.7 759.7,79.6 760.7,79.6 		"/>
		<path id="XMLID_94_" class="st12" d="M760.7,80.1h-1c-0.1,0-0.3-0.1-0.4-0.2c-0.1-0.1-0.1-0.2-0.1-0.4l3.5-27.9
			c0-0.3,0.3-0.5,0.6-0.4c0.3,0,0.5,0.3,0.5,0.6l-3.5,27.4h0.4c0.3,0,0.5,0.2,0.5,0.5C761.2,79.9,760.9,80.1,760.7,80.1z"/>
	</g>
	<g id="XMLID_593_">
		<line id="XMLID_92_" class="st11" x1="800.5" y1="3.9" x2="800.5" y2="3.9"/>
	</g>
	<g id="XMLID_590_">
		<line id="XMLID_90_" class="st11" x1="810.9" y1="43.1" x2="810.8" y2="42.8"/>
		<path id="XMLID_91_" class="st12" d="M810.9,43.6c-0.2,0-0.4-0.1-0.5-0.4l-0.1-0.3c-0.1-0.3,0.1-0.5,0.4-0.6
			c0.3-0.1,0.6,0.1,0.6,0.4l0.1,0.3c0.1,0.3-0.1,0.5-0.4,0.6C811,43.6,810.9,43.6,810.9,43.6z"/>
	</g>
	<g id="XMLID_587_">
		<line id="XMLID_88_" class="st11" x1="810.9" y1="43.1" x2="810.7" y2="43"/>
		<path id="XMLID_89_" class="st12" d="M810.9,43.6c-0.1,0-0.2,0-0.3-0.1l-0.2-0.1c-0.2-0.2-0.3-0.5-0.1-0.7
			c0.2-0.2,0.5-0.3,0.7-0.1l0.2,0.1c0.2,0.2,0.3,0.5,0.1,0.7C811.2,43.5,811,43.6,810.9,43.6z"/>
	</g>
	<g id="XMLID_584_">
		<polyline id="XMLID_86_" class="st11" points="800.5,3.9 800.5,36.2 810.7,43 		"/>
		<path id="XMLID_87_" class="st12" d="M810.7,43.4c-0.1,0-0.2,0-0.3-0.1l-10.2-6.8c-0.1-0.1-0.2-0.2-0.2-0.4V3.9
			c0-0.3,0.2-0.5,0.5-0.5c0.3,0,0.5,0.2,0.5,0.5v32l10,6.6c0.2,0.2,0.3,0.5,0.1,0.7C811,43.4,810.9,43.4,810.7,43.4z"/>
	</g>
	<g id="XMLID_582_">
		<line id="XMLID_85_" class="st11" x1="800.5" y1="3.9" x2="800.5" y2="3.9"/>
	</g>
	<g id="XMLID_580_">
		<line id="XMLID_84_" class="st11" x1="800.5" y1="3.9" x2="800.5" y2="3.9"/>
	</g>
	<g id="XMLID_577_">
		<path id="XMLID_82_" class="st11" d="M812.4,39.9c0,0.1-0.1,0.1-0.1,0.1l0,0.1"/>
		<path id="XMLID_83_" class="st12" d="M812.3,40.6C812.3,40.6,812.3,40.6,812.3,40.6c-0.4-0.1-0.6-0.3-0.5-0.6l0-0.1
			c0-0.1,0-0.2,0.1-0.2c0,0,0,0,0.1-0.1c0.2-0.2,0.5-0.3,0.7-0.1c0.2,0.2,0.3,0.5,0.1,0.7c0,0,0,0,0,0
			C812.8,40.4,812.6,40.6,812.3,40.6z"/>
	</g>
	<g id="XMLID_574_">
		<path id="XMLID_80_" class="st11" d="M816.4,20.4c7.3,13.7,13.4,36-2.3,61.1l0,0"/>
		<path id="XMLID_81_" class="st12" d="M814.2,82.1c-0.1,0-0.2,0-0.3-0.1c-0.2-0.1-0.3-0.4-0.2-0.7c15.3-24.7,9.7-46.6,2.2-60.7
			c-0.1-0.2,0-0.5,0.2-0.7c0.3-0.1,0.6,0,0.7,0.2c7.6,14.3,13.3,36.6-2.3,61.6C814.5,82,814.4,82.1,814.2,82.1z"/>
	</g>
	<g id="XMLID_571_">
		<path id="XMLID_78_" class="st11" d="M815.4,18.6c-4.4-7.7-8.9-12.2-8.9-12.2"/>
		<path id="XMLID_79_" class="st12" d="M815.4,19c-0.2,0-0.4-0.1-0.5-0.3c-4.3-7.6-8.7-12.1-8.8-12.1c-0.2-0.2-0.2-0.5,0-0.7
			c0.2-0.2,0.5-0.2,0.7,0c0,0,4.6,4.6,8.9,12.4c0.1,0.2,0,0.5-0.2,0.7C815.6,19,815.5,19,815.4,19z"/>
	</g>
	<g id="XMLID_568_">
		<path id="XMLID_76_" class="st11" d="M814.6,62.8c-2.1-5.5-3.2-17.4-3.2-17.4l0,0"/>
		<path id="XMLID_77_" class="st12" d="M814.6,63.3c-0.2,0-0.4-0.1-0.5-0.3c-2.1-5.5-3.2-17-3.3-17.5c0-0.3,0.2-0.5,0.5-0.5
			c0.3,0,0.5,0.2,0.6,0.4c0,0.1,1.2,11.9,3.2,17.3c0.1,0.3,0,0.5-0.3,0.6C814.7,63.3,814.7,63.3,814.6,63.3z"/>
	</g>
	<g id="XMLID_565_">
		<path id="XMLID_74_" class="st11" d="M815.5,73.1c0,0.2,0,0.4-0.1,0.7"/>
		<path id="XMLID_75_" class="st12" d="M815.5,74.2C815.5,74.2,815.4,74.2,815.5,74.2c-0.3,0-0.5-0.3-0.5-0.5c0-0.2,0-0.4,0.1-0.7
			c0-0.3,0.3-0.5,0.6-0.4c0.3,0,0.5,0.3,0.5,0.5c0,0.2,0,0.4-0.1,0.7C816,74,815.7,74.2,815.5,74.2z"/>
	</g>
	<g id="XMLID_562_">
		<path id="XMLID_72_" class="st11" d="M814.2,81.6c0,0,0-0.2,0.1-0.5"/>
		<path id="XMLID_73_" class="st12" d="M814.2,82.1c0,0-0.1,0-0.1,0c-0.3-0.1-0.5-0.3-0.4-0.6c0,0,0-0.2,0.1-0.5
			c0.1-0.3,0.3-0.4,0.6-0.4c0.3,0.1,0.5,0.3,0.4,0.6c-0.1,0.4-0.1,0.5-0.1,0.5C814.6,81.9,814.4,82.1,814.2,82.1z"/>
	</g>
	<g id="XMLID_559_">
		<path id="XMLID_70_" class="st11" d="M814.2,81.6c1-1.8,1.4-4.7,1.4-8.5"/>
		<path id="XMLID_71_" class="st12" d="M814.2,82.1c-0.1,0-0.2,0-0.3-0.1c-0.2-0.1-0.3-0.4-0.2-0.7c0.9-1.6,1.4-4.4,1.3-8.3
			c0-0.3,0.2-0.5,0.5-0.5c0,0,0,0,0,0c0.3,0,0.5,0.2,0.5,0.5c0.1,4.1-0.4,7-1.4,8.8C814.5,82,814.4,82.1,814.2,82.1z"/>
	</g>
	<g id="XMLID_556_">
		<path id="XMLID_68_" class="st11" d="M815.4,18.6c0.3,0.6,0.7,1.2,1,1.9"/>
		<path id="XMLID_69_" class="st12" d="M816.4,20.9c-0.2,0-0.4-0.1-0.5-0.3c-0.3-0.6-0.7-1.3-1-1.9c-0.1-0.2,0-0.5,0.2-0.7
			c0.3-0.1,0.6,0,0.7,0.2c0.4,0.6,0.7,1.3,1,1.9c0.1,0.2,0,0.5-0.2,0.7C816.6,20.9,816.5,20.9,816.4,20.9z"/>
	</g>
	<g id="XMLID_553_">
		<path id="XMLID_66_" class="st11" d="M814.9,34.3c2.1-4.8,3.4-9.5,1.5-13.9"/>
		<path id="XMLID_67_" class="st12" d="M814.9,34.8c-0.1,0-0.1,0-0.2,0c-0.3-0.1-0.4-0.4-0.3-0.6c1.9-4.4,3.4-9.1,1.5-13.5
			c-0.1-0.3,0-0.5,0.3-0.6c0.3-0.1,0.6,0,0.7,0.3c2,4.7,0.4,9.8-1.5,14.2C815.3,34.7,815.1,34.8,814.9,34.8z"/>
	</g>
	<g id="XMLID_551_">
		<line id="XMLID_65_" class="st11" x1="599.4" y1="102.2" x2="599.4" y2="102.2"/>
	</g>
	<g id="XMLID_548_">
		<line id="XMLID_63_" class="st11" x1="584" y1="2.5" x2="584.1" y2="1.3"/>
		<path id="XMLID_64_" class="st12" d="M584,3C584,3,584,3,584,3c-0.3,0-0.5-0.2-0.5-0.5l0.1-1.2c0-0.3,0.3-0.5,0.5-0.5
			c0.3,0,0.5,0.2,0.5,0.5l-0.1,1.2C584.5,2.8,584.3,3,584,3z"/>
	</g>
	<g id="XMLID_545_">
		<line id="XMLID_61_" class="st11" x1="599.4" y1="102.2" x2="599.4" y2="102.2"/>
		<path id="XMLID_62_" class="st12" d="M599.4,102.7c-0.1,0-0.1,0-0.2,0l0,0c-0.3-0.1-0.4-0.4-0.3-0.6c0.1-0.3,0.4-0.4,0.7-0.3l0,0
			c0.3,0.1,0.4,0.4,0.3,0.6C599.8,102.6,599.6,102.7,599.4,102.7z"/>
	</g>
	<g id="XMLID_542_">
		<line id="XMLID_59_" class="st11" x1="590.5" y1="98.6" x2="580.6" y2="94.6"/>
		<path id="XMLID_60_" class="st12" d="M590.5,99.1c-0.1,0-0.1,0-0.2,0l-9.9-4c-0.3-0.1-0.4-0.4-0.3-0.6c0.1-0.3,0.4-0.4,0.7-0.3
			l9.9,4c0.3,0.1,0.4,0.4,0.3,0.6C590.9,99,590.7,99.1,590.5,99.1z"/>
	</g>
	<g id="XMLID_539_">
		<line id="XMLID_57_" class="st11" x1="599.7" y1="102.3" x2="599.4" y2="102.2"/>
		<polygon id="XMLID_58_" class="st12" points="599.5,102.8 599.2,102.7 599.6,101.7 599.9,101.8 		"/>
	</g>
	<g id="XMLID_536_">
		<line id="XMLID_55_" class="st11" x1="590.5" y1="98.6" x2="599.4" y2="102.2"/>
		<path id="XMLID_56_" class="st12" d="M599.4,102.7c-0.1,0-0.1,0-0.2,0l-8.9-3.6c-0.3-0.1-0.4-0.4-0.3-0.6c0.1-0.3,0.4-0.4,0.7-0.3
			l8.9,3.6c0.3,0.1,0.4,0.4,0.3,0.6C599.8,102.6,599.6,102.7,599.4,102.7z"/>
	</g>
	<g id="XMLID_533_">
		<line id="XMLID_53_" class="st11" x1="620.8" y1="71.7" x2="652.8" y2="1.3"/>
		<path id="XMLID_54_" class="st12" d="M620.8,72.2c-0.1,0-0.1,0-0.2,0c-0.3-0.1-0.4-0.4-0.3-0.7l32-70.4c0.1-0.3,0.4-0.4,0.7-0.3
			c0.3,0.1,0.4,0.4,0.3,0.7l-32,70.4C621.2,72.1,621,72.2,620.8,72.2z"/>
	</g>
	<g id="XMLID_530_">
		<line id="XMLID_51_" class="st11" x1="642" y1="104.2" x2="620.8" y2="71.7"/>
		<path id="XMLID_52_" class="st12" d="M642,104.7c-0.2,0-0.3-0.1-0.4-0.2l-21.1-32.6c-0.2-0.2-0.1-0.5,0.2-0.7
			c0.2-0.1,0.6-0.1,0.7,0.2l21.1,32.6c0.2,0.2,0.1,0.5-0.2,0.7C642.1,104.7,642.1,104.7,642,104.7z"/>
	</g>
	<g id="XMLID_527_">
		<line id="XMLID_49_" class="st11" x1="677.2" y1="100.8" x2="699.9" y2="82.8"/>
		<polygon id="XMLID_50_" class="st12" points="677.5,101.2 676.9,100.4 699.6,82.4 700.3,83.2 		"/>
	</g>
	<g id="XMLID_524_">
		<line id="XMLID_47_" class="st11" x1="677.2" y1="100.8" x2="677.2" y2="100.8"/>
		
			<rect id="XMLID_48_" x="676.7" y="100.8" transform="matrix(0.6504 0.7596 -0.7596 0.6504 313.3267 -479.1406)" class="st12" width="1" height="0"/>
	</g>
	<g id="XMLID_521_">
		<line id="XMLID_45_" class="st11" x1="699.9" y1="82.8" x2="710.4" y2="1.4"/>
		<path id="XMLID_46_" class="st12" d="M699.9,83.3C699.9,83.3,699.9,83.3,699.9,83.3c-0.3,0-0.5-0.3-0.5-0.6l10.4-81.4
			c0-0.3,0.3-0.5,0.6-0.4c0.3,0,0.5,0.3,0.4,0.6l-10.4,81.4C700.4,83.1,700.2,83.3,699.9,83.3z"/>
	</g>
	<g id="XMLID_518_">
		<line id="XMLID_43_" class="st11" x1="753.8" y1="36.2" x2="792.2" y2="2.1"/>
		<polygon id="XMLID_44_" class="st12" points="754.1,36.5 753.4,35.8 791.8,1.7 792.5,2.4 		"/>
	</g>
	<g id="XMLID_515_">
		<line id="XMLID_41_" class="st11" x1="743.9" y1="102.4" x2="741.6" y2="104.2"/>
		<polygon id="XMLID_42_" class="st12" points="742,104.6 741.3,103.8 743.6,102.1 744.2,102.8 		"/>
	</g>
	<g id="XMLID_512_">
		<line id="XMLID_39_" class="st11" x1="753.8" y1="36.2" x2="743.9" y2="102.4"/>
		<path id="XMLID_40_" class="st12" d="M743.9,102.9C743.9,102.9,743.9,102.9,743.9,102.9c-0.4,0-0.6-0.3-0.5-0.6l9.9-66.3
			c0-0.3,0.3-0.5,0.6-0.4c0.3,0,0.5,0.3,0.4,0.6l-9.9,66.3C744.4,102.8,744.2,102.9,743.9,102.9z"/>
	</g>
	<g id="XMLID_509_">
		<path id="XMLID_37_" class="st11" d="M810.7,43c0-0.1,0.1-0.1,0.1-0.2"/>
		<polygon id="XMLID_38_" class="st12" points="811.1,43.2 810.2,42.7 810.3,42.5 811.2,43 		"/>
	</g>
	<g id="XMLID_506_">
		<line id="XMLID_35_" class="st11" x1="810.8" y1="42.8" x2="810.8" y2="42.8"/>
		<polygon id="XMLID_36_" class="st12" points="811.2,43 810.3,42.5 810.4,42.5 		"/>
	</g>
	<g id="XMLID_503_">
		<path id="XMLID_33_" class="st11" d="M812.4,39.9c0,0.1-0.1,0.1-0.1,0.2"/>
		<polygon id="XMLID_34_" class="st12" points="812.8,40.3 811.8,39.8 811.9,39.7 812.9,40.1 		"/>
	</g>
	<g id="XMLID_500_">
		<path id="XMLID_31_" class="st11" d="M810.7,43.7c0-0.4,0-0.6,0-0.6c0,0,0-0.1,0.1-0.1"/>
		<path id="XMLID_32_" class="st12" d="M810.1,43.7c0-0.4,0-0.6,0-0.6l0-0.2l0.2-0.3l0.6,0.4l0.3,0c0,0,0,0.2,0,0.6L810.1,43.7z"/>
	</g>
	<g id="XMLID_497_">
		<path id="XMLID_29_" class="st11" d="M811.6,41.4c0.2-0.4,0.5-0.9,0.7-1.3"/>
		<path id="XMLID_30_" class="st12" d="M812.1,41.6l-0.9-0.5c0.2-0.4,0.5-0.9,0.7-1.3l0.9,0.4C812.6,40.7,812.3,41.2,812.1,41.6z"/>
	</g>
	<g id="XMLID_494_">
		<path id="XMLID_27_" class="st11" d="M812.4,39.9c0.4-0.8,0.8-1.7,1.1-2.5"/>
		<path id="XMLID_28_" class="st12" d="M812.9,40.1l-0.9-0.4c0.4-0.8,0.8-1.7,1.1-2.5l1,0.3C813.7,38.4,813.3,39.2,812.9,40.1z"/>
	</g>
	<g id="XMLID_491_">
		<path id="XMLID_25_" class="st11" d="M815.5,73.7c0-0.4,0-0.9,0-1.3"/>
		<path id="XMLID_26_" class="st12" d="M816,73.7l-1,0c0-0.4,0-0.9,0-1.3l1,0C816,72.9,816,73.3,816,73.7z"/>
	</g>
	<g id="XMLID_488_">
		<path id="XMLID_23_" class="st11" d="M810.8,42.8c0.3-0.5,0.6-0.9,0.8-1.4"/>
		<path id="XMLID_24_" class="st12" d="M811.2,43l-0.9-0.5c0.3-0.5,0.6-0.9,0.8-1.4l0.9,0.5C811.8,42.1,811.5,42.5,811.2,43z"/>
	</g>
	<g id="XMLID_485_">
		<polyline id="XMLID_21_" class="st11" points="583.8,2.1 583.8,2.1 582.2,1.3 		"/>
		<path id="XMLID_22_" class="st12" d="M583.5,2.5L582,1.7c-0.2-0.1-0.3-0.4-0.2-0.7c0.1-0.2,0.5-0.3,0.7-0.2l1.5,0.8L583.5,2.5z"/>
	</g>
	<g id="XMLID_482_">
		<line id="XMLID_19_" class="st11" x1="598.9" y1="104.2" x2="599.2" y2="104.4"/>
		<path id="XMLID_20_" class="st12" d="M599.2,104.9c-0.1,0-0.2,0-0.2-0.1l-0.2-0.1c-0.3-0.1-0.3-0.4-0.2-0.7
			c0.1-0.2,0.4-0.3,0.7-0.2l0.2,0.1c0.3,0.1,0.3,0.4,0.2,0.7C599.5,104.8,599.4,104.9,599.2,104.9z"/>
	</g>
	<g id="XMLID_479_">
		<line id="XMLID_17_" class="st11" x1="612.4" y1="1.2" x2="606.8" y2="44.6"/>
		<path id="XMLID_18_" class="st12" d="M606.8,45.1C606.8,45.1,606.8,45.1,606.8,45.1c-0.3,0-0.5-0.3-0.5-0.6l5.6-43.4
			c0-0.3,0.3-0.5,0.6-0.4c0.3,0,0.5,0.3,0.4,0.6l-5.6,43.4C607.3,44.9,607.1,45.1,606.8,45.1z"/>
	</g>
	<g id="XMLID_476_">
		<line id="XMLID_15_" class="st11" x1="580.6" y1="94.6" x2="580.6" y2="94.7"/>
		<path id="XMLID_16_" class="st12" d="M580.6,95.2C580.6,95.2,580.6,95.2,580.6,95.2c-0.3,0-0.5-0.2-0.5-0.5l0-0.1
			c0-0.3,0.2-0.5,0.5-0.5c0.3,0,0.5,0.2,0.5,0.5l0,0.1C581.1,95,580.8,95.2,580.6,95.2z"/>
	</g>
	<g id="XMLID_473_">
		<line id="XMLID_13_" class="st11" x1="606.2" y1="49.2" x2="606.8" y2="44.6"/>
		<path id="XMLID_14_" class="st12" d="M606.2,49.7C606.2,49.7,606.2,49.7,606.2,49.7c-0.3,0-0.5-0.3-0.5-0.6l0.6-4.7
			c0-0.3,0.3-0.5,0.6-0.4c0.3,0,0.5,0.3,0.4,0.6l-0.6,4.7C606.7,49.6,606.5,49.7,606.2,49.7z"/>
	</g>
	<g id="XMLID_470_">
		<line id="XMLID_11_" class="st11" x1="599.4" y1="102.3" x2="599.4" y2="102.2"/>
		<path id="XMLID_12_" class="st12" d="M599.4,102.8C599.4,102.8,599.4,102.8,599.4,102.8c-0.3,0-0.5-0.3-0.5-0.6l0-0.1
			c0-0.3,0.3-0.5,0.6-0.4c0.3,0,0.5,0.3,0.4,0.6l0,0.1C599.9,102.6,599.7,102.8,599.4,102.8z"/>
	</g>
	<g id="XMLID_467_">
		<line id="XMLID_9_" class="st11" x1="606.2" y1="49.2" x2="599.4" y2="102.2"/>
		<path id="XMLID_10_" class="st12" d="M599.4,102.7C599.4,102.7,599.4,102.7,599.4,102.7c-0.3,0-0.5-0.3-0.5-0.6l6.8-53
			c0-0.3,0.3-0.5,0.6-0.4c0.3,0,0.5,0.3,0.4,0.6l-6.8,53C599.9,102.5,599.7,102.7,599.4,102.7z"/>
	</g>
	<g id="XMLID_464_">
		<line id="XMLID_7_" class="st11" x1="582.2" y1="1.3" x2="612.4" y2="1.2"/>
		<path id="XMLID_8_" class="st12" d="M582.2,1.8c-0.3,0-0.5-0.2-0.5-0.5c0-0.3,0.2-0.5,0.5-0.5l30.2,0c0,0,0,0,0,0
			c0.3,0,0.5,0.2,0.5,0.5c0,0.3-0.2,0.5-0.5,0.5L582.2,1.8C582.2,1.8,582.2,1.8,582.2,1.8z"/>
	</g>
	<g id="XMLID_461_">
		<line id="XMLID_5_" class="st11" x1="599.2" y1="104.2" x2="599.2" y2="104.4"/>
		
			<rect id="XMLID_6_" x="598.7" y="104.2" transform="matrix(0.9932 0.116 -0.116 0.9932 16.145 -68.8035)" class="st12" width="1" height="0.1"/>
	</g>
	<g id="XMLID_458_">
		<line id="XMLID_3_" class="st11" x1="599.2" y1="104.1" x2="599.4" y2="102.3"/>
		<path id="XMLID_4_" class="st12" d="M599.2,104.6C599.2,104.6,599.2,104.6,599.2,104.6c-0.3,0-0.5-0.3-0.5-0.6l0.2-1.8
			c0-0.3,0.3-0.5,0.6-0.4c0.3,0,0.5,0.3,0.4,0.6l-0.2,1.8C599.7,104.5,599.5,104.6,599.2,104.6z"/>
	</g>
	<g id="XMLID_455_">
		<line id="XMLID_1_" class="st11" x1="599.2" y1="104.2" x2="599.2" y2="104.1"/>
		<path id="XMLID_2_" class="st12" d="M599.2,104.7C599.2,104.7,599.1,104.7,599.2,104.7c-0.3,0-0.5-0.3-0.5-0.6l0-0.1
			c0-0.3,0.3-0.5,0.6-0.4c0.3,0,0.5,0.3,0.4,0.6l0,0.1C599.7,104.6,599.4,104.7,599.2,104.7z"/>
	</g>
</g>
<g id="XMLID_452_">
	<polyline id="XMLID_266_" class="st14" points="803.5,62 777.3,80.8 800.5,81 808,72.4 796.6,71.5 	"/>
</g>
<g id="XMLID_450_">
	<polyline id="XMLID_265_" class="st14" points="755,104.1 778.5,98.6 769.8,96.6 794.1,93 800.5,88 768,88.3 	"/>
</g>
<g id="XMLID_448_">
	<polyline id="XMLID_264_" class="st14" points="621.1,71.5 641.7,102.6 650.4,100.4 629,73.7 634.4,63.9 629.3,58.7 	"/>
</g>
</svg>
