<?xml version="1.0" encoding="utf-8"?>
<!-- Generator: Adobe Illustrator 19.0.0, SVG Export Plug-In . SVG Version: 6.00 Build 0)  -->
<svg version="1.1" id="Layer_1" xmlns="http://www.w3.org/2000/svg" xmlns:xlink="http://www.w3.org/1999/xlink" x="0px" y="0px"
	 viewBox="-99 351 800 300" style="enable-background:new -99 351 800 300;" xml:space="preserve">
<style type="text/css">
	.st0{fill:#FFFFFF;}
</style>
<g>
	<path class="st0" d="M172.8,415c-47.6,0-86.3,38.5-86.3,85.9c0,48.1,38.4,86.5,86.3,86.4c48-0.1,86.4-38.6,86.3-86.5
		C259.1,453.5,220.4,415,172.8,415z M241,502.8c-1.3,38.6-32.8,66.7-68.5,66.5c-39.6-1.1-69.1-31.8-67.6-71.1
		c1.4-37.5,33.5-66.6,71.8-65C212.2,434.6,242.2,466.7,241,502.8z"/>
	<path class="st0" d="M384.4,501.1c4.9-0.3,9-2.4,10.7-7.5c1.5-4.6,0-8.6-4.4-12.2c3.6-2.9,4.7-6.7,3-11c-1.5-4-4.9-5.8-8.9-5.9
		c-5.9-0.2-11.9,0-17.9-0.1c-1.5,0-2.2,0.5-2.2,2.1c0,10.9,0,21.9,0,32.8c0,1.4,0.5,2.2,2.1,2.2
		C372.7,501.3,378.5,501.6,384.4,501.1z M378.6,470.7c1.6,0.1,3.2,0,4.9,0.2c2.1,0.2,3.4,1.3,3.4,3.6c0,2.3-1.1,3.8-3.4,4
		c-3,0.2-6,0.1-9.1,0.2c-1.4,0-1.8-0.6-2-1.9C371.8,470.8,371.8,470.8,378.6,470.7z M372.4,488.8c-0.1-3.1,0.9-4,3.8-3.7
		c2.4,0.2,4.8,0,7.1,0.2c2.7,0.2,4.5,1.7,4.4,4.6c0,2.8-1.5,4.7-4.4,5c-1.6,0.2-3.2,0-4.9,0C372.5,495,372.7,494.9,372.4,488.8z"/>
	<path class="st0" d="M434.6,466.7c0-0.7,0.2-1.6-0.5-2.1c-1.7-1.3-8.5,0.2-9.6,2.1c-4.2,7.3-8.3,14.6-12.5,22
		c-0.2-0.1-0.4-0.1-0.7-0.2c0-0.5-0.1-1-0.1-1.5c0-6.6-0.1-13.2,0-19.8c0-2.1-0.6-3-2.7-2.8c-1,0.1-2,0.1-2.9,0
		c-1.8-0.2-2.2,0.7-2.2,2.3c0,10.8,0,21.6,0,32.5c0,0.7-0.1,1.6,0.6,2.1c1.7,1.2,7.9-0.2,8.9-2c1.9-3.4,3.8-6.8,5.8-10.1
		c2.4-4.2,4.9-8.4,7.4-12.6c0.7,7,0.7,13.8,0.7,20.6c0,4.5,0,4.5,4.6,4.4c0.2,0,0.4,0,0.6,0c2,0.3,2.6-0.6,2.6-2.6
		C434.6,488.1,434.6,477.4,434.6,466.7z"/>
	<path class="st0" d="M472.9,464.3c-4.1-0.3-8-0.3-9.5,4.8c-0.4,1.4-1.4,2.6-2.2,4c-3,5.2-6,10.4-9,15.6c-0.2-0.1-0.5-0.1-0.7-0.2
		c0-6.5,0-13.1,0-19.6c0-4.5,0-4.5-4.6-4.4c-0.3,0-0.7,0-1,0c-1.7-0.2-2.3,0.5-2.3,2.2c0,10.8,0,21.6,0,32.5c0,0.7-0.2,1.5,0.6,2.1
		c1.7,1.2,7.9-0.1,9-2c2.1-3.6,4.2-7.3,6.3-11c2.3-4,4.6-7.9,6.9-11.9c0.7,7.5,0.8,14.8,0.6,22.1c0,2.3,0.6,3.2,2.9,2.9
		c1-0.1,1.9-0.1,2.9,0c1.6,0.1,2.1-0.6,2-2.1c0-10.9,0-21.9,0-32.8C474.9,464.9,474.4,464.4,472.9,464.3z"/>
	<path class="st0" d="M355.1,492.5c2.6-6.3,2.5-12.9,0-19.3c-1-2.7-2.8-4.9-5.2-6.5c-6.2-4.2-12.8-4.5-19.4-1.2c-7,3.4-9,9.7-8.8,17
		c0,1.4-0.1,2.8,0,4.2c0.7,7.8,6.1,13.9,13.4,15.2C344.2,503.5,352.1,500,355.1,492.5z M347.7,490.3c-1.6,3.6-4.5,5.3-8.5,5.3
		c-3.9,0-6.8-1.7-8.5-5.3c-1.1-2.4-1.6-4.9-1.4-7.5c0.1-2.5,0.2-4.9,1.3-7.2c1.8-3.9,4.9-5.6,9.1-5.5c4.1,0.2,7,2.2,8.4,6
		C349.7,480.8,349.8,485.7,347.7,490.3z"/>
	<path class="st0" d="M313.5,498.8c-0.1-5.3,0-10.6,0-15.9c0-4.5,0-9.1,0-13.6c0-5.1,0-5-5-5c-2.1,0-2.6,0.8-2.5,2.7
		c0.1,3,0,6.1,0.1,9.1c0,1.6-0.5,2.4-2.2,2.4c-3.3-0.1-6.7-0.1-10.1,0c-1.8,0-2.2-0.9-2.3-2.4c0-2.6-0.3-5.2,0-7.8
		c0.4-3.5-1-4.5-4.1-4c-0.5,0.1-1.1,0-1.6,0c-1.4-0.1-1.9,0.6-1.9,2c0,11,0,22.1,0,33.1c0,1.6,0.7,2.1,2.2,2c0.6,0,1.3-0.1,1.9,0
		c2.6,0.4,3.7-0.5,3.5-3.3c-0.2-3.7,0-7.3-0.1-11c0-1.6,0.5-2.4,2.2-2.4c3.3,0.1,6.7,0.1,10.1,0c1.7,0,2.3,0.6,2.3,2.3
		c-0.1,3.2-0.1,6.5,0,9.7c0.1,5.3-0.9,4.5,4.9,4.7C312.8,501.5,313.5,500.8,313.5,498.8z"/>
	<path class="st0" d="M335.1,534.9c-2.2-0.1-1.9-1.7-1.9-3c0-2.3,0-4.5,0-6.8c-0.1,0-0.1,0-0.2,0c0-2.5,0-5,0-7.5
		c0.1-2.7-1.2-4.7-3.5-5.7c-4.5-2.1-9.2-2.2-13.7,0.1c-2,1-3,2.7-3.5,4.8c-0.2,1.1-0.7,2.3,0.9,2.6c1.2,0.2,2.5,0.5,3.3-1.2
		c1.9-3.8,5.1-5,9.1-3.6c2,0.7,3,2.1,3,4.2c0,2-1.3,2.8-3.1,3c-3,0.4-6,0.7-8.9,1.5c-4.3,1.2-6,3.9-5.8,8.2c0.2,4,2.4,6.3,6.6,7.2
		c3.4,0.7,6.5-0.1,9.2-2.1c1.3-1,2.2-1.4,3.2,0.4c1.1,1.9,3.1,1.7,4.9,1.5c1.1-0.1,1.5-0.8,1.4-1.8C336,535.9,336.3,535,335.1,534.9
		z M318.4,534.8c-1.9-0.6-2.8-2-3-3.8c-0.2-1.7,0.5-3,2-3.8c3.2-1.7,6.9-1.4,10.4-2.2c1.4-0.3,0.7,1.4,1,2.1
		C328.8,532.4,323.3,536.4,318.4,534.8z"/>
	<path class="st0" d="M396.1,535.1c-2.4-0.3-2.1-2.1-2.1-3.7c0-2.2,0-4.3,0-6.5c0,0,0,0,0,0c0-2.1,0-4.1,0-6.2
		c-0.1-4.9-1.6-6.7-6.4-7.9c-3.2-0.8-6.4-0.6-9.6,0.5c-2.7,1-4.2,3-4.9,5.6c-0.2,0.9-0.6,2.1,0.8,2.4c1.2,0.2,2.5,0.6,3.4-1
		c2.2-4,4.8-5.1,8.9-3.9c2.1,0.6,3.1,2.1,3.1,4.3c0,2.2-1.4,2.7-3.1,3c-2.8,0.4-5.6,0.6-8.3,1.2c-4.5,1-6.5,3.8-6.3,8.4
		c0.2,4,2.8,6.8,7.2,7.4c3.4,0.4,6.4-0.6,9.1-2.7c1.1-0.9,1.6-1.1,2.3,0.4c1,2.1,3.1,2.1,5.1,1.9c0.8-0.1,1.6-0.3,1.6-1.3
		C396.9,536.4,397.3,535.2,396.1,535.1z M379.4,534.8c-2-0.6-3-2.1-3.1-4.1c-0.2-2,1-3.4,2.8-3.9c3-0.8,6.1-1.5,9.2-1.8
		c2-0.2,0.7,1.8,1.2,2.5C389.4,532.6,384.2,536.3,379.4,534.8z"/>
	<path class="st0" d="M423.6,511.1c-4.5,0.1-9.1,0.2-13.6,0c-3.1-0.2-3.8,1-3.8,3.8c0.2,5.2,0,10.4-0.2,15.5
		c-0.1,1.9-0.3,4.1-3.1,4.1c-1.3,0-2,0.4-2,1.9c0,1.6,0.9,1.9,2.3,2.1c3.8,0.3,6.8-2.2,7.3-6.6c0.3-3,0.2-6,0.2-9.1
		c0-7.9,0-7.8,8-7.9c2.4,0,2.9,0.8,2.8,3c-0.1,5.8,0,11.7-0.1,17.5c0,1.7,0.4,2.5,2.3,2.5c2,0,2.3-1,2.3-2.6c-0.1-3.6,0-7.1,0-10.7
		c0,0,0,0,0,0c0-3.7-0.1-7.4,0-11C426.3,511.6,425.5,511,423.6,511.1z"/>
	<path class="st0" d="M364.5,512.9c0-1.8-1.1-1.8-2.4-1.8c-1.4,0-2.3,0.2-2.2,1.9c0.1,2.2,0,4.3,0,6.5c0.1,1.7-0.3,2.6-2.3,2.5
		c-2.7-0.1-5.4-0.1-8.1,0c-1.7,0.1-2.4-0.7-2.3-2.3c0.1-2.1,0.1-4.1,0.2-6.2c0.1-1.8-0.6-2.5-2.4-2.5c-1.8,0-2.2,0.8-2.2,2.4
		c0.1,3.9,0,7.8,0,11.7c0,0,0,0,0,0c0,3.4,0,6.7,0,10.1c0,1.2-0.9,3,1.6,3c2.3,0,3-1.1,2.9-3.2c-0.1-2.3-0.1-4.5-0.2-6.8
		c-0.1-1.6,0.6-2.3,2.3-2.3c2.7,0.1,5.4,0.1,8.1,0c2-0.1,2.4,0.8,2.3,2.5c-0.1,2.5,0,5,0,7.5c0,1.5,0.5,2.1,2.1,2.1
		c1.4,0,2.5-0.1,2.5-2C364.5,528.3,364.5,520.6,364.5,512.9z"/>
	<path class="st0" d="M297.4,523.6c-1.3-1.9-1.1-3.1,0.6-4.6c2.6-2.3,5-4.9,7.6-7.5c-3.6-1-5.9-0.1-8,2.3c-2.5,2.9-5.3,5.7-7.9,8.5
		c-0.3-0.2-0.6-0.4-1-0.6c0-2.8-0.1-5.6,0-8.3c0-1.6-0.5-2.3-2.2-2.3c-1.6,0-2.3,0.6-2.3,2.3c0,7.5,0,14.9,0,22.4
		c0,1.6,0.5,2.3,2.2,2.3c1.9,0,2.4-0.8,2.3-2.5c-0.1-2,0-4.1,0-6.2c0-2.2,1.8-3.3,3.3-4.1c1.6-0.8,1.8,1.4,2.5,2.3
		c2.1,3,4,6.2,6,9.3c1.4,2.2,3.7,1.8,5.1,0.9c1.1-0.7-0.5-2.1-1.1-3.1C302.1,530.9,299.9,527.2,297.4,523.6z"/>
	<path class="st0" d="M459.1,461.2c4,0,7-1.9,8-5.2c0.2-0.7,1-1.7-0.1-2.3c-1-0.4-2-0.5-2.9,0.5c-3.7,4.1-5.9,4.1-9.7,0
		c-0.9-1-2-1-2.9-0.5c-1,0.5-0.4,1.5-0.1,2.3C452.5,459.3,455.2,461.1,459.1,461.2z"/>
	<path class="st0" d="M201.9,463.2c-3.4,0.2-6.9,0.2-10.4,0c-2.7-0.2-3.2,0.9-3.2,3.3c0.1,7.5-0.1,14.9,0.1,22.4
		c0.1,2.7-0.9,3.3-3.4,3.3c-8-0.1-16-0.1-24,0c-2.4,0-3.2-0.7-3.1-3.1c0.1-7.6,0-15.2,0.1-22.7c0-2.3-0.5-3.3-3.1-3.2
		c-3.7,0.2-7.4,0.2-11,0c-2.3-0.1-2.9,0.7-2.9,2.9c0.1,11.6,0,23.2,0,34.7c0,11.5,0.1,22.9,0,34.4c0,2.3,0.5,3.3,3,3.2
		c3.7-0.2,7.4-0.2,11,0c2.3,0.1,3-0.6,3-2.9c-0.1-7.9,0.1-15.8-0.1-23.7c-0.1-2.6,0.8-3.3,3.3-3.2c7.9,0.1,15.8,0.2,23.7,0
		c3-0.1,3.6,1,3.5,3.7c-0.2,7.8,0,15.6-0.1,23.4c0,2.1,0.6,2.8,2.8,2.8c3.9-0.1,7.8-0.1,11.7,0c2,0.1,2.7-0.7,2.5-2.6
		c-0.1-1.5,0-3,0-4.5c0-21.5,0-43.1,0.1-64.6C205.4,464,204.7,463,201.9,463.2z"/>
</g>
</svg>
