<?xml version="1.0" encoding="utf-8"?>
<!-- Generator: Adobe Illustrator 19.0.0, SVG Export Plug-In . SVG Version: 6.00 Build 0)  -->
<svg version="1.1" id="Layer_1" xmlns="http://www.w3.org/2000/svg" xmlns:xlink="http://www.w3.org/1999/xlink" x="0px" y="0px"
	 viewBox="-99 351 800 300" style="enable-background:new -99 351 800 300;" xml:space="preserve">
<style type="text/css">
	.st0{fill:#B7B7B7;}
	.st1{fill:#FFFFFF;}
	.st2{fill:#939393;}
</style>
<g id="XMLID_179_">
	<g id="XMLID_234_">
		<path class="st0" d="M128.4,533.3c2,1.2,4.1,2.1,6.1,2.5c2.4,0.4,4.9,0.5,6.9-1.5c13.1-13.3,26.3-26.6,39.5-39.9
			c1.3-1.3,1.8-2.7,1.6-4.4c-0.2-1.7-0.5-3.4-0.6-5.1c-0.1-2.2-0.2-4.4-0.1-6.5L128.4,533.3z"/>
	</g>
	<g id="XMLID_233_">
		<path class="st0" d="M168,442.4c-4.2,1.9-8.5,3.3-12.8,5c-2.6,1-4.7,2.5-5.9,5.2c-1.3,2.7-2.9,5.3-4.5,7.9
			c-9.7,15.9-20.7,30.8-32.1,45.6c-1.6,2.1-2.1,4.2-1.7,6.7c0.1,0.8,0.4,1.7,0.7,2.5l60.2-74.8C170.6,441.2,169.3,441.8,168,442.4z"
			/>
	</g>
</g>
<g id="XMLID_178_">
	<path class="st1" d="M166.2,456.1c-0.5,0.6-1,1.2-1.5,1.8l-4.1,5c-3.5,4.2-7.1,8.6-10.6,12.9c-4.8,0.8-8.9,5.7-8.9,10.7
		c0,4.3,3,7.4,7,7.4c0.9,0,1.7-0.1,2.6-0.4c4.4-1.4,7.7-5.7,7.8-10.2c0,0,0,0,0,0l9.1-11.1c3.1-3.7,6.1-7.5,9.2-11.2
		c-2.3,8.2-3.2,15.9-2.7,23.6c0.1,1.4,0.3,2.7,0.4,4c0.1,0.4,0.1,0.9,0.2,1.3c0,0.3,0.1,0.6-0.5,1.1c-12.1,12.2-25,25.2-39.5,39.9
		c-0.4,0.4-0.7,0.6-1.6,0.6c-0.5,0-1-0.1-1.7-0.2c-6.1-1-14.8-9.9-15.8-16.1c-0.2-1.1,0-1.9,0.7-2.9c9.6-12.5,19.7-26,28.6-40.6
		l0.6-1c1.2-2,2.5-4.1,3.6-6.4c0.6-1.2,1.4-1.9,3-2.6c1.2-0.4,2.3-0.9,3.5-1.3c2.6-1,5.3-2,8-3.2C164.6,457,165.4,456.6,166.2,456.1
		 M183,440.2c0,0-0.1,0-0.1,0c-0.5,0.1-0.9,0.5-1.3,0.8c-0.2,0.2-0.3,0.3-0.5,0.3c-0.4,0.5-1.1,1-2.1,1.7
		c-5.4,3.8-10.7,7.9-16.8,10.6c-3.7,1.6-7.5,2.9-11.3,4.4c-2.3,0.9-4.1,2.2-5.2,4.6c-1.1,2.4-2.6,4.7-4,7
		c-8.5,14-18.3,27.2-28.3,40.2c-1.4,1.8-1.9,3.7-1.5,5.9c1.2,7.9,11.2,18.1,19,19.4c0.8,0.1,1.6,0.2,2.4,0.2c1.6,0,3.1-0.4,4.5-1.8
		c13.1-13.3,26.3-26.6,39.5-39.9c1.3-1.3,1.8-2.7,1.6-4.4c-0.2-1.7-0.5-3.4-0.6-5.1c-0.8-12,2.1-23.2,6.8-34.2
		c0.7-1.6,1.4-3.3,2.1-4.9c0.3-0.7,0.5-1.6-0.3-2c-0.1,0-0.2-0.1-0.3-0.1c-0.2,0-0.4,0.1-0.5,0.3c-0.1,0.1-0.1,0.2-0.2,0.3
		c-0.1,0.2-0.2,0.4-0.3,0.5c-10,12.1-19.9,24.3-29.9,36.4c-0.6,0.7-0.9,1.3-0.9,2.3c0,2.9-2.3,5.7-5,6.6c-0.5,0.2-0.9,0.2-1.4,0.2
		c-1.8,0-3-1.3-3-3.4c0-2.9,2.7-6.3,5.6-6.7c1-0.2,1.7-0.6,2.3-1.4c4.9-6,9.8-11.9,14.7-17.8c5-6,9.9-12,14.8-17.9c0,0,0,0,0.1,0
		c0.1-0.1,0.2-0.3,0.3-0.4c0,0,0,0,0,0c0.1-0.2,0.3-0.5,0.4-0.7c0,0,0,0,0-0.1c0,0,0-0.1,0-0.1c0-0.2,0-0.4,0-0.5c0-0.1,0-0.1,0-0.1
		c0,0,0,0,0,0c0,0,0,0,0,0c0,0-0.1-0.2-0.1-0.2C183.3,440.3,183.2,440.2,183,440.2L183,440.2z"/>
</g>
<path id="XMLID_235_" class="st1" d="M138.6,535.7c-4.2,4.1-8.7,3.8-13.3,1.4c-5.1-2.6-9.3-6.4-12.6-10.9c-2.7-3.7-4.6-7.7-2.5-12.4
	c0.4-0.9-0.2-0.9-0.7-1c-3.4-0.9-6.3,0.1-8.7,2.6c-0.4,0.5-0.7,1.1-1.5,1.2c-1.8,0.2-2.9,1.4-3.6,3c-2.2,4.6-4.6,9-7.2,13.4
	c-0.5,0.9-0.7,1.6-0.1,2.6c1,1.8,1.9,3.5,2.9,5.3l-0.1,0.1c0.5,0.7,0.8,1.5,1.1,2.3c0.7,0.6,1.2,1.3,1.7,2.1l0.2-0.2
	c4.4,5.9,9.7,10.4,15.8,13.5l-0.1,0.1c0.9,0.3,1.6,0.8,2.3,1.3c0.6,0.2,1.1,0.5,1.5,0.8c0.3,0.1,0.7,0.2,1,0.3l0.2-0.4
	c2.7,1,5.6,1.8,8.6,2.3c0.7,0.1,1.2,0.2,1.8-0.4c3.2-2.9,6.6-5.8,9.8-8.7c1.9-1.7,3.1-3.8,2.8-6.5c-0.1-1.2,0.4-2.1,0.9-3.1
	C140.4,541.6,139.8,538.8,138.6,535.7z"/>
<g>
	<path class="st1" d="M252.8,482.9l-6,30.1h-8.3l-8.6-14l-2.8,14h-9.9l6-30.1h8.3l8.6,14l2.8-14H252.8z"/>
	<path class="st1" d="M266.1,490.6l-0.7,3.5h12.7l-1.5,7.3h-12.8l-0.8,4h15.1l-1.5,7.7h-25l6-30.1h24.5l-1.5,7.7H266.1z"/>
	<path class="st1" d="M335.2,482.9L319.5,513h-10.9l-1.7-15.9l-8.3,15.9h-10.9l-3.6-30.1h10l1.9,17.2l8.9-17.2h9.3l1.7,17.4
		l9.1-17.4H335.2z"/>
	<path class="st1" d="M337.4,482.9H351c3.2,0,5.9,0.5,8.2,1.5c2.3,1,4.1,2.5,5.3,4.4c1.2,1.9,1.8,4.2,1.8,6.8c0,3.5-0.8,6.5-2.4,9.1
		s-3.8,4.6-6.7,6.1c-2.9,1.4-6.1,2.1-9.7,2.1h-16.1L337.4,482.9z M347.8,505.1c2.6,0,4.6-0.8,6.1-2.5c1.4-1.6,2.2-3.8,2.2-6.3
		c0-1.7-0.5-3.1-1.6-4s-2.6-1.4-4.7-1.4H346l-2.8,14.3H347.8z"/>
	<path class="st1" d="M375.8,512c-2.3-1.1-4.1-2.7-5.3-4.8s-1.9-4.4-1.9-7c0-3.5,0.8-6.6,2.4-9.4c1.6-2.7,3.9-4.9,6.8-6.4
		s6.1-2.3,9.8-2.3c3.1,0,5.8,0.6,8.1,1.7c2.3,1.1,4.1,2.7,5.3,4.8c1.2,2,1.9,4.4,1.9,7c0,3.5-0.8,6.6-2.4,9.4
		c-1.6,2.7-3.9,4.9-6.8,6.4s-6.1,2.3-9.8,2.3C380.8,513.7,378.1,513.1,375.8,512z M388.9,504.2c1.2-0.8,2.1-1.9,2.7-3.4
		c0.6-1.4,0.9-2.9,0.9-4.6c0-1.8-0.5-3.2-1.6-4.3c-1-1.1-2.5-1.6-4.3-1.6c-1.6,0-3,0.4-4.2,1.2c-1.2,0.8-2.1,1.9-2.7,3.4
		c-0.6,1.4-0.9,2.9-0.9,4.6c0,1.8,0.5,3.2,1.6,4.3c1,1.1,2.5,1.6,4.3,1.6C386.3,505.5,387.7,505.1,388.9,504.2z"/>
	<path class="st1" d="M412.4,512c-2.3-1.1-4.1-2.7-5.4-4.8c-1.3-2-1.9-4.4-1.9-7c0-3.5,0.8-6.6,2.4-9.3c1.6-2.7,3.9-4.9,6.8-6.4
		c2.9-1.5,6.2-2.3,9.8-2.3c2.9,0,5.5,0.5,7.7,1.6c2.2,1,3.9,2.5,5,4.5l-7.3,5.7c-1.3-2.4-3.4-3.5-6-3.5c-1.6,0-3,0.4-4.2,1.2
		c-1.2,0.8-2.2,1.9-2.9,3.2c-0.7,1.4-1,3-1,4.8c0,1.8,0.6,3.2,1.7,4.3c1.1,1.1,2.6,1.6,4.5,1.6c2.6,0,4.8-1.2,6.7-3.5l6,5.7
		c-1.7,2.2-3.7,3.7-6,4.6c-2.2,0.9-4.8,1.4-7.7,1.4C417.4,513.7,414.7,513.1,412.4,512z"/>
	<path class="st1" d="M436.7,512c-1-1-1.5-2.2-1.5-3.7c0-1.8,0.6-3.2,1.8-4.3c1.2-1.1,2.6-1.7,4.3-1.7c1.6,0,2.9,0.5,3.8,1.4
		s1.5,2.2,1.5,3.7c0,1.8-0.6,3.2-1.8,4.3c-1.2,1.1-2.6,1.7-4.3,1.7C438.9,513.4,437.7,513,436.7,512z"/>
	<path class="st1" d="M477.6,485.5c2.2,1.7,3.3,4.2,3.3,7.4c0,2.5-0.6,4.7-1.9,6.7c-1.2,1.9-3,3.4-5.3,4.5c-2.3,1.1-5,1.6-8,1.6
		h-5.2L459,513h-10.1l6-30.1h13.4C472.3,482.9,475.4,483.8,477.6,485.5z M469.4,496.7c0.8-0.7,1.2-1.7,1.2-2.9c0-2-1.3-3.1-3.8-3.1
		h-3.4l-1.4,7.1h4.2C467.6,497.8,468.7,497.4,469.4,496.7z"/>
	<path class="st1" d="M486.4,482.9h10.1l-4.4,22.2h13.6l-1.6,7.9h-23.7L486.4,482.9z"/>
</g>
<g>
	<path class="st2" d="M220.1,532.3l-0.8,3.8h7.7l-0.8,3.8h-7.7l-1.2,6h-5l3.5-17.5h13.7l-0.8,3.8H220.1z"/>
	<path class="st2" d="M230.7,532.5h4.7l-2.7,13.5H228L230.7,532.5z M231.7,530.3c-0.5-0.5-0.8-1-0.8-1.7c0-0.8,0.3-1.4,0.8-1.9
		c0.6-0.5,1.3-0.8,2.2-0.8c0.8,0,1.5,0.2,2,0.6c0.5,0.4,0.8,1,0.8,1.6c0,0.8-0.3,1.5-0.9,2c-0.6,0.5-1.3,0.8-2.2,0.8
		C232.9,531,232.2,530.7,231.7,530.3z"/>
	<path class="st2" d="M247.6,532.2l-0.8,4.3c-0.4,0-0.8-0.1-1.1-0.1c-1.1,0-1.9,0.3-2.6,0.8c-0.6,0.5-1.1,1.3-1.3,2.4l-1.3,6.4h-4.8
		l2.7-13.5h4.5l-0.3,1.5C243.8,532.8,245.4,532.2,247.6,532.2z"/>
	<path class="st2" d="M270.3,533.4c0.9,0.8,1.3,1.9,1.3,3.4c0,0.5-0.1,1.1-0.2,1.7l-1.5,7.5h-4.8l1.4-7c0.1-0.3,0.1-0.6,0.1-1
		c0-0.6-0.1-1-0.4-1.3s-0.7-0.5-1.3-0.5c-1.5,0-2.5,1-2.9,2.9l-1.4,6.8H256l1.4-7c0.1-0.3,0.1-0.6,0.1-0.9c0-0.6-0.1-1.1-0.4-1.4
		c-0.3-0.3-0.7-0.5-1.3-0.5c-1.5,0-2.5,1-2.9,3l-1.4,6.8h-4.8l2.7-13.5h4.5l-0.3,1.4c1.1-1.1,2.5-1.6,4.1-1.6c0.9,0,1.7,0.2,2.4,0.6
		c0.7,0.4,1.3,0.9,1.6,1.6c0.6-0.7,1.4-1.3,2.2-1.6s1.8-0.6,2.8-0.6C268.3,532.2,269.4,532.6,270.3,533.4z"/>
	<path class="st2" d="M290.1,532.5l-2.7,13.5h-4.5l0.3-1.3c-1.1,1-2.4,1.5-3.9,1.5c-1,0-1.9-0.2-2.8-0.7c-0.9-0.5-1.6-1.2-2.1-2.1
		c-0.5-0.9-0.8-2-0.8-3.3c0-1.5,0.3-2.8,1-4s1.5-2.1,2.7-2.8s2.4-1,3.7-1c2,0,3.4,0.6,4.2,1.9l0.3-1.6H290.1z M283.3,541.3
		c0.6-0.7,0.9-1.6,0.9-2.7c0-0.8-0.2-1.4-0.7-1.9c-0.5-0.5-1.1-0.7-1.9-0.7c-1,0-1.7,0.3-2.3,1c-0.6,0.7-0.9,1.6-0.9,2.8
		c0,0.8,0.2,1.4,0.7,1.9c0.5,0.5,1.1,0.7,1.9,0.7C281.9,542.4,282.7,542,283.3,541.3z"/>
	<path class="st2" d="M309.7,536.5l5.9,9.5H310l-4-6.3l-2.3,2l-0.8,4.2H298l3.5-17.5h4.9l-1.4,7.2l7.9-7.2h5.8L309.7,536.5z"/>
	<path class="st2" d="M319.8,545.5c-1.1-0.5-1.9-1.2-2.5-2.2c-0.6-0.9-0.9-2-0.9-3.2c0-1.5,0.4-2.8,1.1-4c0.7-1.2,1.7-2.1,3-2.8
		c1.3-0.7,2.7-1,4.3-1c1.4,0,2.7,0.3,3.8,0.8c1.1,0.5,1.9,1.2,2.5,2.2c0.6,0.9,0.9,2,0.9,3.2c0,1.5-0.4,2.8-1.1,4
		c-0.7,1.2-1.7,2.1-3,2.8s-2.7,1-4.3,1C322.1,546.2,320.9,546,319.8,545.5z M326.2,541.3c0.6-0.7,0.9-1.6,0.9-2.7
		c0-0.8-0.2-1.4-0.7-1.9c-0.5-0.5-1.1-0.7-1.9-0.7c-1,0-1.7,0.3-2.3,1c-0.6,0.7-0.9,1.6-0.9,2.8c0,0.8,0.2,1.4,0.7,1.9
		c0.5,0.5,1.1,0.7,1.9,0.7C324.8,542.4,325.6,542,326.2,541.3z"/>
	<path class="st2" d="M347.4,533.4c0.9,0.8,1.3,1.9,1.3,3.4c0,0.5-0.1,1.1-0.2,1.7l-1.5,7.5h-4.8l1.4-7c0.1-0.3,0.1-0.6,0.1-0.9
		c0-1.2-0.6-1.8-1.9-1.8c-0.8,0-1.5,0.3-2,0.8c-0.5,0.5-0.9,1.3-1.1,2.3l-1.4,6.7h-4.8l2.7-13.5h4.5l-0.3,1.4c0.6-0.5,1.2-1,2-1.2
		s1.5-0.4,2.3-0.4C345.3,532.2,346.5,532.6,347.4,533.4z"/>
	<path class="st2" d="M352,545.8c-1.1-0.2-1.9-0.6-2.5-0.9l1.7-3.3c0.6,0.4,1.3,0.7,2.2,0.9c0.8,0.2,1.7,0.3,2.5,0.3
		c1.4,0,2.2-0.3,2.2-1c0-0.3-0.2-0.5-0.5-0.6s-0.9-0.2-1.6-0.4c-1-0.2-1.8-0.4-2.5-0.6c-0.6-0.2-1.2-0.6-1.7-1.1
		c-0.5-0.5-0.7-1.2-0.7-2.1c0-1.6,0.7-2.8,2-3.6s3.1-1.3,5.2-1.3c1,0,1.9,0.1,2.8,0.3c0.9,0.2,1.7,0.5,2.3,0.8l-1.7,3.3
		c-1.1-0.7-2.5-1-4-1c-0.7,0-1.3,0.1-1.6,0.3c-0.4,0.2-0.5,0.4-0.5,0.7c0,0.3,0.2,0.5,0.5,0.6s0.9,0.3,1.7,0.4
		c1,0.2,1.8,0.4,2.4,0.6s1.2,0.6,1.7,1.1c0.5,0.5,0.7,1.2,0.7,2c0,1.6-0.7,2.8-2,3.6c-1.4,0.8-3.1,1.3-5.2,1.3
		C354.2,546.2,353.1,546.1,352,545.8z"/>
	<path class="st2" d="M380.7,532.5L378,546h-4.5l0.3-1.4c-0.6,0.6-1.2,1-2,1.2c-0.7,0.3-1.5,0.4-2.2,0.4c-1.5,0-2.7-0.4-3.5-1.2
		c-0.9-0.8-1.3-1.9-1.3-3.4c0-0.5,0.1-1.1,0.2-1.7l1.5-7.5h4.8l-1.4,7c-0.1,0.3-0.1,0.6-0.1,0.9c0,1.2,0.6,1.8,1.8,1.8
		c0.8,0,1.5-0.3,2-0.8c0.5-0.5,0.9-1.3,1.1-2.3l1.3-6.7H380.7z"/>
	<path class="st2" d="M384.7,527.5h4.8l-3.7,18.5H381L384.7,527.5z"/>
	<path class="st2" d="M396.5,541c0,0.2,0,0.4,0,0.5c0,0.8,0.4,1.1,1.2,1.1c0.5,0,0.9-0.1,1.4-0.4l0.6,3.3c-0.9,0.5-2.1,0.8-3.5,0.8
		c-1.4,0-2.5-0.3-3.3-1c-0.8-0.7-1.2-1.7-1.2-2.9c0-0.5,0-0.9,0.1-1.3l0.9-4.5h-2l0.7-3.5h2l0.7-3.5h4.8l-0.7,3.5h3.1l-0.7,3.5h-3.1
		L396.5,541z"/>
	<path class="st2" d="M404.1,532.5h4.7l-2.7,13.5h-4.7L404.1,532.5z M405.1,530.3c-0.5-0.5-0.8-1-0.8-1.7c0-0.8,0.3-1.4,0.8-1.9
		c0.6-0.5,1.3-0.8,2.2-0.8c0.8,0,1.5,0.2,2,0.6c0.5,0.4,0.8,1,0.8,1.6c0,0.8-0.3,1.5-0.8,2s-1.3,0.8-2.2,0.8
		C406.3,531,405.6,530.7,405.1,530.3z"/>
	<path class="st2" d="M423.9,533.4c0.9,0.8,1.3,1.9,1.3,3.4c0,0.5-0.1,1.1-0.2,1.7l-1.5,7.5h-4.8l1.4-7c0.1-0.3,0.1-0.6,0.1-0.9
		c0-1.2-0.6-1.8-1.9-1.8c-0.8,0-1.5,0.3-2,0.8c-0.5,0.5-0.9,1.3-1.1,2.3l-1.4,6.7h-4.8l2.7-13.5h4.5l-0.3,1.4c0.6-0.5,1.2-1,2-1.2
		s1.5-0.4,2.3-0.4C421.9,532.2,423,532.6,423.9,533.4z"/>
	<path class="st2" d="M444.1,532.5l-2.2,11c-0.5,2.6-1.5,4.5-3,5.8s-3.5,1.8-5.9,1.8c-2.7,0-4.9-0.6-6.6-1.8l2.1-3.3
		c0.5,0.4,1.2,0.8,2,1s1.7,0.4,2.5,0.4c1.2,0,2.1-0.3,2.7-0.8c0.6-0.5,1-1.3,1.2-2.3l0.1-0.5c-1,0.9-2.3,1.4-3.8,1.4
		c-1.1,0-2.1-0.2-3-0.7c-0.9-0.5-1.6-1.1-2.1-2c-0.5-0.9-0.8-1.9-0.8-3.1c0-1.3,0.3-2.6,1-3.7c0.6-1.1,1.5-2,2.7-2.6
		c1.1-0.7,2.4-1,3.8-1c1,0,1.9,0.2,2.7,0.6c0.8,0.4,1.3,1,1.7,1.8l0.4-2.1H444.1z M437,540.6c0.6-0.6,0.9-1.4,0.9-2.3
		c0-0.7-0.2-1.2-0.7-1.6s-1.1-0.6-1.9-0.6c-0.9,0-1.7,0.3-2.3,0.9c-0.6,0.6-0.9,1.4-0.9,2.4c0,0.7,0.2,1.2,0.7,1.6
		c0.5,0.4,1.1,0.6,1.9,0.6C435.6,541.5,436.4,541.2,437,540.6z"/>
	<path class="st2" d="M448.2,545.5c-1.1-0.5-1.9-1.2-2.5-2.2c-0.6-0.9-0.9-2-0.9-3.2c0-1.5,0.4-2.8,1.1-4c0.7-1.2,1.7-2.1,3-2.8
		c1.3-0.7,2.7-1,4.3-1c1.4,0,2.7,0.3,3.8,0.8c1.1,0.5,1.9,1.2,2.5,2.2c0.6,0.9,0.9,2,0.9,3.2c0,1.5-0.4,2.8-1.1,4
		c-0.7,1.2-1.7,2.1-3,2.8s-2.7,1-4.3,1C450.5,546.2,449.3,546,448.2,545.5z M454.5,541.3c0.6-0.7,0.9-1.6,0.9-2.7
		c0-0.8-0.2-1.4-0.7-1.9c-0.5-0.5-1.1-0.7-1.9-0.7c-1,0-1.7,0.3-2.3,1c-0.6,0.7-0.9,1.6-0.9,2.8c0,0.8,0.2,1.4,0.7,1.9
		c0.5,0.5,1.1,0.7,1.9,0.7C453.2,542.4,453.9,542,454.5,541.3z"/>
	<path class="st2" d="M486,532.5l-7.4,13.5h-4.7l-1.3-7.4l-4,7.4H464l-2.3-13.5h4.4l1.2,8.1l4.5-8.1h4.1l1.2,8.1l4.5-8.1H486z"/>
	<path class="st2" d="M501.3,532.5l-2.7,13.5h-4.5l0.3-1.3c-1.1,1-2.4,1.5-3.9,1.5c-1,0-1.9-0.2-2.8-0.7c-0.9-0.5-1.6-1.2-2.1-2.1
		c-0.5-0.9-0.8-2-0.8-3.3c0-1.5,0.3-2.8,1-4s1.5-2.1,2.7-2.8s2.4-1,3.7-1c2,0,3.4,0.6,4.2,1.9l0.3-1.6H501.3z M494.5,541.3
		c0.6-0.7,0.9-1.6,0.9-2.7c0-0.8-0.2-1.4-0.7-1.9c-0.5-0.5-1.1-0.7-1.9-0.7c-1,0-1.7,0.3-2.3,1c-0.6,0.7-0.9,1.6-0.9,2.8
		c0,0.8,0.2,1.4,0.7,1.9c0.5,0.5,1.1,0.7,1.9,0.7C493.1,542.4,493.9,542,494.5,541.3z"/>
</g>
</svg>
