<svg xmlns="http://www.w3.org/2000/svg" viewBox="0 0 80 80">
    <style>
        .midnight-f{fill: #3a416f}
    </style>
    <path class="midnight-f" d="M 24 5 C 22.906937 5 22 5.9069372 22 7 L 22 10 L 15 10 C 12.243 10 10 12.243 10 15 L 10 65 C 10 67.757 12.243 70 15 70 L 65 70 C 67.757 70 70 67.757 70 65 L 70 52 L 68 54 L 68 65 C 68 66.654 66.654 68 65 68 L 15 68 C 13.346 68 12 66.654 12 65 L 12 24 L 68 24 L 68 34 L 70 36 L 70 15 C 70 12.243 67.757 10 65 10 L 58 10 L 58 7 C 58 5.9069372 57.093063 5 56 5 L 54 5 C 52.906937 5 52 5.9069372 52 7 L 52 10 L 28 10 L 28 7 C 28 5.9069372 27.093063 5 26 5 L 24 5 z M 24 7 L 26 7 L 26 15 L 24 15 L 24 7 z M 54 7 L 56 7 L 56 15 L 54 15 L 54 7 z M 15 12 L 22 12 L 22 15 C 22 16.093063 22.906937 17 24 17 L 26 17 C 27.093063 17 28 16.093063 28 15 L 28 12 L 52 12 L 52 15 C 52 16.093063 52.906937 17 54 17 L 56 17 C 57.093063 17 58 16.093063 58 15 L 58 12 L 65 12 C 66.654 12 68 13.346 68 15 L 68 22 L 12 22 L 12 15 C 12 13.346 13.346 12 15 12 z M 62.707031 33.292969 L 61.292969 34.707031 L 69.585938 43 L 44 43 A 1.0001 1.0001 0 1 0 44 45 L 69.585938 45 L 61.292969 53.292969 L 62.707031 54.707031 L 72.619141 44.794922 A 1.0001 1.0001 0 0 0 72.810547 44.603516 L 73.414062 44 L 72.806641 43.392578 A 1.0001 1.0001 0 0 0 72.623047 43.207031 A 1.0001 1.0001 0 0 0 72.617188 43.203125 L 62.707031 33.292969 z M 25 43 A 1 1 0 0 0 24 44 A 1 1 0 0 0 25 45 A 1 1 0 0 0 26 44 A 1 1 0 0 0 25 43 z M 31 43 A 1 1 0 0 0 30 44 A 1 1 0 0 0 31 45 A 1 1 0 0 0 32 44 A 1 1 0 0 0 31 43 z M 36 43 A 1 1 0 0 0 35 44 A 1 1 0 0 0 36 45 A 1 1 0 0 0 37 44 A 1 1 0 0 0 36 43 z M 40 43 A 1 1 0 0 0 39 44 A 1 1 0 0 0 40 45 A 1 1 0 0 0 41 44 A 1 1 0 0 0 40 43 z M 16 62 A 1 1 0 0 0 15 63 A 1 1 0 0 0 16 64 A 1 1 0 0 0 17 63 A 1 1 0 0 0 16 62 z M 20 62 A 1 1 0 0 0 19 63 A 1 1 0 0 0 20 64 A 1 1 0 0 0 21 63 A 1 1 0 0 0 20 62 z M 24 62 A 1 1 0 0 0 23 63 A 1 1 0 0 0 24 64 A 1 1 0 0 0 25 63 A 1 1 0 0 0 24 62 z M 28 62 A 1 1 0 0 0 27 63 A 1 1 0 0 0 28 64 A 1 1 0 0 0 29 63 A 1 1 0 0 0 28 62 z M 32 62 A 1 1 0 0 0 31 63 A 1 1 0 0 0 32 64 A 1 1 0 0 0 33 63 A 1 1 0 0 0 32 62 z M 36 62 A 1 1 0 0 0 35 63 A 1 1 0 0 0 36 64 A 1 1 0 0 0 37 63 A 1 1 0 0 0 36 62 z M 40 62 A 1 1 0 0 0 39 63 A 1 1 0 0 0 40 64 A 1 1 0 0 0 41 63 A 1 1 0 0 0 40 62 z M 44 62 A 1 1 0 0 0 43 63 A 1 1 0 0 0 44 64 A 1 1 0 0 0 45 63 A 1 1 0 0 0 44 62 z M 48 62 A 1 1 0 0 0 47 63 A 1 1 0 0 0 48 64 A 1 1 0 0 0 49 63 A 1 1 0 0 0 48 62 z M 52 62 A 1 1 0 0 0 51 63 A 1 1 0 0 0 52 64 A 1 1 0 0 0 53 63 A 1 1 0 0 0 52 62 z M 56 62 A 1 1 0 0 0 55 63 A 1 1 0 0 0 56 64 A 1 1 0 0 0 57 63 A 1 1 0 0 0 56 62 z M 60 62 A 1 1 0 0 0 59 63 A 1 1 0 0 0 60 64 A 1 1 0 0 0 61 63 A 1 1 0 0 0 60 62 z M 64 62 A 1 1 0 0 0 63 63 A 1 1 0 0 0 64 64 A 1 1 0 0 0 65 63 A 1 1 0 0 0 64 62 z"></path>
</svg>