<svg xmlns="http://www.w3.org/2000/svg" xmlns:xlink="http://www.w3.org/1999/xlink" viewBox="0 0 80 80" version="1.1">
<g id="surface1">
    <style>
        .st0{fill:url(#SVGID_1_);}
    </style>
<linearGradient id="SVGID_1_" gradientUnits="userSpaceOnUse" x1="-616.2086" y1="709.6216" x2="-591.9714" y2="709.6216">
	<stop  offset="0" style="stop-color:#B2725E"/>
	<stop  offset="1" style="stop-color:#D79888"/>
</linearGradient>
<path style=" " class="st0" d="M 27.484375 10 C 20.949219 10 16.695313 12.964844 14.234375 16.59375 C 11.769531 20.222656 11 24.433594 11 27.246094 L 11 30.308594 L 12.808594 27.839844 C 12.808594 27.839844 16.398438 22.847656 23.691406 20.0625 C 20.125 22.9375 18.03125 27.027344 18.03125 31 C 18.03125 38.382813 22.328125 42.707031 22.328125 42.707031 L 23.636719 44.015625 L 24.011719 42.203125 C 24.011719 42.203125 24.984375 37.558594 27.421875 32.296875 C 29.628906 27.542969 33.027344 22.386719 37.808594 19.703125 C 36.011719 35.339844 29.445313 44.328125 23.234375 49.480469 C 16.90625 54.734375 11.085938 55.957031 10.878906 56 L 10 56 C 9.640625 55.996094 9.304688 56.183594 9.121094 56.496094 C 8.941406 56.808594 8.941406 57.191406 9.121094 57.503906 C 9.304688 57.816406 9.640625 58.003906 10 58 L 33 58 C 45.035156 58 49.058594 69.339844 49.058594 69.339844 C 49.0625 69.351563 49.066406 69.359375 49.074219 69.371094 C 49.078125 69.382813 49.082031 69.394531 49.085938 69.40625 C 49.097656 69.429688 49.109375 69.453125 49.125 69.480469 C 49.136719 69.503906 49.152344 69.527344 49.167969 69.550781 C 49.171875 69.5625 49.175781 69.570313 49.183594 69.578125 C 49.195313 69.59375 49.210938 69.609375 49.222656 69.625 C 49.230469 69.636719 49.238281 69.648438 49.25 69.660156 C 49.265625 69.679688 49.285156 69.699219 49.300781 69.71875 C 49.328125 69.738281 49.351563 69.761719 49.378906 69.78125 C 49.40625 69.804688 49.429688 69.824219 49.457031 69.84375 C 49.488281 69.859375 49.515625 69.875 49.546875 69.890625 C 49.574219 69.90625 49.605469 69.917969 49.632813 69.929688 C 49.632813 69.929688 49.636719 69.929688 49.636719 69.933594 C 49.636719 69.933594 49.640625 69.933594 49.640625 69.933594 C 49.671875 69.945313 49.703125 69.953125 49.734375 69.964844 C 49.757813 69.96875 49.785156 69.976563 49.8125 69.984375 C 49.828125 69.984375 49.84375 69.988281 49.859375 69.988281 C 49.871094 69.992188 49.878906 69.992188 49.890625 69.996094 C 49.914063 69.996094 49.9375 69.996094 49.964844 70 C 49.96875 70 49.972656 70 49.976563 70 C 49.984375 70 49.992188 70 50 70 C 50.003906 70 50.007813 70 50.011719 70 C 50.074219 70 50.136719 69.992188 50.199219 69.980469 C 50.230469 69.972656 50.261719 69.964844 50.296875 69.953125 C 50.328125 69.945313 50.359375 69.933594 50.390625 69.921875 C 50.449219 69.894531 50.507813 69.863281 50.5625 69.828125 C 50.585938 69.8125 50.605469 69.796875 50.625 69.78125 C 50.632813 69.777344 50.636719 69.769531 50.644531 69.765625 C 50.652344 69.761719 50.65625 69.753906 50.664063 69.75 C 50.683594 69.730469 50.699219 69.714844 50.71875 69.699219 C 50.738281 69.671875 50.761719 69.648438 50.78125 69.621094 C 50.800781 69.601563 50.8125 69.582031 50.828125 69.5625 C 50.828125 69.558594 50.832031 69.558594 50.832031 69.554688 C 50.839844 69.539063 50.847656 69.527344 50.859375 69.511719 C 50.871094 69.492188 50.878906 69.472656 50.890625 69.453125 C 50.90625 69.425781 50.917969 69.394531 50.933594 69.363281 C 50.933594 69.359375 50.933594 69.359375 50.933594 69.355469 C 50.945313 69.328125 50.953125 69.296875 50.964844 69.265625 C 50.972656 69.238281 50.980469 69.207031 50.984375 69.175781 C 50.984375 69.175781 50.984375 69.171875 50.984375 69.171875 C 50.992188 69.144531 50.992188 69.121094 50.996094 69.09375 C 50.996094 69.085938 50.996094 69.078125 51 69.070313 C 51 69.046875 51 69.023438 51 69 C 51 68.996094 51 68.996094 51 68.996094 C 51 68.929688 50.992188 68.863281 50.980469 68.800781 C 50.980469 68.800781 50.980469 68.796875 50.980469 68.796875 C 50.972656 68.75 50.957031 68.703125 50.941406 68.660156 C 50.941406 68.660156 50.925781 68.625 50.925781 68.621094 C 50.925781 68.621094 50.921875 68.613281 50.921875 68.609375 C 50.921875 68.609375 50.917969 68.605469 50.917969 68.605469 C 50.859375 68.445313 49.601563 65.175781 46.621094 61.980469 C 46.746094 61.988281 46.871094 62 47 62 C 48.332031 62 49.449219 61.394531 50.449219 60.894531 C 51.449219 60.394531 52.332031 60 53 60 C 53.667969 60 54.550781 60.394531 55.550781 60.894531 C 56.550781 61.394531 57.667969 62 59 62 C 60.332031 62 61.449219 61.394531 62.449219 60.894531 C 63.449219 60.394531 64.332031 60 65 60 C 65.667969 60 66.550781 60.394531 67.550781 60.894531 C 68.550781 61.394531 69.667969 62 71 62 L 71 60 C 70.332031 60 69.449219 59.605469 68.449219 59.105469 C 67.449219 58.605469 66.332031 58 65 58 C 63.667969 58 62.550781 58.605469 61.550781 59.105469 C 60.550781 59.605469 59.667969 60 59 60 C 58.332031 60 57.449219 59.605469 56.449219 59.105469 C 55.449219 58.605469 54.332031 58 53 58 C 51.667969 58 50.550781 58.605469 49.550781 59.105469 C 48.550781 59.605469 47.667969 60 47 60 C 46.332031 60 45.449219 59.605469 44.449219 59.105469 C 43.578125 58.671875 42.621094 58.15625 41.507813 58.03125 C 39.183594 56.816406 36.371094 56 33 56 L 30.179688 56 C 31.632813 54.773438 33.488281 52.886719 35.339844 50.046875 C 36.910156 47.636719 38.46875 44.542969 39.765625 40.644531 C 39.917969 40.464844 40 40.234375 40 40 C 40 39.976563 40 39.957031 39.996094 39.9375 C 41.667969 34.648438 42.855469 27.925781 42.980469 19.425781 C 47.054688 22.472656 49.339844 27.59375 50.566406 32.25 C 51.953125 37.496094 52 42.011719 52 42.011719 L 52.015625 43.859375 L 53.554688 42.832031 C 53.554688 42.832031 60 38.5 60 30 C 60 27.117188 59.300781 24.53125 58.042969 22.394531 C 61.460938 24.972656 63.175781 27.765625 63.175781 27.765625 L 65.03125 30.824219 L 65.03125 27.246094 C 65.03125 24.621094 65.058594 20.410156 63.320313 16.730469 C 61.582031 13.046875 57.886719 10 51.199219 10 C 47.867188 10 44.960938 11.101563 42.824219 12.605469 C 41.683594 13.40625 40.75 14.3125 40.082031 15.269531 C 37.960938 13.058594 33.886719 10 27.484375 10 Z M 27.484375 12 C 33.511719 12 36.949219 14.820313 38.6875 16.746094 C 36.914063 16.507813 35.234375 16.417969 33.625 16.433594 L 33.613281 16.242188 C 32.882813 16.292969 32.179688 16.394531 31.488281 16.523438 C 22.480469 17.207031 16.402344 21.492188 13.417969 24.296875 C 13.789063 22.171875 14.4375 19.851563 15.890625 17.71875 C 18.046875 14.535156 21.535156 12 27.484375 12 Z M 51.199219 12 C 57.3125 12 60.035156 14.453125 61.511719 17.582031 C 62.511719 19.699219 62.78125 22.050781 62.898438 24.242188 C 61.855469 23.054688 60.5 21.644531 58.589844 20.304688 C 56.757813 19.019531 54.484375 17.875 51.816406 17.160156 C 51.355469 16.988281 50.882813 16.828125 50.390625 16.703125 L 50.359375 16.820313 C 47.984375 16.355469 45.316406 16.25 42.402344 16.667969 C 42.367188 16.648438 42.335938 16.628906 42.300781 16.609375 L 42.257813 16.6875 C 42.042969 16.722656 41.835938 16.746094 41.621094 16.78125 C 42.113281 15.949219 42.824219 15.050781 43.972656 14.238281 C 45.789063 12.960938 48.308594 12 51.199219 12 Z M 34.191406 18.238281 C 34.835938 18.246094 35.5 18.28125 36.175781 18.332031 C 31.171875 21.398438 27.8125 26.703125 25.609375 31.453125 C 23.933594 35.074219 23.109375 37.816406 22.613281 39.675781 C 21.523438 38.167969 20.03125 35.609375 20.03125 31 C 20.03125 25.382813 25.324219 18.863281 33.675781 18.246094 C 33.851563 18.246094 34.019531 18.238281 34.191406 18.238281 Z M 45.640625 18.246094 C 47.191406 18.222656 48.628906 18.382813 49.964844 18.660156 C 54.945313 19.949219 58 24.042969 58 30 C 58 35.601563 55.421875 38.367188 53.851563 39.765625 C 53.714844 37.902344 53.425781 35.242188 52.5 31.738281 C 51.269531 27.0625 49.007813 21.746094 44.765625 18.28125 C 45.058594 18.265625 45.355469 18.246094 45.640625 18.246094 Z M 40.472656 18.921875 C 40.582031 18.941406 40.6875 18.957031 40.796875 18.980469 L 40.984375 19.015625 C 40.976563 19.902344 40.953125 20.765625 40.921875 21.609375 C 40.761719 21.238281 40.402344 21 40 21 C 39.875 21 39.753906 21.023438 39.636719 21.066406 C 39.726563 20.402344 39.816406 19.746094 39.890625 19.058594 L 40.242188 18.96875 C 40.320313 18.949219 40.394531 18.9375 40.472656 18.921875 Z M 40.878906 22.472656 C 40.667969 26.90625 40.15625 30.789063 39.4375 34.171875 C 39.164063 34.359375 39 34.667969 39 35 C 39 35.179688 39.050781 35.355469 39.140625 35.511719 C 38.730469 37.261719 38.261719 38.867188 37.753906 40.34375 C 37.566406 40.125 37.289063 40 37 40 C 36.449219 40 36 40.449219 36 41 C 36 41.550781 36.449219 42 37 42 C 37.054688 42 37.109375 41.996094 37.160156 41.984375 C 36.703125 43.183594 36.21875 44.292969 35.71875 45.308594 C 35.53125 45.113281 35.273438 45 35 45 C 34.449219 45 34 45.449219 34 46 C 34 46.492188 34.355469 46.910156 34.84375 46.988281 C 34.449219 47.691406 34.054688 48.347656 33.660156 48.953125 C 33.085938 49.835938 32.519531 50.585938 31.957031 51.28125 C 31.984375 51.191406 32 51.09375 32 51 C 32 50.449219 31.550781 50 31 50 C 30.449219 50 30 50.449219 30 51 C 30 51.550781 30.449219 52 31 52 C 31.15625 52 31.3125 51.960938 31.453125 51.890625 C 30.441406 53.070313 29.488281 53.992188 28.707031 54.636719 C 27.570313 55.570313 26.9375 55.902344 26.742188 56 L 16.660156 56 C 18.824219 54.988281 21.398438 53.519531 24.074219 51.371094 C 24.222656 51.75 24.589844 52 25 52 C 25.550781 52 26 51.550781 26 51 C 26 50.652344 25.816406 50.328125 25.519531 50.144531 C 26.582031 49.195313 27.644531 48.128906 28.6875 46.949219 C 28.789063 46.984375 28.894531 47 29 47 C 29.550781 47 30 46.550781 30 46 C 30 45.835938 29.960938 45.675781 29.882813 45.53125 C 30.964844 44.183594 32.015625 42.707031 33.003906 41.0625 C 33.039063 41.589844 33.472656 42 34 42 C 34.550781 42 35 41.550781 35 41 C 35 40.449219 34.550781 40 34 40 C 33.84375 40 33.6875 40.039063 33.546875 40.109375 C 34.425781 38.5625 35.257813 36.902344 36.003906 35.089844 C 36.050781 35.601563 36.484375 36 37 36 C 37.550781 36 38 35.550781 38 35 C 38 34.449219 37.550781 34 37 34 C 36.75 34 36.507813 34.09375 36.324219 34.265625 C 37.019531 32.496094 37.640625 30.597656 38.175781 28.566406 C 38.363281 28.839844 38.671875 29 39 29 C 39.550781 29 40 28.550781 40 28 C 40 27.449219 39.550781 27 39 27 C 38.839844 27 38.683594 27.039063 38.542969 27.113281 C 38.867188 25.734375 39.148438 24.292969 39.390625 22.792969 C 39.5625 22.925781 39.777344 23 40 23 C 40.367188 23 40.703125 22.796875 40.878906 22.472656 Z M 32 45 C 31.449219 45 31 45.449219 31 46 C 31 46.550781 31.449219 47 32 47 C 32.550781 47 33 46.550781 33 46 C 33 45.449219 32.550781 45 32 45 Z M 28 50 C 27.449219 50 27 50.449219 27 51 C 27 51.550781 27.449219 52 28 52 C 28.550781 52 29 51.550781 29 51 C 29 50.449219 28.550781 50 28 50 Z M 10 68 C 9.449219 68 9 68.449219 9 69 C 9 69.550781 9.449219 70 10 70 C 10.550781 70 11 69.550781 11 69 C 11 68.449219 10.550781 68 10 68 Z M 14 68 C 13.449219 68 13 68.449219 13 69 C 13 69.550781 13.449219 70 14 70 C 14.550781 70 15 69.550781 15 69 C 15 68.449219 14.550781 68 14 68 Z M 18 68 C 17.449219 68 17 68.449219 17 69 C 17 69.550781 17.449219 70 18 70 C 18.550781 70 19 69.550781 19 69 C 19 68.449219 18.550781 68 18 68 Z M 22 68 C 21.449219 68 21 68.449219 21 69 C 21 69.550781 21.449219 70 22 70 C 22.550781 70 23 69.550781 23 69 C 23 68.449219 22.550781 68 22 68 Z M 26 68 C 25.449219 68 25 68.449219 25 69 C 25 69.550781 25.449219 70 26 70 C 26.550781 70 27 69.550781 27 69 C 27 68.449219 26.550781 68 26 68 Z M 30 68 C 29.449219 68 29 68.449219 29 69 C 29 69.550781 29.449219 70 30 70 C 30.550781 70 31 69.550781 31 69 C 31 68.449219 30.550781 68 30 68 Z M 34 68 C 33.449219 68 33 68.449219 33 69 C 33 69.550781 33.449219 70 34 70 C 34.550781 70 35 69.550781 35 69 C 35 68.449219 34.550781 68 34 68 Z M 38 68 C 37.449219 68 37 68.449219 37 69 C 37 69.550781 37.449219 70 38 70 C 38.550781 70 39 69.550781 39 69 C 39 68.449219 38.550781 68 38 68 Z M 42 68 C 41.449219 68 41 68.449219 41 69 C 41 69.550781 41.449219 70 42 70 C 42.550781 70 43 69.550781 43 69 C 43 68.449219 42.550781 68 42 68 Z M 46 68 C 45.449219 68 45 68.449219 45 69 C 45 69.550781 45.449219 70 46 70 C 46.550781 70 47 69.550781 47 69 C 47 68.449219 46.550781 68 46 68 Z M 54 68 C 53.449219 68 53 68.449219 53 69 C 53 69.550781 53.449219 70 54 70 C 54.550781 70 55 69.550781 55 69 C 55 68.449219 54.550781 68 54 68 Z M 58 68 C 57.449219 68 57 68.449219 57 69 C 57 69.550781 57.449219 70 58 70 C 58.550781 70 59 69.550781 59 69 C 59 68.449219 58.550781 68 58 68 Z M 62 68 C 61.449219 68 61 68.449219 61 69 C 61 69.550781 61.449219 70 62 70 C 62.550781 70 63 69.550781 63 69 C 63 68.449219 62.550781 68 62 68 Z M 66 68 C 65.449219 68 65 68.449219 65 69 C 65 69.550781 65.449219 70 66 70 C 66.550781 70 67 69.550781 67 69 C 67 68.449219 66.550781 68 66 68 Z M 70 68 C 69.449219 68 69 68.449219 69 69 C 69 69.550781 69.449219 70 70 70 C 70.550781 70 71 69.550781 71 69 C 71 68.449219 70.550781 68 70 68 Z "></path>
</g>
</svg>