<svg xmlns="http://www.w3.org/2000/svg" xmlns:xlink="http://www.w3.org/1999/xlink" viewBox="0 0 80 80" version="1.1">
<g id="surface1">
<path style=" " d="M 38.117188 8.882813 L 24.800781 10.214844 L 30.085938 15.5 L 9.292969 36.292969 L 10.707031 37.707031 L 31.5 16.914063 L 36.785156 22.199219 L 36.996094 20.097656 Z M 57 9 L 57 69 L 55 69 L 55 25 L 41 25 L 41 69 L 39 69 L 39 41 L 25 41 L 25 69 L 23 69 L 23 55 L 9 55 L 9 69 L 5 69 L 5 71 L 75 71 L 75 69 L 71 69 L 71 9 Z M 59 11 L 69 11 L 69 69 L 59 69 Z M 35.886719 11.113281 L 35.214844 17.800781 L 29.199219 11.785156 Z M 43 27 L 53 27 L 53 69 L 43 69 Z M 45 29 C 44.449219 29 44 29.449219 44 30 C 44 30.550781 44.449219 31 45 31 C 45.550781 31 46 30.550781 46 30 C 46 29.449219 45.550781 29 45 29 Z M 51 29 C 50.449219 29 50 29.449219 50 30 C 50 30.550781 50.449219 31 51 31 C 51.550781 31 52 30.550781 52 30 C 52 29.449219 51.550781 29 51 29 Z M 48 32 C 47.449219 32 47 32.449219 47 33 C 47 33.550781 47.449219 34 48 34 C 48.550781 34 49 33.550781 49 33 C 49 32.449219 48.550781 32 48 32 Z M 45 35 C 44.449219 35 44 35.449219 44 36 C 44 36.550781 44.449219 37 45 37 C 45.550781 37 46 36.550781 46 36 C 46 35.449219 45.550781 35 45 35 Z M 51 35 C 50.449219 35 50 35.449219 50 36 C 50 36.550781 50.449219 37 51 37 C 51.550781 37 52 36.550781 52 36 C 52 35.449219 51.550781 35 51 35 Z M 48 38 C 47.449219 38 47 38.449219 47 39 C 47 39.550781 47.449219 40 48 40 C 48.550781 40 49 39.550781 49 39 C 49 38.449219 48.550781 38 48 38 Z M 45 41 C 44.449219 41 44 41.449219 44 42 C 44 42.550781 44.449219 43 45 43 C 45.550781 43 46 42.550781 46 42 C 46 41.449219 45.550781 41 45 41 Z M 51 41 C 50.449219 41 50 41.449219 50 42 C 50 42.550781 50.449219 43 51 43 C 51.550781 43 52 42.550781 52 42 C 52 41.449219 51.550781 41 51 41 Z M 27 43 L 37 43 L 37 69 L 27 69 Z M 48 44 C 47.449219 44 47 44.449219 47 45 C 47 45.550781 47.449219 46 48 46 C 48.550781 46 49 45.550781 49 45 C 49 44.449219 48.550781 44 48 44 Z M 45 47 C 44.449219 47 44 47.449219 44 48 C 44 48.550781 44.449219 49 45 49 C 45.550781 49 46 48.550781 46 48 C 46 47.449219 45.550781 47 45 47 Z M 51 47 C 50.449219 47 50 47.449219 50 48 C 50 48.550781 50.449219 49 51 49 C 51.550781 49 52 48.550781 52 48 C 52 47.449219 51.550781 47 51 47 Z M 48 50 C 47.449219 50 47 50.449219 47 51 C 47 51.550781 47.449219 52 48 52 C 48.550781 52 49 51.550781 49 51 C 49 50.449219 48.550781 50 48 50 Z M 45 53 C 44.449219 53 44 53.449219 44 54 C 44 54.550781 44.449219 55 45 55 C 45.550781 55 46 54.550781 46 54 C 46 53.449219 45.550781 53 45 53 Z M 51 53 C 50.449219 53 50 53.449219 50 54 C 50 54.550781 50.449219 55 51 55 C 51.550781 55 52 54.550781 52 54 C 52 53.449219 51.550781 53 51 53 Z M 48 56 C 47.449219 56 47 56.449219 47 57 C 47 57.550781 47.449219 58 48 58 C 48.550781 58 49 57.550781 49 57 C 49 56.449219 48.550781 56 48 56 Z M 11 57 L 21 57 L 21 69 L 11 69 Z M 13 59 C 12.449219 59 12 59.449219 12 60 C 12 60.550781 12.449219 61 13 61 C 13.550781 61 14 60.550781 14 60 C 14 59.449219 13.550781 59 13 59 Z M 19 59 C 18.449219 59 18 59.449219 18 60 C 18 60.550781 18.449219 61 19 61 C 19.550781 61 20 60.550781 20 60 C 20 59.449219 19.550781 59 19 59 Z M 45 59 C 44.449219 59 44 59.449219 44 60 C 44 60.550781 44.449219 61 45 61 C 45.550781 61 46 60.550781 46 60 C 46 59.449219 45.550781 59 45 59 Z M 51 59 C 50.449219 59 50 59.449219 50 60 C 50 60.550781 50.449219 61 51 61 C 51.550781 61 52 60.550781 52 60 C 52 59.449219 51.550781 59 51 59 Z M 16 62 C 15.449219 62 15 62.449219 15 63 C 15 63.550781 15.449219 64 16 64 C 16.550781 64 17 63.550781 17 63 C 17 62.449219 16.550781 62 16 62 Z M 48 62 C 47.449219 62 47 62.449219 47 63 C 47 63.550781 47.449219 64 48 64 C 48.550781 64 49 63.550781 49 63 C 49 62.449219 48.550781 62 48 62 Z M 13 65 C 12.449219 65 12 65.449219 12 66 C 12 66.550781 12.449219 67 13 67 C 13.550781 67 14 66.550781 14 66 C 14 65.449219 13.550781 65 13 65 Z M 19 65 C 18.449219 65 18 65.449219 18 66 C 18 66.550781 18.449219 67 19 67 C 19.550781 67 20 66.550781 20 66 C 20 65.449219 19.550781 65 19 65 Z M 45 65 C 44.449219 65 44 65.449219 44 66 C 44 66.550781 44.449219 67 45 67 C 45.550781 67 46 66.550781 46 66 C 46 65.449219 45.550781 65 45 65 Z M 51 65 C 50.449219 65 50 65.449219 50 66 C 50 66.550781 50.449219 67 51 67 C 51.550781 67 52 66.550781 52 66 C 52 65.449219 51.550781 65 51 65 Z "></path>
</g>
</svg>