<?xml version="1.0" encoding="utf-8"?>
<!-- Generator: Adobe Illustrator 19.0.0, SVG Export Plug-In . SVG Version: 6.00 Build 0)  -->
<svg version="1.1" id="Layer_1" xmlns="http://www.w3.org/2000/svg" xmlns:xlink="http://www.w3.org/1999/xlink" x="0px" y="0px"
	 viewBox="350 -100 800 300" style="enable-background:new 350 -100 800 300;" xml:space="preserve">
<style type="text/css">
	.st0{fill:#FFFFFF;}
	.st1{opacity:0.5;fill:#FFFFFF;}
</style>
<g id="P4rhxl.tif">
	<g>
		<path class="st0" d="M932.7-26c-0.1,0-0.2,0-0.2,0c-2.5,0.3-4.9,0.7-7.4,1c-5.5,0.8-11.1,1.5-16.6,2.3c-5.5,0.8-10.9,1.5-16.4,2.3
			c-5.1,0.7-10.2,1.4-15.2,2.1c-5.2,0.7-10.3,1.4-15.5,2.2c-5.5,0.8-11,1.5-16.4,2.3c-5.1,0.7-10.3,1.4-15.4,2.2
			c-5,0.7-10.1,1.4-15.1,2.1c-5.5,0.8-11,1.6-16.5,2.3c-5.5,0.8-11.1,1.5-16.6,2.3c-5.5,0.8-11.1,1.6-16.6,2.3
			c-5.6,0.8-11.1,1.5-16.7,2.3c-6,0.8-12,1.7-18,2.5c-5.6,0.8-11.1,1.6-16.7,2.3c-5,0.7-10.1,1.4-15.1,2.1c-4.7,0.7-9.4,1.3-14.1,2
			c-5,0.7-10.1,1.4-15.1,2.1c-5.1,0.7-10.3,1.4-15.4,2.1c-5,0.7-10.1,1.4-15.1,2.1c-5.1,0.7-10.2,1.4-15.2,2.1
			c-5.5,0.8-11.1,1.6-16.6,2.3c-5.5,0.8-11.1,1.5-16.6,2.3c-5.1,0.7-10.2,1.4-15.2,2.1c-5.6,0.8-11.2,1.6-16.8,2.3
			c-1.7,0.2-3.5,0.4-5.2,0.6v66.8c2.4-0.3,4.7-0.6,7.1-1c5-0.7,10-1.4,15.1-2.1c5.2-0.7,10.3-1.4,15.5-2.2
			c5.1-0.7,10.2-1.4,15.2-2.1c5.1-0.7,10.2-1.4,15.2-2.1c5.1-0.7,10.2-1.4,15.3-2.1c5.1-0.7,10.2-1.4,15.3-2.1
			c4.6-0.6,9.2-1.3,13.9-1.9c4.7-0.6,9.3-1.3,14-2c5.1-0.7,10.3-1.4,15.4-2.1c5-0.7,10.1-1.4,15.1-2.1c5.1-0.7,10.2-1.4,15.3-2.1
			c5.1-0.7,10.2-1.4,15.3-2.1c5.1-0.7,10.2-1.4,15.2-2.1c5.1-0.7,10.2-1.4,15.3-2.1c6-0.8,11.9-1.6,17.9-2.5
			c5.5-0.8,11.1-1.6,16.6-2.3c5.1-0.7,10.2-1.4,15.3-2.1c5.1-0.7,10.2-1.4,15.3-2.1c5.5-0.8,11.1-1.5,16.6-2.3
			c5.2-0.7,10.3-1.4,15.5-2.2c5.1-0.7,10.2-1.4,15.3-2.1c4.7-0.6,9.3-1.3,14-1.9c4.6-0.6,9.2-1.3,13.9-1.9c4.7-0.6,9.3-1.3,14-1.9
			c2.4-0.3,4.8-0.7,7.2-1V-26z M608.9,65.2c-1.1,2.4-2.9,4-5.3,5c-3.4,1.4-7,2-10.7,1.6c-3.8-0.5-6.2-2.7-6.7-6.6
			c-0.3-2.2-0.3-4.5-0.4-6.8c-0.1-3.7-0.1-7.3,0-11c0-4,1.8-7.1,5.2-9.1c3.7-2.1,7.8-2.9,12-2.2c4.3,0.6,6.7,3.4,6.9,7.7
			c0.1,0.9,0,1.7,0,2.7c-3,0.4-5.9,0.8-9.1,1.3c0-1,0-1.9,0-2.8c0-1.6-0.9-2.5-2.5-2.5c-2.2-0.1-3.6,1.3-3.6,3.4
			c0,5.4,0,10.9,0.1,16.3c0,0,0,0.1,0,0.1c0,2,0.7,3,2.3,3.1c1.9,0.1,3.5-1.1,3.7-2.8c0.2-1.6,0.1-3.2,0.1-4.9
			c0-0.5,0.1-0.8,0.6-0.9c2.6-0.4,5.3-0.7,7.9-1.1c0.1,0,0.2,0,0.4,0C610.1,59,610.4,62.2,608.9,65.2z M637.6,57.1
			c-0.3,5.1-3.2,8.3-8,9.9c-2.8,0.9-5.7,1.3-8.6,1c-4.3-0.6-7-3.4-7.2-7.7c0-0.8-0.1-1.5-0.1-2.3c0-4.5,0-8.9-0.1-13.4
			c-0.2-6.7,3.7-10,8.3-11.5c3.2-1,6.5-1.5,9.8-0.7c3.6,0.8,5.8,3.4,5.9,7.1c0.1,3.1,0,6.3,0,9.4c0,0,0,0,0,0
			C637.6,51.6,637.8,54.4,637.6,57.1z M667.8,61.2c-2.8,0.4-5.6,0.8-8.6,1.2V34.9c-2,0.3-3.8,0.5-5.8,0.8c0,1.4,0,2.8,0,4.1
			c0,4.1,0.1,8.2-0.1,12.3c-0.1,2.4-0.6,4.8-1.3,7c-1,3.5-3.7,5.3-7.2,5.6c-1.4,0.1-2.8-0.1-4.1-0.2c-0.2,0-0.7-0.4-0.7-0.6
			c-0.1-1.8,0-3.5,0-5.3c0.9-0.1,1.7-0.2,2.5-0.2c1-0.1,1.5-0.7,1.7-1.5c0.2-1,0.4-2.1,0.4-3.1c0-7.5,0-14.9,0-22.4
			c0-0.8,0.1-1.2,1-1.3c7.3-1,14.5-2,21.8-3c0.2,0,0.4,0,0.7,0c0,1,0,1.9,0,2.8c0,6.8,0,13.5,0.1,20.3c0,3.4,0.1,6.7,0.1,10.1
			C668.4,60.7,668.5,61.1,667.8,61.2z M681.5,59.3c-2.8,0.4-5.8,0.8-8.8,1.2c0-0.5-0.1-0.9-0.1-1.3c0-6.6,0-13.3-0.1-19.9
			c0-4-0.1-8-0.1-12c0-0.7,0.2-1,0.9-1c2.5-0.3,4.9-0.7,7.4-1c0.2,0,0.4,0,0.8,0V59.3z M714.7,61.6c-1.8,0.3-3.6,0.5-5.4,0.8
			c-0.8,0.1-1.6,0.2-2.4,0.3c-0.7,0.1-1-0.1-0.9-0.8c0-1.8,0-3.6,0-5.4c0-0.1,0-0.3-0.1-0.6c-4.2,0.6-8.3,1.2-12.5,1.7
			c0,2,0,3.9,0,5.9c0,0.7,0,1.1-0.9,1.2c-2.4,0.3-4.7,0.7-7.1,1c-0.2,0-0.5,0-0.9,0c0-1.2,0-2.3,0-3.4c0-3,0-6.1,0-9.1
			c0-0.6,0-1.1,0.8-1.1c0.3,0,0.6-0.4,0.8-0.7c1.6-2.6,2.5-5.5,2.6-8.6c0.2-5.2,0.2-10.4,0.3-15.6c0-0.7,0-1.5-0.1-2.2
			c-0.1-0.7,0.2-1,0.9-1.1c2.4-0.3,4.7-0.6,7.1-1c4.7-0.6,9.3-1.3,14-1.9c0.5-0.1,1-0.1,1.8-0.2v27.5c0.7-0.1,1.3-0.1,1.9-0.2V61.6z
			 M733.2,52.1c-0.5-2.2-0.9-4.3-1.4-6.6c-1.3,0.2-2.6,0.3-3.9,0.5c-0.5,0.1-1,0.2-1.5,0.2c-1.2-0.1-1.4,0.6-1.5,1.6
			c-0.2,1.6-0.5,3.3-0.8,4.9c-0.1,0.3-0.4,0.7-0.7,0.7c-2.7,0.4-5.5,0.8-8.4,1.2c0.7-3.2,1.4-6.3,2.1-9.4c1.8-8.2,3.7-16.4,5.5-24.6
			c0.2-0.9,0.5-1.3,1.4-1.4c2.9-0.3,5.8-0.8,8.7-1.2c0.6-0.1,1,0,1.2,0.7c2.6,10.4,5.3,20.9,8,31.3c0.1,0.2,0.1,0.5,0.1,0.8
			C739.1,51.3,736.2,51.7,733.2,52.1z M767.1,28.3c-1.4,4-4.5,6.1-8.5,7c-1.6,0.4-3.2,0.6-4.8,0.7c-0.6,0.1-0.8,0.3-0.8,0.9
			c0.1,3.7,0.1,7.4,0.1,11.1c0,1.4,0,1.4-1.3,1.5c-2.4,0.3-4.7,0.7-7.1,1c-0.1,0-0.3,0-0.6,0c0-0.4-0.1-0.7-0.1-1
			c0-4.1,0-8.1-0.1-12.2c0-6.6-0.1-13.2-0.2-19.7c0-0.9,0.2-1.2,1.1-1.3c4.2-0.5,8.3-1.2,12.5-1.7c1.5-0.2,3.1-0.1,4.6,0.2
			c2.5,0.5,4.2,2,5,4.5C768,22.3,768.1,25.3,767.1,28.3z M795.3,43.4c-2.8,0.4-5.7,0.8-8.9,1.2V30.2c-2,0.3-3.8,0.5-5.7,0.8
			c0,1.6,0,3.1,0,4.7c0,3.1,0,6.2,0,9.2c0,0.2-0.2,0.5-0.4,0.6c-2.8,0.4-5.6,0.8-8.7,1.2V12.6c2.8-0.4,5.8-0.8,8.9-1.2v13.1
			c2-0.3,3.8-0.5,5.7-0.8c0-1,0-2,0-3.1c0-3,0-6.1-0.1-9.1c0-0.7,0.2-1,0.9-1c2.6-0.3,5.3-0.7,8.1-1.1V43.4z M808.2,41.7
			c-2.7,0.4-5.5,0.7-8.3,1.1c0-0.3-0.1-0.6-0.1-0.8c0-3.3,0-6.5-0.1-9.8c0-7.5-0.1-14.9-0.2-22.4c0-0.8,0.2-1.1,1-1.2
			c2.4-0.3,4.8-0.7,7.2-1c0.2,0,0.4,0,0.9,0c0,1.4,0,2.7,0,4c0,6.6,0,13.2,0.1,19.8c0,3.1,0.1,6.1,0.1,9.2
			C808.9,41.2,808.8,41.6,808.2,41.7z M835.4,34.1c-1.2,2.3-3.1,3.8-5.5,4.7c-3.4,1.3-7,1.9-10.7,1.4c-3.4-0.4-5.7-2.7-6.3-6.3
			c-0.2-1.3-0.3-2.6-0.4-3.8c-0.1-4.5,0.1-9-0.1-13.5c-0.2-6.1,3.3-9.6,7.9-11.1c3.6-1.2,7.3-1.8,11-0.6c3.2,1,4.8,3.3,5.2,6.6
			c0.1,0.9,0.1,1.8,0.1,2.8c0,0.2-0.3,0.7-0.6,0.7c-2.8,0.4-5.5,0.8-8.5,1.2c0-1,0-1.9,0-2.8c0-1.5-0.9-2.4-2.4-2.5
			c-2.3-0.1-3.7,1.2-3.7,3.4c0,5.4,0,10.9,0,16.3c0,0,0,0.1,0,0.1c0,1.9,0.7,2.9,2.1,3c2.1,0.1,3.8-1.1,3.9-2.9c0.1-1.5,0.1-3,0-4.4
			c0-0.8,0.2-1.1,1-1.2c2.4-0.3,4.8-0.7,7.2-1c0.2,0,0.5,0,0.8,0C836.9,27.6,837.1,30.9,835.4,34.1z M860.6,6.8
			c-2.1,0.3-4.2,0.6-6.4,0.9v27.5c-2.7,0.4-5.4,0.8-8.3,1.2V8.9c-2.5,0.3-4.7,0.6-7,1V3.2c7.1-1,14.4-2,21.7-3V6.8z M886.8,24.4
			c-1.2,4.1-4.2,6.4-8.2,7.3c-2.8,0.6-5.8,0.9-8.6,1.3c-2.1,0.3-4.1,0.6-6.3,0.9c0-0.6-0.1-1.1-0.1-1.7c0-4.8,0-9.6-0.1-14.4
			c0-5.6-0.1-11.1-0.1-16.7c0-1,0.2-1.4,1.2-1.5c2.4-0.2,4.7-0.6,7.1-1c0.2,0,0.4,0,0.7,0v13c1.5-0.2,2.8-0.5,4.1-0.5
			c1.6-0.1,3.3-0.1,4.9,0.2c2.6,0.5,4.4,2.2,5.2,4.8C887.6,18.8,887.6,21.6,886.8,24.4z"/>
		<path class="st1" d="M803.2,93.3c0-0.4,0-0.7,0-1c0-6.2,0-12.4,0-18.5c0-0.8,0.1-1.1,1-1.2c1.3-0.1,2.6-0.3,4-0.5
			c0,5.6,0,11.2,0,16.8c1.1-0.1,2.1-0.2,3-0.4c0.2,0,0.5-0.6,0.5-0.9c0-4.1,0-8.2,0-12.3c0-1.2,0-2.4,0-3.7c1.6-0.2,3.1-0.4,4.8-0.7
			c0,5.6,0,11.1,0,16.8c1.3-0.2,2.4-0.3,3.6-0.5c0-0.5,0-0.8,0-1.2c0-4.9,0-9.8,0-14.8c0-0.6,0.1-0.9,0.8-1c1.3-0.2,2.7-0.3,4.1-0.5
			c0,0.3,0.1,0.6,0.1,0.9c0,6.2,0,12.4,0,18.6c0,0.8-0.2,1.1-1.1,1.2c-5.1,0.7-10.2,1.4-15.3,2.1C806.9,92.8,805.1,93,803.2,93.3z"
			/>
		<path class="st1" d="M617.9,98.4c0,0.4,0,0.7,0,1c0,6.2,0,12.4,0,18.6c0,0.8-0.2,1.2-1.1,1.3c-1.3,0.1-2.5,0.3-3.9,0.5
			c0-5.6,0-11.2,0-16.8c-1.1,0.1-2.1,0.2-3.1,0.4c-0.2,0-0.3,0.5-0.3,0.8c0,2.3,0.1,4.6,0,6.9c-0.1,2.1-0.3,4.3-0.7,6.4
			c-0.7,3-2.9,3.9-5.7,3.7c-0.2,0-0.5,0-0.6-0.2c-1-0.8-0.3-1.9-0.5-2.8c-0.1-0.6,0.3-0.6,0.7-0.6c1.2-0.1,1.6-0.4,1.7-1.5
			c0.2-1.6,0.3-3.2,0.3-4.9c0-3.4,0-6.7,0-10.1c0-0.5,0-0.9,0.7-1C609.5,99.6,613.6,99,617.9,98.4z"/>
		<path class="st1" d="M673.4,90.7c0,0.4,0,0.6,0,0.9c0,6.2,0,12.5,0,18.7c0,0.8-0.2,1.1-1,1.1c-1.3,0.1-2.6,0.4-4.1,0.6
			c0-5.6,0-11.2,0-16.8c-1.1,0.1-2,0.3-2.9,0.4c-0.6,0.1-0.6,0.5-0.6,1c0,3.7,0,7.3,0,11c0,1.6,0,3.3,0,5c-1.6,0.2-3.2,0.4-4.9,0.7
			c0-0.5-0.1-0.8-0.1-1.2c0-6.1,0-12.2,0-18.3c0-0.8,0.1-1.2,1-1.3C665.2,91.9,669.3,91.3,673.4,90.7z"/>
		<path class="st1" d="M753.8,79.6c0,6.9,0,13.6,0,20.5c-1.6,0.2-3.1,0.4-4.8,0.7c0-5.6,0-11.1,0-16.8c-1.2,0.2-2.2,0.3-3.2,0.5
			c-0.2,0-0.4,0.6-0.4,0.9c0,2.9,0,5.8,0,8.7c0,2,0,4.1,0,6.1c0,0.9-0.2,1.3-1.2,1.3c-1.2,0.1-2.4,0.3-3.8,0.5c0-0.4,0-0.6,0-0.9
			c0-6.2,0-12.5,0-18.7c0-0.7,0.2-1,1-1.1c3.9-0.5,7.7-1.1,11.6-1.6C753.2,79.6,753.4,79.6,753.8,79.6z"/>
		<path class="st1" d="M846.7,66.6c0,2.7,0,5.3,0,8c1.1-0.2,2.1-0.3,3.2-0.5c0.1,0,0.3-0.5,0.3-0.8c0-2,0-4.1,0-6.1
			c0-0.3,0-0.7,0-1.1c1.5-0.2,2.9-0.4,4.4-0.6c0.2,0,0.4,0.3,0.5,0.5c0.1,0.1,0,0.4,0,0.5c0,6.1,0,12.2,0,18.4c0,0.8-0.1,1.2-1,1.2
			c-1.3,0.1-2.5,0.3-3.9,0.5c0-3,0-5.8,0-8.8c-1.2,0.2-2.2,0.3-3.4,0.5c0,2.9,0,5.8,0,8.8c-1.7,0.2-3.3,0.5-4.9,0.7
			c0-0.4-0.1-0.7-0.1-1c0-6.2,0-12.4,0-18.6c0-0.8,0.1-1.2,1-1.2C844,67.1,845.3,66.8,846.7,66.6z"/>
		<path class="st1" d="M787.3,85.1c0-1.7,0-3.4,0-5.1c0-2.6,1.3-4.4,3.5-5.5c2-1,4.2-1.4,6.4-1c1.8,0.3,3.2,1.7,3.5,3.6
			c0.1,0.8,0.2,1.7,0.2,2.5c0,2.8-0.1,5.5-0.1,8.3c0,4-2.3,6.6-6.3,7.1c-1.1,0.1-2.3,0.2-3.5,0c-2.2-0.3-3.6-1.9-3.6-4.1
			C787.3,88.9,787.3,87,787.3,85.1C787.3,85.1,787.3,85.1,787.3,85.1z M795.9,84c0-1.8,0-3.6,0-5.4c0-0.9-0.5-1.5-1.4-1.6
			c-1-0.1-2.2,0.7-2.2,1.8c0,3.7,0,7.4,0,11.1c0,1.1,1,1.7,2,1.4c0.9-0.3,1.5-1,1.6-2C795.9,87.5,795.9,85.8,795.9,84z"/>
		<path class="st1" d="M756.3,89.3c0-1.6,0-3.3,0-4.9c0-2.5,1.2-4.3,3.3-5.5c2-1.1,4.1-1.4,6.3-1.1c2.3,0.3,3.8,2.1,3.9,4.7
			c0.1,3.4,0.1,6.7,0,10.1c-0.1,3.7-2.3,6.2-6,6.7c-1.2,0.2-2.5,0.3-3.7,0.2c-2.3-0.3-3.8-2-3.9-4.5C756.3,93,756.3,91.2,756.3,89.3
			C756.3,89.3,756.3,89.3,756.3,89.3z M761.2,88.7C761.2,88.7,761.2,88.7,761.2,88.7c0,1.8,0,3.5,0,5.3c0,1.5,1.4,2.2,2.7,1.4
			c0.8-0.5,1-1.3,1-2.2c0-2.5,0-4.9,0-7.4c0-0.9,0-1.8,0-2.7c-0.1-1.3-1-2-2.3-1.5c-0.9,0.3-1.4,1-1.4,2.1
			C761.2,85.3,761.2,87,761.2,88.7z"/>
		<path class="st1" d="M620.4,108.3c0-1.6,0.1-3.1,0-4.7c-0.1-3.3,2-5.4,4.3-6.2c1.6-0.6,3.3-0.9,5-0.7c2.6,0.2,4.3,2,4.3,4.7
			c0.1,3.4,0.1,6.7,0,10.1c-0.1,3.9-2.7,6.5-6.8,6.9c-0.8,0.1-1.5,0.1-2.3,0c-2.6-0.1-4.3-1.8-4.4-4.5
			C620.4,112,620.4,110.1,620.4,108.3C620.4,108.3,620.4,108.3,620.4,108.3z M625.3,107.6C625.3,107.6,625.3,107.6,625.3,107.6
			c0,1.8-0.1,3.5,0,5.3c0,0.5,0.5,1.3,0.9,1.5c0.5,0.2,1.3,0,1.8-0.2c0.8-0.3,1-1.2,1-2c0-3.4,0-6.8,0-10.2c0-0.7-0.2-1.4-0.9-1.5
			c-0.6-0.1-1.5-0.1-2,0.3c-0.5,0.4-0.8,1.2-0.8,1.8C625.2,104.3,625.3,105.9,625.3,107.6z"/>
		<path class="st1" d="M641.1,115.8c-1.4,0.2-2.7,0.4-4,0.6c-0.7,0.1-0.7-0.3-0.7-0.8c0-2.8,0-5.5,0-8.3c0-3.5,0-7,0-10.4
			c0-0.7,0.2-1.1,0.9-1.1c1.2-0.1,2.5-0.3,3.8-0.5c0,2.7,0,5.2,0,7.8c0.1,0,0.1,0,0.2,0c0.1-0.2,0.2-0.4,0.3-0.7
			c0.9-2.3,1.9-4.6,2.8-6.9c0.1-0.3,0.4-0.7,0.7-0.8c1.6-0.3,3.2-0.5,5-0.7c-0.7,1.4-1.2,2.6-1.8,3.9c-0.8,1.7-1.7,3.4-2.4,5.2
			c-0.2,0.4-0.2,1,0,1.4c1.3,3.1,2.6,6.1,3.9,9.2c0.1,0.3,0.2,0.6,0.4,1c-1.7,0.3-3.4,0.5-5.2,0.8c-0.8-2.2-1.5-4.4-2.3-6.7
			C640.5,110.6,641.4,113.3,641.1,115.8z"/>
		<path class="st1" d="M871.7,63.1c-0.2,0.4-0.3,0.7-0.4,0.9c-1.3,2.7-2.5,5.3-3.8,8c-0.3,0.6-0.3,1.1,0,1.6c1.3,3,2.6,6.1,3.9,9.1
			c0.1,0.2,0.2,0.5,0.3,0.9c-1.3,0.2-2.5,0.4-3.8,0.5c-1.4,0.2-1.4,0.1-1.9-1.2c-0.6-1.7-1.2-3.5-1.9-5.2c-0.6,1-1.5,1.9-1.5,3.1
			c0,1.1,0,2.2,0,3.2c0,0.6-0.2,0.9-0.8,1c-1,0.1-2,0.3-3,0.4c-0.6,0.1-0.9-0.2-0.9-0.8c0,0,0-0.1,0-0.1c0-6.3-0.1-12.5-0.1-18.8
			c0-0.2,0-0.5,0-0.8c1.5-0.2,3-0.4,4.7-0.7c0,2.7,0,5.2,0,7.8c0.1,0,0.2,0,0.3,0c0.1-0.3,0.3-0.6,0.4-0.9c0.9-2.2,1.8-4.5,2.7-6.7
			c0.1-0.3,0.5-0.7,0.8-0.8C868.4,63.6,870,63.4,871.7,63.1z"/>
		<path class="st1" d="M598.8,101.1c0,1.1,0,2,0,3c0,0.5-0.2,0.7-0.7,0.7c-1.7,0.2-3.4,0.5-5.1,0.7c-0.2,0-0.6,0.4-0.6,0.6
			c-0.1,1.2,0,2.4,0,3.8c0.6,0,1.1-0.1,1.5-0.1c0.9-0.1,1.9-0.2,2.8-0.1c1.9,0.1,3.3,1,3.7,2.9c0.3,1.6,0.4,3.3,0.2,4.8
			c-0.6,3.2-2.9,4.5-5.9,5c-2.2,0.3-4.4,0.6-6.6,0.9c-0.2,0-0.4,0-0.6,0c0-6.8,0-13.6,0-20.5C591.1,102.2,594.8,101.6,598.8,101.1z
			 M592.3,116.2C592.3,116.2,592.3,116.2,592.3,116.2c0,0.7,0,1.4,0,2.1c0,0.2,0.2,0.5,0.4,0.5c1,0.2,2.5-0.6,2.9-1.6
			c0.5-1.1,0.3-3-0.5-3.5c-0.7-0.3-1.6-0.3-2.4-0.3c-0.1,0-0.3,0.9-0.3,1.4C592.3,115.4,592.3,115.8,592.3,116.2z"/>
		<path class="st1" d="M882.8,61.6c1.6,6.7,3.1,13.2,4.7,19.9c-1.6,0.2-3.2,0.5-4.8,0.7c-0.3-1.3-0.6-2.6-0.9-4.1
			c-1.2,0.2-2.4,0.3-3.5,0.5c-0.2,0-0.5,0.4-0.6,0.7c-0.2,0.9-0.3,1.8-0.4,2.7c-0.1,0.5-0.2,0.9-0.9,1c-1.4,0.2-2.7,0.4-4.2,0.6
			c0.4-2.1,0.9-4,1.3-6c1-4.8,2.1-9.6,3.1-14.5c0.1-0.5,0.3-0.8,0.8-0.9C879.2,62.1,881,61.9,882.8,61.6z M879.9,66
			c-0.1,0-0.2,0-0.3,0c-0.4,2.9-0.8,5.9-1.3,9c0.8-0.1,1.4-0.2,2-0.2c0.9,0,0.9-0.4,0.8-1.1c-0.3-1.5-0.4-3-0.7-4.4
			C880.2,68.2,880,67.1,879.9,66z"/>
		<path class="st1" d="M730.9,103.3c-1.6,0.2-3.1,0.4-4.8,0.7c-0.2-1-0.5-2-0.6-3.1c-0.1-0.8-0.3-1.1-1.2-0.9
			c-0.7,0.2-1.5,0.2-2.2,0.3c-0.6,0.1-0.9,0.3-1,1c-0.1,0.8-0.3,1.6-0.3,2.5c0,0.7-0.3,1-1,1.1c-1.3,0.1-2.6,0.3-4,0.5
			c0.4-2.1,0.9-4.1,1.3-6.1c1-4.7,2.1-9.5,3.1-14.2c0.1-0.6,0.4-1,1-1.1c1.4-0.2,2.8-0.4,4.2-0.6c0.8-0.1,1,0.1,1.2,0.9
			c1.4,6.2,2.9,12.4,4.3,18.5C730.9,103,730.9,103.1,730.9,103.3z M721.8,96.8c0.8-0.1,1.4-0.2,2-0.2c0.7,0,0.8-0.4,0.7-0.9
			c-0.2-1.5-0.5-2.9-0.7-4.4c-0.2-1.2-0.3-2.3-0.5-3.5c-0.1,0-0.2,0-0.3,0C722.7,90.8,722.3,93.7,721.8,96.8z"/>
		<path class="st1" d="M772.4,97.5c0-0.4-0.1-0.7-0.1-1c0-6.1,0-12.3,0-18.4c0-0.9,0.3-1.2,1.2-1.3c2-0.2,3.9-0.6,5.9-0.8
			c1-0.1,2-0.2,2.9,0c2,0.3,3.1,1.7,3.4,4.2c0.1,1.2,0,2.4-0.2,3.6c-0.7,2.8-2.9,4.4-6.2,4.7c-2,0.2-2,0.2-2,2.2c0,1.8,0,3.6,0,5.4
			c0,0.5-0.1,0.8-0.6,0.8C775.3,97.2,773.9,97.4,772.4,97.5z M777.3,85c2.1,0.3,3.8-1.2,3.6-3.2c-0.2-1.8-1.4-2.6-3.1-2
			c-0.2,0.1-0.4,0.3-0.4,0.4C777.3,81.9,777.3,83.4,777.3,85z"/>
		<path class="st1" d="M707.3,106.6c-1.7,0.2-3.2,0.4-4.8,0.7c0-0.4,0-0.6,0-0.8c0-6.2,0-12.4-0.1-18.6c0-0.8,0.2-1.2,1.1-1.3
			c2.3-0.2,4.6-0.6,6.8-0.9c0.8-0.1,1.6-0.1,2.4,0.1c1.9,0.5,2.8,1.9,3,3.7c0.4,2.6,0.1,5-1.9,7c-1.4,1.3-3.1,1.6-4.9,1.8
			c-1.5,0.2-1.5,0.2-1.5,1.7C707.3,102.1,707.3,104.3,707.3,106.6z M707.3,94.8c2.6,0.1,4.2-2,3.4-4.3c-0.4-1-2.3-1.6-3.2-0.9
			c-0.1,0.1-0.2,0.2-0.2,0.4C707.3,91.6,707.3,93.2,707.3,94.8z"/>
		<path class="st1" d="M688,88.8c0,1.1,0,2.1,0,3c0,0.5-0.2,0.7-0.7,0.8c-1.8,0.2-3.5,0.5-5.3,0.7c-0.6,0.1-0.7,0.3-0.7,0.8
			c0,1.1,0,2.3,0,3.5c2-0.3,3.9-0.5,6.1-0.8c0,1.2,0,2.3,0,3.4c0,0.2-0.4,0.5-0.7,0.5c-1.5,0.2-2.9,0.4-4.4,0.6
			c-0.7,0.1-1,0.3-1,1.1c0.1,1.3,0,2.6,0,4c1-0.1,1.8-0.2,2.7-0.3c1-0.1,2.1-0.3,3.1-0.5c0.6-0.1,1,0,0.9,0.8c0,0.4,0,0.9,0,1.3
			c0,1.6,0,1.6-1.5,1.8c-3.2,0.5-6.3,0.9-9.5,1.3c-0.2,0-0.4,0-0.6,0c0-0.3-0.1-0.7-0.1-1c0-6.2,0-12.3,0-18.5c0-0.6,0-1.1,0.8-1.2
			c3.4-0.4,6.9-0.9,10.3-1.4C687.5,88.8,687.7,88.8,688,88.8z"/>
		<path class="st1" d="M839.5,67.7c0,1.1,0,2.2,0,3.3c0,0.2-0.6,0.5-0.9,0.5c-1.9,0.3-3.8,0.5-5.7,0.8c0,1.4,0,2.7,0,4.2
			c2-0.3,3.9-0.5,5.9-0.8c0,1.2,0,2.4,0,3.7c-1.1,0.2-2.3,0.4-3.6,0.5c-2.4,0.3-2.4,0.2-2.4,2.6c0,0.9,0,1.7,0,2.7
			c2.3-0.3,4.4-0.6,6.7-0.9c0,1.2,0,2.3,0,3.4c0,0.2-0.3,0.5-0.5,0.5c-3.5,0.5-7.1,1-10.7,1.5c-0.1,0-0.2,0-0.4-0.1
			c0-0.3-0.1-0.7-0.1-1.1c0-6.1,0-12.2,0-18.3c0-1,0.3-1.2,1.2-1.4c3.3-0.4,6.6-0.9,9.9-1.3C839.2,67.7,839.3,67.7,839.5,67.7z"/>
		<path class="st1" d="M692.8,91.8c-1.4,0.2-2.6,0.3-3.9,0.5c0-1.2,0-2.2,0-3.3c0-0.2,0.4-0.5,0.6-0.5c3.5-0.5,7-1,10.6-1.5
			c0.7-0.1,1.1,0.1,1,0.9c0,0.3,0,0.6,0,0.9c0,1.9,0,1.9-2,2.1c-1.8,0.2-1.8,0.2-1.8,1.9c0,4.7,0,9.5,0,14.2c0,0.7-0.1,1-0.9,1.1
			c-1.2,0.1-2.3,0.3-3.6,0.5C692.8,103,692.8,97.5,692.8,91.8z"/>
		<path class="st0" d="M698,29.5c1.9-0.3,3.7-0.5,5.7-0.8c0,7,0,13.9,0,20.9c-2.7,0.4-5.4,0.8-8.4,1.2
			C698.8,43.9,697.8,36.7,698,29.5z"/>
		<path class="st0" d="M628.7,49.6c0,2.9,0,5.7,0,8.6c0,2.1-2,3.6-4,3.2c-1-0.2-1.8-0.9-1.8-1.9c-0.1-2.1-0.1-4.1-0.2-6.2
			c0-3.8,0-7.6,0-11.4c-0.1-2.4,2.3-3.5,4-3.3c1.3,0.2,2,1,2,2.4C628.6,43.9,628.6,46.8,628.7,49.6
			C628.6,49.6,628.7,49.6,628.7,49.6z"/>
		<path class="st0" d="M726,40c0.7-4.8,1.4-9.5,2.1-14.1c0.1,0,0.1,0,0.2,0c0.8,4.5,1.5,9,2.3,13.5C729.1,39.6,727.6,39.8,726,40z"
			/>
		<path class="st0" d="M872.6,26.4c0-2.9,0-5.6,0-8.5c0.7-0.1,1.4-0.2,2.2-0.2c2-0.1,3.1,0.8,3.5,2.8c0.6,3.1-0.9,5.3-4,5.7
			C873.7,26.2,873.2,26.3,872.6,26.4z"/>
		<path class="st0" d="M753,29.8c0-2.7,0-5.3,0-7.9c0-0.2,0.2-0.5,0.3-0.5c1.1-0.1,2.3-0.3,3.4-0.1c1.5,0.3,2.2,1.7,2.1,3.7
			c-0.2,2.6-1.6,4.1-4.2,4.5C754.1,29.7,753.6,29.7,753,29.8z"/>
	</g>
</g>
</svg>
