<?xml version="1.0" encoding="utf-8"?>
<!-- Generator: Adobe Illustrator 19.0.0, SVG Export Plug-In . SVG Version: 6.00 Build 0)  -->
<svg version="1.1" id="Layer_1" xmlns="http://www.w3.org/2000/svg" xmlns:xlink="http://www.w3.org/1999/xlink" x="0px" y="0px"
	 viewBox="350 -100 800 300" style="enable-background:new 350 -100 800 300;" xml:space="preserve">
<style type="text/css">
	.st0{fill:#FFFFFF;}
</style>
<g>
	<path class="st0" d="M710.5,44.3C710.6,44.3,710.6,44.3,710.5,44.3C710.6,44.3,710.6,44.3,710.5,44.3
		C710.6,44.2,710.4,44.3,710.5,44.3z"/>
	<path class="st0" d="M784.4,52c-0.2,0-0.3,0-0.5,0.1C784.1,52,784.3,52,784.4,52z"/>
	<path class="st0" d="M818.9,119c-2.2-4.4-4.3-8.8-7.7-12.4c-0.6-0.6-0.9-1.4-0.9-2.2c-0.1-2.6-0.9-5-2.6-7.1c-0.5-0.6-1-1-1.9-1
		c-2.7-0.1-5.4-0.2-8.1-0.2c-1,0-1.2-0.4-1-1.2c0.1-0.6,0.2-1.2,0.2-1.7c0.2-3.5,0.5-6.9,0.5-10.4c0.1-5.5,1-10.9-0.1-16.4
		c-0.1-0.6,0-1.1,0.7-1.4c0.5-0.2,0.4-0.5,0.1-0.8c-2.5-2.8-4.9-5.7-8.1-7.7c-0.5-0.3-0.6-0.7-0.4-1.3c0.5-1.4,0.9-2.8,1.4-4.4
		c-2.2,0.4-4.3,0.8-6.4,1.2c0,0,0,0,0,0c0,0,0,0,0,0c0,0,0,0,0,0c-0.1,0.1-0.3,0.1-0.5,0.1c-0.7,0.1-1.5,0.2-2.2,0.4
		c-3.2,0.6-5.1,2.8-6.4,5.6c-0.8,1.9-1.1,3.9-2.3,5.7c-0.2,0.3-0.3,0.5-0.7,0.4c-0.6-0.2-1.2-0.1-1.8-0.2c-0.7,0-1.3-0.1-1.3,0.9
		c0,0.3-0.4,0.5-0.7,0.5c-0.7,0-1.4,0-2.1,0c-0.1,0-0.3,0-0.3-0.1c-0.3-1.2-1.1-0.6-1.8-0.6c-1.9,0.1-3.7,0.3-5.6,0.6
		c-0.5,0.1-1.1,0.1-1.1-0.7c0-0.8-0.7-0.5-1.2-0.4c-2.6,0.8-5.3,1.7-7.9,2.5c-0.8,0.2-1.6,0.8-2.3-0.2c-0.2-0.2-0.6-0.1-0.9-0.1
		c-2.9-0.2-5.7,0.4-8.3,1.4c-1.4,0.5-2.8,0.7-4.1,0.4c-2.9-0.5-5.5,0.1-8.1,1.1c-2.3,0.9-4.5,1.1-6.9,0.1c-2.2-0.9-4.7-0.8-7.1-0.8
		c-0.2,0-0.4,0-0.6,0c-1,0-1.9,0-2.9,0.2c-0.4,0.1-0.9,0.2-1.2-0.2c0,0,0,0,0,0c-2.6,0-5.2,0-7.8,0c-0.3,0-0.6-0.1-0.7,0.2
		c-0.1,0.3,0.2,0.5,0.4,0.6c0.3,0.3,0.7,0.6,1.1,1c0,0.1-0.1,0.2-0.1,0.2c-0.8-0.1-1.6,0-2.4-0.2c-2.1-0.4-4.1,0-6.1,0.2
		c-1.5,0.2-3,0.3-4.6,0.5c-1.3,0.1-2.6,0.3-4,0.4c-0.7,0.1-0.8-0.2-0.9-0.9c-0.4-3.9-0.6-7.8-1.2-11.6c-0.3-1.7-1.4-2.9-2.3-4.2
		c-0.8-1.2-1.7-1.6-3.1-1.5c-2.3,0.1-4.6-0.1-6.9,0.1c-1.8,0.1-3.7,0.1-5.5,0.6c-2.8,0.3-5.4,1.1-8.1,1.8c-1.8,0.5-3.6,1-5.4,1.5
		c0.1,0.1,0.1,0.2,0.1,0.2c0.7,0.4,1.4,0.7,2.1,1c1.2,0.6,1.2,0.6,0.5,1.7c-2.3,3.5-4.2,7.1-5.2,11.2c-0.3,1.3-0.3,2.7-0.7,4
		c0,2.4,0,4.8,0,7.2c0.3,0.4,0.3,0.8,0,1.2c0,0.3,0,0.5,0,0.8c0.1,0.1,0.1,0.2,0.1,0.3c0,4.5,1.6,8.5,3.7,12.3
		c1.8,3.2,4.2,5.9,6.9,8.3c0.7,0.6,0.7,0.6-0.1,1.1c-0.8,0.4-1.7,0.8-2.5,1.3c-0.9,0.5-1,0.8-0.5,1.6c0.7,1.2,1.5,2.4,2.3,3.5
		c0.5,0.7,0.7,1.4,0.8,2.2c1,7.1,1.7,14.3,2.5,21.5c0.6,5.4,1.2,10.9,2,16.3c1.1,8,2.7,16,4.3,23.9c0.8,3.7,1.6,7.3,2.4,11
		c0.3,1.2,0.5,1.3,1.7,1.4c2.6,0.1,5.2,0.2,7.8,0c3.6-0.2,7.1-0.6,10.6-1.5c0.7-0.2,1.2-0.4,1.8,0.3c0.3,0.3,0.7,0.3,1.1,0.3
		c2.9,0,5.8,0.1,8.7-0.7c1-0.3,2.2-0.4,3.3-0.5c3.2-0.2,6.3-0.7,9.1-2.4c0.8-0.5,1.2-1,1.1-1.9c-0.3-2.5-0.1-5-0.5-7.5
		c-0.6-4.3-0.6-8.7-0.8-13c0-1,0.3-1.5,1.3-1.8c2.6-0.8,5.2-1.6,7.8-2.6c0.3-0.1,0.7-0.4,1-0.2c0.3,0.3,0.1,0.7,0,1.1
		c-0.4,2.8-0.9,5.6-1.2,8.4c-0.2,2.1,0,4.1-0.2,6.2c-0.3,3.6-0.1,7.2-0.2,10.8c0,0.4-0.1,0.9,0.3,1c0.4,0.2,0.7-0.2,1-0.5
		c1.1-1,2.2-2.1,3.2-3.2c0.5-0.5,1-0.7,1.7-0.5c1.5,0.3,3,0.6,4.5,1.1c2.9,0.8,5.8,1.3,8.7,1.2c0.8,0,1.3-0.3,1.6-1
		c0.3-0.7,0.6-1.5,0.9-2.2c2.2-5.7,2.6-11.8,3.8-17.7c-0.2,1,0.2,2,0.3,3c0.8,5.7,1.9,11.3,4.1,16.7c0.6,1.5,0.8,1.6,2.3,1
		c2.2-0.9,4.4-2,6.8-2.2c1.9-0.2,3.9-0.5,5.8-0.9c0.8-0.2,1.5-0.1,2.1,0.4c1,0.7,2,1.3,3.2,1.6c1.7,0.5,3.4,1,5.2,1.4
		c1.3,0.3,1.6,0,1.7-1.3c0.2-3.6,0.5-7.2,0.8-10.8c0.1-0.5,0.1-1.1,0.7-1.2c1-0.2,1.9-0.6,2.9-0.3c0.1,0,0.1,0.1,0.2,0.2
		c0.2,0.7,0.8,1.1,1.4,1.4c1.8,1.2,3.6,2.4,5.3,3.8c2,1.5,4,3,6.2,4.3c3.2,1.9,8.1,1.1,9.2-3.8c1.4-6.1,2.6-12.3,3.6-18.5
		c0.1-0.7,0.3-1.4,0.2-2c-0.4-2.8-0.7-5.7-1.1-8.5c-0.2-1.2-0.4-1.3-1.5-0.6c-1.6,1-3.2,1.9-4.9,2.9c-0.5,0.3-0.9,0.6-1.2,1.1
		c-0.5,0.8-1,0.6-1.6,0.2c-1.8-1.4-3.7-2.7-5.7-3.9c-1.1-0.7-1.6-1.5-1.9-2.8c-1.8-7.6-4-15-7.2-22.2c0.3-0.1,0.7,0,1.1,0
		c1.8,0,3.5,0.1,5.3,0c1.7-0.1,3.4,0.4,5.2,0.1c2.5-0.5,5-0.2,7.5-0.2c1.9-0.1,3.8,0.1,5.7,0.2c3.7,0.1,7.5-0.3,11.2-0.2
		c0.4,0,0.8,0,1.1-0.3c0-0.1,0-0.3,0-0.4C819.1,119.7,819.1,119.3,818.9,119z M779,64.5c0.5-1.3,0.8-2.6,1.3-3.9
		c0.3-0.9,0.8-1.8,1.6-2.3c0.2-0.2,0.4-0.3,0.6-0.1c0.2,0.2,0,0.4,0,0.6c-0.2,0.7-0.5,1.3-0.7,2.1c0.7-0.1,0.9-0.7,1.3-1
		c0.6-0.4,1.2-0.6,1.8-0.2c1.7,1.3,3.6,2.4,5.1,4c-0.5,0.5-1.1,0.7-1.7,1c-1.5,0.7-2.7,1.9-3.4,3.4c-0.3,0.6-0.6,0.6-1,0.4
		c-1.1-0.4-2.1-1-3.1-1.7c-0.4-0.2-0.7-0.6-1.2-0.7C778.7,65.8,778.7,65.3,779,64.5z M680.6,77.3c3.4-0.4,6.9-0.8,10.3-1.2
		c1.2-0.1,2.3-0.2,3.5-0.3c0.5,0,0.8,0,0.7,0.6c0,0.3,0.1,0.5,0.1,0.8c0.2,1.3,0.2,1.3,1.5,0.8c3.8-1.4,7.4-1.2,11,0.7
		c1.3,0.7,2.2,1.8,2.8,3.1c0.2,0.4,0.3,0.8,0.8,1.2c0.7-2.5,1.4-4.8,2.1-7.2c0.1-0.4-0.1-0.5-0.4-0.6c-0.7-0.2-1.3-0.4-2.1-1
		c2.3,0,4.4-0.1,6.3,0.9c1.2,0.5,2.4,0.7,3.6,0.6c0.8-0.1,1,0.2,1.1,0.9c0.9,4.7,1.9,9.4,2.9,14.1c0.1-0.2,0.1-0.4,0.2-0.7
		c0,0,0,0,0,0c0,0,0,0,0,0c-0.4-3.5-0.8-7-1.2-10.5c0-0.4-0.1-0.8-0.1-1.2c-0.1-2.6-0.1-2.6,2.4-3.5c1.1-0.4,2.2-0.7,3.3-1.1
		c1.1-0.3,1.2,0.1,1.3,1c0.1,2.5,0.3,4.9,0.8,7.3c0.1,0.3,0.2,0.6,0.2,0.9c0.1,0.5,0.4,0.5,0.7,0.3c1.3-0.6,2.6-0.6,4-0.1
		c0.5,0.2,0.9,0.3,0.7-0.6c-0.4-2.7-0.7-5.4-1.1-8c-0.1-0.5,0.1-0.6,0.5-0.8c2-0.7,3.9-1.3,6-1.8c0.6-0.1,0.8,0.1,1,0.6
		c0.3,1,0.5,2,0.5,3c0.1,2.3,0.1,4.5,0.4,6.8c0.1,0.7,0.3,1.2,1.2,0.8c0.5-0.2,0.5-0.4,0.5-0.8c-0.2-2.8-0.3-5.7-0.5-8.5
		c0-0.6,0.1-0.9,0.8-0.9c1.9-0.2,3.7-0.9,5.5-1.5c0.5-0.2,0.8-0.1,0.8,0.5c0.2,1.7,0.4,3.5,0.5,5.2c0.1,1.7,0.2,3.4,0.2,5.1
		c0.3,0.3,0,0.8,0.3,1c0.2-3.7,0.4-7.5,0.7-11.2c0-0.5,0.2-0.8,0.8-0.8c1.5-0.1,3-0.3,4.5-0.5c0.7-0.1,0.7,0.3,0.7,0.8
		c0.1,2.9,0.2,5.8,0.2,8.6c0,0.7,0.2,1,0.9,0.9c1.6-0.2,3,0.4,4.6,0.8c0-2-0.5-3.8-0.8-5.6c-0.2-1.5-0.5-3-0.7-4.6
		c-0.1-0.4-0.1-0.8,0.6-0.8c1.8,0,3.6-0.1,5.3-0.2c0.7-0.1,0.9,0.3,1.1,0.9c0.7,3.3,1.1,6.6,1.7,9.9c0.1,0.5,0.2,1.1,0.2,1.6
		c0.4-0.5,0-1.2,0.3-1.6c0.2-3.6,0.3-7.1,0.4-10.7c0-0.8,0.3-1.1,1.1-1.1c1.4,0.1,2.7,0.2,4.1,0.2c0.7,0,0.8,0.2,0.8,0.8
		c-0.1,3.6-0.2,7.1-0.2,10.7c0,0.7,0,1.4,0.3,2.1c1.1-2.8,2.2-5.4,3.2-8.1c0.6-1.6,1.1-3.3,1.7-4.9c0.2-0.5,0.3-0.7,0.9-0.7
		c1.7,0,3.3-0.3,5,0c0.5,0.1,0.6,0.2,0.7,0.7c0.4,2.4-0.1,4.9-0.1,7.3c-0.1,3.7-0.3,7.3-0.5,11c-0.1,2.2-0.3,4.3-0.5,6.5
		c-0.5-2-0.5-4-0.6-6.2c-0.5,1.1-0.5,2.1-0.6,3c-0.1,0.9-0.2,1.8-0.2,2.7c0,0.8-0.3,1.1-1,1.2c-1.7,0.3-3.3,0.5-5,0.5
		c-0.5,0-0.6-0.1-0.6-0.6c0-1.6,0.1-3.2,0.3-4.7c-0.1-0.2,0.1-0.5-0.2-0.6c-1.1,1.5-2.3,2.9-3.3,4.5c-0.5,0.8-0.9,0.7-1.5,0.2
		c-1.1-0.8-2-1.8-3.3-2.5c-0.2,0.4-0.1,0.7-0.1,1c0.2,1.6,0.2,1.6-1.4,2.2c-1.5,0.5-2.9,0.9-4.4,1.3c-0.6,0.1-0.8,0-0.9-0.6
		c-0.2-0.7-0.1-1.4-0.2-2.4c-1.3,1.3-2.8,1.8-4.5,2.1c-1.5,0.2-2.9,0.4-4.4,0.3c-2.7-0.2-5.4,0.1-8.1,0.4c-3.1,0.4-3.5,0-3.6-3.1
		c0-1.5-0.1-3-0.2-4.5c0-0.6-1.4-1.4-1.9-1c-0.3,0.2-0.1,0.5-0.1,0.8c0.2,2,0.4,4.1,0.7,6.1c0.3,1.9,0.3,1.9-1.5,1.9
		c-1,0-2,0.1-3,0.3c-1.2,0.2-1.3,0.1-1.4-1.1c0-0.3,0-0.6,0-0.9c-0.2-0.1-0.3-0.1-0.4,0c-2.4,2-5.3,2.6-8.2,3.1
		c-3.8,0.7-7.7,1.1-11.6,1.5c-0.6,0.1-0.8,0-0.9-0.7c-0.2-2.7-0.4-5.4-1-8.1c-0.1-0.3-0.1-0.5-0.4-0.9c-0.5,2-1,3.9-1.4,5.7
		c-0.2,0.9-0.5,1.7-0.6,2.6c-0.1,1-0.7,1.4-1.7,1.5c-2,0.2-3.9,0.5-5.9,0.7c-0.3-0.8,0.2-1.6,0.1-2.6c-1.6,1.9-3.7,1.2-5.7,1.3
		c-0.4,0-1-0.4-1.1,0.5c0,0.3-0.3,0-0.5,0c-5.8-1.8-9.6-5.3-10.6-11.5c-0.3-1.7,0.1-3.3,0.5-4.9c0.1-0.3,0.4-0.7,0.1-0.8
		c-0.5-0.3-1.1,0.1-1.7,0.1c-0.4,0-0.2,0.4-0.2,0.7c0.2,4.5,0.7,9,1.4,13.5c0.2,1.6,0.5,3.2,0.5,4.9c0,0.3,0.1,0.7-0.5,0.7
		c-2.1,0.2-4.2,0.5-6.3,0.8c-0.7,0.1-0.9-0.1-1.1-0.8c-0.5-1.7-0.1-3.3-0.3-5c-0.5-4.3-0.5-8.6-1.2-12.9c-0.1-0.7-0.4-0.8-1.1-0.9
		c-1.6,0-3.1,0.4-4.6,0.5c-0.9,0-1.2-0.2-1.2-1.1c-0.1-1.7-0.3-3.5-0.5-5.3C676,77.8,678.3,77.5,680.6,77.3z M651.4,85.8
		c-0.8-5-0.8-10.1,0.6-15c0.8-2.6,2.3-4.9,3.6-7.3c-0.2,2.7-1.5,5.2-1.5,8c2.2-4.4,4.5-8.6,8.6-11.5c-0.1-0.1-0.1-0.1-0.2-0.2
		c-0.8,0-1.5,0-2.3,0c-0.5,0.2-1,0.2-1.5,0.1c0.1-0.3,0.3-0.4,0.5-0.3c4.6-0.9,9.2-0.6,13.8-0.7c1.1,0,1.4,0.9,1.4,1.7
		c0.4,3.5,0.7,7.1,1.1,10.6c0.1,1.1,0.2,2.1,0.3,3.2c0,0.4,0.1,0.6-0.4,0.7c-1.9,0.3-3.8,0.8-5.6,1.5c-0.7,0.3-0.9,0-1.1-0.7
		c-0.5-2.7-0.9-5.3-1.4-8c-0.1-0.3-0.1-0.8-0.4-0.9c-0.3-0.1-0.6,0.3-0.8,0.5c-2.4,2.8-4.1,6-4.8,9.6c-1.1,5.3-1,10.5,1.3,15.6
		c0.7,1.5,1.5,2.9,2.7,3.9c1.5,1.3,2.9,1.4,4.5,0.2c1.6-1.2,2.7-2.8,3.2-4.7c0.4-1.1,0.9-1.7,2-1.7c1.9-0.1,3.7-0.3,5.6-0.9
		c0.2,1.9-0.2,3.6-0.8,5.3c-1,3.3-2.6,6.2-5.1,8.5c-2.9,2.6-6.4,3.2-9.7,1.2C657.9,100.3,652.8,94.4,651.4,85.8z M785.2,149.7
		c0.3,1.6,1.3,2.1,2.8,1.3c0.4-0.2,0.7-0.1,1.1,0c0.6,0.3,1.1,0.5,1.7,0.6c0.5,0.1,0.9,0.3,1.1,0.7c1,1.6,2.6,2.5,4,3.6
		c0.7,0.6,1.5,1.1,2.2,1.7c0.4,0.3,0.6,0.8,1.2,0.3c0.4-0.4,0.5,0.2,0.5,0.5c0,1-0.1,2.1,0.1,3.3c1.4-2.8,1.7-5.9,3.5-8.3
		c-0.6,2.3-1.1,4.7-1.7,7c-1.1,4.3-2.3,8.6-3.4,12.8c-0.2,0.8-0.5,0.9-1.2,0.5c-3.2-2-6.1-4.4-9.2-6.6c-0.3-0.2-0.4-0.5-0.3-0.9
		c0.1-1-0.1-1.9-0.2-2.9c-0.1-0.7-0.4-0.7-0.9-0.7c-4.3,0.2-8.5,0.8-12.7,1.6c-0.8,0.2-0.9,0.8-1,1.4c-0.3,1.4-0.5,2.8-0.6,4.3
		c-0.2,1.9-0.3,3.8-0.5,5.8c-2.6-1.5-4.8-3.6-7.3-5.2c-0.2,0.9,0.5,1.4,0.4,2.2c0,0.5-0.1,0.8-0.7,0.9c-2.5,0.6-5,0.7-7.5,1.2
		c-0.5,0.1-1,0.1-1.4,0.3c-1.1,0.6-1.3,0-1.6-0.9c-0.9-4.1-1.6-8.2-2.3-12.3c-0.4-2.4-0.8-4.9-1.4-7.2c-0.1-0.5-0.3-0.7-0.8-0.7
		c-2.5,0-4.9-0.1-7.4-0.2c-0.6,0-0.9,0.2-1,0.8c-0.9,5.7-1.7,11.4-2.9,17c-0.3,1.5-0.7,2.9-1,4.4c-0.2,0.6-0.4,0.9-1.2,0.8
		c-2.7-0.5-5.3-1.4-8.1-1.9c-0.5-0.1-0.5-0.5-0.4-0.9c0.1-1.9,0.5-3.7,0.7-5.6c0.6-4.3,1.6-8.5,2-12.8c0-0.3,0-0.5-0.1-0.8
		c-1.7,4.5-2.4,9.3-3.8,13.9c0.4-7,2.3-13.7,3.3-20.8c-2.7,1-5.2,1.9-7.7,2.8c-5.1,1.9-10.2,3.7-15.4,5.1c-0.6,0.2-0.9,0.5-0.9,1.2
		c0.4,3.7,0.3,7.3,0.4,11c0.1,2.9,0.5,5.7,0.7,8.6c0.1,0.8,0,1.6,0.2,2.4c0.1,0.9-0.2,1.2-1,1.3c-3.6,0.4-7.1,0.9-10.6,1.7
		c-0.7,0.2-1.1,0.1-1.3-0.8c-0.8-4-1.3-8.1-2-12.2c-0.7-4.4-1.5-8.8-2.2-13.2c-0.7-4.6-1.5-9.2-2-13.8c-0.5-4.5-0.9-8.9-1.6-13.4
		c-0.4-2.5-0.6-5.1,0.1-7.7c0.2-0.8,0.5-0.8,1.1-0.4c0.4,0.3,0.8,1,1.5,0.3c0,0,0.3,0.1,0.4,0.3c2.4,2.5,5.4,2.2,8.3,1.4
		c4.5-1.2,9.1-1.4,13.7-1.1c2.6,0.2,5.1,0.2,7.7,0.4c5,0.4,8.7,2.8,11.7,6.6c0.7,0.9,1.4,1.7,2.2,2.7c1.1-4.2,2.2-8.3,3.2-12.4
		c0.2-0.7,0.5-0.8,1-0.8c4.4,0,8.7,0.2,13.1,0.4c0.9,0,1.4,0.5,1.6,1.4c0.3,1.5,0.6,2.9,1.4,4.5c0-1.3,0-2.5,0-3.6
		c0.1,0,0.1,0,0.2,0c0.4,1.6,0.9,3.3,1.3,4.9c2.4,9.8,4.9,19.7,7.1,29.5c0.1,0.4-0.1,1.2,0.8,0.9c0.7-0.2,1.7-0.2,1.6-1.4
		c-0.2-2.2-0.5-4.3-0.9-6.4c-0.9-4.8-1.5-9.7-1.6-14.6c0-4.4-0.3-8.7,0-13.1c0-0.7,0.3-1.1,0.8-1.5c1.3-0.9,2.8-1.4,4.3-1.6
		c1.2-0.1,2.3,0.5,3.3,1.2c1.8,1.2,3.4,2.7,5.3,3.8c2.3,1.4,3.3,3.4,4.1,5.8C781.8,135.5,783.7,142.5,785.2,149.7z M807.5,115
		c-14.5-0.2-29.1,0-43.6,0.2c-7.8,0.1-15.7,0.4-23.5,0.7c-7.1,0.3-14.2,0.6-21.3,1.2c-4.4,0.3-8.9,0.5-13.4,0.9
		c-7.7,0.6-15.5,0.9-23.2,2.4c-1.8,0.3-1.8,0.3-1.8,2.2c0.1,3.8,0.6,7.7,0.9,11.5c0.3,3.2,0.6,6.4,0.9,9.6c0.3,3.4,0.8,6.8,1.1,10.2
		c0.4,3.7,0.8,7.4,1.1,11c0.4,4.2,0.6,8.4,0.9,12.6c0.1,1.3,0.1,2.6,0.2,3.9c0,0.5-0.2,0.5-0.6,0.6c-2.3,0.5-4.6,0.7-6.9,1
		c-1.7,0.2-3.4,0.3-5.1,0.4c-0.6,0.1-0.9-0.1-1-0.7c-1.2-5.5-2.3-11-3.4-16.5c-1-5.2-1.9-10.4-2.6-15.7c-0.5-3.6-0.9-7.2-1.3-10.8
		c-0.5-4.1-0.9-8.1-1.4-12.2c-0.4-3.7-0.9-7.4-1.3-11.1c-0.2-1.6-0.4-3.1-0.6-4.7c0-0.2-0.1-0.4-0.2-0.6c-0.1-0.3-0.7-0.4-0.4-0.8
		c0.3-0.4,0.6-0.9,1.2-1c1.7-0.5,3.4-0.4,5.1-0.6c4.7-0.4,9.4-0.8,14.1-1.2c4.2-0.4,8.3-0.7,12.5-1.1c4.1-0.4,8.1-0.8,12.2-1.2
		c3.9-0.4,7.9-0.7,11.8-1.1c3.9-0.4,7.8-0.8,11.7-1.2c2.2-0.2,4.4-0.3,6.6-0.3c1.3,0,2.7-0.1,4-0.5c-3.8-0.8-7.8,0.1-11.6-0.7
		c1.8-0.5,3.7-0.6,5.5-0.8c8-0.6,16-1,24-1c6.1,0,12.3,0.3,18.4,0.7c6.1,0.3,12.1,0.6,18.2,0.9c2.9,0.1,5.8,0.3,8.7,0.4
		c0.8,0,0.8,0.6,0.9,1c0.2,1.4,0.4,2.8,0.6,4.3c0.1,0.8,0.5,1.3,0.9,1.9c1.5,1.9,3.2,3.8,4.7,6C809.5,115,808.5,115,807.5,115z"/>
	<path class="st0" d="M753.9,84.8C753.9,84.8,753.9,84.8,753.9,84.8C753.9,84.8,753.9,84.8,753.9,84.8z"/>
	<path class="st0" d="M674.9,53.1c1.1,0,1.9,0.4,2.7,1.3c2,2.3,2.8,5,3.1,8c0.2,2.6,0.5,5.3,0.7,7.9c0.1,0.8,0.5,1,1.2,0.9
		c3.4-0.4,6.9-0.8,10.3-1.1c1.2-0.1,2.3-0.1,3.5,0c0.6,0.1,1.3,0.1,2,0.2c-0.3-0.6-1.1-0.9-0.8-1.6c0.3-0.6,1.1-0.4,1.7-0.4
		c2.2,0,4.5-0.1,6.7,0c0.1,0,0.2,0,0.3,0.1c-0.2-3.6,0.1-7.2,0.3-10.7c0.1-1.9-0.2-3.8,0-5.7c0.3-2.5,0.5-5,0.5-7.5
		c0-1.8-0.6-3.5-0.5-5.3c0.1-0.7,0.1-1.3,0.6-2c0.2,0.9,0.7,1.6,1.3,2.3c0.3,0.3,0.2,0.5-0.1,0.9c-0.7,1.2-1,2.6-0.5,4
		c0.3,0.9,0.5,1.7,0.4,2.6c-0.1,2.2-0.3,4.4-0.3,6.6c-0.1,2.4-0.2,4.9-0.1,7.3c0,1.5-0.9,2.8-0.6,4.3c0.1,0.2,0,0.5,0,0.8
		c0.8-0.2,0.5-0.9,0.7-1.3c0,0.8,0,1.6,0,2.5c-0.9-0.6-0.7,0.1-0.7,0.6c0,0.4,0,0.7-0.2,0.9c1.1,0,2.1-0.3,3.1-0.2c0,0,0,0,0,0
		c-0.4-3.1-0.2-6.2-0.2-9.3c-0.1-4.7-0.1-9.3,0.3-14c-0.1-0.3,0-0.5,0.1-0.8c0,0,0,0,0-0.1c-0.1,0.1,0-0.1,0.1,0
		c0.1-0.1,0.1-0.2,0.2-0.2c0,0.6,0,1.2,0,1.7c0.1,6,0.3,12,0.4,18c0,1.5,0,3-0.2,4.6c0,0,0,0,0,0c2.9,0,5.7,0.2,8.4,1.2
		c1.3,0.5,2.6,0.4,4,0c1.2-0.4,2.5-0.9,3.7-1.2c1.9-0.6,3.8-0.7,5.8-0.4c1.4,0.2,2.7,0.1,4.1-0.4c2.7-0.9,5.4-1.6,8.3-1.4
		c0.4,0,0.9-0.1,1.2,0.2c0.8,0.6,1.5,0.4,2.3,0.1c2.5-0.9,5.1-1.6,7.6-2.4c0.7-0.2,1.4-0.4,1.8,0.6c0.2,0.5,0.6,0.4,1.1,0.4
		c1.9-0.2,3.8-0.4,5.7-0.6c0.5-0.1,1,0,1.4,0.4c0.9,0.7,2.3,0.5,2.8-0.6c0.2-0.3,0.5-0.5,0.8-0.5c0.3,0,0.6,0,0.9,0
		c1.9,0,2.3-0.2,2.9-2.1c0.3-0.9,0.5-1.8,0.8-2.6c0.7-2,1.8-3.8,3.5-5.1c1.7-1.3,3.6-2,5.7-1.7c0,0,0,0,0,0c0.2,0,0.3,0,0.5-0.1
		c0,0,0,0,0,0c-0.4,0-0.9,0.1-1-0.4c-0.3-1.4-1.3-1.1-2.2-1.1c-0.9,0.1-1.5-0.1-1.6-1.1c-0.1-1.4-1.4-1.2-2.3-1.5
		c-0.9-0.2-0.6,0.7-0.9,1.1c-0.2,0.3-0.3,0.6-0.5,0.9c-0.3,0.8-1.1,0.7-1.6,0.6c-0.5,0-0.2-0.7-0.2-1c0.2-3.5,0.4-7,0-10.5
		c-0.1-1.1,0.1-2.2,0.7-3.2c0.4-0.6,1.1-1.2,0.3-2.1c-0.1-0.1,0.1-0.4,0.3-0.5c0.7-0.3,0.7-0.3,0.1-0.9c0.2-0.1,0.5-0.3,0.7-0.4
		c0.6-0.6,1.1-1.4,0.9-2.1c-0.2-0.7-1.1-0.7-1.9-0.7c-0.5,0-0.8,0-1-0.5c-0.2-0.4-0.4-1.4-0.2-1.9c0,0,0-0.1,0-0.1
		c-0.3-0.9-0.2-1.9-0.3-2.8c-0.2-1.6-0.4-3.2-0.7-4.8c0-0.3-0.1-0.5,0.3-0.7c1.3-0.5,1.9-1.7,2.6-2.8c0.2-0.3,0.3-0.5,0.7-0.6
		c1.9-0.5,2-0.7,1.8-2.7c-0.7,0-1.1,0.5-1.7,0.7c-0.4,0.2-0.7,0.4-1.1,0c-0.7-0.7-1.9,0-2.4-1.1c-1,0.3-2.1-0.2-3.1,0
		c-1.2,0.2-2.4,0.3-3.2-0.9c-0.3-0.4-0.7-0.7-1.2-0.1c-0.4,0.5-0.5,1,0,1.4c0.8,0.6,1.2,1.6,1.3,2.5c0.2,1.6,1,2.6,2.4,3.2
		c0.6,0.3,0.7,0.6,0.6,1.3c-0.3,1.7-0.6,3.4,0.5,5c0.3,0.4,0.1,0.8-0.2,1.1c-0.4,0.6-0.6,1.1-0.2,1.8c0.2,0.4,0.8,0.6,0.2,1.2
		c-0.4,0.4-0.7,0.8-1.3,0.7c-0.5-0.1-0.9,0.1-1.4,0.3c-0.8,0.2-1.1,0.7-0.7,1.3c0.5,0.8,0.4,1.9,1.4,2.4c0.2,0.1,0.3,0.4,0.2,0.5
		c-0.8,0.9-0.1,1.6,0.3,2.3c0.4,0.7,0.5,1.3,0.6,2c0.2,3.2-0.2,6.5-0.2,9.7c0,1-0.3,1.8-1.1,2.4c-0.4,0.3-0.6,0.6-0.5,1
		c0.1,0.6,0.5,1.1,0.2,1.7c-0.4,0.7-1.1,0.3-1.7,0.6c-0.1,0-0.1,0-0.2,0.1c-0.7,0.6-1.3,0.8-1.8-0.3c0-0.1-0.3-0.2-0.4-0.2
		c-0.6,0.1-0.8-0.2-0.8-0.8c0-0.5-0.1-1-0.1-1.4c0-0.4-0.1-0.8-0.5-0.9c-0.7-0.1-0.7-0.6-0.5-1.1c0.3-0.7,0.1-1.3-0.2-2
		c-0.1-0.2-0.2-0.4-0.4-0.2c-0.6,0.4-1.3,0.8-1.4,1.7c0,0.5-0.2,1-0.5,1.4c-0.5,0.7-0.7,1.4-0.6,2.2c0.2,1.1-0.3,1.9-1.3,2.5
		c-0.4,0.3-0.8,0.5-1.2,0.8c0,0.1,0,0.2,0,0.3c-0.2,0.2-0.2,0-0.2-0.1c0-0.4-0.1-0.9,0.2-1.3c0,0,0,0,0,0c0.1-3.1,0.5-6.2,0.5-9.3
		c0-1,0-2,0-3c0-0.8-0.4-1.3-1.3-1.2c-0.8,0.1-1.6,0.1-2.5-0.1c-2.2-0.3-4.3-0.7-6.5-0.8c-0.5,0-1-0.2-1,0.7
		c-0.1,3.3-0.2,6.5-0.4,9.8c-0.1,2.5-0.4,5-0.6,7.5c-0.1,0.8-0.3,1.3-1.2,0.8c-0.4-0.2-0.6,0-1.1,0c0.3-0.9,0-1.5-0.7-1.9
		c-0.4-0.2-0.3-0.6-0.3-0.9c-0.1-9.2-0.1-18.4-0.2-27.6c0-0.7,0.2-1.2,1-1.2c0.5,0,0.7-0.3,0.6-0.7c-0.3-2.6,0.2-5.2-0.7-7.7
		c-0.1-0.2-0.1-0.5,0-0.7c0.6-1.2,0.4-2.5,0.3-3.7c-0.1-1.7-0.3-3.4-0.4-5c-0.2-2.6,1.2-4.8,1.3-7.3c0-0.2,0.2-0.4,0.3-0.5
		c0.6-0.5,0.6-1.2,0.7-1.9c0.1-2.6-0.2-5.2-0.5-7.7c-0.4-2.7,1.3-4.3,3.4-5c0.7-0.2,0.9-0.6,0.9-1.2c0-1-0.1-2,0.5-2.8
		c0.8-1.2,0.9-2.4,0.4-3.8c-0.5-1.6-0.2-3,1.1-4.1c0.8-0.7,1.5-1.5,1.9-2.6c0.6-1.8,1.2-3.6,1.7-5.4c0.3-1.2,0.8-2,1.9-2.6
		c1.4-0.7,2.7-1.5,3.7-2.7c2.3-2.7,2.7-5.9,2.5-9.3c-0.2-3.1-0.4-6.2-0.7-9.3c-0.2-2.2-1.9-3.5-4.1-3.3c-0.3,0-0.4-0.1-0.5-0.3
		c-0.4-0.8-1.1-1-1.9-1.3c-2.4-0.9-4.8-0.4-7.2-0.8c-0.4-0.1-0.8,0-1.2,0.2c-1.6,0.7-3.2,1.3-4.7,2c-1.9,0.8-2.3,1.6-2.1,3.6
		c0.2,2.4,0.4,4.9,0.4,7.3c0,1.8,0.1,3.6,0.6,5.4c0.8,2.8,2.8,4.6,5,6.4c0.8,0.6,1.8,1.2,2.1,2.1c0.3,1.2,0.6,2.4,1.5,3.4
		c0.2,0.3,0.1,0.6-0.1,1c-0.2,0.2-0.5,0.3-0.6,0.2c-1-0.8-1.9-0.1-2.9,0.2c-1,0.2-0.9,0.8-0.5,1.5c0.3,0.5,0.7,1,0.8,1.7
		c-0.8-0.1-1.1-0.5-1.6-1c-0.9-0.9-0.9-1-1.4,0.2c-0.3,0.6-0.6,0.8-1.3,0.5c-0.5-0.3-1.1-0.4-1.6-0.6c-0.4-0.1-0.7,0.1-0.7,0.3
		c0.3,1-0.6,0.8-0.8,0.6c-0.8-0.8-1.2-0.1-1.8,0.3c-0.3,0.3-0.7,0.9-1.3,0.3c-1.3-1.3-2.6-1.3-4.2-0.4c-1.2,0.7-2.6,0.3-3.4-0.7
		c-1.3-1.5-1.8-6.1,0.2-7.6c1-0.7,1.4-1.9,1.4-3.2c0-1-0.1-1.9-0.1-2.9c-0.2-2.4-1.5-4.1-3.5-5.2c-1.2-0.7-2.4-1.1-3.7-1.4
		c-0.8-0.2-1.5-0.2-2.2,0.3c-1.4,1-2.3,2.5-3,4c-0.2,0.4-0.2,0.9,0,1.3c0.3,0.6,0,1-0.2,1.4c-0.3,0.5-1.3,1-0.1,1.6
		c0,0,0,0.2-0.1,0.3c-0.8,1.1-0.6,2.2,0.2,3c1.3,1.3,1,3.2,2.2,4.6c1,1.3-0.1,3.1-1.8,3.5c-1.5,0.4-2.9,0-3.9-1
		c-1.5-1.6-3.4-2.9-4.9-4.5c-0.6-0.6-1.4-1.1-2.3-1.4c-0.5-0.1-0.7-0.1-0.7,0.5c0,0.4,0,0.9-0.4,1c-0.5,0.1-0.5-0.6-0.6-0.9
		c-0.1-0.2-0.1-0.6,0-0.8c0.1-0.2,0.2-0.4,0-0.5c-0.2-0.2-0.4,0-0.5,0.1c-0.6,0.3-1,0.7-1.7,0.8c-0.3-0.7,0.5-1.1,0.3-1.7
		c-0.5-1.5-3.6-2.7-5-2c-0.2,0.1-0.5,0.5-0.7,0c-0.1-0.3-0.1-0.6,0.2-0.8c0.5-0.3,1.1-0.5,1.8-0.5c0.7,0.1,0.7-0.3,0.4-0.7
		c-0.9-1.2-1.4-2.7-2.2-4c-0.7-1.2-1.5-2.3-3.1-2.5c-0.2,0-0.7-0.1-0.4-0.6c0.3-0.3,0.3-0.6,0-1c-0.4-0.5-0.6,0.4-1,0
		c0.3-1-0.4-1.6-1-2.2c-0.3-0.3-0.7-0.7-1-1.1c-0.4-0.7-0.9-1.4-0.5-2.2c0.6-1.5,0.7-3.1,0.8-4.7c0.1-0.7,0.4-1.1,1-1.3
		c0.8-0.2,1.1-0.7,1.1-1.5c0-0.9-0.4-1.6-1.1-1.9c-1.3-0.5-1.4-1.5-1.3-2.6c0.2-3.4,0.5-6.8,0.8-10.2c0.3-4.9,0.6-9.7,1-14.6
		c0.1-1-0.1-2-0.8-2.7c-0.3,0-0.7,0-1,0c-1.3,0.9-1.9,2.1-2.1,3.6c-0.4,2.7-0.7,5.4-1.1,8.1c-0.8,5.6-1.7,11.2-2,16.8
		c0,0.5-0.2,0.7-0.6,0.9c-1.2,0.4-1.8,1.4-2.4,2.4c-0.3,0.6,0.1,1.1,0.4,1.5c0.3,0.4,0.7,0.1,0.9-0.1c0.3-0.3,1-0.4,0.8-1
		c-0.2-0.5-0.8-1.1-0.4-1.6c0.4-0.4,1.1,0.3,1.7,0.3c0,0,0.1,0.1,0.1,0.1c0.1,0.4-0.9,0.7-0.1,1.1c0.4-0.2,0.8-0.2,1.5-0.1
		c-0.4,0.1-0.6,0.2-0.8,0.3h0l0,0c-1.7,0.5-2.5,1.4-2.7,3c-0.1,0.5-0.7,1,0.4,1.1c0.1,0,0,0.2-0.1,0.2c-0.4,0.4-0.2,0.7-0.1,1.1
		c0.3,1.4,0.9,2.7,1.3,4c0.2,0.8,0.7,1.4,1.4,1.8c0.3,0.1,0.6,0.3,0.5,0.7c-0.5,1,0.4,1.2,1,1.3c0.7,0.1,0.8,0.4,0.6,1
		c-0.2,0.6-0.1,0.8,0.6,0.8c0.2,0,0.4,0,0.7,0c-1.1,1.4-1.1,1.4,0.5,1.9c0.1,0,0.1,0.1,0.2,0.1c0.5,0.1,1,0.3,0.6,1
		c-0.3,0.6-0.6,0.6-1.1,0.2c-0.5-0.4-0.8-0.2-1,0.4c-0.2,0.9,0.1,1.6,0.6,2.2c1.2,1.5,2.5,3,3.6,4.6c0.4,0.6,0.8,0.6,1.3,0.3
		c0.6-0.3,1.1-0.9,2-0.9c-1.9,3.6-1.5,5.3,1.9,8.5c0.4-1.1,0.8-2.1,1.2-3.2c0.2-0.6,0.5-1.2,1-1.5c0.2-0.2,0.5-0.4,0.7-0.3
		c0.4,0.1,0.1,0.5,0.1,0.7c0,0.4-0.1,0.9-0.2,1.3c-0.6,2-1,4.2-2.8,5.6c-0.1-0.3-0.3-0.7-0.4-1c-0.7,0.4-1,0.9-0.8,1.6
		c0.2,1.1,0.2,2.1,0.2,3.2c0,0.6,0.3,1.1,0.8,1.2c0.5,0.1,0.6-0.5,0.7-0.8c0.3-0.6,0.4-1.5,1.3-2.2c-0.4,1-0.6,1.7-0.9,2.4
		c-0.4,1.2-0.8,2.3-0.7,3.6c0,0.4,0,0.8,0.5,0.9c1.1,0.2,1.1,1,1.1,1.9c-0.1,0.9,0,1.8-0.2,2.7c-0.7,4.2-0.9,8.4-0.7,12.6
		c0,0.8,0.2,1.6-0.9,1.7c0.2,0.6,0.7,0.7,1.1,0.9c0.5,0.3,1,0.6,0.8,1.2c-0.2,0.8,0.3,1.1,0.8,1.5c0.6,0.4,1.2,0.8,1.2,1.7
		c-0.2,6.4,0.1,12.8,0.2,19.2c0,1.3-0.3,2.6-0.1,3.9c0.1,1.6,0.2,3-0.4,4.5c-0.4,1.1,0.1,1.7,1.3,1.8c0.8,0.1,1.7,0.1,2.5,0
		c0.8-0.1,1,0.3,0.9,1c-0.2,1.4-0.2,2.7-0.2,4.1c0,4.2,0.2,8.3-0.2,12.5c0,0.2,0.1,0.5-0.2,0.6c-0.2,0-0.3,0-0.5-0.2
		c-1.4-1-2-2.5-2.3-4.1c-0.1-0.7,0.3-1.8-1.1-1.8c0,0-0.1-0.2-0.1-0.3c-0.6-1-1.2-2-1.1-3.2c0-0.4-0.2-0.6-0.6-0.5
		c-0.6,0.1-1.3,0.1-1.7,0.7c-0.3,0.5-0.8,0.8-1.4,1c-0.5,0.2-0.7,0.6-0.1,0.9c0.3,0.2,0.5,0.5,0.4,0.8c-0.1,0.4-0.5,0.3-0.8,0.4
		c-0.6,0-1.3,0.6-1.2,0.9c0.5,1.3-0.6,1.4-1.2,1.8c-0.3,0.2-0.9,0.3-0.7,0.9c0.2,0.7,0,0.9-0.7,0.9c-0.3,0-0.3,0.1-0.4,0.3
		c-0.2,0.8-0.7,0.4-0.9,0.1c-0.6-0.7-0.8-1.5,0.1-2.4c-1,0.5-1.1-0.1-1.1-0.7c0-0.4-0.1-0.9,0-1.3c0.2-0.5,0-0.8-0.4-1.1
		c-0.9-0.9-1.9-1.8-1.8-3.3c0-0.5,0.1-1.2-0.4-1.7c0,1.1,0,2.1,0,3.1c0,0.4-0.1,0.7-0.4,1c-0.6,0.7-1.6,1.3-1.1,2.5
		c0.1,0.2-0.1,0.5-0.4,0.5c-0.3,0-0.3-0.3-0.2-0.4c0-0.4-0.1-0.6-0.5-0.6c-0.4,0.1-0.5-0.2-0.6-0.5c-0.8-2.1-0.6-4.2-0.4-6.4
		c0-0.2,0.4-0.6,0.1-0.6c-0.7-0.1-0.6-0.9-0.8-1.1c-0.6-0.5-0.7-1.1-0.8-1.6c-0.3-1.5-0.3-3.1-0.6-4.6c-0.3-1.5,0.5-3-0.2-4.4
		c0,0,0-0.1,0-0.1c0.3-0.6,0.3-1-0.4-1.2c-0.3-0.1-0.3-0.5-0.4-0.8c-0.2-0.7-0.6-1.3-1.1-1.8c-1-0.9-1.5-2-1.7-3.3
		c-0.1-0.7-0.3-1.3-0.5-2c-0.2-0.8-0.5-1.7,0.5-2.5c-0.9,0.2-0.8-0.5-1-0.9c-0.3,0.8-0.3,0.8-1,1c0.8,0.3,1,0.7,0.8,1.7
		c-0.3,1.3-0.5,2.6-0.3,4c0.1,0.5-0.2,0.9-0.5,1.2c-1,1-1.7,1.9-1.7,3.5c0,0.6-0.3,1.3-0.4,1.9c-0.2,0.6-0.1,1.1-0.1,1.7
		c0.1,1.7,0.5,3.4,0.4,5.1c-0.1,1.6-0.1,3.2-1.3,4.5c-0.4,0.4-0.3,0.5,0,0.9c0.5,0.8,0.7,1.7-0.1,2.5c-0.2,0.2-0.5,0.5-0.3,0.8
		c0.4,0.9-0.1,1.7-0.4,2.5c-0.2,0.7-0.6,1.3-0.5,2.1c0.1,0.4-0.2,0.6-0.6,0.6c-0.8,0-1.5,0.1-2.3,0.1c-0.4,0-0.9,0.4-1.2-0.2
		c-0.2-0.5-0.3-1,0.1-1.5c0.5-0.6,0.4-1.2-0.2-1.7c-0.4-0.3-0.8-0.8-0.9-1.3c-0.3,0.5-0.5,0.9-1,1.2c-0.7,0.5-0.8,1.2-0.3,1.9
		c0.6,0.8,0.4,1.5-0.2,2.2c-0.4,0.4-0.9,0.8-1.3,1.1c-0.5,0.4-1.1,0.8-1.3,1.5c0.7-0.8,1.7-0.6,2.6-0.7
		C668.1,52.9,671.5,53.1,674.9,53.1z M768.9,13.5c-0.3-0.5-0.2-0.7,0.5-0.7c1.1,0,2.2,0,3.3,0.2c0.2,0,0.5-0.2,0.6,0.3
		c0.3,1,0.4,1-0.1,1.4c-0.3,0.3-0.6,0.6-1.1,0.6c-0.1-0.4,0.5-0.8-0.1-1.2c-0.3-0.2-0.8-0.2-1.1,0c-0.6,0.3,0.3,0.8-0.2,1.2
		C769.9,14.8,769.4,14.2,768.9,13.5z M745.4-42.2c-0.4,0.2-0.7,0.5-0.2,1c0.1,0.1,0.4,0.3,0.2,0.5c-0.1,0.3-0.4,0.2-0.6,0.1
		c-0.5-0.1-1.1-0.7-1.6,0.1c-0.1,0.2-0.4-0.2-0.6-0.4c-1.8-2-2.5-4.3-2.7-6.9c-0.2-3.6-0.3-7.3-0.2-10.9c0-0.7,0.3-1.1,0.9-1.2
		c0.4-0.1,0.8-0.3,1.2-0.5c0.9-0.5,1.7-0.5,2.5,0.2c0,0.3-1.1,0.5-0.2,0.9c0.3,0.2,0,0.4-0.2,0.6c-1,1.2-1,2.3-0.1,3.5
		c0.3,0.4,0.4,0.8,0.4,1.3c0,0.3,0.1,0.8-0.4,0.8c-0.4,0.1-0.5-0.4-0.6-0.7c-0.1-0.4-0.1-0.8-0.1-1.3c-0.6,0.7-0.4,1.4-0.1,2
		c0.3,0.6,0.7,1.2,1.1,1.8c0.3,0.4,0.3,0.7-0.4,0.7c-1.2,0.1-1.3,0.3-0.8,1.4c0.4,0.8,0.5,1.8,0.7,2.7c0.1,0.4,0.3,0.7,0.7,0.3
		c0.5-0.5,0.6,0.1,0.7,0.3c0.3,0.4-0.2,0.4-0.4,0.5c-0.4,0.3-1.3,0.2-1.2,1.2c0.1,0.7,0.3,1.1,1,1.3c0.5,0.1,1,0.2,1.5,0.3
		C746-42.4,745.6-42.4,745.4-42.2z M741.8-5c0.5,1,0.6,1.8,0,2.6C741.8-3.2,741.8-4,741.8-5z M736.1-23.1c-0.4-0.8-0.4-1.7-1.2-2.3
		C736-25.2,736.6-24.1,736.1-23.1z M726.5-27.1c0.4-0.1,0.8-0.2,1,0.3c0.1,0.2,0.1,0.5,0.2,0.7c0.1,0.3-0.3,0.8,0.4,0.8
		c0.6-0.1,0.7-0.3,0.6-0.9c0.9,0.3,1.7,0.6,2.4,0.8c-1.1-0.1-1.8,0.4-2.4,1.1c-0.2,0.2-0.4,0.3-0.6,0.4c-0.4,0.2-0.9,0.6-1.4,0.3
		c-0.5-0.3-0.5-0.9-0.4-1.5c0.1-0.5,0.2-0.9,0-1.4C726.3-26.6,726-27,726.5-27.1z M724.3-27.3c0.3,0,0.3,0.2,0.4,0.4
		c0,0.3,0.1,0.6,0.2,0.9c0.1,0.4,0.5,0.9,0,1c-0.4,0.1-0.5-0.6-0.6-0.9c-0.1-0.3-0.2-0.6-0.2-0.8C724-27,724-27.3,724.3-27.3z
		 M688.1-83c-0.5,4.2-0.8,8.3-1,12.5c-0.1,1-0.1,2.1-0.2,3.1c-0.1,0.6-0.3,1.1-0.9,1.4c-0.4,0.2-0.8,0.4-1.1,0.2c-0.3-0.2,0-0.6,0-1
		c0.5-3.7,0.8-7.4,1.4-11.1c0.6-4.4,1-8.9,1.8-13.3c0.1-0.7,0.4-1.3,1.1-1.9C688.8-89.6,688.4-86.3,688.1-83z M688.9-47.2
		c-0.3-0.4-0.6-0.7-0.2-1.1c0.1-0.1,0.6-0.1,0.6,0C689.4-47.8,689.1-47.6,688.9-47.2z M693-42.7c-0.2,0.4-0.6,0.5-1.2,0.4
		c0.3-0.4,0.3-0.9,0.9-0.8C692.9-43,693.1-42.9,693-42.7z M706-5.9c0.3-0.5,0.9-0.8,0.2-1.3c-0.1-0.1-0.1-0.3,0-0.3
		c0.3-0.2,0.7-0.4,1-0.3c0.3,0,0.5,0.3,0.5,0.6C707.9-6.3,707.4-5.8,706-5.9z M707-12.4c0.1-0.1,0.3-0.1,0.4,0
		c0.4,0.5-0.1,0.9-0.2,1.5C706.8-11.5,706.8-12,707-12.4z M713.2,1.9c-0.2,0-0.2-0.2-0.2-0.4c0-0.2,0.1-0.3,0.2-0.2
		c0.1,0.1,0.2,0.2,0.4,0.4C713.4,1.8,713.3,2,713.2,1.9z M715.6,65.4c0.1,0.7,0,1.4,0,2.2c0,0.6,0,0.9-0.7,0.9
		c-0.7,0-0.7-0.4-0.7-0.8c0.1-2,0.3-4,0.5-6c0.1-0.7,0.2-1.4-0.1-2.1c-0.3-0.8-0.1-1.6,0-2.3c0.2-2.1-0.2-4.2,0.2-6.3
		c0.1-0.4,0.2-0.9,0.2-1.3c0.1-0.4,0.2-0.8,0.2-1.3c0.2,1,0.2,2,0,2.9c0,2.6,0.1,5.1,0.6,7.7C716.2,61,715.3,63.2,715.6,65.4z
		 M718.2,3c-0.5,0.7-0.7-0.2-1.1-0.3c0.5-0.3,0.6-1.2,1.3-0.9C718.7,2,718.4,2.7,718.2,3z M720,26.1c-0.6-0.8-0.4-1.6,0-2.4
		C720.2,24.5,720.6,25.2,720,26.1z M720.2,22.3c-0.1-0.9-0.4-1.7,0-2.5C720.3,20.6,720.9,21.4,720.2,22.3z M720.6,4.4
		c-0.2-0.9-0.3-1.9,0.3-3C721.5,2.7,721.1,3.5,720.6,4.4z M723.2-26.6c0,0.3-0.2,0.3-0.5,0.3c-0.9,0-1.3,0.4-1.1,1.3
		c0.1,0.3,0.1,0.8-0.3,0.8c-0.5,0.1-0.3-0.5-0.4-0.8c0-0.1,0-0.3,0-0.6c0-0.1,0-0.4,0.1-0.7c0-0.1,0.1-0.3,0.1-0.4
		c0.1-0.1,0.2-0.3,0.3-0.4c0.6,1,1.1-0.2,1.7-0.1C723.2-27.2,723.2-26.8,723.2-26.6z M722.3-41.4c-0.5,0.3-1.2,0.4-1.6,1
		c0.1,0.1,0.3,0.1,0.3,0.1c0.3,0.3,1.2-0.8,1.2,0.4c0,1.4-0.5,2.1-1.4,2.1c-0.8,0-1.5,0.1-2.2,0.4c-0.5,0.2-0.6,0.1-0.6-0.4
		c-0.2-1.3,0-2.6,0.1-3.9c0-0.5,0.4-0.3,0.6-0.3c0.4,0.1,0.8,0.3,1.3,0.4c1.3,0.4,1.9,0.1,2.6-1.1c0.1-0.1,0.2-0.2,0.4-0.4
		C723.3-42.1,722.8-41.7,722.3-41.4z M720.3-48.3c0.3,0,0.6,0,0.6,0.3c0,0.3-0.1,0.5-0.5,0.6c-0.8,0.2-1.5,0.9-2.5,0.7
		C718.5-47.8,719.3-48.2,720.3-48.3z M716.3-43.6c0.4-1.1,1-1.4,1.8-1.7c0.8-0.2,1.6-0.4,2.3-0.8c0.3-0.1,0.5-0.2,0.8-0.1
		c0.6,0.2,1.5,0.4,1.5,1c0,0.5-0.8,0.5-1.3,0.7c-0.9,0.3-1.8,0.4-2.4,1.2c-0.3,0.3-0.6,0.3-0.9-0.1
		C717.6-43.9,717.1-44.1,716.3-43.6z M717.7-34.5c0-0.3-0.1-0.8,0.2-0.9c0.4-0.2,0.7,0.1,1,0.4c1.3,1.1,2.6,2.2,2.4,4.2
		c0,0.2,0.2,0.6-0.3,0.6c-1.3-0.1-1.5-0.1-2.2,0.2c0-0.6,0-1.2,0-1.7c0-0.6-0.2-1.1-0.7-1.4C717.6-33.6,717.6-34,717.7-34.5z
		 M717.5-5c0.5,0.1,0.8,0.6,0.9,1.1c0.1,0.4-0.3,0.4-0.5,0.4c-0.5,0-0.7-0.3-0.7-0.8C717.2-4.5,717.1-5,717.5-5z M716.5-0.5
		c0.4-0.2,0.5-0.6,0.5-0.9c0.1-0.6,0.5-0.6,1-0.5c0.6,0.2,0.3,0.6,0.1,0.9c-0.4,0.7-0.9,1.3-1.5,1.8c-0.5,0.5-0.8,1.1-0.9,1.9
		c-0.4,3.2-0.9,6.3-1.3,9.5c0-2.3-0.2-4.5,0.1-6.7c0.1-0.9,0.1-1.9-0.3-2.7c-0.1-0.2-0.1-0.4,0.1-0.6c0.9-1,1-2.3,1.3-3.5
		c0.2-0.6,0.2-1.4,1-1.7C716.8-2.1,715.8-1.3,716.5-0.5z M715.3-8.9c-0.1,0.2-0.2,0.4-0.4,0.6c-0.3,0.4-0.8,0.6-1.2,0.4
		c-0.5-0.1-0.2-0.6-0.3-1c0-0.3,0-0.6,0.1-0.9c0.4-1.1,0.7-1.2,1.8-0.8c0.2,0.1,0.4,0.2,0.7,0.3C715.8-9.8,715.5-9.4,715.3-8.9z
		 M709.8-0.5c-0.7,6.1-2.4,12-2,18.3c1-1,1.5-2,1.8-3.2c0.6-2.9,0.7-5.8,1-8.7c0.1-0.7,0.2-1.3,0.8-1.8c0.1,2.2,0,4.2-0.3,6.3
		c-0.6,5.2-1.2,10.4-1.6,15.7c-0.1,1.8-0.4,3.7-1,5.4c-0.3,0.9-0.4,1.9-0.6,2.8c-0.1,0.5-0.2,0.9-0.7,1.2c-1.2-2.8-0.5-28.6,1-34.7
		c0,0.3,0,0.7,0,1.1C709,1.3,708.7,0,709.8-0.5z M707.8-30c0.2-0.4,0.4-0.9,0.9-0.8c0.5,0.1,0.4,0.7,0.5,1.3
		c-0.2,0.6-0.4,1.3-0.6,2.1c-0.2,1.2-0.3,2.4-0.2,3.6c0,0.3,0,0.6,0,0.8c-0.1,0.4-0.4,0.4-0.7,0.4c-0.3,0-0.3-0.2-0.3-0.4
		c0.3-1.6-0.1-3.2-0.1-4.8C707.3-28.6,707.5-29.3,707.8-30z M707.8-20.2c-0.5,0.8-0.9,1.5-1.8,1.8C706.4-19.2,706.4-20.4,707.8-20.2
		z M705.4-16.4c0.4-0.4,0.1-1.1,0.6-1.7C706.1-17.3,706.3-16.6,705.4-16.4z M700.5-34.3c-0.5,0.1-0.9,0-1.5,0c0.3-0.8,0.6-1.5,1-2.4
		c0.2,0.8,0,1.5,0.7,1.8C701-34.6,700.8-34.3,700.5-34.3z M700.5-24.6c1-2.4,1.2-5,1.8-7.5c0.1-0.3,0.2-0.6,0.4-0.8
		c0.1-0.2,0.3-0.4,0.6-0.3c0.3,0.1,0.1,0.4,0.1,0.7c-0.3,1.4-0.6,2.8-0.9,4.2c0,0,0,0.1,0,0.1c0,0.4-0.4,1.1,0.1,1.3
		c0.6,0.2,1-0.3,1.2-0.9c0.3-0.7,1.9-1.4,2.5-1c0.4,0.3,0.3,0.7,0,1.1c-0.2,0.3-0.5,0.4-0.8,0.7c-0.2,0.2-0.3,0.4,0.1,0.7
		c1,0.6,0.4,1.3-0.1,1.7c-1.4,0.8-3,1-4.6,1.4c-0.3,0.1-0.4-0.1-0.4-0.3C700.5-24,700.4-24.3,700.5-24.6z M705-21.8
		c-1,1.6-2.3,2.8-4.2,3.8c0.2-1.2,0.4-2.1,0.6-3.1c0-0.2,0.1-0.5,0.4-0.5C702.9-21.4,704-21.7,705-21.8z M704.6-11.6
		c-0.2,0.5-0.5,1,0.4,1.2c0.6,0.2,0.1,0.5,0.1,0.8c0,0.2-0.1,0.6-0.5,0.1c-0.2-0.3-0.7-0.1-0.7,0.4c-0.1,0.9-0.3,1.8,0.6,2.5
		c-1,0.3-1.6-0.4-2.6-0.8c0,3.8-0.5,7.5-0.2,11.3c-1.1-0.3-1-1.1-1-1.8c0.1-2,0.3-4,0-6.1c-0.3-2.2,0-4.4,0.3-6.7
		c0-0.2,0.2-0.4,0.3-0.7c1,0.8,0.4,2,1,3c0.5-1.1,0.4-2.1,0.5-3.1c0.1-1.3,0.6-2.5,1-3.8c0.1-0.2,0.1-0.5,0.5-0.2
		c0.3,0.2,0.9-0.3,1.3-0.3c0.3,0,0.6-0.1,0.8,0.1c0.3,0.3,0,0.6-0.1,0.8C705.7-13.7,705.1-12.7,704.6-11.6z"/>
	<path class="st0" d="M710.8,45.8C710.8,45.7,710.7,45.7,710.8,45.8C710.7,45.7,710.8,45.7,710.8,45.8z"/>
	<path class="st0" d="M710.4,68.3c-1.1-0.2-2.1,0.2-3.1,0.2c-0.2,0.2-0.4,0.2-0.9,0.1c0,0,0,0,0,0c0.3,0.4,0.8,0.3,1.2,0.2
		c1-0.2,1.9-0.2,2.9-0.2C710.4,68.5,710.4,68.4,710.4,68.3C710.4,68.3,710.4,68.3,710.4,68.3z"/>
	<rect x="706.3" y="68.6" class="st0" width="0" height="0"/>
	<polygon class="st0" points="784.4,52 784.4,52 784.4,52 	"/>
	<path class="st0" d="M778.2,53.7c-1.7,1.3-2.7,3.1-3.5,5.1c-0.3,0.9-0.5,1.8-0.8,2.6c-0.6,1.8-1,2.1-2.9,2.1c-0.3,0-0.6,0-0.9,0
		c-0.4,0-0.6,0.2-0.8,0.5c-0.6,1-1.9,1.3-2.8,0.6c-0.5-0.4-0.9-0.4-1.4-0.4c-1.9,0.2-3.8,0.4-5.7,0.6c-0.4,0-0.9,0.1-1.1-0.4
		c-0.3-1-1-0.8-1.8-0.6c-2.5,0.8-5.1,1.5-7.6,2.4c-0.8,0.3-1.6,0.5-2.3-0.1c-0.3-0.3-0.8-0.2-1.2-0.2c-2.9-0.2-5.6,0.5-8.3,1.4
		c-1.3,0.5-2.7,0.5-4.1,0.4c-2-0.3-3.9-0.1-5.8,0.4c-1.3,0.4-2.5,0.9-3.7,1.2c-1.3,0.4-2.7,0.5-4,0c-2.7-1.1-5.5-1.2-8.4-1.2
		c0,0,0,0,0,0c0,0.1,0,0.2,0,0.3c2.4,0,4.8-0.1,7.1,0.8c2.4,0.9,4.6,0.8,6.9-0.1c2.6-1,5.3-1.6,8.1-1.1c1.4,0.2,2.8,0.1,4.1-0.4
		c2.7-1,5.4-1.6,8.3-1.4c0.3,0,0.7-0.1,0.9,0.1c0.7,1,1.5,0.4,2.3,0.2c2.6-0.8,5.3-1.7,7.9-2.5c0.4-0.1,1.1-0.5,1.2,0.4
		c0,0.9,0.6,0.8,1.1,0.7c1.9-0.3,3.7-0.5,5.6-0.6c0.7,0,1.5-0.6,1.8,0.6c0,0,0.2,0.1,0.3,0.1c0.7,0,1.4,0,2.1,0
		c0.3,0,0.7-0.1,0.7-0.5c-0.1-1.1,0.6-1,1.3-0.9c0.6,0,1.2-0.1,1.8,0.2c0.3,0.1,0.5-0.1,0.7-0.4c1.2-1.7,1.4-3.8,2.3-5.7
		c1.3-2.8,3.2-4.9,6.4-5.6c0.7-0.1,1.5-0.2,2.2-0.4c0,0,0,0,0,0C781.8,51.7,779.9,52.4,778.2,53.7z"/>
	<path class="st0" d="M674.5,53.3c1.4-0.1,2.3,0.4,3.1,1.5c0.9,1.3,2,2.6,2.3,4.2c0.6,3.8,0.8,7.7,1.2,11.6c0.1,0.7,0.3,0.9,0.9,0.9
		c1.3-0.1,2.6-0.3,4-0.4c1.5-0.2,3-0.3,4.6-0.5c2-0.2,4.1-0.6,6.1-0.2c0.8,0.2,1.6,0.1,2.4,0.2c0-0.1,0.1-0.2,0.1-0.2
		c-0.4-0.3-0.7-0.6-1.1-1c-0.2-0.2-0.5-0.3-0.4-0.6c0.1-0.3,0.5-0.2,0.7-0.2c2.6,0,5.2,0,7.8,0l0,0c0,0,0,0,0,0c0-0.1,0-0.1,0-0.2
		c-0.1,0-0.2,0-0.3-0.1c-2.2-0.1-4.5,0-6.7,0c-0.6,0-1.4-0.2-1.7,0.4c-0.3,0.6,0.5,1,0.8,1.6c-0.7-0.1-1.3-0.1-2-0.2
		c-1.2-0.2-2.3-0.2-3.5,0c-3.4,0.4-6.9,0.7-10.3,1.1c-0.8,0.1-1.1-0.1-1.2-0.9c-0.3-2.6-0.6-5.3-0.7-7.9c-0.2-3-1-5.7-3.1-8
		c-0.7-0.8-1.5-1.3-2.7-1.3c-3.4,0-6.8-0.1-10.2,0.2c-0.9,0.1-1.9-0.1-2.6,0.7c1.8-0.4,3.7-0.5,5.5-0.6
		C669.9,53.3,672.2,53.4,674.5,53.3z"/>
	<polygon class="st0" points="706.3,68.6 706.3,68.6 706.3,68.6 	"/>
	<polygon class="st0" points="706.3,68.6 706.3,68.6 706.3,68.6 	"/>
	<path class="st0" d="M645.5,82.4c0,0.4,0,0.8,0,1.2C645.6,83.3,645.6,82.9,645.5,82.4z"/>
	<path class="st0" d="M645.5,82.4c0.2,0.4,0.2,0.8,0,1.2C645.8,83.3,645.7,82.9,645.5,82.4z"/>
	<path class="st0" d="M755.9,54.9C755.9,55,755.9,55,755.9,54.9C755.9,55,755.9,55,755.9,54.9c0,0.2,0.1,0.2,0.1,0.1
		c0-0.4,0-0.7,0-1.1c0,0,0,0,0,0C755.8,54.3,755.9,54.6,755.9,54.9z"/>
	<path class="st0" d="M755.8,55.2c0,0.1,0,0.3,0.2,0.1c0-0.1,0-0.2,0-0.3c0,0.1-0.1,0.1-0.1,0c0,0,0,0,0,0c0,0,0,0,0,0
		c0,0,0,0,0-0.1c0-0.3-0.1-0.7,0.1-1C755.7,54.4,755.8,54.8,755.8,55.2z"/>
	<path class="st0" d="M755.9,55C755.9,55,755.9,55,755.9,55L755.9,55z"/>
	<path class="st0" d="M698.2,43.6c-0.1-0.3-0.1-0.7-0.4-0.7c-0.4-0.1-0.2,0.3-0.3,0.6c0.2,0.2-0.1,0.6,0.4,0.7
		C698.2,44.1,698.3,43.9,698.2,43.6z"/>
	<path class="st0" d="M684.6-62.1c0.2,0.1,0.4,0.1,0.7,0.2C685.1-62.3,685.1-62.3,684.6-62.1z"/>
	<path class="st0" d="M686.1-62.2c-0.7-0.1-1.1-0.1-1.5,0.1c0.6-0.1,0.6-0.1,0.7,0.2h0C685.4-62,685.6-62.1,686.1-62.2z"/>
	<path class="st0" d="M717.9,133.1c-0.4,1.8-1.2,3.2-3,3.9c-3.7,1.4-7.4,2.9-11.2,4.2c-0.9,0.3-1.2,0-1.3-0.9
		c-0.3-2.4-0.7-4.8-1.1-7.2c0.2-0.1,0.5-0.1,0.7,0.1c0.9,0.7,1.8,0.6,2.8,0.3c2.9-0.8,5.9-1.4,8.8-2.2c1.8-0.5,2.9,0.6,4.3,1.2
		C718.1,132.5,718,132.8,717.9,133.1z M747.3,143.7c-1.4,0-2.7,0.2-4.1,0.3c-0.6,0.1-0.8-0.1-0.7-0.7c0.3-2.4,1-4.7,1.6-7.1
		c0.2-0.7,0.4-1.5,0.6-2.3c0.5,0.3,0.6,0.7,0.7,1.1c0.6,2.6,1.6,5,2.7,7.4C748.4,143.2,748.6,143.8,747.3,143.7z M777.2,153.3
		c-1.1,0.3-2.2,0.6-3.3,0.9c-0.6,0.1-0.8-0.1-0.8-0.7c-0.3-3.1-0.6-6.2-0.8-9.3c-0.3-3.9-0.6-7.9,0-11.9c0.7,2.5,1.4,5,2.1,7.5
		c1.1,4.1,2.2,8.3,3.3,12.5C777.9,152.9,777.7,153.2,777.2,153.3z"/>
	<path class="st0" d="M760.8,88.3c0.1,0,0.1,0,0.2,0c0-0.9,0-1.9,0-2.8c-0.1-0.8,0.4-0.8,0.9-0.7c1.2,0.2,2,1.1,2.1,2.7
		c0.1,2.1-0.5,3.8-2.5,4.2c-0.6,0.1-0.7-0.1-0.7-0.6C760.8,90.1,760.8,89.2,760.8,88.3z M733,87.5c1.2,0.4,2.2,1.8,2.2,3.9
		c0,0.7-0.4,1.7-1.6,2.3c-0.5,0.3-0.7,0.2-0.8-0.4c-0.1-1.8-0.3-3.6-0.5-5.4C732.3,87.2,732.7,87.4,733,87.5z M699.3,84.1
		c1.9-0.8,3.8-0.9,5.6,0.3c1.5,1.1,2,2.7,1.7,4.6c-0.4,2.5-2.2,4-4.7,4.3c-0.6,0.1-1.2,0-1.7-0.4c-1.7-1.3-3.1-2.7-3-5.4
		C697.2,86.3,697.7,84.8,699.3,84.1z"/>
	<path class="st0" d="M753.8,83.5c0,0.1,0,0.1,0.1,0.2C753.8,83.6,753.8,83.5,753.8,83.5z"/>
	<path class="st0" d="M710.6,45.4c0,0.3,0,0.6,0,0.9c0-0.1,0-0.2,0-0.3C710.6,45.8,710.6,45.6,710.6,45.4z"/>
	<path class="st0" d="M710.8,67.4c0.2-3.3,0.3-6.5,0-9.8c0-0.4,0-0.9,0-1.3c0.1-2.4-0.1-4.7-0.2-7.1c-0.1,5.7,0,11.3,0,17
		c0,0.7,0.2,1.4,0,2.1c0.1,0,0.2,0,0.3,0C710.7,68.1,710.7,67.8,710.8,67.4z"/>
	<path class="st0" d="M710.5,68.3c0,0.1-0.1,0.2-0.1,0.3c0.2,0,0.4,0,0.6,0c-0.1-0.1-0.1-0.2-0.2-0.3
		C710.7,68.3,710.6,68.3,710.5,68.3z"/>
	<path class="st0" d="M710.5,66.3c0.1-5.7,0-11.3,0-17c0-1,0-2,0-3c0-0.3,0-0.6,0-0.9c0,0,0-0.1,0-0.1c0-0.1-0.1-0.1-0.2-0.2
		c-0.3,4.6-0.3,9.3-0.3,14c0,3.1-0.2,6.2,0.2,9.3c0,0,0.1,0,0.1,0C710.7,67.7,710.5,67,710.5,66.3z"/>
	<path class="st0" d="M710.6,45.3C710.6,45.3,710.6,45.3,710.6,45.3c0,0,0,0.1,0,0.1C710.6,45.4,710.6,45.4,710.6,45.3
		C710.6,45.3,710.6,45.3,710.6,45.3z"/>
	<path class="st0" d="M710.6,49.3c0-1,0-2,0-3C710.5,47.3,710.5,48.3,710.6,49.3z"/>
	<path class="st0" d="M710.8,68.3c0,0.1,0.1,0.2,0.2,0.3c0-0.1,0-0.2,0-0.3C711,68.3,710.9,68.3,710.8,68.3z"/>
	<path class="st0" d="M710.4,68.3c0,0.1,0,0.2,0,0.3c0-0.1,0.1-0.2,0.1-0.3C710.5,68.3,710.4,68.3,710.4,68.3z"/>
	<path class="st0" d="M774,82.5c0.1-0.4-0.1-0.7,0.1-1.1c-0.4,0.5,0,1.1-0.3,1.6C774.2,83.1,774,82.7,774,82.5z"/>
	<path class="st0" d="M773.9,83.6c0.2-0.7,0.2-1.5,0.2-2.2c-0.1,0.4,0,0.7-0.1,1.1c0,0.2,0.2,0.6-0.3,0.5
		C773.7,83.2,773.7,83.4,773.9,83.6z"/>
	<path class="st0" d="M725.2,91.5c0,0.1,0,0.2,0,0.3c0,0,0,0,0,0C725.2,91.7,725.2,91.6,725.2,91.5z"/>
	<path class="st0" d="M725.1,90C725.1,90,725.1,90,725.1,90c-0.1,0.2-0.1,0.4-0.2,0.7c0.1,0.2,0.2,0.3,0.2,0.5
		C725.1,90.8,725.2,90.4,725.1,90z"/>
	<path class="st0" d="M725.2,91.5C725.2,91.5,725.2,91.5,725.2,91.5c0-0.1,0-0.2,0-0.3C725.1,91.3,725.1,91.4,725.2,91.5z"/>
	<path class="st0" d="M725.2,91.8c0-0.1,0-0.2,0-0.3c0,0,0,0,0,0c0-0.1,0-0.2,0-0.3c0-0.2-0.1-0.4-0.2-0.5c0.1,0.4,0.1,0.8,0.2,1.2
		C725.1,91.9,725.2,91.8,725.2,91.8z"/>
	<path class="st0" d="M725.1,91.2c0,0.1,0,0.2,0,0.3c0,0.1,0,0.2,0.1,0.2c0,0,0,0,0.1-0.1c-0.1-0.6,0.1-1.2-0.2-1.7
		C725.2,90.4,725.1,90.8,725.1,91.2z"/>
	<path class="st0" d="M753.9,83.8C753.9,83.8,753.9,83.9,753.9,83.8c0-0.2,0-0.4,0.2-0.6c-0.3-0.3,0-0.8-0.3-1
		c0.1,0.4,0,0.8,0.1,1.1C753.9,83.5,753.9,83.7,753.9,83.8z"/>
	<path class="st0" d="M754.1,84.3c0-0.3,0-0.7,0-1c-0.2,0.2-0.2,0.4-0.2,0.6C754,84,754,84.1,754.1,84.3z"/>
	<path class="st0" d="M753.8,83.6c0,0.1,0.1,0.1,0.1,0.2c0-0.2,0-0.3,0-0.5c-0.1-0.4,0-0.8-0.1-1.1c0,0.4,0,0.8,0,1.2
		C753.8,83.5,753.8,83.6,753.8,83.6z"/>
	<path class="st0" d="M659.3,59.6c-0.2,0-0.5,0-0.5,0.3c0.5,0.1,1.1,0.1,1.5-0.1C660,59.8,659.5,60.1,659.3,59.6z"/>
	<path class="st0" d="M659.3,59.6c0.3,0.5,0.7,0.2,1,0.2C660,59.6,659.6,60,659.3,59.6z"/>
	<path class="st0" d="M783,90.5c0.3,0.1,0.1,0.4,0.2,0.6C783.4,90.6,783.4,90.6,783,90.5z"/>
	<path class="st0" d="M783.3,90.2c-0.1-0.1-0.2,0.1-0.3,0.3c0.3,0.1,0.3,0.1,0.2,0.6C783.5,90.9,783.5,90.5,783.3,90.2z"/>
	<path class="st0" d="M707.1,67.4c0.1-0.8,1.2-1.2,1-2.1c0,0,0.1-0.1,0.1-0.1c-0.3,0.8-0.8,1.3-1,0c-0.2-1.1-0.3-2.3,0.4-3.4
		c0.1-0.1,0.1-0.3,0.1-0.4c0-2.2,0.3-4.4,0.1-6.6c0-0.6-0.2-1.2,0-1.8c0.4-1.9,0.4-3.8,0.4-5.6c0-1-0.1-2-0.4-3
		c-0.4-1.1-0.2-2.4,0.2-3.4c0.5-1.1,0.1-1.9-0.7-2.7c-0.3,1.1-0.3,2.1-0.1,3c0.5,2.9,0.3,5.8,0,8.7c-0.2,1.9-0.4,3.7-0.2,5.6
		c0.2,2.1-0.1,4.2-0.2,6.4c-0.1,1.7-0.1,3.5-0.1,5.2c0,0.4,0,0.8-0.2,1.2c0,0,0,0,0.1,0C706.8,68.2,707,67.9,707.1,67.4z"/>
	<path class="st0" d="M706.4,68.4c0,0,0,0.1-0.1,0.1C706.4,68.5,706.4,68.5,706.4,68.4C706.5,68.4,706.4,68.4,706.4,68.4z"/>
	<polygon class="st0" points="706.3,68.6 706.3,68.6 706.3,68.6 	"/>
	<path class="st0" d="M706.3,68.6C706.3,68.6,706.3,68.6,706.3,68.6C706.3,68.6,706.3,68.6,706.3,68.6
		C706.3,68.6,706.3,68.6,706.3,68.6C706.3,68.6,706.3,68.6,706.3,68.6z"/>
	<polygon class="st0" points="706.3,68.6 706.3,68.6 706.3,68.6 	"/>
	<path class="st0" d="M706.4,68.4C706.4,68.4,706.4,68.4,706.4,68.4C706.4,68.4,706.3,68.4,706.4,68.4c-0.1,0-0.1,0.1-0.1,0.1
		c0,0,0,0,0,0C706.4,68.5,706.4,68.5,706.4,68.4z"/>
	<path class="st0" d="M706.3,68.6C706.3,68.6,706.3,68.6,706.3,68.6c0.4,0.2,0.7,0.1,0.9,0c-0.2,0-0.5,0-0.7-0.1
		C706.4,68.5,706.4,68.5,706.3,68.6z"/>
	<path class="st0" d="M712.7-22.5c0.5,0.3,0.7,0.1,0.9-0.4c0.1-0.6,0.5-1.1,1-1.5c0.7-0.5,1-1.3,1.5-2.1c-0.8,0.5-1.2,0.3-1.3-0.6
		c-0.9,0.7-1.7,1.4-2.6,2c-0.6,0.5-1.1,1-0.9,1.8C711.4-22.5,712.2-22.8,712.7-22.5z"/>
	<path class="st0" d="M701.5-21.1c-0.2,1-0.4,1.9-0.6,3.1c1.8-1,3.1-2.2,4.2-3.8c-1.1,0.1-2.1,0.5-3.2,0.2
		C701.5-21.7,701.5-21.3,701.5-21.1z"/>
	<path class="st0" d="M770.9,14c0.3-0.2,0.8-0.2,1.1,0c0.6,0.3-0.1,0.8,0.1,1.2c0.5,0.1,0.8-0.3,1.1-0.6c0.4-0.4,0.4-0.4,0.1-1.4
		c-0.1-0.4-0.4-0.2-0.6-0.3c-1.1-0.2-2.2-0.2-3.3-0.2c-0.6,0-0.7,0.3-0.5,0.7c0.5,0.7,1,1.4,1.8,1.7C771.2,14.7,770.3,14.3,770.9,14
		z"/>
	<path class="st0" d="M713.6-9.7c-0.1,0.3-0.2,0.6-0.1,0.9c0,0.3-0.2,0.8,0.3,1c0.4,0.1,0.9-0.1,1.2-0.4c0.2-0.2,0.3-0.4,0.4-0.6
		c0.1-0.5,0.5-0.9,0.8-1.4c-0.3-0.1-0.5-0.2-0.7-0.3C714.3-10.9,714-10.8,713.6-9.7z"/>
	<path class="st0" d="M707.7-7.3c-0.1-0.3-0.2-0.5-0.5-0.6c-0.4-0.1-0.7,0.1-1,0.3c-0.1,0.1-0.1,0.3,0,0.3c0.8,0.5,0.1,0.8-0.2,1.3
		C707.4-5.8,707.9-6.3,707.7-7.3z"/>
	<path class="st0" d="M700.7-34.9c-0.7-0.4-0.5-1-0.7-1.8c-0.4,0.9-0.7,1.6-1,2.4c0.6,0,1,0,1.5,0C700.8-34.3,701-34.6,700.7-34.9z"
		/>
	<path class="st0" d="M707.8-20.2c-1.4-0.1-1.4,1.1-1.8,1.8C706.9-18.7,707.4-19.4,707.8-20.2z"/>
	<path class="st0" d="M720.6,4.4c0.5-0.9,0.9-1.7,0.3-3C720.3,2.6,720.4,3.5,720.6,4.4z"/>
	<path class="st0" d="M717.9-3.4c0.2,0,0.7,0,0.5-0.4c-0.1-0.5-0.4-1-0.9-1.1c-0.4-0.1-0.3,0.4-0.3,0.7
		C717.1-3.7,717.4-3.4,717.9-3.4z"/>
	<path class="st0" d="M717.1,2.7c0.4,0.1,0.6,0.9,1.1,0.3c0.2-0.3,0.5-1,0.2-1.1C717.7,1.5,717.6,2.5,717.1,2.7z"/>
	<path class="st0" d="M720.2,22.3c0.7-1,0.1-1.7,0-2.5C719.8,20.6,720,21.4,720.2,22.3z"/>
	<path class="st0" d="M720,26.1c0.5-0.8,0.1-1.6,0-2.4C719.6,24.5,719.5,25.3,720,26.1z"/>
	<path class="st0" d="M741.8-5c0,1,0,1.8,0,2.6C742.3-3.2,742.3-4,741.8-5z"/>
	<path class="st0" d="M706-18.1c-0.5,0.6-0.2,1.3-0.6,1.7C706.3-16.6,706.1-17.3,706-18.1z"/>
	<path class="st0" d="M692.7-43.1c-0.6-0.1-0.6,0.4-0.9,0.8c0.6,0,1,0,1.2-0.4C693.1-42.9,692.9-43,692.7-43.1z"/>
	<path class="st0" d="M715.2,51.1c0.2-1,0.2-1.9,0-2.9c-0.1,0.4-0.2,0.8-0.2,1.3C715.6,50,715.2,50.6,715.2,51.1z"/>
	<path class="st0" d="M715.2,51.1c0-0.6,0.4-1.2-0.2-1.7C715.3,50,715,50.6,715.2,51.1z"/>
	<path class="st0" d="M707.4-12.4c-0.1-0.1-0.3-0.1-0.4,0c-0.3,0.4-0.2,0.8,0.2,1.5C707.3-11.5,707.8-11.9,707.4-12.4z"/>
	<path class="st0" d="M688.6-48.3c-0.3,0.4-0.1,0.7,0.2,1.1c0.2-0.4,0.5-0.6,0.4-1.1C689.2-48.3,688.7-48.4,688.6-48.3z"/>
	<path class="st0" d="M710.6,45c0,0,0,0.1,0,0.1c0,0,0,0,0,0C710.6,45.1,710.6,45.1,710.6,45z"/>
	<path class="st0" d="M710.6,44.3C710.6,44.3,710.6,44.3,710.6,44.3C710.6,44.3,710.6,44.3,710.6,44.3c0,0.1,0,0.2,0,0.2
		C710.6,44.4,710.6,44.3,710.6,44.3z"/>
	<path class="st0" d="M710.6,44.5c0,0.2,0,0.3,0,0.5C710.6,44.8,710.6,44.7,710.6,44.5z"/>
	<path class="st0" d="M710.6,45c0-0.2,0-0.3,0-0.5c0-0.1,0-0.1-0.1-0.2c-0.2,0.3-0.2,0.5-0.1,0.8c0.1,0,0.1,0,0.2,0
		C710.6,45.1,710.6,45.1,710.6,45z"/>
	<path class="st0" d="M710.6,44.5c0,0.2,0,0.3,0,0.5c0,0,0,0.1,0,0.1c0.2,0.1,0.1,0.3,0.1,0.5c0,0,0,0.1,0.1,0.1c0-0.5,0-1.1,0-1.7
		c-0.1,0.1-0.1,0.2-0.2,0.2c0,0,0,0,0,0C710.6,44.3,710.6,44.4,710.6,44.5z"/>
	<path class="st0" d="M710.6,45.2c0,0,0,0.1,0,0.1C710.6,45.2,710.6,45.2,710.6,45.2C710.6,45.2,710.6,45.2,710.6,45.2z"/>
	<path class="st0" d="M710.7,45.7c0-0.2,0.1-0.4-0.1-0.5c0,0,0,0.1,0,0.1c0,0,0,0,0,0C710.7,45.4,710.7,45.6,710.7,45.7z"/>
	<path class="st0" d="M710.6,45.3C710.6,45.3,710.6,45.3,710.6,45.3c0-0.1,0-0.1,0-0.1c0,0-0.1,0-0.2,0
		C710.5,45.2,710.6,45.2,710.6,45.3z"/>
	<path class="st0" d="M710.6,45.3C710.6,45.3,710.6,45.3,710.6,45.3C710.6,45.3,710.6,45.3,710.6,45.3
		C710.6,45.3,710.6,45.3,710.6,45.3z"/>
	<path class="st0" d="M713.2,1.3c-0.1,0-0.2,0.1-0.2,0.2c0,0.2,0.1,0.3,0.2,0.4c0.1,0,0.2-0.1,0.4-0.2
		C713.4,1.6,713.3,1.4,713.2,1.3z"/>
	<path class="st0" d="M717.8,132.4c-1.4-0.6-2.5-1.7-4.3-1.2c-2.9,0.8-5.9,1.4-8.8,2.2c-1,0.3-1.9,0.4-2.8-0.3
		c-0.2-0.2-0.4-0.2-0.7-0.1c0.4,2.5,0.8,4.8,1.1,7.2c0.1,0.9,0.4,1.2,1.3,0.9c3.8-1.3,7.5-2.8,11.2-4.2c1.9-0.7,2.7-2.1,3-3.9
		C718,132.8,718.1,132.5,717.8,132.4z"/>
	<path class="st0" d="M774.4,139.9c-0.7-2.5-1.4-5-2.1-7.5c-0.6,4-0.3,7.9,0,11.9c0.2,3.1,0.6,6.2,0.8,9.3c0,0.6,0.2,0.8,0.8,0.7
		c1.1-0.3,2.2-0.6,3.3-0.9c0.5-0.1,0.6-0.4,0.5-1C776.6,148.2,775.5,144,774.4,139.9z"/>
	<path class="st0" d="M745.4,135.1c-0.1-0.4-0.2-0.9-0.7-1.1c-0.2,0.8-0.4,1.5-0.6,2.3c-0.6,2.4-1.3,4.7-1.6,7.1
		c-0.1,0.6,0,0.8,0.7,0.7c1.4-0.2,2.7-0.3,4.1-0.3c1.2,0,1-0.5,0.7-1.3C747,140.1,745.9,137.7,745.4,135.1z"/>
	<path class="st0" d="M700.2,93c0.5,0.4,1.1,0.4,1.7,0.4c2.5-0.3,4.3-1.8,4.7-4.3c0.3-1.8-0.2-3.4-1.7-4.6c-1.7-1.3-3.7-1.2-5.6-0.3
		c-1.6,0.7-2.1,2.1-2.1,3.5C697.2,90.2,698.6,91.7,700.2,93z"/>
	<path class="st0" d="M761.4,91.6c2-0.4,2.6-2.1,2.5-4.2c-0.1-1.5-0.9-2.4-2.1-2.7c-0.6-0.1-1-0.1-0.9,0.7c0.1,0.9,0,1.8,0,2.8
		c-0.1,0-0.1,0-0.2,0c0,0.9,0,1.8,0,2.8C760.7,91.6,760.8,91.8,761.4,91.6z"/>
	<path class="st0" d="M733.6,93.7c1.2-0.6,1.6-1.6,1.6-2.3c0-2.1-0.9-3.5-2.2-3.9c-0.3-0.1-0.7-0.3-0.7,0.3c0.2,1.8,0.3,3.6,0.5,5.4
		C732.8,93.8,733.1,93.9,733.6,93.7z"/>
	<path class="st0" d="M754,84.7c0.1-0.2,0-0.4,0-0.5c0,0,0,0,0,0C753.9,84.4,753.9,84.6,754,84.7C753.9,84.8,753.9,84.8,754,84.7
		C753.9,84.8,753.9,84.8,754,84.7C753.9,84.8,753.9,84.8,754,84.7z"/>
	<path class="st0" d="M754,84.7C753.9,84.8,753.9,84.8,754,84.7c0,0.2,0.1,0.3,0.2,0.5c0-0.5,0-0.7,0-0.9c-0.1,0-0.1,0-0.2-0.1
		C753.9,84.4,754,84.6,754,84.7z"/>
	<path class="st0" d="M753.9,84.2c-0.2-0.1-0.1-0.4-0.1-0.6c0-0.1,0-0.1-0.1-0.2c-0.1,0.4,0,0.8,0.2,1.3c0,0,0,0,0-0.1
		C753.9,84.6,753.9,84.4,753.9,84.2z"/>
	<path class="st0" d="M753.9,84.2C753.9,84.2,753.9,84.2,753.9,84.2C753.9,84.2,753.9,84.2,753.9,84.2c0-0.1,0-0.2,0-0.3
		c0,0,0,0,0,0C753.9,84,753.9,84.1,753.9,84.2z"/>
	<path class="st0" d="M753.9,84.2C753.9,84.2,753.9,84.2,753.9,84.2c0,0,0.1,0.1,0.2,0.1c-0.1-0.1-0.1-0.3-0.2-0.4
		C753.9,84,753.9,84.1,753.9,84.2z"/>
	<path class="st0" d="M753.9,84.2c0-0.1,0-0.2,0-0.4c0-0.1-0.1-0.1-0.1-0.2C753.8,83.8,753.7,84.1,753.9,84.2z"/>
	<path class="st0" d="M725.3,92.4c0-0.2,0-0.3-0.1-0.5c0,0,0,0,0,0C725.3,92.1,725.3,92.2,725.3,92.4z"/>
	<path class="st0" d="M725.2,91.9c0,0.2,0.1,0.3,0.1,0.5C725.3,92.2,725.3,92.1,725.2,91.9c-0.1,0-0.1,0-0.2,0
		c0,0.3,0.1,0.5,0.4,0.7c0.1-0.3,0.1-0.6-0.1-0.9C725.3,91.8,725.3,91.9,725.2,91.9z"/>
	<path class="st0" d="M725.2,91.9C725.2,91.9,725.2,91.9,725.2,91.9c0-0.1,0-0.1,0-0.1c0,0,0,0,0,0c0,0,0,0,0,0
		C725.2,91.8,725.2,91.9,725.2,91.9z"/>
	<path class="st0" d="M725.2,91.9c0.1,0,0.1-0.1,0-0.2c0,0,0,0-0.1,0.1C725.2,91.8,725.2,91.9,725.2,91.9z"/>
	<path class="st0" d="M725.2,91.9c0,0,0-0.1,0-0.1c0,0,0,0,0,0c0,0-0.1,0.1-0.1,0.1C725.1,91.9,725.2,91.9,725.2,91.9z"/>
</g>
</svg>
