<?xml version="1.0" encoding="utf-8"?>
<!-- Generator: Adobe Illustrator 19.0.0, SVG Export Plug-In . SVG Version: 6.00 Build 0)  -->
<svg version="1.1" id="Layer_1" xmlns="http://www.w3.org/2000/svg" xmlns:xlink="http://www.w3.org/1999/xlink" x="0px" y="0px"
	 viewBox="0 0 100 100" style="enable-background:new 0 0 100 100;" xml:space="preserve">
<path id="XMLID_2_" d="M85.9,50.1C85.9,69.9,69.8,86,50.1,86S14.2,69.9,14.2,50.1c0-32.6,40.4-48.3,62.4-24L78,21l4.8,1.3l-3,11.3
	L69,35.9l-1-4.9l5.4-1.2C54.8,8.5,19.2,21.6,19.2,50.1c0,17,13.8,30.8,30.8,30.8c17,0,30.8-13.8,30.8-30.8H85.9z M40,33l-4,2.9
	l12.9,17.7h19.7v-5H51.3L40,33z"/>
</svg>
