<?xml version="1.0" encoding="utf-8"?>
<!-- Generator: Adobe Illustrator 19.0.0, SVG Export Plug-In . SVG Version: 6.00 Build 0)  -->
<svg version="1.1" id="Layer_1" xmlns="http://www.w3.org/2000/svg" xmlns:xlink="http://www.w3.org/1999/xlink" x="0px" y="0px"
	 viewBox="350 -100 800 300" style="enable-background:new 350 -100 800 300;" xml:space="preserve">
<style type="text/css">
	.st0{fill:#F8F8F8;}
	.st1{fill:#E5E5E5;}
	.st2{fill:#E9E9E9;}
	.st3{fill:#7C7C7C;}
	.st4{fill:#BFBFBF;}
	.st5{fill:#757575;}
	.st6{fill:#989898;}
	.st7{fill:#FCFCFC;}
	.st8{fill:#FEFEFE;}
	.st9{fill:#929292;}
	.st10{fill:#999999;}
	.st11{fill:#ADADAD;}
	.st12{fill:#969696;}
	.st13{fill:#D9D9D9;}
	.st14{fill:#C2C2C2;}
	.st15{fill:#F7F7F7;}
	.st16{fill:#B9B9B9;}
	.st17{fill:#C6C6C6;}
	.st18{fill:#949494;}
	.st19{fill:#FBFBFB;}
	.st20{fill:#FDFDFD;}
	.st21{fill:#A8A8A8;}
	.st22{fill:#D8D8D8;}
	.st23{fill:#CACACA;}
	.st24{fill:#E3E3E3;}
	.st25{fill:#EBEBEB;}
	.st26{fill:#C1C1C1;}
	.st27{fill:#E1E2E3;}
	.st28{fill:#E8E8E8;}
	.st29{fill:#E4E4E4;}
	.st30{fill:#E7E7E7;}
	.st31{fill:#E4E5E5;}
	.st32{fill:#727272;}
	.st33{fill:#E6E6E7;}
	.st34{fill:#E6E6E6;}
	.st35{fill:#C5C5C5;}
	.st36{fill:#828282;}
	.st37{fill:#F6F6F6;}
	.st38{fill:#DEDEDE;}
	.st39{fill:#707070;}
	.st40{fill:#767676;}
	.st41{fill:#797979;}
	.st42{fill:#626262;}
	.st43{fill:#D1D1D1;}
	.st44{fill:#8E8E8E;}
	.st45{fill:#B5B5B5;}
	.st46{fill:#B4B4B4;}
	.st47{fill:#C4C4C4;}
	.st48{fill:#E0E0E0;}
	.st49{fill:#C0C0C0;}
	.st50{fill:#EDEDED;}
	.st51{fill:#BCBCBC;}
	.st52{fill:#656565;}
	.st53{fill:#747474;}
	.st54{fill:#B3B3B3;}
	.st55{fill:#DADADA;}
	.st56{fill:#D5D5D5;}
	.st57{fill:#EAEAEA;}
	.st58{fill:#E2E2E2;}
	.st59{fill:#737373;}
	.st60{fill:#6A6A6A;}
	.st61{fill:#9D9D9D;}
	.st62{fill:#DDDDDD;}
	.st63{fill:#A1A1A1;}
	.st64{fill:#7A7A7A;}
	.st65{fill:#A7A7A7;}
	.st66{fill:#818181;}
	.st67{fill:#F9F9F9;}
	.st68{fill:#8D8D8D;}
	.st69{fill:#919191;}
	.st70{fill:#C3C3C3;}
	.st71{fill:#CECECE;}
	.st72{fill:#F4F4F4;}
	.st73{fill:#EFEFEF;}
	.st74{fill:#B2B2B2;}
	.st75{fill:#CBCBCB;}
	.st76{fill:#787878;}
	.st77{fill:#7D7D7D;}
	.st78{fill:#DCDCDC;}
	.st79{fill:#EEEEEE;}
	.st80{fill:#8B8B8B;}
	.st81{fill:#8F8F8F;}
	.st82{fill:#E1E1E1;}
	.st83{fill:#AAAAAA;}
	.st84{fill:#D4D4D4;}
	.st85{fill:#CCCCCC;}
	.st86{fill:#D7D7D7;}
	.st87{fill:#F1F1F1;}
	.st88{fill:#686868;}
	.st89{fill:#B0B0B0;}
	.st90{fill:#ABABAB;}
	.st91{fill:#868686;}
	.st92{fill:#D6D6D6;}
	.st93{fill:#B7B7B7;}
	.st94{fill:#888888;}
	.st95{fill:#F0F0F0;}
	.st96{fill:#808080;}
	.st97{fill:#7E7E7E;}
	.st98{fill:#D0D0D0;}
	.st99{fill:#696969;}
	.st100{fill:#C8C8C8;}
	.st101{fill:#717171;}
	.st102{fill:#6D6D6D;}
	.st103{fill:#606060;}
	.st104{fill:#FFFFFF;}
</style>
<g id="HIYkib.tif">
	<g>
		<path class="st0" d="M614.8,12.3c-0.8-1.1-1.5-2.2-2.1-3.4c-0.3-0.5-0.4-1.1-0.6-1.6c-0.1-0.2-0.2-0.3-0.3-0.5
			c0.1,0.1,0.2,0.2,0.3,0.3c-0.2-0.9-0.3-1.8-0.2-2.7C607.1-4,600-11.4,591.8-16.2c-12.6-7.5-24.9-9.3-39.4-9.3c-0.4,0-0.7,0-1-0.1
			c-0.1,0.2-0.2,0.6-0.2,1.1c0.8,0.6,1.7,0.6,2.6,0.4c4.5,0,9,0,13.5,0c2.9,0.9,6,0.8,8.8,2c4.4,1.1,8.4,3,12.7,4.4
			c0.1,0,0.1,0,0.2,0c-0.1,0.1-0.2,0.2-0.3,0.3c-4-1.9-8.2-3.4-12.5-4.6c-2.8-1.2-5.9-1.2-8.8-2c-4.4,0-8.7,0-13.1,0
			c-2.1,0.8-4.4,0-6.5,0.5c-3.8,1-7.4,3-11.4,3.3c-3.8,0.2-6.1,2.9-8.5,5.3c-1.2,1.4-2.7,2.5-4.4,3.3c-2.5,2.5-5.3,4.6-7.3,7.5
			c-0.8,1.4-1.7,2.7-2.8,4c-0.3,0.4-0.5,0.8-0.8,1.2c-0.8,1.7-1.8,3.3-3.1,4.7c-1.1,1.4-1.9,3-2.4,4.6c-0.7,3.9-2.7,7.4-3.1,11.3
			c-0.2,1.1-0.6,2.2-0.5,3.4c0.3,5.9-0.7,11.8,0.5,17.7c0.4,1,0.7,2.1,1.1,3.1c0.3,3.8,1.9,7.1,3.2,10.5l4.2,8.4
			c0.1,0.7,0.4,1.3,0.9,1.9c1.4,1.5,2.6,3.2,3.5,5.1c2.1,2.8,4.3,5.5,7.5,7.1c2.1,0.2,2.6,2.2,3.9,3.3c1.4,1,2.9,1.7,4.4,2.4
			c2.3,0.7,4.5,1.9,6.8,2.7c2.2,0.7,4.4,1.5,6.5,2.2c2.1,0.7,4.3,1.2,6.4,1.8c5.2,0.5,10.5,0.4,15.8,0c4.7-1.3,9.8-1.3,14.1-3.9
			c2.9-1,5.6-2.5,8.3-3.9c6.6-4.7,13.4-9.3,17.8-16.4c5.6-7.9,8.8-16.8,10.5-26.3c0.7-6.7,0.5-13.3-1.2-19.9
			C616.8,17.9,616,15,614.8,12.3z"/>
		<path class="st1" d="M502.9,23.7c0.4,0,0.7,0,1.1,0c0,6.3,0,12.6,0,18.9c-0.4,0-0.7,0-1.1,0C502.9,36.3,502.9,30,502.9,23.7z"/>
		<path class="st2" d="M505,45.7c1.3,3.4,2.9,6.8,3.2,10.5C506.1,53.1,504.1,49.9,505,45.7z"/>
		<path class="st3" d="M554.4,75.3c-13.1-2.3-22.9-9.5-29.9-20.6c-0.9-1.5-1.7-3-1.5-4.8c-1.7-3.9-2.4-7.9,0.1-11.8
			c1.9-2.1,4.3-2.2,6.8-2.2c3.9,0.8,7.8-2,11.7,0.2c2.4,1.6,2.4,4.9,4.7,6.7c2.3,2.3,4.8,4.5,7.4,6.5c0.7,0.7,1.1,1.5,1.5,2.5
			c1.4,3.1,5,5,4.8,9c0.1,4.6,0.1,9.1,0.1,13.7C558.5,76.7,556.4,75.7,554.4,75.3z"/>
		<path class="st4" d="M562.1-7.8c16,1.2,28.3,8.1,35.5,22.8c0.6,1.6,0.6,3.4,1.4,5c0.1,0.5,0.2,1,0.2,1.5c-0.5,1.6-0.2,3.9-2.3,4.3
			c-1.9,0.3-2.8-1.7-4-3c-1.6-1.8-2.4-4.4-5.4-4.6c-2.2-0.6-3.8-1.1-3.8-4.3c0-3.3-3.6-6.1-2.8-9.9c-0.6-0.8-1.3-0.7-2.1-0.4
			c-1.2,0.6-2.5,0.6-3.8,0.6c-1.7,0.3-2,1.5-2.1,2.9c-0.2,1.3-1.1,2.4-1,3.8c1,1.5,2.6,0.3,3.8,0.7c2.2,3.1,2.7,7.2,5.9,9.6
			c1.6,3.7,4.9,5.8,7.9,8.1c0,0.6-0.3,1-0.8,1.3c-1.8,0.9-3.8,0.7-5.7,0.8c-1.4,0-2.7-0.1-4-0.7c-1.6-1-1.6-3.1-2.9-4.3
			c-1.1-1.8-2-3.7-3.4-5.4c-1.1-1.7-2.9-2.4-4.6-3.1c-2.1-1.4-4.9-0.9-6.8-2.8C560.1,7.4,558.8-0.3,562.1-7.8z"/>
		<path class="st5" d="M530.2,5.6c6.7-6.1,13.9-11.2,23.2-12.4c1.8,1.3,4.2-0.8,5.8,1.2c1.6,5.3,0.8,10.7,0.6,16
			c-0.1,2.3-1.4,3.6-3.8,2c-1.1-0.8-1.7-2-2.2-3.2c-0.5-1.2-1.4-2.2-2.5-2.9c-0.5-0.3-1-0.7-1.5-1.1c-0.5-0.4-1-0.7-1.6-1
			c-1.8-0.5-3.2,0.3-4.6,1.1c-1.1,0.7-2.3,1.4-3.4,2.2c-1.5,1-3,1.9-4.2,3.3c-1.8,2-1.2,4.4-1.1,6.7c-0.1,1.5-0.7,2.8-1.9,3.7
			c-2,1.3-1.9,3.5-2.1,5.6c-0.9,2.5-3.2,2.4-5.2,2.8c-2-0.1-3-1.5-3.6-3.2c-0.2-3.5,1-6.8,1.8-10.2c0.3-1,0.7-2.1,1-3.1
			C525.4,9.8,527,7.1,530.2,5.6z"/>
		<path class="st6" d="M577.6,72.1c-3.2,2-6.8,2.9-10.6,3c-3.4-0.3-4.6-2.3-4.5-5.5c0-5.4,0-10.7,0.3-16.1c-0.2-0.5-0.2-1-0.2-1.5
			c0.8-1,2.1-1.3,3.2-1.9c3.1-1.4,5.9-3.1,8-5.7c1-1.2,2.1-2.4,3.9-2.2c5.4,2.1,5.9,3.1,4.3,8.7c-1.7,1.8-4.3,0.9-6.3,2
			c-0.4,0.3-0.8,0.6-1.1,0.8c-2.2,1.6-3.6,3.4-2.6,6.3c0.7,1.9,2.7,2.9,3.4,4.8c0.5,1.2,1,2.4,1.7,3.5
			C577.9,69.5,578,70.8,577.6,72.1z"/>
		<path class="st7" d="M518.7,38.4c-2.3,2.8-0.5,5.6,0.1,8.4c0.3,1.3,1.6,2.7,0,3.8c-1.3,0.9-2.6,0.2-4-0.4
			c-4.9-2.2-7.6-5.9-7.7-11.3c-0.1-4-0.2-8,0-12.1c0.1-2.2,0-5.8,2.8-5.6c3,0.2,8-0.5,7.7,5.4c0,0.7,0.6,1.5,1,2.3
			C520.1,32.1,518,35.2,518.7,38.4z"/>
		<path class="st8" d="M530.2,5.6c-1.8,2.5-3.5,5-5.3,7.5c-1,0.3-2.5,0.4-2.8,1c-2.9,6.4-7.1,1.9-9.3,0.3c-4.3-3,1.3-5.3,2.1-8
			c0.5-1.5,2.4-2.8,2.9-5c0.8-3.2,4.1-3.2,6.3-2C526.6,0.8,529.3,2.4,530.2,5.6z"/>
		<path class="st9" d="M577.6,72.1c-0.4-1.1-0.7-2.1-1.1-3.2c0.1-0.5,0.1-1.1,0.5-1.4c6.1-4.4,10.8-10.4,17-14.6
			c1.2-0.3,1.9,0.4,2.4,1.3c-0.9,6.3-5.9,9.5-10.2,13.2C583.7,69.4,581,71.4,577.6,72.1z"/>
		<path class="st10" d="M598.7,51c-0.4,0.3-0.7,0.7-1.1,1c-2.9-4.5-7.2-7.8-10.4-12c-0.7-0.9-0.9-1.9-0.3-3c0.4-0.4,0.9-0.6,1.4-0.8
			c2.8-0.6,5.6-0.1,8.2,0.9c1.3,0.6,2.5,1.4,3.4,2.6c0.3,0.5,0.5,1,0.7,1.6C600.8,44.7,599.4,47.8,598.7,51z"/>
		<path class="st11" d="M523.9,38.4c-2.1,3.7-0.7,7.7-1,11.5c-3.1-2-2.9-5.3-3.2-8.4c-0.8-2.2-0.6-4.3-0.1-6.5
			c6.7-2.5,13.6-0.9,20.4-1c0.6,0.1,1.2,0.4,1.7,0.8c0.7,0.8,0.7,1.6,0.1,2.5c-3.9-2.3-7.8,1-11.7-0.1
			C527.9,36.7,525.6,35.9,523.9,38.4z"/>
		<path class="st12" d="M588.1,39.4c3.1,2.7,5.1,6.4,8.6,8.7c1.3,0.9,0.7,2.5,0.8,3.9c-0.4,0.7-0.8,1.4-1.2,2.1
			c-0.7-0.3-1.3-0.7-2-1c-3.3-0.2-3.4-3.8-5.7-5.1c-0.4-0.3-0.7-0.6-1-1c-0.7-1-1.1-2.1-1.2-3.2C586.4,42.1,586.1,40.3,588.1,39.4z"
			/>
		<path class="st13" d="M582.9,30.1c2,0,4.1-0.1,6.1-0.1c1.3-1.3,3.3-1.2,4.8-2c3.3-0.8,4.7-3.1,4.7-6.3c0-0.4,0-0.7,0-1.1
			c-0.6-1.1-0.8-2.3,0.2-3.3c1.9,2.5,2.8,5.5,3,8.6c-0.5,6.4-0.7,6.6-7.5,6.7c-2.4,0-4.9,0.1-7.3-0.1
			C585.2,32.3,583.2,32.5,582.9,30.1z"/>
		<path class="st14" d="M588.2,37.3c-0.4,0.1-0.8,0.1-1.1,0.2c-2.6,1.7-5,1.2-7.3-0.7c-0.4-0.5-0.5-1.1-0.2-1.7
			c0.5-0.4,1-0.7,1.6-0.9c5.7-0.7,11.5-0.2,17.2-0.3c1.6,0,3.1,0.3,4.3,1.5c0.5,2.9-0.7,5.5-1.1,8.3c-2.7,0.3-0.6-2.6-2.1-3.1l0,0
			c-0.7-1.6-1.9-2.7-3.6-3C593.4,36.6,590.8,36.4,588.2,37.3z"/>
		<path class="st15" d="M519.7,35.2c0,2.1,0,4.2,0,6.3c-1.2-0.8-1-2-1-3.2c-3.2-3.1,0-6.3,0-9.4c0-0.8,0.2-1.6,1-2.1
			c0.9,0.6,1.1,1.6,1.4,2.6c0.2,0.7,0.4,1.4,1,1.9c6.6,0.9,13.3,0.2,19.9,0.3c1.7,1.3,2.7,2.5-0.2,3.6l0,0
			C534.4,34.3,527.1,34.4,519.7,35.2z"/>
		<path class="st13" d="M582.9,30.1c5.1,2.1,10.5,0.7,15.7,0.8c3.4,0.1,1.1-4,3.1-5.1c0.5,2,1.4,4,1,6.2c-2.7,2.4-6,1.4-9.1,1.5
			c-4,0.1-8,0.1-12.1,0c-0.6,0-1.2-0.2-1.8-0.3c-0.6-0.2-1-0.6-1.4-1c-0.3-0.9-0.4-1.7,0.7-2.2C580.3,29.9,581.6,30,582.9,30.1z"/>
		<path class="st16" d="M519.8,30c0-1.1-0.1-2.1-0.1-3.2c0.4-0.7,0.7-1.5,1.1-2.2c1.3,0.2,1.4,1.7,2.5,2.1c0.8,0.9,1.1,2.5,2.9,1.9
			c1.8,0.1,4-1.5,5.4,1c-1.1,1.7-3,1.7-4.6,2.2C524.4,31.8,521.5,33.1,519.8,30z"/>
		<path class="st17" d="M554.4,75.3c1.7-0.7,3.9,1,5.2-1.2c-0.9-4.8-0.2-9.6-0.4-14.4c0.3-2.2-1.5-4.5,0.3-6.7
			c0.7-0.3,1.3-0.1,1.8,0.5c1.1,7.6,2.3,15.2-0.7,22.7C558.5,76.1,556.3,76.9,554.4,75.3z"/>
		<path class="st7" d="M562.1-7.8c0.1,7.7-1.2,15.5,0.7,23.1c0.3,0.6,0.2,1.1-0.3,1.5c-1.7,0.9-3.4,0.9-4.9-0.3
			c-0.5-1.5,0.7-2.1,1.5-2.9c1.3-5.1,0.3-10.3,0.6-15.5c0.1-2-0.5-4.2,0.9-6C561.1-7.8,561.6-7.8,562.1-7.8z"/>
		<path class="st18" d="M562.9,53.1c0.8,0.2,2.5-0.1,2.1,0.8c-2.3,5.2-0.3,10.7-1.1,16c-0.4,2.8,1,4.1,3.2,5.2
			c-0.6,0.1-1.2,0.2-1.9,0.2c-3,1-3.3-1.2-3.3-3.1c0-6.1-0.5-12.2,0.4-18.3C562.5,53.6,562.7,53.4,562.9,53.1z"/>
		<path class="st19" d="M578.6,32.1c0.3,0,0.7,0,1,0.1c5.8,1.1,11.7,0.2,17.6,0.5c1.9,0.1,3.8-0.4,5.6,0.4c0,0.4,0,0.8,0,1.2
			c-5.8,1-11.7,0.1-17.5,0.5c-1.8,0.1-3.8-0.6-5.5,0.6l-0.1-0.1c-0.5,0.4-1,0.3-1.4-0.1C577.7,34,577.7,33,578.6,32.1z"/>
		<path class="st20" d="M560.6,76.2c0-7.7,0.1-15.4,0.1-23.1c0.3-1.9,1.3-1.8,2.6-0.9c-0.1,0.3-0.2,0.6-0.3,0.9c0,0-0.1,0-0.1,0
			c-1.2,7.6-0.1,15.3-0.6,23C561.7,76.1,561.1,76.2,560.6,76.2z"/>
		<path class="st21" d="M562.2,76.1c-0.3-7.7-1.5-15.4,0.6-23c0,5.9,0,11.8,0,17.8c0,1.9-0.5,4,2.3,4.5
			C564.2,75.6,563.2,75.8,562.2,76.1z"/>
		<path class="st22" d="M579.8,35.3c3.9-2.3,8.1-0.8,12.1-1.1c3.6-0.3,7.3,0,10.9,0c0,0.4-0.1,0.7-0.1,1.1
			C595.1,35.3,587.4,35.3,579.8,35.3z"/>
		<path class="st23" d="M560.6-7.8c0,6.4,0.1,12.9,0.1,19.3c0,1.3,0.5,2.9-1.2,3.6c-0.8-7,0-14-0.4-20.9c-0.1-0.7,0-1.3,0.3-1.8
			C559.9-7.7,560.2-7.8,560.6-7.8z"/>
		<path class="st24" d="M602.8,33.1c-7.7-0.5-15.5,1.3-23.2-0.9c7.7,0,15.4-0.1,23.1-0.1C602.7,32.4,602.8,32.7,602.8,33.1z"/>
		<path class="st25" d="M519.7,76.2c-1.4-1.6-2.9-3-3.2-5.3c0.3-0.4,0.7-0.4,1,0c2,2.9,4.5,5.3,7.4,7.4c1.1,0.8,2.7,1.3,2.1,3.2l0,0
			C522.8,82.3,522,78.3,519.7,76.2z"/>
		<path class="st26" d="M523.2,26.8c-1.3-0.2-2-0.9-2.5-2.1c0.2-3.1,0.9-6,3.1-8.4C523.6,19.8,523.4,23.3,523.2,26.8z"/>
		<path class="st27" d="M569.1,89.9c-2.7,2.3-6,0.7-8.9,1c-3,0.3-5.9,0.1-8.9,0.1c-0.3-0.2-0.4-0.5-0.3-0.7c0.1-0.2,0.2-0.4,0.3-0.4
			C557.2,89.9,563.2,89.9,569.1,89.9z"/>
		<path class="st28" d="M576.5-22.6c4.6,1.2,9.2,2.5,12.8,6c-4.3-1.7-8.5-3.3-12.8-5c-0.4-0.2-0.5-0.5-0.4-0.7
			C576.3-22.5,576.4-22.6,576.5-22.6z"/>
		<path class="st23" d="M599.6,40.5c0.7,1,1.4,2,2.1,3.1c-0.5,2.7-0.9,5.4-3,7.5C598,47.5,599.8,44.1,599.6,40.5z"/>
		<path class="st2" d="M505,21.6c-1.6-4.6,1.1-8,3.2-11.6C508.1,14.1,505.7,17.6,505,21.6z"/>
		<path class="st29" d="M568.3-24.5c-0.3,0-0.6-0.1-0.9-0.1c-4.6,0-9.3,0-13.9,0c-0.1,0-0.2,0.1-0.3,0.3c-0.1,0.2,0,0.5,0.3,0.7
			c4.9,0,9.8,0,14.7,0c0.1,0,0.2-0.1,0.4-0.3C568.6-24.2,568.5-24.4,568.3-24.5z"/>
		<path class="st2" d="M536.6-19.4c3.2-2.3,7.2-2.4,10.5-4.2c0.4,0.2,0.5,0.5,0.4,0.7c-0.1,0.2-0.2,0.4-0.4,0.4
			C543.8-20.9,540.5-19.1,536.6-19.4z"/>
		<path class="st30" d="M601.2-9.1c-1-0.8-2.3-1.5-3.7-2l0,0c2,2.9,4.5,5.3,7.4,7.4l0,0c-0.5-1.6-1.3-2.9-2.3-4.1
			C602.2-8.2,601.7-8.6,601.2-9.1z"/>
		<path class="st28" d="M569.3-24.4c-0.4-0.1-0.8-0.1-1.2-0.2c0,0.3,0,0.6,0,0.9c2.8,0.7,5.6,1.4,8.4,2.1c0-0.3,0-0.7,0-1
			C574.1-23.2,571.7-23.8,569.3-24.4z"/>
		<path class="st2" d="M547.1-22.6c0-0.3,0-0.7,0-1c1.5,0.1,2.9-0.3,4.2-1.1c0.7,0,1.4,0,2.1,0c0,0.3,0,0.7,0,1
			C551.6-21.8,549.2-22.9,547.1-22.6z"/>
		<path class="st31" d="M546,88.9c-1.1,0-2.1,0-3.2,0c-1.1-0.7-2.1-1.4-3.2-2.1c-0.4-0.2-0.5-0.4-0.4-0.7c0.1-0.2,0.2-0.3,0.4-0.3
			c2.1,0.7,4.2,1.4,6.3,2.1c0.3,0.2,0.4,0.5,0.3,0.7C546.2,88.8,546.1,88.9,546,88.9z"/>
		<path class="st1" d="M539.7,85.8c0,0.3,0,0.7,0,1c-2.9,0-5.3-1.2-7.4-3.2C535.1,83.2,537.1,85.5,539.7,85.8z"/>
		<path class="st32" d="M559.5-7.7c0,0.3,0,0.6-0.1,0.9c-0.1,0.5-0.3,0.8-0.8,1c-1.8-0.2-3.7,0.7-5.2-1C555.4-7,557.5-7.4,559.5-7.7
			z"/>
		<path class="st1" d="M517.6,71c-0.3,0-0.7,0-1,0c-1.4-1.6-3-3-3.2-5.3C515.7,66.8,516.6,68.9,517.6,71z"/>
		<path class="st28" d="M510.3,5.8c0.3-2.2,1-4.2,3.2-5.3C513.1,2.7,512.4,4.7,510.3,5.8z"/>
		<path class="st33" d="M546,88.9c0-0.3,0-0.7,0-1c1.5,1.3,3.9,0.4,5.3,2.1c0,0.4,0,0.7,0,1.1C549.8,89.6,547.4,90.5,546,88.9z"/>
		<path class="st34" d="M604.9-3.7c1.4,0.7,2.4,1.7,3.4,4.1C605.9-0.8,605-1.8,604.9-3.7C604.9-3.7,604.9-3.7,604.9-3.7z"/>
		<path class="st34" d="M527.1,81.5c-0.7-1.1-1.4-2.1-2.1-3.2c2.5-0.4,2.8,1.4,3.2,3.2C527.8,81.5,527.5,81.5,527.1,81.5z"/>
		<path class="st30" d="M513.4,0.5c0.1-2.1,1.5-3.3,3.2-4.2C516.5-1.6,515.1-0.4,513.4,0.5z"/>
		<path class="st30" d="M597.5-11c-1.7-0.1-2.8-0.9-3.8-2.8C595.9-13.7,596.8-12.4,597.5-11C597.6-11,597.5-11,597.5-11z"/>
		<path class="st28" d="M523.9-11c1-1.7,2.1-3.1,4.3-3.2C527.2-12.5,526.1-11.1,523.9-11z"/>
		<path class="st35" d="M598.8,17.2c-0.1,1.1-0.1,2.2-0.2,3.3c-1.7-1.6-0.8-3.6-0.9-5.5C598,15.8,598.4,16.5,598.8,17.2z"/>
		<path class="st36" d="M578.6,32.1c0,1.1,0,2.1,0,3.2c0.7,1.4,0.3,2.8-0.1,4.2c-0.2,0.5-0.5,0.8-0.8,1.2c-3.5,0.1-5.7-1.8-7.1-4.8
			c-1.2-2-2.5-3.8-4.1-5.5c-1.1-1.5-2.7-2.3-4.2-3.3c-0.2-0.1-0.3-0.3-0.5-0.4c-0.3-0.3-0.6-0.5-0.9-0.8c-0.5-0.3-1.1-0.2-1.6,0.1
			c-1.2,1-1.8,2.5-2.7,3.8c-1.5,3.7-1.1,7.4-0.4,11.2c0.6,1.7,1.7,3.1,2.6,4.5c1.1,1.9,2.5,3.7,0.8,6c-2.5,1.4-4.3-0.4-6.3-1.2
			c-3.1-1.5-5.5-3.7-7.5-6.5c-3.6-3.7-2.1-8.5-3-12.8c-0.3-2.5,1.1-4.6,1.9-6.8c0.2-0.5,0.4-0.9,0.7-1.3c1.1-1.3,2.6-2.1,3.8-3.2
			c0.3-0.3,0.7-0.5,1.1-0.8c1.4-0.7,2.7-1.5,3.9-2.5c1.1-0.6,2.2-0.9,3.2,0.2c1.8,0,3.7-0.1,5.5-0.1c1.7-0.2,3.3,0.3,5,0.7
			c1.8,1.1,3.8,2,5.5,3.3c2.1,1.2,2.8,3.2,3.4,5.4C578.5,27.4,577.6,30.1,578.6,32.1C578.6,32.1,578.6,32.1,578.6,32.1z"/>
		<path class="st37" d="M536.7,45.6c0.5,0.1,1,0.2,1.5,0.2c0.7,0.2,1.3,0.4,1.9,0.7c1.8,1.1,3.1,2.7,4.5,4.3c0.7,1.2,1.9,2,2.5,3.3
			c-0.7,1.3-1.2,2.7-1.1,4.2c-0.4,0.3-0.8,0.4-1.3,0.3c-1.7-0.8-3.3-1.8-4.4-3.4c-0.7-1.5-1.6-2.8-2.9-3.8c-0.7-0.9-1.2-2-1.8-3
			c-0.4-0.6-0.6-1.3-0.5-2.1C535.4,45.6,535.8,45.1,536.7,45.6z"/>
		<path class="st38" d="M543.7,29.9c-0.3,4.7,0.5,9.3,2.1,13.7c-3.3-0.9-2.7-4.2-4-6.3c0-0.7,0-1.4,0-2.1c1.3-1,1.3-2,0.1-3.1
			c-0.4-0.3-0.7-0.6-0.9-1.1c-0.1-0.5-0.2-0.9-0.1-1.4c0.2-1,0.5-1.8,1.7-2C543.7,28,543.2,29.3,543.7,29.9z"/>
		<path class="st32" d="M559.6,53.2c0,2.1,0,4.2,0,6.2c-0.3,0.5-0.6,0.5-0.9,0c0.2-3.4-4.6-3.9-4.1-7.4
			C556.6,50.7,558.1,51.8,559.6,53.2z"/>
		<path class="st39" d="M547.2,60.5c2-0.9,3.7-0.4,5.2,1c-0.3,3.4-2.2,4.2-5.2,3.2l-0.1-0.1c-0.3-0.4-0.5-0.8-0.7-1.2
			c-0.7-1-1.3-2-0.4-3.2C546.4,60,546.8,60.1,547.2,60.5z"/>
		<path class="st30" d="M559.6,53.2c-1.7-0.4-3.4-0.8-5.1-1.2c-0.4-0.6-0.7-1.2-1.1-1.9c2.2-0.6,4.1,1.5,6.3,0.7
			c2.2-1.5,4.4-1.7,6.6,0.1c-0.6,1.4-1.8,1.4-3.1,1.3c-1-0.1-1.9-0.1-2.6,0.9C560.3,53.2,560,53.2,559.6,53.2z"/>
		<path class="st40" d="M547.1,64.7c2.1-0.4,4.1-1.1,5.2-3.2c0.3,0.4,0.7,0.7,1,1.1c-0.5,3-2.1,4.9-5.3,5.3
			C546.9,67.1,547.1,65.9,547.1,64.7z"/>
		<path class="st32" d="M558.7,59.4c0.3,0,0.6,0,0.9,0c0,4.9,0,9.8,0,14.7C557.6,69.3,559.1,64.3,558.7,59.4z"/>
		<path class="st41" d="M548.1,67.8c2.2-1.3,3.9-3.1,5.3-5.3c1.9,3.5-1.9,4.4-3.1,6.4C549.6,70.1,548.6,68.7,548.1,67.8z"/>
		<path class="st42" d="M547.1,54.2c-2.2,0.1-3.2-1-3.3-3.1c-0.5-1.2-0.5-2.1,1.1-2.3C545.8,50.5,548.7,51.4,547.1,54.2z"/>
		<path class="st43" d="M547.2,60.5c-0.3,0-0.6,0.1-0.9,0.1c-0.5,0.4-1,0.4-1.4,0c-0.4-2.5-5.9,4.2-4.1-2.3c1.5-1.5,3,0,4.4,0
			c0.3,0,0.6,0,0.9,0.1C546.9,58.8,547,59.7,547.2,60.5z"/>
		<path class="st44" d="M545.1,58.3c-1.5,1.9-3-0.4-4.4,0c0,0-0.5,0-0.5,0l-0.5,0c-0.6-0.8-0.2-1.5,0.2-2.3c0.1-0.2,0.2-0.3,0.4-0.5
			c0.2-0.1,0.3-0.2,0.5-0.3C542.6,55.8,544.3,56.4,545.1,58.3z"/>
		<path class="st45" d="M544.8,48.8c-0.4,0.8-0.7,1.5-1.1,2.3c-1.4-1.3-2.8-2.7-4.2-4c1.4-1.2,2.9-1.1,4.4-0.1
			C544.2,47.6,544.5,48.2,544.8,48.8z"/>
		<path class="st46" d="M540.7,56.3c-0.3,0.7-0.7,1.4-1,2.1c-0.4,0-0.7,0.1-1.1,0.1c-1.1,0.3-1.8-0.2-2.3-1
			c-0.3-0.6-0.4-1.3-0.2-1.9c0.7-1,1.9-0.5,2.9-0.8c0.2,0,0.4,0.1,0.6,0.1c0.2,0.1,0.3,0.3,0.5,0.4
			C540.2,55.6,540.5,55.9,540.7,56.3z"/>
		<path class="st47" d="M533.4,55.2c-0.4-1.4-0.7-2.8-1.1-4.1c0.2-0.2,0.3-0.3,0.5-0.5c0.7-0.3,1.4-0.2,2,0.1
			c0.6,0.4,1.1,0.9,1.3,1.6c0.2,0.7,0.1,1.4-0.2,2.1C535.2,55.2,534.5,55.8,533.4,55.2z"/>
		<path class="st48" d="M536.7,45.6c-0.4,0.4-0.8,0.7-1.2,1.1c-1.7,0.9-3.2,0.7-4.5-0.7c-0.2-0.5-0.1-0.9,0.3-1.2
			C533.2,44.5,535.1,44.1,536.7,45.6z"/>
		<path class="st49" d="M531.3,44.8c0,0.3,0,0.7,0,1c0.9,1.6,2.6,3.1,1.1,5.2c0,0-0.1,0.1-0.1,0.1c-0.7-0.4-1.3-0.8-2-1.1
			c-0.8-1.8-0.9-3.5,0.1-5.2C530.7,44.7,531,44.7,531.3,44.8z"/>
		<path class="st50" d="M533.4,55.2c0.7-0.3,1.3-0.6,2-1c0.7,0,1,0.4,1.1,1.1c0,0.6,0,1.3,0,1.9c-0.2,0.4-0.6,0.5-1,0.2
			C534.3,57.2,533.1,56.9,533.4,55.2z"/>
		<path class="st51" d="M523.9,38.4c1.5-3.7,3.9-2.2,6.2-1.1C528.1,37.4,525.9,37.3,523.9,38.4z"/>
		<path class="st5" d="M530.3,44.7c0,1.7,0,3.5-0.1,5.2C528.4,48.2,528.9,46.4,530.3,44.7z"/>
		<path class="st52" d="M535.5,57.4c0.3-0.1,0.6-0.2,1-0.2c0.7,0.4,1.4,0.9,2.1,1.3c-0.3,0.8-0.8,1.6-1.7,1.3
			C535.7,59.5,535.6,58.5,535.5,57.4z"/>
		<path class="st53" d="M543.9,46.9c-1.5,0-2.9,0.1-4.4,0.1c-0.4-0.4-0.9-0.8-1.3-1.2C540.2,46,542.3,44.9,543.9,46.9z"/>
		<path class="st54" d="M544.8,60.6c0.5,0,1,0,1.4,0c-0.4,1.2,0.6,2,0.9,3c-0.2,0.2-0.5,0.4-0.9,0.4
			C544.9,63.3,545.1,61.8,544.8,60.6z"/>
		<path class="st40" d="M546.2,64.1c0.3-0.2,0.6-0.3,0.9-0.4c0,0.3,0,0.6,0,0.9C546.7,64.6,546.4,64.4,546.2,64.1z"/>
		<path class="st37" d="M580.8,21.5c-2.7-2.6-5.5-5.2-5.3-9.4c-0.4-0.3-0.5-0.7-0.5-1.2c0.4-1.6,2.6-1.5,3.1-3.1
			c1-1.3,2.1-2.6,2.1-4.3c0.3-0.6,0.6-1.3,1.5-0.7c-1.7,4.9,5.1,7.7,3.3,12.7c-0.1,0.3,1.9,1.3,2.9,2c1,0.3,1.9,1,2.2,2
			c0.7,2.4,2.5,5.4-0.1,7.2c-2.2,1.5-4.5-0.6-6.3-2.2C582.6,23.5,581.7,22.5,580.8,21.5z"/>
		<path class="st51" d="M580.8,21.5c3.6,0.3,5.1,4.7,9.2,4.7c-0.1-3-0.6-5.9-2.1-8.7c1.4-0.8,2.4-0.7,3.4,0.9
			c1.5,2.4,3.4,4.6,5.2,6.9c1.7-1,0.6-3,2.1-3.6c0.8,3.7-0.5,6.2-4.2,7.4c-1.7,0.7-3.4,0.7-5.1,0C584.2,29,582.4,25.3,580.8,21.5z"
			/>
		<path class="st55" d="M578.7,7.9c0.9,3.2-2.3,1.9-3.3,3.1c-1.6,1.4-3.3,1.9-5,0.1c-0.5-1.9,1.5-2.7,1.7-4.3c0.9-0.8,2-1,3.1-1.4
			c1-0.2,1.8,0.2,2.5,0.8C578.3,6.7,578.6,7.2,578.7,7.9z"/>
		<path class="st56" d="M575.5,5.7c-0.6,1.9-1.9,1.8-3.4,1.1c-1.3-3.5,0.3-4.4,3.5-3.9C576.2,3.9,576.4,4.8,575.5,5.7z"/>
		<path class="st15" d="M567.7,17.5c-1.6-0.4-3.2-0.9-4.8-1.3c0-0.3,0-0.6,0-0.9c2.4-0.3,4.6,0.4,6.5,2
			C568.8,17.8,568.3,17.9,567.7,17.5z"/>
		<path class="st57" d="M575.5,5.7c0-0.9,0.1-1.8,0.1-2.8c1.1,0.5,2.1,0.2,3-0.5c0.4,0.4,0.6,0.8,0.6,1.3c-0.1,1.3-0.5,2.4-1.8,3
			C576.8,6.4,576.2,6.1,575.5,5.7z"/>
		<path class="st28" d="M570.4,11.1c1.7,0.4,3.4,0.4,5-0.1c0,0.3,0.1,0.7,0.1,1C573.6,12.8,571.5,15.1,570.4,11.1z"/>
		<path class="st7" d="M567.7,17.5c0.6-0.1,1.1-0.1,1.7-0.2c1.5,0.8,3.8,0.5,4,3C570.9,20.4,569.5,18.6,567.7,17.5z"/>
		<path class="st30" d="M578.6,32.1c-0.6-2.2-1.3-4.4-1.9-6.5c2.4,0.5,2,2.6,2.3,4.2C578.9,30.6,578.7,31.4,578.6,32.1z"/>
		<path class="st58" d="M578.6,3.6c0-0.4,0-0.8,0-1.2c1.2-1.3,2.2-1.1,3.1,0.3c-0.3,0.3-0.6,0.6-0.9,0.9
			C580,4.3,579.3,4.3,578.6,3.6z"/>
		<path class="st22" d="M589.3,29c1.7,0,3.4,0,5.1,0c-1.6,1.7-3.6,0.8-5.4,0.9C589.1,29.6,589.2,29.3,589.3,29z"/>
		<path class="st59" d="M542.9,28c-0.3,0.7-0.7,1.4-1,2c-1.6,1.3-3.4,1.4-5.3,1.4c-1.9-0.1-3.8,0.2-5.3-1.4
			c-1.4-1.6-3.5-0.6-5.2-1.3c1-1.5,4,0,4.1-2.8c0.8-1.7,0.8-3.8,2-5.3c0.7-1,1.5-1.9,2.2-2.9c0.1-0.2,0.2-0.4,0.4-0.6
			c2.3-0.6,4.6,0.3,6.9-0.5c0.5,0,1,0,1.4,0.1c1.8,0.6,3.9,0.6,5.2,2.4c0.6,1.9-1.1,2.5-2.1,3.5c-0.1,0.4-0.2,0.7-0.3,1.1
			C544.8,25,544.6,27,542.9,28z"/>
		<path class="st60" d="M548.2,19.5c-1.5-1.4-4-0.4-5.4-2.3c0-2.2,2.1-2.1,3.2-3.1c0.3-0.2,0.7-0.5,1-0.7c0.7-0.5,1-1.2,1.4-1.9
			c0.2-0.4,0.5-0.7,0.9-0.9c0.4-0.1,0.9-0.1,1.3-0.1c1.5,0.4,3.1-0.2,4.6,0.4c2.1,1.5,3.5,2.1,3.4-1.6c-0.2-5-0.1-10.1-0.1-15.1
			c0.3-0.3,0.5-0.7,0.8-1c0,7.3,0.1,14.6,0.1,21.9c-0.9,0.1-1.8,0.1-2.1,1.2c-1.2,0-2.4-0.2-3.2,1c-1.6,0.2-2.9,1-4,2.1l0.1-0.1
			C549.6,20.1,548.9,20.1,548.2,19.5z"/>
		<path class="st61" d="M555.3,11c-1.7,0.9-3.3,2.1-5.1,0.3c-0.6-0.7-0.8-1.5-0.7-2.4c0.1-0.6,0.4-1.1,0.9-1.4
			c1.5-0.7,2.8-0.5,4,0.6C554.7,9,555,10,555.3,11z"/>
		<path class="st34" d="M534.5,17.6c-1.7-2.9-2.1-5.5,1.2-7.6c2.6-0.2,2.6-0.1,2,4c-0.4,1.7-1.7,2.6-3.2,3.2L534.5,17.6z"/>
		<path class="st38" d="M536.5,14.2c-0.8-1.3,2-3.3-0.9-4.1c0.8-1.8,2.6-2.3,4.1-3.2c0.2,0.2,0.3,0.4,0.5,0.6
			c0.6,2.3,0.5,4.5-0.6,6.6C538.7,15.8,537.6,15.9,536.5,14.2z"/>
		<path class="st62" d="M539.7,6.9c0.7-1.3,2-1.6,3.1-2.2c1.2-0.6,2.1,0.1,3,0.8c0.3,0.4,0.4,0.8,0.5,1.3c-0.1,1.2-0.3,2.3-1,3.2
			c-0.4,0.3-0.8,0.4-1.3,0.4c-0.7-0.2-1.3-0.5-1.9-0.9c-1-0.6-1.8-1.5-2.4-2.5L539.7,6.9z"/>
		<path class="st2" d="M532.2,20.6c0.4,2.2-0.3,3.9-2,5.3C530.1,23.8,528.7,21.3,532.2,20.6z"/>
		<path class="st63" d="M546,5.8c-1.3,0.3-2.2-0.5-3.1-1.1c1.9-1.5,3.8-3.3,6.3-1c-0.2,0.3-0.5,0.6-0.8,0.7
			c-0.5,0.3-0.9,0.5-1.4,0.8c-0.1,0.1-0.3,0.2-0.4,0.3C546.3,5.7,546.2,5.7,546,5.8z"/>
		<path class="st59" d="M554.4,8.1c-1.4,0-2.7,0-4.1,0c-0.3-0.3-0.5-0.7-0.4-1.2c0.2-0.4,0.5-0.7,0.8-1c0.2,0,0.4-0.1,0.6-0.1
			C552.9,5.8,554,6.5,554.4,8.1z"/>
		<path class="st64" d="M549.9,4.6c0.5,0.4,1,0.8,1.5,1.2c0,0-0.3,0.1-0.3,0.1c-0.6,0.4-1.2,0.5-1.9,0.5c-0.4-0.1-0.8-0.3-1.1-0.7
			c-0.2-0.4-0.2-0.8,0-1.3C548.7,4.2,549.3,4.2,549.9,4.6z"/>
		<path class="st65" d="M549.9,4.6c-0.6,0-1.2,0-1.8,0.1c-0.3-0.2-0.4-0.4-0.3-0.7c0.1-0.2,0.2-0.3,0.3-0.3c0.3,0,0.7,0,1,0
			C549.4,4,549.6,4.3,549.9,4.6z"/>
		<path class="st66" d="M566.3,51c-2.2,0-4.4-0.1-6.6-0.1c0.4-2.2-1.2-3.5-2.1-5.1c0.8-1.1,2.6-0.6,3-2.3c0.9-0.9,2.1-1.4,3-2.3
			c0.6-0.6,1.3-1.1,1.7-1.9c0.9-1.9,0.2-4.1,0.8-6.1c0.2-0.5,0.4-0.9,0.8-1.2c2.2-0.3,2.1,1.3,2.2,2.6c0.2,2.1,1.5,0.1,2.2,0.6
			c1.2,2.7,3.8,3.8,6.1,5.3c0.8,0.6,0.8,1.3,0.2,2C573.9,45.5,571.6,50.2,566.3,51z"/>
		<path class="st67" d="M574.5,65.6c-0.3-2.2-3.2-2.6-3.3-4.9c-0.9-1.7-0.4-3.2,0.8-4.6c2-1.6,4.7-0.7,6.9-1.6
			c0.5-0.2,1-0.4,1.5-0.6c1.9-0.9,3.8-2.5,6-0.6C586.6,60.2,580.1,67,574.5,65.6z"/>
		<path class="st68" d="M574.5,65.6c7.7-0.6,9-7.1,11.6-12.4c0.2-1,0.8-2,0.5-3.1c0-0.4,0-0.8,0.2-1.2c0.6-0.9,1.7-1.2,2.4-2
			c2.6,1.4,3,4.6,5.2,6.3c-5.3,6-11.2,11.3-17.9,15.8C575.3,68.1,575,66.8,574.5,65.6z"/>
		<path class="st12" d="M577.5,42.5c-0.1-0.7-0.1-1.3-0.2-2c0.1-0.3,0.2-0.7,0.3-1c0.5-0.6,1.2-0.8,1.9-0.7c3,0.6,6.1,1.3,6.5,5.2
			c-2.8,1.8-1,4.1-0.8,6.2c-0.4,1.6-1.6,1.8-3,1.4c-0.2-0.2-0.4-0.3-0.6-0.5C583,46.9,580.7,44.5,577.5,42.5z"/>
		<path class="st1" d="M572.3,56.2c-0.4,1.5-0.8,2.9-1.1,4.4c-1.9-3.8-0.5-6.2,3.1-7.6c1.3-0.9,2.6-1.1,4-0.4c0.9,2.6-1,2.3-2.5,2.6
			C574.6,55.2,573.3,55.4,572.3,56.2z"/>
		<path class="st69" d="M574.5,52.2c2.1-2.3,4.9-0.7,7.3-1.2c0,0,0,0,0,0c0.4,0.5,0.3,1-0.1,1.4c-0.5,0.3-1,0.5-1.6,0.5
			C578.3,52.3,576.3,52.9,574.5,52.2z"/>
		<path class="st70" d="M574.5,52.2c2.1,0,4.2,0,6.4,0c0.1,0.8-0.3,1.2-1,1.4c-0.5,0-0.8-0.2-1.1-0.5c-1.5,0-3-0.1-4.5-0.1
			C574.4,52.7,574.5,52.5,574.5,52.2z"/>
		<path class="st69" d="M586,43.4c-2.2-1.4-4.3-2.9-6.5-4.3c-0.7-1-0.8-1.9,0.4-2.7c2.4,0.3,4.8,0.7,7.2,1c0,0.8,0.3,1.6,1.1,2
			c-0.4,1.4-0.9,2.9-1.3,4.3C586.4,43.9,586.1,43.8,586,43.4z"/>
		<path class="st17" d="M588.2,37.3c2.8-1.5,5.6-1.6,8.4,0.1c0.4,0.2,0.5,0.4,0.4,0.6c-0.1,0.2-0.2,0.3-0.4,0.3
			C593.7,37.9,590.9,37.6,588.2,37.3z"/>
		<path class="st23" d="M596.5,38.2c0-0.3,0-0.6,0-0.9c2,0.1,3.1,1.1,3.1,3.2C598.6,39.8,597.6,39,596.5,38.2z"/>
		<path class="st71" d="M519.7,35.2c7.4-1.6,14.7-1.7,22.1,0.1C534.4,35.2,527.1,35.2,519.7,35.2z"/>
		<path class="st72" d="M586,43.4c0.2,0.2,0.5,0.4,0.8,0.3c0.7,0.9,1.6,1.7,1.6,3c-0.7,0.6-0.9,1.5-1.3,2.2c0,0.3,0,0.7-0.1,1
			c-0.3,0.3-0.6,0.5-1,0.6c-0.4,0-0.8-0.2-1.1-0.5C583.5,47.5,579.8,44.7,586,43.4z"/>
		<path class="st55" d="M587.1,49c-0.2-0.8-0.4-1.6-0.6-2.4c0.7,0.1,1.3,0.1,2,0.2c0.2,0,0.5,0,0.7,0
			C589.3,48.3,588.4,48.9,587.1,49z"/>
		<path class="st73" d="M579.9,36.4c-0.1,0.9-0.2,1.8-0.4,2.7c-0.6,0.1-1.2,0.2-1.9,0.4c0.3-1.4,0.6-2.8,0.9-4.2c0.4,0,0.7,0,1.1,0
			C579.7,35.6,579.8,36,579.9,36.4z"/>
		<path class="st74" d="M536.5,30.1c1.8,0,3.6-0.1,5.5-0.1c0.1,0.3,0,0.7-0.1,1c-1.8,1.7-4.1,1.6-6.3,1.5
			c-5.3-0.2-10.6,0.6-15.8-0.5c0-0.7,0.1-1.4,0.1-2.1c2.3,1.4,4.8,0.9,7.3,1C530.1,29.7,533.4,31.2,536.5,30.1z"/>
		<path class="st75" d="M519.7,32.1c7.4-0.5,14.8,1,22.1-1.1c0,0.4,0.1,0.7,0.1,1.1C534.5,33.7,527.1,33.7,519.7,32.1z"/>
		<path class="st26" d="M536.5,30.1c-3,1.8-6.2,0.5-9.3,0.9c1.1-1.5,2.8-0.8,4.2-1C533,30,534.7,30.1,536.5,30.1z"/>
		<path class="st2" d="M567.3,32.1c-0.1,0.3-0.2,0.7-0.4,1c-0.3,0.6-0.6,1.3-1.2,1.6c-0.7,0.3-1.4,0.4-2.1,0.5c-0.5,0-1,0-1.5-0.1
			c-0.5-0.1-0.9-0.4-1.4-0.7c-1-1-1.1-2.2-0.8-3.5c2.6-0.7,1.2-3.3,2.1-4.7c1.7,1.3,4.8,0.8,5.2,3.9
			C567.6,30.7,567.7,31.4,567.3,32.1z"/>
		<path class="st9" d="M562.1,26.2c0.1,1.7,2.2,4.1-1.4,4.6c-0.1,0.5-0.4,0.8-0.9,0.9c-1.6,0.3-2.6-0.5-3.2-2c0-0.2,0-0.5-0.1-0.7
			c0.4-2,0.9-4,3.4-4.4c0.2,0,0.4,0.1,0.5,0.1c0.5,0.2,1,0.6,1.4,1C561.9,25.8,562,26,562.1,26.2z"/>
		<path class="st70" d="M555.5,41.6c-0.9-4.3-3-8.7,1-12.6c0,0,0-0.1,0-0.1c0.8,1,0.8,2.3,0.9,3.5c-0.4,2-0.9,4-0.3,6.1
			c0.2,0.7,0.3,1.3,0.2,2c-0.1,0.5-0.3,0.9-0.6,1.2C556.3,42,555.9,42,555.5,41.6z"/>
		<path class="st76" d="M567.3,32.1c0-0.7,0-1.4,0-2.1c2.1,1.1,3,3.2,4,5.2c-0.9,0.8-1.7,1.6-2.6,2.4
			C567.5,35.8,568.9,33.6,567.3,32.1z"/>
		<path class="st77" d="M555.5,41.6c0.4,0,0.7-0.1,1.1-0.1c1.7,0.4,3.4,0.6,4.2,2.5c0.5,3.4-2.2,0.9-3.1,1.7
			C557,44.3,555.4,43.4,555.5,41.6z"/>
		<path class="st20" d="M542.9,28c0.5-1.8,1.3-3.4,3-4.3c-0.7,2.1-1.5,4.2-2.2,6.3C543.5,29.3,543.2,28.7,542.9,28z"/>
		<path class="st78" d="M550.2,19.5c0.5-2.2,1.7-3.2,4-2.1C553.3,19,551.7,19.2,550.2,19.5z"/>
		<path class="st79" d="M548.2,19.5c0.7,0,1.4,0,2.1-0.1c-0.9,1.6-1.9,3.2-4.1,3.2C546.9,21.5,547.5,20.5,548.2,19.5z"/>
		<path class="st1" d="M559.9,24.6c0.6-1.2,1.3-1.2,1.9,0c-0.7,0.8-1.4,0.7-2,0L559.9,24.6z"/>
		<path class="st80" d="M559.7,24.6c0.7,0,1.3,0,2,0c0,0.4,0,0.7,0.1,1.1C560.9,25.8,560.1,25.5,559.7,24.6z"/>
		<path class="st81" d="M532.4,51c-0.4-1.7-0.7-3.5-1.1-5.2c1.4,0.3,2.8,0.6,4.2,0.9c0.3,0.4,0.6,0.8,1,1.2c1.1,2.1,0.1,3-2,3.3
			C533.8,51.1,533.1,51.1,532.4,51z"/>
		<path class="st80" d="M537.7,50.7c2.5,0.5,3.3,2.2,3.1,4.5c0,0,0,0,0,0c-0.3,0.3-0.7,0.3-1,0l0-0.2c-0.6-0.3-1.2-0.4-1.7-0.8
			c-0.9-0.7-1.6-1.5-1.8-2.7C536.5,50.9,536.9,50.5,537.7,50.7z"/>
		<path class="st82" d="M537.7,50.7c-0.5,0.4-0.9,0.8-1.4,1.2c-0.2,0.5-0.4,0.6-0.8,0.2c-0.3-0.3-0.6-0.6-0.9-0.9
			c1.4-0.6,2.3-1.6,2-3.3C537.7,48.5,537.6,49.6,537.7,50.7z"/>
		<path class="st83" d="M539.7,55.2c0.3,0,0.7,0,1,0c0,0.4,0,0.7-0.1,1.1C540.4,55.9,540.1,55.6,539.7,55.2z"/>
		<path class="st36" d="M535.5,52c0.3-0.1,0.5-0.1,0.8-0.2c1.1,0.5,1.9,1.2,2.4,2.3c0.3,0.2,0.4,0.5,0.3,0.7
			c-0.1,0.3-0.2,0.4-0.3,0.4c-0.7,1.3-1.5-0.2-2.2,0c-0.4-0.4-0.7-0.7-1.1-1.1C535.4,53.5,535.4,52.8,535.5,52z"/>
		<path class="st81" d="M538.7,55.3c0-0.4,0-0.8,0-1.1c0.3,0.3,0.7,0.6,1,0.9C539.4,55.1,539,55.2,538.7,55.3z"/>
		<path class="st84" d="M578.6,3.6c0.7,0,1.4,0,2.2,0c1.3,2.4-0.6,3.2-2.1,4.3c-0.4-0.4-0.8-0.8-1.2-1.2
			C577.9,5.7,578.2,4.7,578.6,3.6z"/>
		<path class="st13" d="M539.8,7c1,0.7,2,1.3,3.1,2c0,0.5,0,1.1,0,1.6c0,0.5,0.1,1.1,0.2,1.6c0.2,0.8,0.4,1.5,0.2,2.3
			c-0.3,1-0.7,1.9-1.4,2.6c-2.4,2.1-4.9,1-7.4,0.1c0.7-1,1.4-2,2.1-3c1.4,0.8,2.1,0.3,2.3-1.3C539.1,10.9,539.5,8.9,539.8,7z"/>
		<path class="st48" d="M541.8,17.1c0.1-1-0.2-2.1,0.9-2.8c0.2-0.4,0.5-0.6,0.9-0.8c0.6-0.2,1.2-0.2,1.9-0.1
			c0.4,0.1,0.8,0.2,1.2,0.4c0.1,0.2,0.3,0.3,0.4,0.5c-0.4,2.5-3.5,1.1-4.3,3c0,0-0.5,0.1-0.5,0.1L541.8,17.1z"/>
		<path class="st85" d="M550.2,8.9c0,0.8,0,1.5,0,2.3c0,0-0.5-0.1-0.5-0.1l-0.5,0c-0.6-0.1-1-0.6-1.3-1.1c-0.1-0.4,0-0.8,0.2-1.2
			c0.3-0.3,0.7-0.4,1.1-0.5C549.6,8.4,550,8.6,550.2,8.9z"/>
		<path class="st86" d="M549,12.1c0.1,0.9,0.3,1.8-1,1.9c-0.3-0.2-0.7-0.3-1-0.5c-0.1-0.2-0.2-0.3-0.3-0.5c0-0.4,0.1-0.7,0.3-1
			c0.3-0.2,0.6-0.4,1-0.4C548.5,11.6,548.8,11.8,549,12.1z"/>
		<path class="st28" d="M549,12.1c-0.3,0-0.6,0-0.9,0c-0.6-0.4-0.6-1-0.4-1.6c0.2-0.1,0.3-0.3,0.5-0.4c0.4,0.4,0.7,0.7,1.1,1.1
			C549.2,11.5,549.1,11.8,549,12.1z"/>
		<path class="st87" d="M547.1,13.1c0.3,0.3,0.7,0.6,1,0.8c-0.3,0.2-0.6,0.2-1,0.2c0,0,0-0.1,0-0.1c-0.3-0.2-0.3-0.4-0.3-0.7
			C546.9,13.3,547,13.1,547.1,13.1z"/>
		<path class="st32" d="M550.2,8.9c-0.4,0-0.7-0.1-1.1-0.1c-0.4-0.3-0.5-0.6-0.6-1.1c0.1-0.4,0.2-0.8,0.5-1.1c0.4-0.2,0.8,0,1.1,0.3
			c0,0.4,0.1,0.8,0.1,1.2C550.3,8.4,550.3,8.6,550.2,8.9z"/>
		<path class="st45" d="M545,9.9c0.1-1.1-0.2-2.2,0.8-3c0.2,0.1,0.4,0.1,0.6,0.2c0.2,0.3,0.4,0.7,0.5,1.1c0.1,0.4,0.1,0.8,0.1,1.2
			c0,0.4-0.1,0.8-0.2,1.2c-0.2,0.4-0.5,0.7-0.9,0.8c-0.2,0-0.4,0-0.6,0c-0.2-0.1-0.3-0.3-0.5-0.4C544.5,10.5,544.6,10.2,545,9.9z"/>
		<path class="st34" d="M541.9,10c0.3-0.3,0.7-0.7,1-1c0.4,0.4,0.7,0.8,1.1,1.2c0.3,0.2,0.3,0.5,0.3,0.7c-0.1,0.2-0.2,0.4-0.3,0.4
			C542.8,11.6,542.4,10.7,541.9,10z"/>
		<path class="st65" d="M544,11c0-0.3-0.1-0.6,0-0.9c0.3-0.1,0.6-0.2,1-0.2c0,0.3,0,0.7,0.1,1C544.7,11.2,544.4,11.3,544,11z"/>
		<path class="st88" d="M545.8,6.9c0.1-0.4,0.1-0.7,0.2-1.1c0,0,0.1,0.1,0.1,0.1c0.1-0.2,0.2-0.3,0.3-0.5c0.2,0,0.4,0,0.6,0.1
			c0.3,0.3,0.4,0.6,0.3,1.1c-0.3,0.3-0.6,0.4-1.1,0.3L545.8,6.9z"/>
		<path class="st61" d="M548.1,3.7c0,0.3,0,0.7,0,1c0,0.4,0,0.7,0,1.1c-0.2,0.1-0.3,0.3-0.5,0.4c-0.2-0.1-0.4-0.1-0.6-0.2l0-0.4
			c-0.4-0.2-0.7-0.5-1-0.8C546.5,3.9,547.3,3.7,548.1,3.7z"/>
		<path class="st16" d="M546,4.8c0.3,0.3,0.7,0.6,1,0.8c-0.3,0.1-0.7,0.2-1,0.3C546.1,5.5,546.1,5.2,546,4.8z"/>
		<path class="st89" d="M550.2,6.9c-0.4,0-0.7-0.1-1.1-0.1c0-0.2,0-0.4,0-0.6c0.6-0.1,1.2-0.2,1.8-0.2
			C550.8,6.3,550.5,6.6,550.2,6.9z"/>
		<path class="st90" d="M549.2,6.2c0,0.2,0,0.4,0,0.6c0,0.3,0,0.7,0,1c-0.3,0.3-0.7,0.4-1.1,0.1c-0.3-0.3-0.5-0.7-0.5-1.1
			c0.1-0.4,0.2-0.8,0.6-1.1c0,0,0,0,0,0C548.5,5.9,548.9,6,549.2,6.2z"/>
		<path class="st91" d="M564,34.2c0.7,0,1.3,0,2,0.1c0.9,2,0.8,4,0.1,6.1c-0.5,1-1.3,1.2-2.3,1.2c-0.4,0.3-0.9,0.4-1.4,0.3
			c-1.7-1-1.5-2.4-0.6-3.8C563,37.1,562.9,35.3,564,34.2z"/>
		<path class="st92" d="M563,41.6c0.3,0,0.5,0,0.8,0c0.2,2.2-1.8,1.9-3,2.5c-1.7-0.4-3.4-0.7-4.2-2.5c0,0,0,0.1,0,0.1
			c0.5-0.6,1.1-0.8,1.9-0.7C560,40.8,561.3,42.4,563,41.6z"/>
		<path class="st24" d="M566.1,40.4c0-2-0.1-4.1-0.1-6.1c0.3-0.4,0.6-0.8,0.9-1.1C566.7,35.6,568.1,38.2,566.1,40.4z"/>
		<path class="st79" d="M586.1,49.9c0.3,0,0.6,0,0.9,0c2,1.6,2,1.6-1,3.2c-2.2-0.5-3.6,1.2-5.4,2.1c-0.6-0.5-1.6-0.9-1.1-2.1
			c0.4-0.3,0.8-0.6,1.2-0.9c0.3-0.1,0.6-0.2,1-0.3C583.2,51.3,585.2,51.9,586.1,49.9z"/>
		<path class="st47" d="M572.3,56.2c0.4-1,1.1-1.7,2.2-1.9c1.6,1.1,3.6-0.4,5.2,0.9C577.5,57.2,574.8,55.6,572.3,56.2z"/>
		<path class="st93" d="M579.7,55.2c-1.7-0.3-3.7,0.7-5.2-0.9c1.4-0.4,3.2,0.5,4.2-1.2c0.3,0,0.5,0,0.8,0c0.4,0.7,0.7,1.4,1.1,2.1
			C580.3,55.2,580,55.2,579.7,55.2z"/>
		<path class="st6" d="M586.1,49.9c0,3.8-2.8,1.5-4.3,2c0-0.3,0-0.6,0-0.9c1.1,0,2.4,0.2,3.1-1C585.3,50,585.7,50,586.1,49.9z"/>
		<path class="st82" d="M556.7,39.5c-1.8-2.1-1.9-4.3,0-6.4c1.1-0.5,2.2-1,2.7-2.1c0.4-0.1,0.8-0.1,1.3-0.2c0.2,1.3-0.1,2.7,1.3,3.5
			c0.6,2.7-0.7,5-1.4,7.5C558.8,41.7,557.9,40.3,556.7,39.5z"/>
		<path class="st94" d="M559.8,41.5c2.1-2-0.1-5.3,2.1-7.3c0.3,0,0.5,0,0.8,0c1.1,1.3,0.9,2.7,0.2,4.1c-1.5,1.1-1.4,2.2,0,3.3
			c-1.5,1.4-3,1.1-4.5,0C558.9,41,559.4,41,559.8,41.5z"/>
		<path class="st95" d="M563,38.4c-0.1-1.4-0.2-2.7-0.2-4.1c0.4,0,0.8,0,1.3,0C563.4,35.5,565.8,37.6,563,38.4z"/>
		<path class="st96" d="M559.4,31c0.5,1,0.9,2.1,0,2.9c-0.9,0.8-1.9-0.2-2.7-0.7c-0.1-1.4-0.1-2.8-0.2-4.1
			C557.6,29.3,557.8,31.2,559.4,31z"/>
		<path class="st97" d="M559.8,41.5c-0.4,0-0.9,0.1-1.3,0.1c-0.7,0-1.3,0-2,0c0-0.7,0.1-1.4,0.1-2.1C558,39.6,559.2,40.1,559.8,41.5
			z"/>
		<path class="st82" d="M544,11c0.3,0,0.7,0,1-0.1c0,0-0.1,0.3-0.1,0.3c0.3,0.9-0.3,1.3-1,1.5c-0.8,0-1.5-0.1-2-0.7
			c0-0.7,0-1.4,0.1-2.1C542.6,10.3,543.3,10.7,544,11z"/>
		<path class="st35" d="M541.8,12.1c0.7,0,1.4,0,2.1,0c0.3,0.2,0.5,0.6,0.6,1c0,0.4-0.1,0.8-0.3,1.1c-0.5,0-1,0-1.5,0
			C542.4,13.5,542.1,12.8,541.8,12.1z"/>
		<path class="st73" d="M544.2,14.2c-0.2-0.3-0.2-0.6-0.2-0.9c0.4-0.7,1-0.7,1.7-0.6c0.2,0.1,0.4,0.3,0.5,0.4
			c0.2,0.5,0.1,0.8-0.3,1.2C545.4,14.2,544.8,14.2,544.2,14.2z"/>
		<path class="st98" d="M546,14.2c0-0.4,0-0.7,0-1.1c0.4-0.3,0.7-0.3,1.1,0c0,0,0,0,0,0c0,0.3,0,0.7,0,1
			C546.7,14.2,546.4,14.2,546,14.2z"/>
		<path class="st99" d="M548.1,7.8c0.4,0,0.7,0,1.1,0c0,0.3,0,0.6,0,1c-0.4,0.2-0.7,0.3-1.1,0.5c-0.1-0.2-0.2-0.3-0.3-0.5
			c0-0.2,0-0.4,0-0.6C547.9,8.1,548,7.9,548.1,7.8z"/>
		<path class="st14" d="M548.1,9.3c0.1,0.3,0.1,0.5,0.1,0.8c0,0,0,0,0,0c-0.2,0.1-0.4,0.2-0.6,0.4c-0.2-0.1-0.4-0.2-0.7-0.3
			c-0.1-0.2-0.2-0.5-0.2-0.7c0.1-0.2,0.2-0.5,0.2-0.7c0.4-0.3,0.9-0.3,1.3,0L548.1,9.3z"/>
		<path class="st56" d="M547,10.3c0.4-0.1,0.8-0.1,1.2-0.2c0,0.7-0.1,1.3-0.1,2c-0.3,0-0.7,0-1,0c-0.2-0.2-0.3-0.3-0.5-0.5
			C546.6,11.1,546.7,10.7,547,10.3z"/>
		<path class="st87" d="M547.1,13.2c-0.4,0-0.7,0-1.1,0c0,0,0,0,0,0c-0.3-0.2-0.4-0.5-0.4-0.8c0-0.3,0.1-0.4,0.2-0.4
			c0.4-0.3,0.8-0.2,1.2,0.1c0,0,0,0,0,0C547.1,12.5,547.1,12.8,547.1,13.2z"/>
		<path class="st92" d="M546.1,12.1c0,0.3,0,0.7,0,1c-0.7,0-1.4,0.1-2,0.1c0-0.4-0.1-0.8-0.1-1.2c0.3-0.3,0.6-0.6,0.9-0.9
			c0.4-0.1,0.7-0.1,1.1-0.2c0.3,0.2,0.5,0.5,0.4,0.7C546.3,12,546.2,12.1,546.1,12.1z"/>
		<path class="st58" d="M546.1,12.1c0-0.4-0.1-0.8-0.1-1.2c0-0.3,0.1-0.7,0.1-1c0.4-0.4,0.7-0.4,1,0c0,0,0,0.3,0,0.3
			c0,0.6,0,1.2,0,1.8C546.7,12.1,546.4,12.1,546.1,12.1z"/>
		<path class="st100" d="M546.1,9c0-0.4,0-0.8,0-1.2c0.2-0.1,0.4-0.3,0.6-0.4c0.2,0.1,0.4,0.2,0.6,0.3c0.3,0.5,0.2,0.9-0.2,1.2
			l0.1-0.1C546.8,9.3,546.4,9.3,546.1,9z"/>
		<path class="st101" d="M547.1,7.9c-0.4,0-0.7-0.1-1.1-0.1c0.1-0.4,0.1-0.7,0.2-1.1c0.3,0,0.6,0,0.8,0c0.1,0.2,0.3,0.4,0.4,0.6
			C547.4,7.5,547.2,7.7,547.1,7.9z"/>
		<path class="st102" d="M546.1,9c0.4,0,0.7-0.1,1.1-0.1c0,0.4,0,0.7,0,1.1c0,0-0.5,0-0.5,0s-0.5,0-0.5,0C546,9.7,546,9.3,546.1,9z"
			/>
		<path class="st103" d="M548.2,5.8c0,0.4,0,0.7,0,1.1c-0.3,0.4-0.6,0.4-1,0.1c0,0-0.1-0.2-0.1-0.2c0-0.2,0-0.5-0.1-0.7
			C547.4,6,547.8,5.9,548.2,5.8z"/>
		<path class="st26" d="M547.1,6.9c0.3-0.1,0.7-0.1,1-0.1c0,0.3,0,0.6-0.1,0.9c0,0,0.1,0.2,0.1,0.2c-0.4,0.3-0.8,0.3-1.1-0.1
			c0,0,0.1,0,0.1,0C547.1,7.6,547.1,7.3,547.1,6.9z"/>
		<path class="st40" d="M547,7.9c0.4,0,0.8,0.1,1.1,0.1c0,0.3,0,0.6,0,0.9c-0.4,0-0.8,0.1-1.1,0.1C547,8.6,547,8.2,547,7.9z"/>
		<g>
			<path class="st104" d="M658,12.1h-9l-3.1,7.8h-1.7l8.9-22.3h1l8.7,22.3H661L658,12.1z M649.5,10.7h7.9l-3-8
				c-0.3-0.6-0.6-1.5-0.9-2.6c-0.3,1-0.6,1.9-0.9,2.6L649.5,10.7z"/>
			<path class="st104" d="M675.4-1.2c-2.8,0-5,0.9-6.6,2.7c-1.6,1.8-2.4,4.2-2.4,7.3c0,3.2,0.8,5.6,2.3,7.4c1.5,1.8,3.7,2.6,6.5,2.6
				c1.9,0,3.6-0.2,5.1-0.7v1.4c-1.5,0.5-3.3,0.8-5.5,0.8c-3.1,0-5.6-1-7.4-3c-1.8-2-2.7-4.8-2.7-8.4c0-2.3,0.4-4.2,1.3-6
				c0.9-1.7,2.1-3,3.7-4c1.6-0.9,3.5-1.4,5.6-1.4c2.2,0,4.1,0.4,5.8,1.2L680.5,0C678.9-0.8,677.2-1.2,675.4-1.2z"/>
			<path class="st104" d="M703.9,8.8c0,3.5-0.9,6.3-2.6,8.4c-1.8,2-4.2,3.1-7.3,3.1c-3.1,0-5.5-1-7.3-3.1c-1.8-2-2.6-4.8-2.6-8.4
				c0-3.5,0.9-6.3,2.7-8.3s4.2-3,7.3-3c3.1,0,5.5,1,7.3,3.1C703,2.5,703.9,5.3,703.9,8.8z M685.7,8.8c0,3.2,0.7,5.6,2.1,7.4
				c1.4,1.7,3.5,2.6,6.1,2.6c2.7,0,4.7-0.9,6.1-2.6c1.4-1.7,2.1-4.2,2.1-7.4c0-3.2-0.7-5.6-2.1-7.4c-1.4-1.7-3.4-2.6-6.1-2.6
				c-2.6,0-4.7,0.9-6.1,2.6C686.4,3.2,685.7,5.6,685.7,8.8z"/>
			<path class="st104" d="M724.9,18.5h2.4v7.1h-1.5v-5.6H709V-2.3h1.5v20.7h12.8V-2.3h1.5V18.5z"/>
			<path class="st104" d="M731.3,19.9V-2.3h1.5v22.2H731.3z"/>
			<path class="st104" d="M749.9,12.1h-9l-3.1,7.8H736L745-2.4h1l8.7,22.3h-1.7L749.9,12.1z M741.4,10.7h7.9l-3-8
				c-0.3-0.6-0.6-1.5-0.9-2.6c-0.3,1-0.6,1.9-0.9,2.6L741.4,10.7z"/>
			<path class="st104" d="M773.7,18.5h2.4v7.1h-1.5v-5.6h-16.8V-2.3h1.5v20.7h12.8V-2.3h1.5V18.5z"/>
			<path class="st104" d="M780.2,19.9V-2.3h1.5v22.2H780.2z"/>
			<path class="st104" d="M793.2,10.3l-5.9,9.7h-1.9l6.2-10c-1.5-0.3-2.7-1-3.6-2c-0.9-1-1.3-2.3-1.3-3.9c0-4.3,2.7-6.4,8-6.4h5.3
				v22.2h-1.5v-9.7H793.2z M798.4-0.9h-3.7c-2.2,0-3.9,0.4-4.9,1.2s-1.5,2-1.5,3.7c0,1.6,0.5,2.8,1.5,3.7c1,0.8,2.4,1.2,4.4,1.2h4.2
				V-0.9z"/>
			<path class="st104" d="M841.1,25.5h-1.5v-5.6h-16.2v5.6H822v-7.1h1.6c1.5-2.6,2.8-5.9,3.9-9.9s1.8-7.6,1.9-10.8h9.4v20.7h2.3
				V25.5z M837.3,18.5V-0.8h-6.5c-0.2,3.2-0.9,6.6-1.9,10.3c-1,3.7-2.2,6.7-3.5,9H837.3z"/>
			<path class="st104" d="M845.2,19.9V-2.3h1.5v22.2H845.2z"/>
			<path class="st104" d="M862.5-1.2c-2.6,0-4.7,0.8-6.3,2.3c-1.6,1.5-2.5,3.7-2.7,6.5h11.8V9h-11.8c0.1,3.1,0.9,5.6,2.4,7.3
				c1.5,1.7,3.6,2.5,6.4,2.5c1.9,0,3.6-0.2,5.1-0.7v1.4c-1.5,0.5-3.3,0.8-5.5,0.8c-3.1,0-5.6-1-7.4-3c-1.8-2-2.7-4.8-2.7-8.4
				c0-2.3,0.4-4.2,1.3-6c0.9-1.7,2.1-3,3.7-4c1.6-0.9,3.5-1.4,5.6-1.4c2.2,0,4.1,0.4,5.8,1.2L867.6,0C866-0.8,864.3-1.2,862.5-1.2z"
				/>
			<path class="st104" d="M878.1,19.9h-1.6V-0.8h-7.2v-1.5h16v1.5h-7.2V19.9z"/>
			<path class="st104" d="M907.3,8.8c0,3.5-0.9,6.3-2.6,8.4c-1.8,2-4.2,3.1-7.3,3.1c-3.1,0-5.5-1-7.3-3.1c-1.8-2-2.6-4.8-2.6-8.4
				c0-3.5,0.9-6.3,2.7-8.3s4.2-3,7.3-3c3.1,0,5.5,1,7.3,3.1C906.4,2.5,907.3,5.3,907.3,8.8z M889.1,8.8c0,3.2,0.7,5.6,2.1,7.4
				c1.4,1.7,3.5,2.6,6.1,2.6c2.7,0,4.7-0.9,6.1-2.6c1.4-1.7,2.1-4.2,2.1-7.4c0-3.2-0.7-5.6-2.1-7.4c-1.4-1.7-3.4-2.6-6.1-2.6
				c-2.6,0-4.7,0.9-6.1,2.6C889.9,3.2,889.1,5.6,889.1,8.8z"/>
			<path class="st104" d="M927.3,19.9h-1.6V-0.8h-8c-0.4,3.4-0.9,6.7-1.3,9.8c-0.5,3.1-0.9,5.3-1.2,6.6c-0.3,1.3-0.7,2.3-1,2.9
				c-0.3,0.6-0.8,1.1-1.3,1.4c-0.5,0.3-1.1,0.4-1.9,0.4c-0.7,0-1.3-0.1-1.8-0.4v-1.4c0.6,0.2,1.2,0.3,1.7,0.3c0.9,0,1.6-0.5,2.1-1.6
				c0.5-1.1,1-3.5,1.6-7.1c0.6-3.6,1.2-7.8,1.7-12.4h10.9V19.9z"/>
			<path class="st104" d="M952.2,8.8c0,3.5-0.9,6.3-2.6,8.4c-1.8,2-4.2,3.1-7.3,3.1c-3.1,0-5.5-1-7.3-3.1c-1.8-2-2.6-4.8-2.6-8.4
				c0-3.5,0.9-6.3,2.7-8.3s4.2-3,7.3-3c3.1,0,5.5,1,7.3,3.1C951.4,2.5,952.2,5.3,952.2,8.8z M934.1,8.8c0,3.2,0.7,5.6,2.1,7.4
				c1.4,1.7,3.5,2.6,6.1,2.6c2.7,0,4.7-0.9,6.1-2.6c1.4-1.7,2.1-4.2,2.1-7.4c0-3.2-0.7-5.6-2.1-7.4c-1.4-1.7-3.4-2.6-6.1-2.6
				c-2.6,0-4.7,0.9-6.1,2.6C934.8,3.2,934.1,5.6,934.1,8.8z"/>
			<path class="st104" d="M958.9,19.9h-1.5V-2.3h12.2v1.4h-10.6V19.9z"/>
			<path class="st104" d="M972.9,19.9V-2.3h1.5v22.2H972.9z"/>
			<path class="st104" d="M980.8-2.3h6.1c2.7,0,4.8,0.5,6,1.4s1.9,2.3,1.9,4.2c0,1.3-0.4,2.4-1.2,3.2c-0.8,0.9-1.9,1.4-3.4,1.6v0.1
				c1.8,0.3,3.1,0.8,3.9,1.7c0.8,0.9,1.3,2,1.3,3.6c0,2-0.7,3.6-2,4.7c-1.4,1.1-3.3,1.7-5.8,1.7h-6.8V-2.3z M982.3,7.6h4.9
				c2.1,0,3.6-0.3,4.5-1c0.9-0.7,1.4-1.8,1.4-3.3s-0.5-2.6-1.6-3.2s-2.7-1-4.8-1h-4.5V7.6z M982.3,9v9.6h5.2c4.1,0,6.2-1.7,6.2-5
				c0-3-2.2-4.6-6.5-4.6H982.3z"/>
			<path class="st104" d="M649,63.8c-1.4,0-2.5-0.2-3.4-0.5v-1.8c1,0.4,2.1,0.7,3.2,0.7c0.9,0,1.6-0.1,2.2-0.4
				c0.6-0.3,1.2-0.8,1.7-1.4c0.5-0.6,1.2-1.7,1.9-3.2l-10.3-19.5h2.1l7.9,15.1c0.4,0.8,0.8,1.7,1.1,2.5h0.1l0.4-1.1l7.4-16.6h2
				l-8.3,18.2c-0.5,1.2-1,2.2-1.5,3.2c-0.5,1-1,1.8-1.6,2.5c-0.6,0.7-1.3,1.3-2.1,1.7C651.1,63.6,650.2,63.8,649,63.8z"/>
			<path class="st104" d="M704.3,63.4h-2.5l-12.8-13.2v13.2h-1.8V37.6h1.8v12.5l12.4-12.5h2.4l-12.5,12.5L704.3,63.4z"/>
			<path class="st104" d="M741.7,45c0,2.5-0.8,4.4-2.5,5.8c-1.7,1.3-4.1,2-7.2,2h-4v10.7h-1.8V37.6h6.3
				C738.6,37.6,741.7,40,741.7,45z M727.9,51.2h3.6c2.9,0,5-0.5,6.3-1.4c1.3-1,1.9-2.5,1.9-4.7c0-2-0.6-3.5-1.8-4.4
				c-1.2-1-3.1-1.4-5.7-1.4h-4.3V51.2z"/>
			<path class="st104" d="M777.9,54.3h-10.5l-3.6,9.1h-2l10.4-26h1.2l10.2,26h-2L777.9,54.3z M768.1,52.7h9.3l-3.5-9.3
				c-0.3-0.7-0.6-1.7-1.1-3c-0.3,1.1-0.7,2.2-1,3.1L768.1,52.7z"/>
			<path class="st104" d="M801.8,32.9c0-0.5,0.1-0.9,0.3-1.2c0.2-0.2,0.5-0.4,0.8-0.4c0.8,0,1.1,0.5,1.1,1.5c0,1-0.4,1.5-1.1,1.5
				C802.2,34.4,801.8,33.9,801.8,32.9z M805.4,63.4V37.6h1.8v25.9H805.4z M808.5,32.9c0-0.5,0.1-0.9,0.3-1.2
				c0.2-0.2,0.5-0.4,0.8-0.4c0.8,0,1.1,0.5,1.1,1.5c0,1-0.4,1.5-1.1,1.5C808.9,34.4,808.5,33.9,808.5,32.9z"/>
			<path class="st104" d="M851.4,63.4h-1.8V50.7h-15.1v12.7h-1.8V37.6h1.8V49h15.1V37.6h1.8V63.4z"/>
			<path class="st104" d="M876.9,37.6h1.7v16.9c0,1.2,0,3.2-0.1,6.1h0.1l15.3-23h1.8v25.9h-1.8V46.6c0-1.9,0.1-4,0.2-6.2H894
				l-15.4,23h-1.8V37.6z"/>
		</g>
	</g>
</g>
</svg>
