<svg version="1.1" xmlns="http://www.w3.org/2000/svg" xmlns:xlink="http://www.w3.org/1999/xlink" viewBox="0 0 252 252"><g fill="none" fill-rule="nonzero" stroke="none" stroke-width="1" stroke-linecap="butt" stroke-linejoin="miter" stroke-miterlimit="10" stroke-dasharray="" stroke-dashoffset="0" font-family="none" font-weight="none" font-size="none" text-anchor="none" style="mix-blend-mode: normal">
          <style>
        .st0{fill:url(#SVGID_1_);}
    </style>
<linearGradient id="SVGID_1_" gradientUnits="userSpaceOnUse" x1="-616.2086" y1="709.6216" x2="-591.9714" y2="709.6216">
	<stop  offset="0" style="stop-color:#B2725E"/>
	<stop  offset="1" style="stop-color:#D79888"/>
</linearGradient>
    <path d="M0,252v-252h252v252z" fill="none"></path>
    <g id="original-icon" opacity="0" visibility="hidden"><g id="surface1"><path class="st0" d="M197.52715,32.23828l-157.02012,11.45566c-5.04492,0.34453 -9.00703,4.58965 -9.00703,9.64688v151.40918c0,8.6625 7.0875,15.75 15.75,15.75h157.5c8.6625,0 15.75,-7.0875 15.75,-15.75v-48.13594c1.87031,-1.10742 3.15,-3.11309 3.15,-5.41406v-25.2c0,-2.30098 -1.27969,-4.30664 -3.15,-5.41406v-48.13594c0,-6.42305 -3.90059,-11.96016 -9.45,-14.40879v-13.22754c0,-7.27207 -6.26309,-13.09219 -13.52285,-12.57539zM197.99473,38.52598c3.69141,-0.2707 6.75527,2.58398 6.75527,6.2877v11.88633h-163.59082c-1.89492,0 -3.35918,-1.46426 -3.35918,-3.35918c0,-1.80879 1.34121,-3.23613 3.1377,-3.37149h0.0123zM37.8,62.2248c1.00899,0.47988 2.12871,0.7752 3.35918,0.7752h163.59082c5.2541,0 9.45,4.1959 9.45,9.45v47.25h-22.05c-10.39746,0 -18.9,8.50254 -18.9,18.9v3.15h0.63984c1.5627,8.84707 8.97012,15.75 18.26016,15.75h22.05v47.25c0,5.2541 -4.1959,9.45 -9.45,9.45h-157.5c-5.2541,0 -9.45,-4.1959 -9.45,-9.45zM50.4,72.45c-1.73496,0 -3.15,1.41504 -3.15,3.15c0,1.73496 1.41504,3.15 3.15,3.15c1.73496,0 3.15,-1.41504 3.15,-3.15c0,-1.73496 -1.41504,-3.15 -3.15,-3.15zM63,72.45c-1.73496,0 -3.15,1.41504 -3.15,3.15c0,1.73496 1.41504,3.15 3.15,3.15c1.73496,0 3.15,-1.41504 3.15,-3.15c0,-1.73496 -1.41504,-3.15 -3.15,-3.15zM75.6,72.45c-1.73496,0 -3.15,1.41504 -3.15,3.15c0,1.73496 1.41504,3.15 3.15,3.15c1.73496,0 3.15,-1.41504 3.15,-3.15c0,-1.73496 -1.41504,-3.15 -3.15,-3.15zM88.2,72.45c-1.73496,0 -3.15,1.41504 -3.15,3.15c0,1.73496 1.41504,3.15 3.15,3.15c1.73496,0 3.15,-1.41504 3.15,-3.15c0,-1.73496 -1.41504,-3.15 -3.15,-3.15zM100.8,72.45c-1.73496,0 -3.15,1.41504 -3.15,3.15c0,1.73496 1.41504,3.15 3.15,3.15c1.73496,0 3.15,-1.41504 3.15,-3.15c0,-1.73496 -1.41504,-3.15 -3.15,-3.15zM113.4,72.45c-1.73496,0 -3.15,1.41504 -3.15,3.15c0,1.73496 1.41504,3.15 3.15,3.15c1.73496,0 3.15,-1.41504 3.15,-3.15c0,-1.73496 -1.41504,-3.15 -3.15,-3.15zM126,72.45c-1.73496,0 -3.15,1.41504 -3.15,3.15c0,1.73496 1.41504,3.15 3.15,3.15c1.73496,0 3.15,-1.41504 3.15,-3.15c0,-1.73496 -1.41504,-3.15 -3.15,-3.15zM138.6,72.45c-1.73496,0 -3.15,1.41504 -3.15,3.15c0,1.73496 1.41504,3.15 3.15,3.15c1.73496,0 3.15,-1.41504 3.15,-3.15c0,-1.73496 -1.41504,-3.15 -3.15,-3.15zM151.2,72.45c-1.73496,0 -3.15,1.41504 -3.15,3.15c0,1.73496 1.41504,3.15 3.15,3.15c1.73496,0 3.15,-1.41504 3.15,-3.15c0,-1.73496 -1.41504,-3.15 -3.15,-3.15zM163.8,72.45c-1.73496,0 -3.15,1.41504 -3.15,3.15c0,1.73496 1.41504,3.15 3.15,3.15c1.73496,0 3.15,-1.41504 3.15,-3.15c0,-1.73496 -1.41504,-3.15 -3.15,-3.15zM176.4,72.45c-1.73496,0 -3.15,1.41504 -3.15,3.15c0,1.73496 1.41504,3.15 3.15,3.15c1.73496,0 3.15,-1.41504 3.15,-3.15c0,-1.73496 -1.41504,-3.15 -3.15,-3.15zM189,72.45c-1.73496,0 -3.15,1.41504 -3.15,3.15c0,1.73496 1.41504,3.15 3.15,3.15c1.73496,0 3.15,-1.41504 3.15,-3.15c0,-1.73496 -1.41504,-3.15 -3.15,-3.15zM201.6,72.45c-1.73496,0 -3.15,1.41504 -3.15,3.15c0,1.73496 1.41504,3.15 3.15,3.15c1.73496,0 3.15,-1.41504 3.15,-3.15c0,-1.73496 -1.41504,-3.15 -3.15,-3.15zM50.4,85.05c-1.73496,0 -3.15,1.41504 -3.15,3.15c0,1.73496 1.41504,3.15 3.15,3.15c1.73496,0 3.15,-1.41504 3.15,-3.15c0,-1.73496 -1.41504,-3.15 -3.15,-3.15zM201.6,85.05c-1.73496,0 -3.15,1.41504 -3.15,3.15c0,1.73496 1.41504,3.15 3.15,3.15c1.73496,0 3.15,-1.41504 3.15,-3.15c0,-1.73496 -1.41504,-3.15 -3.15,-3.15zM50.4,97.65c-1.73496,0 -3.15,1.41504 -3.15,3.15c0,1.73496 1.41504,3.15 3.15,3.15c1.73496,0 3.15,-1.41504 3.15,-3.15c0,-1.73496 -1.41504,-3.15 -3.15,-3.15zM201.6,97.65c-1.73496,0 -3.15,1.41504 -3.15,3.15c0,1.73496 1.41504,3.15 3.15,3.15c1.73496,0 3.15,-1.41504 3.15,-3.15c0,-1.73496 -1.41504,-3.15 -3.15,-3.15zM50.4,110.25c-1.73496,0 -3.15,1.41504 -3.15,3.15c0,1.73496 1.41504,3.15 3.15,3.15c1.73496,0 3.15,-1.41504 3.15,-3.15c0,-1.73496 -1.41504,-3.15 -3.15,-3.15zM201.6,110.25c-1.73496,0 -3.15,1.41504 -3.15,3.15c0,1.73496 1.41504,3.15 3.15,3.15c1.73496,0 3.15,-1.41504 3.15,-3.15c0,-1.73496 -1.41504,-3.15 -3.15,-3.15zM50.4,122.85c-1.73496,0 -3.15,1.41504 -3.15,3.15c0,1.73496 1.41504,3.15 3.15,3.15c1.73496,0 3.15,-1.41504 3.15,-3.15c0,-1.73496 -1.41504,-3.15 -3.15,-3.15zM192.15,126h25.2v25.2h-25.2c-6.98906,0 -12.6,-5.61094 -12.6,-12.6c0,-6.98906 5.61094,-12.6 12.6,-12.6zM192.15,132.3c-3.48223,0 -6.3,2.81777 -6.3,6.3c0,3.48223 2.81777,6.3 6.3,6.3c3.48223,0 6.3,-2.81777 6.3,-6.3c0,-3.48223 -2.81777,-6.3 -6.3,-6.3zM50.4,135.45c-1.73496,0 -3.15,1.41504 -3.15,3.15c0,1.73496 1.41504,3.15 3.15,3.15c1.73496,0 3.15,-1.41504 3.15,-3.15c0,-1.73496 -1.41504,-3.15 -3.15,-3.15zM50.4,148.05c-1.73496,0 -3.15,1.41504 -3.15,3.15c0,1.73496 1.41504,3.15 3.15,3.15c1.73496,0 3.15,-1.41504 3.15,-3.15c0,-1.73496 -1.41504,-3.15 -3.15,-3.15zM50.4,160.65c-1.73496,0 -3.15,1.41504 -3.15,3.15c0,1.73496 1.41504,3.15 3.15,3.15c1.73496,0 3.15,-1.41504 3.15,-3.15c0,-1.73496 -1.41504,-3.15 -3.15,-3.15zM201.6,160.65c-1.73496,0 -3.15,1.41504 -3.15,3.15c0,1.73496 1.41504,3.15 3.15,3.15c1.73496,0 3.15,-1.41504 3.15,-3.15c0,-1.73496 -1.41504,-3.15 -3.15,-3.15zM50.4,173.25c-1.73496,0 -3.15,1.41504 -3.15,3.15c0,1.73496 1.41504,3.15 3.15,3.15c1.73496,0 3.15,-1.41504 3.15,-3.15c0,-1.73496 -1.41504,-3.15 -3.15,-3.15zM201.6,173.25c-1.73496,0 -3.15,1.41504 -3.15,3.15c0,1.73496 1.41504,3.15 3.15,3.15c1.73496,0 3.15,-1.41504 3.15,-3.15c0,-1.73496 -1.41504,-3.15 -3.15,-3.15zM50.4,185.85c-1.73496,0 -3.15,1.41504 -3.15,3.15c0,1.73496 1.41504,3.15 3.15,3.15c1.73496,0 3.15,-1.41504 3.15,-3.15c0,-1.73496 -1.41504,-3.15 -3.15,-3.15zM201.6,185.85c-1.73496,0 -3.15,1.41504 -3.15,3.15c0,1.73496 1.41504,3.15 3.15,3.15c1.73496,0 3.15,-1.41504 3.15,-3.15c0,-1.73496 -1.41504,-3.15 -3.15,-3.15zM50.4,198.45c-1.73496,0 -3.15,1.41504 -3.15,3.15c0,1.73496 1.41504,3.15 3.15,3.15c1.73496,0 3.15,-1.41504 3.15,-3.15c0,-1.73496 -1.41504,-3.15 -3.15,-3.15zM63,198.45c-1.73496,0 -3.15,1.41504 -3.15,3.15c0,1.73496 1.41504,3.15 3.15,3.15c1.73496,0 3.15,-1.41504 3.15,-3.15c0,-1.73496 -1.41504,-3.15 -3.15,-3.15zM75.6,198.45c-1.73496,0 -3.15,1.41504 -3.15,3.15c0,1.73496 1.41504,3.15 3.15,3.15c1.73496,0 3.15,-1.41504 3.15,-3.15c0,-1.73496 -1.41504,-3.15 -3.15,-3.15zM88.2,198.45c-1.73496,0 -3.15,1.41504 -3.15,3.15c0,1.73496 1.41504,3.15 3.15,3.15c1.73496,0 3.15,-1.41504 3.15,-3.15c0,-1.73496 -1.41504,-3.15 -3.15,-3.15zM100.8,198.45c-1.73496,0 -3.15,1.41504 -3.15,3.15c0,1.73496 1.41504,3.15 3.15,3.15c1.73496,0 3.15,-1.41504 3.15,-3.15c0,-1.73496 -1.41504,-3.15 -3.15,-3.15zM113.4,198.45c-1.73496,0 -3.15,1.41504 -3.15,3.15c0,1.73496 1.41504,3.15 3.15,3.15c1.73496,0 3.15,-1.41504 3.15,-3.15c0,-1.73496 -1.41504,-3.15 -3.15,-3.15zM126,198.45c-1.73496,0 -3.15,1.41504 -3.15,3.15c0,1.73496 1.41504,3.15 3.15,3.15c1.73496,0 3.15,-1.41504 3.15,-3.15c0,-1.73496 -1.41504,-3.15 -3.15,-3.15zM138.6,198.45c-1.73496,0 -3.15,1.41504 -3.15,3.15c0,1.73496 1.41504,3.15 3.15,3.15c1.73496,0 3.15,-1.41504 3.15,-3.15c0,-1.73496 -1.41504,-3.15 -3.15,-3.15zM151.2,198.45c-1.73496,0 -3.15,1.41504 -3.15,3.15c0,1.73496 1.41504,3.15 3.15,3.15c1.73496,0 3.15,-1.41504 3.15,-3.15c0,-1.73496 -1.41504,-3.15 -3.15,-3.15zM163.8,198.45c-1.73496,0 -3.15,1.41504 -3.15,3.15c0,1.73496 1.41504,3.15 3.15,3.15c1.73496,0 3.15,-1.41504 3.15,-3.15c0,-1.73496 -1.41504,-3.15 -3.15,-3.15zM176.4,198.45c-1.73496,0 -3.15,1.41504 -3.15,3.15c0,1.73496 1.41504,3.15 3.15,3.15c1.73496,0 3.15,-1.41504 3.15,-3.15c0,-1.73496 -1.41504,-3.15 -3.15,-3.15zM189,198.45c-1.73496,0 -3.15,1.41504 -3.15,3.15c0,1.73496 1.41504,3.15 3.15,3.15c1.73496,0 3.15,-1.41504 3.15,-3.15c0,-1.73496 -1.41504,-3.15 -3.15,-3.15zM201.6,198.45c-1.73496,0 -3.15,1.41504 -3.15,3.15c0,1.73496 1.41504,3.15 3.15,3.15c1.73496,0 3.15,-1.41504 3.15,-3.15c0,-1.73496 -1.41504,-3.15 -3.15,-3.15z"></path></g></g><g id="subtracted-icon" fill="#000000"><g id="surface1 1"><path class="st0" d="M211.05,44.81367v13.22754c5.54941,2.44863 9.45,7.98574 9.45,14.40879v48.13594c1.87031,1.10742 3.15,3.11309 3.15,5.41406v25.2c0,2.30098 -1.27969,4.30664 -3.15,5.41406v48.13594c0,8.6625 -7.0875,15.75 -15.75,15.75h-157.5c-8.6625,0 -15.75,-7.0875 -15.75,-15.75v-151.40918c0,-5.05723 3.96211,-9.30234 9.00703,-9.64688l157.02012,-11.45566c7.25977,-0.5168 13.52285,5.30332 13.52285,12.57539zM40.95,49.96934h-0.0123c-1.79649,0.13535 -3.1377,1.5627 -3.1377,3.37149c0,1.89492 1.46426,3.35918 3.35918,3.35918h163.59082v-11.88633c0,-3.70371 -3.06387,-6.5584 -6.75527,-6.2877zM37.8,204.75c0,5.2541 4.1959,9.45 9.45,9.45h157.5c5.2541,0 9.45,-4.1959 9.45,-9.45v-47.25h-22.05c-9.29004,0 -16.69746,-6.90293 -18.26016,-15.75h-0.63984v-3.15c0,-10.39746 8.50254,-18.9 18.9,-18.9h22.05v-47.25c0,-5.2541 -4.1959,-9.45 -9.45,-9.45h-163.59082c-1.23047,0 -2.35019,-0.29531 -3.35918,-0.7752zM53.55,75.6c0,1.73496 -1.41504,3.15 -3.15,3.15c-1.73496,0 -3.15,-1.41504 -3.15,-3.15c0,-1.73496 1.41504,-3.15 3.15,-3.15c1.73496,0 3.15,1.41504 3.15,3.15zM66.15,75.6c0,1.73496 -1.41504,3.15 -3.15,3.15c-1.73496,0 -3.15,-1.41504 -3.15,-3.15c0,-1.73496 1.41504,-3.15 3.15,-3.15c1.73496,0 3.15,1.41504 3.15,3.15zM78.75,75.6c0,1.73496 -1.41504,3.15 -3.15,3.15c-1.73496,0 -3.15,-1.41504 -3.15,-3.15c0,-1.73496 1.41504,-3.15 3.15,-3.15c1.73496,0 3.15,1.41504 3.15,3.15zM91.35,75.6c0,1.73496 -1.41504,3.15 -3.15,3.15c-1.73496,0 -3.15,-1.41504 -3.15,-3.15c0,-1.73496 1.41504,-3.15 3.15,-3.15c1.73496,0 3.15,1.41504 3.15,3.15zM103.95,75.6c0,1.73496 -1.41504,3.15 -3.15,3.15c-1.73496,0 -3.15,-1.41504 -3.15,-3.15c0,-1.73496 1.41504,-3.15 3.15,-3.15c1.73496,0 3.15,1.41504 3.15,3.15zM116.55,75.6c0,1.73496 -1.41504,3.15 -3.15,3.15c-1.73496,0 -3.15,-1.41504 -3.15,-3.15c0,-1.73496 1.41504,-3.15 3.15,-3.15c1.73496,0 3.15,1.41504 3.15,3.15zM129.15,75.6c0,1.73496 -1.41504,3.15 -3.15,3.15c-1.73496,0 -3.15,-1.41504 -3.15,-3.15c0,-1.73496 1.41504,-3.15 3.15,-3.15c1.73496,0 3.15,1.41504 3.15,3.15zM141.75,75.6c0,1.73496 -1.41504,3.15 -3.15,3.15c-1.73496,0 -3.15,-1.41504 -3.15,-3.15c0,-1.73496 1.41504,-3.15 3.15,-3.15c1.73496,0 3.15,1.41504 3.15,3.15zM154.35,75.6c0,1.73496 -1.41504,3.15 -3.15,3.15c-1.73496,0 -3.15,-1.41504 -3.15,-3.15c0,-1.73496 1.41504,-3.15 3.15,-3.15c1.73496,0 3.15,1.41504 3.15,3.15zM166.95,75.6c0,1.73496 -1.41504,3.15 -3.15,3.15c-1.73496,0 -3.15,-1.41504 -3.15,-3.15c0,-1.73496 1.41504,-3.15 3.15,-3.15c1.73496,0 3.15,1.41504 3.15,3.15zM179.55,75.6c0,1.73496 -1.41504,3.15 -3.15,3.15c-1.73496,0 -3.15,-1.41504 -3.15,-3.15c0,-1.73496 1.41504,-3.15 3.15,-3.15c1.73496,0 3.15,1.41504 3.15,3.15zM192.15,75.6c0,1.73496 -1.41504,3.15 -3.15,3.15c-1.73496,0 -3.15,-1.41504 -3.15,-3.15c0,-1.73496 1.41504,-3.15 3.15,-3.15c1.73496,0 3.15,1.41504 3.15,3.15zM204.75,75.6c0,1.73496 -1.41504,3.15 -3.15,3.15c-1.73496,0 -3.15,-1.41504 -3.15,-3.15c0,-1.73496 1.41504,-3.15 3.15,-3.15c1.73496,0 3.15,1.41504 3.15,3.15zM53.55,88.2c0,1.73496 -1.41504,3.15 -3.15,3.15c-1.73496,0 -3.15,-1.41504 -3.15,-3.15c0,-1.73496 1.41504,-3.15 3.15,-3.15c1.73496,0 3.15,1.41504 3.15,3.15zM204.75,88.2c0,1.73496 -1.41504,3.15 -3.15,3.15c-1.73496,0 -3.15,-1.41504 -3.15,-3.15c0,-1.73496 1.41504,-3.15 3.15,-3.15c1.73496,0 3.15,1.41504 3.15,3.15zM53.55,100.8c0,1.73496 -1.41504,3.15 -3.15,3.15c-1.73496,0 -3.15,-1.41504 -3.15,-3.15c0,-1.73496 1.41504,-3.15 3.15,-3.15c1.73496,0 3.15,1.41504 3.15,3.15zM204.75,100.8c0,1.73496 -1.41504,3.15 -3.15,3.15c-1.73496,0 -3.15,-1.41504 -3.15,-3.15c0,-1.73496 1.41504,-3.15 3.15,-3.15c1.73496,0 3.15,1.41504 3.15,3.15zM53.55,113.4c0,1.73496 -1.41504,3.15 -3.15,3.15c-1.73496,0 -3.15,-1.41504 -3.15,-3.15c0,-1.73496 1.41504,-3.15 3.15,-3.15c1.73496,0 3.15,1.41504 3.15,3.15zM204.75,113.4c0,1.73496 -1.41504,3.15 -3.15,3.15c-1.73496,0 -3.15,-1.41504 -3.15,-3.15c0,-1.73496 1.41504,-3.15 3.15,-3.15c1.73496,0 3.15,1.41504 3.15,3.15zM53.55,126c0,1.73496 -1.41504,3.15 -3.15,3.15c-1.73496,0 -3.15,-1.41504 -3.15,-3.15c0,-1.73496 1.41504,-3.15 3.15,-3.15c1.73496,0 3.15,1.41504 3.15,3.15zM179.55,138.6c0,6.98906 5.61094,12.6 12.6,12.6h25.2v-25.2h-25.2c-6.98906,0 -12.6,5.61094 -12.6,12.6zM198.45,138.6c0,3.48223 -2.81777,6.3 -6.3,6.3c-3.48223,0 -6.3,-2.81777 -6.3,-6.3c0,-3.48223 2.81777,-6.3 6.3,-6.3c3.48223,0 6.3,2.81777 6.3,6.3zM53.55,138.6c0,1.73496 -1.41504,3.15 -3.15,3.15c-1.73496,0 -3.15,-1.41504 -3.15,-3.15c0,-1.73496 1.41504,-3.15 3.15,-3.15c1.73496,0 3.15,1.41504 3.15,3.15zM53.55,151.2c0,1.73496 -1.41504,3.15 -3.15,3.15c-1.73496,0 -3.15,-1.41504 -3.15,-3.15c0,-1.73496 1.41504,-3.15 3.15,-3.15c1.73496,0 3.15,1.41504 3.15,3.15zM53.55,163.8c0,1.73496 -1.41504,3.15 -3.15,3.15c-1.73496,0 -3.15,-1.41504 -3.15,-3.15c0,-1.73496 1.41504,-3.15 3.15,-3.15c1.73496,0 3.15,1.41504 3.15,3.15zM204.75,163.8c0,1.73496 -1.41504,3.15 -3.15,3.15c-1.73496,0 -3.15,-1.41504 -3.15,-3.15c0,-1.73496 1.41504,-3.15 3.15,-3.15c1.73496,0 3.15,1.41504 3.15,3.15zM53.55,176.4c0,1.73496 -1.41504,3.15 -3.15,3.15c-1.73496,0 -3.15,-1.41504 -3.15,-3.15c0,-1.73496 1.41504,-3.15 3.15,-3.15c1.73496,0 3.15,1.41504 3.15,3.15zM204.75,176.4c0,1.73496 -1.41504,3.15 -3.15,3.15c-1.73496,0 -3.15,-1.41504 -3.15,-3.15c0,-1.73496 1.41504,-3.15 3.15,-3.15c1.73496,0 3.15,1.41504 3.15,3.15zM53.55,189c0,1.73496 -1.41504,3.15 -3.15,3.15c-1.73496,0 -3.15,-1.41504 -3.15,-3.15c0,-1.73496 1.41504,-3.15 3.15,-3.15c1.73496,0 3.15,1.41504 3.15,3.15zM204.75,189c0,1.73496 -1.41504,3.15 -3.15,3.15c-1.73496,0 -3.15,-1.41504 -3.15,-3.15c0,-1.73496 1.41504,-3.15 3.15,-3.15c1.73496,0 3.15,1.41504 3.15,3.15zM53.55,201.6c0,1.73496 -1.41504,3.15 -3.15,3.15c-1.73496,0 -3.15,-1.41504 -3.15,-3.15c0,-1.73496 1.41504,-3.15 3.15,-3.15c1.73496,0 3.15,1.41504 3.15,3.15zM66.15,201.6c0,1.73496 -1.41504,3.15 -3.15,3.15c-1.73496,0 -3.15,-1.41504 -3.15,-3.15c0,-1.73496 1.41504,-3.15 3.15,-3.15c1.73496,0 3.15,1.41504 3.15,3.15zM78.75,201.6c0,1.73496 -1.41504,3.15 -3.15,3.15c-1.73496,0 -3.15,-1.41504 -3.15,-3.15c0,-1.73496 1.41504,-3.15 3.15,-3.15c1.73496,0 3.15,1.41504 3.15,3.15zM91.35,201.6c0,1.73496 -1.41504,3.15 -3.15,3.15c-1.73496,0 -3.15,-1.41504 -3.15,-3.15c0,-1.73496 1.41504,-3.15 3.15,-3.15c1.73496,0 3.15,1.41504 3.15,3.15zM103.95,201.6c0,1.73496 -1.41504,3.15 -3.15,3.15c-1.73496,0 -3.15,-1.41504 -3.15,-3.15c0,-1.73496 1.41504,-3.15 3.15,-3.15c1.73496,0 3.15,1.41504 3.15,3.15zM116.55,201.6c0,1.73496 -1.41504,3.15 -3.15,3.15c-1.73496,0 -3.15,-1.41504 -3.15,-3.15c0,-1.73496 1.41504,-3.15 3.15,-3.15c1.73496,0 3.15,1.41504 3.15,3.15zM129.15,201.6c0,1.73496 -1.41504,3.15 -3.15,3.15c-1.73496,0 -3.15,-1.41504 -3.15,-3.15c0,-1.73496 1.41504,-3.15 3.15,-3.15c1.73496,0 3.15,1.41504 3.15,3.15zM141.75,201.6c0,1.73496 -1.41504,3.15 -3.15,3.15c-1.73496,0 -3.15,-1.41504 -3.15,-3.15c0,-1.73496 1.41504,-3.15 3.15,-3.15c1.73496,0 3.15,1.41504 3.15,3.15zM154.35,201.6c0,1.73496 -1.41504,3.15 -3.15,3.15c-1.73496,0 -3.15,-1.41504 -3.15,-3.15c0,-1.73496 1.41504,-3.15 3.15,-3.15c1.73496,0 3.15,1.41504 3.15,3.15zM166.95,201.6c0,1.73496 -1.41504,3.15 -3.15,3.15c-1.73496,0 -3.15,-1.41504 -3.15,-3.15c0,-1.73496 1.41504,-3.15 3.15,-3.15c1.73496,0 3.15,1.41504 3.15,3.15zM179.55,201.6c0,1.73496 -1.41504,3.15 -3.15,3.15c-1.73496,0 -3.15,-1.41504 -3.15,-3.15c0,-1.73496 1.41504,-3.15 3.15,-3.15c1.73496,0 3.15,1.41504 3.15,3.15zM192.15,201.6c0,1.73496 -1.41504,3.15 -3.15,3.15c-1.73496,0 -3.15,-1.41504 -3.15,-3.15c0,-1.73496 1.41504,-3.15 3.15,-3.15c1.73496,0 3.15,1.41504 3.15,3.15zM204.75,201.6c0,1.73496 -1.41504,3.15 -3.15,3.15c-1.73496,0 -3.15,-1.41504 -3.15,-3.15c0,-1.73496 1.41504,-3.15 3.15,-3.15c1.73496,0 3.15,1.41504 3.15,3.15z"></path></g></g><g fill="#000000"><g id="Layer_1"><path class="st0" d="M165.84551,125.32932c-0.38429,-1.18122 -1.42692,-2.02856 -2.66484,-2.16085l-31.71351,-3.35153l-12.99032,-29.12742c-0.50399,-1.13398 -1.63166,-1.86476 -2.87589,-1.86476c-1.24422,0 -2.3719,0.73078 -2.87589,1.86791l-12.99032,29.12742l-31.71351,3.34838c-1.23792,0.1323 -2.28055,0.97648 -2.66484,2.16085c-0.38429,1.18437 -0.0378,2.48215 0.88513,3.31373l23.69064,21.35339l-6.61486,31.19693c-0.25829,1.21587 0.22365,2.4727 1.23162,3.20348c1.00798,0.73393 2.353,0.80323 3.42398,0.17955l27.62805,-15.92921l27.62805,15.92921c0.48509,0.28034 1.03003,0.42209 1.57182,0.42209c0.65204,0 1.30092,-0.2016 1.85216,-0.60164c1.00483,-0.73078 1.48992,-1.98446 1.23162,-3.20348l-6.61486,-31.19693l23.69064,-21.35339c0.92293,-0.83473 1.26942,-2.1325 0.88513,-3.31373zM135.70381,146.53151c-0.83473,0.75283 -1.20642,1.89311 -0.97333,2.99244l5.52498,26.06569l-23.0827,-13.30846c-0.48509,-0.28034 -1.02688,-0.42209 -1.57182,-0.42209c-0.54494,0 -1.08673,0.1386 -1.57182,0.42209l-23.0827,13.30846l5.52498,-26.06569c0.23309,-1.09933 -0.1386,-2.2396 -0.97333,-2.99244l-19.79102,-17.84121l26.49723,-2.80029c1.11508,-0.1197 2.08525,-0.82213 2.54514,-1.84901l10.85152,-24.33322l10.85152,24.33637c0.45989,1.02688 1.42692,1.73246 2.54514,1.84901l26.49723,2.80029z"></path></g></g></g></svg>