<?xml version="1.0" encoding="utf-8"?>
<!-- Generator: Adobe Illustrator 19.0.0, SVG Export Plug-In . SVG Version: 6.00 Build 0)  -->
<svg version="1.1" id="Layer_1" xmlns="http://www.w3.org/2000/svg" xmlns:xlink="http://www.w3.org/1999/xlink" x="0px" y="0px"
	 viewBox="350 -100 800 300" style="enable-background:new 350 -100 800 300;" xml:space="preserve">
<style type="text/css">
	.st0{fill:#FFFFFF;}
</style>
<g>
	<g>
		<path class="st0" d="M642.4,128l9.5-15.3h7.2L645.6,134v14.3h-6.5V134l-13.5-21.2h7.2L642.4,128L642.4,128z"/>
		<path class="st0" d="M661.1,148.3h-6.9l14.1-35.5h5.9l14.1,35.5h-6.9c0,0-8.9-23.3-10.1-27h-0.1C670,125,661.1,148.3,661.1,148.3z
			"/>
		<path class="st0" d="M779,148.3h-6.9l14.1-35.5h5.9l14.1,35.5h-6.9c0,0-8.9-23.3-10.1-27h-0.1C787.9,125,779,148.3,779,148.3z"/>
		<path class="st0" d="M720.7,123.4c0,2.5-0.7,4.6-2.1,6.3c-1.4,1.7-3.5,3-6.4,3.8v0.1l10.6,14.6h-7.8l-9.7-13.8h-4.5v13.8h-6.5
			v-35.5h10.8c1.8,0,3.5,0.1,5,0.3s2.9,0.5,4,0.9c2.1,0.8,3.7,2,4.8,3.5C720.1,119.1,720.7,121.1,720.7,123.4z M704.2,129.1
			c1.5,0,2.7-0.1,3.8-0.2c1-0.1,1.9-0.3,2.6-0.6c1.3-0.5,2.2-1.2,2.7-2c0.5-0.9,0.8-1.8,0.8-3c0-1-0.2-1.8-0.6-2.5
			c-0.4-0.7-1.1-1.3-2-1.7c-0.6-0.3-1.4-0.5-2.3-0.6c-0.9-0.1-2.1-0.2-3.5-0.2h-4.6v10.9H704.2z"/>
		<path class="st0" d="M747.9,138.7c0.8-2.8,1.7-5.8,2.9-9l6.1-17h9.1v35.5h-6.5v-18c0-2.6,0.1-5.7,0.3-9.2h-0.2
			c-0.3,1-0.7,2.1-1.1,3.4c-0.4,1.3-0.8,2.5-1.3,3.7l-7.4,20.1h-4.2l-7.4-20.1c-0.4-1.2-0.9-2.5-1.3-3.7c-0.4-1.3-0.8-2.4-1.1-3.4
			h-0.2c0.2,3.3,0.3,6.3,0.3,9.2v18h-6.5v-35.5h9.1l6.1,16.9c1,2.8,2,5.8,2.9,9.1H747.9z"/>
		<path class="st0" d="M812.5,148.3v-35.5h6.5v16.2h0.1l13.4-16.2h8.1l-14.8,17.6l16,17.9h-8.3l-14.4-16H819v16H812.5z"/>
	</g>
</g>
<g>
	<polygon class="st0" points="753.6,-34.8 733.7,-14.9 713.8,-34.8 708.8,-29.8 733.7,-4.9 758.6,-29.8 	"/>
	<polygon class="st0" points="684.2,-5.2 679.6,-0.6 702.7,22.4 702.7,42.6 709,48.9 709,19.5 	"/>
	<polygon class="st0" points="783.2,-5.2 758.4,19.5 758.4,48.9 764.7,42.6 764.7,22.4 787.8,-0.6 	"/>
	<polygon class="st0" points="723.8,-44.8 719.2,-40.2 733.7,-25.7 748.2,-40.2 743.6,-44.8 733.7,-34.9 	"/>
	<polygon class="st0" points="772.3,25.5 772.3,35 797.9,9.5 793.1,4.7 	"/>
	<polygon class="st0" points="723.6,63.5 723.6,13.7 694.5,-15.5 689.6,-10.6 716.6,16.4 716.6,56.5 	"/>
	<polygon class="st0" points="695.1,25.5 674.3,4.7 669.5,9.5 695.1,35 	"/>
	
		<rect x="730.5" y="-53.4" transform="matrix(-0.7071 0.7071 -0.7071 -0.7071 1217.0479 -604.4172)" class="st0" width="6.4" height="6.4"/>
	<polygon class="st0" points="777.8,-10.6 772.9,-15.5 743.8,13.7 743.8,63.5 750.8,56.5 750.8,16.4 	"/>
</g>
<path class="st0" d="M733.7-64.8L808,9.5l-74.2,74.2L659.5,9.5L733.7-64.8 M733.7-72.6l-3.9,3.9L655.6,5.6l-3.9,3.9l3.9,3.9
	l74.2,74.2l3.9,3.9l3.9-3.9l74.2-74.2l3.9-3.9l-3.9-3.9l-74.2-74.2L733.7-72.6L733.7-72.6z"/>
<rect x="681.1" y="94" transform="matrix(0.7071 0.7071 -0.7071 0.7071 267.3576 -454.6525)" class="st0" width="2.8" height="2.8"/>
<rect x="748.8" y="94" transform="matrix(0.7071 0.7071 -0.7071 0.7071 287.1818 -502.5122)" class="st0" width="2.8" height="2.8"/>
</svg>
