<?xml version="1.0" encoding="utf-8"?>
<!-- Generator: Adobe Illustrator 19.0.0, SVG Export Plug-In . SVG Version: 6.00 Build 0)  -->
<svg version="1.1" id="Layer_1" xmlns="http://www.w3.org/2000/svg" xmlns:xlink="http://www.w3.org/1999/xlink" x="0px" y="0px"
	 viewBox="0 0 542.7 586.2" style="enable-background:new 0 0 542.7 586.2;" xml:space="preserve">
<style type="text/css">
	.st0{opacity:0.3;}
	.st1{fill:#FFFFFF;}
	.st2{fill:url(#XMLID_91_);}
	.st3{fill:url(#XMLID_92_);}
	.st4{fill:url(#XMLID_94_);}
	.st5{fill:url(#XMLID_95_);}
	.st6{fill:url(#XMLID_96_);}
	.st7{fill:url(#XMLID_97_);}
</style>
<g id="XMLID_87_" class="st0">
	<path id="XMLID_89_" class="st1" d="M458.6,420.9v117.6H89.7v-30.2c199.6-235.4,227.1-273.4,227.1-316c0-26.9-17.7-44.9-43.1-44.9
		c-27.8,0-44.8,18.8-44.8,48.6v9.6H97.7v-9.2c0-100.3,65.7-166.6,174.3-166.6c105.2,0,177.9,64.7,177.9,157.8
		c0,62.4-23.1,110.3-129.2,233.2H458.6z"/>
</g>
<linearGradient id="XMLID_91_" gradientUnits="userSpaceOnUse" x1="87.2971" y1="379.8767" x2="458.8107" y2="379.8767">
	<stop  offset="0" style="stop-color:#D79889"/>
	<stop  offset="1" style="stop-color:#BA7B67"/>
	<stop  offset="1" style="stop-color:#B2735F"/>
</linearGradient>
<path id="XMLID_86_" class="st2" d="M141.3,537.1H92.1v-23.9c166.3-196.2,213.6-255.8,225.2-295.4h-5.1
	c-12.4,39.2-61,100.4-224.9,293.7v30.4h54.4C141.3,540.4,141.2,538.7,141.3,537.1z"/>
<linearGradient id="XMLID_92_" gradientUnits="userSpaceOnUse" x1="87.2971" y1="539.5325" x2="458.8107" y2="539.5325">
	<stop  offset="0" style="stop-color:#D79889"/>
	<stop  offset="1" style="stop-color:#BA7B67"/>
	<stop  offset="1" style="stop-color:#B2735F"/>
</linearGradient>
<path id="XMLID_85_" class="st3" d="M167.6,541.9h32.7c0-1.6,0.2-3.2,0.7-4.8h-33.1C168.1,538.7,168,540.4,167.6,541.9z"/>
<linearGradient id="XMLID_94_" gradientUnits="userSpaceOnUse" x1="87.2971" y1="32.6583" x2="458.8107" y2="32.6583">
	<stop  offset="0" style="stop-color:#D79889"/>
	<stop  offset="1" style="stop-color:#BA7B67"/>
	<stop  offset="1" style="stop-color:#B2735F"/>
</linearGradient>
<path id="XMLID_84_" class="st4" d="M246.6,35.7c7.9-0.8,15.9-1.2,24.3-1.2c2.8,0,5.5,0.1,8.2,0.1c0.2-1.6,0.7-3.2,1.5-4.7
	c-3.2-0.1-6.4-0.2-9.7-0.2c-8.7,0-17.2,0.5-25.3,1.3C246.2,32.5,246.5,34,246.6,35.7z"/>
<linearGradient id="XMLID_95_" gradientUnits="userSpaceOnUse" x1="87.2971" y1="120.8747" x2="458.8107" y2="120.8747">
	<stop  offset="0" style="stop-color:#D79889"/>
	<stop  offset="1" style="stop-color:#BA7B67"/>
	<stop  offset="1" style="stop-color:#B2735F"/>
</linearGradient>
<path id="XMLID_83_" class="st5" d="M272.5,143.3c-30.3,0-49.9,21.1-49.9,53.7v4.9H118.3c0.1-0.3,0.1-0.6,0.2-1v-3.6
	c0-48.4,15.5-89.2,44.9-117.9h-6.7c-27.8,29.1-43,69.6-43,117.9v4.6h-13.6v-4.5c0-48.7,15.7-89.6,45.3-118.3
	c19.7-19.1,45.1-32.3,74.9-39.1c-0.3-1.6-0.4-3.2-0.2-4.9C141.4,52.9,95.3,113.2,95.3,197.4v9.2h132V197c0-30.1,17.1-49,45.1-49
	c24.6,0,42,16.8,43.3,42.2h4.8C319.2,162.4,299.9,143.3,272.5,143.3z"/>
<linearGradient id="XMLID_96_" gradientUnits="userSpaceOnUse" x1="87.2971" y1="296.8602" x2="458.8107" y2="296.8602">
	<stop  offset="0" style="stop-color:#D79889"/>
	<stop  offset="1" style="stop-color:#BA7B67"/>
	<stop  offset="1" style="stop-color:#B2735F"/>
</linearGradient>
<path id="XMLID_1_" class="st6" d="M439.4,423.4v-0.2H320.1C426.8,299.6,450,251.4,450,188.6c0-61.1-31.1-110.1-82.1-136.8
	c-0.2,1.6-0.6,3.2-1.3,4.6c11.1,5.9,21.3,12.9,30.5,21.1c4.3,3.8,8.2,7.8,12,12c-4.9,4.8-3.8,12.8-1.2,19.7c0,0.1,0,0.2,0,0.2
	c0.1,0.2,0.3,0.5,0.4,0.7c1.1,2.7,2.3,5.2,3.5,7.3c-0.5,0.6-1.1,1.2-1.7,1.7c10.4,20.6,15.8,43.9,15.8,69.2
	c0,33.6-7.1,60.3-24.4,92.3c-4.1,7.6-8.8,15.5-14.2,23.9c-0.2,0.2-0.3,0.4-0.5,0.5c-0.2,0.2-0.4,0.4-0.6,0.6
	c-0.6,1.2-1.3,2.3-1.9,3.5c-8.1,12.3-17.7,25.6-29.2,40.4l-1.1,1.1c-2.7,3.7-5.5,7.3-8.5,10.6c-0.4,0.7-0.7,1.3-1.1,2
	c-13.5,16.9-29.1,35.7-47.4,56.8l-6.8,7.9h19.6l-0.2,0.2h125.1V537h-8.5c0,0.1,0,0.1,0,0.2h-58.8c0.5,1.5,0.7,3.2,0.7,4.8h90.8
	V423.4H439.4z M443.7,213.9l-17.9,17.9c1.2-5,2.1-9.9,2.8-14.9l16.3-16.3C444.7,205.2,444.3,209.6,443.7,213.9z M445.3,188.6
	c0,0.1,0,0.2,0,0.3L430,204.1c0.3-4.4,0.5-8.8,0.5-13.2l14.3-14.3C445.1,180.6,445.3,184.5,445.3,188.6z M443.8,166.8l-13.5,13.5
	c-0.2-4.2-0.5-8.3-1-12.4l12.6-12.6C442.7,159.1,443.3,162.9,443.8,166.8z M411.2,105.4l-0.9-14.3c2.4,2.7,4.6,5.5,6.8,8.4
	L411.2,105.4z M413.1,115.1c-0.3,0.7-0.8,1.3-1.2,1.9l-0.2-4l8.8-8.8c2.1,3.1,4.1,6.2,5.9,9.5l-9.4,9.4
	C415.8,120.4,414.5,117.7,413.1,115.1z M419.6,129.3l9.9-9.9c1.7,3.3,3.2,6.7,4.6,10.1l-10.6,10.6
	C422.3,136.5,421,132.8,419.6,129.3z M425.5,147.5l11.1-11.1c1.2,3.5,2.3,7.1,3.3,10.7L428,159.1
	C427.4,155.2,426.5,151.3,425.5,147.5z M420.8,248.9l20.3-20.3c-1.2,5.2-2.6,10.4-4.2,15.6l-23.9,23.9
	C416.1,261.5,418.7,255.1,420.8,248.9z M398.4,295.5l30.3-30.3c-2.3,5.1-4.9,10.3-7.8,15.6c-1.2,2.1-2.4,4.3-3.6,6.5l-39.4,39.4
	C385.8,315.6,392.6,305.3,398.4,295.5z M304.9,423.3h-4.4c11.2-12.9,21.4-25,30.8-36.4l61.1-61.1c-9.1,12.8-19.8,26.7-32.3,42.3
	L304.9,423.3z M439.4,428.2h1.6l-1.6,1.6V428.2z M454,532.6l-4.6,4.6h-2.6l7.2-7.2V532.6z M454,509.1l-14.7,14.7v-3.3l14.7-14.7
	V509.1z M454,485.6l-14.7,14.7v-3.9l14.7-14.7V485.6z M454,462.1l-14.7,14.7v-4.6l14.7-14.7V462.1z M454,438.6l-14.7,14.7V448
	l14.7-14.7V438.6z"/>
<linearGradient id="XMLID_97_" gradientUnits="userSpaceOnUse" x1="107.3338" y1="380.6065" x2="319.3058" y2="380.6065">
	<stop  offset="0" style="stop-color:#D79889"/>
	<stop  offset="1" style="stop-color:#BA7B67"/>
	<stop  offset="1" style="stop-color:#B2735F"/>
</linearGradient>
<path id="XMLID_292_" class="st7" d="M314.1,251.5c-26,42.5-83.7,112.6-206.8,257.8c0.2,0,0.3,0,0.5,0c1.9,0,3.7,0.1,5.5,0.3
	c123.3-145.5,180.4-215,206-257.3C317.5,252.2,315.8,251.9,314.1,251.5z"/>
</svg>
