<?xml version="1.0" encoding="utf-8"?>
<!-- Generator: Adobe Illustrator 19.0.0, SVG Export Plug-In . SVG Version: 6.00 Build 0)  -->
<svg version="1.1" xmlns="http://www.w3.org/2000/svg" xmlns:xlink="http://www.w3.org/1999/xlink" x="0px" y="0px"
	 viewBox="0 0 600 600" style="enable-background:new 0 0 600 600;" xml:space="preserve">
<style type="text/css">
	.st0{display:none;}
	.st1{display:inline;}
	.st2{opacity:0.1;fill:#F173AC;}
	.st3{fill:#EF599A;stroke:#EA88B8;stroke-width:2;stroke-miterlimit:10;}
	.st4{fill:#FFFFFF;}
	.st5{fill:#CDDAE2;}
	.st6{fill:#DEDFCB;}
	.st7{fill:#828AA0;}
	.st8{fill:#271A30;}
	.st9{fill:#909ABA;}
	.st10{fill:#475068;}
	.st11{fill:#CADBDB;}
	.st12{fill:#ED1C24;}
	.st13{fill:#828DA0;}
	.st14{fill:#373C52;}
	.st15{fill:#FAE8B8;}
	.st16{fill:#F9C965;}
	.st17{fill:#EEA120;}
	.st18{fill:#90A6B9;}
	.st19{fill:#E2F0F6;}
	.st20{fill:#D19659;}
	.st21{fill:#5A6B84;}
	.st22{fill:#474A68;}
	.st23{fill:#D19659;stroke:#FFFFFF;stroke-miterlimit:10;}
	.st24{fill:#801A19;}
	.st25{fill:#AA1E36;}
	.st26{fill:#C12B45;}
	.st27{fill:#ED4165;}
	.st28{fill:#F173AC;}
	.st29{fill:#EEB5D3;}
	.st30{fill:#FBDCE9;}
	.st31{fill:#F05D99;}
	.st32{opacity:0.5;fill:#27AAE1;}
	.st33{opacity:0.5;fill:#FFFFFF;}
	.st34{fill:none;stroke:#FFFFFF;stroke-miterlimit:10;}
	.st35{fill:none;stroke:#909ABA;stroke-miterlimit:10;}
	.st36{fill:#4069B2;}
	.st37{fill:#BE1E2D;}
	.st38{fill:none;stroke:#EF4136;stroke-miterlimit:10;}
	.st39{fill:none;stroke:#4E7DBF;stroke-miterlimit:10;}
</style>
<g id="Layer_2" class="st0">
	<rect id="XMLID_1_" x="0" class="st1" width="600" height="600"/>
</g>
<g id="Layer_3">
	<path id="XMLID_1944_" class="st2" d="M417,132.5c0,0-4.6-6.9,3.1-16.5c7.7-9.6,100.1-100.1,100.1-100.1v97.8L463,170.9
		c0,0-8.3,11.7-20,0C431.3,159.2,417,132.5,417,132.5z"/>
	<path id="XMLID_1945_" class="st2" d="M426.1,124.5c0,0-2.4-4.1,11.8-18.3c14.2-14.2,82.3-82.3,82.3-82.3v79.9L459,165
		c0,0-14,11.2-19.9,5.4C433.2,164.5,426.1,124.5,426.1,124.5z"/>
	<polygon id="XMLID_1942_" class="st3" points="417.9,137.5 518.2,39.2 518.2,93.5 433.5,178.2 	"/>
	<polygon id="XMLID_1943_" class="st4" points="418.6,142.2 519.1,41.8 519.1,88.7 440.2,167.6 	"/>
	<g id="XMLID_3_">
		<g id="XMLID_216_">
			<path id="XMLID_489_" class="st5" d="M437.2,141.8L303.6,275.4l6,6l128-128C437.9,150.3,437.8,146.5,437.2,141.8z"/>
			<path id="XMLID_433_" class="st6" d="M315.9,287.7l105.9-105.9c1.4-5.3,4.4-9.2,8.3-13.2c2.5-2.5,4.5-5,5.8-8.2L312.2,284.1
				L315.9,287.7z"/>
			
				<rect id="XMLID_385_" x="249.4" y="322.3" transform="matrix(0.7071 -0.7071 0.7071 0.7071 -155.1328 278.594)" class="st7" width="18.7" height="8.5"/>
			
				<rect id="XMLID_219_" x="290.7" y="280.9" transform="matrix(0.7071 -0.7071 0.7071 0.7071 -113.7714 295.7264)" class="st7" width="18.7" height="8.5"/>
			
				<rect id="XMLID_217_" x="259.2" y="301.8" transform="matrix(0.7071 -0.7071 0.7071 0.7071 -134.3165 286.8328)" class="st5" width="39.8" height="7.6"/>
		</g>
		
			<rect id="XMLID_215_" x="412.9" y="181.2" transform="matrix(-0.7071 0.7071 -0.7071 -0.7071 843.8463 22.5299)" class="st8" width="8.7" height="9.6"/>
		
			<rect id="XMLID_214_" x="421" y="160.4" transform="matrix(0.7071 -0.7071 0.7071 0.7071 4.4965 353.455)" class="st9" width="15.9" height="21.8"/>
		<polygon id="XMLID_213_" class="st10" points="432.2,156.6 426.8,158 442.2,173.4 447.6,172 		"/>
		<polygon id="XMLID_212_" class="st11" points="432.2,156.6 433.2,155.3 448.6,170.7 447.6,172 		"/>
		<polygon id="XMLID_211_" class="st11" points="414.2,174.6 415.6,169.2 431,184.6 429.6,190 		"/>
		<polygon id="XMLID_210_" class="st10" points="414.2,174.6 412.9,175.6 428.3,191 429.6,190 		"/>
		<path id="XMLID_209_" class="st12" d="M406.4,223.7c1.3,1.3-1.6,6.2-6.4,11c-4.8,4.8-9.7,7.6-11,6.4L406.4,223.7z"/>
		<polygon id="XMLID_207_" class="st5" points="162.7,462.8 125.1,425.2 234.6,315.7 272.2,353.3 268.2,357.4 		"/>
		
			<rect id="XMLID_206_" x="231.4" y="318.5" transform="matrix(0.7071 0.7071 -0.7071 0.7071 308.0097 -87.8464)" class="st13" width="57.3" height="18.7"/>
		
			<rect id="XMLID_205_" x="272.8" y="277.1" transform="matrix(0.7071 0.7071 -0.7071 0.7071 290.8772 -129.2077)" class="st13" width="57.3" height="18.7"/>
		<path id="XMLID_208_" class="st10" d="M417.2,141.6c0,0-0.9-1-2.2-0.6c-1.1,0.3-2-0.4-2-0.4l-15.2-15.2c-3.6-3.6-9.6-3.6-13.2,0
			l-3.7,3.7c-3.6,3.6-3.6,9.6,0,13.2l8.6,8.6l-1.1,1.1c0,0,4.1,4,4.2,7.6c0.2,4.4,1.3,5.3,1.3,5.3L417.2,141.6z"/>
		<path id="XMLID_204_" class="st5" d="M420.1,205.4c0,0,2.4-0.7,1.2-12c-1.3-11.8,2.5-18.3,9-24.7c6.4-6.4,9.4-12.6,6.6-30.4
			c-2.4-15.2-7.8-17.1-7.8-17.1l-46.5,46.5L420.1,205.4z"/>
		
			<rect id="XMLID_203_" x="288.7" y="206.6" transform="matrix(-0.7071 0.7071 -0.7071 -0.7071 770.4423 147.4097)" class="st5" width="131.9" height="53.3"/>
		<path id="XMLID_364_" class="st13" d="M161.6,453.5l259.7-259.7c0,0,1.2,9.8-0.5,10.9L166.8,458.7l-3.9-3.9"/>
		<path id="XMLID_368_" class="st14" d="M421.7,202c0,0,0,1.7-0.4,2.4S203.1,422.5,203.1,422.5l-0.9-0.9L421.7,202z"/>
		<path id="XMLID_358_" class="st13" d="M291.8,263.7l140-140c0,0-1.9-1.9-2.6-2.6c-0.7-0.7-140,140-140,140L291.8,263.7z"/>
		
			<rect id="XMLID_202_" x="111.2" y="372.3" transform="matrix(0.7071 -0.7071 0.7071 0.7071 -212.7328 236.5619)" class="st14" width="135.9" height="5.6"/>
		
			<rect id="XMLID_201_" x="110.1" y="368.3" transform="matrix(0.7071 -0.7071 0.7071 0.7071 -211.4851 233.5499)" class="st8" width="132.2" height="7.5"/>
		
			<rect id="XMLID_200_" x="253.6" y="310.4" transform="matrix(0.7071 -0.7071 0.7071 0.7071 -139.7753 300.0121)" class="st15" width="77.2" height="16.6"/>
		
			<rect id="XMLID_199_" x="260.2" y="324.3" transform="matrix(0.7071 -0.7071 0.7071 0.7071 -142.5092 306.6122)" class="st16" width="77.2" height="2"/>
		<g id="XMLID_168_">
			<polygon id="XMLID_198_" class="st17" points="274.8,344 270.3,348.5 262.4,340.7 267,336.2 267.6,336.8 263.8,340.7 
				270.3,347.2 274.2,343.3 			"/>
			
				<rect id="XMLID_196_" x="266.5" y="341.6" transform="matrix(0.7071 -0.7071 0.7071 0.7071 -162.4102 292.0386)" class="st17" width="9.7" height="0.9"/>
			
				<rect id="XMLID_195_" x="264.1" y="339.2" transform="matrix(0.7071 -0.7071 0.7071 0.7071 -161.4192 289.6461)" class="st17" width="9.7" height="0.9"/>
			
				<rect id="XMLID_194_" x="274.6" y="330.5" transform="matrix(0.7071 -0.7071 0.7071 0.7071 -157.0057 292.875)" class="st17" width="0.9" height="11"/>
			
				<rect id="XMLID_193_" x="276.9" y="328.1" transform="matrix(0.7071 -0.7071 0.7071 0.7071 -154.6792 293.8387)" class="st17" width="0.9" height="11"/>
			
				<rect id="XMLID_192_" x="279.2" y="325.8" transform="matrix(0.7071 -0.7071 0.7071 0.7071 -152.3527 294.8024)" class="st17" width="0.9" height="11"/>
			
				<rect id="XMLID_191_" x="281.5" y="323.5" transform="matrix(0.7071 -0.7071 0.7071 0.7071 -150.0258 295.7662)" class="st17" width="0.9" height="11"/>
			
				<rect id="XMLID_190_" x="283.9" y="321.2" transform="matrix(0.7071 -0.7071 0.7071 0.7071 -147.6993 296.7299)" class="st17" width="0.9" height="11"/>
			
				<rect id="XMLID_189_" x="286.2" y="318.8" transform="matrix(0.7071 -0.7071 0.7071 0.7071 -145.3728 297.6935)" class="st17" width="0.9" height="11"/>
			<polygon id="XMLID_188_" class="st17" points="322,296.8 317.4,301.4 316.8,300.7 320.7,296.8 314.1,290.3 310.3,294.2 
				309.6,293.5 314.1,289 			"/>
			
				<rect id="XMLID_187_" x="310.7" y="297.4" transform="matrix(0.7071 -0.7071 0.7071 0.7071 -118.2165 310.3443)" class="st17" width="9.7" height="0.9"/>
			
				<rect id="XMLID_186_" x="308.3" y="295" transform="matrix(0.7071 -0.7071 0.7071 0.7071 -117.2254 307.9518)" class="st17" width="9.7" height="0.9"/>
			
				<rect id="XMLID_185_" x="308.9" y="296" transform="matrix(0.7071 -0.7071 0.7071 0.7071 -122.6299 307.1147)" class="st17" width="0.9" height="11.1"/>
			
				<rect id="XMLID_184_" x="306.6" y="298.4" transform="matrix(0.7071 -0.7071 0.7071 0.7071 -124.9567 306.1509)" class="st17" width="0.9" height="11.1"/>
			
				<rect id="XMLID_183_" x="304.3" y="300.7" transform="matrix(0.7071 -0.7071 0.7071 0.7071 -127.2832 305.1872)" class="st17" width="0.9" height="11.1"/>
			
				<rect id="XMLID_182_" x="302" y="303" transform="matrix(0.7071 -0.7071 0.7071 0.7071 -129.61 304.2234)" class="st17" width="0.9" height="11.1"/>
			
				<rect id="XMLID_181_" x="299.6" y="305.3" transform="matrix(0.7071 -0.7071 0.7071 0.7071 -131.9365 303.2598)" class="st17" width="0.9" height="11.1"/>
			
				<rect id="XMLID_180_" x="297.3" y="307.7" transform="matrix(0.7071 -0.7071 0.7071 0.7071 -134.263 302.2961)" class="st17" width="0.9" height="11.1"/>
			
				<rect id="XMLID_179_" x="289.4" y="316.1" transform="matrix(0.7071 -0.7071 0.7071 0.7071 -142.2106 299.004)" class="st17" width="0.9" height="10.2"/>
			
				<rect id="XMLID_178_" x="291.8" y="313.7" transform="matrix(0.7071 -0.7071 0.7071 0.7071 -139.818 299.9951)" class="st17" width="0.9" height="10.2"/>
			
				<rect id="XMLID_177_" x="294.1" y="311.3" transform="matrix(0.7071 -0.7071 0.7071 0.7071 -137.4255 300.9861)" class="st17" width="0.9" height="10.2"/>
			
				<rect id="XMLID_176_" x="290.2" y="321.9" transform="matrix(0.7071 -0.7071 0.7071 0.7071 -141.3046 303.584)" class="st17" width="11.1" height="0.9"/>
			
				<rect id="XMLID_175_" x="283.1" y="314.7" transform="matrix(0.7071 -0.7071 0.7071 0.7071 -138.3315 296.4062)" class="st17" width="11.1" height="0.9"/>
			
				<rect id="XMLID_174_" x="285.5" y="317.1" transform="matrix(0.7071 -0.7071 0.7071 0.7071 -139.3225 298.7988)" class="st17" width="11.1" height="0.9"/>
			
				<rect id="XMLID_173_" x="287.9" y="319.5" transform="matrix(0.7071 -0.7071 0.7071 0.7071 -140.3135 301.1913)" class="st17" width="11.1" height="0.9"/>
			
				<rect id="XMLID_172_" x="268.4" y="334.1" transform="matrix(0.7071 -0.7071 0.7071 0.7071 -157.6364 288.4091)" class="st17" width="1.8" height="0.9"/>
			<polygon id="XMLID_171_" class="st17" points="277.4,341.3 276.1,342.5 275.5,341.9 276.8,340.7 			"/>
			
				<rect id="XMLID_170_" x="307" y="295.5" transform="matrix(0.7071 -0.7071 0.7071 0.7071 -119.0256 304.4022)" class="st17" width="1.8" height="0.9"/>
			<polygon id="XMLID_169_" class="st17" points="316,302.7 314.7,303.9 314.1,303.3 315.4,302.1 			"/>
		</g>
		<path id="XMLID_167_" class="st10" d="M126.8,416.1c-0.7-0.7-0.7-1.9,0-2.6l90.9-90.9c0.7-0.7,1.9-0.7,2.6,0"/>
		
			<rect id="XMLID_166_" x="134.8" y="391.9" transform="matrix(0.7071 -0.7071 0.7071 0.7071 -222.5062 260.157)" class="st14" width="135.9" height="13.5"/>
		
			<rect id="XMLID_165_" x="144.9" y="405.9" transform="matrix(0.7071 -0.7071 0.7071 0.7071 -226.6754 270.2222)" class="st14" width="135.9" height="5.6"/>
		
			<rect id="XMLID_164_" x="136.7" y="395.4" transform="matrix(0.7071 -0.7071 0.7071 0.7071 -222.5061 260.1569)" class="st10" width="132.2" height="6.5"/>
		<polygon id="XMLID_361_" class="st10" points="289.9,261.7 429.9,121.7 429,121 289,260.9 		"/>
		
			<rect id="XMLID_163_" x="149.8" y="408" transform="matrix(0.7071 -0.7071 0.7071 0.7071 -227.9229 273.2343)" class="st10" width="132.2" height="7.5"/>
		<path id="XMLID_162_" class="st8" d="M171.8,461.1c0.7,0.7,1.9,0.7,2.6,0l90.9-90.9c0.7-0.7,0.7-1.9,0-2.6"/>
		<path id="XMLID_161_" class="st8" d="M158.4,447.7c0.7,0.7,1.9,0.7,2.6,0l90.9-90.9c0.7-0.7,0.7-1.9,0-2.6"/>
		
			<rect id="XMLID_160_" x="143.1" y="415.4" transform="matrix(0.7071 -0.7071 0.7071 0.7071 -269.7868 232.6471)" class="st18" width="5.8" height="53.2"/>
		<path id="XMLID_159_" class="st9" d="M420,138.9c0,0-0.9-1-2.2-0.6c-1.1,0.3-2-0.4-2-0.4l-15.2-15.2c-3.6-3.6-9.6-3.6-13.2,0
			l-3.7,3.7c-3.6,3.6-3.6,9.6,0,13.2l8.6,8.6l-1.1,1.1c0,0,4.1,4,4.2,7.6c0.2,4.4,1.3,5.3,1.3,5.3L420,138.9z"/>
		<path id="XMLID_158_" class="st9" d="M404.6,220C404.6,220,404.6,220,404.6,220c-1.5,0.2-3.3,0.9-5.2,1.9l4.4,4.4l3.6-3.6
			L404.6,220z"/>
		<path id="XMLID_157_" class="st9" d="M385.3,239.3C385.3,239.3,385.3,239.3,385.3,239.3l2.8,2.8l3.6-3.6l-4.4-4.4
			C386.2,236,385.5,237.7,385.3,239.3z"/>
		<path id="XMLID_156_" class="st19" d="M392.6,227.3c-2.2,2.2-4,4.6-5.3,6.8l4.4,4.4l12.1-12.1l-4.4-4.4
			C397.2,223.2,394.8,225,392.6,227.3z"/>
		<path id="XMLID_155_" class="st9" d="M365.6,190.6C365.6,190.6,365.7,190.6,365.6,190.6c1.9,0.1,4.1-0.4,6.3-1.4l-4.8-4.8
			l-3.8,3.8L365.6,190.6z"/>
		<path id="XMLID_154_" class="st9" d="M386.4,169.9C386.4,169.9,386.4,169.9,386.4,169.9l-2.3-2.3l-3.8,3.8l4.8,4.8
			C386,173.9,386.4,171.8,386.4,169.9z"/>
		<path id="XMLID_153_" class="st19" d="M379.7,183.9c2.4-2.4,4.2-5.1,5.4-7.7l-4.8-4.8l-13.1,13.1l4.8,4.8
			C374.6,188.1,377.2,186.3,379.7,183.9z"/>
		
			<rect id="XMLID_152_" x="121.3" y="378.4" transform="matrix(0.7071 -0.7071 0.7071 0.7071 -216.902 246.6272)" class="st14" width="135.9" height="13.5"/>
		
			<rect id="XMLID_151_" x="123.2" y="381.9" transform="matrix(0.7071 -0.7071 0.7071 0.7071 -216.9019 246.6272)" class="st8" width="132.2" height="6.5"/>
		<path id="XMLID_150_" class="st10" d="M140.2,429.6c-0.7-0.7-0.7-1.9,0-2.6l90.9-90.9c0.7-0.7,1.9-0.7,2.6,0"/>
		<polygon id="XMLID_149_" class="st9" points="225.9,339 225.7,332.5 133.1,425.1 136.4,428.4 		"/>
		<polygon id="XMLID_148_" class="st9" points="252.3,365.4 252.1,358.9 159.5,451.5 162.8,454.8 		"/>
		<polygon id="XMLID_147_" class="st9" points="238.8,353 238.6,345.3 146,438 150,441.9 		"/>
		<polygon id="XMLID_146_" class="st13" points="129.2,421.1 156.3,456.5 162.7,462.8 166.8,458.8 		"/>
		<path id="XMLID_145_" class="st10" d="M410.9,207.4c-3.6,3.6-8.5,4.9-11.3,3c0.2,0.3,0.4,0.6,0.6,0.8c2.7,2.7,8.1,1.6,12.1-2.4
			c4-4,5.1-9.4,2.4-12.1c-0.2-0.2-0.5-0.4-0.8-0.6C415.8,199,414.6,203.8,410.9,207.4z"/>
		<path id="XMLID_144_" class="st8" d="M402.7,199.2c-3.6,3.6-4.9,8.5-3,11.3c2.9,1.8,7.7,0.6,11.3-3c3.6-3.6,4.9-8.5,3-11.3
			C411.1,194.3,406.3,195.5,402.7,199.2z"/>
		<path id="XMLID_143_" class="st20" d="M405.9,204.7c-0.5-0.5-1.7-0.2-2.6,0.6c-0.9,0.9-1.2,2-0.6,2.6c0.2,0.2,0.4,0.2,0.6,0.3l0,0
			l1.8,0.1l1.2-1.2l-0.1-1.9l0,0C406.1,205,406,204.8,405.9,204.7z"/>
		<circle id="XMLID_142_" class="st16" cx="405.2" cy="207.2" r="1.1"/>
		<path id="XMLID_141_" class="st20" d="M411.1,199.4c-0.5-0.5-1.7-0.2-2.6,0.6c-0.9,0.9-1.2,2-0.6,2.6c0.2,0.2,0.4,0.2,0.6,0.3l0,0
			l1.8,0.1l1.2-1.2l-0.1-1.9l0,0C411.4,199.8,411.3,199.6,411.1,199.4z"/>
		<circle id="XMLID_140_" class="st16" cx="410.5" cy="202" r="1.1"/>
		
			<rect id="XMLID_139_" x="358.8" y="177.3" transform="matrix(0.7071 -0.7071 0.7071 0.7071 -23.3572 307.4804)" class="st21" width="1.4" height="9.3"/>
		
			<rect id="XMLID_138_" x="359.8" y="176.3" transform="matrix(0.7071 -0.7071 0.7071 0.7071 -22.3439 307.9001)" class="st22" width="1.4" height="9.3"/>
		
			<rect id="XMLID_136_" x="360.8" y="175.3" transform="matrix(0.7071 -0.7071 0.7071 0.7071 -21.3307 308.3199)" class="st21" width="1.4" height="9.3"/>
		
			<rect id="XMLID_135_" x="361.8" y="174.2" transform="matrix(0.7071 -0.7071 0.7071 0.7071 -20.3174 308.7396)" class="st22" width="1.4" height="9.3"/>
		
			<rect id="XMLID_134_" x="362.8" y="173.2" transform="matrix(0.7071 -0.7071 0.7071 0.7071 -19.3044 309.1591)" class="st21" width="1.4" height="9.3"/>
		
			<rect id="XMLID_133_" x="363.8" y="172.2" transform="matrix(0.7071 -0.7071 0.7071 0.7071 -18.2916 309.5787)" class="st22" width="1.4" height="9.3"/>
		
			<rect id="XMLID_132_" x="364.8" y="171.2" transform="matrix(0.7071 -0.7071 0.7071 0.7071 -17.2785 309.9983)" class="st21" width="1.4" height="9.3"/>
		
			<rect id="XMLID_131_" x="365.9" y="170.2" transform="matrix(0.7071 -0.7071 0.7071 0.7071 -16.2652 310.418)" class="st22" width="1.4" height="9.3"/>
		
			<rect id="XMLID_130_" x="366.9" y="169.2" transform="matrix(0.7071 -0.7071 0.7071 0.7071 -15.252 310.8377)" class="st21" width="1.4" height="9.3"/>
		
			<rect id="XMLID_129_" x="367.9" y="168.2" transform="matrix(0.7071 -0.7071 0.7071 0.7071 -14.2387 311.2574)" class="st22" width="1.4" height="9.3"/>
		
			<rect id="XMLID_128_" x="368.9" y="167.1" transform="matrix(0.7071 -0.7071 0.7071 0.7071 -13.2254 311.6772)" class="st21" width="1.4" height="9.3"/>
		
			<rect id="XMLID_127_" x="369.9" y="166.1" transform="matrix(0.7071 -0.7071 0.7071 0.7071 -12.2121 312.0969)" class="st22" width="1.4" height="9.3"/>
		
			<rect id="XMLID_126_" x="370.9" y="165.1" transform="matrix(0.7071 -0.7071 0.7071 0.7071 -11.199 312.5165)" class="st21" width="1.4" height="9.3"/>
		
			<rect id="XMLID_125_" x="371.9" y="164.1" transform="matrix(0.7071 -0.7071 0.7071 0.7071 -10.1859 312.9362)" class="st22" width="1.4" height="9.3"/>
		
			<rect id="XMLID_124_" x="373" y="163.1" transform="matrix(0.7071 -0.7071 0.7071 0.7071 -9.1729 313.3558)" class="st21" width="1.4" height="9.3"/>
		
			<rect id="XMLID_123_" x="374" y="162.1" transform="matrix(0.7071 -0.7071 0.7071 0.7071 -8.16 313.7753)" class="st22" width="1.4" height="9.3"/>
		
			<rect id="XMLID_122_" x="375" y="161.1" transform="matrix(0.7071 -0.7071 0.7071 0.7071 -7.1467 314.1951)" class="st21" width="1.4" height="9.3"/>
		
			<rect id="XMLID_121_" x="376" y="160.1" transform="matrix(0.7071 -0.7071 0.7071 0.7071 -6.1334 314.6148)" class="st22" width="1.4" height="9.3"/>
		
			<rect id="XMLID_120_" x="377" y="159" transform="matrix(0.7071 -0.7071 0.7071 0.7071 -5.1203 315.0344)" class="st21" width="1.4" height="9.3"/>
		
			<rect id="XMLID_119_" x="358.8" y="175.8" transform="matrix(0.7071 -0.7071 0.7071 0.7071 -15.8367 315.115)" class="st8" width="27.2" height="1.7"/>
		<polyline id="XMLID_118_" class="st8" points="356.7,178.1 356,175.4 371.2,160.2 373.9,160.9 		"/>
		<path id="XMLID_117_" class="st20" d="M370.6,160.4c-1.4,0.2-4.7,2.6-8.1,6.1c-3.4,3.4-5.9,6.7-6.1,8.1L370.6,160.4z"/>
		
			<rect id="XMLID_116_" x="352.7" y="167.2" transform="matrix(0.7071 -0.7071 0.7071 0.7071 -12.0545 306.0263)" class="st10" width="21.5" height="0.7"/>
		<polygon id="XMLID_115_" class="st7" points="363.3,188.3 363.4,186.9 366.8,183.5 367.2,184.5 		"/>
		<polygon id="XMLID_114_" class="st7" points="384.1,167.6 382.7,167.6 379.3,171 380.2,171.4 		"/>
		<polygon id="XMLID_113_" class="st9" points="379.3,171 366.8,183.5 367.2,184.5 380.2,171.4 		"/>
		
			<rect id="XMLID_112_" x="270.3" y="346.7" transform="matrix(0.7071 -0.7071 0.7071 0.7071 -164.0335 299.35)" class="st14" width="18" height="2"/>
		
			<rect id="XMLID_111_" x="311.6" y="305.1" transform="matrix(-0.7071 0.7071 -0.7071 -0.7071 764.315 295.5318)" class="st14" width="18.7" height="2"/>
		<path id="XMLID_110_" class="st16" d="M281.5,344.1c0,0,5.1,6.8,13.8-5.8c8.7-12.6,14.8-7.8,22.1-14c7.3-6.2-1.7-14.3-1.7-14.3"/>
		<path id="XMLID_29_" class="st23" d="M285.7,339.9c0,0,3.8,5.1,10.4-4.4c6.6-9.5,11.2-5.9,16.6-10.6c5.5-4.7-1.3-10.8-1.3-10.8"/>
		<path id="XMLID_108_" class="st24" d="M400.9,233.9c4.3-4.5,6.7-8.9,5.5-10.1l-2.6,2.6L400.9,233.9z"/>
		
			<rect id="XMLID_107_" x="264.9" y="314.5" transform="matrix(0.7071 -0.7071 0.7071 0.7071 -145.2891 280.5823)" class="st5" width="2.3" height="2.3"/>
		
			<rect id="XMLID_106_" x="268.2" y="311.2" transform="matrix(0.7071 -0.7071 0.7071 0.7071 -141.9818 281.9523)" class="st5" width="2.3" height="2.3"/>
		
			<rect id="XMLID_28_" x="271.5" y="307.9" transform="matrix(0.7071 -0.7071 0.7071 0.7071 -138.6746 283.3221)" class="st5" width="2.3" height="2.3"/>
		
			<rect id="XMLID_27_" x="274.8" y="304.6" transform="matrix(0.7071 -0.7071 0.7071 0.7071 -135.3674 284.692)" class="st5" width="2.3" height="2.3"/>
		
			<rect id="XMLID_26_" x="278.1" y="301.3" transform="matrix(0.7071 -0.7071 0.7071 0.7071 -132.0599 286.062)" class="st5" width="2.3" height="2.3"/>
		
			<rect id="XMLID_25_" x="281.4" y="298" transform="matrix(0.7071 -0.7071 0.7071 0.7071 -128.7527 287.4319)" class="st5" width="2.3" height="2.3"/>
		
			<rect id="XMLID_24_" x="284.7" y="294.7" transform="matrix(0.7071 -0.7071 0.7071 0.7071 -125.4455 288.8018)" class="st5" width="2.3" height="2.3"/>
		
			<rect id="XMLID_23_" x="288" y="291.4" transform="matrix(0.7071 -0.7071 0.7071 0.7071 -122.1379 290.1718)" class="st5" width="2.3" height="2.3"/>
		
			<rect id="XMLID_22_" x="264.9" y="317.8" transform="matrix(0.7071 -0.7071 0.7071 0.7071 -147.6277 281.5509)" class="st5" width="2.3" height="2.3"/>
		
			<rect id="XMLID_21_" x="268.2" y="314.5" transform="matrix(0.7071 -0.7071 0.7071 0.7071 -144.3204 282.9209)" class="st5" width="2.3" height="2.3"/>
		
			<rect id="XMLID_20_" x="271.5" y="311.2" transform="matrix(0.7071 -0.7071 0.7071 0.7071 -141.0131 284.2908)" class="st5" width="2.3" height="2.3"/>
		
			<rect id="XMLID_19_" x="256.7" y="297.9" transform="matrix(0.7071 -0.7071 0.7071 0.7071 -133.2434 284.2465)" class="st5" width="39.7" height="10.2"/>
		
			<rect id="XMLID_18_" x="278.1" y="304.6" transform="matrix(0.7071 -0.7071 0.7071 0.7071 -134.3986 287.0306)" class="st5" width="2.3" height="2.3"/>
		
			<rect id="XMLID_17_" x="281.4" y="301.3" transform="matrix(0.7071 -0.7071 0.7071 0.7071 -131.0912 288.4006)" class="st5" width="2.3" height="2.3"/>
		
			<rect id="XMLID_16_" x="284.7" y="298" transform="matrix(0.7071 -0.7071 0.7071 0.7071 -127.784 289.7705)" class="st5" width="2.3" height="2.3"/>
		
			<rect id="XMLID_15_" x="288" y="294.7" transform="matrix(0.7071 -0.7071 0.7071 0.7071 -124.4766 291.1404)" class="st5" width="2.3" height="2.3"/>
		
			<rect id="XMLID_13_" x="268.2" y="317.8" transform="matrix(0.7071 -0.7071 0.7071 0.7071 -146.6592 283.8898)" class="st5" width="2.3" height="2.3"/>
		
			<rect id="XMLID_12_" x="271.5" y="314.5" transform="matrix(0.7071 -0.7071 0.7071 0.7071 -143.3518 285.2598)" class="st5" width="2.3" height="2.3"/>
		
			<rect id="XMLID_11_" x="274.8" y="311.2" transform="matrix(0.7071 -0.7071 0.7071 0.7071 -140.0446 286.6296)" class="st5" width="2.3" height="2.3"/>
		
			<rect id="XMLID_9_" x="281.4" y="304.6" transform="matrix(0.7071 -0.7071 0.7071 0.7071 -133.4299 289.3696)" class="st5" width="2.3" height="2.3"/>
		
			<rect id="XMLID_8_" x="284.7" y="301.3" transform="matrix(0.7071 -0.7071 0.7071 0.7071 -130.1227 290.7394)" class="st5" width="2.3" height="2.3"/>
		
			<rect id="XMLID_7_" x="288" y="298" transform="matrix(0.7071 -0.7071 0.7071 0.7071 -126.8155 292.1093)" class="st5" width="2.3" height="2.3"/>
		
			<rect id="XMLID_5_" x="245.5" y="307.3" transform="matrix(0.7071 -0.7071 0.7071 0.7071 -136.3817 291.8192)" class="st14" width="77.2" height="6.5"/>
		<path id="XMLID_4_" class="st10" d="M234.6,315.7c0,0,27.2,27.3,35.1,40.6l2.6-2.9L234.6,315.7z"/>
		<path id="XMLID_1940_" class="st19" d="M297,268.9l6,6c0,0,134.3-132.9,134.2-134.3c-0.5-4.7-2-9.7-2-9.7"/>
		<path id="XMLID_355_" class="st13" d="M305.4,277.3l132.2-132.2c0,0,0.4,0.8-0.1,1.8c-0.4,1-131.3,131.3-131.3,131.3
			S305.6,277.5,305.4,277.3z"/>
		<path id="XMLID_359_" class="st19" d="M315.9,287.7l83.5-83.5c0,0-1,1.9-0.3,5.4l-80.6,80.6L315.9,287.7z"/>
		<path id="XMLID_360_" class="st19" d="M407,196.2l15.4-15.2c0,0-1.4,3.3-1.4,7.5l-7.5,7.4C413.4,195.8,410.9,194.4,407,196.2z"/>
		<polygon id="XMLID_362_" class="st13" points="228,327.6 237.3,318.3 234.7,315.6 225.3,325 		"/>
		<path id="XMLID_363_" class="st10" d="M226,325.7l9.5-9.5l-0.7-0.7l-9.5,9.5C225.3,325,225.5,325.2,226,325.7z"/>
		<path id="XMLID_365_" class="st10" d="M271.5,354.8c0,0-26.3-28.2-39.3-36.5l3-2.5L271.5,354.8z"/>
		<polygon id="XMLID_366_" class="st25" points="251.2,305.6 279.1,277.6 290.4,288.9 262.3,316.9 		"/>
		<polygon id="XMLID_367_" class="st26" points="252.4,306.8 280.2,278.7 290.4,288.9 262.3,317 		"/>
		<polygon id="XMLID_374_" class="st27" points="251.8,306.2 279.7,278.2 288.7,287 260.6,315.1 255.8,310.2 		"/>
		<path id="XMLID_370_" class="st4" d="M256.9,311.5l5.8-14.5l10.1-4.1l3.7-4.3l8.8-4.8l2.7,2.7L260,314.6
			C260,314.6,257.5,312,256.9,311.5z"/>
		<polygon id="XMLID_372_" class="st28" points="260.6,297.1 253.1,307.6 256.6,311.1 262.4,296.6 272.6,292.5 276.3,288.3 
			285,283.4 282,280.4 276.9,285.5 272.1,288.4 270.7,291.2 261.7,293.7 		"/>
		<polygon id="XMLID_373_" class="st29" points="256,310.4 262.2,296.6 271.7,292.5 275.9,288.3 284.7,283 285.4,283.8 276.6,288.6 
			272.9,292.8 262.8,296.9 256.9,311.5 		"/>
		<polygon id="XMLID_371_" class="st30" points="249.6,304 277.8,276.2 279.2,277.5 251.2,305.6 		"/>
		<circle id="XMLID_377_" class="st31" cx="279.2" cy="283.7" r="0.3"/>
		<circle id="XMLID_378_" class="st31" cx="270.9" cy="286.6" r="0.5"/>
		<circle id="XMLID_379_" class="st31" cx="257.2" cy="301.3" r="0.4"/>
		<path id="XMLID_382_" class="st28" d="M271.7,286.3c0,0-0.3-1.7,1.7-1.7s1.3,2.9,0.6,3.3c-0.7,0.4-1.1,2.6-1.1,2.6
			s-1.1,2.2-1.4,0.4C271.2,289.1,272,286.2,271.7,286.3z"/>
		<path id="XMLID_381_" class="st4" d="M271.9,291.2l0.6-4.8c0,0,0.6-1.3,1-0.4s0,1.3-0.2,1.3c-0.2,0-0.6,0.1-0.6,0.4
			c0,0.3,0.4,1.6,0.2,1.6C272.7,289.2,272.2,292.2,271.9,291.2z"/>
		<path id="XMLID_383_" class="st31" d="M266.7,292.2c0,0-0.3-1.5,0.2-1.5c0.5,0,0.2,0.7,0.6,0.5c0.4-0.2,0.5,0.7,0,0.8
			C267,291.9,266.7,292.2,266.7,292.2z"/>
		<path id="XMLID_384_" class="st4" d="M266.8,291.7c0,0-0.2-0.7,0.1-0.6c0.3,0.1,0.1,0.3,0.1,0.3s0.3-0.1,0.4,0.1
			C267.5,291.6,266.8,291.7,266.8,291.7z"/>
		<path id="XMLID_386_" class="st4" d="M257,308c0,0,1.3,0.1,1.3-0.4s0.1-0.6,0.3-1s-0.9-0.3-1.3,0.3
			C256.9,307.5,257.5,308.1,257,308z"/>
		<circle id="XMLID_388_" class="st4" cx="260.1" cy="301.1" r="0.3"/>
		<circle id="XMLID_389_" class="st4" cx="281.1" cy="284.9" r="0.4"/>
		<circle id="XMLID_390_" class="st4" cx="282" cy="282.9" r="0.1"/>
		<circle id="XMLID_391_" class="st4" cx="271.3" cy="296.4" r="2.1"/>
	</g>
	<polygon id="XMLID_375_" class="st4" points="258.1,312.6 264,298.1 274.1,294 277.8,289.8 286.6,285 277.6,289.2 273.7,293.5 
		263.9,297.6 257.6,312 	"/>
	<polygon id="XMLID_1937_" class="st4" points="254.2,308.7 261,302.3 269.5,293 276.6,289.9 280.9,284 285.3,283.9 271.6,303.1 
		257.1,311.3 	"/>
	<path id="XMLID_357_" class="st3" d="M433.7,127.5"/>
	<path id="XMLID_10_" class="st32" d="M248.1,302.7l28.3-28.3L296,294l-28.3,28.3C267.7,322.3,247.7,302.2,248.1,302.7z"/>
	<path id="XMLID_14_" class="st33" d="M256.4,310.9l28-28l8.6,8.6L265,319.6C265,319.6,256.1,310.6,256.4,310.9z"/>
	<path id="XMLID_380_" class="st33" d="M250.5,305l28-28l2.1,2.1l-28.1,28.1C252.6,307.1,250.2,304.7,250.5,305z"/>
	<polygon id="XMLID_6_" class="st4" points="303,274.9 437.2,140.7 301.4,273.5 	"/>
	<polyline id="XMLID_2_" class="st34" points="270.8,351.9 325.4,297.3 313.7,285.5 	"/>
	<line id="XMLID_30_" class="st34" x1="309" y1="280.9" x2="287.8" y2="259.7"/>
	<line id="XMLID_32_" class="st34" x1="267.6" y1="322.3" x2="246.4" y2="301.1"/>
	<path id="XMLID_33_" class="st4" d="M253.9,302.6l12.4-12.4l11.6-11.6l2.9,2.9l-24,24C256.8,305.5,254,305,253.9,302.6z"/>
	<path id="XMLID_34_" class="st34" d="M382.6,128.2c-6.3,5.5,2.9,14.6,10.3,19.6l-1.7,1.5c0,0,5.2,5.5,4.5,9.5"/>
	<line id="XMLID_35_" class="st34" x1="364.5" y1="170.8" x2="367.1" y2="173.3"/>
	<line id="XMLID_36_" class="st34" x1="366.6" y1="168.7" x2="369.1" y2="171.3"/>
	<line id="XMLID_38_" class="st35" x1="368.6" y1="166.7" x2="371.1" y2="169.3"/>
	<line id="XMLID_37_" class="st35" x1="370.6" y1="164.6" x2="373.2" y2="167.2"/>
	<line id="XMLID_40_" class="st35" x1="360.4" y1="174.8" x2="363" y2="177.3"/>
	<line id="XMLID_39_" class="st35" x1="362.5" y1="172.7" x2="365" y2="175.3"/>
	<path id="XMLID_43_" class="st4" d="M227.9,202.8c-0.1,0-0.3-0.1-0.5-0.2c-0.3-0.5-0.7-1.3-0.7-1.6c-0.2-1.5-0.4-1.6-0.5-1.6
		c-0.1,0-0.3,0-0.5,1.6c0,0.3-0.4,1.1-0.7,1.7c-0.2,0.1-0.3,0.2-0.4,0.2c-1.2,0.2-1.2,0.4-1.2,0.4c0,0.1,0.1,0.3,1.2,0.4
		c0.1,0,0.3,0.1,0.4,0.2c0.3,0.5,0.7,1.3,0.7,1.6c0.2,1.6,0.4,1.6,0.5,1.6c0.1,0,0.3-0.1,0.5-1.6c0-0.3,0.4-1.1,0.7-1.7
		c0.2-0.1,0.3-0.2,0.4-0.2c1.1-0.2,1.2-0.3,1.2-0.4C229.1,203.1,229.1,202.9,227.9,202.8z"/>
	<path id="XMLID_42_" class="st4" d="M368.5,168.2c-0.1,0-0.3-0.1-0.5-0.2c-0.3-0.5-0.7-1.3-0.7-1.6c-0.2-1.5-0.4-1.6-0.5-1.6
		c-0.1,0-0.3,0-0.5,1.6c0,0.3-0.4,1.1-0.7,1.7c-0.2,0.1-0.3,0.2-0.4,0.2c-1.2,0.2-1.2,0.4-1.2,0.4c0,0.1,0.1,0.3,1.2,0.4
		c0.1,0,0.3,0.1,0.4,0.2c0.3,0.5,0.7,1.3,0.7,1.6c0.2,1.6,0.4,1.6,0.5,1.6c0.1,0,0.3-0.1,0.5-1.6c0-0.3,0.4-1.1,0.7-1.7
		c0.2-0.1,0.3-0.2,0.4-0.2c1.1-0.2,1.2-0.3,1.2-0.4C369.7,168.6,369.7,168.4,368.5,168.2z"/>
	<path id="XMLID_41_" class="st4" d="M327.6,296.7c-0.2,0-0.4-0.1-0.7-0.3c-0.5-0.9-1.1-2-1.2-2.6c-0.3-2.4-0.6-2.6-0.8-2.6
		c-0.1-0.1-0.5,0-0.8,2.6c-0.1,0.5-0.7,1.8-1.2,2.6c-0.3,0.1-0.5,0.2-0.7,0.3c-1.9,0.3-1.9,0.6-1.9,0.7c0,0.1,0.1,0.4,1.9,0.7
		c0.2,0,0.4,0.1,0.7,0.3c0.5,0.9,1.1,2.1,1.2,2.6c0.3,2.6,0.7,2.6,0.8,2.6c0.1,0,0.5-0.2,0.8-2.6c0.1-0.6,0.7-1.8,1.2-2.6
		c0.3-0.1,0.5-0.2,0.7-0.3c1.8-0.2,1.9-0.5,1.9-0.7C329.5,297.3,329.5,297,327.6,296.7z"/>
	<path id="XMLID_44_" class="st4" d="M303.4,273.8c-0.1,0-0.3-0.1-0.4-0.2c-0.3-0.5-0.7-1.3-0.7-1.6c-0.2-1.5-0.4-1.6-0.5-1.6
		c-0.1,0-0.3,0-0.5,1.6c0,0.3-0.4,1.1-0.7,1.6c-0.2,0.1-0.3,0.2-0.4,0.2c-1.2,0.2-1.2,0.4-1.2,0.4c0,0.1,0.1,0.3,1.2,0.4
		c0.1,0,0.3,0.1,0.4,0.2c0.3,0.5,0.7,1.3,0.7,1.6c0.2,1.6,0.4,1.6,0.5,1.6c0.1,0,0.3-0.1,0.5-1.6c0-0.3,0.4-1.1,0.7-1.6
		c0.2-0.1,0.3-0.1,0.4-0.2c1.1-0.2,1.2-0.3,1.2-0.4C304.6,274.2,304.6,274,303.4,273.8z"/>
	<path id="XMLID_31_" class="st4" d="M246.2,225.5c-0.2,0-0.4-0.1-0.7-0.3c-0.5-0.9-1.1-2-1.2-2.6c-0.3-2.4-0.6-2.6-0.8-2.6
		c-0.1-0.1-0.5,0-0.8,2.6c-0.1,0.5-0.7,1.8-1.2,2.6c-0.3,0.1-0.5,0.2-0.7,0.3c-1.9,0.3-1.9,0.6-1.9,0.7c0,0.1,0.1,0.4,1.9,0.7
		c0.2,0,0.4,0.1,0.7,0.3c0.5,0.9,1.1,2.1,1.2,2.6c0.3,2.6,0.7,2.6,0.8,2.6c0.1,0,0.5-0.2,0.8-2.6c0.1-0.6,0.7-1.8,1.2-2.6
		c0.3-0.1,0.5-0.2,0.7-0.3c1.8-0.2,1.9-0.5,1.9-0.7C248.1,226.1,248.1,225.7,246.2,225.5z"/>
	<path id="XMLID_45_" class="st4" d="M267.3,290.8c-0.1,0-0.3-0.1-0.5-0.2c-0.3-0.5-0.7-1.3-0.7-1.6c-0.2-1.5-0.4-1.6-0.5-1.6
		c-0.1,0-0.3,0-0.5,1.6c0,0.3-0.4,1.1-0.7,1.7c-0.2,0.1-0.3,0.2-0.4,0.2c-1.2,0.2-1.2,0.4-1.2,0.4c0,0.1,0.1,0.3,1.2,0.4
		c0.1,0,0.3,0.1,0.4,0.2c0.3,0.5,0.7,1.3,0.7,1.6c0.2,1.6,0.4,1.6,0.5,1.6c0.1,0,0.3-0.1,0.5-1.6c0-0.3,0.4-1.1,0.7-1.7
		c0.2-0.1,0.3-0.2,0.4-0.2c1.1-0.2,1.2-0.3,1.2-0.4C268.6,291.2,268.5,291,267.3,290.8z"/>
	<path id="XMLID_46_" class="st4" d="M401.9,229.4c-0.1,0-0.3-0.1-0.5-0.2c-0.3-0.5-0.7-1.3-0.7-1.6c-0.2-1.5-0.4-1.6-0.5-1.6
		c-0.1,0-0.3,0-0.5,1.6c0,0.3-0.4,1.1-0.7,1.7c-0.2,0.1-0.3,0.2-0.4,0.2c-1.2,0.2-1.2,0.4-1.2,0.4c0,0.1,0.1,0.3,1.2,0.4
		c0.1,0,0.3,0.1,0.4,0.2c0.3,0.5,0.7,1.3,0.7,1.6c0.2,1.6,0.4,1.6,0.5,1.6c0.1,0,0.3-0.1,0.5-1.6c0-0.3,0.4-1.1,0.7-1.7
		c0.2-0.1,0.3-0.2,0.4-0.2c1.1-0.2,1.2-0.3,1.2-0.4C403.1,229.7,403.1,229.5,401.9,229.4z"/>
	
		<rect id="XMLID_55_" x="448" y="261.7" transform="matrix(0.7071 -0.7071 0.7071 0.7071 -59.2108 402.2734)" class="st9" width="15.9" height="21.8"/>
	<polygon id="XMLID_54_" class="st5" points="459.2,257.9 453.9,259.3 469.3,274.7 474.7,273.3 	"/>
	<path id="XMLID_47_" class="st4" d="M384.3,130.3c-0.2,0-0.4-0.1-0.7-0.3c-0.5-0.9-1.1-2-1.2-2.6c-0.3-2.4-0.6-2.6-0.8-2.6
		c-0.1-0.1-0.5,0-0.8,2.6c-0.1,0.5-0.7,1.8-1.2,2.6c-0.3,0.1-0.5,0.2-0.7,0.3c-1.9,0.3-1.9,0.6-1.9,0.7c0,0.1,0.1,0.4,1.9,0.7
		c0.2,0,0.4,0.1,0.7,0.3c0.5,0.9,1.1,2.1,1.2,2.6c0.3,2.6,0.7,2.6,0.8,2.6c0.1,0,0.5-0.2,0.8-2.6c0.1-0.6,0.7-1.8,1.2-2.6
		c0.3-0.1,0.5-0.2,0.7-0.3c1.8-0.2,1.9-0.5,1.9-0.7C386.3,130.9,386.2,130.5,384.3,130.3z"/>
	<polyline id="XMLID_52_" class="st10" points="441.3,275.9 442.7,270.5 458.1,285.9 456.7,291.3 	"/>
	<polygon id="XMLID_49_" class="st10" points="441.3,275.9 440,276.9 455.4,292.3 456.7,291.3 	"/>
	<path id="XMLID_48_" class="st4" d="M451.2,171.5c-0.1,0-0.3-0.1-0.5-0.2c-0.3-0.5-0.7-1.3-0.7-1.6c-0.2-1.5-0.4-1.6-0.5-1.6
		c-0.1,0-0.3,0-0.5,1.6c0,0.3-0.4,1.1-0.7,1.7c-0.2,0.1-0.3,0.2-0.4,0.2c-1.2,0.2-1.2,0.4-1.2,0.4c0,0.1,0.1,0.3,1.2,0.4
		c0.1,0,0.3,0.1,0.4,0.2c0.3,0.5,0.7,1.3,0.7,1.6c0.2,1.6,0.4,1.6,0.5,1.6c0.1,0,0.3-0.1,0.5-1.6c0-0.3,0.4-1.1,0.7-1.7
		c0.2-0.1,0.3-0.2,0.4-0.2c1.1-0.2,1.2-0.3,1.2-0.4C452.4,171.8,452.4,171.6,451.2,171.5z"/>
	<path id="XMLID_50_" class="st36" d="M405.9,204.7c0,0,43.4,37.2,50.7,71.1c0,0-0.3,3.6-4.8,1.1c0,0-2.8-26.1-49.1-69
		C402.6,207.9,401.9,204.3,405.9,204.7z"/>
	<path id="XMLID_51_" class="st37" d="M411.1,199.4c0,0,43.4,37.2,50.7,71.1c0,0-0.3,3.6-4.8,1.1c0,0-2.1-26.5-49.1-69
		C407.9,202.6,407.1,199,411.1,199.4z"/>
	<path id="XMLID_56_" class="st38" d="M411.1,199.7c0,0-0.8,0-1.4,0.4c0,0,41.7,34.1,51.2,71.4"/>
	<path id="XMLID_57_" class="st39" d="M405.6,205.2c0,0-0.8,0-1.4,0.4c0,0,41.7,34.1,51.2,71.4"/>
</g>
</svg>
