<?xml version="1.0" encoding="utf-8"?>
<!-- Generator: Adobe Illustrator 19.0.0, SVG Export Plug-In . SVG Version: 6.00 Build 0)  -->
<svg version="1.1" xmlns="http://www.w3.org/2000/svg" xmlns:xlink="http://www.w3.org/1999/xlink" x="0px" y="0px"
	 viewBox="0 0 600 600" style="enable-background:new 0 0 600 600;" xml:space="preserve">
<style type="text/css">
	.st0{fill:none;}
	.st1{fill:none;stroke:#000000;stroke-width:0.72;}
	.st2{display:none;}
	.st3{display:inline;}
	.st4{fill:#FFFFFF;stroke:#000000;stroke-miterlimit:10;}
	.st5{fill:url(#_x31_0_lpi_10_x25_);stroke:#000000;stroke-miterlimit:10;}
	.st6{display:inline;fill:#FFFFFF;stroke:#000000;stroke-width:0.5;stroke-miterlimit:10;}
	.st7{display:inline;fill:url(#_x31_0_lpi_10_x25_);stroke:#000000;stroke-miterlimit:10;}
	.st8{font-family:'Mont-Light';}
	.st9{font-size:10px;}
	.st10{font-family:'Mont-Regular';}
	.st11{font-size:13px;}
	.st12{display:inline;fill:none;stroke:#000000;stroke-width:0.5;stroke-miterlimit:10;}
	.st13{fill:#CDDAE2;}
	.st14{fill:#DEDFCB;}
	.st15{fill:#828AA0;}
	.st16{fill:#271A30;}
	.st17{fill:#909ABA;}
	.st18{fill:#475068;}
	.st19{fill:#CADBDB;}
	.st20{fill:#E02A27;}
	.st21{fill:#828DA0;}
	.st22{fill:#373C52;}
	.st23{fill:#FAE8B8;}
	.st24{fill:#F9C965;}
	.st25{fill:#EEA120;}
	.st26{fill:#90A6B9;}
	.st27{fill:#E2F0F6;}
	.st28{fill:#D19659;}
	.st29{fill:#5A6B84;}
	.st30{fill:#474A68;}
	.st31{fill:#801A19;}
</style>
<pattern  width="72" height="72" patternUnits="userSpaceOnUse" id="_x31_0_lpi_10_x25_" viewBox="72.2 -72 72 72" style="overflow:visible;">
	<g>
		<polygon class="st0" points="72.2,-72 144.2,-72 144.2,0 72.2,0 		"/>
		<g>
			<line class="st1" x1="144" y1="-3.6" x2="216.5" y2="-3.6"/>
			<line class="st1" x1="144" y1="-18" x2="216.5" y2="-18"/>
			<line class="st1" x1="144" y1="-32.4" x2="216.5" y2="-32.4"/>
			<line class="st1" x1="144" y1="-46.8" x2="216.5" y2="-46.8"/>
			<line class="st1" x1="144" y1="-61.2" x2="216.5" y2="-61.2"/>
			<line class="st1" x1="144" y1="-10.8" x2="216.5" y2="-10.8"/>
			<line class="st1" x1="144" y1="-25.2" x2="216.5" y2="-25.2"/>
			<line class="st1" x1="144" y1="-39.6" x2="216.5" y2="-39.6"/>
			<line class="st1" x1="144" y1="-54" x2="216.5" y2="-54"/>
			<line class="st1" x1="144" y1="-68.4" x2="216.5" y2="-68.4"/>
		</g>
		<g>
			<line class="st1" x1="72" y1="-3.6" x2="144.5" y2="-3.6"/>
			<line class="st1" x1="72" y1="-18" x2="144.5" y2="-18"/>
			<line class="st1" x1="72" y1="-32.4" x2="144.5" y2="-32.4"/>
			<line class="st1" x1="72" y1="-46.8" x2="144.5" y2="-46.8"/>
			<line class="st1" x1="72" y1="-61.2" x2="144.5" y2="-61.2"/>
			<line class="st1" x1="72" y1="-10.8" x2="144.5" y2="-10.8"/>
			<line class="st1" x1="72" y1="-25.2" x2="144.5" y2="-25.2"/>
			<line class="st1" x1="72" y1="-39.6" x2="144.5" y2="-39.6"/>
			<line class="st1" x1="72" y1="-54" x2="144.5" y2="-54"/>
			<line class="st1" x1="72" y1="-68.4" x2="144.5" y2="-68.4"/>
		</g>
		<g>
			<line class="st1" x1="0" y1="-3.6" x2="72.5" y2="-3.6"/>
			<line class="st1" x1="0" y1="-18" x2="72.5" y2="-18"/>
			<line class="st1" x1="0" y1="-32.4" x2="72.5" y2="-32.4"/>
			<line class="st1" x1="0" y1="-46.8" x2="72.5" y2="-46.8"/>
			<line class="st1" x1="0" y1="-61.2" x2="72.5" y2="-61.2"/>
			<line class="st1" x1="0" y1="-10.8" x2="72.5" y2="-10.8"/>
			<line class="st1" x1="0" y1="-25.2" x2="72.5" y2="-25.2"/>
			<line class="st1" x1="0" y1="-39.6" x2="72.5" y2="-39.6"/>
			<line class="st1" x1="0" y1="-54" x2="72.5" y2="-54"/>
			<line class="st1" x1="0" y1="-68.4" x2="72.5" y2="-68.4"/>
		</g>
	</g>
</pattern>
<g id="Layer_1" class="st2">
	<g id="XMLID_479_" class="st3">
		<path id="XMLID_488_" class="st4" d="M389.2,240.9c1.3,1.3,6.2-1.6,11-6.4c0.5-0.5,1-1.1,1.5-1.6c0,0,0.1-0.1,0.1-0.1
			c0.2-0.2,0.4-0.4,0.5-0.6c0.1-0.1,0.2-0.2,0.2-0.3c0.2-0.2,0.3-0.4,0.4-0.5c0.1-0.1,0.2-0.2,0.3-0.3c0.1-0.2,0.3-0.3,0.4-0.5
			c0.1-0.1,0.2-0.2,0.3-0.3c0.1-0.2,0.2-0.3,0.3-0.5c0.1-0.1,0.2-0.2,0.2-0.3c0.1-0.1,0.2-0.3,0.3-0.4c0.1-0.1,0.2-0.2,0.2-0.4
			c0.1-0.1,0.2-0.3,0.3-0.4c0.1-0.1,0.1-0.2,0.2-0.3c0.1-0.1,0.1-0.3,0.2-0.4c0.1-0.1,0.1-0.2,0.2-0.3c0.1-0.1,0.1-0.2,0.2-0.3
			c0.1-0.1,0.1-0.2,0.2-0.3c0-0.1,0.1-0.2,0.1-0.3c0-0.1,0.1-0.2,0.1-0.3c0-0.1,0.1-0.2,0.1-0.3c0-0.1,0.1-0.2,0.1-0.3
			c0-0.1,0-0.2,0.1-0.2c0-0.1,0-0.2,0-0.3c0-0.1,0-0.1,0-0.2c0-0.1,0-0.2,0-0.3c0-0.1,0-0.1,0-0.2c0-0.1,0-0.2-0.1-0.2
			c0,0,0-0.1,0-0.1c0-0.1-0.1-0.2-0.2-0.3l-2.6,2.6l0,0L389.2,240.9z"/>
	</g>
	<g id="XMLID_29_" class="st3">
		<g id="XMLID_274_">
			<path id="XMLID_279_" class="st4" d="M437.1,141.9L303.5,275.5l6,6l128-128C437.8,150.4,437.7,146.6,437.1,141.9z"/>
			<path id="XMLID_278_" class="st4" d="M315.7,287.8l105.9-105.9c1.4-5.3,4.4-9.2,8.3-13.2c2.5-2.5,4.5-5,5.8-8.2L312.1,284.2
				L315.7,287.8z"/>
			
				<rect id="XMLID_277_" x="249.2" y="322.4" transform="matrix(0.7071 -0.7071 0.7071 0.7071 -155.2349 278.5369)" class="st4" width="18.7" height="8.5"/>
			
				<rect id="XMLID_276_" x="290.6" y="281" transform="matrix(0.7071 -0.7071 0.7071 0.7071 -113.8736 295.6693)" class="st4" width="18.7" height="8.5"/>
			
				<rect id="XMLID_275_" x="259.1" y="301.9" transform="matrix(0.7071 -0.7071 0.7071 0.7071 -134.4186 286.7757)" class="st4" width="39.8" height="7.6"/>
		</g>
		
			<rect id="XMLID_273_" x="412.8" y="181.3" transform="matrix(-0.7071 0.7071 -0.7071 -0.7071 843.7084 22.7764)" class="st4" width="8.7" height="9.6"/>
		<polygon id="XMLID_272_" class="st5" points="426.7,158.1 415.5,169.3 430.9,184.7 442.1,173.5 		"/>
		<polygon id="XMLID_271_" class="st4" points="432,156.7 426.7,158.1 442.1,173.5 447.5,172.1 		"/>
		<polygon id="XMLID_270_" class="st4" points="432,156.7 433.1,155.4 448.5,170.8 447.5,172.1 		"/>
		<polygon id="XMLID_269_" class="st4" points="414.1,174.7 415.5,169.3 430.9,184.7 429.5,190.1 		"/>
		<polygon id="XMLID_268_" class="st4" points="414.1,174.7 412.8,175.7 428.2,191.1 429.5,190.1 		"/>
		<path id="XMLID_267_" class="st4" d="M406.3,223.8c1.3,1.3-1.6,6.2-6.4,11c-4.8,4.8-9.7,7.6-11,6.4L406.3,223.8z"/>
		<path id="XMLID_266_" class="st5" d="M417.1,141.7c0,0-0.9-1-2.2-0.6c-1.1,0.3-2-0.4-2-0.4l-15.2-15.2c-3.6-3.6-9.6-3.6-13.2,0
			l-3.7,3.7c-3.6,3.6-3.6,9.6,0,13.2l8.6,8.6l-1.1,1.1c0,0,4.1,4,4.2,7.6c0.2,4.4,1.3,5.3,1.3,5.3L417.1,141.7z"/>
		<polygon id="XMLID_265_" class="st4" points="162.6,462.9 125,425.3 234.5,315.8 272.1,353.4 268,357.5 		"/>
		<polygon id="XMLID_264_" class="st5" points="273.5,354.8 233.1,314.4 246.3,301.1 286.8,341.6 		"/>
		<polygon id="XMLID_263_" class="st5" points="314.9,313.5 274.4,273 287.7,259.7 328.2,300.2 		"/>
		<path id="XMLID_262_" class="st4" d="M420,205.5c0,0,2.4-0.7,1.2-12c-1.3-11.8,2.5-18.3,9-24.7c6.4-6.4,9.4-12.6,6.6-30.4
			c-2.4-15.2-7.8-17.1-7.8-17.1l-46.5,46.5L420,205.5z"/>
		
			<rect id="XMLID_261_" x="288.6" y="206.7" transform="matrix(-0.7071 0.7071 -0.7071 -0.7071 770.3045 147.6561)" class="st4" width="131.9" height="53.3"/>
		
			<rect id="XMLID_260_" x="111.1" y="372.4" transform="matrix(0.7071 -0.7071 0.7071 0.7071 -212.8349 236.5048)" class="st4" width="135.9" height="5.6"/>
		
			<rect id="XMLID_259_" x="110" y="368.4" transform="matrix(0.7071 -0.7071 0.7071 0.7071 -211.5872 233.4928)" class="st4" width="132.2" height="7.5"/>
		
			<rect id="XMLID_258_" x="253.5" y="310.5" transform="matrix(0.7071 -0.7071 0.7071 0.7071 -139.8774 299.955)" class="st4" width="77.2" height="16.6"/>
		
			<rect id="XMLID_257_" x="260.1" y="324.4" transform="matrix(0.7071 -0.7071 0.7071 0.7071 -142.6113 306.5551)" class="st4" width="77.2" height="2"/>
		<g id="XMLID_227_">
			<polygon id="XMLID_256_" class="st4" points="274.7,344.1 270.2,348.6 262.3,340.8 266.9,336.3 267.5,336.9 263.6,340.8 
				270.2,347.3 274,343.4 			"/>
			
				<rect id="XMLID_255_" x="266.4" y="341.7" transform="matrix(0.7071 -0.7071 0.7071 0.7071 -162.5124 291.9815)" class="st4" width="9.7" height="0.9"/>
			
				<rect id="XMLID_254_" x="264" y="339.3" transform="matrix(0.7071 -0.7071 0.7071 0.7071 -161.5213 289.589)" class="st4" width="9.7" height="0.9"/>
			
				<rect id="XMLID_253_" x="274.4" y="330.6" transform="matrix(0.7071 -0.7071 0.7071 0.7071 -157.1078 292.8179)" class="st4" width="0.9" height="11"/>
			
				<rect id="XMLID_252_" x="276.8" y="328.2" transform="matrix(0.7071 -0.7071 0.7071 0.7071 -154.7813 293.7816)" class="st4" width="0.9" height="11"/>
			
				<rect id="XMLID_251_" x="279.1" y="325.9" transform="matrix(0.7071 -0.7071 0.7071 0.7071 -152.4548 294.7453)" class="st4" width="0.9" height="11"/>
			
				<rect id="XMLID_250_" x="281.4" y="323.6" transform="matrix(0.7071 -0.7071 0.7071 0.7071 -150.1279 295.7091)" class="st4" width="0.9" height="11"/>
			
				<rect id="XMLID_249_" x="283.7" y="321.2" transform="matrix(0.7071 -0.7071 0.7071 0.7071 -147.8014 296.6728)" class="st4" width="0.9" height="11"/>
			
				<rect id="XMLID_248_" x="286.1" y="318.9" transform="matrix(0.7071 -0.7071 0.7071 0.7071 -145.4749 297.6364)" class="st4" width="0.9" height="11"/>
			<polygon id="XMLID_247_" class="st4" points="321.9,296.9 317.3,301.5 316.7,300.8 320.5,296.9 314,290.4 310.2,294.3 
				309.5,293.6 314,289.1 			"/>
			
				<rect id="XMLID_246_" x="310.5" y="297.5" transform="matrix(0.7071 -0.7071 0.7071 0.7071 -118.3186 310.2872)" class="st4" width="9.7" height="0.9"/>
			
				<rect id="XMLID_245_" x="308.2" y="295.1" transform="matrix(0.7071 -0.7071 0.7071 0.7071 -117.3275 307.8947)" class="st4" width="9.7" height="0.9"/>
			
				<rect id="XMLID_244_" x="308.8" y="296.1" transform="matrix(0.7071 -0.7071 0.7071 0.7071 -122.732 307.0576)" class="st4" width="0.9" height="11.1"/>
			
				<rect id="XMLID_243_" x="306.5" y="298.5" transform="matrix(0.7071 -0.7071 0.7071 0.7071 -125.0588 306.0938)" class="st4" width="0.9" height="11.1"/>
			
				<rect id="XMLID_242_" x="304.2" y="300.8" transform="matrix(0.7071 -0.7071 0.7071 0.7071 -127.3853 305.1302)" class="st4" width="0.9" height="11.1"/>
			
				<rect id="XMLID_241_" x="301.8" y="303.1" transform="matrix(0.7071 -0.7071 0.7071 0.7071 -129.7122 304.1664)" class="st4" width="0.9" height="11.1"/>
			
				<rect id="XMLID_240_" x="299.5" y="305.4" transform="matrix(0.7071 -0.7071 0.7071 0.7071 -132.0387 303.2027)" class="st4" width="0.9" height="11.1"/>
			
				<rect id="XMLID_239_" x="297.2" y="307.8" transform="matrix(0.7071 -0.7071 0.7071 0.7071 -134.3651 302.239)" class="st4" width="0.9" height="11.1"/>
			
				<rect id="XMLID_238_" x="289.2" y="316.2" transform="matrix(0.7071 -0.7071 0.7071 0.7071 -142.3127 298.9469)" class="st4" width="0.9" height="10.2"/>
			
				<rect id="XMLID_237_" x="291.6" y="313.8" transform="matrix(0.7071 -0.7071 0.7071 0.7071 -139.9201 299.938)" class="st4" width="0.9" height="10.2"/>
			
				<rect id="XMLID_236_" x="294" y="311.4" transform="matrix(0.7071 -0.7071 0.7071 0.7071 -137.5276 300.929)" class="st4" width="0.9" height="10.2"/>
			
				<rect id="XMLID_235_" x="290.1" y="322" transform="matrix(0.7071 -0.7071 0.7071 0.7071 -141.4067 303.5269)" class="st4" width="11.1" height="0.9"/>
			
				<rect id="XMLID_234_" x="282.9" y="314.8" transform="matrix(0.7071 -0.7071 0.7071 0.7071 -138.4336 296.3492)" class="st4" width="11.1" height="0.9"/>
			
				<rect id="XMLID_233_" x="285.3" y="317.2" transform="matrix(0.7071 -0.7071 0.7071 0.7071 -139.4246 298.7418)" class="st4" width="11.1" height="0.9"/>
			
				<rect id="XMLID_232_" x="287.7" y="319.6" transform="matrix(0.7071 -0.7071 0.7071 0.7071 -140.4156 301.1343)" class="st4" width="11.1" height="0.9"/>
			
				<rect id="XMLID_231_" x="268.3" y="334.2" transform="matrix(0.7071 -0.7071 0.7071 0.7071 -157.7385 288.352)" class="st4" width="1.8" height="0.9"/>
			<polygon id="XMLID_230_" class="st4" points="277.3,341.4 276,342.6 275.4,342 276.7,340.8 			"/>
			
				<rect id="XMLID_229_" x="306.9" y="295.5" transform="matrix(0.7071 -0.7071 0.7071 0.7071 -119.1277 304.3452)" class="st4" width="1.8" height="0.9"/>
			<polygon id="XMLID_228_" class="st4" points="315.9,302.8 314.6,304 314,303.4 315.3,302.2 			"/>
		</g>
		<path id="XMLID_226_" class="st4" d="M126.7,416.2c-0.7-0.7-0.7-1.9,0-2.6l90.9-90.9c0.7-0.7,1.9-0.7,2.6,0"/>
		
			<rect id="XMLID_225_" x="134.7" y="392" transform="matrix(0.7071 -0.7071 0.7071 0.7071 -222.6083 260.0999)" class="st4" width="135.9" height="13.5"/>
		
			<rect id="XMLID_224_" x="144.8" y="406" transform="matrix(0.7071 -0.7071 0.7071 0.7071 -226.7775 270.1651)" class="st4" width="135.9" height="5.6"/>
		
			<rect id="XMLID_223_" x="136.6" y="395.5" transform="matrix(0.7071 -0.7071 0.7071 0.7071 -222.6082 260.0998)" class="st4" width="132.2" height="6.5"/>
		
			<rect id="XMLID_222_" x="149.7" y="408.1" transform="matrix(0.7071 -0.7071 0.7071 0.7071 -228.025 273.1772)" class="st4" width="132.2" height="7.5"/>
		<path id="XMLID_221_" class="st4" d="M171.7,461.2c0.7,0.7,1.9,0.7,2.6,0l90.9-90.9c0.7-0.7,0.7-1.9,0-2.6"/>
		<path id="XMLID_220_" class="st4" d="M158.2,447.8c0.7,0.7,1.9,0.7,2.6,0l90.9-90.9c0.7-0.7,0.7-1.9,0-2.6"/>
		
			<rect id="XMLID_218_" x="142.9" y="415.5" transform="matrix(0.7071 -0.7071 0.7071 0.7071 -269.8889 232.59)" class="st4" width="5.8" height="53.2"/>
		<path id="XMLID_197_" class="st4" d="M419.9,139c0,0-0.9-1-2.2-0.6c-1.1,0.3-2-0.4-2-0.4l-15.2-15.2c-3.6-3.6-9.6-3.6-13.2,0
			l-3.7,3.7c-3.6,3.6-3.6,9.6,0,13.2l8.6,8.6l-1.1,1.1c0,0,4.1,4,4.2,7.6c0.2,4.4,1.3,5.3,1.3,5.3L419.9,139z"/>
		<path id="XMLID_137_" class="st4" d="M404.5,220.1C404.5,220.1,404.5,220.1,404.5,220.1c-1.5,0.2-3.3,0.9-5.2,1.9l4.4,4.4l3.6-3.6
			L404.5,220.1z"/>
		<path id="XMLID_105_" class="st4" d="M385.2,239.3C385.2,239.4,385.2,239.4,385.2,239.3l2.8,2.8l3.6-3.6l-4.4-4.4
			C386.1,236.1,385.4,237.8,385.2,239.3z"/>
		<path id="XMLID_104_" class="st5" d="M392.5,227.4c-2.2,2.2-4,4.6-5.3,6.8l4.4,4.4l12.1-12.1l-4.4-4.4
			C397.1,223.3,394.7,225.1,392.5,227.4z"/>
		<path id="XMLID_103_" class="st4" d="M365.5,190.7C365.5,190.7,365.5,190.7,365.5,190.7c1.9,0.1,4.1-0.4,6.3-1.4l-4.8-4.8
			l-3.8,3.8L365.5,190.7z"/>
		<path id="XMLID_102_" class="st4" d="M386.3,170C386.3,170,386.3,170,386.3,170l-2.3-2.3l-3.8,3.8l4.8,4.8
			C385.9,174,386.3,171.9,386.3,170z"/>
		<path id="XMLID_101_" class="st5" d="M379.5,184c2.4-2.4,4.2-5.1,5.4-7.7l-4.8-4.8l-13.1,13.1l4.8,4.8
			C374.4,188.2,377.1,186.4,379.5,184z"/>
		
			<rect id="XMLID_100_" x="121.2" y="378.5" transform="matrix(0.7071 -0.7071 0.7071 0.7071 -217.0041 246.5701)" class="st4" width="135.9" height="13.5"/>
		
			<rect id="XMLID_99_" x="123.1" y="382" transform="matrix(0.7071 -0.7071 0.7071 0.7071 -217.004 246.5702)" class="st4" width="132.2" height="6.5"/>
		<path id="XMLID_98_" class="st4" d="M140.1,429.6c-0.7-0.7-0.7-1.9,0-2.6l90.9-90.9c0.7-0.7,1.9-0.7,2.6,0"/>
		<polygon id="XMLID_97_" class="st5" points="225.7,339.1 225.6,332.6 133,425.2 136.3,428.5 		"/>
		<polygon id="XMLID_96_" class="st5" points="252.1,365.5 252,359 159.4,451.6 162.7,454.9 		"/>
		<polygon id="XMLID_95_" class="st5" points="238.7,353.1 238.5,345.4 145.9,438.1 149.8,442 		"/>
		<polygon id="XMLID_94_" class="st4" points="129,421.2 156.2,456.5 162.6,462.9 166.7,458.9 		"/>
		<path id="XMLID_93_" class="st4" d="M410.8,207.5c-3.6,3.6-8.5,4.9-11.3,3c0.2,0.3,0.4,0.6,0.6,0.8c2.7,2.7,8.1,1.6,12.1-2.4
			c4-4,5.1-9.4,2.4-12.1c-0.2-0.2-0.5-0.4-0.8-0.6C415.7,199.1,414.4,203.9,410.8,207.5z"/>
		<path id="XMLID_92_" class="st4" d="M402.5,199.3c-3.6,3.6-4.9,8.5-3,11.3c2.9,1.8,7.7,0.6,11.3-3c3.6-3.6,4.9-8.5,3-11.3
			C411,194.4,406.2,195.6,402.5,199.3z"/>
		<path id="XMLID_91_" class="st4" d="M405.7,204.8c-0.5-0.5-1.7-0.2-2.6,0.6c-0.9,0.9-1.2,2-0.6,2.6c0.2,0.2,0.4,0.2,0.6,0.3l0,0
			l1.8,0.1l1.2-1.2l-0.1-1.9l0,0C406,205.1,405.9,204.9,405.7,204.8z"/>
		<circle id="XMLID_90_" class="st4" cx="405.1" cy="207.3" r="1.1"/>
		<path id="XMLID_89_" class="st4" d="M411,199.5c-0.5-0.5-1.7-0.2-2.6,0.6c-0.9,0.9-1.2,2-0.6,2.6c0.2,0.2,0.4,0.2,0.6,0.3l0,0
			l1.8,0.1l1.2-1.2l-0.1-1.9l0,0C411.2,199.9,411.2,199.7,411,199.5z"/>
		<circle id="XMLID_88_" class="st4" cx="410.4" cy="202.1" r="1.1"/>
		
			<rect id="XMLID_87_" x="358.6" y="177.4" transform="matrix(0.7071 -0.7071 0.7071 0.7071 -23.4593 307.4233)" class="st4" width="1.4" height="9.3"/>
		
			<rect id="XMLID_86_" x="359.7" y="176.4" transform="matrix(0.7071 -0.7071 0.7071 0.7071 -22.446 307.8431)" class="st4" width="1.4" height="9.3"/>
		
			<rect id="XMLID_85_" x="360.7" y="175.3" transform="matrix(0.7071 -0.7071 0.7071 0.7071 -21.4328 308.2628)" class="st4" width="1.4" height="9.3"/>
		
			<rect id="XMLID_84_" x="361.7" y="174.3" transform="matrix(0.7071 -0.7071 0.7071 0.7071 -20.4195 308.6825)" class="st4" width="1.4" height="9.3"/>
		
			<rect id="XMLID_83_" x="362.7" y="173.3" transform="matrix(0.7071 -0.7071 0.7071 0.7071 -19.4065 309.1021)" class="st4" width="1.4" height="9.3"/>
		
			<rect id="XMLID_82_" x="363.7" y="172.3" transform="matrix(0.7071 -0.7071 0.7071 0.7071 -18.3937 309.5216)" class="st4" width="1.4" height="9.3"/>
		
			<rect id="XMLID_81_" x="364.7" y="171.3" transform="matrix(0.7071 -0.7071 0.7071 0.7071 -17.3806 309.9412)" class="st4" width="1.4" height="9.3"/>
		
			<rect id="XMLID_80_" x="365.7" y="170.3" transform="matrix(0.7071 -0.7071 0.7071 0.7071 -16.3673 310.361)" class="st4" width="1.4" height="9.3"/>
		
			<rect id="XMLID_79_" x="366.8" y="169.3" transform="matrix(0.7071 -0.7071 0.7071 0.7071 -15.3541 310.7807)" class="st4" width="1.4" height="9.3"/>
		
			<rect id="XMLID_78_" x="367.8" y="168.3" transform="matrix(0.7071 -0.7071 0.7071 0.7071 -14.3408 311.2004)" class="st4" width="1.4" height="9.3"/>
		
			<rect id="XMLID_77_" x="368.8" y="167.2" transform="matrix(0.7071 -0.7071 0.7071 0.7071 -13.3275 311.6201)" class="st4" width="1.4" height="9.3"/>
		
			<rect id="XMLID_76_" x="369.8" y="166.2" transform="matrix(0.7071 -0.7071 0.7071 0.7071 -12.3142 312.0398)" class="st4" width="1.4" height="9.3"/>
		
			<rect id="XMLID_75_" x="370.8" y="165.2" transform="matrix(0.7071 -0.7071 0.7071 0.7071 -11.3011 312.4594)" class="st4" width="1.4" height="9.3"/>
		
			<rect id="XMLID_74_" x="371.8" y="164.2" transform="matrix(0.7071 -0.7071 0.7071 0.7071 -10.288 312.8791)" class="st4" width="1.4" height="9.3"/>
		
			<rect id="XMLID_73_" x="372.8" y="163.2" transform="matrix(0.7071 -0.7071 0.7071 0.7071 -9.275 313.2987)" class="st4" width="1.4" height="9.3"/>
		
			<rect id="XMLID_72_" x="373.8" y="162.2" transform="matrix(0.7071 -0.7071 0.7071 0.7071 -8.2621 313.7183)" class="st4" width="1.4" height="9.3"/>
		
			<rect id="XMLID_71_" x="374.9" y="161.2" transform="matrix(0.7071 -0.7071 0.7071 0.7071 -7.2488 314.138)" class="st4" width="1.4" height="9.3"/>
		
			<rect id="XMLID_70_" x="375.9" y="160.1" transform="matrix(0.7071 -0.7071 0.7071 0.7071 -6.2355 314.5577)" class="st4" width="1.4" height="9.3"/>
		
			<rect id="XMLID_69_" x="376.9" y="159.1" transform="matrix(0.7071 -0.7071 0.7071 0.7071 -5.2224 314.9773)" class="st4" width="1.4" height="9.3"/>
		
			<rect id="XMLID_68_" x="358.7" y="175.9" transform="matrix(0.7071 -0.7071 0.7071 0.7071 -15.9388 315.058)" class="st4" width="27.2" height="1.7"/>
		<polyline id="XMLID_67_" class="st4" points="356.6,178.2 355.9,175.5 371.1,160.3 373.8,161 		"/>
		<path id="XMLID_66_" class="st4" d="M370.5,160.5c-1.4,0.2-4.7,2.6-8.1,6.1c-3.4,3.4-5.9,6.7-6.1,8.1L370.5,160.5z"/>
		
			<rect id="XMLID_65_" x="352.5" y="167.3" transform="matrix(0.7071 -0.7071 0.7071 0.7071 -12.1566 305.9692)" class="st4" width="21.5" height="0.7"/>
		<polygon id="XMLID_64_" class="st4" points="363.2,188.4 363.3,187 366.7,183.6 367.1,184.6 		"/>
		<polygon id="XMLID_63_" class="st4" points="384,167.7 382.6,167.7 379.1,171.1 380.1,171.5 		"/>
		<polygon id="XMLID_62_" class="st4" points="379.1,171.1 366.7,183.6 367.1,184.6 380.1,171.5 		"/>
		
			<rect id="XMLID_61_" x="270.2" y="346.8" transform="matrix(0.7071 -0.7071 0.7071 0.7071 -164.1356 299.2929)" class="st4" width="18" height="2"/>
		
			<rect id="XMLID_60_" x="311.5" y="305.2" transform="matrix(-0.7071 0.7071 -0.7071 -0.7071 764.1772 295.7783)" class="st4" width="18.7" height="2"/>
		<path id="XMLID_59_" class="st4" d="M281.4,344.2c0,0,5.1,6.8,13.8-5.8c8.7-12.6,14.8-7.8,22.1-14c7.3-6.2-1.7-14.3-1.7-14.3"/>
		<path id="XMLID_58_" class="st4" d="M285.6,340c0,0,3.8,5.1,10.4-4.4c6.6-9.5,11.2-5.9,16.6-10.6c5.5-4.7-1.3-10.8-1.3-10.8"/>
		<path id="XMLID_57_" class="st4" d="M400.8,234c4.3-4.5,6.7-8.9,5.5-10.1l-2.6,2.6L400.8,234z"/>
		
			<rect id="XMLID_56_" x="264.8" y="314.6" transform="matrix(0.7071 -0.7071 0.7071 0.7071 -145.3913 280.5252)" class="st4" width="2.3" height="2.3"/>
		
			<rect id="XMLID_55_" x="268.1" y="311.3" transform="matrix(0.7071 -0.7071 0.7071 0.7071 -142.0839 281.8952)" class="st4" width="2.3" height="2.3"/>
		
			<rect id="XMLID_54_" x="271.4" y="308" transform="matrix(0.7071 -0.7071 0.7071 0.7071 -138.7767 283.265)" class="st4" width="2.3" height="2.3"/>
		
			<rect id="XMLID_53_" x="274.7" y="304.7" transform="matrix(0.7071 -0.7071 0.7071 0.7071 -135.4695 284.6349)" class="st4" width="2.3" height="2.3"/>
		
			<rect id="XMLID_52_" x="278" y="301.4" transform="matrix(0.7071 -0.7071 0.7071 0.7071 -132.162 286.005)" class="st4" width="2.3" height="2.3"/>
		
			<rect id="XMLID_51_" x="281.3" y="298.1" transform="matrix(0.7071 -0.7071 0.7071 0.7071 -128.8548 287.3748)" class="st4" width="2.3" height="2.3"/>
		
			<rect id="XMLID_50_" x="284.6" y="294.8" transform="matrix(0.7071 -0.7071 0.7071 0.7071 -125.5476 288.7448)" class="st4" width="2.3" height="2.3"/>
		
			<rect id="XMLID_49_" x="287.9" y="291.4" transform="matrix(0.7071 -0.7071 0.7071 0.7071 -122.24 290.1148)" class="st4" width="2.3" height="2.3"/>
		
			<rect id="XMLID_48_" x="264.8" y="317.9" transform="matrix(0.7071 -0.7071 0.7071 0.7071 -147.7298 281.4939)" class="st4" width="2.3" height="2.3"/>
		
			<rect id="XMLID_47_" x="268.1" y="314.6" transform="matrix(0.7071 -0.7071 0.7071 0.7071 -144.4225 282.8638)" class="st4" width="2.3" height="2.3"/>
		
			<rect id="XMLID_46_" x="271.4" y="311.3" transform="matrix(0.7071 -0.7071 0.7071 0.7071 -141.1152 284.2337)" class="st4" width="2.3" height="2.3"/>
		
			<rect id="XMLID_45_" x="274.7" y="308" transform="matrix(0.7071 -0.7071 0.7071 0.7071 -137.808 285.6036)" class="st4" width="2.3" height="2.3"/>
		
			<rect id="XMLID_44_" x="278" y="304.7" transform="matrix(0.7071 -0.7071 0.7071 0.7071 -134.5007 286.9735)" class="st4" width="2.3" height="2.3"/>
		
			<rect id="XMLID_43_" x="281.3" y="301.4" transform="matrix(0.7071 -0.7071 0.7071 0.7071 -131.1933 288.3435)" class="st4" width="2.3" height="2.3"/>
		
			<rect id="XMLID_42_" x="284.6" y="298.1" transform="matrix(0.7071 -0.7071 0.7071 0.7071 -127.8861 289.7134)" class="st4" width="2.3" height="2.3"/>
		
			<rect id="XMLID_41_" x="287.9" y="294.8" transform="matrix(0.7071 -0.7071 0.7071 0.7071 -124.5788 291.0833)" class="st4" width="2.3" height="2.3"/>
		
			<rect id="XMLID_40_" x="291.2" y="291.4" transform="matrix(0.7071 -0.7071 0.7071 0.7071 -121.2714 292.4533)" class="st4" width="2.3" height="2.3"/>
		
			<rect id="XMLID_39_" x="268.1" y="317.9" transform="matrix(0.7071 -0.7071 0.7071 0.7071 -146.7613 283.8327)" class="st4" width="2.3" height="2.3"/>
		
			<rect id="XMLID_38_" x="271.4" y="314.6" transform="matrix(0.7071 -0.7071 0.7071 0.7071 -143.4539 285.2027)" class="st4" width="2.3" height="2.3"/>
		
			<rect id="XMLID_37_" x="274.7" y="311.3" transform="matrix(0.7071 -0.7071 0.7071 0.7071 -140.1467 286.5726)" class="st4" width="2.3" height="2.3"/>
		
			<rect id="XMLID_36_" x="278" y="308" transform="matrix(0.7071 -0.7071 0.7071 0.7071 -136.8395 287.9425)" class="st4" width="2.3" height="2.3"/>
		
			<rect id="XMLID_35_" x="281.3" y="304.7" transform="matrix(0.7071 -0.7071 0.7071 0.7071 -133.532 289.3125)" class="st4" width="2.3" height="2.3"/>
		
			<rect id="XMLID_34_" x="284.6" y="301.4" transform="matrix(0.7071 -0.7071 0.7071 0.7071 -130.2248 290.6824)" class="st4" width="2.3" height="2.3"/>
		
			<rect id="XMLID_33_" x="287.9" y="298.1" transform="matrix(0.7071 -0.7071 0.7071 0.7071 -126.9176 292.0522)" class="st4" width="2.3" height="2.3"/>
		
			<rect id="XMLID_32_" x="291.2" y="294.8" transform="matrix(0.7071 -0.7071 0.7071 0.7071 -123.6101 293.4223)" class="st4" width="2.3" height="2.3"/>
		
			<rect id="XMLID_31_" x="245.3" y="307.4" transform="matrix(0.7071 -0.7071 0.7071 0.7071 -136.4838 291.7621)" class="st4" width="77.2" height="6.5"/>
		<path id="XMLID_30_" class="st4" d="M234.5,315.8c0,0,27.2,27.3,35.1,40.6l2.6-2.9L234.5,315.8z"/>
	</g>
	<line id="XMLID_2_" class="st6" x1="162.6" y1="462.9" x2="58.5" y2="358.9"/>
	<line id="XMLID_282_" class="st6" x1="228" y1="528.4" x2="124" y2="424.3"/>
	<line id="XMLID_280_" class="st6" x1="383.4" y1="167.9" x2="316.6" y2="101.1"/>
	<line id="XMLID_281_" class="st6" x1="533.2" y1="224.9" x2="429.2" y2="120.8"/>
	<line id="XMLID_283_" class="st6" x1="321.2" y1="105.8" x2="63.3" y2="363.7"/>
	<line id="XMLID_288_" class="st6" x1="273.4" y1="354.9" x2="182.1" y2="263.6"/>
	<line id="XMLID_322_" class="st6" x1="67.3" y1="497.7" x2="158.1" y2="407"/>
	<line id="XMLID_323_" class="st6" x1="90" y1="521.2" x2="181.3" y2="429.9"/>
	<line id="XMLID_293_" class="st6" x1="363.2" y1="187.4" x2="326.7" y2="150.9"/>
	<line id="XMLID_317_" class="st6" x1="435.9" y1="247.5" x2="399.4" y2="211"/>
	<line id="XMLID_318_" class="st6" x1="450.6" y1="232.8" x2="414" y2="196.3"/>
	<line id="XMLID_297_" class="st6" x1="276" y1="274.8" x2="239.4" y2="238.3"/>
	<line id="XMLID_298_" class="st6" x1="248.2" y1="302.5" x2="211.7" y2="266"/>
	<line id="XMLID_303_" class="st6" x1="362.9" y1="334.6" x2="326.3" y2="298.1"/>
	<line id="XMLID_302_" class="st6" x1="308.4" y1="389.9" x2="270" y2="351.6"/>
	<line id="XMLID_289_" class="st6" x1="335.9" y1="120.4" x2="187.7" y2="269.4"/>
	<line id="XMLID_292_" class="st6" x1="351.1" y1="135.3" x2="331" y2="155.5"/>
	<line id="XMLID_344_" class="st6" x1="357.6" y1="148.8" x2="344.3" y2="162.1"/>
	<line id="XMLID_319_" class="st6" x1="446.6" y1="228.5" x2="431.8" y2="243.4"/>
	<line id="XMLID_301_" class="st6" x1="243.8" y1="242.5" x2="215.9" y2="270.6"/>
	<line id="XMLID_326_" class="st6" x1="93.9" y1="517.5" x2="70.5" y2="494.3"/>
	<line id="XMLID_337_" class="st6" x1="339.3" y1="272" x2="316" y2="248.8"/>
	<line id="XMLID_340_" class="st6" x1="363.7" y1="181.1" x2="340.3" y2="157.8"/>
	<line id="XMLID_341_" class="st6" x1="376.7" y1="168.1" x2="353.3" y2="144.9"/>
	<line id="XMLID_306_" class="st6" x1="357.7" y1="329.5" x2="302.9" y2="384.6"/>
	<line id="XMLID_307_" class="st7" x1="263.7" y1="347.7" x2="155.6" y2="455.7"/>
	<line id="XMLID_315_" class="st7" x1="400.1" y1="211.6" x2="319.8" y2="291.8"/>
	<line id="XMLID_316_" class="st7" x1="420.9" y1="189.2" x2="413.7" y2="196.4"/>
	<line id="XMLID_308_" class="st7" x1="241.6" y1="323.2" x2="131.8" y2="433"/>
	<line id="XMLID_309_" class="st7" x1="401.3" y1="164.3" x2="297.1" y2="268.5"/>
	<line id="XMLID_310_" class="st7" x1="428.2" y1="191.1" x2="398" y2="160.9"/>
	<line id="XMLID_311_" class="st7" x1="423.8" y1="177.3" x2="402.6" y2="156.1"/>
	<line id="XMLID_312_" class="st7" x1="433.5" y1="164.9" x2="413.5" y2="144.9"/>
	<line id="XMLID_313_" class="st7" x1="435.8" y1="160.5" x2="416.9" y2="141.6"/>
	<line id="XMLID_314_" class="st7" x1="437.7" y1="159.8" x2="418.1" y2="140.3"/>
	<text id="XMLID_294_" transform="matrix(0.7071 -0.7071 0.7071 0.7071 185.9948 232.4066)" class="st3 st8 st9">220</text>
	<text id="XMLID_348_" transform="matrix(0.7071 -0.7071 0.7071 0.7071 146.1603 511.6243)" class="st3 st10 st11">1</text>
	<text id="XMLID_350_" transform="matrix(0.7071 -0.7071 0.7071 0.7071 110.1362 369.4349)" class="st3 st10 st11">2</text>
	<text id="XMLID_354_" transform="matrix(0.7071 -0.7071 0.7071 0.7071 401.3339 81.8475)" class="st3 st10 st11">4</text>
	<text id="XMLID_356_" transform="matrix(0.7071 -0.7071 0.7071 0.7071 508.2287 166.6859)" class="st3 st10 st11">5</text>
	<text id="XMLID_352_" transform="matrix(0.7071 -0.7071 0.7071 0.7071 364.8679 431.5706)" class="st3 st10 st11">3</text>
	<text id="XMLID_329_" transform="matrix(0.7071 -0.7071 0.7071 0.7071 223.4147 255.8602)" class="st3 st8 st9">18</text>
	<text id="XMLID_330_" transform="matrix(0.7071 -0.7071 0.7071 0.7071 334.0334 145.241)" class="st3 st8 st9">10</text>
	<text id="XMLID_331_" transform="matrix(0.7071 -0.7071 0.7071 0.7071 433.3769 234.8333)" class="st3 st8 st9">8</text>
	<text id="XMLID_332_" transform="matrix(0.7071 -0.7071 0.7071 0.7071 322.3203 357.4222)" class="st3 st8 st9">30</text>
	<text id="XMLID_333_" transform="matrix(0.7071 -0.7071 0.7071 0.7071 350.5742 388.8968)" class="st3 st8 st9">250</text>
	<text id="XMLID_334_" transform="matrix(0.7071 0.7071 -0.7071 0.7071 82.6013 500.8657)" class="st3 st8 st9">15</text>
	<text id="XMLID_328_" transform="matrix(0.7071 -0.7071 0.7071 0.7071 253.7087 194.5667)" class="st3 st8 st9">170</text>
	<text id="XMLID_336_" transform="matrix(0.7071 -0.7071 0.7071 0.7071 318.7465 198.4271)" class="st3 st8 st9">Ø15</text>
	<text id="XMLID_346_" transform="matrix(0.7071 -0.7071 0.7071 0.7071 301.8002 178.181)" class="st3 st8 st9">Ø5</text>
	<polyline id="XMLID_327_" class="st12" points="316.1,249 316.1,207.2 338.8,184.5 	"/>
	<polyline id="XMLID_335_" class="st12" points="344.4,162.1 320.5,163.8 299,185.3 	"/>
	<polyline id="XMLID_345_" class="st12" points="186.4,360.4 125.6,360.4 106.4,379.5 	"/>
	<polyline id="XMLID_347_" class="st12" points="159.8,456.3 159.8,503.2 140.1,522.9 	"/>
	<polyline id="XMLID_349_" class="st12" points="378.1,239.6 378.1,424.4 360.3,442.3 	"/>
	<polyline id="XMLID_351_" class="st12" points="397.8,138.1 397.8,90.8 414.5,74.1 	"/>
	<polyline id="XMLID_353_" class="st12" points="429.9,173.7 505.4,173.7 520.4,158.7 	"/>
</g>
<g id="Layer_2" class="st2">
	<polygon id="XMLID_1_" class="st3" points="63.3,363.8 68.8,356.9 68.8,358.2 70,358.3 	"/>
	<polygon id="XMLID_284_" class="st3" points="321.3,105.8 315.7,112.6 315.7,111.3 314.6,111.2 	"/>
	<polygon id="XMLID_291_" class="st3" points="335.8,120.5 330.2,127.4 330.2,126 329,126 	"/>
	<polygon id="XMLID_295_" class="st3" points="350.9,135.6 345.3,142.4 345.3,141.1 344.1,141 	"/>
	<polygon id="XMLID_296_" class="st3" points="331.1,155.4 336.7,148.6 336.7,149.9 337.9,150 	"/>
	<polygon id="XMLID_343_" class="st3" points="357.6,148.8 352,155.6 352,154.3 350.8,154.3 	"/>
	<polygon id="XMLID_342_" class="st3" points="344.4,162.1 349.9,155.3 349.9,156.6 351.1,156.6 	"/>
	<polygon id="XMLID_321_" class="st3" points="446.6,228.6 441,235.4 441,234.1 439.8,234.1 	"/>
	<polygon id="XMLID_320_" class="st3" points="431.8,243.4 437.4,236.6 437.4,237.9 438.6,238 	"/>
	<polygon id="XMLID_300_" class="st3" points="243.9,242.5 238.3,249.4 238.3,248.1 237.1,248 	"/>
	<polygon id="XMLID_299_" class="st3" points="216,270.5 221.5,263.7 221.5,265 222.7,265.1 	"/>
	<polygon id="XMLID_325_" class="st3" points="93.8,517.5 87,512 88.3,512 88.3,510.8 	"/>
	<polygon id="XMLID_324_" class="st3" points="70.6,494.4 77.5,500 76.1,500 76.1,501.2 	"/>
	<polygon id="XMLID_339_" class="st3" points="339.3,272.1 332.4,266.5 333.7,266.5 333.8,265.3 	"/>
	<polygon id="XMLID_338_" class="st3" points="316.1,249 322.9,254.5 321.6,254.5 321.5,255.7 	"/>
	<polygon id="XMLID_305_" class="st3" points="357.9,329.4 352.3,336.2 352.3,334.9 351.1,334.9 	"/>
	<polygon id="XMLID_304_" class="st3" points="302.8,384.7 308.4,377.9 308.4,379.2 309.6,379.3 	"/>
	<line id="XMLID_287_" class="st6" x1="527.2" y1="219.2" x2="222.8" y2="523.4"/>
	<polygon id="XMLID_286_" class="st3" points="222.7,523.5 228.3,516.7 228.3,518 229.5,518 	"/>
	<polygon id="XMLID_285_" class="st3" points="527.5,219 521.9,225.8 521.9,224.5 520.7,224.4 	"/>
	<polygon id="XMLID_290_" class="st3" points="187.9,269.2 193.5,262.3 193.5,263.6 194.7,263.7 	"/>
</g>
<g id="Layer_3">
	<g id="XMLID_3_">
		<g id="XMLID_216_">
			<path id="XMLID_489_" class="st13" d="M437.2,141.8L303.6,275.4l6,6l128-128C437.9,150.3,437.8,146.5,437.2,141.8z"/>
			<path id="XMLID_433_" class="st14" d="M315.9,287.7l105.9-105.9c1.4-5.3,4.4-9.2,8.3-13.2c2.5-2.5,4.5-5,5.8-8.2L312.2,284.1
				L315.9,287.7z"/>
			
				<rect id="XMLID_385_" x="249.4" y="322.3" transform="matrix(0.7071 -0.7071 0.7071 0.7071 -155.1328 278.594)" class="st15" width="18.7" height="8.5"/>
			
				<rect id="XMLID_219_" x="290.7" y="280.9" transform="matrix(0.7071 -0.7071 0.7071 0.7071 -113.7714 295.7264)" class="st15" width="18.7" height="8.5"/>
			
				<rect id="XMLID_217_" x="259.2" y="301.8" transform="matrix(0.7071 -0.7071 0.7071 0.7071 -134.3165 286.8328)" class="st13" width="39.8" height="7.6"/>
		</g>
		
			<rect id="XMLID_215_" x="412.9" y="181.2" transform="matrix(-0.7071 0.7071 -0.7071 -0.7071 843.8463 22.5299)" class="st16" width="8.7" height="9.6"/>
		
			<rect id="XMLID_214_" x="421" y="160.4" transform="matrix(0.7071 -0.7071 0.7071 0.7071 4.4965 353.455)" class="st17" width="15.9" height="21.8"/>
		<polygon id="XMLID_213_" class="st18" points="432.2,156.6 426.8,158 442.2,173.4 447.6,172 		"/>
		<polygon id="XMLID_212_" class="st19" points="432.2,156.6 433.2,155.3 448.6,170.7 447.6,172 		"/>
		<polygon id="XMLID_211_" class="st19" points="414.2,174.6 415.6,169.2 431,184.6 429.6,190 		"/>
		<polygon id="XMLID_210_" class="st18" points="414.2,174.6 412.9,175.6 428.3,191 429.6,190 		"/>
		<path id="XMLID_209_" class="st20" d="M406.4,223.7c1.3,1.3-1.6,6.2-6.4,11c-4.8,4.8-9.7,7.6-11,6.4L406.4,223.7z"/>
		<polygon id="XMLID_207_" class="st13" points="162.7,462.8 125.1,425.2 234.6,315.7 272.2,353.3 268.2,357.4 		"/>
		
			<rect id="XMLID_206_" x="231.4" y="318.5" transform="matrix(0.7071 0.7071 -0.7071 0.7071 308.0097 -87.8464)" class="st21" width="57.3" height="18.7"/>
		
			<rect id="XMLID_205_" x="272.8" y="277.1" transform="matrix(0.7071 0.7071 -0.7071 0.7071 290.8772 -129.2077)" class="st21" width="57.3" height="18.7"/>
		<path id="XMLID_208_" class="st18" d="M417.2,141.6c0,0-0.9-1-2.2-0.6c-1.1,0.3-2-0.4-2-0.4l-15.2-15.2c-3.6-3.6-9.6-3.6-13.2,0
			l-3.7,3.7c-3.6,3.6-3.6,9.6,0,13.2l8.6,8.6l-1.1,1.1c0,0,4.1,4,4.2,7.6c0.2,4.4,1.3,5.3,1.3,5.3L417.2,141.6z"/>
		<path id="XMLID_204_" class="st13" d="M420.1,205.4c0,0,2.4-0.7,1.2-12c-1.3-11.8,2.5-18.3,9-24.7c6.4-6.4,9.4-12.6,6.6-30.4
			c-2.4-15.2-7.8-17.1-7.8-17.1l-46.5,46.5L420.1,205.4z"/>
		
			<rect id="XMLID_203_" x="288.7" y="206.6" transform="matrix(-0.7071 0.7071 -0.7071 -0.7071 770.4423 147.4097)" class="st13" width="131.9" height="53.3"/>
		<path id="XMLID_364_" class="st21" d="M161.6,453.5l259.7-259.7c0,0,1.2,9.8-0.5,10.9L166.8,458.7l-3.9-3.9"/>
		<path id="XMLID_368_" class="st22" d="M421.7,202c0,0,0,1.7-0.4,2.4S203.1,422.5,203.1,422.5l-0.9-0.9L421.7,202z"/>
		<path id="XMLID_358_" class="st21" d="M291.8,263.7l140-140c0,0-1.9-1.9-2.6-2.6c-0.7-0.7-140,140-140,140L291.8,263.7z"/>
		
			<rect id="XMLID_202_" x="111.2" y="372.3" transform="matrix(0.7071 -0.7071 0.7071 0.7071 -212.7328 236.5619)" class="st22" width="135.9" height="5.6"/>
		
			<rect id="XMLID_201_" x="110.1" y="368.3" transform="matrix(0.7071 -0.7071 0.7071 0.7071 -211.4851 233.5499)" class="st16" width="132.2" height="7.5"/>
		
			<rect id="XMLID_200_" x="253.6" y="310.4" transform="matrix(0.7071 -0.7071 0.7071 0.7071 -139.7753 300.0121)" class="st23" width="77.2" height="16.6"/>
		
			<rect id="XMLID_199_" x="260.2" y="324.3" transform="matrix(0.7071 -0.7071 0.7071 0.7071 -142.5092 306.6122)" class="st24" width="77.2" height="2"/>
		<g id="XMLID_168_">
			<polygon id="XMLID_198_" class="st25" points="274.8,344 270.3,348.5 262.4,340.7 267,336.2 267.6,336.8 263.8,340.7 
				270.3,347.2 274.2,343.3 			"/>
			
				<rect id="XMLID_196_" x="266.5" y="341.6" transform="matrix(0.7071 -0.7071 0.7071 0.7071 -162.4102 292.0386)" class="st25" width="9.7" height="0.9"/>
			
				<rect id="XMLID_195_" x="264.1" y="339.2" transform="matrix(0.7071 -0.7071 0.7071 0.7071 -161.4192 289.6461)" class="st25" width="9.7" height="0.9"/>
			
				<rect id="XMLID_194_" x="274.6" y="330.5" transform="matrix(0.7071 -0.7071 0.7071 0.7071 -157.0057 292.875)" class="st25" width="0.9" height="11"/>
			
				<rect id="XMLID_193_" x="276.9" y="328.1" transform="matrix(0.7071 -0.7071 0.7071 0.7071 -154.6792 293.8387)" class="st25" width="0.9" height="11"/>
			
				<rect id="XMLID_192_" x="279.2" y="325.8" transform="matrix(0.7071 -0.7071 0.7071 0.7071 -152.3527 294.8024)" class="st25" width="0.9" height="11"/>
			
				<rect id="XMLID_191_" x="281.5" y="323.5" transform="matrix(0.7071 -0.7071 0.7071 0.7071 -150.0258 295.7662)" class="st25" width="0.9" height="11"/>
			
				<rect id="XMLID_190_" x="283.9" y="321.2" transform="matrix(0.7071 -0.7071 0.7071 0.7071 -147.6993 296.7299)" class="st25" width="0.9" height="11"/>
			
				<rect id="XMLID_189_" x="286.2" y="318.8" transform="matrix(0.7071 -0.7071 0.7071 0.7071 -145.3728 297.6935)" class="st25" width="0.9" height="11"/>
			<polygon id="XMLID_188_" class="st25" points="322,296.8 317.4,301.4 316.8,300.7 320.7,296.8 314.1,290.3 310.3,294.2 
				309.6,293.5 314.1,289 			"/>
			
				<rect id="XMLID_187_" x="310.7" y="297.4" transform="matrix(0.7071 -0.7071 0.7071 0.7071 -118.2165 310.3443)" class="st25" width="9.7" height="0.9"/>
			
				<rect id="XMLID_186_" x="308.3" y="295" transform="matrix(0.7071 -0.7071 0.7071 0.7071 -117.2254 307.9518)" class="st25" width="9.7" height="0.9"/>
			
				<rect id="XMLID_185_" x="308.9" y="296" transform="matrix(0.7071 -0.7071 0.7071 0.7071 -122.6299 307.1147)" class="st25" width="0.9" height="11.1"/>
			
				<rect id="XMLID_184_" x="306.6" y="298.4" transform="matrix(0.7071 -0.7071 0.7071 0.7071 -124.9567 306.1509)" class="st25" width="0.9" height="11.1"/>
			
				<rect id="XMLID_183_" x="304.3" y="300.7" transform="matrix(0.7071 -0.7071 0.7071 0.7071 -127.2832 305.1872)" class="st25" width="0.9" height="11.1"/>
			
				<rect id="XMLID_182_" x="302" y="303" transform="matrix(0.7071 -0.7071 0.7071 0.7071 -129.61 304.2234)" class="st25" width="0.9" height="11.1"/>
			
				<rect id="XMLID_181_" x="299.6" y="305.3" transform="matrix(0.7071 -0.7071 0.7071 0.7071 -131.9365 303.2598)" class="st25" width="0.9" height="11.1"/>
			
				<rect id="XMLID_180_" x="297.3" y="307.7" transform="matrix(0.7071 -0.7071 0.7071 0.7071 -134.263 302.2961)" class="st25" width="0.9" height="11.1"/>
			
				<rect id="XMLID_179_" x="289.4" y="316.1" transform="matrix(0.7071 -0.7071 0.7071 0.7071 -142.2106 299.004)" class="st25" width="0.9" height="10.2"/>
			
				<rect id="XMLID_178_" x="291.8" y="313.7" transform="matrix(0.7071 -0.7071 0.7071 0.7071 -139.818 299.9951)" class="st25" width="0.9" height="10.2"/>
			
				<rect id="XMLID_177_" x="294.1" y="311.3" transform="matrix(0.7071 -0.7071 0.7071 0.7071 -137.4255 300.9861)" class="st25" width="0.9" height="10.2"/>
			
				<rect id="XMLID_176_" x="290.2" y="321.9" transform="matrix(0.7071 -0.7071 0.7071 0.7071 -141.3046 303.584)" class="st25" width="11.1" height="0.9"/>
			
				<rect id="XMLID_175_" x="283.1" y="314.7" transform="matrix(0.7071 -0.7071 0.7071 0.7071 -138.3315 296.4062)" class="st25" width="11.1" height="0.9"/>
			
				<rect id="XMLID_174_" x="285.5" y="317.1" transform="matrix(0.7071 -0.7071 0.7071 0.7071 -139.3225 298.7988)" class="st25" width="11.1" height="0.9"/>
			
				<rect id="XMLID_173_" x="287.9" y="319.5" transform="matrix(0.7071 -0.7071 0.7071 0.7071 -140.3135 301.1913)" class="st25" width="11.1" height="0.9"/>
			
				<rect id="XMLID_172_" x="268.4" y="334.1" transform="matrix(0.7071 -0.7071 0.7071 0.7071 -157.6364 288.4091)" class="st25" width="1.8" height="0.9"/>
			<polygon id="XMLID_171_" class="st25" points="277.4,341.3 276.1,342.5 275.5,341.9 276.8,340.7 			"/>
			
				<rect id="XMLID_170_" x="307" y="295.5" transform="matrix(0.7071 -0.7071 0.7071 0.7071 -119.0256 304.4022)" class="st25" width="1.8" height="0.9"/>
			<polygon id="XMLID_169_" class="st25" points="316,302.7 314.7,303.9 314.1,303.3 315.4,302.1 			"/>
		</g>
		<path id="XMLID_167_" class="st18" d="M126.8,416.1c-0.7-0.7-0.7-1.9,0-2.6l90.9-90.9c0.7-0.7,1.9-0.7,2.6,0"/>
		
			<rect id="XMLID_166_" x="134.8" y="391.9" transform="matrix(0.7071 -0.7071 0.7071 0.7071 -222.5062 260.157)" class="st22" width="135.9" height="13.5"/>
		
			<rect id="XMLID_165_" x="144.9" y="405.9" transform="matrix(0.7071 -0.7071 0.7071 0.7071 -226.6754 270.2222)" class="st22" width="135.9" height="5.6"/>
		
			<rect id="XMLID_164_" x="136.7" y="395.4" transform="matrix(0.7071 -0.7071 0.7071 0.7071 -222.5061 260.1569)" class="st18" width="132.2" height="6.5"/>
		<polygon id="XMLID_361_" class="st18" points="289.9,261.7 429.9,121.7 429,121 289,260.9 		"/>
		
			<rect id="XMLID_163_" x="149.8" y="408" transform="matrix(0.7071 -0.7071 0.7071 0.7071 -227.9229 273.2343)" class="st18" width="132.2" height="7.5"/>
		<path id="XMLID_162_" class="st16" d="M171.8,461.1c0.7,0.7,1.9,0.7,2.6,0l90.9-90.9c0.7-0.7,0.7-1.9,0-2.6"/>
		<path id="XMLID_161_" class="st16" d="M158.4,447.7c0.7,0.7,1.9,0.7,2.6,0l90.9-90.9c0.7-0.7,0.7-1.9,0-2.6"/>
		
			<rect id="XMLID_160_" x="143.1" y="415.4" transform="matrix(0.7071 -0.7071 0.7071 0.7071 -269.7868 232.6471)" class="st26" width="5.8" height="53.2"/>
		<path id="XMLID_159_" class="st17" d="M420,138.9c0,0-0.9-1-2.2-0.6c-1.1,0.3-2-0.4-2-0.4l-15.2-15.2c-3.6-3.6-9.6-3.6-13.2,0
			l-3.7,3.7c-3.6,3.6-3.6,9.6,0,13.2l8.6,8.6l-1.1,1.1c0,0,4.1,4,4.2,7.6c0.2,4.4,1.3,5.3,1.3,5.3L420,138.9z"/>
		<path id="XMLID_158_" class="st17" d="M404.6,220C404.6,220,404.6,220,404.6,220c-1.5,0.2-3.3,0.9-5.2,1.9l4.4,4.4l3.6-3.6
			L404.6,220z"/>
		<path id="XMLID_157_" class="st17" d="M385.3,239.3C385.3,239.3,385.3,239.3,385.3,239.3l2.8,2.8l3.6-3.6l-4.4-4.4
			C386.2,236,385.5,237.7,385.3,239.3z"/>
		<path id="XMLID_156_" class="st27" d="M392.6,227.3c-2.2,2.2-4,4.6-5.3,6.8l4.4,4.4l12.1-12.1l-4.4-4.4
			C397.2,223.2,394.8,225,392.6,227.3z"/>
		<path id="XMLID_155_" class="st17" d="M365.6,190.6C365.6,190.6,365.7,190.6,365.6,190.6c1.9,0.1,4.1-0.4,6.3-1.4l-4.8-4.8
			l-3.8,3.8L365.6,190.6z"/>
		<path id="XMLID_154_" class="st17" d="M386.4,169.9C386.4,169.9,386.4,169.9,386.4,169.9l-2.3-2.3l-3.8,3.8l4.8,4.8
			C386,173.9,386.4,171.8,386.4,169.9z"/>
		<path id="XMLID_153_" class="st27" d="M379.7,183.9c2.4-2.4,4.2-5.1,5.4-7.7l-4.8-4.8l-13.1,13.1l4.8,4.8
			C374.6,188.1,377.2,186.3,379.7,183.9z"/>
		
			<rect id="XMLID_152_" x="121.3" y="378.4" transform="matrix(0.7071 -0.7071 0.7071 0.7071 -216.902 246.6272)" class="st22" width="135.9" height="13.5"/>
		
			<rect id="XMLID_151_" x="123.2" y="381.9" transform="matrix(0.7071 -0.7071 0.7071 0.7071 -216.9019 246.6272)" class="st16" width="132.2" height="6.5"/>
		<path id="XMLID_150_" class="st18" d="M140.2,429.6c-0.7-0.7-0.7-1.9,0-2.6l90.9-90.9c0.7-0.7,1.9-0.7,2.6,0"/>
		<polygon id="XMLID_149_" class="st17" points="225.9,339 225.7,332.5 133.1,425.1 136.4,428.4 		"/>
		<polygon id="XMLID_148_" class="st17" points="252.3,365.4 252.1,358.9 159.5,451.5 162.8,454.8 		"/>
		<polygon id="XMLID_147_" class="st17" points="238.8,353 238.6,345.3 146,438 150,441.9 		"/>
		<polygon id="XMLID_146_" class="st21" points="129.2,421.1 156.3,456.5 162.7,462.8 166.8,458.8 		"/>
		<path id="XMLID_145_" class="st18" d="M410.9,207.4c-3.6,3.6-8.5,4.9-11.3,3c0.2,0.3,0.4,0.6,0.6,0.8c2.7,2.7,8.1,1.6,12.1-2.4
			c4-4,5.1-9.4,2.4-12.1c-0.2-0.2-0.5-0.4-0.8-0.6C415.8,199,414.6,203.8,410.9,207.4z"/>
		<path id="XMLID_144_" class="st16" d="M402.7,199.2c-3.6,3.6-4.9,8.5-3,11.3c2.9,1.8,7.7,0.6,11.3-3c3.6-3.6,4.9-8.5,3-11.3
			C411.1,194.3,406.3,195.5,402.7,199.2z"/>
		<path id="XMLID_143_" class="st28" d="M405.9,204.7c-0.5-0.5-1.7-0.2-2.6,0.6c-0.9,0.9-1.2,2-0.6,2.6c0.2,0.2,0.4,0.2,0.6,0.3l0,0
			l1.8,0.1l1.2-1.2l-0.1-1.9l0,0C406.1,205,406,204.8,405.9,204.7z"/>
		<circle id="XMLID_142_" class="st24" cx="405.2" cy="207.2" r="1.1"/>
		<path id="XMLID_141_" class="st28" d="M411.1,199.4c-0.5-0.5-1.7-0.2-2.6,0.6c-0.9,0.9-1.2,2-0.6,2.6c0.2,0.2,0.4,0.2,0.6,0.3l0,0
			l1.8,0.1l1.2-1.2l-0.1-1.9l0,0C411.4,199.8,411.3,199.6,411.1,199.4z"/>
		<circle id="XMLID_140_" class="st24" cx="410.5" cy="202" r="1.1"/>
		
			<rect id="XMLID_139_" x="358.8" y="177.3" transform="matrix(0.7071 -0.7071 0.7071 0.7071 -23.3572 307.4804)" class="st29" width="1.4" height="9.3"/>
		
			<rect id="XMLID_138_" x="359.8" y="176.3" transform="matrix(0.7071 -0.7071 0.7071 0.7071 -22.3439 307.9001)" class="st30" width="1.4" height="9.3"/>
		
			<rect id="XMLID_136_" x="360.8" y="175.3" transform="matrix(0.7071 -0.7071 0.7071 0.7071 -21.3307 308.3199)" class="st29" width="1.4" height="9.3"/>
		
			<rect id="XMLID_135_" x="361.8" y="174.2" transform="matrix(0.7071 -0.7071 0.7071 0.7071 -20.3174 308.7396)" class="st30" width="1.4" height="9.3"/>
		
			<rect id="XMLID_134_" x="362.8" y="173.2" transform="matrix(0.7071 -0.7071 0.7071 0.7071 -19.3044 309.1591)" class="st29" width="1.4" height="9.3"/>
		
			<rect id="XMLID_133_" x="363.8" y="172.2" transform="matrix(0.7071 -0.7071 0.7071 0.7071 -18.2916 309.5787)" class="st30" width="1.4" height="9.3"/>
		
			<rect id="XMLID_132_" x="364.8" y="171.2" transform="matrix(0.7071 -0.7071 0.7071 0.7071 -17.2785 309.9983)" class="st29" width="1.4" height="9.3"/>
		
			<rect id="XMLID_131_" x="365.9" y="170.2" transform="matrix(0.7071 -0.7071 0.7071 0.7071 -16.2652 310.418)" class="st30" width="1.4" height="9.3"/>
		
			<rect id="XMLID_130_" x="366.9" y="169.2" transform="matrix(0.7071 -0.7071 0.7071 0.7071 -15.252 310.8377)" class="st29" width="1.4" height="9.3"/>
		
			<rect id="XMLID_129_" x="367.9" y="168.2" transform="matrix(0.7071 -0.7071 0.7071 0.7071 -14.2387 311.2574)" class="st30" width="1.4" height="9.3"/>
		
			<rect id="XMLID_128_" x="368.9" y="167.1" transform="matrix(0.7071 -0.7071 0.7071 0.7071 -13.2254 311.6772)" class="st29" width="1.4" height="9.3"/>
		
			<rect id="XMLID_127_" x="369.9" y="166.1" transform="matrix(0.7071 -0.7071 0.7071 0.7071 -12.2121 312.0969)" class="st30" width="1.4" height="9.3"/>
		
			<rect id="XMLID_126_" x="370.9" y="165.1" transform="matrix(0.7071 -0.7071 0.7071 0.7071 -11.199 312.5165)" class="st29" width="1.4" height="9.3"/>
		
			<rect id="XMLID_125_" x="371.9" y="164.1" transform="matrix(0.7071 -0.7071 0.7071 0.7071 -10.1859 312.9362)" class="st30" width="1.4" height="9.3"/>
		
			<rect id="XMLID_124_" x="373" y="163.1" transform="matrix(0.7071 -0.7071 0.7071 0.7071 -9.1729 313.3558)" class="st29" width="1.4" height="9.3"/>
		
			<rect id="XMLID_123_" x="374" y="162.1" transform="matrix(0.7071 -0.7071 0.7071 0.7071 -8.16 313.7753)" class="st30" width="1.4" height="9.3"/>
		
			<rect id="XMLID_122_" x="375" y="161.1" transform="matrix(0.7071 -0.7071 0.7071 0.7071 -7.1467 314.1951)" class="st29" width="1.4" height="9.3"/>
		
			<rect id="XMLID_121_" x="376" y="160.1" transform="matrix(0.7071 -0.7071 0.7071 0.7071 -6.1334 314.6148)" class="st30" width="1.4" height="9.3"/>
		
			<rect id="XMLID_120_" x="377" y="159" transform="matrix(0.7071 -0.7071 0.7071 0.7071 -5.1203 315.0344)" class="st29" width="1.4" height="9.3"/>
		
			<rect id="XMLID_119_" x="358.8" y="175.8" transform="matrix(0.7071 -0.7071 0.7071 0.7071 -15.8367 315.115)" class="st16" width="27.2" height="1.7"/>
		<polyline id="XMLID_118_" class="st16" points="356.7,178.1 356,175.4 371.2,160.2 373.9,160.9 		"/>
		<path id="XMLID_117_" class="st28" d="M370.6,160.4c-1.4,0.2-4.7,2.6-8.1,6.1c-3.4,3.4-5.9,6.7-6.1,8.1L370.6,160.4z"/>
		
			<rect id="XMLID_116_" x="352.7" y="167.2" transform="matrix(0.7071 -0.7071 0.7071 0.7071 -12.0545 306.0263)" class="st18" width="21.5" height="0.7"/>
		<polygon id="XMLID_115_" class="st15" points="363.3,188.3 363.4,186.9 366.8,183.5 367.2,184.5 		"/>
		<polygon id="XMLID_114_" class="st15" points="384.1,167.6 382.7,167.6 379.3,171 380.2,171.4 		"/>
		<polygon id="XMLID_113_" class="st17" points="379.3,171 366.8,183.5 367.2,184.5 380.2,171.4 		"/>
		
			<rect id="XMLID_112_" x="270.3" y="346.7" transform="matrix(0.7071 -0.7071 0.7071 0.7071 -164.0335 299.35)" class="st22" width="18" height="2"/>
		
			<rect id="XMLID_111_" x="311.6" y="305.1" transform="matrix(-0.7071 0.7071 -0.7071 -0.7071 764.315 295.5318)" class="st22" width="18.7" height="2"/>
		<path id="XMLID_110_" class="st24" d="M281.5,344.1c0,0,5.1,6.8,13.8-5.8c8.7-12.6,14.8-7.8,22.1-14c7.3-6.2-1.7-14.3-1.7-14.3"/>
		<path id="XMLID_109_" class="st28" d="M285.7,339.9c0,0,3.8,5.1,10.4-4.4c6.6-9.5,11.2-5.9,16.6-10.6c5.5-4.7-1.3-10.8-1.3-10.8"
			/>
		<path id="XMLID_108_" class="st31" d="M400.9,233.9c4.3-4.5,6.7-8.9,5.5-10.1l-2.6,2.6L400.9,233.9z"/>
		
			<rect id="XMLID_107_" x="264.9" y="314.5" transform="matrix(0.7071 -0.7071 0.7071 0.7071 -145.2891 280.5823)" class="st13" width="2.3" height="2.3"/>
		
			<rect id="XMLID_106_" x="268.2" y="311.2" transform="matrix(0.7071 -0.7071 0.7071 0.7071 -141.9818 281.9523)" class="st13" width="2.3" height="2.3"/>
		
			<rect id="XMLID_28_" x="271.5" y="307.9" transform="matrix(0.7071 -0.7071 0.7071 0.7071 -138.6746 283.3221)" class="st13" width="2.3" height="2.3"/>
		
			<rect id="XMLID_27_" x="274.8" y="304.6" transform="matrix(0.7071 -0.7071 0.7071 0.7071 -135.3674 284.692)" class="st13" width="2.3" height="2.3"/>
		
			<rect id="XMLID_26_" x="278.1" y="301.3" transform="matrix(0.7071 -0.7071 0.7071 0.7071 -132.0599 286.062)" class="st13" width="2.3" height="2.3"/>
		
			<rect id="XMLID_25_" x="281.4" y="298" transform="matrix(0.7071 -0.7071 0.7071 0.7071 -128.7527 287.4319)" class="st13" width="2.3" height="2.3"/>
		
			<rect id="XMLID_24_" x="284.7" y="294.7" transform="matrix(0.7071 -0.7071 0.7071 0.7071 -125.4455 288.8018)" class="st13" width="2.3" height="2.3"/>
		
			<rect id="XMLID_23_" x="288" y="291.4" transform="matrix(0.7071 -0.7071 0.7071 0.7071 -122.1379 290.1718)" class="st13" width="2.3" height="2.3"/>
		
			<rect id="XMLID_22_" x="264.9" y="317.8" transform="matrix(0.7071 -0.7071 0.7071 0.7071 -147.6277 281.5509)" class="st13" width="2.3" height="2.3"/>
		
			<rect id="XMLID_21_" x="268.2" y="314.5" transform="matrix(0.7071 -0.7071 0.7071 0.7071 -144.3204 282.9209)" class="st13" width="2.3" height="2.3"/>
		
			<rect id="XMLID_20_" x="271.5" y="311.2" transform="matrix(0.7071 -0.7071 0.7071 0.7071 -141.0131 284.2908)" class="st13" width="2.3" height="2.3"/>
		
			<rect id="XMLID_19_" x="274.8" y="307.9" transform="matrix(0.7071 -0.7071 0.7071 0.7071 -137.7059 285.6607)" class="st13" width="2.3" height="2.3"/>
		
			<rect id="XMLID_18_" x="278.1" y="304.6" transform="matrix(0.7071 -0.7071 0.7071 0.7071 -134.3986 287.0306)" class="st13" width="2.3" height="2.3"/>
		
			<rect id="XMLID_17_" x="281.4" y="301.3" transform="matrix(0.7071 -0.7071 0.7071 0.7071 -131.0912 288.4006)" class="st13" width="2.3" height="2.3"/>
		
			<rect id="XMLID_16_" x="284.7" y="298" transform="matrix(0.7071 -0.7071 0.7071 0.7071 -127.784 289.7705)" class="st13" width="2.3" height="2.3"/>
		
			<rect id="XMLID_15_" x="288" y="294.7" transform="matrix(0.7071 -0.7071 0.7071 0.7071 -124.4766 291.1404)" class="st13" width="2.3" height="2.3"/>
		
			<rect id="XMLID_14_" x="291.3" y="291.3" transform="matrix(0.7071 -0.7071 0.7071 0.7071 -121.1693 292.5104)" class="st13" width="2.3" height="2.3"/>
		
			<rect id="XMLID_13_" x="268.2" y="317.8" transform="matrix(0.7071 -0.7071 0.7071 0.7071 -146.6592 283.8898)" class="st13" width="2.3" height="2.3"/>
		
			<rect id="XMLID_12_" x="271.5" y="314.5" transform="matrix(0.7071 -0.7071 0.7071 0.7071 -143.3518 285.2598)" class="st13" width="2.3" height="2.3"/>
		
			<rect id="XMLID_11_" x="274.8" y="311.2" transform="matrix(0.7071 -0.7071 0.7071 0.7071 -140.0446 286.6296)" class="st13" width="2.3" height="2.3"/>
		
			<rect id="XMLID_10_" x="278.1" y="307.9" transform="matrix(0.7071 -0.7071 0.7071 0.7071 -136.7374 287.9995)" class="st13" width="2.3" height="2.3"/>
		
			<rect id="XMLID_9_" x="281.4" y="304.6" transform="matrix(0.7071 -0.7071 0.7071 0.7071 -133.4299 289.3696)" class="st13" width="2.3" height="2.3"/>
		
			<rect id="XMLID_8_" x="284.7" y="301.3" transform="matrix(0.7071 -0.7071 0.7071 0.7071 -130.1227 290.7394)" class="st13" width="2.3" height="2.3"/>
		
			<rect id="XMLID_7_" x="288" y="298" transform="matrix(0.7071 -0.7071 0.7071 0.7071 -126.8155 292.1093)" class="st13" width="2.3" height="2.3"/>
		
			<rect id="XMLID_6_" x="291.3" y="294.7" transform="matrix(0.7071 -0.7071 0.7071 0.7071 -123.5079 293.4794)" class="st13" width="2.3" height="2.3"/>
		
			<rect id="XMLID_5_" x="245.5" y="307.3" transform="matrix(0.7071 -0.7071 0.7071 0.7071 -136.3817 291.8192)" class="st22" width="77.2" height="6.5"/>
		<path id="XMLID_4_" class="st18" d="M234.6,315.7c0,0,27.2,27.3,35.1,40.6l2.6-2.9L234.6,315.7z"/>
		<path id="XMLID_357_" class="st27" d="M435.2,130.9c0,0,1.5,5.1,2,9.7C437.3,142,303,274.9,303,274.9l-6-6"/>
		<path id="XMLID_355_" class="st21" d="M305.4,277.3l132.2-132.2c0,0,0.4,0.8-0.1,1.8c-0.4,1-131.3,131.3-131.3,131.3
			S305.6,277.5,305.4,277.3z"/>
		<path id="XMLID_359_" class="st27" d="M315.9,287.7l83.5-83.5c0,0-1,1.9-0.3,5.4l-80.6,80.6L315.9,287.7z"/>
		<path id="XMLID_360_" class="st27" d="M407,196.2l15.4-15.2c0,0-1.4,3.3-1.4,7.5l-7.5,7.4C413.4,195.8,410.9,194.4,407,196.2z"/>
		<polygon id="XMLID_362_" class="st21" points="228,327.6 237.3,318.3 234.7,315.6 225.3,325 		"/>
		<path id="XMLID_363_" class="st18" d="M226,325.7l9.5-9.5l-0.7-0.7l-9.5,9.5C225.3,325,225.5,325.2,226,325.7z"/>
		<path id="XMLID_365_" class="st18" d="M271.5,354.8c0,0-26.3-28.2-39.3-36.5l3-2.5L271.5,354.8z"/>
		<polygon id="XMLID_366_" class="st18" points="251.2,305.6 279.1,277.6 290.4,288.9 262.3,316.9 		"/>
		<polygon id="XMLID_367_" class="st22" points="258.6,313.1 286.6,285.1 290.4,288.9 262.3,317 		"/>
	</g>
</g>
</svg>
