<?xml version="1.0" encoding="utf-8"?>
<!-- Generator: Adobe Illustrator 19.0.0, SVG Export Plug-In . SVG Version: 6.00 Build 0)  -->
<svg version="1.1" id="Layer_1" xmlns="http://www.w3.org/2000/svg" xmlns:xlink="http://www.w3.org/1999/xlink" x="0px" y="0px"
	 viewBox="0 0 600 600" style="enable-background:new 0 0 600 600;" xml:space="preserve">
<style type="text/css">
	.st0{fill:#FFFFFF;}
	.st1{fill:#D1D3D4;stroke:#FFFFFF;stroke-miterlimit:10;}
</style>
<g id="XMLID_480_">
	<path id="XMLID_478_" class="st0" d="M297.1,118.4l0.3,12.2c0,1.2,1,2.1,2.2,2.1s2.2-0.9,2.2-2.1l0.3-12.2
		c-0.1-5.3-0.1-9.4-0.2-12.7c0.4-1.9,0.3-3.8,0.2-5.6c0-0.6-0.1-1.1-0.1-1.6l-0.1-1.5c-0.1-2-0.5-3.3-1.3-3.8
		c-0.2-0.2-0.4-0.2-0.7-0.2l0,0h-0.7l0,0c-0.3,0-0.5,0-0.7,0.3c-0.7,0.5-1.1,1.8-1.2,3.8l-0.1,1.5c0,0.5-0.1,1.1-0.1,1.6
		c-0.1,1.9-0.2,3.8,0.2,5.6C297.2,109,297.2,113.2,297.1,118.4z"/>
	<path id="XMLID_477_" class="st0" d="M299.6,143c-0.9,0-1.6,0.7-1.6,1.5c-0.7,10.1-0.9,19.9-0.5,29.3c0,1.2,1,2,2.1,2s2-0.9,2.1-2
		c0.4-9.4,0.2-19.2-0.5-29.3C301.2,143.7,300.5,143,299.6,143z"/>
	<path id="XMLID_476_" class="st0" d="M302,489.6l0.1-1.5c0-0.5,0.1-1.1,0.1-1.6c0.2-2.2,0.3-4.4-0.4-6.6c-0.3-0.9-1.1-1.5-2.1-1.5
		s-1.8,0.6-2.1,1.5c-0.7,2.2-0.6,4.4-0.4,6.6c0,0.5,0.1,1.1,0.1,1.6l0.1,1.5c0.2,2.7,0.8,4,2,4h0.7l0,0
		C301.2,493.6,301.8,492.3,302,489.6z"/>
	<path id="XMLID_475_" class="st0" d="M300.5,410.9c-0.3-0.1-0.5-0.2-0.8-0.2s-0.6,0.1-0.8,0.2c-0.8,0.3-1.4,1.1-1.4,2
		c-0.5,13.6-0.2,27.4,0.2,40.7c0.1,5.1,0.3,10.3,0.3,15.4c0,1,0.8,1.7,1.7,1.7c1,0,1.7-0.7,1.7-1.7c0.1-5.1,0.2-10.3,0.3-15.4
		c0.3-13.3,0.7-27.1,0.2-40.7C301.9,411.9,301.3,411.2,300.5,410.9z"/>
	<path id="XMLID_474_" class="st0" d="M158.3,154.3L158.3,154.3c0.7,0,1.4-0.4,1.9-1c0.4-0.6,0.6-1.3,0.4-1.9l-0.5-1.9l-4.2,4.2
		l1.9,0.5L158.3,154.3z"/>
	<path id="XMLID_473_" class="st0" d="M176,173.4l1,1c1.1,1.1,2.1,2.3,3.2,3.4c2.8,3.1,5.8,6.3,9.1,8.9c0.5,0.4,1.2,0.6,1.8,0.6
		c1,0,1.9-0.6,2.4-1.5s0.3-2-0.4-2.9c-2.6-3.3-5.8-6.2-8.9-9.1c-1.2-1.1-2.3-2.1-3.4-3.2l-1-1c-3.8-3.6-7.6-7.3-11.8-10.6
		c-0.9-0.7-2.2-0.4-2.7,0.6c-0.3,0.6-0.2,1.3,0.2,1.9C168.7,165.7,172.4,169.6,176,173.4z"/>
	<path id="XMLID_472_" class="st0" d="M200.3,194.9c-0.3,0.7-0.2,1.4,0.3,2l2.2,2.5c11.9,13.4,24.1,27.3,37.7,38.4
		c0.5,0.4,1.1,0.6,1.7,0.6c1,0,1.9-0.6,2.3-1.5c0.4-0.9,0.3-1.9-0.4-2.8c-11.1-13.6-24.9-25.8-38.4-37.7l-2.5-2.2
		C202.3,193.4,200.8,193.8,200.3,194.9z"/>
	<path id="XMLID_471_" class="st0" d="M498,294.6l0.5,0.5l1.6,1.8l0,0l0,0v-6.6v-0.9l-2,2.6c-0.3,0.4-0.4,0.8-0.4,1.3
		C497.5,293.7,497.7,294.2,498,294.6z"/>
	<path id="XMLID_470_" class="st0" d="M488.9,291.6c-12-1.6-24.1-2-33.6-0.9c-1.4,0.2-2.4,1.2-2.4,2.6s1,2.4,2.4,2.6
		c3.6,0.4,7.6,0.6,11.9,0.6c6.8,0,14.3-0.5,21.7-1.5c0.8-0.1,1.4-0.8,1.4-1.7S489.7,291.7,488.9,291.6z"/>
	<path id="XMLID_469_" class="st0" d="M399.3,289c-1.4,0-2.5,1.2-2.5,2.6c0,1.5,1.1,2.6,2.5,2.6c4.5,0.1,9,0.2,13.5,0.2
		c10.2,0,19.2-0.3,27.4-1.1c0.9-0.1,1.6-0.8,1.6-1.7c0-0.9-0.7-1.6-1.6-1.7c-8.2-0.7-17.2-1.1-27.4-1.1
		C408.3,288.8,403.8,288.9,399.3,289z"/>
	<path id="XMLID_468_" class="st0" d="M116.2,296h1.7l8.5,0.1c3.3,0,6.7,0.1,10,0.1c5.7,0.1,11.5,0.2,17.3,0.2l0,0
		c7.3,0,13.3-0.2,19.1-0.5c1.6-0.1,2.5-1.4,2.5-2.6s-0.9-2.5-2.5-2.6c-5.7-0.3-11.8-0.5-19-0.5c-5.8,0-11.5,0.1-17.3,0.2
		c-3.3,0.1-6.7,0.1-10,0.1l-8.5,0.1h-1.7c-16.9,0-17,1-17,2.1v1.1C99.3,295,99.3,296,116.2,296z"/>
	<g id="XMLID_682_">
		<path id="XMLID_683_" class="st0" d="M408.1,181.3c-12.3,11.3-22.8,21.9-32,32c-0.4,0.4-0.6,0.9-0.7,1.4
			c-5.7,5.4-11.3,10.8-16.8,16.3c-3,2.7-5.8,5.3-8.5,8c-0.3,0.3-0.4,0.6-0.5,1c-1.5,1.5-3,2.9-4.4,4.4c-0.7,0.7-0.9,1.7-0.5,2.6
			c0.4,0.9,1.3,1.6,2.3,1.6c0.6,0,1.2-0.2,1.7-0.7c1.4-1.4,2.9-2.9,4.3-4.3c0.4-0.1,0.8-0.3,1.1-0.6c2.7-2.7,5.4-5.5,8-8.5
			c5.5-5.6,10.9-11.2,16.3-16.9c0.5-0.1,1-0.3,1.4-0.6c10.1-9.2,20.6-19.7,31.9-31.9c6.9-6.7,13.7-13.7,20.1-20.9
			c0.5-0.1,1-0.3,1.4-0.6l3.2-2.9c1.7-1.8,6.2-7.7,4.6-9.3l-0.4-0.4h-0.5c-1.5,0-5.4,3.6-7.8,5.7l-2.8,3.2c-0.4,0.4-0.6,0.9-0.6,1.4
			C421.7,167.6,414.8,174.4,408.1,181.3z M347,247.3L347,247.3L347,247.3L347,247.3z"/>
	</g>
	<path id="XMLID_465_" class="st0" d="M451.4,240.8c0.2,1.1,1,1.8,2.1,1.8c0.2,0,0.5,0,0.7-0.1l11.7-3.7
		c24.1-8.6,23.9-9.1,23.5-10.4l-0.5-0.8H488c-1.7,0-11.9,2.4-23.8,6.4l-11.4,4.3C451.8,238.6,451.2,239.7,451.4,240.8z"/>
	<path id="XMLID_464_" class="st0" d="M440.2,243.3l-0.4,0.1c-9.7,2.6-19,5.6-27.8,9.1c-1,0.4-1.5,1.4-1.3,2.4s1,1.7,1.9,1.7l0,0
		c0.2,0,0.4,0,0.6-0.1c9-2.7,18.3-6.1,27.7-10c0.7-0.3,1.1-1,0.9-1.7C441.6,243.8,441,243.3,440.2,243.3z"/>
	<path id="XMLID_463_" class="st0" d="M397.6,257.7l-0.6,0.1c-1.7,0.5-3.4,1-5.2,1.5c-3.2,0.9-6.4,1.8-9.5,3
		c-1.1,0.5-1.8,1.6-1.5,2.8c0.2,1.1,1.1,1.9,2.2,1.9c0.2,0,0.5,0,0.7-0.1c3.2-0.9,6.3-2.2,9.4-3.5c1.7-0.7,3.3-1.4,5-2
		c0.9-0.3,1.4-1.2,1.2-2.2C399.2,258.3,398.4,257.7,397.6,257.7z"/>
	<path id="XMLID_462_" class="st0" d="M133,348.8c-0.8,0.3-1.3,1.1-1.1,2c0.1,0.8,0.8,1.4,1.6,1.4l0.6-0.1c4.9-1.6,9.7-3.1,14.6-4.7
		c12.7-4,25.9-8.2,38.5-13.1c1.1-0.4,1.7-1.5,1.4-2.6c-0.2-1.3-1.5-2.1-2.8-1.7c-13,3.9-25.9,8.7-38.4,13.4
		C142.7,345.3,137.8,347.1,133,348.8z"/>
	<path id="XMLID_461_" class="st0" d="M200,327.3c0.2,0.8,0.9,1.4,1.6,1.4h0.4c10.8-2.5,22.3-6.1,33.2-10.3c1.3-0.5,2-1.8,1.8-3.2
		c-0.1-0.6-0.4-1.1-0.8-1.4c2.3-1.1,4-2.2,4.4-2.9l0.3-0.6l-0.1-0.5c-0.1-0.4-0.4-1-1.6-1c-2.1,0-8.4,1.7-13.8,3.5l-6.3,2.7
		c-0.7,0.3-1.1,1-0.9,1.7c0.1,0.6,0.6,1,1.2,1.2c-6.3,2.3-12.6,4.9-18.4,7.6C200.2,325.9,199.9,326.6,200,327.3z"/>
	<path id="XMLID_460_" class="st0" d="M387.3,115.9c0.4,0,0.9-0.1,1.2-0.4l1.7-1.1l-5.2-2.6v1.8C385,114.9,386,115.9,387.3,115.9z"
		/>
	<path id="XMLID_459_" class="st0" d="M211.3,473.2l0.6,0.1c1.6,0,4.9-4.1,6.8-7.8l1.7-4c0.3-0.7,0.2-1.5-0.2-2.2
		c-1-1.5-3.6-1.5-4.5,0.1l-2.2,3.8C209.5,472.3,210.6,472.8,211.3,473.2z"/>
	<path id="XMLID_458_" class="st0" d="M224.2,451.5c12.3-21.5,21.8-40.3,29.2-57.6c0.4-0.8,0.3-1.8-0.2-2.5c-1-1.5-3.4-1.5-4.3,0.1
		c-9,16.4-18,35.6-27.5,58.7c-0.2,0.5-0.1,1,0.1,1.4c0.3,0.4,0.8,0.7,1.3,0.7C223.4,452.3,223.9,452,224.2,451.5z"/>
	<path id="XMLID_457_" class="st0" d="M319.7,351.1l-0.4,0.1c-0.3,0.1-0.6,0.3-0.9,0.9c-0.4,0.9-0.5,2.6,0.3,4.3l0.7,1.6
		c1.1,2.6,2.2,5.3,3.2,7.9l0.6,1.3h0.8l0.7-0.1l0.7-1.1l-1.5-4.9C321.3,351.1,320.5,351.1,319.7,351.1z"/>
	<path id="XMLID_456_" class="st0" d="M279.3,235.6c1.6-0.6,1.6-4.5,0.9-7.1l-1-2.2c-0.7-1.6-3-1.7-4.1-0.3
		c-0.5,0.6-0.7,1.4-0.5,2.1l0.6,2.5c2.1,5.2,3.3,5.2,3.7,5.2L279.3,235.6z"/>
	<path id="XMLID_455_" class="st0" d="M137.1,211.7c-1.2-0.6-2.6,0.2-2.9,1.4c-0.2,0.9,0.2,1.7,1,2.2c6.7,3.3,13.4,6.9,19.9,10.3
		c12.4,6.5,25.3,13.3,38.3,18.9c0.4,0.2,0.8,0.2,1.2,0.2c1.3,0,2.5-0.9,2.8-2.2c0.3-1.2-0.2-2.3-1.3-2.9
		c-12.5-6.8-25.8-12.8-38.6-18.6C150.8,218.1,143.8,214.9,137.1,211.7z"/>
	<path id="XMLID_454_" class="st0" d="M211,247.6c-1.3-0.5-2.5-1-3.8-1.5l-0.7-0.1c-0.8,0-1.5,0.6-1.7,1.4c-0.2,0.8,0.1,1.7,0.8,2.1
		c1.1,0.6,2.2,1.3,3.3,1.9c4.3,2.6,8.7,5.2,13.4,6.8c0.3,0.1,0.5,0.1,0.8,0.1c1,0,1.9-0.7,2.2-1.8c0.3-1.1-0.1-2.2-1-2.8
		C220.3,251.3,215.6,249.4,211,247.6z"/>
	<path id="XMLID_453_" class="st0" d="M415.9,351.8c14.6,7.4,29.7,15,45.1,20.9l0.5,0.1l1.1-0.2l0.2-0.8c0.2-0.6-0.1-1.2-0.6-1.6
		c-14-8.5-29.3-15.7-44-22.6c-1.4-0.7-3.1,0.2-3.5,1.7C414.4,350.3,414.8,351.3,415.9,351.8z"/>
	<path id="XMLID_452_" class="st0" d="M403.3,346.9c0.9,0,1.6-0.6,1.9-1.5c0.2-0.8-0.2-1.6-0.9-2c-14.5-7.7-29.4-15.2-44.2-22.2
		c-1.4-0.7-3.2,0.2-3.5,1.7c-0.2,1.1,0.2,2.1,1.2,2.6c14.6,7.3,29.7,14.5,44.8,21.2C402.7,346.9,403,346.9,403.3,346.9z"/>
	<path id="XMLID_451_" class="st0" d="M381.4,179.1c0.4,0.7,1.2,1.2,2,1.2c0.7,0,1.4-0.3,1.8-0.9c9.8-13,18.9-26.7,26.7-38.5
		c0.4-0.6,0.4-1.2,0.1-1.8c-0.6-1.1-2.4-1.2-3.1-0.2c-8.6,11.3-18.5,24.6-27.4,38.1C381.1,177.6,381,178.4,381.4,179.1z"/>
	<path id="XMLID_450_" class="st0" d="M375.7,186.2c-5.3,6.2-10,12.7-14.1,19.1c-0.4,0.6-0.4,1.4,0,2.1c0.4,0.7,1.1,1.2,1.9,1.2
		c0.6,0,1.1-0.3,1.5-0.7c4.8-6.1,9.3-12.7,13.3-19.7c0.3-0.5,0.3-1.1,0-1.6C377.8,185.6,376.4,185.4,375.7,186.2z"/>
	<path id="XMLID_449_" class="st0" d="M354.5,215.8c-0.9,1.1-1.8,2.3-2.7,3.4c-1.7,2.1-3.5,4.2-4.9,6.5c-0.1,0.2-0.2,0.5-0.2,0.7
		c-0.7-0.2-1.4-0.1-1.9,0.5l-3.7,4.6c-2.5,3.5-6.6,9.6-6.4,11.1l0.1,0.6l0.8,0.5h0.4c1.7,0,6.2-5,9.1-9.5l2.9-5.1V229
		c0.4,0.2,0.7,0.3,1.1,0.3c0.7,0,1.3-0.3,1.7-0.8c0.6-0.7,1.1-1.5,1.6-2.3c-0.1,0.5-0.1,1,0.1,1.5c0.5,0.9,1.4,1.5,2.4,1.5
		c0.7,0,1.3-0.3,1.7-0.8c10.4-11.2,21.4-24.9,32.6-40.7c0.3-0.5,0.4-1,0.1-1.5s-0.8-0.8-1.4-0.8l-0.7,0.1L387,186
		c-12.7,13.1-23.7,25.6-32.7,37.5c0.4-0.6,0.7-1.2,1.1-1.8c0.8-1.3,1.5-2.5,2.3-3.7c0.4-0.6,0.4-1.3,0.1-1.9
		C357.1,214.9,355.3,214.8,354.5,215.8z"/>
	<path id="XMLID_448_" class="st0" d="M197.4,439.9c0.6,0,1.1-0.3,1.4-0.7l2.1-2.9c0.2-0.3,0.5-0.6,0.8-0.9c0.6-0.6,1.2-1.3,1.6-2.1
		c0.3-0.6,0.2-1.4-0.1-2c-0.6-1-2.1-1.2-3-0.3c-0.6,0.6-1.1,1.4-1.5,2.1c-0.2,0.4-0.4,0.7-0.6,1l-2.1,3.1c-0.3,0.5-0.4,1.1-0.1,1.7
		C196.1,439.5,196.7,439.9,197.4,439.9z"/>
	<path id="XMLID_447_" class="st0" d="M211.9,414.2c-1.7,1-2.6,2.5-3.5,4l-0.9,1.5c-1.1,1.7-2.3,3.5-3.1,5.5
		c-0.3,0.6-0.2,1.3,0.1,1.8s0.9,0.9,1.5,0.9c0.5,0,0.9-0.2,1.3-0.5c1.5-1.4,2.8-3.1,4.1-4.7l0.4-0.5c0.2-0.3,0.5-0.6,0.7-0.9
		c1.1-1.3,2.3-2.7,2.6-4.6c0.1-0.7,0-1.4-0.5-1.9C214,413.9,212.8,413.6,211.9,414.2z"/>
	<path id="XMLID_446_" class="st0" d="M242.6,370.3c-6.8,8.7-12.9,18-18.9,27.1c-2.3,3.4-4.5,6.8-6.8,10.2c-0.4,0.5-0.4,1.2-0.1,1.7
		c0.3,0.6,0.9,0.9,1.6,0.9c0.6,0,1.1-0.3,1.4-0.7c2.4-3.3,4.9-6.6,7.4-9.9c6.5-8.6,13.1-17.4,19-26.6c0.4-0.7,0.4-1.5,0.1-2.2
		C245.5,369.4,243.5,369.1,242.6,370.3z"/>
	<path id="XMLID_445_" class="st0" d="M270,133.5l0.1,1.9c0.1,1.3,1,2.2,2.3,2.2c0.8,0,1.5-0.3,1.9-0.9c0.4-0.6,0.5-1.2,0.3-1.9
		l-0.5-1.8c-0.6-1.8-1.1-3.7-1.7-5.5l-0.4-0.9h-1.4l-0.7,0.8v0.5C269.8,129.7,269.9,131.6,270,133.5z"/>
	<path id="XMLID_444_" class="st0" d="M330.1,458.7c-0.4-5.4-1-12.4-2.6-18.8c-0.3-1.1-1.3-1.9-2.5-1.9c-0.8,0-1.5,0.3-2,0.8
		c-0.4,0.5-0.6,1.1-0.6,1.8c0.7,6.7,2.4,13.5,3.9,18.6c0.2,0.8,1,1.4,1.9,1.4l0,0c0.5,0,1.1-0.2,1.4-0.6
		C330,459.7,330.2,459.2,330.1,458.7z"/>
	<path id="XMLID_443_" class="st0" d="M323.6,433.3c0.4,0,0.9-0.2,1.1-0.5l0.4-0.6v-0.5c-1.8-19.1-4.5-36.4-7.9-51.5
		c-0.3-1.1-1.2-1.9-2.5-1.9c-0.8,0-1.5,0.3-2,0.9c-0.4,0.5-0.6,1.1-0.5,1.8c1.9,15.6,5.2,32.8,9.9,51.3
		C322.3,432.9,322.9,433.3,323.6,433.3z"/>
	<path id="XMLID_442_" class="st0" d="M311.6,370.3l0.4,0.9h0.8h0.6l0.7-0.8l-0.1-5.8c-0.4-3.7-2.2-11-4.5-11l0,0l-0.6,0.1l-0.3,0.4
		c-0.9,1.3,0.4,7.5,1.3,11.2L311.6,370.3z"/>
	<path id="XMLID_441_" class="st0" d="M433.5,390.1c0.5,0.2,0.9,0.5,1.4,0.7c1.6,0.9,3.2,1.9,4.8,3l1.3,0.8h0.3
		c0.6,0,1.1-0.4,1.3-0.9l0.2-0.9l-1.6-1.2c-1.5-1.1-2.9-2.3-4.4-3.5c-0.4-0.3-0.8-0.7-1.2-1.1c-1.2-1.1-2.4-2.3-3.9-3
		c-1.1-0.5-2.5,0-3,1.1c-0.3,0.8-0.1,1.6,0.5,2.2C430.5,388.5,432,389.3,433.5,390.1z"/>
	<path id="XMLID_440_" class="st0" d="M423.4,379.6c0.3-0.6,0.1-1.3-0.4-1.8c-2.4-2.5-5.3-4.6-8-6.7l-2-1.5
		c-0.8-0.6-1.6-1.2-2.4-1.9c-2.9-2.3-6-4.7-9.3-6.4c-1.4-0.7-3.1,0-3.7,1.4c-0.4,1-0.1,2,0.6,2.7c2.6,2.4,5.6,4.4,8.5,6.2
		c0.7,0.5,1.4,0.9,2.1,1.4l2.3,1.6c3.1,2.1,6.4,4.3,9.8,5.9l0.5,0.2h0.2C422.5,380.7,423.1,380.2,423.4,379.6z"/>
	<path id="XMLID_439_" class="st0" d="M392.9,361.4l0.5,0.2h0.3c0.7,0,1.4-0.5,1.7-1.1c0.3-0.7,0.1-1.4-0.5-1.8
		c-8.3-7.5-17.7-13.9-26.5-19.8c-1.4-0.9-3.2-0.2-3.7,1.3c-0.4,1.1,0,2.3,0.9,3.1C374,349.6,383.2,356.2,392.9,361.4z"/>
	<path id="XMLID_438_" class="st0" d="M351.1,334l1.3,0.8c1.8,1.1,3.4,1.9,5.1,2.6l0.5,0.1c0.6,0,1.1-0.3,1.3-0.9
		c0.3-0.6,0.2-1.2-0.2-1.7c-1.3-1.5-2.7-2.7-4.3-4l-1.2-1c-0.6-0.4-2-1.4-3.2-1.4c-0.8,0-1.1,0.4-1.3,0.6c-0.3,0.4-0.4,1-0.2,1.7
		C349.1,331.8,349.8,333.1,351.1,334z"/>
	<path id="XMLID_437_" class="st0" d="M225.1,241.3c-0.2,0.8,0,1.6,0.7,2l7.2,5.2c4.1,3.1,13.7,10.3,15.4,10.3h0.7l0.6-1l-0.1-0.5
		c-0.3-1.6-8.2-7.9-14.5-12l-7.4-5.1C226.8,239.7,225.5,240.2,225.1,241.3z"/>
	<path id="XMLID_436_" class="st0" d="M467.8,342.8l0.5,0.1c0.9,0,1.6-0.6,1.8-1.5c0.1-0.9-0.4-1.7-1.2-2
		c-13.5-4.4-29.2-9.5-44.9-13.5c-1.3-0.3-2.5,0.5-2.7,1.8c-0.2,1.1,0.4,2.1,1.5,2.5C438.1,335.2,454.1,339.4,467.8,342.8z"/>
	<path id="XMLID_435_" class="st0" d="M410.8,324.8c0.8,0,1.4-0.5,1.6-1.3c0.1-0.8-0.3-1.5-1-1.8c-7.6-2.9-15.1-5.3-22.5-7l-0.5-0.1
		c-1,0-1.9,0.7-2,1.7c-0.2,1,0.4,2,1.4,2.4c7.2,2.5,14.8,4.5,22.8,6.1L410.8,324.8z"/>
	<g id="XMLID_647_">
		<path id="XMLID_648_" class="st0" d="M366,316.2c2.5,0.9,5.2,1.5,7.8,2c1.4,0.3,2.8,0.6,4.2,0.9l0.5,0.1c0.9,0,1.7-0.7,1.9-1.6
			c0.2-1-0.4-1.8-1.3-2.1c-1.4-0.4-2.7-1-4.1-1.5c-2.5-0.9-5.1-1.9-7.7-2.5c-1.4-0.3-2.7,0.6-2.9,1.9
			C364.2,314.6,364.9,315.8,366,316.2z M366.4,315.1L366.4,315.1L366.4,315.1L366.4,315.1z"/>
	</g>
	<path id="XMLID_431_" class="st0" d="M134.7,243.4c-0.4-0.1-0.8-0.1-1.2-0.3l-3.7-1l-0.5-0.1c-0.8,0-1.5,0.6-1.6,1.4
		c-0.1,0.8,0.3,1.6,1.2,1.9l3.4,1.1c0.4,0.1,0.8,0.3,1.2,0.5c0.7,0.3,1.5,0.6,2.4,0.8h0.3c1,0,1.9-0.7,2.1-1.7
		c0.2-0.9-0.2-1.7-1.1-2C136.2,243.6,135.4,243.5,134.7,243.4z"/>
	<path id="XMLID_430_" class="st0" d="M148.3,251.8l0.5,0.2c0.4,0.1,0.8,0.3,1.2,0.4c1.4,0.6,3,1.2,4.7,1.2c0.3,0,0.5,0,0.8-0.1
		c0.9-0.1,1.7-0.8,2-1.7c0.2-0.8,0-1.6-0.7-2.1c-1.6-1.3-3.4-1.7-5.2-2.1l-1.4-0.3c-2.1-0.5-4.2-1-6.6-1.2c-0.8,0-1.5,0.6-1.7,1.4
		c-0.2,0.8,0.2,1.7,0.9,2.1C144.6,250.5,146.5,251.1,148.3,251.8z"/>
	<path id="XMLID_429_" class="st0" d="M207.5,268.7c1.1,0,2-0.8,2.2-1.9s-0.4-2.2-1.5-2.5c-10.3-3.5-21.1-6.3-31.4-9
		c-4-1-8-2.1-11.9-3.1l-0.5-0.1c-0.8,0-1.6,0.6-1.7,1.5c-0.1,0.9,0.4,1.7,1.2,1.9c3.9,1.2,7.8,2.5,11.7,3.8
		c10.2,3.3,20.8,6.7,31.4,9.3C207.1,268.7,207.3,268.7,207.5,268.7z"/>
	<path id="XMLID_428_" class="st0" d="M439.5,213.9c-1.1,0.4-1.7,1.5-1.5,2.6s1.1,1.9,2.2,1.9c0.4,0,0.9-0.1,1.3-0.4l1.5-1.1
		c1.6-1.1,3.2-2.3,4.7-3.5l0.7-0.6l-0.7-1.6h-0.8l-0.4,0.1c-1.8,0.6-3.5,1.3-5.3,2L439.5,213.9z"/>
	<path id="XMLID_427_" class="st0" d="M421.1,229.6l1.6-0.9c3.5-2,7.1-4.1,10.3-6.7c0.6-0.4,0.8-1.2,0.5-1.9s-0.9-1.2-1.7-1.2
		l-0.5,0.1c-3.6,1.2-7.1,3-10.4,4.7l-1.6,0.8c-1.1,0.6-2.2,1.1-3.3,1.6c-3.3,1.6-6.8,3.3-9.8,5.5c-1,0.7-1.4,2.1-1,3.3
		c0.3,1.1,1.2,1.7,2.3,1.7c0.3,0,0.6-0.1,1-0.2c3.4-1.3,6.5-3.2,9.6-5.1C419.1,230.8,420.1,230.2,421.1,229.6z"/>
	<path id="XMLID_426_" class="st0" d="M396,238.2l-1.2,0.5c-13,5.9-27.8,12.6-39.4,21c-0.9,0.7-1.3,1.9-0.9,3.1
		c0.3,1,1.2,1.7,2.2,1.7c0.3,0,0.6-0.1,0.9-0.2c13.6-5.5,27.4-14.4,39.5-22.4l0.7-0.5c0.7-0.5,1-1.3,0.8-2.1
		C398.3,238.3,397,237.8,396,238.2z"/>
	<path id="XMLID_425_" class="st0" d="M246.4,324.2l0.2-0.6l-0.3-0.4c-0.2-0.3-0.6-0.7-1.4-0.7c-1.5,0-5.7,1.3-10.1,4.1l-4.1,3.1
		l-0.7,0.7l0.1,0.4c-4,2.3-11.2,6.8-17.8,10.8l-9.8,5.8c-0.7,0.4-1,1.2-0.8,2s0.9,1.3,1.7,1.3c0.3,0,0.6-0.1,0.9-0.2
		c9.2-5.2,18.7-10.3,27.8-15.2l5.7-3.1l-1-1.1c-0.2-0.2-0.5-0.5-0.8-0.8c1.1-0.4,2.2-0.8,2.5-1C239.1,329.1,245.9,325.8,246.4,324.2
		z"/>
	<path id="XMLID_424_" class="st0" d="M139.9,322.3l-12.4,2c-24.9,5.1-24.8,5.7-24.6,7c0.2,1,1.3,1,1.9,1c3,0,13-1.1,23.8-3.1
		l11.9-2.7c1.1-0.2,1.8-1.2,1.7-2.3C142,323.2,141,322.3,139.9,322.3z"/>
	<path id="XMLID_423_" class="st0" d="M152.2,322c0.1,0.8,0.7,1.4,1.5,1.4h0.2c10.1-1.2,19.9-3,29-5.2c1-0.2,1.7-1.1,1.6-2.2
		c-0.1-1.1-1.1-1.9-2.2-1.9H182c-9.3,1.4-19,3.5-28.6,6.1C152.6,320.4,152.1,321.2,152.2,322z"/>
	<path id="XMLID_422_" class="st0" d="M197.6,311.3c-1,0.2-1.5,1-1.4,2s0.9,1.8,1.9,1.8h0.3c1.8-0.3,3.6-0.5,5.4-0.8
		c3.3-0.4,6.6-0.9,9.9-1.7c1.2-0.3,1.9-1.3,1.8-2.5c-0.2-1.3-1.2-2.2-2.5-2.2h-0.4c-3.3,0.4-6.6,1.3-9.7,2.1
		C201.1,310.4,199.4,310.9,197.6,311.3z"/>
	<path id="XMLID_421_" class="st0" d="M488.7,253.8c-2.2,0.3-4.4,0.6-6.4,1.7c-0.8,0.5-1.2,1.3-1.1,2.2c0.2,1,1,1.7,2,1.9
		c0.4,0.1,0.8,0.1,1.2,0.1c1.7,0,3.4-0.4,5-0.9c0.5-0.1,1-0.3,1.5-0.4c1.6-0.4,3.2-0.8,4.8-1.2l1-0.3l-0.8-4.1l-1,0.1
		c-1.5,0.2-3.1,0.4-4.6,0.6C489.8,253.6,489.3,253.7,488.7,253.8z"/>
	<path id="XMLID_420_" class="st0" d="M472,257.9h-0.3c-5.1,0.9-10.1,1.8-15.2,2.6c-13.2,2.2-26.8,4.5-40,7.6
		c-1.1,0.3-1.8,1.2-1.7,2.3c0.1,1.2,1.1,2.1,2.3,2.1h0.4c13.4-2.1,26.9-5.1,39.9-8c5-1.1,10-2.2,15-3.3c0.9-0.2,1.4-0.9,1.3-1.8
		C473.7,258.6,472.9,257.9,472,257.9z"/>
	<path id="XMLID_419_" class="st0" d="M364.6,280.2c0.2,1.5,1.4,2.6,2.8,2.6c0.2,0,0.3,0,0.5,0c11.7-1.9,23.4-4.6,33.9-7.7
		c0.8-0.2,1.3-1,1.2-1.9c-0.1-0.8-0.8-1.4-1.7-1.4l0,0c-11.1,1-23,3-34.6,5.7C365.3,277.7,364.5,278.8,364.6,280.2z"/>
	<path id="XMLID_418_" class="st0" d="M282.7,193.2c-1.9-11.1-4.6-25.7-8.7-39.9c-0.3-1.2-2.2-1.6-3-0.7c-0.3,0.3-0.5,0.8-0.4,1.3
		c0.7,6.8,1.8,14,3.3,22c-0.7-0.5-1.7-0.5-2.3,0.2c-0.3,0.4-0.5,0.9-0.4,1.4c1.3,9.3,3.6,19.2,7.2,32.1c0.3,1.1,1.3,1.9,2.4,1.9
		c0.8,0,1.6-0.4,2.1-1s0.7-1.4,0.5-2.2c-1-4.4-1.9-8.4-2.9-12.1c0.6-0.1,1.2-0.4,1.5-0.9C282.7,194.7,282.9,194,282.7,193.2z"/>
	<path id="XMLID_417_" class="st0" d="M289.4,232.1l0.1-0.5v-0.3c-0.4-5-2.2-10.3-3.7-13.8c-0.2-0.6-0.8-1-1.4-1
		c-0.7,0-1.2,0.5-1.3,1.1c-0.2-0.1-0.3-0.1-0.5-0.1c-0.8,0-1.5,0.7-1.5,1.5c0,2,0.2,7.2,1.9,11.3c0.3,0.7,0.9,1.1,1.7,1.4
		c0,0.1,0,0.2,0.1,0.3l0.2,0.6l0.2,0.2c0.4,0.3,1,0.5,1.6,0.5h0.5C287.6,233.3,289.1,232.9,289.4,232.1z"/>
	<g id="XMLID_628_">
		<path id="XMLID_629_" class="st0" d="M190.6,219.4l0.5,0.3c0.4,0.3,0.8,0.4,1.3,0.4l0,0c1,0,1.9-0.7,2.2-1.7
			c0.3-1.1,0-2.1-0.9-2.8l-0.6-0.4c-13.2-9.1-26.8-18.6-41-26.3l-0.4-0.2h-0.3c-0.6,0-1.1,0.4-1.3,0.9l-0.2,1l0.6,0.5
			C163.1,201.4,177,210.5,190.6,219.4z M193,216.5L193,216.5L193,216.5L193,216.5z"/>
	</g>
	<path id="XMLID_414_" class="st0" d="M209.9,143.2l6.4,10.4c0.4,0.7,1.1,1.1,1.8,1.1c0.8,0,1.6-0.4,2-1.1c0.4-0.7,0.4-1.5,0-2.2
		l-5.8-10.7c-12.5-21.2-13.4-21.2-14.1-21.2h-0.3l-0.3,0.2c-0.9,0.5-1.2,0.7,2.3,8.2C203.2,130.6,206,136.3,209.9,143.2z"/>
	<path id="XMLID_413_" class="st0" d="M239.8,191.9c0.7,0,1.4-0.4,1.8-1c0.4-0.6,0.4-1.4,0-2.1c-4.4-8.3-9.4-16.8-15.1-25.1
		c-0.6-0.9-2.1-0.9-2.7,0c-0.3,0.5-0.3,1.1-0.1,1.6c4.4,9.1,9.2,17.7,14.3,25.6C238.4,191.6,239.1,191.9,239.8,191.9z"/>
	<path id="XMLID_412_" class="st0" d="M252.4,207.3c-1-1.5-2-3-3-4.5c-0.7-1.2-2.6-1.1-3.3,0.1c-0.3,0.6-0.3,1.3,0,1.9
		c0.9,1.6,1.7,3.2,2.5,4.8c1.5,2.9,3,6,4.8,8.8c0.5,0.7,1.2,1.1,2,1.1c0.9,0,1.7-0.5,2.1-1.2s0.5-1.6,0.1-2.4
		C256.1,212.8,254.2,210,252.4,207.3z"/>
	<path id="XMLID_411_" class="st0" d="M395.1,463.1l0.8,1.3c0.8,1.2,2,2.7,3.1,2.7h0.4l0.3-0.2c1.1-0.7,1.1-3.2,0.3-4.9l-0.7-1.3
		c-0.3-0.5-0.5-1-0.7-1.5c-1-2-1.9-4-3.7-5.5c-0.9-0.8-2.4-0.7-3.2,0.2c-0.4,0.5-0.6,1.2-0.5,1.9c0.4,2.2,1.7,4.1,2.9,5.9
		C394.5,462.2,394.8,462.7,395.1,463.1z"/>
	<path id="XMLID_410_" class="st0" d="M357.6,395.7c-0.4,0.7-0.4,1.5,0,2.2c6.4,12,13.6,23.7,20.5,35.1c2.7,4.4,5.4,8.8,8,13.2
		c0.3,0.5,0.9,0.8,1.5,0.8s1.2-0.3,1.5-0.9c0.3-0.5,0.3-1.2,0-1.7c-2.5-4.5-5-9-7.4-13.5c-6.4-11.7-13-23.8-20.2-35.3
		C360.6,394.3,358.4,394.4,357.6,395.7z"/>
	<path id="XMLID_409_" class="st0" d="M493.1,345.8c0.2-0.7,0.4-1.4,0.6-2.2l0.3-1l-1-0.3c-4.9-1.5-8.9-2.6-12.7-3.4
		c-1.4-0.3-2.9,0.7-3.1,2.1c-0.2,1.3,0.5,2.4,1.8,2.8c3.7,1.2,7.7,2.3,12.7,3.4l1.1,0.2L493.1,345.8z"/>
	<path id="XMLID_408_" class="st0" d="M472.1,195.1l2.8,0.9l-3.6-6.2l-0.6,2.9C470.5,193.8,471.1,194.8,472.1,195.1z"/>
	<path id="XMLID_407_" class="st0" d="M125.8,392.2l-0.1,0.5l0.8,1h0.7c1.7,0,9.1-2.8,16.6-7.2l7.4-4.2c2.9-1.6,5.8-3.3,8.8-4.9
		c10.4-5.8,21.1-11.8,31.2-18.4c1-0.7,1.4-1.8,1.1-2.9c-0.5-1.5-2.3-2.4-3.8-1.6c-10.8,5.5-21.3,11.8-31.6,17.9
		c-2.9,1.7-5.7,3.4-8.6,5.1L141,382C135.5,385.1,126.2,390.6,125.8,392.2z"/>
	<path id="XMLID_406_" class="st0" d="M373.8,140.4L373.8,140.4c0.7,0,1.4-0.4,1.8-1c0.9-1.4,1.4-3,1.8-4.6c0.2-0.5,0.3-1,0.5-1.5
		c0.6-1.8,1.3-3.6,2-5.3l0.6-1.7l-0.3-0.5c-0.2-0.4-0.7-0.6-1.1-0.6l-0.8,0.1l-0.9,1.7c-0.8,1.7-1.7,3.4-2.6,5
		c-0.2,0.4-0.5,0.9-0.8,1.3c-0.8,1.4-1.7,2.8-2.2,4.5c-0.2,0.6-0.1,1.3,0.3,1.8C372.5,140.1,373.1,140.4,373.8,140.4z"/>
	<path id="XMLID_405_" class="st0" d="M357.6,174.1c0.9,0,1.7-0.4,2.2-1.2c1.9-2.9,3.1-6.2,4.4-9.4c0.3-0.8,0.6-1.6,0.9-2.4l1-2.5
		c1.5-3.5,3-7.2,3.9-10.9c0.1-0.5,0-1-0.3-1.5c-0.7-0.9-2.2-0.8-2.8,0.1c-2.2,3.2-3.9,6.8-5.5,10.2l-2.3,4.7
		c-1.5,3.1-3.2,6.2-4.1,9.6c-0.2,0.8-0.1,1.6,0.4,2.2C356,173.7,356.8,174.1,357.6,174.1z"/>
	<path id="XMLID_404_" class="st0" d="M339,209.7c-0.3,0.7-0.2,1.5,0.2,2.2c0.5,0.8,1.4,1.2,2.4,1.2c0.1,0,0.2-0.1,0.4-0.1
		c-1,1.5-2,3.1-3,4.6c-0.3-0.3-0.7-0.5-1.1-0.5l-0.8,0.1l-0.3,0.4c-1.6,2-4.4,6.1-5.7,10.2c-0.2,0.7-0.1,1.5,0.4,2.1l0.1,0.1
		c-1,1.9-2.1,3.7-3.1,5.6c-0.5,0.9-0.4,1.9,0,2.7c0.5,0.8,1.4,1.4,2.4,1.4c0.9,0,1.7-0.5,2.3-1.3c6.1-9.6,11.8-20.2,16.5-30.7
		c0.2-0.5,0.2-1.1-0.1-1.6c-0.6-0.9-2.1-1-2.8,0c-0.3,0.5-0.7,1-1,1.5c3.6-7.7,7.7-17,10.7-26.4c0.2-0.5,0.1-1.1-0.2-1.5
		c-0.7-0.9-2.3-0.9-2.9,0.1C347.5,189.7,342.8,200.5,339,209.7z"/>
	<path id="XMLID_403_" class="st0" d="M261.7,375.6c0.3,0.5,0.9,0.8,1.5,0.8l0,0c0.7,0,1.2-0.4,1.5-1l3.8-8.1
		c5.2-10.4,7.6-16.3,7.2-17.3l-0.2-0.5l-0.4-0.2l-0.5-0.1c-2.3,0-8.3,13.8-9.4,16.5l-3.6,8.2C261.3,374.5,261.4,375.1,261.7,375.6z"
		/>
	<path id="XMLID_402_" class="st0" d="M330.3,381.7c3.6,10.8,8.1,21.5,12.4,31.9c2.3,5.5,4.7,11.2,6.9,16.8c0.3,0.8,1.1,1.3,2,1.3
		c0.7,0,1.3-0.3,1.7-0.9c0.4-0.5,0.4-1.1,0.2-1.8c-2.1-5.7-4.1-11.4-6-17.1c-3.7-10.7-7.5-21.8-12-32.4c-0.8-1.8-3.6-1.9-4.8-0.2
		C330.2,380,330.1,380.8,330.3,381.7z"/>
	<path id="XMLID_401_" class="st0" d="M259.5,194.7c0.4,1,1.3,1.6,2.3,1.6c0.8,0,1.6-0.4,2-1s0.5-1.3,0.2-2.1
		c-4.3-11.7-9.1-25-15.2-37l-0.5-0.7h-0.7c-0.4,0-0.9,0.2-1.1,0.6l-0.4,0.7l0.1,0.5C249.7,170.1,254.9,183.2,259.5,194.7z"/>
	<path id="XMLID_400_" class="st0" d="M311.3,165.4c1.2,0,2.2-0.9,2.3-2c2-16.1,3-32.6,3.8-46.7c0-0.5-0.1-1-0.5-1.3
		c-0.3-0.3-0.8-0.5-1.3-0.5c-1,0-1.7,0.7-1.9,1.6c-1.8,14.1-3.7,30.6-4.6,46.7c0,0.6,0.2,1.2,0.5,1.6
		C310.1,165.2,310.7,165.4,311.3,165.4z"/>
	<path id="XMLID_399_" class="st0" d="M308.3,199.9c1,0,1.8-0.7,2-1.7c1.1-7.7,1.7-15.6,1.7-23.7c0-0.9-0.7-1.6-1.7-1.6
		c-0.8,0-1.4,0.5-1.5,1.3c-1.4,8.1-2.3,16-2.6,23.6c0,0.5,0.2,1.1,0.6,1.5C307.1,199.6,307.7,199.9,308.3,199.9z"/>
	<path id="XMLID_398_" class="st0" d="M306.1,225.2c1.2,0,2.1-0.8,2.3-1.9c0.4-2.7,0.5-5.6,0.5-8.3c0-1.5,0-2.9,0.1-4.4
		c0-0.5-0.1-1-0.5-1.4c-0.3-0.4-0.8-0.6-1.3-0.6c-1,0-1.9,0.7-2,1.7c-0.2,1.4-0.4,2.8-0.7,4.3c-0.4,2.6-0.9,5.4-1,8.1
		c0,0.6,0.2,1.2,0.7,1.7C304.7,224.9,305.4,225.2,306.1,225.2z"/>
	<path id="XMLID_397_" class="st0" d="M283.7,471.6c0.9,0,1.6-0.7,1.7-1.5l0.4-3.6c0-0.4,0.1-0.8,0.2-1.3c0.2-0.8,0.3-1.6,0.3-2.4
		c0-1.1-0.9-1.9-2-1.9c-0.9,0-1.7,0.6-1.9,1.5c-0.2,0.8-0.2,1.6-0.1,2.4c0,0.4,0,0.8,0,1.3l-0.3,3.8c0,0.5,0.1,0.9,0.4,1.2
		C282.7,471.4,283.2,471.6,283.7,471.6z"/>
	<path id="XMLID_396_" class="st0" d="M288.1,448.6c0.1-0.4,0.1-0.7,0.2-1.1c0.3-1.7,0.6-3.4,0-5.2c-0.5-1.6-3.2-2-4-0.4
		c-0.9,1.7-1,3.4-1,5.1l-0.1,1.8c-0.1,2.1-0.2,4.2,0,6.4c0.1,1,0.9,1.7,1.9,1.7c0.8,0,1.5-0.5,1.7-1.3c0.6-2,0.9-4.1,1.1-6.1
		L288.1,448.6z"/>
	<path id="XMLID_395_" class="st0" d="M290.2,421.5c1.3-10.7,2.6-21.7,3.1-32.6c0-0.6-0.2-1.1-0.6-1.6s-1.1-0.7-1.8-0.7
		c-1.1,0-2,0.7-2.1,1.8c-1.5,10.9-2.2,22.1-2.8,32.9c-0.2,4.1-0.5,8.2-0.8,12.2c0,0.5,0.1,0.9,0.4,1.3c0.3,0.3,0.8,0.5,1.2,0.5
		c0.9,0,1.7-0.7,1.8-1.6C289.2,429.7,289.7,425.6,290.2,421.5z"/>
	<path id="XMLID_394_" class="st0" d="M194,169.8l1,1.5c0.4,0.7,1.1,1.1,1.9,1.1c1,0,1.9-0.6,2.2-1.5c0.3-0.8,0.1-1.7-0.6-2.4
		l-1.3-1.3c-1.4-1.3-2.8-2.6-4.3-3.9l-0.4-0.3l-1.2,0.1l-0.7,1.3l0.3,0.6C191.9,166.6,192.9,168.2,194,169.8z"/>
	<path id="XMLID_393_" class="st0" d="M201.4,176.6c-0.3,0.5-0.3,1.2,0,1.7c2.1,3.5,4.6,6.7,7.1,9.9l0.8,1c0.8,1,1.6,2.1,2.4,3.1
		c2.2,2.9,4.4,5.9,7.1,8.3c0.5,0.5,1.1,0.7,1.8,0.7c1,0,2-0.5,2.4-1.4c0.5-0.8,0.4-1.8-0.1-2.6c-1.7-2.9-4.1-5.4-6.3-7.8
		c-0.8-0.9-1.6-1.7-2.4-2.6l-1.2-1.4c-2.8-3.2-5.6-6.5-8.9-9.3C203.4,175.5,202,175.7,201.4,176.6z"/>
	<path id="XMLID_392_" class="st0" d="M249.8,229.2c-1.3-1.4-2.5-2.8-3.8-4.3l-2.2-2.6c-4.4-5.2-9-10.5-13.9-15.5
		c-0.8-0.9-2.4-0.6-3,0.5c-0.3,0.6-0.2,1.3,0.1,1.8c3.8,5.3,7.9,10.5,12,15.4l1.4,1.8c1.4,1.7,2.7,3.4,4,5.1
		c3.6,4.7,7.3,9.5,11.6,13.5c0.5,0.4,1.1,0.7,1.7,0.7c1,0,1.9-0.5,2.3-1.4c0.4-0.8,0.4-1.7-0.1-2.4
		C257.1,237.3,253.4,233.2,249.8,229.2z"/>
	<path id="XMLID_391_" class="st0" d="M405.9,423.6c0.4,0.3,0.8,0.5,1.3,0.5c0.7,0,1.4-0.4,1.8-1c0.3-0.6,0.3-1.3-0.1-1.9
		c-3-4.5-7.1-10.3-11.6-15c-1.2-1.2-3.4-0.7-4.2,0.7c-0.4,0.8-0.3,1.7,0.2,2.4C397.2,414.9,402.1,419.9,405.9,423.6z"/>
	<path id="XMLID_390_" class="st0" d="M340.1,339.5h-0.5l-0.7,0.7v0.5c-0.1,1.5,2.6,6.2,6.4,10.3l4.2,3.7l0.4,0.3h0.4l0.8-0.1
		l0.6-1.3l-3.3-5.4C344.1,342.5,341.3,339.5,340.1,339.5z"/>
	<path id="XMLID_389_" class="st0" d="M459,309.7c1.4,0.3,3.1,0.3,5,0.2c0.5,0,1,0,1.5,0h0.4c1.8,0,3.6,0.1,5.5,0.2h1.1
		c0.7,0,1.2-0.5,1.3-1.2v-1.2l-2.1-0.3c-1.9-0.3-3.8-0.5-5.8-0.9c-0.5-0.1-1-0.2-1.5-0.3c-1.5-0.3-2.9-0.7-4.9-0.7
		c-1.1,0-2,0.9-2.1,2C457.3,308.6,458,309.5,459,309.7z"/>
	<path id="XMLID_388_" class="st0" d="M440.6,307.2c2.9,0,5.7-0.1,8.4-0.3c0.8-0.1,1.5-0.7,1.6-1.6c0.1-0.8-0.4-1.5-1.2-1.8
		c-9-2.4-19.3-3.7-27-3.3c-1.3,0.1-2.4,1.1-2.5,2.5c-0.1,1.3,0.7,2.4,1.9,2.6C428.5,306.9,435.8,307.2,440.6,307.2z"/>
	<path id="XMLID_387_" class="st0" d="M408.7,303.6c1,0,2,0,2.9,0s1.6-0.7,1.7-1.6s-0.5-1.6-1.3-1.8c-11.8-2.4-23.8-3.3-33.1-3.9
		c-1.4,0-2.4,0.9-2.4,2.3c-0.1,1.3,0.7,2.7,2.4,2.9C390.9,302.9,400.1,303.6,408.7,303.6z"/>
	<path id="XMLID_386_" class="st0" d="M361.3,300l0.2,0.2l0.6,0.1c1.6,0.4,3.5,0.6,5.6,0.6c2,0,4.1-0.2,6.1-0.5
		c0.7-0.1,1.2-0.6,1.2-1.3c0.1-0.7-0.4-1.4-1-1.6c-1.9-0.7-7-2.2-11.4-2h-0.7l-0.3,0.2c-0.6,0.4-1,1.2-1,1.8
		C360.6,297.6,360.6,299.3,361.3,300z"/>
	<g id="XMLID_595_">
		<path id="XMLID_596_" class="st0" d="M126.8,276.3c-0.7,0.1-1.3,0.6-1.3,1.3c-0.1,0.7,0.4,1.3,1.1,1.5c8.3,2.2,17.1,2.9,25.7,3.7
			c2.9,0.2,5.8,0.5,8.6,0.8c2.7,0.3,5.4,0.6,8.1,0.9c9.6,1.1,19.5,2.2,29.2,2.4h0.1c1.3,0,2.4-1.1,2.6-2.5c0.1-1.4-0.7-2.5-2-2.7
			c-9-1.4-18.2-2.1-27.1-2.7c-2.5-0.2-5-0.4-7.4-0.6c-3.1-0.2-6.2-0.6-9.3-0.9c-6.9-0.7-14.1-1.4-21.1-1.4
			C131.3,276,129.1,276.1,126.8,276.3z M198.2,285.6L198.2,285.6L198.2,285.6L198.2,285.6z"/>
	</g>
	<path id="XMLID_382_" class="st0" d="M238.7,288.2v-0.5l-0.3-0.4c-1.1-1.3-11.1-2.7-18.5-3.1l-9.1-0.7c-0.9,0-1.6,0.7-1.7,1.6
		c-0.1,1,0.6,1.8,1.6,1.9l8.9,0.9c7.3,0.9,13.8,1.5,16.6,1.5C237.2,289.5,238.6,289.5,238.7,288.2z"/>
	<path id="XMLID_381_" class="st0" d="M186.2,385.3c-0.6,0.5-0.9,1.3-0.6,2.1c0.3,0.8,1.1,1.4,2,1.4c0.5,0,0.9-0.2,1.3-0.5
		c4.7-3.8,9.5-7.6,14.2-11.2c8.9-6.9,18.1-14.1,26.5-21.8c0.8-0.7,1.1-1.9,0.6-2.9c-0.7-1.7-2.7-2.4-4.1-1.4
		c-9.2,7-17.9,14.8-26.4,22.4C195.4,377.3,190.8,381.4,186.2,385.3z"/>
	<path id="XMLID_380_" class="st0" d="M249.3,336c-0.6-1.3-2.2-1.8-3.4-1.1c-1.7,1-3.2,2.4-4.6,3.8l-1.1,1c-1.9,1.8-3.8,3.6-5.6,5.4
		c-0.5,0.5-0.7,1.3-0.4,2s1,1.2,1.7,1.2c0.4,0,0.7-0.1,1-0.3c2.1-1.5,4.2-3,6.3-4.5c0.4-0.3,0.9-0.6,1.3-1c1.6-1.1,3.2-2.3,4.5-3.8
		C249.6,338,249.8,337,249.3,336z"/>
	<path id="XMLID_379_" class="st0" d="M420.2,189.9h-0.5l-0.3,0.2c-10.8,7.1-20.8,15.7-30.5,24.1l-0.8,0.7c-0.7,0.6-1,1.6-0.7,2.5
		c0.4,1,1.3,1.6,2.4,1.6c0.6,0,1.1-0.2,1.6-0.6l0.8-0.7c9.9-8,20.2-16.3,29-25.6l0.6-0.8l-0.3-0.7
		C421.3,190.2,420.8,189.9,420.2,189.9z"/>
	<path id="XMLID_378_" class="st0" d="M378.7,223.5c-10.6,8.1-21.1,16.6-31.1,25.2c-0.8,0.6-1,1.6-0.7,2.5c0.4,1,1.4,1.7,2.4,1.7
		c0.6,0,1.1-0.2,1.6-0.6c10.2-8.3,20.4-17,30.1-25.9c0.6-0.5,0.7-1.3,0.4-2C381.1,223.2,379.6,222.8,378.7,223.5z"/>
	<path id="XMLID_377_" class="st0" d="M334.3,155c1.1,0,2-0.7,2.3-1.9c2-7.7,3-16,3.8-23.1c0.1-0.5-0.1-1-0.4-1.4
		c-0.9-1-2.9-0.6-3.3,0.7c-1.9,6.8-4,14.7-5.1,22.6c-0.1,0.8,0.1,1.6,0.6,2.1C332.8,154.7,333.6,155,334.3,155z"/>
	<path id="XMLID_376_" class="st0" d="M317.9,228.2c0.3,0.4,0.8,0.6,1.3,0.8l-0.5,1.1c-0.7,1.7-0.7,3.4-0.3,4.3
		c0.2,0.6,0.6,0.8,0.9,0.9l0.4,0.1c0.8,0,1.6,0,4.2-10l1.3-4.4l0.1-0.7l-0.3-0.5c-0.2-0.3-0.6-0.5-1-0.5c3.6-16.2,6.8-34.6,9.5-55.9
		v-0.8l-0.3-0.4c-0.7-0.8-2.3-0.5-2.6,0.6c-6.3,23.9-10.6,44.5-13.3,63.2C317.2,226.9,317.4,227.6,317.9,228.2z"/>
	<path id="XMLID_375_" class="st0" d="M271.3,420.4c-1.2-1.3-3.8-0.7-4.5,0.9c-2.9,7-5,16.9-5.8,26.5c0,0.5,0.1,0.9,0.4,1.2
		c0.3,0.4,0.8,0.6,1.3,0.6c0.7,0,1.2-0.4,1.5-1c3.9-8.8,6.8-18.6,7.6-26.4C271.9,421.5,271.7,420.9,271.3,420.4z"/>
	<path id="XMLID_374_" class="st0" d="M272.8,375.8c-3.7,12.9-5.9,22.8-7.2,32.1c-0.1,0.5,0.1,1,0.4,1.4s0.8,0.6,1.3,0.6
		c0.7,0,1.4-0.5,1.6-1.2c3.3-8.8,6-18.5,9-31.6c0.2-0.8,0-1.6-0.5-2.2s-1.3-1-2.1-1C274.1,373.9,273.1,374.7,272.8,375.8z"/>
	<path id="XMLID_373_" class="st0" d="M282.9,356.1c-1.7,4.1-1.9,9.3-1.9,11.4c0,0.8,0.7,1.5,1.5,1.5c0.6,0,1.1-0.3,1.3-0.8
		c2.1-3.8,3.4-7.9,3.8-11.2c0.1-0.7-0.1-1.3-0.5-1.8C286.1,354,283.6,354.5,282.9,356.1z"/>
	<path id="XMLID_372_" class="st0" d="M297.3,388.3c0,0.1,0,0.3,0,0.4c0.1,0.9,0.1,1.8,0.1,2.7c0.1,1.8,0.2,3.6,0.3,5.4
		c0,1.1,0.9,1.9,1.9,1.9c1.1,0,1.9-0.8,1.9-1.9c0-1.8,0.2-3.6,0.3-5.4c0.1-0.9,0.1-1.8,0.1-2.7c0-0.1,0-0.2,0-0.3
		c0-0.7,0.1-1.5,0.1-2.2c0.4-7.8,0.5-16,0.3-24c-0.1-3.5-5.4-3.5-5.5,0c-0.3,8-0.2,16.2,0.3,24C297.2,386.9,297.3,387.6,297.3,388.3
		z"/>
	<path id="XMLID_371_" class="st0" d="M299.6,227c1.3,0,2.7-0.9,2.7-2.6c0.3-8,0.2-16.1-0.3-24c0-0.7-0.1-1.5-0.1-2.2
		c0-0.1,0-0.2,0-0.3c-0.1-0.9-0.1-1.8-0.1-2.7c-0.1-1.8-0.2-3.6-0.3-5.4c0-1.1-0.9-1.9-1.9-1.9c-1.1,0-1.9,0.8-1.9,1.9
		c0,1.8-0.2,3.6-0.3,5.4c-0.1,0.9-0.1,1.8-0.1,2.7c0,0.1,0,0.3,0,0.4c0,0.7-0.1,1.4-0.1,2.1c-0.4,7.8-0.5,16-0.3,24
		C297,226.1,298.3,227,299.6,227z"/>
	<path id="XMLID_370_" class="st0" d="M155.9,432.9l4.2,4.2l0.5-1.9c0.2-0.6,0-1.4-0.4-1.9c-0.5-0.6-1.2-1-1.9-1L155.9,432.9z"/>
	<g id="XMLID_578_">
		<path id="XMLID_579_" class="st0" d="M244.1,352.4c0.7-0.8,0.8-1.9,0.4-2.8c-0.7-1.4-2.7-1.9-4-0.8c-10,8.1-19.2,17.8-28.1,27.6
			c-8.1,7.6-16,15.7-23.6,23.8c-3.1,2.5-5.9,5.5-8.6,8.5c-1.1,1.2-2.1,2.3-3.2,3.4l-1,1.1c-3.6,3.7-7.3,7.6-10.6,11.8
			c-0.4,0.6-0.5,1.3-0.2,1.9s0.9,1,1.6,1c0.4,0,0.8-0.1,1.1-0.4c4.2-3.3,8.1-7,11.9-10.6l1-1c1.1-1.1,2.3-2.1,3.4-3.2
			c2.9-2.7,5.9-5.5,8.4-8.6c8.1-7.6,16.2-15.4,23.8-23.6C226.3,371.6,236,362.4,244.1,352.4z M241.2,349.7L241.2,349.7L241.2,349.7
			L241.2,349.7z"/>
	</g>
	<path id="XMLID_367_" class="st0" d="M187.9,293.3c0,0.3,0.2,0.6,0.6,0.6c11.8,0.1,23.5,0.5,35.2,0.8c0,0,0,0,0.1,0v1.2
		c0.4,0,0.7-0.1,1-0.2c0.1,0,0.2-0.1,0.3-0.2c0.2-0.1,0.4-0.2,0.5-0.4c0,0,0,0,0.1-0.1s0.2-0.3,0.2-0.4c0.1-0.1,0.1-0.2,0.2-0.3
		c0.1-0.3,0.2-0.6,0.2-1l0,0l0,0l0,0l0,0c0-0.3-0.1-0.7-0.2-1c0-0.1-0.1-0.2-0.2-0.3c-0.1-0.2-0.1-0.3-0.2-0.4c0,0,0,0-0.1-0.1
		c-0.1-0.2-0.3-0.3-0.5-0.4c-0.1-0.1-0.2-0.2-0.3-0.2c-0.3-0.1-0.6-0.2-1-0.2v1.2c0,0,0,0-0.1,0c-11.7,0.4-23.5,0.7-35.2,0.8
		C188.1,292.7,187.9,293,187.9,293.3z"/>
	<path id="XMLID_366_" class="st0" d="M344.7,339.7c-0.4,0.9-0.2,1.9,0.5,2.6c1.4,1.5,3,2.9,4.4,4.4c0.1,0.3,0.2,0.7,0.5,1
		c2.7,2.7,5.5,5.4,8.5,8c5.6,5.5,11.2,10.9,16.8,16.3c0.1,0.5,0.3,1,0.6,1.4c9.1,10.1,19.7,20.7,32,32c6.7,6.8,13.6,13.6,20.8,20
		c0.1,0.5,0.3,1,0.6,1.4l2.9,3.2c2.2,2.1,6.2,5.7,7.7,5.7h0.6l0.3-0.3c1.6-1.6-2.9-7.4-4.7-9.3l-3.2-2.8c-0.4-0.4-0.9-0.5-1.3-0.6
		c-6.4-7.2-13.3-14.1-20.1-20.9c-11.3-12.2-21.8-22.8-32-32c-0.4-0.3-0.8-0.5-1.3-0.6c-5.4-5.7-10.8-11.3-16.3-16.9
		c-2.7-3-5.3-5.8-8-8.5c-0.3-0.3-0.6-0.4-1-0.6c-1.5-1.4-2.9-2.9-4.4-4.4C347.4,337.6,345.3,338.1,344.7,339.7z"/>
	<path id="XMLID_365_" class="st0" d="M489,358.9l0.3-0.8c0.4-1.2,0.6-1.8-23.5-10.4l-11.6-3.7c-1.3-0.4-2.5,0.4-2.8,1.7
		c-0.2,1.1,0.4,2.2,1.4,2.6l11.4,4.3c11.8,3.9,22.1,6.3,23.8,6.3H489z"/>
	<path id="XMLID_364_" class="st0" d="M412,334.2c8.8,3.4,18.1,6.5,27.8,9.1l0.4,0.1c0.8,0,1.4-0.6,1.6-1.3c0.2-0.7-0.2-1.4-0.9-1.7
		c-9.4-4-18.7-7.4-27.7-10c-1.2-0.4-2.4,0.4-2.6,1.6C410.4,332.8,411,333.8,412,334.2z"/>
	<path id="XMLID_363_" class="st0" d="M382.3,324.3c3.1,1.3,6.3,2.2,9.5,3c1.7,0.5,3.5,1,5.2,1.5l0.6,0.1c0.9,0,1.6-0.6,1.8-1.5
		c0.2-1-0.3-1.9-1.2-2.2c-1.7-0.6-3.4-1.3-5-2c-3-1.3-6.2-2.6-9.4-3.5c-1.4-0.4-2.7,0.4-3,1.8C380.5,322.7,381.1,323.8,382.3,324.3z
		"/>
	<path id="XMLID_362_" class="st0" d="M185.9,256.5c0.2,0.1,0.5,0.1,0.7,0.1c1,0,1.9-0.7,2.1-1.8c0.2-1.1-0.4-2.2-1.5-2.6
		c-12.6-4.9-25.8-9-38.5-13.1c-4.9-1.6-9.8-3.1-14.7-4.7l-0.6-0.1c-0.8,0-1.5,0.6-1.6,1.4c-0.2,0.9,0.3,1.7,1.1,2
		c4.8,1.8,9.7,3.6,14.5,5.4C160,247.8,172.9,252.6,185.9,256.5z"/>
	<path id="XMLID_361_" class="st0" d="M200,259.2c-0.2,0.7,0.2,1.5,0.9,1.8c5.8,2.7,12.1,5.2,18.4,7.6c-0.6,0.2-1,0.6-1.2,1.2
		c-0.2,0.7,0.2,1.4,0.9,1.7l6.4,2.8c5.3,1.7,11.6,3.4,13.7,3.4c1.2,0,1.5-0.6,1.6-1l0.1-0.6l-0.2-0.4c-0.4-0.7-2-1.7-4.4-2.9
		c0.4-0.4,0.7-0.9,0.8-1.5c0.3-1.4-0.5-2.7-1.8-3.2c-10.9-4.2-22.4-7.8-33.2-10.3h-0.4C200.9,257.9,200.2,258.5,200,259.2z"/>
	<path id="XMLID_360_" class="st0" d="M387.3,470.6c-1.3,0-2.3,1-2.3,2.2v1.8l5.2-2.6l-1.7-1.1C388.1,470.8,387.7,470.6,387.3,470.6
		z"/>
	<path id="XMLID_359_" class="st0" d="M215.8,127.2c0.4,0.8,1.2,1.2,2.2,1.2c0.9,0,1.8-0.5,2.3-1.2c0.4-0.6,0.5-1.4,0.2-2.2
		l-1.7-4.1c-1.9-3.6-5.2-7.7-6.8-7.7l-0.6,0.1c-0.8,0.4-1.8,0.9,2.3,10L215.8,127.2z"/>
	<path id="XMLID_358_" class="st0" d="M248.9,195.1c0.5,0.8,1.2,1.3,2.1,1.3c0.8,0,1.7-0.5,2.2-1.2c0.5-0.8,0.6-1.7,0.2-2.5
		c-7.4-17.3-17-36.1-29.2-57.6c-0.5-0.9-2-0.9-2.6-0.1c-0.3,0.4-0.3,0.9-0.1,1.4C230.9,159.5,239.9,178.7,248.9,195.1z"/>
	<g id="XMLID_564_">
		<path id="XMLID_565_" class="st0" d="M279.2,360.3l1.1-2.4c0.7-2.5,0.7-6.4-0.9-7l-0.4-0.1c-0.4,0-1.6,0-3.8,5.4l-0.5,2.3
			c-0.2,0.7,0,1.5,0.5,2.1s1.3,1,2,1C278,361.6,278.8,361.1,279.2,360.3z M277.1,360.4L277.1,360.4L277.1,360.4L277.1,360.4z"/>
	</g>
	<path id="XMLID_355_" class="st0" d="M193.4,342c-13,5.7-25.9,12.4-38.3,18.9c-6.5,3.4-13.2,7-19.9,10.3c-0.8,0.4-1.2,1.3-1,2.2
		c0.2,1,1.1,1.6,2,1.6c0.3,0,0.6-0.1,0.9-0.2c6.7-3.2,13.7-6.3,20.4-9.4c12.8-5.8,26.1-11.8,38.6-18.6c1.1-0.6,1.6-1.8,1.3-2.9
		C197,342.3,195.1,341.3,193.4,342z"/>
	<path id="XMLID_354_" class="st0" d="M207.2,340.4c1.2-0.5,2.5-1,3.7-1.5c4.6-1.8,9.3-3.6,13.4-6.2c0.9-0.6,1.3-1.7,1-2.8
		c-0.4-1.3-1.7-2.1-3-1.6c-4.6,1.7-9.1,4.3-13.4,6.8c-1.1,0.7-2.2,1.3-3.3,1.9c-0.7,0.4-1.1,1.3-0.8,2.1c0.2,0.8,0.9,1.4,1.7,1.4
		L207.2,340.4z"/>
	<path id="XMLID_353_" class="st0" d="M414.6,237.3c0.3,1.1,1.3,2,2.4,2c0.4,0,0.7-0.1,1.1-0.3c14.7-6.9,29.9-14.1,43.9-22.6
		c0.5-0.3,0.8-1,0.6-1.6c-0.2-0.6-0.7-1-1.3-1l-0.5,0.1c-15.4,5.9-30.5,13.5-45.1,20.9C414.8,235.3,414.4,236.3,414.6,237.3z"/>
	<path id="XMLID_352_" class="st0" d="M381.4,407.5c-0.4,0.7-0.3,1.5,0.1,2.1c8.9,13.6,18.8,26.8,27.4,38.1c0.4,0.5,0.9,0.7,1.5,0.7
		c0.7,0,1.3-0.4,1.6-1c0.3-0.6,0.3-1.2-0.1-1.8c-7.8-11.8-16.8-25.5-26.7-38.5C384.3,406,382.1,406.2,381.4,407.5z"/>
	<path id="XMLID_351_" class="st0" d="M375.7,400.3c0.3,0.4,0.7,0.6,1.2,0.6c0.6,0,1.1-0.3,1.4-0.8s0.3-1.1,0-1.6
		c-4-6.9-8.5-13.6-13.3-19.7c-0.9-1.1-2.7-0.8-3.4,0.4c-0.4,0.7-0.3,1.4,0,2.1C365.7,387.7,370.4,394.1,375.7,400.3z"/>
	<path id="XMLID_350_" class="st0" d="M198.1,152.4c0.2,0.3,0.4,0.7,0.6,1c0.4,0.7,0.8,1.5,1.5,2.1c0.4,0.4,0.9,0.6,1.4,0.6
		c0.7,0,1.3-0.3,1.6-0.9c0.4-0.6,0.4-1.3,0.1-2c-0.4-0.8-1-1.5-1.6-2.1c-0.3-0.3-0.6-0.6-0.8-0.9l-2.1-2.9c-0.7-1-2.4-0.8-2.9,0.2
		c-0.3,0.5-0.2,1.2,0.1,1.7L198.1,152.4z"/>
	<path id="XMLID_349_" class="st0" d="M208.4,168.4c0.9,1.5,1.8,3,3.5,4c0.3,0.2,0.7,0.3,1.1,0.3c0.6,0,1.2-0.3,1.7-0.8
		c0.4-0.5,0.6-1.2,0.5-1.9c-0.4-1.9-1.6-3.3-2.6-4.6c-0.2-0.3-0.5-0.6-0.7-0.9l-0.4-0.5c-1.3-1.6-2.5-3.3-4.1-4.7
		c-0.8-0.8-2.2-0.6-2.8,0.3c-0.4,0.5-0.4,1.2-0.1,1.8c0.9,1.9,2,3.7,3.1,5.5L208.4,168.4z"/>
	<path id="XMLID_348_" class="st0" d="M216.8,177.3c-0.3,0.5-0.2,1.2,0.1,1.7c2.3,3.4,4.5,6.8,6.8,10.2c6,9,12.1,18.4,18.9,27.1
		c0.4,0.5,1,0.8,1.6,0.8c0.8,0,1.6-0.5,2.1-1.3c0.4-0.7,0.4-1.5-0.1-2.2c-5.9-9.2-12.5-18-19-26.6c-2.5-3.3-5-6.6-7.4-9.9
		C219.1,176.1,217.3,176.3,216.8,177.3z"/>
	<path id="XMLID_347_" class="st0" d="M270.6,460.1h0.5l0.9-0.1l0.3-0.8c0.6-1.8,1.2-3.6,1.7-5.5l0.6-1.8c0.2-0.7,0.1-1.4-0.3-1.9
		c-0.4-0.6-1.1-0.9-1.9-0.9c-1.3,0-2.2,0.9-2.3,2.2l-0.1,1.9c-0.1,1.9-0.2,3.8-0.2,5.7v0.6L270.6,460.1z"/>
	<path id="XMLID_346_" class="st0" d="M325.1,148.5c1.2,0,2.2-0.8,2.5-1.9c1.6-6.3,2.2-13.4,2.6-18.8c0-0.5-0.1-1-0.5-1.4
		c-0.9-1-2.9-0.6-3.3,0.8c-1.5,5.2-3.2,12-3.9,18.6c-0.1,0.7,0.1,1.3,0.6,1.8C323.6,148.2,324.3,148.5,325.1,148.5z"/>
	<path id="XMLID_345_" class="st0" d="M312.8,207.4c0.5,0.5,1.2,0.8,2,0.8c1.2,0,2.2-0.8,2.5-1.9c3.4-15.1,6-32.4,7.9-51.5V154
		l-0.3-0.4c-0.7-0.8-2.3-0.5-2.6,0.6c-4.6,18.4-8,35.7-9.9,51.2C312.1,206.3,312.3,206.9,312.8,207.4z"/>
	<path id="XMLID_344_" class="st0" d="M309.1,232.9l0.7,0.1c2.2,0,3.9-7.3,4.3-11.1l0.1-5.2c0-0.4-0.1-0.7-0.4-0.9l-0.4-0.4
		l-1.5,0.1l-1.9,5.8c-0.8,3.6-2.1,9.8-1.3,11.1L309.1,232.9z"/>
	<path id="XMLID_343_" class="st0" d="M439.7,192.8c-1.6,1-3.2,2-4.8,3c-0.4,0.2-0.9,0.5-1.4,0.7c-1.5,0.8-3,1.6-4.2,2.8
		c-0.6,0.6-0.8,1.5-0.5,2.2c0.3,0.8,1.1,1.4,2,1.4c0.3,0,0.6-0.1,0.9-0.2c1.5-0.7,2.7-1.9,3.9-3c0.4-0.4,0.8-0.7,1.2-1.1
		c1.4-1.2,2.9-2.4,4.4-3.5l0.9-0.7c0.4-0.3,0.6-0.9,0.4-1.4l-0.4-0.9h-1.2L439.7,192.8z"/>
	<path id="XMLID_342_" class="st0" d="M421.8,205.9l-0.5,0.1l-0.2,0.1c-3.5,1.6-6.7,3.8-9.8,5.9l-2.3,1.6c-0.7,0.5-1.4,0.9-2.2,1.4
		c-2.9,1.9-5.9,3.8-8.5,6.2c-0.8,0.7-1,1.8-0.6,2.7c0.4,1,1.4,1.7,2.5,1.7c0.4,0,0.8-0.1,1.2-0.3c3.4-1.7,6.4-4.1,9.3-6.4
		c0.8-0.6,1.6-1.2,2.4-1.9l2-1.5c2.7-2.1,5.6-4.2,8-6.7c0.5-0.5,0.6-1.2,0.4-1.8C423.1,206.3,422.5,205.9,421.8,205.9z"/>
	<path id="XMLID_341_" class="st0" d="M364.6,246.4c0.4,1.1,1.3,1.8,2.3,1.8c0.5,0,1-0.1,1.4-0.4c8.9-5.9,18.2-12.4,26.5-19.8
		c0.5-0.5,0.7-1.2,0.5-1.8c-0.3-0.7-0.9-1.1-1.7-1.1l-0.6,0.1l-0.3,0.1c-9.7,5.3-18.9,11.9-27.3,18.2
		C364.6,244,364.2,245.3,364.6,246.4z"/>
	<path id="XMLID_340_" class="st0" d="M358.1,249.1l-0.5,0.1c-1.7,0.7-3.3,1.5-5.1,2.6l-1.4,0.8c-1.3,0.8-1.9,2.2-2.1,3.1
		c-0.1,0.7-0.1,1.3,0.2,1.7c0.2,0.2,0.6,0.6,1.3,0.6c1.2,0,2.6-1,3.3-1.5l1.1-0.9c1.6-1.3,3-2.5,4.3-4c0.4-0.5,0.5-1.1,0.2-1.7
		C359.2,249.4,358.7,249.1,358.1,249.1z"/>
	<path id="XMLID_339_" class="st0" d="M249.7,328.6l-0.7-0.9h-0.6c-1.6,0-11.3,7.2-15.4,10.3l-7.3,5.3c-0.6,0.5-0.9,1.3-0.7,2
		s0.9,1.2,1.6,1.2c0.3,0,0.7-0.1,1-0.3l7.4-5.1c6.3-4.1,14.2-10.4,14.5-12L249.7,328.6z"/>
	<path id="XMLID_338_" class="st0" d="M468.3,243.7l-0.5,0.1c-13.8,3.5-29.7,7.6-45.1,12.7c-1.1,0.3-1.7,1.4-1.5,2.5
		s1.1,1.9,2.1,1.9c0.2,0,0.4,0,0.6-0.1c15.7-4,31.4-9.1,44.9-13.5c0.9-0.3,1.4-1.1,1.2-2C469.9,244.3,469.2,243.7,468.3,243.7z"/>
	<path id="XMLID_337_" class="st0" d="M410.8,261.8h-0.3c-8,1.6-15.6,3.6-22.7,6.1c-1,0.3-1.6,1.3-1.4,2.3s1,1.7,2,1.7l0.5-0.1
		c7.4-1.7,14.9-4.1,22.5-7c0.8-0.3,1.2-1,1-1.8C412.2,262.3,411.6,261.8,410.8,261.8z"/>
	<path id="XMLID_336_" class="st0" d="M378.6,267.3l-0.5,0.1c-1.4,0.4-2.8,0.6-4.2,0.9c-2.6,0.5-5.3,1.1-7.8,2
		c-1.2,0.4-1.8,1.6-1.6,2.7c0.2,1.2,1.2,2,2.4,2c0.2,0,0.4,0,0.6-0.1c2.6-0.6,5.2-1.5,7.7-2.5c1.4-0.5,2.7-1,4.1-1.5
		c0.9-0.3,1.5-1.2,1.3-2.1C380.3,268,379.5,267.3,378.6,267.3z"/>
	<path id="XMLID_335_" class="st0" d="M136.1,338.9h-0.3c-0.9,0.1-1.6,0.5-2.4,0.8c-0.4,0.2-0.8,0.3-1.2,0.5l-3.4,1.1
		c-0.8,0.3-1.3,1-1.2,1.9c0.1,0.8,0.8,1.5,1.6,1.5l4.1-1c0.4-0.1,0.8-0.2,1.2-0.2c0.8-0.1,1.6-0.3,2.4-0.6c0.8-0.4,1.3-1.2,1.1-2
		C137.9,339.6,137,338.9,136.1,338.9z"/>
	<path id="XMLID_334_" class="st0" d="M148.8,334.6l-0.5,0.2c-1.8,0.6-3.7,1.3-5.5,2.2c-0.7,0.4-1.1,1.2-0.9,2.1
		c0.2,0.8,0.9,1.4,1.7,1.4h0.2c2.2-0.2,4.3-0.7,6.4-1.2l1.4-0.3c1.8-0.4,3.6-0.8,5.2-2.1c0.6-0.5,0.9-1.3,0.7-2.1
		c-0.3-0.9-1.1-1.6-2-1.7c-1.9-0.2-3.9,0.5-5.5,1.1C149.6,334.3,149.2,334.5,148.8,334.6z"/>
	<path id="XMLID_333_" class="st0" d="M163.8,331c-0.8,0.3-1.3,1.1-1.2,1.9c0.1,0.9,0.8,1.5,1.7,1.5l0.5-0.1c4-1.1,8-2.1,12-3.1
		c10.4-2.7,21.1-5.4,31.4-9c1.1-0.4,1.7-1.4,1.5-2.5c-0.2-1.3-1.4-2.1-2.8-1.8c-10.6,2.6-21.1,6-31.3,9.3
		C171.6,328.5,167.7,329.7,163.8,331z"/>
	<path id="XMLID_332_" class="st0" d="M439.5,372.7l1.7,0.7c1.7,0.7,3.5,1.4,5.2,2l0.4,0.1l0.9-0.1l0.5-1.7l-0.6-0.5
		c-1.5-1.2-3.1-2.4-4.7-3.5l-1.5-1.1c-1.3-0.9-3.1-0.1-3.4,1.5C437.8,371.2,438.4,372.2,439.5,372.7z"/>
	<path id="XMLID_331_" class="st0" d="M431.8,367.7c0.7,0,1.4-0.5,1.7-1.2c0.2-0.7,0-1.4-0.5-1.9c-3.2-2.6-6.8-4.7-10.3-6.7
		l-1.6-0.9c-1-0.6-2-1.2-3-1.8c-3.1-1.9-6.2-3.8-9.6-5.1c-1.4-0.5-2.8,0.1-3.2,1.5c-0.4,1.2,0,2.6,1,3.3c3,2.2,6.4,3.9,9.8,5.5
		c1.1,0.5,2.2,1.1,3.3,1.6l1.6,0.8c3.3,1.7,6.8,3.5,10.4,4.7L431.8,367.7z"/>
	<path id="XMLID_330_" class="st0" d="M127.5,262.2l12,2h0.4c1.2,0,2.1-0.9,2.3-2.1c0.1-1.1-0.6-2-1.7-2.3l-11.9-2.7
		c-10.8-2-20.7-3-23.7-3c-0.6,0-1.7,0-1.9,1C102.6,256.5,102.5,257.1,127.5,262.2z"/>
	<path id="XMLID_329_" class="st0" d="M153.7,263.2c-0.8,0-1.4,0.6-1.5,1.4s0.4,1.6,1.2,1.8c9.7,2.6,19.3,4.7,28.6,6.1h0.3
		c1.1,0,2-0.8,2.2-1.9c0.1-1-0.5-1.9-1.6-2.2C173.8,266.2,164,264.4,153.7,263.2z"/>
	<path id="XMLID_328_" class="st0" d="M197.6,275.3c1.7,0.4,3.5,0.8,5.2,1.3c3.2,0.8,6.4,1.7,9.7,2.1h0.4c1.3,0,2.4-1,2.5-2.2
		s-0.6-2.2-1.8-2.5c-3.2-0.8-6.6-1.3-9.9-1.7c-1.8-0.2-3.6-0.5-5.4-0.8H198c-1,0-1.8,0.8-1.9,1.8
		C196.1,274.3,196.7,275.1,197.6,275.3z"/>
	<path id="XMLID_327_" class="st0" d="M495.9,333.8l0.8-4.1l-1-0.3c-1.5-0.4-3-0.8-4.5-1.1l-0.4-0.1c-0.5-0.1-0.9-0.2-1.4-0.4
		c-2-0.5-4.1-1.1-6.2-0.8c-1,0.1-1.8,0.9-2,1.9c-0.2,0.9,0.2,1.7,1.1,2.2c2,1.1,4.2,1.4,6.4,1.7c0.5,0.1,1.1,0.1,1.7,0.2
		c1.5,0.2,3,0.5,4.5,0.6L495.9,333.8z"/>
	<path id="XMLID_326_" class="st0" d="M417.2,314c-1.2,0-2.2,0.9-2.3,2.1c-0.1,1.1,0.6,2.1,1.7,2.3c13.2,3.1,26.8,5.4,40,7.6
		c5.1,0.9,10.2,1.7,15.2,2.6h0.3c0.9,0,1.7-0.7,1.8-1.6c0.1-0.9-0.5-1.6-1.3-1.8c-5-1.1-10-2.2-15-3.3c-13-2.9-26.5-5.9-39.9-8
		L417.2,314z"/>
	<path id="XMLID_325_" class="st0" d="M401.4,314.8c0.8,0,1.4-0.6,1.6-1.4c0.1-0.8-0.4-1.6-1.2-1.9c-10.5-3.2-22.2-5.8-33.9-7.7
		c-1.7-0.2-3.1,0.9-3.3,2.5c-0.2,1.4,0.7,2.5,2,2.8c11.6,2.7,23.6,4.6,34.6,5.7H401.4z"/>
	<path id="XMLID_324_" class="st0" d="M341.1,355l3.7,4.6c0.4,0.4,0.8,0.7,1.4,0.7c0.2,0,0.3-0.1,0.5-0.1c0.1,0.2,0.1,0.5,0.2,0.7
		c1.4,2.3,3.2,4.4,4.9,6.5c0.9,1.1,1.9,2.2,2.7,3.4c0.4,0.5,0.9,0.8,1.6,0.8s1.4-0.4,1.7-1c0.3-0.6,0.3-1.3-0.1-1.9
		c-0.8-1.2-1.5-2.5-2.3-3.7c-0.4-0.6-0.7-1.2-1.1-1.8c9,11.8,20,24.4,32.7,37.5l0.6,0.5h0.5c0.6,0,1.1-0.3,1.4-0.8
		c0.2-0.5,0.2-1.1-0.1-1.5c-11.2-15.8-22.2-29.5-32.6-40.7c-1.1-1.2-3.4-0.8-4.2,0.7c-0.2,0.5-0.2,1-0.1,1.5c-0.5-0.8-1-1.6-1.6-2.3
		c-0.7-0.9-1.9-0.9-2.8-0.4v-0.1l-2.9-5.2c-2.8-4.5-7.3-9.5-9-9.5h-0.4l-0.7,0.6L335,344C334.4,345.4,338.6,351.5,341.1,355z"/>
	<g id="XMLID_528_">
		<path id="XMLID_529_" class="st0" d="M261.9,490.1l2.7,0.5l-1.6-2.3c-0.6-0.8-1.9-1.1-2.8-0.6l-2.8,1.5L261.9,490.1l0.2-1.1l0,0
			L261.9,490.1z M262.1,489L262.1,489L262.1,489L262.1,489z"/>
	</g>
	<path id="XMLID_321_" class="st0" d="M282.2,391.2c-0.5-0.6-1.3-1-2.1-1c-1.2,0-2.1,0.8-2.4,2c-3.6,16.4-5.8,28.9-7,40.5
		c-0.1,0.5,0.1,0.9,0.4,1.3s0.8,0.6,1.3,0.6c0.8,0,1.5-0.5,1.7-1.2c4.1-14.2,6.8-28.8,8.7-39.9C282.9,392.6,282.7,391.8,282.2,391.2
		z"/>
	<path id="XMLID_320_" class="st0" d="M191.1,366.9l-0.4,0.3c-13.5,8.9-27.5,18-40.2,28.3l-0.7,0.7l0.3,0.8c0.2,0.6,0.7,0.9,1.3,0.9
		h0.4l0.3-0.1c14.2-7.8,27.8-17.2,41-26.3l0.7-0.5c0.9-0.6,1.3-1.7,0.9-2.8C194.1,366.7,192.4,366,191.1,366.9z"/>
	<path id="XMLID_319_" class="st0" d="M199.6,466.9l0.3,0.2h0.3c0.7,0,1.5,0,14.1-21.2l5.8-10.7c0.4-0.7,0.4-1.5,0-2.2
		c-0.8-1.3-3-1.4-3.8-0.1l-6.4,10.4c-3.9,6.9-6.7,12.6-8,15.4C198.4,466.2,198.7,466.4,199.6,466.9z"/>
	<path id="XMLID_318_" class="st0" d="M226.6,422.8c5.6-8.3,10.7-16.8,15.1-25.1c0.4-0.7,0.3-1.4,0-2.1c-0.8-1.3-2.8-1.3-3.6-0.1
		c-5,7.9-9.8,16.5-14.3,25.6c-0.3,0.5-0.2,1.1,0.1,1.6s0.8,0.8,1.4,0.8C225.8,423.6,226.3,423.3,226.6,422.8z"/>
	<path id="XMLID_317_" class="st0" d="M257.5,368.4c-0.9-1.4-3.2-1.5-4.1-0.1c-1.8,2.8-3.3,5.8-4.8,8.8c-0.8,1.6-1.6,3.2-2.5,4.8
		c-0.3,0.6-0.3,1.3,0,1.9c0.4,0.6,1,1,1.7,1s1.2-0.3,1.6-0.9c0.9-1.5,1.9-3,2.9-4.5c1.8-2.7,3.7-5.6,5.2-8.5
		C258,370,258,369.1,257.5,368.4z"/>
	<path id="XMLID_316_" class="st0" d="M393.4,133.4c0.5,0,1.1-0.2,1.5-0.6c1.7-1.5,2.7-3.5,3.7-5.5c0.2-0.5,0.5-1,0.7-1.5l0.7-1.3
		c0.8-1.6,0.8-4.2-0.3-4.9l-0.4-0.2H399c-1.1,0-2.3,1.5-3.1,2.7l-0.8,1.3c-0.3,0.5-0.6,0.9-0.9,1.4c-1.2,1.8-2.5,3.7-2.9,5.9
		c-0.1,0.7,0,1.4,0.5,1.9C392.2,133.1,392.8,133.4,393.4,133.4z"/>
	<path id="XMLID_315_" class="st0" d="M389.1,142.1c0.3-0.5,0.3-1.2,0-1.7c-0.6-1.1-2.3-1.1-3,0c-2.6,4.4-5.3,8.8-8,13.1
		c-7,11.4-14.2,23.2-20.5,35.1c-0.4,0.7-0.4,1.5,0,2.2s1.2,1.1,2,1.1s1.5-0.4,1.9-1.1c7.2-11.5,13.8-23.6,20.2-35.3
		C384.2,151.1,386.6,146.6,389.1,142.1z"/>
	<path id="XMLID_314_" class="st0" d="M477.1,245.6c0.2,1.3,1.3,2.2,2.5,2.2c0.2,0,0.4,0,0.6-0.1c3.8-0.8,7.8-1.9,12.7-3.4l1-0.3
		l-0.3-1c-0.2-0.8-0.4-1.5-0.6-2.2l-0.4-1.5l-1.1,0.2c-5,1.1-9,2.2-12.7,3.4C477.6,243.2,476.9,244.3,477.1,245.6z"/>
	<path id="XMLID_313_" class="st0" d="M470.7,393.9l0.6,2.9l3.6-6.2l-2.8,0.9C471.1,391.8,470.5,392.8,470.7,393.9z"/>
	<path id="XMLID_312_" class="st0" d="M141,204.6l7.3,4.4c2.9,1.7,5.7,3.4,8.6,5.2c10.2,6.1,20.7,12.5,31.5,17.9
		c0.4,0.2,0.8,0.3,1.2,0.3c1.1,0,2.2-0.8,2.5-1.9c0.3-1.1-0.1-2.3-1.1-2.9c-10.1-6.6-20.8-12.6-31.2-18.4c-2.9-1.6-5.8-3.3-8.8-4.9
		l-7.4-4.2c-7.5-4.4-14.8-7.2-16.6-7.2l-0.9,0.1l-0.6,1.1l0.1,0.5C126.2,196,135.5,201.5,141,204.6z"/>
	<path id="XMLID_311_" class="st0" d="M201.7,237.2c-0.2,0.8,0.1,1.6,0.8,2l9.8,5.8c6.6,4.1,13.9,8.5,17.9,10.9l-0.1,0.6l4.8,3.7
		c4.3,2.7,8.5,4,10,4c0.8,0,1.2-0.4,1.4-0.7l0.3-0.5l-0.2-0.5c-0.5-1.6-7.3-4.9-7.9-5.1c-0.5-0.2-1.5-0.6-2.5-1
		c0.3-0.3,0.6-0.6,0.8-0.8l1-1.1l-5.3-2.9c-9.3-5-18.9-10.2-28.2-15.5C203.3,235.5,202,236.1,201.7,237.2z"/>
	<path id="XMLID_310_" class="st0" d="M374.8,454.6c0.9,1.6,1.8,3.3,2.6,5l1,1.8h0.7l0.8-0.1l0.7-1.1l-0.6-1.6
		c-0.7-1.8-1.4-3.5-2-5.3c-0.2-0.5-0.3-1-0.5-1.5c-0.5-1.6-1-3.2-1.8-4.6c-0.7-1.2-2.7-1.3-3.5-0.1c-0.4,0.5-0.5,1.2-0.3,1.8
		c0.5,1.6,1.4,3.1,2.2,4.5C374.2,453.7,374.5,454.1,374.8,454.6z"/>
	<path id="XMLID_309_" class="st0" d="M355.1,415.7c1,3.4,2.6,6.6,4.1,9.6l2.3,4.7c1.7,3.4,3.4,7,5.5,10.2c0.3,0.5,0.9,0.8,1.4,0.8
		s1-0.2,1.4-0.7c0.3-0.4,0.4-0.9,0.3-1.5c-0.9-3.7-2.5-7.4-3.9-10.9l-1-2.5c-0.3-0.8-0.6-1.6-0.9-2.4c-1.2-3.2-2.5-6.5-4.4-9.4
		c-0.9-1.5-3.3-1.5-4.3-0.2C355,414.1,354.9,414.9,355.1,415.7z"/>
	<path id="XMLID_308_" class="st0" d="M343.7,374.8c-0.8-1.7-3.5-1.6-4.6-0.1c-0.4,0.7-0.5,1.5-0.2,2.2c3.8,9.2,8.5,20,14.4,29.9
		c0.3,0.5,0.9,0.8,1.5,0.8s1.1-0.3,1.4-0.7c0.3-0.4,0.4-1,0.2-1.5C352.9,394.3,347.8,383.2,343.7,374.8z"/>
	<path id="XMLID_307_" class="st0" d="M331.3,356.6c-0.4,0.6-0.6,1.4-0.4,2.1c1.2,4.2,4.1,8.2,5.7,10.2l0.6,0.6h0.6
		c0.4,0,0.9-0.2,1.2-0.6c0.3-0.4,0.4-0.8,0.4-1.3c-0.4-2-1.5-7.1-3.8-10.9C334.6,355.3,332.3,355.3,331.3,356.6z"/>
	<path id="XMLID_306_" class="st0" d="M261.7,210.9c-0.3,0.5-0.4,1.2-0.1,1.7l3.6,8.2c1.1,2.7,7.2,16.5,9.4,16.5l1-0.3l0.2-0.5
		c0.4-1.1-2-6.9-7.2-17.3l-3.8-8.2C264.2,209.9,262.4,209.9,261.7,210.9z"/>
	<path id="XMLID_305_" class="st0" d="M330.7,207.2c0.6,0.8,1.5,1.3,2.5,1.3s1.9-0.6,2.3-1.5c4.5-10.6,8.4-21.7,12.1-32.4
		c2-5.7,3.9-11.4,6-17.1c0.2-0.6,0.2-1.3-0.2-1.8c-0.8-1.2-3.1-1-3.7,0.5c-2.2,5.6-4.5,11.2-6.9,16.8c-4.3,10.4-8.8,21.1-12.5,31.9
		C330.1,205.7,330.2,206.6,330.7,207.2z"/>
	<g id="XMLID_507_">
		<path id="XMLID_508_" class="st0" d="M259.5,391.9c-4.6,11.5-9.8,24.6-13.2,37.5l-0.1,0.7l0.9,1h0.6l0.9-0.1l0.3-0.6
			c6.1-12,10.9-25.3,15.2-37c0.3-0.7,0.2-1.5-0.2-2.1c-0.4-0.6-1.2-1-2-1C260.8,390.3,259.9,390.9,259.5,391.9z M260.6,392.3
			L260.6,392.3L260.6,392.3L260.6,392.3z"/>
	</g>
	<path id="XMLID_302_" class="st0" d="M315.6,471.7c0.5,0,1-0.2,1.3-0.5s0.5-0.8,0.5-1.3c-0.8-14.1-1.8-30.6-3.8-46.7
		c-0.1-1.2-1.1-2-2.3-2c-0.6,0-1.2,0.2-1.6,0.6s-0.6,1-0.5,1.6c0.9,16.1,2.9,32.6,4.6,46.7C313.9,471,314.7,471.7,315.6,471.7z"/>
	<path id="XMLID_301_" class="st0" d="M310.3,413.7c0.9,0,1.7-0.7,1.7-1.6c0-8.1-0.6-16-1.7-23.7c-0.1-1-1-1.7-2-1.7
		c-0.6,0-1.2,0.2-1.6,0.7c-0.4,0.4-0.6,0.9-0.6,1.4c0.3,7.6,1.2,15.5,2.6,23.6C308.9,413.2,309.5,413.7,310.3,413.7z"/>
	<path id="XMLID_300_" class="st0" d="M305.2,376.1c0.1,1,1,1.7,2,1.7c0.5,0,1-0.2,1.3-0.6s0.5-0.8,0.5-1.4
		c-0.1-1.4-0.1-2.9-0.1-4.4c0-2.7-0.1-5.6-0.5-8.3c-0.2-1.1-1.1-1.9-2.3-1.9c-0.7,0-1.4,0.3-1.9,0.8c-0.4,0.4-0.7,1-0.7,1.7
		c0,2.7,0.5,5.4,1,8.1C304.8,373.3,305,374.7,305.2,376.1z"/>
	<path id="XMLID_299_" class="st0" d="M282.3,121.8c0,0.8,0,1.6,0.1,2.4c0.2,0.9,0.9,1.5,1.9,1.5c1.1,0,2-0.9,2-1.9
		c0-0.8-0.1-1.7-0.3-2.4c-0.1-0.4-0.2-0.9-0.2-1.3l-0.4-3.6c-0.1-0.9-0.9-1.5-1.8-1.5c-0.5,0-0.9,0.2-1.2,0.5
		c-0.3,0.3-0.5,0.8-0.4,1.2l0.3,3.8C282.3,120.9,282.3,121.4,282.3,121.8z"/>
	<path id="XMLID_298_" class="st0" d="M285.1,129.7c-1,0-1.8,0.7-1.9,1.7c-0.2,2.1-0.1,4.3,0,6.4l0.1,1.8c0,1.7,0.1,3.5,1,5.1
		c0.4,0.7,1.1,1.1,1.9,1.1c1,0,1.8-0.6,2.2-1.5c0.6-1.8,0.3-3.5,0-5.2c-0.1-0.4-0.1-0.7-0.2-1.1l-0.1-0.8c-0.3-2-0.6-4.1-1.1-6.1
		C286.6,130.2,285.9,129.7,285.1,129.7z"/>
	<path id="XMLID_297_" class="st0" d="M286.9,151.2c-0.5,0-0.9,0.2-1.2,0.5c-0.3,0.3-0.5,0.8-0.4,1.3c0.3,4.1,0.5,8.1,0.8,12.2
		c0.6,10.8,1.3,22,2.8,32.9c0.1,1.1,1,1.8,2.1,1.8c0.7,0,1.3-0.3,1.8-0.7c0.4-0.4,0.6-1,0.6-1.6c-0.5-10.9-1.8-21.9-3.1-32.6
		c-0.5-4.1-1-8.2-1.5-12.3C288.6,151.8,287.9,151.2,286.9,151.2z"/>
	<path id="XMLID_296_" class="st0" d="M198.5,418c0.7-0.6,0.9-1.5,0.6-2.4c-0.6-1.6-3.1-2-4.1-0.5l-1,1.5c-1,1.6-2.1,3.2-3,4.9
		l-0.3,0.7l0.8,1.2h0.7h0.5l0.3-0.3c1.5-1.3,2.9-2.6,4.3-3.9L198.5,418z"/>
	<path id="XMLID_295_" class="st0" d="M223,389.3c0.5-0.8,0.5-1.8,0.1-2.6c-0.8-1.4-3-1.8-4.2-0.7c-2.7,2.4-4.9,5.4-7.1,8.3
		c-0.8,1.1-1.6,2.1-2.4,3.1l-0.8,1c-2.5,3.1-5,6.3-7.1,9.8c-0.3,0.6-0.3,1.2,0,1.7c0.3,0.6,0.9,0.9,1.6,0.9c0.4,0,0.8-0.2,1.2-0.4
		c3.3-2.8,6.1-6.1,8.9-9.3l1.2-1.4c0.8-0.9,1.6-1.7,2.4-2.6C218.9,394.7,221.3,392.1,223,389.3z"/>
	<path id="XMLID_294_" class="st0" d="M256.1,341.5c-4.3,4-8,8.8-11.6,13.5c-1.3,1.7-2.7,3.5-4,5.1L239,362c-4,5-8.1,10.1-11.9,15.4
		c-0.4,0.5-0.4,1.2-0.1,1.8c0.3,0.6,1,1,1.7,1c0.5,0,0.9-0.2,1.3-0.5c4.8-5,9.4-10.3,13.9-15.5l2.2-2.6c1.2-1.4,2.5-2.8,3.8-4.3
		c3.6-4,7.3-8.1,10.2-12.7c0.5-0.8,0.5-1.7,0.1-2.4C259.4,340.8,257.3,340.4,256.1,341.5z"/>
	<path id="XMLID_293_" class="st0" d="M395.5,181.1c0.7,0,1.3-0.3,1.7-0.7c4.5-4.7,8.6-10.5,11.6-15c0.4-0.6,0.4-1.3,0.1-1.9
		c-0.6-1.1-2.2-1.4-3.1-0.5c-3.8,3.7-8.7,8.7-12.7,14.2c-0.5,0.7-0.6,1.7-0.2,2.4C393.5,180.5,394.5,181.1,395.5,181.1z"/>
	<path id="XMLID_292_" class="st0" d="M351.4,233.4c0.2-0.4,0.2-0.9,0-1.3l-0.5-0.7h-1.2l-4.6,4.1c-3.7,4-6.4,8.7-6.3,10.2l0.1,0.6
		l0.8,0.6h0.4c1.2,0,4-2.9,8.4-8.9L351.4,233.4z"/>
	<path id="XMLID_291_" class="st0" d="M459.7,281c1.6,0,3.1-0.3,4.6-0.7c0.5-0.1,1-0.2,1.5-0.3c1.9-0.4,3.8-0.6,5.8-0.9l1-0.1
		c0.7-0.1,1.2-0.7,1.1-1.4l-0.2-1.3l-2.1,0.1c-1.8,0.1-3.7,0.2-5.5,0.2h-0.4c-0.5,0-1,0-1.5,0c-1.9-0.1-3.6,0-5,0.2
		c-1,0.2-1.7,1.1-1.6,2.2s1,2,2.1,2L459.7,281z"/>
	<path id="XMLID_290_" class="st0" d="M449,279.7c-2.7-0.2-5.5-0.3-8.4-0.3c-4.9,0-12.1,0.3-18.8,1.9c-1.3,0.3-2,1.4-1.9,2.7
		c0.1,1.4,1.2,2.4,2.5,2.5c0.9,0,1.8,0.1,2.7,0.1c7.2,0,16.2-1.3,24.2-3.4c0.8-0.2,1.3-0.9,1.2-1.8
		C450.6,280.4,449.9,279.7,449,279.7z"/>
	<g id="XMLID_490_">
		<path id="XMLID_491_" class="st0" d="M411.6,283c-9.5-0.2-19.3,0.4-32.7,2.1c-1.7,0.2-2.5,1.7-2.4,2.9c0.1,1.4,1.1,2.3,2.4,2.3
			h0.2c13.5-0.8,23.7-2,32.9-3.9c0.8-0.2,1.4-0.9,1.3-1.8C413.2,283.7,412.5,283,411.6,283z M378.9,289.1L378.9,289.1L378.9,289.1
			L378.9,289.1z"/>
	</g>
	<path id="XMLID_287_" class="st0" d="M361.5,286.3l-0.2,0.2c-0.7,0.7-0.6,2.4-0.6,2.4c0,0.7,0.5,1.4,1,1.8l0.3,0.2h0.7
		c0.3,0,0.5,0,0.8,0c4.3,0,8.8-1.4,10.6-2c0.7-0.2,1.1-0.9,1-1.6s-0.6-1.2-1.2-1.3c-4.2-0.7-8.6-0.6-11.7,0.1L361.5,286.3z"/>
	<path id="XMLID_286_" class="st0" d="M92.5,321.3c2.2,0.2,4.5,0.3,7,0.3c7,0,14.2-0.7,21.1-1.4c3.1-0.3,6.2-0.6,9.3-0.9
		c2.5-0.2,4.9-0.4,7.4-0.5c8.9-0.6,18.2-1.3,27.1-2.8c1.3-0.2,2.1-1.3,2-2.7c-0.1-1.4-1.2-2.5-2.6-2.5l0,0
		c-9.8,0.2-19.7,1.3-29.2,2.4c-2.7,0.3-5.4,0.6-8.1,0.9c-2.8,0.3-5.7,0.5-8.6,0.8c-8.6,0.7-17.4,1.5-25.7,3.7
		c-0.7,0.2-1.1,0.8-1,1.5C91.3,320.6,91.8,321.2,92.5,321.3z"/>
	<path id="XMLID_285_" class="st0" d="M210.7,299.5c-1,0.1-1.7,0.9-1.6,1.9c0,0.9,0.8,1.6,1.7,1.6l9.1-0.7
		c7.5-0.4,17.4-1.9,18.6-3.1l0.3-0.4v-0.5c-0.1-1.2-1.5-1.2-2.5-1.2c-2.8,0-9.4,0.6-16.6,1.5L210.7,299.5z"/>
	<path id="XMLID_284_" class="st0" d="M185.6,199.1c-0.3,0.8-0.1,1.6,0.6,2.1c4.6,3.9,9.2,8,13.6,12c8.5,7.6,17.2,15.4,26.4,22.3
		c0.5,0.3,1,0.5,1.5,0.5c1.1,0,2.1-0.8,2.6-1.9c0.4-1.1,0.2-2.2-0.6-2.9c-8.4-7.7-17.6-14.8-26.5-21.8c-4.7-3.7-9.6-7.4-14.2-11.2
		C187.8,197.4,186.1,197.9,185.6,199.1z"/>
	<path id="XMLID_283_" class="st0" d="M241.3,247.8c1.4,1.4,2.9,2.8,4.6,3.8c0.4,0.2,0.8,0.4,1.3,0.4c0.9,0,1.7-0.5,2.2-1.4
		c0.4-0.9,0.3-2-0.4-2.7c-1.3-1.5-2.9-2.7-4.5-3.8c-0.4-0.3-0.9-0.6-1.3-0.9c-2.1-1.6-4.2-3.1-6.3-4.5c-0.9-0.6-2.3-0.2-2.7,0.9
		c-0.3,0.7-0.1,1.5,0.4,2c1.8,1.8,3.7,3.6,5.6,5.4L241.3,247.8z"/>
	<path id="XMLID_282_" class="st0" d="M388.9,372.4c9.7,8.4,19.8,17.1,30.5,24.1l0.4,0.2h0.3c0.5,0,1-0.3,1.3-0.9l0.3-1l-0.5-0.5
		c-8.8-9.3-19.1-17.6-29-25.6l-0.8-0.7c-1.3-1-3.4-0.4-3.9,1.1c-0.3,0.9-0.1,1.8,0.7,2.5L388.9,372.4z"/>
	<path id="XMLID_281_" class="st0" d="M347.7,337.9c10,8.6,20.4,17,31.1,25.2c0.3,0.2,0.7,0.4,1.1,0.4c0.7,0,1.4-0.5,1.7-1.2
		c0.3-0.7,0.1-1.5-0.5-2c-9.8-8.9-19.9-17.6-30.1-25.9c-1.3-1.1-3.4-0.4-4,1.1C346.6,336.3,346.9,337.3,347.7,337.9z"/>
	<path id="XMLID_280_" class="st0" d="M322,376.4c-0.7,0-1.4,0.3-1.8,0.8c-0.5,0.5-0.7,1.2-0.6,1.9c2.2,15.4,5.8,32.6,11,52.4
		c0.2,0.6,0.7,1.1,1.4,1.1h0.1c-0.4,0.6-0.6,1.3-0.5,2c1.1,7.9,3.2,15.8,5.1,22.6c0.2,0.8,1,1.4,1.9,1.4c0.6,0,1.1-0.2,1.4-0.6
		s0.5-0.9,0.4-1.4c-0.8-7.1-1.8-15.4-3.8-23.1c-0.3-1.1-1.2-1.9-2.3-1.9c-0.3,0-0.6,0.1-0.8,0.2l0.1-0.1l-0.1-0.5
		c-2.6-20.6-5.7-37.9-9.4-52.9C323.9,377.1,323,376.4,322,376.4z"/>
	<path id="XMLID_2_" class="st0" d="M261.4,137.6c-0.3,0.3-0.5,0.8-0.4,1.2c0.7,9.6,2.9,19.5,5.8,26.5c0.4,1,1.5,1.7,2.7,1.7
		c0.7,0,1.4-0.3,1.9-0.8c0.4-0.5,0.6-1.1,0.6-1.9c-0.9-7.7-3.7-17.6-7.6-26.4C263.7,136.9,262.2,136.7,261.4,137.6z"/>
</g>
<g id="XMLID_479_">
	<path id="XMLID_483_" class="st1" d="M436.8,158.6c1.5-4.7,1.6-10.9,0.2-20.5c-2.4-15.2-7.8-17.1-7.8-17.1l-15,15l-13.5-13.5
		c-3.6-3.6-9.6-3.6-13.2,0l-2.8,2.8l0,0L381,129c-3.6,3.6-3.6,9.6,0,13.2l8.6,8.6l-1.1,1.1c0,0,3,2.9,3.9,6l-9.6,9.6l-1.1-1.1l0,0
		l-6.6-6.6l-1,1l-1,1l-0.9,0.9l1.9-1.9l-2.7-0.7l-0.5-0.5l-0.9,0.9c-1.6,0.7-4.5,2.9-7.4,5.8c-2.9,2.9-5.1,5.8-5.8,7.4l-1.1,1.1
		l0.5,0.5l0.7,2.7l2.2-2.2l-0.1,0.1l-1,1l-1,1l-1,1l6.6,6.6l0,0l1.1,1.1l-74.2,74.2l14.4,14.4l0.1,0.1l0,0l-15.9-15.9l-13.2,13.2
		l15.9,15.9l0,0l-28.1,28.1l-15.9-15.9l-13.2,13.2l1.4,1.4l-9.4,9.4l-1.3,1.3l-3.7-3.7c-0.7-0.7-1.9-0.7-2.6,0l-90.9,90.9
		c-0.7,0.7-0.7,1.9,0,2.6l3.7,3.7l-1.3,1.3l-4.1,4.1l37.6,37.6l0,0l0,0l5.4-5.4l3.7,3.7c0.7,0.7,1.9,0.7,2.6,0l90.9-90.9
		c0.7-0.7,0.7-1.9,0-2.6l-3.7-3.7l6.6-6.6l1.4-1.4c0,0.1,0.1,0.2,0.1,0.2l2.6-2.9l1.4,1.4l9.4-9.4c2.1,1.1,6.3,1.5,12.2-7
		c8.7-12.6,14.8-7.8,22.1-14c5.4-4.6,1.8-10.3-0.4-12.9l11.3-11.3l-1.4-1.4l-1.3-1.3l-1.3-1.3l-9-9l0.5,0.5l11,11l59-59l2.3,2.3
		l3.6-3.6l12.1-12.1l3.6-3.6l-2.3-2.3l15.1-15.1l0,0c0,0,2.4-0.7,1.2-12c-0.2-1.5-0.2-3-0.2-4.3l2.7-2.7l4.6,4.6l1.3-1l1.4-5.4
		l11.2-11.2l5.4-1.4l1-1.3L436.8,158.6z M311.5,314L311.5,314l2.2-2.2l0,0L311.5,314z M285.6,339.9L285.6,339.9l0.2-0.2l0,0
		L285.6,339.9z M365.9,168.8l-1,1l-1,1l-1,1l-0.3,0.3l3.9-3.9L365.9,168.8z M360.8,173.9l-0.2,0.2l0.5-0.5L360.8,173.9z
		 M371.9,162.9l-0.9,0.9l-1,1l-1,1l-0.7,0.7L371.9,162.9z"/>
	<path id="XMLID_488_" class="st1" d="M389.2,240.9c1.3,1.3,6.2-1.6,11-6.4c0.5-0.5,1-1.1,1.5-1.6l0.1-0.1c0.2-0.2,0.4-0.4,0.5-0.6
		c0.1-0.1,0.2-0.2,0.2-0.3c0.2-0.2,0.3-0.4,0.4-0.5s0.2-0.2,0.3-0.3c0.1-0.2,0.3-0.3,0.4-0.5c0.1-0.1,0.2-0.2,0.3-0.3
		c0.1-0.2,0.2-0.3,0.3-0.5c0.1-0.1,0.2-0.2,0.2-0.3c0.1-0.1,0.2-0.3,0.3-0.4c0.1-0.1,0.2-0.2,0.2-0.4c0.1-0.1,0.2-0.3,0.3-0.4
		c0.1-0.1,0.1-0.2,0.2-0.3s0.1-0.3,0.2-0.4c0.1-0.1,0.1-0.2,0.2-0.3s0.1-0.2,0.2-0.3s0.1-0.2,0.2-0.3c0-0.1,0.1-0.2,0.1-0.3
		s0.1-0.2,0.1-0.3s0.1-0.2,0.1-0.3s0.1-0.2,0.1-0.3s0-0.2,0.1-0.2c0-0.1,0-0.2,0-0.3s0-0.1,0-0.2c0-0.1,0-0.2,0-0.3s0-0.1,0-0.2
		c0-0.1,0-0.2-0.1-0.2V224c0-0.1-0.1-0.2-0.2-0.3l-2.6,2.6l0,0L389.2,240.9z"/>
</g>
</svg>
