<?xml version="1.0" encoding="utf-8"?>
<!-- Generator: Adobe Illustrator 19.0.0, SVG Export Plug-In . SVG Version: 6.00 Build 0)  -->
<svg version="1.1" id="Layer_1" xmlns="http://www.w3.org/2000/svg" xmlns:xlink="http://www.w3.org/1999/xlink" x="0px" y="0px"
	 viewBox="0 0 1417.3 1417.3" style="enable-background:new 0 0 1417.3 1417.3;" xml:space="preserve">
<g id="_x32_2CpZK.tif"  >
	<g id="XMLID_1_"  >
		<path class="st0" id="XMLID_22_" d="M1182.6,541.8c13.9,0,27.8,0,41.7,0c46.3,12.7,76.7,42.1,91.7,87.6c0,15.3,0,30.6,0,45.9
			c-11.5,39.7-39.1,64.9-72.7,87c-147.2,97-293.6,195.2-440.2,293c-63.4,42.3-111.8,42.3-175.1,0c-146.7-97.8-293-196.1-440.2-293.1
			c-33.6-22.1-61.4-47.1-72.8-86.9c0-15.3,0-30.6,0-45.9c15.1-45.4,45.5-74.8,91.7-87.6c13.9,0,27.8,0,41.7,0
			c20.4,11.2,41.7,21.1,61,33.8c130.2,86.1,260.1,172.6,389.7,259.6c12.3,8.3,20.4,8.4,32.8,0.1c122-82.1,244.3-163.8,367-244.8
			C1125.8,572.8,1154.6,558,1182.6,541.8z"/>
	</g>
</g>
</svg>
