<?xml version="1.0" encoding="utf-8"?>
<!-- Generator: Adobe Illustrator 19.0.0, SVG Export Plug-In . SVG Version: 6.00 Build 0)  -->
<svg version="1.1" id="Layer_1" xmlns="http://www.w3.org/2000/svg" xmlns:xlink="http://www.w3.org/1999/xlink" x="0px" y="0px"
	 viewBox="0 0 107.3 23.8" style="enable-background:new 0 0 107.3 23.8;" xml:space="preserve">
<style type="text/css">
	.st0{fill:#FFFFFF;}
</style>
<g id="XMLID_39_">
	<path id="XMLID_46_" class="st0" d="M23.7,10H10.4l-1,3.8h10.4c-0.4,1.4-1,2.6-2,3.6c-0.7,0.7-1.6,1.3-2.5,1.7s-1.9,0.6-3,0.6
		c-1,0-2-0.2-3-0.6c-0.9-0.4-1.8-0.9-2.5-1.7C6,16.7,5.4,15.9,5,14.9c-0.4-0.9-0.6-1.9-0.6-3c0-1,0.2-2,0.6-3C5.4,8,6,7.2,6.7,6.4
		c0.7-0.7,1.6-1.3,2.5-1.7c0.9-0.4,1.9-0.6,3-0.6c1,0,2,0.2,3,0.6c0.9,0.4,1.8,1,2.5,1.7l2.7-2.7c-1-1.1-2.3-1.9-3.7-2.5
		c-1.4-0.6-2.9-0.9-4.5-0.9c-1.6,0-3.1,0.3-4.5,0.9C6.3,1.8,5,2.6,4,3.7C2.9,4.8,2.1,6,1.5,7.4s-0.9,2.9-0.9,4.5
		c0,1.6,0.3,3.1,0.9,4.5c0.6,1.4,1.4,2.7,2.5,3.7c1.1,1.1,2.3,1.9,3.7,2.5c1.4,0.6,2.9,0.9,4.5,0.9c1.6,0,3.1-0.3,4.5-0.9
		c1.4-0.6,2.7-1.4,3.7-2.5c1.1-1.1,1.9-2.3,2.5-3.7c0.6-1.4,0.9-2.9,0.9-4.5c0-0.3,0-0.6,0-1C23.8,10.7,23.7,10.3,23.7,10z"/>
	<path id="XMLID_93_" class="st0" d="M40.9,13.2c0.4-0.6,0.7-1.3,0.9-2c0.2-0.7,0.3-1.5,0.3-2.3c0-1.1-0.2-2.1-0.6-3.1
		c-0.4-1-1-1.8-1.7-2.5c-0.7-0.7-1.6-1.3-2.5-1.7c-1-0.4-2-0.6-3.1-0.6h-8.4v6v10.1v6.3h3.8v-6.3h3.9l4.1,6.3h4.6l-4.6-7.1
		c0.7-0.3,1.3-0.7,1.9-1.2C40.1,14.3,40.5,13.8,40.9,13.2z M38,10.4c-0.2,0.5-0.5,1-0.9,1.4c-0.8,0.8-1.8,1.2-3,1.2h-2.9l-1.6,2.2
		V13V6.7V4.6h4.5c1.2,0,2.1,0.4,3,1.2c0.4,0.4,0.7,0.8,0.9,1.3c0.2,0.5,0.3,1,0.3,1.6S38.3,9.9,38,10.4z"/>
	<path id="XMLID_96_" class="st0" d="M53.6,0.8L43.5,23.2h4.2l1.7-3.8H62l1.7,3.8h4.2L57.8,0.8H53.6z M61.1,17.3L59,15.5h-7.8
		l4.5-10l4.5,10L61.1,17.3z"/>
	<polygon id="XMLID_97_" class="st0" points="106.8,4.6 106.8,0.8 91.8,0.8 91.8,23.2 106.8,23.2 106.8,19.3 95.6,19.3 95.6,13.9 
		101.9,13.9 104,10.1 95.6,10.1 95.6,4.6 	"/>
	<path id="XMLID_98_" class="st0" d="M86.6,4.1c-1-1-2.2-1.8-3.6-2.4s-2.8-0.9-4.4-0.9h-9.3v22.4h1.2l0,0h5.9l0.1,0h2.1
		c1.5,0,3-0.3,4.4-0.9s2.6-1.4,3.6-2.4c1-1,1.8-2.2,2.4-3.6c0.6-1.4,0.9-2.8,0.9-4.4S89.6,9,89,7.6C88.4,6.3,87.6,5.1,86.6,4.1z"/>
</g>
</svg>
