<?xml version="1.0" encoding="utf-8"?>
<!-- Generator: Adobe Illustrator 19.0.0, SVG Export Plug-In . SVG Version: 6.00 Build 0)  -->
<svg version="1.1" id="Layer_1" xmlns="http://www.w3.org/2000/svg" xmlns:xlink="http://www.w3.org/1999/xlink" x="0px" y="0px"
	 viewBox="-622 619.1 172.9 180.2" style="enable-background:new -622 619.1 172.9 180.2;" xml:space="preserve">
<style type="text/css">
	.st0{fill:url(#SVGID_1_);}
</style>
<linearGradient id="SVGID_1_" gradientUnits="userSpaceOnUse" x1="-622" y1="710.07" x2="-450.1" y2="710.07">
	<stop  offset="0" style="stop-color:#D79888"/>
	<stop  offset="1" style="stop-color:#BA7A67"/>
	<stop  offset="1" style="stop-color:#B2725E"/>
</linearGradient>
<path class="st0" d="M-536,624.1c-47.4,0-86,38.6-86,86s38.6,86,86,86s85.9-38.6,85.9-86S-488.7,624.1-536,624.1z M-536,641.3
	c38.1,0,68.8,30.7,68.8,68.8s-30.7,68.8-68.8,68.8s-68.8-30.7-68.8-68.8S-574.1,641.3-536,641.3z M-544.6,667.1v34.4H-579v17.2h34.4
	V753h17.2v-34.4h34.4v-17.2h-34.4v-34.4H-544.6z"/>
</svg>
