<?xml version="1.0" encoding="utf-8"?>
<!-- Generator: Adobe Illustrator 19.0.0, SVG Export Plug-In . SVG Version: 6.00 Build 0)  -->
<svg version="1.1" id="Layer_1" xmlns="http://www.w3.org/2000/svg" xmlns:xlink="http://www.w3.org/1999/xlink" x="0px" y="0px"
	 viewBox="-622 619.1 172.9 180.2" style="enable-background:new -622 619.1 172.9 180.2;" xml:space="preserve">
<style type="text/css">
	.st0{fill:url(#SVGID_1_);}
</style>
<linearGradient id="SVGID_1_" gradientUnits="userSpaceOnUse" x1="-622" y1="708.5547" x2="-450.1" y2="708.5547" gradientTransform="matrix(1 0 0 -1 0 1419.5601)">
	<stop  offset="0" style="stop-color:#D79888"/>
	<stop  offset="1" style="stop-color:#BA7A67"/>
	<stop  offset="1" style="stop-color:#B2725E"/>
</linearGradient>
<path class="st0" d="M-536,622.7c-47.4,0-86,39.6-86,88.3c0,48.7,38.6,88.3,86,88.3s85.9-39.6,85.9-88.3
	C-450.1,662.3-488.7,622.7-536,622.7z M-535.7,633.4c41.7,0,75.2,34.5,75.2,77.3c0,42.8-33.6,77.3-75.2,77.3s-75.2-34.5-75.2-77.3
	C-610.9,667.9-577.4,633.4-535.7,633.4z M-544.6,666.8v35.3H-579v17.7h34.4v35.2h17.2v-35.3h34.4v-17.7h-34.4v-35.3h-17.2V666.8z"/>
</svg>
