<?xml version="1.0" encoding="utf-8"?>
<!-- Generator: Adobe Illustrator 19.0.0, SVG Export Plug-In . SVG Version: 6.00 Build 0)  -->
<svg version="1.1" id="Layer_1" xmlns="http://www.w3.org/2000/svg" xmlns:xlink="http://www.w3.org/1999/xlink" x="0px" y="0px"
	 viewBox="-683 684.3 50 50" style="enable-background:new -683 684.3 50 50;" xml:space="preserve">
<style type="text/css">
	.st0{fill:url(#SVGID_1_);}
	.st1{fill:#ED1B3A;}
	.st2{fill:#FFFFFF;}
</style>
<g id="surface1">
	
		<linearGradient id="SVGID_1_" gradientUnits="userSpaceOnUse" x1="-680.9048" y1="710.6182" x2="-634.9048" y2="710.6182" gradientTransform="matrix(1 0 0 -1 0 1419.9601)">
		<stop  offset="0" style="stop-color:#D79888"/>
		<stop  offset="1" style="stop-color:#BA7A67"/>
		<stop  offset="1" style="stop-color:#B2725E"/>
	</linearGradient>
	<path class="st0" d="M-680.9,709.3c0,12.7,10.3,23,23,23s23-10.3,23-23s-10.3-23-23-23S-680.9,696.6-680.9,709.3z M-636.9,709.3
		c0,11.6-9.4,21-21,21s-21-9.4-21-21s9.4-21,21-21S-636.9,697.7-636.9,709.3z"/>
</g>
<g>
	<path class="st1" d="M-657.9,727.8c10.2,0,18.5-8.3,18.5-18.5c0,0,0,0,0-0.1h-36.9c0,0,0,0,0,0.1
		C-676.4,719.5-668.1,727.8-657.9,727.8z"/>
	<path class="st2" d="M-657.9,690.9c-10.2,0-18.4,8.2-18.5,18.4h36.9C-639.5,699.1-647.8,690.9-657.9,690.9z"/>
</g>
</svg>
