<?xml version="1.0" encoding="utf-8"?>
<!-- Generator: Adobe Illustrator 19.0.0, SVG Export Plug-In . SVG Version: 6.00 Build 0)  -->
<svg version="1.1" id="Layer_1" xmlns="http://www.w3.org/2000/svg" xmlns:xlink="http://www.w3.org/1999/xlink" x="0px" y="0px"
	 viewBox="-683 684.3 50 50" style="enable-background:new -683 684.3 50 50;" xml:space="preserve">
<style type="text/css">
	.st0{fill:url(#SVGID_1_);}
</style>
<g id="surface1">
	
		<linearGradient id="SVGID_1_" gradientUnits="userSpaceOnUse" x1="-673.1782" y1="711.0024" x2="-640.0883" y2="711.0024" gradientTransform="matrix(1 0 0 -1 0 1419.9601)">
		<stop  offset="0" style="stop-color:#E98663"/>
		<stop  offset="1" style="stop-color:#E3BCA6"/>
	</linearGradient>
	<path class="st0" d="M-665.1,686.6c-0.1,0-0.2,0-0.3,0.1c-0.8,0.1-1.4,0.7-1.6,1.4c-0.2,0.7,0,1.5,0.6,2.1l18.8,18.8l-18.8,18.8
		c-0.8,0.8-0.8,2.1,0,2.9s2.1,0.8,2.9,0l20.2-20.2c0.4-0.4,0.6-0.9,0.6-1.5s-0.2-1.1-0.6-1.5l-20.2-20.2
		C-663.9,686.7-664.5,686.5-665.1,686.6z"/>
</g>
</svg>
