<?xml version="1.0" encoding="utf-8"?>
<!-- Generator: Adobe Illustrator 19.0.0, SVG Export Plug-In . SVG Version: 6.00 Build 0)  -->
<svg version="1.1" id="Layer_1" xmlns="http://www.w3.org/2000/svg" xmlns:xlink="http://www.w3.org/1999/xlink" x="0px" y="0px"
	 viewBox="91 536 1600 346" style="enable-background:new 91 536 1600 384.3;" xml:space="preserve">
<style type="text/css">
	.Graphic_x0020_Style{fill:none;stroke:#C5C9E0;stroke-dasharray:10;}
	.Graphic_x0020_Style_x0020_2{opacity:0.5;fill:none;stroke:#C5C9E0;enable-background:new    ;}
	.st0{fill:#FFFFFF;}
	.st1{opacity:0.5;fill:none;stroke:#C5C9E0;enable-background:new    ;}
	.st2{fill:none;stroke:url(#SVGID_1_);stroke-miterlimit:10;}
</style>
<g>
	<path class="st0" d="M91,880.2c32.7,22.2,71.3,39.8,132.3,39.8c166.7,0,166.7-50.3,333.3-50.3c166.7,0,166.7,51.5,333.3,51.5
		S1056.7,809,1223.3,809c166.7,0,166.7,108.6,333.3,108.6c62.7,0,101-5.2,134.3-11.8v15.6L91,921.3V880.2z"/>
	<path vector-effect="non-scaling-stroke" class="st1" d="M91,867.8c32.7,28.9,71.3,51.8,132.3,51.8c166.7,0,166.7-76.3,333.3-76.3
		c166.7,0,166.7,78,333.3,78s166.7-137.4,333.3-137.4c166.7,0,166.7,132.6,333.3,132.6c62.7,0,101.1-6.8,134.3-15.3"/>
	<radialGradient id="SVGID_1_" cx="890.9197" cy="846.39" r="568.304" gradientUnits="userSpaceOnUse">
		<stop  offset="0" style="stop-color:#EFAE9A"/>
		<stop  offset="1" style="stop-color:#B5624C"/>
	</radialGradient>
	<path vector-effect="non-scaling-stroke" class="st2" d="M91,866.8c32.7,28.7,71.4,51.3,132.3,51.3c166.7,0,166.7-84.8,333.3-84.8
		c166.7,0,166.7,87,333.3,87s166.7-147.9,333.3-147.9c166.7,0,166.7,137.8,333.3,137.8c62.4,0,101.2-9.5,134.3-21.5"/>
	<path vector-effect="non-scaling-stroke" class="st1" d="M91,865.7c32.7,28.4,71.3,50.9,132.3,50.9c166.7,0,166.7-93.2,333.3-93.2
		c166.7,0,166.7,95.9,333.3,95.9s166.7-158.2,333.3-158.2C1390,761.1,1390,904,1556.7,904c62.7,0,101-12.4,134.3-27.9"/>
	<path vector-effect="non-scaling-stroke" class="Graphic_x0020_Style_x0020_2" d="M91,865.4c32.7,28.3,71.3,50.7,132.3,50.7
		c166.7,0,166.7-102.2,333.3-102.2c166.7,0,166.7,105.4,333.3,105.4s166.7-169.6,333.3-169.6c166.7,0,166.7,148.9,333.3,148.9
		c62.4,0,101.2-15.1,134.3-34"/>
	<path vector-effect="non-scaling-stroke" class="Graphic_x0020_Style_x0020_2" d="M91,862.9c32.7,27.7,71.3,49.6,132.3,49.6
		c166.7,0,166.7-108,333.3-108c166.7,0,166.7,112.8,333.3,112.8s166.7-181.7,333.3-181.7c166.7,0,166.7,155.1,333.3,155.1
		c62.6,0,101.1-13.6,134.3-43.2"/>
	<path vector-effect="non-scaling-stroke" class="Graphic_x0020_Style" d="M91,862.8c32.7,27.5,71.3,49.3,132.3,49.3
		C390,912,390,785.5,556.7,785.5c166.7,0,166.7,131.9,333.3,131.9s166.7-202.3,333.3-202.3c166.7,0,166.7,164.3,333.3,164.3
		c62.3,0,101.2-14,134.3-46.8"/>
	<path vector-effect="non-scaling-stroke" class="st1" d="M91,861.6c32.7,27.3,71.3,48.9,132.3,48.9
		c166.7,0,166.7-155.1,333.3-155.1c166.7,0,166.7,160.9,333.3,160.9s166.7-212.9,333.3-212.9c166.7,0,166.7,168.7,333.3,165.8
		c63.4-1.1,101.1-19.1,134.3-55.5"/>
	<path vector-effect="non-scaling-stroke" class="Graphic_x0020_Style_x0020_2" d="M91,860.4c32.7,27.1,71.3,48.6,132.3,48.6
		C390,909,390,745.3,556.7,745.3c166.7,0,166.7,170,333.3,170s166.7-223.5,333.3-223.5C1390,691.8,1390,863,1556.7,863
		c62.4,0,101.2-21.7,134.3-61.5"/>
	<path vector-effect="non-scaling-stroke" class="st1" d="M91,859.5c32.7,26.8,71.3,48,132.3,48c166.7,0,166.5-178.4,333.2-178.4
		S723.3,914.8,890,914.8s166.8-266,333.5-266s166.5,202.9,333.2,202.9c62.2,0,101.2-15.7,134.3-73.1"/>
	<path vector-effect="non-scaling-stroke" class="st1" d="M91,825.3c32.7,43.6,71.3,78,132.3,78c166.7,0,166.7-238.8,333.3-238.8
		c166.7,0,166.7,250.8,333.3,250.8s166.7-375.8,333.3-375.8c166.7,0,166.7,273.2,333.3,273.2c62.4,0,101.2-30.8,134.3-107"/>
</g>
</svg>
