<?xml version="1.0" encoding="utf-8"?>
<!-- Generator: Adobe Illustrator 22.0.1, SVG Export Plug-In . SVG Version: 6.00 Build 0)  -->
<svg version="1.1" id="layer_1" xmlns="http://www.w3.org/2000/svg" xmlns:xlink="http://www.w3.org/1999/xlink" x="0px" y="0px"
	 viewBox="0 0 512 512" style="enable-background:new 0 0 512 512;" xml:space="preserve">
<path d="M74.8,128c-17.6,0-32,14.3-32,32l0,192c0,17.6,14.3,32,32,32h362.6c17.6,0,32-14.3,32-32V160c0-17.6-14.3-32-32-32L74.8,128
	z M74.8,160l362.6,0v192l-362.7-0.1L74.8,160z"/>
<path d="M99.3,83.3c68.4-67.6,174.2-79.6,255.8-30.2L330,83.3h81.7L396.9,2.9l-28.2,33.9C273-23,145.7-4.9,70.8,83.3H99.3z"/>
<path d="M383.1,430.1c-68.4,67.6-174.2,79.6-255.8,30.2l25.1-30.2H70.8l14.8,80.4l28.2-33.9c95.7,59.8,223,41.7,297.9-46.5H383.1z"
	/>
</svg>
