<?xml version="1.0" encoding="utf-8"?>
<!-- Generator: Adobe Illustrator 19.0.0, SVG Export Plug-In . SVG Version: 6.00 Build 0)  -->
<svg version="1.1" id="Layer_1" xmlns="http://www.w3.org/2000/svg" xmlns:xlink="http://www.w3.org/1999/xlink" x="0px" y="0px"
	 viewBox="91 331.3 1600 756" style="enable-background:new 91 331.3 1600 756;" xml:space="preserve">
<style type="text/css">
	.st0{fill:none;stroke:#C5C9E0;stroke-linecap:square;}
	.st1{enable-background:new    ;}
	.st2{fill:none;stroke:#C5C9E0;stroke-linecap:square;enable-background:new    ;}
	.st3{fill:#FFFFFF;}
	.st4{fill:none;stroke:url(#SVGID_1_);stroke-miterlimit:10;}
	.st5{fill:none;stroke:url(#SVGID_2_);stroke-miterlimit:10;}
	.st6{fill:#C5C9E0;}
</style>
<g>
	<g>
		<line class="st0" x1="922.2" y1="481.1" x2="924" y2="478.2"/>
	</g>
	<g class="st1">
		<path class="st0" d="M1144.7,601.9c1.9-15,14.7-26.4,29.9-26.4c5.9,0,11.6,1.7,16.6,5c8-13.8,22.6-22.3,38.6-22.3
			c14.3,0,27.7,6.9,36.1,18.4c3.5-1.2,7.2-1.8,10.9-1.8c16,0,29.9,11.4,33.1,27"/>
	</g>
	<g class="st1">
		<path class="st0" d="M1033.9,558.3c4.1-12.1,15.5-20.3,28.3-20.3c5.5,0,10.9,1.5,15.6,4.4c7.9-13.8,22.5-22.3,38.5-22.3
			c15.3,0,29.2,7.6,37.4,20.5c2.7-0.8,5.5-1.2,8.4-1.2c12,0,23,7.6,27.3,18.8"/>
	</g>
	<g>
		<g>
			<line class="st2" x1="325.6" y1="573" x2="417.4" y2="481.2"/>
		</g>
		<g class="st1">
			<path class="st0" d="M410.3,479.9h7.2c0.7,0,1.2,0.6,1.2,1.2v7.1"/>
		</g>
	</g>
	<g class="st1">
		<g>
			<line class="st0" x1="1321.9" y1="574.9" x2="1411.1" y2="489"/>
		</g>
	</g>
	<g class="st1">
		<path class="st0" d="M776.5,476.5c-4.1,0-7.4-3.3-7.4-7.4c0-4.1,3.3-7.4,7.4-7.4c4.1,0,7.4,3.3,7.4,7.4
			C783.9,473.2,780.6,476.5,776.5,476.5z"/>
	</g>
	<g>
		<g>
			
				<rect x="628.7" y="580" transform="matrix(0.9615 0.2747 -0.2747 0.9615 184.2088 -150.5778)" class="st3" width="2" height="4.8"/>
		</g>
		<g>
			
				<rect x="625.6" y="590.9" transform="matrix(0.9615 0.2747 -0.2747 0.9615 187.0845 -149.3025)" class="st3" width="2" height="4.8"/>
		</g>
		<g>
			
				<rect x="620.3" y="585.3" transform="matrix(0.9615 0.2747 -0.2747 0.9615 185.0092 -148.5024)" class="st3" width="4.8" height="2"/>
		</g>
		<g>
			
				<rect x="631.2" y="588.4" transform="matrix(0.9615 0.2747 -0.2747 0.9615 186.2845 -151.3781)" class="st3" width="4.8" height="2"/>
		</g>
	</g>
	<g class="st1">
		<g>
			<line class="st0" x1="1421.6" y1="738.6" x2="1421.6" y2="733.8"/>
		</g>
		<g>
			<line class="st0" x1="1424.1" y1="745.2" x2="1424.1" y2="750"/>
		</g>
		<g>
			<line class="st0" x1="1419.6" y1="743.1" x2="1414.8" y2="743.1"/>
		</g>
		<g>
			<line class="st0" x1="1426.1" y1="740.6" x2="1430.9" y2="740.6"/>
		</g>
	</g>
	<g>
		<g class="st1">
			<g>
				<path class="st0" d="M685.6,570.2c-3.6,5.5-10,8.8-16,8.4c0.2,7-3.2,13.8-8.8,17.8c-5.1,3.6-12,4.6-18.1,2.9
					c-0.1,0-0.1,0-0.2-0.1c1.6,11.9-2,24.5-10.2,34.8"/>
			</g>
		</g>
		<g class="st1">
			<g>
				<path class="st0" d="M599.4,651.5c-6.3,1.2-12.8,1.5-19.4,0.9c-4.1-0.4-8.1-1.1-11.8-2.2c-7.9-2.3-14.6-6-19.7-11.1
					c-9-9.1-12.1-22.7-7.6-33.1c1.8-4.1,4.7-7.5,8.1-9.6c-2.7-1.8-5-4.3-6.7-7.4c-3.7-6.4-4.5-14.6-2.2-21.3
					c3.7-10.7,14.2-19.5,28-23.4c12-3.5,22.8-2.1,29.9,3.8"/>
			</g>
		</g>
		<g class="st1">
			<g>
				<path class="st0" d="M920.1,550.2c2.5,1.7,5.1,2.7,7.9,3c5,0.6,10.4-1.3,15.6-3.1c7.5-2.6,15.1-5.2,22.6-1.5
					c7.2,3.6,10.2,11.4,12,18.9c7.1-3.2,15.9-1.8,21.4,3.6c3.9,3.7,6,9.1,5.8,14.7c-0.1,3.6-1.2,7-3.1,9.8"/>
			</g>
		</g>
		<g>
			<g>
				<path class="st2" d="M524.4,536.7c-1.3-13.5,7.8-27.2,20.8-31.2c11.7-3.6,25.6,1.1,32.9,11c7-6.9,17.5-10.2,27.1-8.5
					c8,1.4,15.5,6.4,20.2,13.3c2.2-7.3,6.8-14,13.3-19.2c8.8-7,19.5-10.1,29.6-8.4c10.8,1.8,19.8,8,28.5,14c4.3,3,8.8,6.1,13.5,8.5
					c12.1,6.4,26.3,9,39.9,7.2"/>
				<path class="st0" d="M545.9,507.8"/>
			</g>
		</g>
		<g>
			<g>
				<path class="st2" d="M608.5,605.2c1.8,8.1-2,17-9.2,21.8c-5.8,3.9-13.6,4.9-20.8,2.9c0,0,0,0,0,0c-0.9-0.3-1.8-0.6-2.7-0.9
					c-8-3.2-13.7-10.2-14.6-17.8c-0.8-7,2.9-14.1,8.8-17.2c-1.7-2.4-2.5-5.4-2.1-8.2c0.6-4.5,4.1-8.4,8.5-9.5"/>
				<path class="st0" d="M570.3,586"/>
			</g>
		</g>
		<g class="st1">
			<g>
				<path class="st0" d="M472.5,633.4c-1.5-7.9,3.1-16.6,11.1-21.3c6.3-3.6,13.3-4.4,18.6-4.6c-5.2-11.3-2.3-25.9,7.1-33.9"/>
			</g>
		</g>
		<g class="st1">
			<g>
				<path class="st0" d="M947.6,531.5c4-2.5,9.4-3.2,14.9-1.7c3.9,1,7.4,2.9,10.8,4.9c3.3-3.3,7.8-5.3,12.8-5.7
					c5.8-0.4,11.4,1.4,15.3,5.1"/>
			</g>
		</g>
	</g>
	<g>
		<radialGradient id="SVGID_1_" cx="805.202" cy="560.1802" r="99.1298" gradientUnits="userSpaceOnUse">
			<stop  offset="0" style="stop-color:#EFAE9A"/>
			<stop  offset="1" style="stop-color:#B5624C"/>
		</radialGradient>
		<path class="st4" d="M880.1,571.7c-4.7,5.1-9.7,10.5-14.4,15.6c-11.2,12.1-21.7,23.6-26,27.8c-10.8,10.5-30.3,26.6-34.4,26.6
			c0,0-0.1,0-0.1,0c-1.9-0.1-2.9-2.5-4.8-6.7c-2.4-5.4-6-13.5-12.5-18.1c-7-4.9-18.6-6.1-25.6-6.8l-0.8-0.1c-9.5-1-16-4.2-19.2-9.5
			c-1.5-2.6-2.3-5.5-3-8.4c-1-4.2-2-8.1-5.2-10.1c-1.7-1.1-3.9-1.4-6.1-1.8c-1.9-0.3-3.8-0.6-5.6-1.4c-3.3-1.4-5.7-4.1-7.8-6.5
			c-0.1-0.1-0.1-0.2-0.2-0.2c-4.7-8.9-9.9-13.5-14-17.2c-5.6-5-9.7-8.6-7.9-18.6c0.1-0.5,0.5-0.9,1-1c21-3.5,75.2-13.7,123.7-33.5
			c2.9-1.2,5.8-2.4,8.7-3.6c14.4-6,29.3-12.2,44.8-16c17.1-4.2,33.3-4.5,48.1-1"/>
	</g>
	<g>
		<radialGradient id="SVGID_2_" cx="921.9551" cy="520.6565" r="13.1657" gradientUnits="userSpaceOnUse">
			<stop  offset="0" style="stop-color:#EFAE9A"/>
			<stop  offset="1" style="stop-color:#B5624C"/>
		</radialGradient>
		<path class="st5" d="M930.6,504.6c-3.9,11.5-9.8,22.2-17.5,31.9"/>
	</g>
	<g>
		<path class="st0" d="M947.2,477.4c2.1-1.6,7.3-5.5,11.4-8.8c2.2-1.7,3.5-2.7,4.3-3.3l0,0l5.1-5c0.2-0.2,0.5-0.4,0.9-0.4
			c1,0,3.3,0.1,3.9,0.2c0.5,0.1,0.8,0.4,1,0.7c0.2,0.2,0.4,0.4,0.7,0.6c1.1,0.6,1.1,1.8,1.1,2.1c0,0.1,0,0.2,0.1,0.3
			c0.1,0.2,0.2,0.5,0.3,0.9c0.2,1-1,2.5-1.1,2.6c-1,0.8-1.8,1.3-2.4,1.3c-0.4,0-0.7-0.1-1-0.2c-0.2,0.2-0.4,0.4-0.5,0.5
			c-0.3,0.3-0.7,0.7-1,0.9c-0.8,0.6-1.8,0.9-2.5,0.9l-13.9,14.5"/>
	</g>
	<g>
		<path class="st0" d="M835,575.8l-4.4,4.8l-2.2,2.6c-0.1,0.1-0.1,0.1-0.2,0.2c-0.4,0.4-1,0.4-1.4,0.4c-0.2,0-0.3,0-0.4,0
			c-0.6-0.1-1-0.3-1.3-0.7l-1.9-2.5c-0.6-0.9-0.7-2-0.4-2.9c0,0,0-0.1,0-0.1l2.9-6c-0.2-0.3-0.2-0.7,0-1l1.2-2.6
			c0.2-0.4,0.6-0.7,1-0.7l2.1-0.2c0.1,0,0.2,0,0.4,0l1.7,0.3"/>
	</g>
	<g>
		<path class="st0" d="M937.4,482.7c2.9-1.6,0.9-0.5,1.9-1.1c0.6-0.4,1.2-0.8,1.8-1.3c2.2-1.7,5.3-4,8-1.8c0.3,0.2,3.5,2.6,3.8,5.7
			c0.2,1.4-0.2,2.7-1.2,3.8c-1.4,1.6-4.9,4.6-5.1,4.7L931,503.7"/>
	</g>
	<g>
		<path class="st0" d="M909.5,528.9l12.2,24.4c0.2,0.5,0.1,1.1-0.3,1.5l-4.6,4.4c-0.1,0.1-0.3,0.2-0.4,0.3l-37.1,13
			c-0.2,0.1-0.5,0.1-0.7,0c-0.3-0.1-1.9-0.6-3.4-3.6c-1.3-2.6-0.5-4.3-0.4-4.5c0.1-0.2,0.3-0.4,0.5-0.5l20.7-12.5
			c0.1-0.1,0.2-0.1,0.3-0.1l3.2-0.9l-10.6-8.8l-14.9,11c-0.1,0.1-0.2,0.1-0.2,0.1l-7,3.1L837.5,576c-0.2,0.1-0.5,0.2-0.7,0.2
			c-0.1,0-0.2,0-0.3,0c-0.3-0.1-3.2-0.9-4.6-2.8c-0.8-1.1-1.1-3.2-1.1-3.7c0-0.4,0.1-0.8,0.4-1l20.6-20.6c0.1-0.1,0.2-0.1,0.3-0.2
			l3.1-1.7c1.4-1.8,10.8-14.3,14.7-18.6c3.6-4,13.5-12.5,13.9-12.9"/>
	</g>
	<g>
		<path class="st0" d="M902.7,482.1c1.2-1.1,3.2-1.6,5.9-1.3c3.3,0.4,8,0.7,8,0.7"/>
	</g>
	<g>
		<line class="st0" x1="891.1" y1="502.1" x2="892.8" y2="499.4"/>
	</g>
	<g>
		<path class="st0" d="M931.5,489.6l-1.4,4.7c-0.1,0.5-0.5,0.8-1,0.9c-0.1,0-0.1,0-0.2,0c-0.4,0-0.8-0.2-1-0.5l-2.6-1.4"/>
	</g>
	<g>
		<path class="st0" d="M934.2,487.7c2,0.3,2.9,1,2.2,3.1l0,0c-0.2,0.5-0.4,1.1-0.6,1.6l-5.8,14.3c-0.1,0.1-0.1,0.3-0.2,0.4
			c-0.1,0.2-14.1,15.9-18.6,20.8c-0.8,0.9-2.3,1.2-4,1.2c-1.1,0-2.3-0.1-3.3-0.3c-2.8-0.5-9.5-2.3-14.4-5.9c-3-2.2-5.4-8-5.5-8.2
			c-0.1-0.4-0.1-0.8,0.1-1.1l1.3-2.1"/>
	</g>
	<g>
		<path class="st0" d="M920.5,495.2c-0.2,0-0.3,0-0.5-0.1c-0.3-0.2-0.6-0.5-0.7-0.8l-2.9-11.2c-0.1-0.3,0-0.7,0.1-1
			c0.2-0.3,0.5-0.5,0.8-0.6l3.4-0.8c0.6-0.1,1.2,0.2,1.4,0.7l4.2,9.5c0.3,0.6,0,1.3-0.6,1.6l-4.8,2.5
			C920.9,495.2,920.7,495.2,920.5,495.2z"/>
	</g>
	<g>
		<path class="st6" d="M938.2,471.7c-0.3-0.6-1.9-1.8-1.9-1.8l0,0.5c0,0-1.4,0.4-5-1.2c-1.1-0.5-2-0.5-2.7-0.1c-0.2,0-0.5,0-0.9,0
			c-2.1,0.2-5,2.7-5.1,6c0,1.8,0.8,4.8,0.8,4.8l1.6-1c-0.4-0.4-0.4-1.1,0-1.6c0.4-0.5,1.1-0.5,1.6-0.1c0.2,0.1,0.2,0.3,0.3,0.5
			c0.6-0.5,1-1.1,1.2-1.8l0.2-1.3c0.6,0.3,1.3,0.5,2.3,0.8c1.7,0.5,4.9,1.1,5.9,1c0.2,0,0.4-0.1,0.6-0.2l-0.4,2
			c1.2,0,1.3-1.3,1.4-1.7c0-0.2,0.1-0.7,0.1-1.1C938.9,474.5,939,473,938.2,471.7z"/>
	</g>
	<g>
		<path class="st0" d="M890.1,499.6l1.9,8.6c0.6,0.5,1.4,1.5,1.7,2.7c0.1,0.5,0.8,1.6,1,1.8c0.4,0.3,0.7,1.2,0.9,2.4
			c0,0.1,0,2.1-0.9,2.7c-0.3,0.2-0.5,0.4-0.7,0.5c-0.1,0.1-0.2,0.1-0.2,0.1c-0.3,0.3-1,1.1-2.2,0.9c-0.4-0.1-0.7,0-0.9,0
			c-0.1,0-0.3,0-0.5,0c-0.2,0-0.5,0-0.7-0.2c-0.5-0.3-2.3-1.7-3-2.3c-0.2-0.2-0.4-0.5-0.4-0.8l-0.7-4.8c-0.7-1.6-6.7-15.3-7.3-17.3
			c-0.4-1.3,0-2.6,1.1-3.9 M892.9,514.5C892.9,514.5,892.9,514.6,892.9,514.5C892.9,514.6,892.9,514.5,892.9,514.5z"/>
	</g>
	<g>
		<path class="st0" d="M877.5,572.2l-4.2,1l-5.9,1.6c-0.2,0.1-0.4,0.2-0.7,0.2c0,0-0.1,0-0.1,0c-1.1-0.1-3.7-2.3-4-4.2
			c0-0.1,0-0.1,0-0.2c-0.3-1.3-0.1-2.3,0.7-2.8c0.6-0.4,5.7-2.5,8.9-3.8l1-0.9c0.1-0.1,0.3-0.2,0.5-0.3l2.1-0.5c0.2-0.1,0.5,0,0.8,0
			l0.6,0.2"/>
	</g>
	<g>
		<path class="st0" d="M927.7,471.4l1.3-0.3c0.2,0,0.4,0,0.6,0l2.4,0.8c0,0,0.1,0,0.1,0l5.3,2.1c0.6,0.2,0.9,0.8,0.8,1.4l-0.9,4.6
			l-0.2,2.4c0,0.2-0.1,0.4-0.2,0.6l-4.1,6c-0.2,0.3-0.6,0.5-1,0.5c-0.1,0-0.2,0-0.3,0l-2.5-0.6c-0.2,0-0.4-0.1-0.5-0.2l-4.2-3.3"/>
	</g>
	<g>
		<path class="st2" d="M621.3,677.7c-3.5-1-5.6-4.7-4.6-8.3c1-3.5,4.7-5.6,8.3-4.6c3.5,1,5.6,4.7,4.6,8.3S624.8,678.7,621.3,677.7z"
			/>
	</g>
	<g class="st1">
		<path class="st0" d="M1049.2,793.5c-3.8,0-6.9-3.1-6.9-6.9c0-3.8,3.1-6.9,6.9-6.9c3.8,0,6.9,3.1,6.9,6.9
			C1056.2,790.4,1053.1,793.5,1049.2,793.5z"/>
	</g>
	<g class="st1">
		<path class="st0" d="M608.8,485.5c-4.6-1.3-7.3-6.2-6-10.8c1.3-4.6,6.2-7.3,10.8-6c4.6,1.3,7.3,6.2,6,10.8
			C618.3,484.1,613.4,486.8,608.8,485.5z"/>
	</g>
	<g>
		<path class="st0" d="M887.5,499.3c-0.2,0-0.4,0-0.6,0c-1.5,0-4.4-0.6-6.6-4c-0.7-1.1-1.2-3.5-1-5.1c0.2-1.6,1.7-2.7,3.2-3
			c1.9-0.4,5-1.2,8.3-2.1c7.8-2.1,13.5-3.5,15.9-3.3c1.6,0.1,5,1.4,5.4,3.7c1.1,5.5-4.5,9.7-8.6,11.1
			C898.1,498.6,891.8,499.3,887.5,499.3z"/>
	</g>
	<g>
		<g>
			<line class="st2" x1="1390.2" y1="653.8" x2="1422.9" y2="621.1"/>
		</g>
		<g class="st1">
			<path class="st0" d="M1415.8,619.8h7.2c0.7,0,1.2,0.6,1.2,1.2v7.1"/>
		</g>
	</g>
</g>
</svg>
