<?xml version="1.0" encoding="utf-8"?>
<!-- Generator: Adobe Illustrator 19.0.0, SVG Export Plug-In . SVG Version: 6.00 Build 0)  -->
<svg version="1.1" id="Layer_1" xmlns="http://www.w3.org/2000/svg" xmlns:xlink="http://www.w3.org/1999/xlink" x="0px" y="0px"
	 viewBox="91 331.3 1600 756" style="enable-background:new 91 331.3 1600 756;" xml:space="preserve">
<style type="text/css">
	.st0{opacity:0.5;enable-background:new    ;}
	.st1{fill:#C5C9E0;}
	.st2{fill:#FFFFFF;}
	.st3{opacity:0.5;}
	.st4{clip-path:url(#SVGID_2_);fill:#C5C9E0;}
	.st5{fill:url(#SVGID_3_);}
</style>
<g>
	<g>
		<g class="st0">
			<path class="st1" d="M554.3,1018.1c6.5-9.8,5.2-23-3.2-31.4c-2.1-2.1-4.6-3.8-7.3-5.1c-0.4-0.2-0.6-0.6-0.6-1.1
				c2-10.8-1.5-22-9.3-29.7c-8.8-8.8-21.6-12-33.5-8.4c-0.3,0.1-0.6,0-0.8-0.1c-0.2-0.2-0.4-0.4-0.5-0.7c-0.7-4.6-2.9-8.8-6.2-12.2
				c-7.8-7.8-20.4-8.6-29.1-1.8l-1.2-1.6c9.5-7.4,23.2-6.6,31.7,2c3.4,3.4,5.6,7.5,6.5,12.2c12.3-3.3,25.4,0.2,34.4,9.2
				c8.1,8.1,11.8,19.5,10,30.8c2.7,1.3,5.1,3,7.2,5.1c9,9,10.5,23.3,3.4,33.9L554.3,1018.1z"/>
		</g>
		<g>
			<path class="st1" d="M1197.4,865.4c-8-3.6-17.6-1.9-23.8,4.4c-1.6,1.6-3,3.5-4,5.6c-0.2,0.4-0.7,0.6-1.1,0.5
				c-11.4-2.8-23.2,0.5-31.6,8.8c-8.7,8.7-11.9,21.5-8.3,33.3c0.1,0.3,0,0.6-0.1,0.8c-0.1,0.2-0.4,0.4-0.7,0.5
				c-4.3,0.8-8.2,2.9-11.3,6c-6.6,6.6-8.3,16.7-4.1,25.1l-1.8,0.9c-4.5-9.2-2.7-20.2,4.5-27.4c3.1-3.1,7-5.3,11.3-6.3
				c-3.3-12.2,0.2-25.3,9.1-34.3c8.6-8.6,20.8-12.2,32.7-9.5c1.1-2,2.4-3.8,4-5.4c6.8-6.8,17.3-8.7,26-4.8L1197.4,865.4z"/>
		</g>
		<g>
			<g>
				
					<rect x="950.3" y="573.4" transform="matrix(0.7071 0.7071 -0.7071 0.7071 720.7118 -489.5281)" class="st1" width="2" height="103.5"/>
			</g>
			<g>
				<path class="st1" d="M988.9,594.3h-2v-4.7h-4.8v-2h5.8c0.6,0,1,0.4,1,1V594.3z"/>
			</g>
		</g>
		<g>
			<g>
				
					<rect x="1234.3" y="716" transform="matrix(0.7071 0.7071 -0.7071 0.7071 893.8339 -653.088)" class="st1" width="2" height="72.8"/>
			</g>
			<g>
				<path class="st1" d="M1262,732.3h-2v-4.7h-4.8v-2h5.8c0.6,0,1,0.4,1,1V732.3z"/>
			</g>
		</g>
		<g>
			<g>
				
					<rect x="298.3" y="896.9" transform="matrix(0.7071 0.7071 -0.7071 0.7071 750.0899 62.7619)" class="st1" width="2" height="79.9"/>
			</g>
			<g>
				<path class="st1" d="M345.3,897.5h-2v-4.7h-4.8v-2h5.8c0.6,0,1,0.4,1,1V897.5z"/>
			</g>
		</g>
		<g>
			<g>
				
					<rect x="841.2" y="359" transform="matrix(0.7179 0.6961 -0.6961 0.7179 500.6783 -479.6562)" class="st1" width="2" height="38.1"/>
			</g>
			<g>
				<path class="st1" d="M763,459.7l-1.4-1.4l1.1-1.1l1.4,1.4L763,459.7z M766.3,456.3l-1.4-1.4l1.1-1.1l1.4,1.4L766.3,456.3z
					 M769.7,452.9l-1.4-1.4l1.1-1.1l1.4,1.4L769.7,452.9z M773,449.5l-1.4-1.4l1.1-1.1l1.4,1.4L773,449.5z M776.4,446l-1.4-1.4
					l1.1-1.1l1.4,1.4L776.4,446z M779.7,442.6l-1.4-1.4l1.1-1.1l1.4,1.4L779.7,442.6z M783.1,439.2l-1.4-1.4l1.1-1.1l1.4,1.4
					L783.1,439.2z M786.4,435.8l-1.4-1.4l1.1-1.1l1.4,1.4L786.4,435.8z M789.8,432.3l-1.4-1.4l1.1-1.1l1.4,1.4L789.8,432.3z
					 M793.1,428.9l-1.4-1.4l1.1-1.1l1.4,1.4L793.1,428.9z M796.4,425.5l-1.4-1.4l1.1-1.1l1.4,1.4L796.4,425.5z M799.8,422.1
					l-1.4-1.4l1.1-1.1l1.4,1.4L799.8,422.1z M803.1,418.6l-1.4-1.4l1.1-1.1l1.4,1.4L803.1,418.6z M806.5,415.2l-1.4-1.4l1.1-1.1
					l1.4,1.4L806.5,415.2z M809.8,411.8l-1.4-1.4l1.1-1.1l1.4,1.4L809.8,411.8z M813.2,408.4l-1.4-1.4l1.1-1.1l1.4,1.4L813.2,408.4z
					 M816.5,404.9l-1.4-1.4l1.1-1.1l1.4,1.4L816.5,404.9z M819.9,401.5l-1.4-1.4l1.1-1.1l1.4,1.4L819.9,401.5z M823.2,398.1
					l-1.4-1.4l1.1-1.1l1.4,1.4L823.2,398.1z M826.5,394.7l-1.4-1.4l0.1-0.1l1.4,1.4L826.5,394.7z"/>
			</g>
			<g>
				<path class="st1" d="M856.5,370h-2v-4.7h-4.8v-2h5.8c0.6,0,1,0.4,1,1V370z"/>
			</g>
		</g>
		<g>
			<path class="st1" d="M824.8,523.2c-3.3,0-5.9-2.7-5.9-5.9c0-3.3,2.7-5.9,5.9-5.9c3.3,0,5.9,2.7,5.9,5.9
				C830.8,520.6,828.1,523.2,824.8,523.2z M824.8,513.4c-2.2,0-3.9,1.8-3.9,3.9c0,2.2,1.8,3.9,3.9,3.9c2.2,0,3.9-1.8,3.9-3.9
				C828.8,515.2,827,513.4,824.8,513.4z"/>
		</g>
		<g>
			<g>
				<rect x="855.7" y="489.9" class="st2" width="1.6" height="3.8"/>
			</g>
			<g>
				<rect x="855.7" y="499" class="st2" width="1.6" height="3.8"/>
			</g>
			<g>
				<rect x="850" y="495.6" class="st2" width="3.8" height="1.6"/>
			</g>
			<g>
				<rect x="859.1" y="495.6" class="st2" width="3.8" height="1.6"/>
			</g>
		</g>
		<g>
			<g>
				
					<rect x="537.9" y="744.7" transform="matrix(0.7071 -0.7071 0.7071 0.7071 -370.0815 599.7296)" class="st1" width="2" height="3.8"/>
			</g>
			<g>
				
					<rect x="544.3" y="751.1" transform="matrix(0.7071 -0.7071 0.7071 0.7071 -372.7318 606.1278)" class="st1" width="2" height="3.8"/>
			</g>
			<g>
				
					<rect x="537" y="752" transform="matrix(0.7071 -0.7071 0.7071 0.7071 -374.6059 601.6032)" class="st1" width="3.8" height="2"/>
			</g>
			<g>
				
					<rect x="543.4" y="745.6" transform="matrix(0.7071 -0.7071 0.7071 0.7071 -368.2077 604.2534)" class="st1" width="3.8" height="2"/>
			</g>
		</g>
		<g>
			<g>
				
					<rect x="405.9" y="612.7" transform="matrix(0.7071 -0.7071 0.7071 0.7071 -315.417 467.7578)" class="st1" width="2" height="3.8"/>
			</g>
			<g>
				
					<rect x="412.3" y="619.1" transform="matrix(0.7071 -0.7071 0.7071 0.7071 -318.0673 474.156)" class="st1" width="2" height="3.8"/>
			</g>
			<g>
				
					<rect x="405" y="620" transform="matrix(0.7071 -0.7071 0.7071 0.7071 -319.9414 469.6314)" class="st1" width="3.8" height="2"/>
			</g>
			<g>
				
					<rect x="411.4" y="613.6" transform="matrix(0.7071 -0.7071 0.7071 0.7071 -313.5432 472.2816)" class="st1" width="3.8" height="2"/>
			</g>
		</g>
		<g>
			<g>
				
					<rect x="1355.4" y="672.7" transform="matrix(0.7071 -0.7071 0.7071 0.7071 -79.7447 1156.7209)" class="st1" width="2" height="3.8"/>
			</g>
			<g>
				
					<rect x="1361.8" y="679.1" transform="matrix(0.7071 -0.7071 0.7071 0.7071 -82.395 1163.1193)" class="st1" width="2" height="3.8"/>
			</g>
			<g>
				
					<rect x="1354.5" y="680" transform="matrix(0.7071 -0.7071 0.7071 0.7071 -84.2691 1158.5946)" class="st1" width="3.8" height="2"/>
			</g>
			<g>
				
					<rect x="1360.9" y="673.6" transform="matrix(0.7071 -0.7071 0.7071 0.7071 -77.8709 1161.2449)" class="st1" width="3.8" height="2"/>
			</g>
		</g>
		<g>
			<g>
				<rect x="882.9" y="686.9" class="st2" width="1.6" height="3.8"/>
			</g>
			<g>
				<rect x="882.9" y="695.9" class="st2" width="1.6" height="3.8"/>
			</g>
			<g>
				<rect x="877.3" y="692.5" class="st2" width="3.8" height="1.6"/>
			</g>
			<g>
				<rect x="886.3" y="692.5" class="st2" width="3.8" height="1.6"/>
			</g>
		</g>
		<g>
			<g class="st3">
				<g>
					<g>
						<defs>
							<path id="SVGID_1_" d="M1466.4,1031.7c0.4,0.2,1,0.2,1.3,0c0.4-0.2,0.4-0.5,0-0.8c-0.4-0.2-1-0.2-1.3,0
								C1466,1031.1,1466,1031.5,1466.4,1031.7z"/>
						</defs>
						<use xlink:href="#SVGID_1_"  style="overflow:visible;fill:#C5C9E0;"/>
						<clipPath id="SVGID_2_">
							<use xlink:href="#SVGID_1_"  style="overflow:visible;"/>
						</clipPath>
						<polygon class="st4" points="1466.2,1031.6 1467.3,1030.3 1468.2,1031.3 1467.1,1032.5 						"/>
						<polygon class="st4" points="1467.3,1030.3 1466.2,1031.6 1465.9,1031.3 1467.1,1030.1 						"/>
					</g>
				</g>
			</g>
			<g>
				
					<rect x="1466.7" y="823.1" transform="matrix(0.9999 1.103124e-02 -1.103124e-02 0.9999 9.5434 -16.1388)" class="st1" width="2" height="67.8"/>
			</g>
			<g>
				
					<rect x="1481.9" y="832.1" transform="matrix(1 9.928509e-03 -9.928509e-03 1 9.6561 -14.6751)" class="st1" width="2" height="266.2"/>
			</g>
			<g>
				
					<rect x="1499" y="841.1" transform="matrix(0.9999 1.103124e-02 -1.103124e-02 0.9999 9.7431 -16.4937)" class="st1" width="2" height="67.8"/>
			</g>
			<g>
				<g>
					
						<rect x="1623.8" y="1014.8" transform="matrix(0.9995 3.090374e-02 -3.090374e-02 0.9995 33.3732 -49.7097)" class="st1" width="2" height="80"/>
				</g>
			</g>
		</g>
		<g class="st0">
			<g>
				<g>
					<path class="st1" d="M743.7,654.7v-2c4.1-9.8,3.9-20.2-0.4-28.8c-0.2-0.3-0.1-0.7,0.1-1c0.2-0.3,0.6-0.5,0.9-0.4
						c5,0.6,10.2-1.5,13.3-5.3c3.2-4,4.1-9.9,2.2-14.7c-0.1-0.3-0.1-0.6,0.1-0.9s0.4-0.4,0.7-0.5c4.4-0.5,8.5-4.1,9.9-8.8l1.9,0.6
						c-1.6,5-5.7,8.9-10.4,9.9c1.6,5.3,0.6,11.3-2.9,15.6c-3.1,3.9-8.2,6.2-13.2,6.2c-0.1,0-0.1,0-0.2,0c3.9,8.8,3.8,19.2-0.2,28.9
						C745.3,654.2,744.5,654.7,743.7,654.7z"/>
				</g>
			</g>
			<g>
				<g>
					<path class="st1" d="M699.9,681.5c-6.6,0-12.5-1.4-17.5-4.2c-8.9-5-14.3-14.7-13.1-23.7c0.5-3.5,1.9-6.8,4.1-9.1
						c-2.4-0.8-4.8-2.2-6.8-4.2c-4.2-4.1-6.7-10.2-6.3-15.9c0.5-9,6.6-18,16.3-24.1c8.4-5.3,17.1-6.6,23.7-3.6l-0.8,1.8
						c-6.1-2.7-14-1.4-21.9,3.5c-9.2,5.7-14.9,14.2-15.4,22.6c-0.3,5.1,1.9,10.6,5.7,14.3c2.2,2.2,4.9,3.6,7.6,4.1
						c0.4,0.1,0.7,0.4,0.8,0.7c0.1,0.4,0,0.8-0.3,1c-2.6,2.1-4.3,5.4-4.8,9.1c-1.1,8.2,3.9,17.2,12.1,21.7c4.7,2.6,10.3,4,16.5,4
						c2.9,0,6-0.3,9.1-0.9c5-0.9,9.7-2.6,14.1-4.8l0.9,1.8c-4.6,2.3-9.5,4-14.7,5C706.2,681.2,703,681.5,699.9,681.5z"/>
				</g>
			</g>
			<g>
				<g>
					<path class="st1" d="M806.4,720.5c-2.9,0-5.6-0.8-7.9-2.2l1-1.7c2,1.2,4.4,1.9,6.9,1.9c3.9,0,7.7-1.6,10.1-4.4
						c3.8-4.3,4.4-11,1.4-16c-0.2-0.3-0.2-0.6-0.1-0.9c0.1-0.3,0.4-0.5,0.7-0.6c6.1-1.6,12.2-3.8,14.7-9.3
						c2.4-5.3,0.2-10.9-1.8-16.4c-1.7-4.3-3.4-8.8-3-13.3c0.2-2.5,1-4.9,2.5-7.2l1.7,1.1c-1.3,2.1-2,4.2-2.2,6.3
						c-0.3,4,1.3,8.3,2.9,12.4c2.2,5.9,4.6,11.9,1.8,18c-2.7,5.8-8.8,8.4-14.8,10.1c2.7,5.6,1.8,12.6-2.3,17.2
						C815.1,718.6,810.9,720.5,806.4,720.5z"/>
				</g>
			</g>
			<g>
				<g>
					<path class="st1" d="M641.5,604c-4-10.1,0-22.6,9.1-28.5c8.2-5.4,19.9-4.8,27.7,1.2c3.9-6.8,11.2-11.6,18.9-12.4
						c6.4-0.7,13.3,1.5,18.4,5.8c0.1-6.1,2.2-12.3,6-17.6c5.2-7.3,12.8-12,20.9-12.9c8.7-1,16.9,1.8,24.9,4.5
						c4,1.3,8.1,2.7,12.2,3.6c10.7,2.3,22.1,1.1,32.2-3.2l0.8,1.8c-10.4,4.5-22.3,5.7-33.4,3.3c-4.2-0.9-8.4-2.3-12.4-3.7
						c-7.8-2.6-15.8-5.3-24.1-4.4c-7.5,0.8-14.6,5.2-19.5,12.1c-4,5.7-6,12.3-5.5,18.7c0,0.4-0.2,0.8-0.6,1
						c-0.4,0.2-0.8,0.1-1.1-0.2c-4.8-4.9-11.9-7.5-18.6-6.9c-7.5,0.8-14.5,5.6-17.9,12.4c-0.1,0.3-0.4,0.5-0.7,0.5
						c-0.3,0.1-0.6,0-0.8-0.2c-7.1-6.2-18.4-7-26.2-1.9c-8.3,5.4-11.9,16.9-8.3,26.1L641.5,604z"/>
				</g>
			</g>
			<g>
				<g>
					<path class="st1" d="M703.3,663.7c-0.8,0-1.5,0-2.3-0.1c-6.8-0.7-12.7-4.8-15.1-10.4c-2.2-5.2-0.9-11.4,3-15.1
						c-1.8-1.5-3.1-3.6-3.4-5.9c-0.5-3.6,1.3-7.3,4.4-9.2l1,1.7c-2.4,1.4-3.8,4.4-3.4,7.2c0.3,2.1,1.7,4.1,3.5,5.2
						c0.3,0.2,0.5,0.5,0.5,0.8c0,0.3-0.1,0.6-0.4,0.9c-3.9,3-5.3,9-3.3,13.7c2.1,4.9,7.4,8.5,13.5,9.2c0.7,0.1,1.4,0.1,2.1,0.1
						c5.4,0,10.6-2.3,13.8-6.1c4-4.7,4.8-11.4,2.1-16.5l1.8-1c3.1,5.8,2.2,13.5-2.3,18.8C715.1,661.1,709.3,663.7,703.3,663.7
						C703.3,663.7,703.3,663.7,703.3,663.7z"/>
				</g>
			</g>
			<g>
				<g>
					<path class="st1" d="M622.8,689.6c-2.9-5.7-1.3-13.4,3.9-18.7c4-4.2,9.2-6.3,13.3-7.6c-6.5-7.5-7.5-19.3-2-27.6l1.7,1.1
						c-5.2,7.9-4,19.5,2.9,26.3c0.3,0.2,0.4,0.6,0.3,1c-0.1,0.3-0.3,0.6-0.7,0.7c-4,1.1-9.7,3.2-13.9,7.5c-4.6,4.7-6,11.5-3.5,16.5
						L622.8,689.6z"/>
				</g>
			</g>
			<g>
				<g>
					<path class="st1" d="M846,716.7v-2c2.5-2.8,3.6-6.7,3.2-10.8c-0.4-3.7-2.1-7.1-4.8-9.3c-0.4-0.3-0.5-0.8-0.2-1.2
						c1.6-2.9,3-5.8,3.8-9c0.9-3.9,0.3-7.6-1.5-10.2l1.6-1.1c2.1,3.1,2.8,7.4,1.8,11.8c-0.7,3.2-2.1,6-3.6,8.8
						c2.7,2.5,4.4,6.1,4.8,10.1c0.5,4.6-0.8,9.1-3.6,12.3C847.2,716.4,846.6,716.7,846,716.7z"/>
				</g>
			</g>
		</g>
		<g>
			<path class="st1" d="M847.8,655C847.8,655,847.8,655,847.8,655c-1.6-0.1-2.4-2-3.9-5.4c-1.9-4.3-4.8-10.8-10-14.4
				c-5.5-3.9-14.9-4.8-20.4-5.4l-0.6-0.1c-7.6-0.8-12.7-3.3-15.3-7.6c-1.2-2-1.8-4.4-2.4-6.7c-0.8-3.3-1.6-6.5-4.2-8.1
				c-1.4-0.9-3.1-1.1-4.9-1.4c-1.5-0.2-3-0.5-4.5-1.1c-2.6-1.1-4.5-3.3-6.2-5.1c-0.1-0.1-0.1-0.1-0.1-0.2
				c-3.7-7.1-7.9-10.8-11.2-13.7c-4.5-4-7.8-6.9-6.3-14.8c0.1-0.4,0.4-0.7,0.8-0.8c16.8-2.8,60-10.9,98.7-26.8
				c2.3-0.9,4.6-1.9,6.9-2.9c11.5-4.8,23.4-9.7,35.7-12.8c13.7-3.4,27.1-3.6,39-0.8l-0.5,1.9c-11.5-2.8-24.7-2.5-38,0.8
				c-12.2,3-24,7.9-35.5,12.7c-2.3,1-4.6,1.9-6.9,2.9c-38.4,15.7-81.1,23.9-98.4,26.8c-1,6.3,1.6,8.6,5.8,12.3
				c3.4,3,7.7,6.8,11.6,14.2c1.5,1.7,3.2,3.6,5.4,4.5c1.2,0.5,2.6,0.7,4,0.9c1.9,0.3,3.9,0.6,5.7,1.7c3.2,2,4.2,5.7,5.1,9.3
				c0.5,2.2,1.1,4.4,2.2,6.2c2.2,3.7,6.9,5.9,13.8,6.6l0.6,0.1c5.8,0.6,15.4,1.6,21.4,5.8c5.7,4,8.6,10.8,10.6,15.3
				c0.7,1.7,1.7,3.8,2.2,4.2c2.1-0.3,15.3-10.3,25.9-20.6c3.4-3.3,11.8-12.4,20.7-22.1c3.8-4.1,7.7-8.4,11.5-12.5l1.5,1.4
				c-3.8,4.1-7.7,8.3-11.5,12.5c-8.9,9.7-17.3,18.8-20.8,22.2C866.6,642.2,851,655,847.8,655z"/>
		</g>
		<g>
			<path class="st1" d="M933.9,571.2l-1.6-1.2c6-7.6,10.5-15.9,13.6-24.9l1.9,0.6C944.7,554.8,940,563.4,933.9,571.2z"/>
		</g>
		<g>
			<path class="st1" d="M785.7,605.8l-0.9-1.8c18.3-8.8,36.1-18.8,53.2-29.7l1.1,1.7C822,587,804,597,785.7,605.8z"/>
		</g>
		<g>
			<path class="st1" d="M795.9,615.5l-0.7-1.9c0.5-0.2,1-0.4,1.6-0.6c0.5-0.2,0.9-0.4,1.3-0.5c9.1-3.5,17.5-8.8,25.7-14l1.1,1.7
				c-8.2,5.2-16.8,10.6-26,14.2c-0.4,0.1-0.8,0.3-1.2,0.5C797,615.1,796.4,615.4,795.9,615.5z"/>
		</g>
		<g>
			<path class="st2" d="M746.7,690.9c-2.9,0-5.3-2.4-5.3-5.3c0-2.9,2.4-5.3,5.3-5.3c2.9,0,5.3,2.4,5.3,5.3
				C752,688.6,749.6,690.9,746.7,690.9z M746.7,681.9c-2.1,0-3.7,1.7-3.7,3.7c0,2.1,1.7,3.7,3.7,3.7c2.1,0,3.7-1.7,3.7-3.7
				C750.4,683.5,748.7,681.9,746.7,681.9z"/>
		</g>
		<g>
			<path class="st1" d="M1101.7,919.3c-3.1,0-5.5-2.5-5.5-5.5s2.5-5.5,5.5-5.5s5.5,2.5,5.5,5.5S1104.7,919.3,1101.7,919.3z
				 M1101.7,910.2c-2,0-3.5,1.6-3.5,3.5c0,2,1.6,3.5,3.5,3.5c2,0,3.5-1.6,3.5-3.5C1105.2,911.8,1103.6,910.2,1101.7,910.2z"/>
		</g>
		<g>
			<path class="st1" d="M1211.8,532.8c-2.2,2.2-5.7,2.2-7.8,0c-2.2-2.2-2.2-5.7,0-7.8s5.7-2.2,7.8,0S1214,530.7,1211.8,532.8z
				 M1205.4,526.4c-1.4,1.4-1.4,3.6,0,5s3.6,1.4,5,0c1.4-1.4,1.4-3.6,0-5C1209,525,1206.8,525,1205.4,526.4z"/>
		</g>
		<g>
			<path class="st1" d="M695,546.3c-3.8,0-7-3.1-7-7c0-3.8,3.1-7,7-7c3.8,0,7,3.1,7,7C701.9,543.2,698.8,546.3,695,546.3z
				 M695,534.4c-2.7,0-5,2.2-5,5c0,2.7,2.2,5,5,5c2.7,0,5-2.2,5-5C700,536.6,697.7,534.4,695,534.4z"/>
		</g>
		<g>
			<path class="st1" d="M206.9,714c-2.7,2.7-7.1,2.7-9.8,0c-2.7-2.7-2.7-7.1,0-9.8c2.7-2.7,7.1-2.7,9.8,0
				C209.6,706.9,209.6,711.3,206.9,714z M198.5,705.6c-1.9,1.9-1.9,5.1,0,7c1.9,1.9,5.1,1.9,7,0s1.9-5.1,0-7
				C203.6,703.6,200.4,703.6,198.5,705.6z"/>
		</g>
		<g>
			<path class="st1" d="M1514.2,1205.2l-2,0l4-365.9l-57-32.6l-4.3,457.8l-2,0l4.4-459.5c0-0.4,0.2-0.7,0.5-0.9c0.3-0.2,0.7-0.2,1,0
				l59,33.7c0.3,0.2,0.5,0.5,0.5,0.9L1514.2,1205.2z"/>
		</g>
		<g>
			<path class="st1" d="M1573.2,1146.2l-2,0l3.8-339.3l-57.2,32.6l-1-1.7l58.7-33.5c0.3-0.2,0.7-0.2,1,0c0.3,0.2,0.5,0.5,0.5,0.9
				L1573.2,1146.2z"/>
		</g>
		<g>
			<path class="st1" d="M1575.5,806.1l-58.4-33.6l-6.5,3.7l7.6,4.3c0.3,0.2,0.5,0.5,0.5,0.9c0,0.4-0.2,0.7-0.5,0.9l-39.1,22.3
				c-0.3,0.2-0.7,0.2-1,0l-8.5-4.9l-10.8,6.2l-1-1.7l11.3-6.5c0.3-0.2,0.7-0.2,1,0l8.5,4.9l37.1-21.2l-7.6-4.3
				c-0.3-0.2-0.5-0.5-0.5-0.9c0-0.4,0.2-0.7,0.5-0.9l8.5-4.8c0.3-0.2,0.7-0.2,1,0l58.9,33.9L1575.5,806.1z"/>
		</g>
		<g>
			<rect x="1507.6" y="776.2" class="st1" width="2" height="10.3"/>
		</g>
		<g>
			<path class="st1" d="M1708.5,1010.9l-2,0l0.1-22.8L1656,959l-50.4,28.9l0.1,125.9l-2,0l-0.1-126.4c0-0.4,0.2-0.7,0.5-0.9
				l51.4-29.4c0.3-0.2,0.7-0.2,1,0l51.6,29.6c0.3,0.2,0.5,0.5,0.5,0.9L1708.5,1010.9z"/>
		</g>
		<g>
			<path class="st1" d="M1657.3,1062.1l-2,0l-0.1-44.7l-51.1-29.2l1-1.7l51.6,29.5c0.3,0.2,0.5,0.5,0.5,0.9L1657.3,1062.1z"/>
		</g>
		<g>
			
				<rect x="1652.4" y="1001.1" transform="matrix(0.8685 -0.4956 0.4956 0.8685 -275.5723 965.3784)" class="st1" width="59.1" height="2"/>
		</g>
		<g>
			<path class="st1" d="M1626.4,975.4l-2,0l0.9-81.8l-35.9-20.6l-14.1,7.9l-1-1.7l14.6-8.2c0.3-0.2,0.7-0.2,1,0l36.9,21.2
				c0.3,0.2,0.5,0.5,0.5,0.9L1626.4,975.4z"/>
		</g>
		<g>
			<path class="st1" d="M1626.8,893.8l-36.8,21c-0.3,0.2-0.7,0.2-1,0l-14.7-8.4l1-1.7l14.2,8.1l36.3-20.7L1626.8,893.8z"/>
		</g>
		<g>
			
				<rect x="1587.4" y="913.9" transform="matrix(1 9.956511e-03 -9.956511e-03 1 10.2593 -15.7647)" class="st1" width="2" height="217.1"/>
		</g>
		<g>
			<path class="st1" d="M110.4,1225.2l-2-0.1l7.6-216.9l-53-30.3l-6.2,193.7l-2-0.1l6.3-195.3c0-0.3,0.2-0.7,0.5-0.8
				c0.3-0.2,0.7-0.2,1,0l54.9,31.4c0.3,0.2,0.5,0.5,0.5,0.9L110.4,1225.2z"/>
		</g>
		<g>
			
				<rect x="59.9" y="966.5" transform="matrix(0.872 -0.4895 0.4895 0.872 -463.6784 161.9137)" class="st1" width="35.8" height="2"/>
		</g>
		<g>
			<path class="st1" d="M141.8,977.3c-0.1,0.1-0.1,0.1-0.2,0.2L117.8,991c-0.3,0.2-0.7,0.2-1,0l-23.9-13.7c-0.3-0.2-0.5-0.5-0.5-0.9
				l0-73c0-0.4,0.2-0.7,0.5-0.9c0.3-0.2,0.7-0.2,1,0l23.4,13.4l23.3-13.3c0.3-0.2,0.7-0.2,1,0c0.3,0.2,0.5,0.5,0.5,0.9l0,73
				C142.1,976.8,142,977.1,141.8,977.3z M117.3,989l22.8-13l0-70.7L117.8,918c-0.3,0.2-0.7,0.2-1,0l-22.4-12.8l0,70.7L117.3,989z"/>
		</g>
		<g>
			<rect x="116.3" y="917.2" class="st1" width="2" height="73"/>
		</g>
		<g>
			<path class="st1" d="M140.6,904.4L117.2,891l-23.3,13.4l-1-1.7l23.8-13.7c0.3-0.2,0.7-0.2,1,0l23.9,13.7L140.6,904.4z"/>
		</g>
		<g>
			<path class="st1" d="M172.4,977.2c-0.1,0.1-0.1,0.1-0.2,0.2l-54.6,31.2l-1-1.7l53.1-30.3L141,960l1-1.7l30.2,17.3
				c0.3,0.2,0.5,0.5,0.5,0.9C172.7,976.7,172.6,977,172.4,977.2z"/>
		</g>
		<g>
			
				<rect x="165.5" y="976.4" transform="matrix(0.9994 3.479156e-02 -3.479156e-02 0.9994 39.3011 -5.1102)" class="st1" width="2" height="300.7"/>
		</g>
		
			<radialGradient id="SVGID_3_" cx="617.982" cy="618.1304" r="57.9559" gradientTransform="matrix(0.7071 0.7071 -0.7071 0.7071 923.6709 -314.3801)" gradientUnits="userSpaceOnUse">
			<stop  offset="0" style="stop-color:#EFAE9A"/>
			<stop  offset="1" style="stop-color:#B5624C"/>
		</radialGradient>
		<path class="st5" d="M940.7,584.5l-9.7-19.6c0.5-0.1,0.9-0.4,1.2-0.7c3.6-3.9,14.8-16.5,14.9-16.6c0.1-0.1,0.1-0.2,0.2-0.3
			l0.9-2.4l0,0l12.5-8.7c0.1-0.1,3-2.4,4.1-3.7c0.5-0.6,0.8-1.2,0.9-1.9l11.5-11.9c0.5-0.1,1.3-0.2,2-0.7c0.2-0.2,0.5-0.4,0.8-0.7
			c0.1-0.1,0.3-0.3,0.4-0.4c0.2,0.1,0.5,0.2,0.8,0.2c0.5,0,1.1-0.3,1.9-1c0.1-0.1,1.1-1.3,0.9-2.1c-0.1-0.3-0.1-0.5-0.2-0.7
			c0-0.1-0.1-0.1-0.1-0.2c0-0.3,0-1.2-0.9-1.7c-0.3-0.2-0.4-0.4-0.6-0.5c-0.2-0.2-0.4-0.5-0.8-0.5c-0.5-0.1-2.3-0.2-3.1-0.2
			c-0.3,0-0.5,0.1-0.7,0.3l-4.1,4l0,0c-0.6,0.4-1.7,1.2-3.4,2.6c-3.1,2.5-7.3,5.8-9.2,7.2c-1.7-0.2-3.4,1.1-4.7,2.1
			c-0.5,0.4-1,0.7-1.4,1c-0.4,0.3-1.1,0.7-2,1.2c0.1-0.1,0.1-0.3,0.2-0.5l0.1-1.9l0.4-1.9c0.2-0.3,0.3-0.7,0.3-0.9
			c0-0.2,0.1-0.5,0.1-0.9c0.6-0.8,0.6-2,0-3c-0.3-0.4-1.5-1.5-1.5-1.5l0,0.4c0,0-1.1,0.3-4-1c-0.9-0.4-1.6-0.4-2.1-0.1
			c-0.2,0-0.4,0-0.7,0c-1.7,0.2-4,2.2-4.1,4.8c0,1.1,0.4,2.8,0.5,3.5l-0.9,1.7c-0.2-0.4-0.7-0.6-1.1-0.5l-2.8,0.6c0,0-0.1,0-0.1,0.1
			c-1.4-0.1-4.8-0.3-6.8-0.6c-2.2-0.2-3.8,0.1-4.7,1l0.1,0.1c-2.3,0.4-5.6,1.3-9.5,2.3c-2.7,0.7-5.2,1.4-6.7,1.6
			c-1.1,0.2-2.4,1.1-2.5,2.4c0,0,0,0,0,0l-0.2-0.2c-0.9,1-1.2,2.1-0.9,3.1c0.5,1.6,5.3,12.6,5.8,13.8l0,0.1l0,0l-1.1,1.7
			c-0.2,0.3-0.2,0.6-0.1,0.9c-2,1.7-8.8,7.6-11.3,10.4c-3.1,3.4-10.6,13.4-11.7,14.8l-2.4,1.4c-0.1,0-0.1,0.1-0.2,0.2l-15.2,15.2
			l-0.8-0.2c-0.1,0-0.2,0-0.3,0l-1.7,0.2c-0.4,0-0.7,0.3-0.8,0.6l-0.9,2.1c-0.1,0.3-0.1,0.6,0,0.8l-2.4,4.8c0,0,0,0,0,0.1
			c-0.3,0.8-0.2,1.6,0.3,2.3l1.5,2c0.2,0.3,0.6,0.5,1.1,0.6c0.1,0,0.2,0,0.3,0c0.3,0,0.7-0.1,1.1-0.3c0.1,0,0.1-0.1,0.1-0.1l1.7-2.1
			l3.3-3.7c0.3,0.1,0.5,0.1,0.5,0.2c0.1,0,0.2,0,0.3,0c0.2,0,0.4-0.1,0.6-0.2l23.3-16.1l5.6-2.5c0.1,0,0.1-0.1,0.2-0.1l11.9-8.8
			l8.4,7l-2.5,0.7c-0.1,0-0.2,0.1-0.2,0.1l-14.8,8.9l-0.6-0.2c-0.2-0.1-0.4-0.1-0.6,0l-1.7,0.4c-0.2,0-0.3,0.1-0.4,0.2l-0.8,0.7
			c-2.5,1-6.6,2.8-7.1,3.1c-0.6,0.4-0.8,1.2-0.6,2.2c0,0.1,0,0.1,0,0.2c0.2,1.6,2.3,3.3,3.2,3.4c0,0,0.1,0,0.1,0
			c0.2,0,0.4-0.1,0.6-0.1l4.7-1.3l3.7-0.8c0.2,0.1,0.4,0.2,0.5,0.2c0.2,0,0.4,0,0.6,0l29.6-10.4c0.1,0,0.3-0.1,0.4-0.2l3.7-3.5
			C940.8,585.4,940.9,584.9,940.7,584.5z M971.3,518.5c1.6-1.3,3.2-2.5,3.4-2.7c0.1,0,0.1-0.1,0.1-0.1l3.8-3.7c0.8,0,1.7,0,2.1,0.1
			c0.2,0.2,0.5,0.5,0.9,0.8c0,0,0,0.1,0,0.2c0,0.3,0.1,0.5,0.2,0.7c0,0.1,0,0.1,0.1,0.2c-0.1,0.2-0.2,0.3-0.3,0.4
			c-0.2,0.2-0.4,0.3-0.6,0.4c-0.1,0-0.1-0.1-0.3-0.1c-0.8-0.5-1.6,0.2-2.3,1c-0.2,0.2-0.4,0.4-0.6,0.5c-0.5,0.4-1.1,0.4-1.3,0.4
			c-0.4,0-0.7,0.2-0.9,0.5l-10.4,10.9c-0.6-1.4-1.8-2.5-2.4-2.9C965,523.5,968.6,520.7,971.3,518.5z M955.9,529
			c0.5-0.3,1.1-0.7,1.6-1.1c1.8-1.4,3-2.2,3.9-1.4c0.6,0.4,2.1,1.8,2.3,3.2c0.1,0.6-0.1,1.1-0.5,1.5c-1,1.2-3.7,3.4-3.7,3.4l-10.1,7
			l2.5-6.6c0.1-0.4,0.2-0.8,0.2-1.2v-0.1c0-0.9-0.2-1.6-0.6-2.2C953.5,530.4,955,529.5,955.9,529z M943.4,523.8
			c0.3-0.4,0.9-0.4,1.3-0.1c0.1,0.1,0.2,0.3,0.2,0.4c0.5-0.4,0.8-0.9,1-1.4l0.2-1c0.4,0.2,1,0.4,1.9,0.7c1,0.3,2.7,0.6,3.8,0.8
			l-0.5,2.6c0,0,0,0.1,0,0.1l-0.1,1.7l-2.8,4l-1.1-0.2l-3.2-2.5l-1.2,1.6l3.1,2.5l-0.8,2.8l-0.5-0.7l0.5-1.6l-1.4-0.4l-1.6-3.6
			l2.2-3.9l-0.9-0.5l0,0C943,524.7,943,524.2,943.4,523.8z M939.6,528.8l2.7,6l-1.9,1l-1.8-6.7L939.6,528.8z M936.7,529.3l2.1,8.2
			c0.1,0.3,0.3,0.5,0.6,0.7c0.1,0.1,0.3,0.1,0.4,0.1c0.2,0,0.3,0,0.5-0.1l3-1.6l1.4,2c0.2,0.3,0.5,0.4,0.8,0.4c0.1,0,0.1,0,0.2,0
			c0.4-0.1,0.7-0.3,0.8-0.7l1.4-4.7l0.7,0.2c0.1,0,0.1,0,0.2,0c0.3,0,0.6-0.2,0.8-0.4l0.3-0.5c0.1,0.2,0.2,0.5,0.2,0.9v0.1
			c0,0.2,0,0.3-0.1,0.5l-4.5,12.1c-1.2,1.4-11.3,12.7-14.7,16.4c-0.3,0.3-1.7,0.5-4,0.1c-2.1-0.4-7.1-1.7-10.7-4.3
			c-0.5-0.4-1-0.9-1.4-1.5c0.1,0.1,0.2,0.2,0.3,0.2c0.2,0.1,0.4,0.1,0.6,0.1c0.1,0,0.3,0,0.4,0c0.2,0,0.4-0.1,0.7,0
			c1,0.2,1.6-0.5,1.8-0.7c0,0,0.1-0.1,0.2-0.1c0.1-0.1,0.3-0.2,0.6-0.4c0.6-0.5,0.7-2,0.7-2.1c-0.1-1-0.4-1.6-0.7-1.9
			c-0.2-0.2-0.7-1.1-0.8-1.5c-0.2-1-0.9-1.8-1.3-2.2l-0.4-1.9l0.1,0.1l3.7-5.9c2-0.3,4-0.8,5.9-1.5c3.2-1.1,7.7-4.4,6.8-8.9
			c-0.1-0.6-0.5-1.1-1-1.6C933.8,529.1,935.6,529.2,936.7,529.3z M909.8,533.7c1.6-0.3,4.1-1,6.8-1.7c4.3-1.1,9.7-2.6,11.7-2.6
			c0.1,0,0.2,0,0.3,0c1.1,0.1,2.5,0.9,2.6,1.4c0.6,3.2-3.1,5.7-5.5,6.6c-4.3,1.5-9.3,2-12.6,2c-1,0-2.4-0.4-3.6-2.3
			c-0.3-0.4-0.6-1.9-0.5-2.8C909,534.2,909.4,533.8,909.8,533.7z M916.1,544l-0.5-2.6c0.7,0,1.5-0.1,2.3-0.2L916.1,544z M909,539.7
			c1.5,1.4,3,1.7,4,1.7c0.1,0,0.3,0,0.4,0c0,0,0,0,0.1,0l1.6,7.8c0,0.2,0.2,0.4,0.4,0.6c0.3,0.2,0.8,0.7,0.9,1.2
			c0.2,0.8,0.9,2,1.3,2.4c0.1,0.1,0.1,0.5,0.2,0.8c0,0.1-0.1,0.3-0.1,0.5c-0.1,0-0.1,0.1-0.2,0.1c-0.2,0.1-0.4,0.2-0.6,0.5
			c0,0,0,0,0,0c-0.5-0.1-0.9,0-1.1,0c-0.3-0.3-1-0.8-1.6-1.3l-0.5-3.7c0-0.2-0.1-0.3-0.2-0.5C912,546.8,910.2,542.6,909,539.7z
			 M864.6,605.1c-0.1-0.1-0.1-0.3-0.1-0.4l2.6-5.3c0.1-0.3,0.1-0.6,0-0.9l0.5-1l0.5,0c0,0.1,0,0.1,0,0.2c0,0.3,0.3,2,0.9,2.9
			c0.3,0.5,0.8,0.8,1.3,1.1l-3,3.3l-1.4,1.8L864.6,605.1z M901.6,598.5l-4.7,1.3c-0.5-0.3-1.3-1.1-1.4-1.6c0-0.1,0-0.2,0-0.2
			c0-0.1-0.1-0.2-0.1-0.3c0.9-0.4,4-1.7,6.7-2.8c0.1,0,0.2-0.1,0.3-0.2l0.7-0.6c-0.1,0.6-0.1,1.6,0.5,2.9c0.2,0.4,0.4,0.7,0.6,1
			L901.6,598.5z M935.5,587.6l-29,10.2c-0.3-0.2-0.7-0.7-1.2-1.7c-0.4-0.8-0.4-1.3-0.4-1.6l16.1-9.7l4.2-1.2
			c0.4-0.1,0.6-0.4,0.7-0.8c0.1-0.4-0.1-0.7-0.3-1l-10.5-8.7c-0.4-0.3-0.9-0.3-1.2,0l-12.4,9.2l-5.6,2.5c-0.1,0-0.1,0.1-0.2,0.1
			l-23,15.8c-0.6-0.2-1.7-0.7-2.1-1.3c-0.2-0.3-0.4-0.9-0.5-1.5l16-16l2.5-1.4c0.1-0.1,0.2-0.2,0.3-0.3c0.1-0.1,8.5-11.3,11.7-14.8
			c2.3-2.5,8.3-7.8,10.7-9.9c0.8,1.5,2,3.7,3.5,4.7c3.9,2.8,9.2,4.3,11.5,4.7c0.8,0.1,1.7,0.2,2.6,0.2l9.6,19.6L935.5,587.6z"/>
	</g>
</g>
</svg>
