<svg className="svg-intro" version="1.1"  xml:space="preserve" xmlns="http://www.w3.org/2000/svg" xmlns:xlink="http://www.w3.org/1999/xlink" id="anime" x="0px" y="0px" viewBox="0 0 800 600" style="enable-background:new 0 0 1920 1080;">
            <radialGradient id="gradientmyballs" cx = "50%" cy = "50%" r = "50%" fx = "50%" fy = "25%" >
         	 	<stop className="stop1" offset="0%" stop-color="#EFAE9A" />
         	 	<stop className="stop2" offset="100%" stop-color="#B5624C" />
       		</radialGradient>
			<g className="wink">
				<circle className="c-1 c" cx="400" cy="260" r="5"/>
			    <circle className="c-2 c" cx="400" cy="260" r="5"/>
				<circle className="c-3 c sc" cx="400" cy="260" r="3"/>
				<circle className="c-4 c sc" cx="400" cy="260" r="1.5"/>
				<circle className="c-5 c sc" cx="400" cy="260" r="4"/>
				<circle className="c-6 c sc" cx="400" cy="260" r="6"/>
				<circle className="c-7 c sc" cx="400" cy="260" r="3"/>
				<circle className="c-8 c sc" cx="400" cy="260" r="5"/>
				<circle className="c-9 c sc"cx="400" cy="260" r="1"/>
			</g>
			<g>
				<path id="c-10" className="c" d="M392.5,180a7.5,7.5 0 1,0 15,0a7.5,7.5 0 1,0 -15,0"/>
                <path id="m-1" className="c" d="M504.4,180.2c-1.3,0-2.6,0.5-3.4,1.4c0,0,0.1,0,0.1,0c0,0,0,0,0,0c-0.3,0.3-2.4,2.4-5.9,2.4h-18.5h-0.1
	H305.8c-2.9,0-4.8-1.5-5.6-2.2c-0.9-1-2.2-1.7-3.6-1.7c-2.6,0-4.7,2.1-4.7,4.7s2.1,4.7,4.7,4.7c1.4,0,2.7-0.5,3.6-1.5
	c0.9-0.7,3.1-2.2,6.4-2.2h170h0.1h17.7c4.4,0,6.8,2.5,6.8,2.5l0-0.1c0.8,0.8,2,1.3,3.2,1.3c2.6,0,4.7-2.1,4.7-4.7
	S507,180.2,504.4,180.2z"/>
                <path id="m-2" className="c" d="M407.3,200.2c-0.3,0-0.5,0-0.8,0c-2.6,0.2-4.9,1.8-6.6,4.4c-2-2.9-5.3-4.8-8.4-4.8c-0.7,0-1.4,0.1-2,0.3
			c-2,0.5-3.7,2.1-4.6,4.2c-1,2.3-0.8,5.1,0.4,7.1c1.7,2.8,4.5,4.6,7.3,6.2c1.4,0.9,2.9,1.7,4.2,2.8c0.4,0.3,0.8,0.7,1.3,1.1
			c-0.5,0.5-1.5,2.2-1.5,2.2c-0.3,0.7-0.8,2.1-0.4,3.1c0.2,0.5,0.5,0.8,0.9,1c0.2,0.1,0.4,0.1,0.7,0.1c1,0,1.9-0.9,2.5-1.7
			c1.1-1.4,1.2-2.9,0.5-4.4c1.3-1.2,2.7-2.3,4.1-3.3c2.4-1.8,4.8-3.7,6.7-6.1c0.9-1.2,3.9-5.2,1.8-9
			C412.2,201.4,410,200.2,407.3,200.2z M398.8,224.7c-0.2,0.4-0.4,0.6-0.6,0.8c0-0.6,0.3-1.1,0.4-1.4c0-0.1,0.3-0.5,0.5-0.7
			C399.2,223.8,399.1,224.2,398.8,224.7z M396.5,203.7c0.6,0.5,1.1,1.1,1.6,1.7c0.1,0.1,0.1,0.2,0.2,0.4c0.6,0.9,1.1,1.8,1.8,1.8
			c0.3,0,0.6-0.2,0.8-0.7c1.4-2.8,3.5-4.5,6.1-4.8c0.2,0,0.3,0,0.5,0c2,0,3.7,1.2,4.3,2.9c0.8,2.3-0.5,5-3.9,8.3
			c-1.5,1.4-3.1,2.7-4.7,3.9c-1.2,1-2.5,2-3.7,3c-1.1-1.2-2.5-2.2-3.6-2.9c-0.7-0.4-1.4-0.9-2.2-1.3c-3.8-2.3-8-4.8-7.3-9.6
			c0.4-2.7,2.4-4.5,5.2-4.5c0.2,0,0.4,0,0.6,0C393.7,202,395.2,202.7,396.5,203.7z"/>
			</g>
</svg>