<?xml version="1.0" encoding="utf-8"?>
<!-- Generator: Adobe Illustrator 19.0.0, SVG Export Plug-In . SVG Version: 6.00 Build 0)  -->
<svg version="1.1" id="Layer_1" xmlns="http://www.w3.org/2000/svg" xmlns:xlink="http://www.w3.org/1999/xlink" x="0px" y="0px"
	 viewBox="-347 578.5 722.3 260.8" style="enable-background:new -347 578.5 722.3 260.8;" xml:space="preserve">
<style type="text/css">
	.st0{fill:#FFFFFF;stroke:#000000;stroke-miterlimit:10;}
	.st1{fill:none;}
	.st2{fill:#CC2128;}
</style>
<title>dsideLogo</title>
<rect x="-347" y="578.5" class="st0" width="722.3" height="260.8"/>
<rect x="-347" y="578.5" class="st0" width="722.3" height="260.8"/>
<g>
	<path class="st1" d="M124.5,665.3c-5.7-5.6-12.4-10.1-19.7-13.3c-7.6-3.3-15.8-4.9-24.1-4.9H29.4V771h51.3c8.3,0,16.5-1.6,24.1-4.9
		c14.9-6.3,26.7-18.1,33-33c6.5-15.4,6.5-32.8,0-48.2C134.7,677.6,130.1,670.9,124.5,665.3z M118.3,724.7c-4.1,10-12,17.9-22,22
		c-4.9,2.1-10.2,3.1-15.6,3.1H50.6v-81.4h30.1c5.3,0,10.6,1,15.6,3.1c10,4,18,12,22,22C122.4,703.5,122.4,714.7,118.3,724.7
		L118.3,724.7z"/>
	<rect x="-10.3" y="647.3" class="st1" width="21.2" height="123.8"/>
	<path class="st1" d="M-40.1,708.9c-2.5-1.7-5.1-3.3-7.9-4.6c-2.7-1.3-5.1-2.5-7.3-3.4c-1.9-0.8-3.9-1.5-5.8-2.1
		c-1.7-0.5-2.8-0.8-3.4-1.1l-2.1-0.5c-2.1-0.6-4.4-1.2-6.9-2c-2.5-0.7-4.8-1.6-7.1-2.8c-2.4-1.2-4.6-2.8-6.4-4.8
		c-2.1-2.2-3.3-5.1-3.2-8.1c0-5.2,2.6-9.4,7.8-12.6c2-1,4-1.8,6.2-2.3c2.3-0.6,4.7-0.9,7.1-0.9c5.4,0,10.7,1.2,15.6,3.5
		c3.6,1.9,6.9,4.3,9.7,7.3l15-15.2c-0.9-0.8-2-1.7-3.3-2.7c-1.4-1.1-2.9-2.2-4.5-3.1c-4.4-2.4-9-4.4-13.8-6c-5.8-2-12.9-3-21.4-3
		c-4.8,0-9.5,0.7-14.1,2c-4.7,1.3-9.1,3.5-13,6.5c-4,3.1-7.2,7-9.5,11.6c-2.4,4.8-3.6,10.7-3.6,17.6c0,10.5,5.4,19.4,16.1,26.6
		c4.4,2.9,9,5.3,13.9,7.2c4.7,1.8,8.2,3,10.7,3.7c0.3,0.2,0.7,0.3,1.1,0.4c0.4,0.2,0.8,0.4,1.2,0.4c0.5,0.1,1.1,0.3,1.6,0.5
		c1.9,0.6,4,1.2,6.4,2c2.3,0.7,4.6,1.6,6.7,2.8c2.4,1.1,4.6,2.6,6.4,4.6c2,2.2,3.2,5,3.2,8c0.1,4.7-2.2,9.1-6,11.7
		c-2,1.4-4.3,2.4-6.6,3.1c-2.7,0.8-5.6,1.2-8.4,1.2c-2.1,0-4.3-0.2-6.4-0.5c-2.9-0.4-5.7-1.2-8.3-2.3c-4.8-1.9-9.3-4.6-13.1-8.1
		l-14.7,14.7c5.8,4.5,12.1,8.1,19,10.7c8.3,3.3,17.2,4.8,26.2,4.7c5.7,0.1,11.3-0.8,16.6-2.7c4.7-1.6,9-4.2,12.7-7.5
		c3.5-3.3,6.3-7.4,8-11.9c2-5,2.9-10.3,2.8-15.7C-23,725.4-28.7,716.5-40.1,708.9z"/>
	<path class="st1" d="M-142.4,665.3c-5.7-5.7-12.4-10.2-19.8-13.4c-7.6-3.3-15.9-4.9-24.2-4.9H-238v124.6h51.6
		c8.3,0,16.6-1.6,24.2-4.9c15-6.3,26.9-18.2,33.2-33.2c6.5-15.5,6.5-32.9,0-48.4C-132.2,677.7-136.7,671-142.4,665.3z"/>
	<polygon class="st1" points="156.1,771 239.5,771 239.5,749.8 177.3,749.8 177.3,719.7 222.1,719.7 230.3,698.5 177.3,698.5 
		177.3,668.4 239.5,668.4 239.5,647.1 156.1,647.1 	"/>
	<path class="st2" d="M109.6,680.2c-3.8-3.7-8.3-6.7-13.3-8.8c-4.9-2.1-10.2-3.1-15.6-3.1H50.6v81.4h30.1c5.3,0,10.6-1,15.6-3.1
		c10-4,17.9-12,22-22s4.1-21.2,0-31.2C116.2,688.6,113.3,684,109.6,680.2z"/>
	<path class="st2" d="M-347,578.5v260.8h722.3V578.5H-347z M-129,733.5c-6.3,15-18.2,26.9-33.2,33.2c-7.7,3.3-15.9,4.9-24.2,4.9
		H-238V647h51.6c8.3,0,16.6,1.6,24.2,4.9c15,6.3,26.9,18.2,33.2,33.2C-122.5,700.6-122.5,718-129,733.5L-129,733.5z M-25.8,751.3
		c-1.8,4.5-4.5,8.6-8,11.9c-3.7,3.3-8,5.9-12.7,7.5c-5.4,1.8-11,2.7-16.6,2.7c-9,0.2-17.9-1.4-26.2-4.7c-6.8-2.6-13.2-6.2-19-10.7
		l14.7-14.7c3.8,3.5,8.3,6.3,13.1,8.1c2.7,1.1,5.5,1.9,8.3,2.3c2.1,0.3,4.2,0.5,6.4,0.5c2.8,0,5.7-0.4,8.4-1.2
		c2.4-0.7,4.6-1.7,6.6-3.1c3.8-2.6,6.1-7,6-11.7c0-3-1.1-5.8-3.2-8c-1.8-2-3.9-3.5-6.4-4.6c-2.1-1.2-4.4-2.1-6.7-2.8
		c-2.4-0.7-4.5-1.4-6.4-2c-0.5-0.2-1-0.4-1.6-0.4c-0.4,0-0.9-0.2-1.2-0.4c-0.4,0-0.7-0.2-1.1-0.4c-2.5-0.7-6-2-10.7-3.7
		c-4.9-1.9-9.5-4.3-13.9-7.2c-10.7-7.2-16.1-16-16.1-26.5c0-7,1.2-12.8,3.6-17.6c2.2-4.6,5.5-8.6,9.5-11.7c3.9-3,8.3-5.2,13-6.5
		c4.6-1.3,9.3-2,14.1-2c8.5,0,15.6,1,21.4,3c4.8,1.6,9.4,3.6,13.8,6c1.6,0.9,3.1,2,4.5,3.1c1.2,1,2.3,1.9,3.3,2.7l-15,15.2
		c-2.8-2.9-6.1-5.4-9.7-7.3c-4.9-2.3-10.2-3.5-15.6-3.5c-2.4,0-4.8,0.3-7.1,0.9c-2.2,0.5-4.2,1.3-6.2,2.4c-5.2,3.2-7.8,7.4-7.8,12.6
		c-0.1,3,1.1,6,3.2,8.2c1.8,2,4,3.6,6.4,4.8c2.3,1.2,4.6,2.1,7.1,2.8s4.8,1.4,6.9,2l2.1,0.5c0.6,0.2,1.7,0.6,3.4,1.1
		c2,0.6,3.9,1.3,5.8,2.1c2.2,0.9,4.7,2.1,7.3,3.4c2.7,1.3,5.4,2.9,7.9,4.6c11.5,7.6,17.2,16.5,17.2,26.7
		C-22.9,741-23.8,746.3-25.8,751.3L-25.8,751.3z M11,771h-21.3V647.3h21.2L11,771z M137.8,733.2c-6.3,14.9-18.1,26.7-33,33
		c-7.6,3.3-15.8,4.9-24.1,4.9H29.4v-124h51.3c8.3,0,16.5,1.6,24.1,4.9c14.9,6.3,26.7,18.1,33,33
		C144.3,700.4,144.3,717.7,137.8,733.2L137.8,733.2z M239.5,668.4h-62.2v30.1h53l-8.2,21.2h-44.8v30.1h62.1V771H156V647.1h83.4
		L239.5,668.4z M278.7,771.6H257V750h21.6L278.7,771.6z"/>
</g>
</svg>
