<?xml version="1.0" encoding="utf-8"?>
<!-- Generator: Adobe Illustrator 19.0.0, SVG Export Plug-In . SVG Version: 6.00 Build 0)  -->
<svg version="1.1" id="Layer_1" xmlns="http://www.w3.org/2000/svg" xmlns:xlink="http://www.w3.org/1999/xlink" x="0px" y="0px"
	 viewBox="333 -103.8 722.3 260.8" style="enable-background:new 333 -103.8 722.3 260.8;" xml:space="preserve">
<style type="text/css">
	.st0{fill:#F21E27;}
	.st1{fill:#FFFFFF;}
	.st2{fill:#20EF6A;}
</style>
<g>
	<rect x="333" y="-103.8" class="st0" width="722.3" height="260.8"/>
	<path class="st1" d="M804.1-16.7c-5.7-5.6-12.4-10.1-19.7-13.3c-7.6-3.3-15.8-4.9-24.1-4.9H709V89h51.3c8.3,0,16.5-1.6,24.1-4.9
		c14.9-6.3,26.7-18.1,33-33c6.5-15.4,6.5-32.8,0-48.2C814.3-4.4,809.7-11.1,804.1-16.7z M797.9,42.7c-4.1,10-12,17.9-22,22
		c-4.9,2.1-10.2,3.1-15.6,3.1h-30.1v-81.4h30.1c5.3,0,10.6,1,15.6,3.1c10,4,18,12,22,22C802,21.5,802,32.7,797.9,42.7L797.9,42.7z"
		/>
	<rect x="669.3" y="-34.7" class="st1" width="21.2" height="123.8"/>
	<path class="st1" d="M639.5,26.9c-2.5-1.7-5.1-3.3-7.9-4.6c-2.7-1.3-5.1-2.5-7.3-3.4c-1.9-0.8-3.9-1.5-5.8-2.1
		c-1.7-0.5-2.8-0.8-3.4-1.1l-2.1-0.5c-2.1-0.6-4.4-1.2-6.9-2c-2.5-0.7-4.8-1.6-7.1-2.8c-2.4-1.2-4.6-2.8-6.4-4.8
		c-2.1-2.2-3.3-5.1-3.2-8.1c0-5.2,2.6-9.4,7.8-12.6c2-1,4-1.8,6.2-2.3c2.3-0.6,4.7-0.9,7.1-0.9c5.4,0,10.7,1.2,15.6,3.5
		c3.6,1.9,6.9,4.3,9.7,7.3l15-15.2c-0.9-0.8-2-1.7-3.3-2.7c-1.4-1.1-2.9-2.2-4.5-3.1c-4.4-2.4-9-4.4-13.8-6c-5.8-2-12.9-3-21.4-3
		c-4.8,0-9.5,0.7-14.1,2c-4.7,1.3-9.1,3.5-13,6.5c-4,3.1-7.2,7-9.5,11.6c-2.4,4.8-3.6,10.7-3.6,17.6c0,10.5,5.4,19.4,16.1,26.6
		c4.4,2.9,9,5.3,13.9,7.2c4.7,1.8,8.2,3,10.7,3.7c0.3,0.2,0.7,0.3,1.1,0.4c0.4,0.2,0.8,0.4,1.2,0.4c0.5,0.1,1.1,0.3,1.6,0.5
		c1.9,0.6,4,1.2,6.4,2c2.3,0.7,4.6,1.6,6.7,2.8c2.4,1.1,4.6,2.6,6.4,4.6c2,2.2,3.2,5,3.2,8c0.1,4.7-2.2,9.1-6,11.7
		c-2,1.4-4.3,2.4-6.6,3.1c-2.7,0.8-5.6,1.2-8.4,1.2c-2.1,0-4.3-0.2-6.4-0.5c-2.9-0.4-5.7-1.2-8.3-2.3c-4.8-1.9-9.3-4.6-13.1-8.1
		l-14.7,14.7c5.8,4.5,12.1,8.1,19,10.7c8.3,3.3,17.2,4.8,26.2,4.7c5.7,0.1,11.3-0.8,16.6-2.7c4.7-1.6,9-4.2,12.7-7.5
		c3.5-3.3,6.3-7.4,8-11.9c2-5,2.9-10.3,2.8-15.7C656.6,43.4,650.9,34.5,639.5,26.9z"/>
	<path class="st1" d="M537.2-16.7c-5.7-5.7-12.4-10.2-19.8-13.4c-7.6-3.3-15.9-4.9-24.2-4.9h-51.6V89.6h51.6
		c8.3,0,16.6-1.6,24.2-4.9c15-6.3,26.9-18.2,33.2-33.2c6.5-15.5,6.5-32.9,0-48.4C547.4-4.3,542.9-11,537.2-16.7z"/>
	<polygon class="st1" points="835.7,89 919.1,89 919.1,67.8 856.9,67.8 856.9,37.7 901.7,37.7 909.9,16.5 856.9,16.5 856.9,-13.6 
		919.1,-13.6 919.1,-34.9 835.7,-34.9 	"/>
	<path class="st0" d="M789.6-2.1c-3.8-3.7-8.3-6.7-13.3-8.8c-4.9-2.1-10.2-3.1-15.6-3.1h-30.1v81.4h30.1c5.3,0,10.6-1,15.6-3.1
		c10-4,17.9-12,22-22c4.1-10,4.1-21.2,0-31.2C796.2,6.3,793.3,1.7,789.6-2.1z"/>
	<rect x="935.7" y="67.8" class="st1" width="21.4" height="21.4"/>
</g>
<rect x="333" y="-103.8" class="st2" width="722.3" height="260.8"/>
</svg>
