<?xml version="1.0" encoding="utf-8"?>
<!-- Generator: Adobe Illustrator 19.0.0, SVG Export Plug-In . SVG Version: 6.00 Build 0)  -->
<svg version="1.1" id="Layer_1" xmlns="http://www.w3.org/2000/svg" xmlns:xlink="http://www.w3.org/1999/xlink" x="0px" y="0px"
	 viewBox="-608 671.3 201 115.3" style="enable-background:new -608 671.3 201 115.3;" xml:space="preserve">
<style type="text/css">
	.st0{fill:#FFFFFF;}
	.st1{fill:#FF123A;}
</style>
<desc>Created with Sketch.</desc>
<g>
	<path class="st0" d="M-607.7,714.2l10.9-32.2l23.1-4l-7.9,26.4h20.9l7.9-26.4h19.4l-13.6,46.2h-19.4l2.8-9.9L-607.7,714.2z"/>
	<path class="st0" d="M-535,724.3c-1.1,0-2.1-0.1-2.9-0.4c-0.8-0.3-1.5-0.7-1.9-1.3c-0.5-0.6-0.8-1.2-0.9-2
		c-0.1-0.7-0.1-1.6,0.1-2.4c1.6-6.1,3-11.6,4.4-16.6c0.6-2.1,1.1-4.2,1.7-6.3c0.5-2.1,1.1-3.9,1.5-5.6c0.5-1.7,0.8-3.1,1.2-4.3
		c0.3-1.2,0.5-1.9,0.7-2.2c0.7-1.8,1.6-3.2,2.7-4c1.1-0.8,2.2-1.2,3.3-1.2h46.8c0.8,0,1.6,0.2,2.1,0.6c0.6,0.4,1,0.9,1.4,1.6
		c0.3,0.7,0.4,1.4,0.4,2.3c0,0.9-0.3,1.7-0.7,2.7l-12.4,39.1H-535z M-514,689.1c-1,3.7-1.9,7-2.7,10c-0.4,1.3-0.7,2.5-1.1,3.8
		c-0.4,1.2-0.7,2.4-1,3.4c-0.3,1-0.5,1.9-0.7,2.6c-0.2,0.7-0.3,1.1-0.4,1.3c-0.3,1-0.2,1.8,0.3,2.2c0.5,0.5,1.1,0.7,1.7,0.7h14.9
		l7.5-24H-514z"/>
	<path class="st0" d="M-481.7,714.2l10.9-32.2l23.1-4l-7.9,26.4h20.9l7.9-26.4h19.4l-13.6,46.2h-19.4l2.8-9.9L-481.7,714.2z"/>
</g>
<g>
	<path class="st1" d="M-571.5,724.2v0.1h2.3c-0.2,0.1-0.5,0.1-0.7,0.1c-0.2,0-0.5,0-0.7,0.1c-0.2,0-0.6,0.1-1,0.1
		c-0.1,0.4-0.2,1.1-0.5,2c-0.2,0.9-0.5,1.9-0.8,3c-0.3,1.1-0.6,2.1-0.9,3c-0.3,1-0.6,1.7-1,2.1c-0.6,1-1.1,2.3-1.5,4
		c-0.3,1.7-0.8,3.6-1.3,5.7l-0.2,0.6h3.8h9v-0.4c0-0.2,0-0.4,0.1-0.4c0,0.1,0,0.1,0.1,0.1c0.1,0,0.1,0,0.1,0.1c0,0,0,0.1,0.1,0.1
		l0.2,0.2v1.6c0,0.4,0,0.8,0.1,1.1c0,0.3,0.1,0.6,0.1,0.7c0,0.2,0,0.3-0.1,0.4c0,0.1-0.1,0.2-0.1,0.2v0.1v0.2c0,0.2,0,0.2-0.1,0.2
		c-0.1,0-0.5,0-1.2,0c-0.7,0-1.6,0-2.7-0.1c-1.1,0-2.3-0.1-3.7-0.2c-1.4-0.1-2.8-0.3-4.3-0.5c-0.4-0.1-0.8-0.1-1.2-0.2
		c-0.4,0-0.8-0.1-1.2-0.2v0.2h0.1h-0.1c-0.6,2.2-1.1,3.4-1.2,3.6c-0.1,0.2,0-0.1,0.2-0.8c0.2-0.7,0.4-1.6,0.7-2.7
		c-0.2,0-0.4,0-0.6-0.1c-0.4,1.6-0.8,3.3-1.3,4.9c-0.4,1.7-0.8,2.9-1,3.8c-0.2,0.9-0.4,1.7-0.6,2.4c-0.2,0.7-0.3,1.2-0.4,1.6
		c-0.2,0.5-0.2,0.9-0.2,1.2l0.1,0.1c0,0.1,0,0.2,0.1,0.2c0.2-0.5,0.3-1,0.4-1.6c0.1-0.6,0.3-1.3,0.4-2c0.3-1.4,0.6-2.5,0.9-3.5
		c0.2-0.9,0.4-1.7,0.6-2.4c0.2-0.7,0.4-1.3,0.5-1.7c-0.2,1.3-0.5,2.7-0.9,4.1c-0.2,1.2-0.5,2.6-0.8,4.1c-0.3,1.5-0.6,2.9-0.9,4.3
		c-0.1,0.4-0.1,0.9-0.1,1.5v0.7c0.1-0.3,0.2-0.8,0.4-1.5c0.2-0.6,0.3-1.3,0.5-2.2c0.2-0.9,0.5-2.1,0.9-3.5c0.3-1.4,0.6-2.5,0.9-3.5
		c0.3-0.9,0.5-1.7,0.7-2.4c0.2-0.7,0.4-1.3,0.5-1.7c-0.6,2.7-1.1,5.2-1.6,7.5c-0.4,2-0.8,4-1.3,6c-0.4,2-0.8,3.5-1,4.7
		c-0.4,1.6-0.7,3-0.8,4.2c-0.2,1.2-0.3,2.1-0.5,2.7c2.6-0.1,5.4-0.1,8.5-0.2c3.1,0,5.9-0.1,8.5-0.2c3.1-0.1,6.1-0.2,9.1-0.2
		c0.1,0,0.2,0.1,0.5,0.2c0.2,0.2,0.3,0.3,0.5,0.5c0.2,0.2,0.4,0.3,0.5,0.5c0.2,0.2,0.4,0.6,0.6,1.1c0.2,0.5,0.4,0.9,0.6,1.3
		c0.2,0.5,0.4,1,0.5,1.6h-1.9c-0.2,0-1,0-2.1,0.1c-1.2,0-2.7,0.1-4.4,0.2c-1.8,0.1-3.8,0.2-6,0.3c-2.2,0.1-4.4,0.2-6.7,0.3
		c-5.3,0.3-11.2,0.6-17.7,0.9l14-1.3l-0.5-0.2c-0.2-0.1-0.3-0.1-0.4-0.2c-0.1,0-0.2-0.1-0.3-0.2c-0.2-0.1-0.4-0.1-0.6-0.1
		c-0.2,0-0.4,0-0.6-0.1c-0.2-0.1-0.1-0.1,0.1-0.1c0.2,0,0.2,0,0-0.1c-0.6-0.2-1.1-0.2-1.2,0c0,0.2,0.1,0.3,0.4,0.4
		c0.1,0.1,0.2,0.1,0.4,0.1l-20.2,1.7l-0.8-1.7c-0.2-0.5-0.5-1-0.7-1.5c-0.2-0.5-0.3-0.9-0.3-1.3c-0.1-0.4-0.1-0.7,0.1-0.8
		c0.1-0.2,0.3-0.3,0.4-0.5c0.2-0.2,0.3-0.3,0.5-0.4c0.7,0.1,1.6,0.1,2.7,0.1h8.6h0.1c0.2-0.6,0.5-1.9,1.1-3.8c0.6-1.9,1.2-4.1,2-6.7
		c0.8-2.6,1.6-5.5,2.5-8.7c0.9-3.2,1.8-6.3,2.7-9.5c-0.1-0.1-0.2-0.1-0.2-0.1c-0.7,0-1.5-0.1-2.2-0.2c-0.7-0.2-1.4-0.3-1.9-0.5
		c-0.7-0.2-1.4-0.4-1.9-0.6c0.3,0.1,0.8,0.2,1.3,0.4c0.4,0.2,1,0.3,1.6,0.4c0.7,0.1,1.5,0.2,2.4,0.4c0.4,0,0.7,0,1,0.1v-0.6
		c-1.1-0.2-2.2-0.3-3.1-0.4c-0.9-0.1-1.8-0.3-2.6-0.4c-0.9-0.2-1.7-0.3-2.5-0.4c0-0.2,0-0.4,0.1-0.6c0.2-0.5,0.4-0.7,0.6-0.7h0.7
		c-0.1,0-0.2,0-0.2-0.1c-0.1,0-0.1,0-0.1-0.1c0,0,0-0.1,0.1-0.1c0.6,0.1,1.4,0.1,2.3,0.1c0.7,0,1.6,0,2.5,0.1c0.9,0,1.9,0.1,3,0.1
		c0.2-0.6,0.3-1.1,0.4-1.7c0.1-0.6,0.3-1.1,0.4-1.7c1.1-4.6,1.9-8.2,2.2-10.7c0.4-2.5,0.6-4.4,0.8-5.6c-0.4,0.1-0.8,0.1-1.2,0.1
		c-0.4,0-0.7,0-1,0c-1.5,0.1-2.6,0.2-3.5,0.3c-0.9,0.1-1.4,0.1-1.6,0.1c-0.2-0.1-0.4-0.4-0.7-1c-0.3-0.6-0.4-1.1-0.3-1.4
		c0.1-0.3,0-0.7-0.1-1c-0.2-0.4-0.2-0.8,0-1.3c0-0.3,0-0.6,0.1-0.8c0.1-0.2,0.2-0.4,0.2-0.6c0.1-0.2,0.2-0.3,0.2-0.4
		c2.7,0.2,5.4,0.3,8.1,0.4c2.3,0.2,4.9,0.3,7.7,0.3c2.8,0,5.5,0,8.1-0.1c2.6-0.1,4.7-0.2,6.3-0.4c1.6-0.2,2.8-0.4,3.7-0.5
		c0.9-0.1,1.5-0.2,1.8-0.1c0.3,0,0.4,0.3,0.4,0.8v5.5c-1.1,0.1-2.1,0.1-3,0.1c-0.8,0-1.6-0.1-2.3-0.2c-0.7-0.1-1.3-0.3-1.7-0.5
		c-0.6-0.5-1.5-0.7-2.7-0.6c-1.1,0.1-2.4,0.2-3.9,0.2c-1.4-0.1-2.5-0.1-3.5-0.1c-0.9,0-1.5,0-1.8-0.2c-0.2,0,0,0,0.4-0.1
		c0.4,0,1-0.1,1.6-0.1c0.6,0,1.3,0,1.9-0.1c0.6,0,1.1-0.1,1.5-0.2c0.3-0.1,0.2-0.1-0.5-0.2c-0.6,0-1.5-0.1-2.6-0.1
		c-1.1,0-2.1,0-3.3-0.1c-1.1,0-2-0.1-2.7-0.1c-0.6,0-1.2,0-1.6,0.1c-0.4,0-0.7,0.1-1,0.1h-0.7l-0.1,0.1l-0.1,0.1h0.1L-571.5,724.2z
		 M-584.5,780.9c-0.2-0.2-0.5-0.4-1.2-0.4s-1.2,0-1.6,0c-0.4,0-0.7,0-0.9,0.1c-0.2,0.1-0.2,0.2,0,0.2H-584.5z M-583.7,746.8l0.1-0.4
		l-1.2-0.1h-0.2c-0.2,0-0.1,0.1,0.4,0.2C-584.5,746.5-584.2,746.6-583.7,746.8z M-581.9,752.7c-0.2,0.9-0.5,1.7-0.7,2.5
		c-0.2,0.8-0.4,1.4-0.5,1.9l-0.1,0.2c-0.1,0.6-0.1,1.3-0.2,1.9c0,0.6,0,0.9,0.1,0.8c0.1-0.1,0.3-0.7,0.5-1.9c0.3-1.2,0.6-2.5,1-3.9
		c0.4-1.6,0.9-3.4,1.3-5.5C-581,749.8-581.5,751.1-581.9,752.7z M-579.1,748.3l0.1-0.4l-0.6-0.1l-0.1,0.4c0.2,0,0.3,0,0.4,0.1
		C-579.2,748.3-579.1,748.3-579.1,748.3z M-578.8,747.5v-0.4l-0.5-0.1l-0.1,0.5H-578.8z M-578.9,724.3v-0.1l-0.1,0.1H-578.9z
		 M-578.3,744.8c0.1-0.2,0.1-0.6,0.1-1c0.1-0.3,0.1-0.4-0.1-0.2c-0.1,0.2-0.3,0.6-0.4,1.2H-578.3z M-578.5,747.1l-0.1,0.5
		c0.2,0,0.5,0,0.9,0.1c0.3,0,0.5,0,0.6-0.1c0.1-0.1-0.1-0.2-0.5-0.2C-578,747.3-578.3,747.2-578.5,747.1z M-567.5,722.2
		c-0.3-0.2-0.8-0.3-1.3-0.3c-0.6,0-1.1-0.1-1.7-0.2c-0.7-0.1-1.5-0.1-2.2-0.1c-0.6,0.2-1,0.3-1.3,0.4c-0.3,0.1-0.6,0.2-0.9,0.2
		c-0.2,0.1-0.3,0.1-0.1,0.1c0.1,0.1,0.5,0.1,1.3,0.1c0.8,0,1.7-0.1,2.6-0.1C-570.1,722.4-568.9,722.3-567.5,722.2z M-565.6,748.5
		c-0.4-0.1-0.8-0.2-1.1-0.4c-0.3-0.2-0.6-0.3-1-0.3c-0.3,0-0.6-0.1-0.8-0.2h-1.2h-0.5l1.2,0.4h-0.7c-0.2,0-0.5,0-0.9-0.1
		c-0.4,0-0.8-0.1-1.3-0.2c-0.6-0.1-1-0.1-1.4-0.2c-0.4,0-0.7-0.1-0.9-0.1h-0.9c0,0.2,0,0.3,0.1,0.4c0.2,0.2,0.6,0.4,1,0.4
		c0.3,0.1,0.9,0.1,1.8,0.2c0.9,0,1.8,0.1,2.8,0.2c1.1,0.1,2.4,0.2,3.8,0.2h0.1v-0.1C-565.5,748.6-565.5,748.5-565.6,748.5z"/>
	<path class="st1" d="M-551.6,736c0.1-0.1,0.2-0.2,0.4-0.2c0.3-0.2,0.8-0.1,1.5,0.1c0.3,0.2,0.7,0.4,1.2,0.7c0.4,0.3,0.9,0.6,1.3,1
		c0.4,0.3,0.9,0.7,1.3,1.2l-5.2,10.2c0.1-0.1,0.2-0.1,0.2-0.1c0.3-0.2,0.6-0.3,1-0.4l1.8-3.6c-0.1,0.3-0.2,0.6-0.4,1
		c-0.2,0.3-0.3,0.7-0.5,1.2c-0.2,0.4-0.4,1-0.7,1.5c0.2,0,0.4,0,0.6,0.1c0.8-0.2,1.9-0.5,3.2-0.9c1.3-0.4,2.6-0.8,3.8-1.2
		c1.3-0.4,2.4-0.9,3.3-1.4c1-0.5,1.6-1,1.9-1.5c0.9-1.3,0.9-2.9,0.1-4.7c-0.8-1.8-2.7-3.3-5.7-4.3c-3.1-1-5.6-1.6-7.6-1.8
		c-2-0.2-4-0.4-6-0.4c-1.1,0-2,0-2.9,0c-0.8,0-1.6,0-2.2,0.1c-0.8,0.1-1.5,0.1-2.1,0.1c1.3,0.1,2.5,0.1,3.6,0.1c1,0.1,2,0.1,3,0.1
		c1,0,1.8,0,2.5,0c1.5,0.2,2.7,0.3,3.4,0.4c0.5,0.1,0.9,0.2,1.3,0.2h-4.3c-1.2,0-2.5,0-3.8-0.1c-1.3,0-2.6-0.1-3.7-0.1
		c-1.1,0-2.1,0-2.9,0.1c-0.8,0-1.5,0.1-2.1,0.2c-0.6,0.1-1.2,0.2-1.6,0.2c-0.1-0.3-0.2-0.6-0.2-1c-0.1-0.3-0.2-0.7-0.2-1
		c-0.1-0.4-0.1-0.8,0-1.4c0-0.6,0-1.1,0.1-1.6c0.1-0.5,0.2-0.9,0.2-1.2c0.1-0.3,0.2-0.6,0.4-1c4.1,0,8,0.1,11.7,0.4
		c1.5,0.1,3.1,0.2,4.7,0.3c1.6,0.1,3.1,0.3,4.4,0.5c1.4,0.2,2.6,0.4,3.7,0.7c1.1,0.2,2,0.5,2.6,0.9c2.5,1.4,4.6,2.9,6.1,4.4
		c1.6,1.6,2.5,3,2.7,4.2c0.2,1.3,0.2,2.4,0,3.3c-0.2,0.9-0.6,1.8-1.1,2.7c-0.2,0.4-0.5,0.8-0.8,1.2c-0.3,0.4-0.5,0.8-0.7,1.2
		c-0.3,0.4-0.6,0.8-0.7,1.2c-1.2,0.2-2.5,0.5-3.8,0.7c-1.1,0.2-2.3,0.4-3.6,0.7c-1.3,0.3-2.4,0.5-3.6,0.7c0.5,0.5,1.2,1.2,2.1,2.2
		c0.9,1,1.8,2.2,2.6,3.6c0.6,0.9,1.2,1.6,1.6,2.2c0.4,0.6,0.7,1.1,1,1.5c0.3,0.5,0.6,0.9,0.7,1.2c-0.5-0.6-0.9-1.1-1.3-1.7
		c-0.4-0.5-0.8-1-1.2-1.4c-0.4-0.4-0.7-0.9-0.9-1.3c-0.5-0.7-0.8-1.2-1-1.3l-0.4-0.4c0.2,0.8,0.5,1.6,0.9,2.3c0.6,1.5,1.6,2.8,2.8,4
		c0.6,0.6,1.2,1.3,1.7,1.8c0.5,0.6,0.9,1.1,1.3,1.5c0.4,0.5,0.8,0.9,1.2,1.3c0-0.1-0.1-0.2-0.2-0.5c-0.2-0.2-0.3-0.4-0.5-0.6
		c-0.2-0.2-0.4-0.6-0.6-1l-1.1-1.6l0.7,0.7c0.3,0.3,1,1.2,1.9,2.5c0.4,0.6,0.9,1.4,1.3,2.2c0.5,0.8,0.9,1.5,1.3,2.2
		c0.5,0.9,1,1.7,1.6,2.4l-14-12.1c-1.4-1.3-2.5-2.7-3.5-4.2c-0.9-1.5-1.9-2.8-2.9-3.9l-0.5-0.7c-0.7,1.7-1.6,3.6-2.5,5.6
		c-0.9,2-1.8,3.9-2.6,5.7c-0.8,1.8-1.4,3.3-2,4.6c-0.6,1.3-0.9,2-1,2.2l-0.5,1.2l-1.5-1c-0.4-0.2-0.8-0.5-1.2-0.8
		c-0.4-0.3-0.6-0.5-0.8-0.8c-0.2-0.2-0.3-0.3-0.4-0.5c-0.1-0.2-0.2-0.3-0.2-0.5c-0.1-0.2-0.1-0.3-0.1-0.4c1.3-3.3,2.6-6.4,3.8-9.4
		c1.1-2.5,2.1-5,3.1-7.5c1-2.5,1.8-4.4,2.2-5.8c1-2.7,1.7-4.6,2.2-5.8C-551.9,737.1-551.7,736.4-551.6,736z M-551.8,750l-0.7,1.6
		v-0.2c-0.1-0.1-0.1-0.2-0.1-0.2V751c-0.2,0-0.4,0.3-0.4,0.8c0,0.2,0,0.1,0.1-0.1c0.1-0.2,0.1-0.2,0.1-0.1c0,0.2,0,0.3-0.1,0.5
		c-0.1,0.2-0.1,0.3-0.1,0.4c0,0.2,0,0.4,0.1,0.6l0.2,0.5l1.7-3.4C-551.4,750.3-551.7,750.2-551.8,750z M-552.2,750
		c0.1-0.4,0.2-0.8,0.4-1.1c0.3-0.8,0.5-1.3,0.5-1.3c0-0.2-0.1-0.2-0.2-0.1c-0.1,0.1-0.3,0.3-0.4,0.7c-0.1,0.3-0.2,0.7-0.3,1
		C-552.4,749.6-552.4,749.9-552.2,750z"/>
	<path class="st1" d="M-521,736c0.1-0.1,0.2-0.2,0.4-0.2c0.3-0.2,0.8-0.1,1.5,0.1c0.3,0.2,0.7,0.4,1.2,0.7c0.4,0.3,0.9,0.6,1.3,1
		c0.4,0.3,0.9,0.7,1.3,1.2l-5.2,10.2c0.1-0.1,0.2-0.1,0.2-0.1c0.3-0.2,0.6-0.3,1-0.4l1.8-3.6c-0.1,0.3-0.2,0.6-0.4,1
		c-0.2,0.3-0.3,0.7-0.5,1.2c-0.2,0.4-0.4,1-0.7,1.5c0.2,0,0.4,0,0.6,0.1c0.8-0.2,1.9-0.5,3.2-0.9c1.3-0.4,2.6-0.8,3.8-1.2
		c1.3-0.4,2.4-0.9,3.3-1.4c1-0.5,1.6-1,1.9-1.5c0.9-1.3,0.9-2.9,0.1-4.7c-0.8-1.8-2.7-3.3-5.7-4.3c-3.1-1-5.6-1.6-7.6-1.8
		c-2-0.2-4-0.4-6-0.4c-1.1,0-2,0-2.9,0c-0.8,0-1.6,0-2.2,0.1c-0.8,0.1-1.5,0.1-2.1,0.1c1.3,0.1,2.5,0.1,3.6,0.1c1,0.1,2,0.1,3,0.1
		c1,0,1.8,0,2.5,0c1.5,0.2,2.7,0.3,3.4,0.4c0.5,0.1,0.9,0.2,1.3,0.2h-4.3c-1.2,0-2.5,0-3.8-0.1c-1.3,0-2.6-0.1-3.7-0.1
		c-1.1,0-2.1,0-2.9,0.1c-0.8,0-1.5,0.1-2.1,0.2c-0.6,0.1-1.2,0.2-1.6,0.2c-0.1-0.3-0.2-0.6-0.2-1c-0.1-0.3-0.2-0.7-0.2-1
		c-0.1-0.4-0.1-0.8,0-1.4c0-0.6,0-1.1,0.1-1.6c0.1-0.5,0.2-0.9,0.2-1.2c0.1-0.3,0.2-0.6,0.4-1c4.1,0,8,0.1,11.7,0.4
		c1.5,0.1,3.1,0.2,4.7,0.3c1.6,0.1,3.1,0.3,4.4,0.5c1.4,0.2,2.6,0.4,3.7,0.7c1.1,0.2,2,0.5,2.6,0.9c2.5,1.4,4.6,2.9,6.1,4.4
		c1.6,1.6,2.5,3,2.7,4.2c0.2,1.3,0.2,2.4,0,3.3c-0.2,0.9-0.6,1.8-1.1,2.7c-0.2,0.4-0.5,0.8-0.8,1.2c-0.3,0.4-0.5,0.8-0.7,1.2
		c-0.3,0.4-0.6,0.8-0.7,1.2c-1.2,0.2-2.5,0.5-3.8,0.7c-1.1,0.2-2.3,0.4-3.6,0.7c-1.3,0.3-2.5,0.5-3.6,0.7c0.5,0.5,1.2,1.2,2.1,2.2
		c0.9,1,1.8,2.2,2.6,3.6c0.6,0.9,1.2,1.6,1.6,2.2c0.4,0.6,0.7,1.1,1,1.5c0.3,0.5,0.6,0.9,0.7,1.2c-0.5-0.6-0.9-1.1-1.3-1.7
		c-0.4-0.5-0.8-1-1.2-1.4c-0.4-0.4-0.7-0.9-0.9-1.3c-0.5-0.7-0.8-1.2-1-1.3l-0.4-0.4c0.2,0.8,0.5,1.6,0.8,2.3c0.6,1.5,1.6,2.8,2.8,4
		c0.6,0.6,1.2,1.3,1.7,1.8c0.5,0.6,0.9,1.1,1.3,1.5c0.4,0.5,0.8,0.9,1.2,1.3c0-0.1-0.1-0.2-0.2-0.5c-0.2-0.2-0.3-0.4-0.5-0.6
		c-0.2-0.2-0.4-0.6-0.6-1l-1.1-1.6l0.7,0.7c0.3,0.3,1,1.2,1.9,2.5c0.4,0.6,0.8,1.4,1.3,2.2c0.5,0.8,0.9,1.5,1.3,2.2
		c0.5,0.9,1,1.7,1.6,2.4l-14-12.1c-1.4-1.3-2.5-2.7-3.5-4.2c-0.9-1.5-1.9-2.8-2.9-3.9l-0.5-0.7c-0.7,1.7-1.6,3.6-2.5,5.6
		c-0.9,2-1.8,3.9-2.6,5.7c-0.8,1.8-1.4,3.3-2,4.6c-0.6,1.3-0.9,2-1,2.2l-0.5,1.2l-1.5-1c-0.4-0.2-0.8-0.5-1.2-0.8
		c-0.4-0.3-0.6-0.5-0.8-0.8c-0.2-0.2-0.3-0.3-0.4-0.5c-0.1-0.2-0.2-0.3-0.2-0.5c-0.1-0.2-0.1-0.3-0.1-0.4c1.3-3.3,2.6-6.4,3.8-9.4
		c1.1-2.5,2.1-5,3.1-7.5c1-2.5,1.8-4.4,2.2-5.8c1-2.7,1.7-4.6,2.2-5.8C-521.3,737.1-521.1,736.4-521,736z M-521.2,750l-0.7,1.6v-0.2
		c-0.1-0.1-0.1-0.2-0.1-0.2V751c-0.2,0-0.4,0.3-0.4,0.8c0,0.2,0,0.1,0.1-0.1c0.1-0.2,0.1-0.2,0.1-0.1c0,0.2,0,0.3-0.1,0.5
		c-0.1,0.2-0.1,0.3-0.1,0.4c0,0.2,0,0.4,0.1,0.6l0.2,0.5l1.7-3.4C-520.8,750.3-521.1,750.2-521.2,750z M-521.6,750
		c0.1-0.4,0.2-0.8,0.4-1.1c0.3-0.8,0.5-1.3,0.5-1.3c0-0.2-0.1-0.2-0.2-0.1c-0.1,0.1-0.3,0.3-0.4,0.7c-0.1,0.3-0.2,0.7-0.3,1
		C-521.8,749.6-521.7,749.9-521.6,750z"/>
	<path class="st1" d="M-484.4,760.6v0.1c-0.2,0-0.4,0-0.6,0.1c-1.2,0.2-2,0.4-2.3,0.4l-0.4-0.1c-1.6,0.2-3.3,0.2-5.2,0.1
		c-1.8-0.1-3.5-0.4-5.1-0.9c-1.6-0.5-2.9-1.2-4.1-2.1c-1.1-0.9-1.8-2.1-2.1-3.6c-0.7-3.6-0.2-6.8,1.6-9.6c1.8-2.8,4.1-5.3,7-7.3
		c2.9-2.1,5.9-3.7,9-5c3.1-1.3,5.6-2.2,7.6-2.8v-0.1c0.2,0,0.4,0,0.6-0.1c0.6-0.2,1.2-0.3,1.6-0.4c0.4-0.1,0.6-0.1,0.7,0l0.4,0.1
		c1.6-0.1,3.3-0.1,5.1,0c1.8,0.1,3.5,0.4,5,0.9c1.6,0.5,3,1.2,4.1,2.1c1.2,0.9,1.9,2.1,2.1,3.6c0.7,3.6,0.2,6.8-1.6,9.6
		c-1.8,2.8-4.1,5.3-7,7.3c-2.8,2.1-5.8,3.7-8.9,5C-479.9,759.1-482.4,760-484.4,760.6z M-500.1,765.3l-0.2,0.2
		c-0.1,0.1-0.2,0.1-0.2,0.2c-0.1,0-0.2,0.1-0.2,0.3l-0.5,0.2c-0.2,0.2-0.3,0.3-0.4,0.4c-0.1,0.1-0.1,0.3-0.1,0.5
		c0.2,0.6,0.4,1.2,0.9,1.9c0.2,0.3,0.5,0.7,0.7,1.1l15.3-3.6c-0.1-0.1-0.2-0.1-0.2-0.1c-0.2,0-0.2,0-0.2-0.1c0-0.2,0.3-0.2,0.8-0.2
		c0.2,0.1,0.2,0.1,0,0.2c-0.2,0-0.3,0.1-0.1,0.1c0.1,0,0.2,0,0.4-0.1c0.2,0,0.4-0.1,0.5-0.1c0.1,0,0.2,0,0.2,0.1l-9.1,2.2
		c0.8-0.2,1.7-0.4,2.8-0.6c0.9-0.2,1.9-0.4,3.1-0.6c1.2-0.2,2.4-0.5,3.8-0.8l0.1,0.1l-10.7,2.7c5-1,9.5-1.9,13.5-2.8
		c1.7-0.3,3.4-0.7,5-1c1.7-0.4,3.2-0.7,4.5-1c1.3-0.3,2.5-0.5,3.4-0.7c0.9-0.2,1.5-0.3,1.6-0.3l1.5-0.2v-0.1c0-0.1,0-0.1-0.1-0.2
		c0,0-0.1-0.1-0.1-0.2l1-0.1c-0.1-0.5-0.2-0.9-0.4-1.2c-0.3-0.8-0.6-1.3-0.9-1.6c-0.2-0.2-0.3-0.3-0.4-0.3c-0.1,0-0.3-0.1-0.4-0.2
		c-0.2-0.1-0.3-0.2-0.4-0.2c-3.8,0.7-7.4,1.4-10.7,2.1c-2.8,0.6-5.7,1.1-8.6,1.6c-2.9,0.5-5.1,0.9-6.7,1.1c-1.5,0.3-2.9,0.5-3.9,0.7
		c-1.1,0.1-2,0.3-2.6,0.4C-499,765.1-499.7,765.3-500.1,765.3z M-476.6,733.7h-0.1c0.3,0,0.9,0,1.8,0c0.8,0,1.8,0,2.8,0
		c1,0,2.1,0,3.2,0.1c1.1,0.1,2.1,0.2,3,0.5h-8.4c-0.8,0-1.5,0-2.1,0.1c-0.6,0-1.1,0.1-1.5,0.1c-0.5,0.1-0.9,0.1-1.2,0.1
		c-1.4,0.5-2.6,1-3.7,1.4c-1.1,0.4-1.8,0.7-2,0.9c-1.9,0.9-4,2.1-6.3,3.6c-2.2,1.5-4.2,3.2-5.8,4.9c-1.7,1.7-2.8,3.5-3.4,5.2
		c-0.6,1.7-0.3,3.2,0.9,4.4c1.5,1.5,3.5,2.2,5.8,2.2s4.4-0.1,6.4-0.2c0.2-0.1,0.4-0.1,0.6-0.1h0.1c-0.3,0-0.9,0-1.8,0
		c-0.9,0-1.8,0-2.8,0c-1,0-2.1,0-3.2-0.1c-1.1-0.1-2.1-0.2-3-0.5h8.4c0.8,0,1.5,0,2.1,0c0.6,0,1.1,0,1.5-0.1c0.5,0,0.9,0,1.2-0.1
		c1.4-0.5,2.6-1,3.7-1.4c1.1-0.4,1.8-0.7,2-0.9c1.9-0.9,4-2.1,6.3-3.6c2.2-1.5,4.2-3.2,5.8-4.9c1.7-1.7,2.8-3.5,3.4-5.2
		c0.6-1.7,0.3-3.2-0.9-4.4c-1.5-1.4-3.5-2.1-5.8-2.1c-2.3,0-4.4,0-6.4,0.2c-0.2,0-0.3,0-0.4,0.1
		C-476.4,733.6-476.5,733.7-476.6,733.7z M-500.5,743.9c0.8-1.6,2-3,3.5-4.3c1.5-1.2,2.9-2.2,4.3-3c1.6-0.9,3.4-1.6,5.2-2.2
		c-0.2,0.2-0.9,0.5-1.9,0.9c-1,0.4-2.2,1.1-3.5,1.8c-1.3,0.8-2.7,1.7-4.1,2.9C-498.4,741.1-499.5,742.4-500.5,743.9z M-489,767.2
		l2.2-0.5h0.2l-1,0.2C-488.2,767.1-488.7,767.2-489,767.2z M-462.7,746.5c-0.9,1.7-2.1,3.1-3.5,4.3c-1.5,1.2-2.9,2.2-4.2,3
		c-1.6,0.9-3.4,1.6-5.2,2.2c0.2-0.1,0.9-0.4,1.9-0.8c1-0.5,2.2-1.1,3.5-1.9c1.3-0.8,2.7-1.8,4.1-2.9
		C-464.9,749.3-463.7,748-462.7,746.5z"/>
	<path class="st1" d="M-450.9,736c0.1-0.1,0.2-0.2,0.4-0.2c0.3-0.2,0.8-0.1,1.5,0.1c0.3,0.2,0.7,0.4,1.2,0.7c0.4,0.3,0.9,0.6,1.3,1
		c0.4,0.3,0.8,0.7,1.3,1.2l-5.2,10.2c0.1-0.1,0.2-0.1,0.2-0.1c0.3-0.2,0.6-0.3,1-0.4l1.8-3.6c-0.1,0.3-0.2,0.6-0.4,1
		c-0.2,0.3-0.3,0.7-0.5,1.2c-0.2,0.4-0.4,1-0.7,1.5c0.2,0,0.4,0,0.6,0.1c0.8-0.2,1.9-0.5,3.2-0.9c1.3-0.4,2.6-0.8,3.8-1.2
		c1.3-0.4,2.4-0.9,3.3-1.4c1-0.5,1.6-1,1.9-1.5c0.9-1.3,0.9-2.9,0.1-4.7c-0.8-1.8-2.7-3.3-5.7-4.3c-3.1-1-5.6-1.6-7.6-1.8
		c-2-0.2-4-0.4-6-0.4c-1.1,0-2,0-2.9,0c-0.9,0-1.6,0-2.2,0.1c-0.8,0.1-1.5,0.1-2.1,0.1c1.3,0.1,2.5,0.1,3.6,0.1c1,0.1,2,0.1,3,0.1
		c1,0,1.8,0,2.5,0c1.5,0.2,2.7,0.3,3.4,0.4c0.5,0.1,0.9,0.2,1.3,0.2h-4.2c-1.2,0-2.5,0-3.8-0.1c-1.3,0-2.6-0.1-3.7-0.1
		c-1.1,0-2.1,0-2.9,0.1c-0.8,0-1.5,0.1-2.1,0.2c-0.6,0.1-1.2,0.2-1.6,0.2c-0.1-0.3-0.2-0.6-0.2-1c-0.1-0.3-0.2-0.7-0.2-1
		c-0.1-0.4-0.1-0.8,0-1.4c0-0.6,0-1.1,0.1-1.6c0.1-0.5,0.2-0.9,0.2-1.2c0.1-0.3,0.2-0.6,0.4-1c4.1,0,8,0.1,11.7,0.4
		c1.5,0.1,3.1,0.2,4.7,0.3c1.6,0.1,3.1,0.3,4.4,0.5c1.4,0.2,2.6,0.4,3.7,0.7c1.1,0.2,2,0.5,2.6,0.9c2.5,1.4,4.6,2.9,6.1,4.4
		c1.6,1.6,2.5,3,2.7,4.2c0.2,1.3,0.2,2.4,0,3.3c-0.2,0.9-0.6,1.8-1.1,2.7c-0.2,0.4-0.5,0.8-0.8,1.2c-0.3,0.4-0.5,0.8-0.7,1.2
		c-0.3,0.4-0.6,0.8-0.7,1.2c-1.2,0.2-2.5,0.5-3.8,0.7c-1.1,0.2-2.3,0.4-3.6,0.7c-1.3,0.3-2.5,0.5-3.6,0.7c0.5,0.5,1.2,1.2,2.1,2.2
		c0.9,1,1.8,2.2,2.6,3.6c0.6,0.9,1.2,1.6,1.6,2.2c0.4,0.6,0.7,1.1,1,1.5c0.3,0.5,0.6,0.9,0.7,1.2c-0.5-0.6-0.9-1.1-1.3-1.7
		c-0.4-0.5-0.8-1-1.2-1.4c-0.4-0.4-0.7-0.9-0.9-1.3c-0.5-0.7-0.8-1.2-1-1.3l-0.4-0.4c0.2,0.8,0.5,1.6,0.9,2.3c0.6,1.5,1.6,2.8,2.8,4
		c0.6,0.6,1.2,1.3,1.7,1.8c0.5,0.6,0.9,1.1,1.3,1.5c0.4,0.5,0.8,0.9,1.2,1.3c0-0.1-0.1-0.2-0.2-0.5c-0.2-0.2-0.3-0.4-0.5-0.6
		c-0.2-0.2-0.4-0.6-0.6-1l-1.1-1.6l0.7,0.7c0.3,0.3,1,1.2,1.9,2.5c0.4,0.6,0.8,1.4,1.3,2.2c0.5,0.8,0.9,1.5,1.3,2.2
		c0.5,0.9,1,1.7,1.6,2.4l-14-12.1c-1.4-1.3-2.5-2.7-3.5-4.2c-0.9-1.5-1.9-2.8-2.9-3.9l-0.5-0.7c-0.7,1.7-1.6,3.6-2.5,5.6
		c-0.9,2-1.8,3.9-2.6,5.7c-0.8,1.8-1.4,3.3-2,4.6c-0.6,1.3-0.9,2-1,2.2l-0.5,1.2l-1.5-1c-0.4-0.2-0.8-0.5-1.2-0.8
		c-0.4-0.3-0.6-0.5-0.8-0.8c-0.2-0.2-0.3-0.3-0.4-0.5c-0.1-0.2-0.2-0.3-0.2-0.5c-0.1-0.2-0.1-0.3-0.1-0.4c1.3-3.3,2.6-6.4,3.8-9.4
		c1.1-2.5,2.1-5,3.1-7.5c1-2.5,1.8-4.4,2.2-5.8c1-2.7,1.7-4.6,2.2-5.8C-451.2,737.1-451,736.4-450.9,736z M-451.2,750l-0.7,1.6v-0.2
		c-0.1-0.1-0.1-0.2-0.1-0.2V751c-0.2,0-0.4,0.3-0.4,0.8c0,0.2,0,0.1,0.1-0.1c0.1-0.2,0.1-0.2,0.1-0.1c0,0.2,0,0.3-0.1,0.5
		c-0.1,0.2-0.1,0.3-0.1,0.4c0,0.2,0,0.4,0.1,0.6l0.2,0.5l1.7-3.4C-450.7,750.3-451,750.2-451.2,750z M-451.5,750
		c0.1-0.4,0.2-0.8,0.4-1.1c0.3-0.8,0.5-1.3,0.5-1.3c0-0.2-0.1-0.2-0.2-0.1c-0.1,0.1-0.3,0.3-0.4,0.7c-0.1,0.3-0.2,0.7-0.3,1
		C-451.7,749.6-451.7,749.9-451.5,750z"/>
</g>
</svg>
