<?xml version="1.0" encoding="utf-8"?>
<!-- Generator: Adobe Illustrator 19.0.0, SVG Export Plug-In . SVG Version: 6.00 Build 0)  -->
<svg version="1.1" id="Layer_1" xmlns="http://www.w3.org/2000/svg" xmlns:xlink="http://www.w3.org/1999/xlink" x="0px" y="0px"
	 viewBox="-308 649.3 800 120" style="enable-background:new -308 649.3 800 120;" xml:space="preserve">
<style type="text/css">
	.st0{fill:#513670;}
	.st1{fill:#395483;}
	.st2{fill:#24839D;}
	.st3{fill:#186F83;}
	.st4{fill:#38B2DC;}
	.st5{fill:#32A7C6;}
	.st6{fill:#217ABE;}
	.st7{fill:#7ACBED;}
	.st8{fill:#DCF6FF;}
	.st9{fill:#64D2F9;}
	.st10{fill:#35A8E0;}
	.st11{fill:#361E59;}
</style>
<desc>Created with Sketch.</desc>
<path class="st0" d="M-309.4,750.5v17.3l3.6,1.3c0.6,0,1.2-0.1,1.8-0.1h795.5l0.8-2.3v-41.2C97.7,627.3-194.6,707.7-309.4,750.5z"/>
<path class="st1" d="M482.1,732.7c-12.9-3.1-25.9-6.1-38.8-8.9c-25.6-5.5-51.3-10.8-77.3-14.3c-25.7-3.5-51.6-5.5-77.4-7.4
	c-25.8-1.8-51.6-4-77.4-5.8c-51.5-3.5-103.2-3.4-154.8-1.2c-26.1,1.1-52,3.5-77.9,6c-26.1,2.6-52.2,5.3-78.1,9.3
	c-23.1,3.6-46,8.3-69.1,11.7c-21.4,3.1-42.5,8.4-63.1,14.8c-20.7,6.4-40.9,14.3-60.9,22.5c-5.5,2.3-11.1,4.5-16.6,6.8v1.5l3.6,1.3
	c0.6,0,1.2-0.1,1.8-0.1h79.1c1.6-0.5,3.2-0.9,4.8-1.4c23.2-6.6,47.2-13.5,70.9-17.5c25.1-4.2,52.8-12.8,78.1-15.9
	c26.2-3.2,50.2-3.4,76.5-5.8c25.8-2.4,50.9-5.9,76.8-6.7c51.7-1.5,100.5,3.4,152.1,7.4c46.5,3.6,91.6,10.9,137.7,17.8
	c23.5,3.5,45.7,7.8,68.9,12.8c6.1,1.3,10.7,5.3,15.3,9.3h35.2l0.8-2.3v-31.4C488.9,734.4,485.5,733.5,482.1,732.7z"/>
<path class="st0" d="M492.4,720.3c-2.9-0.6-5.9-1.2-8.8-1.8c-37-7.6-74.3-14.3-110.9-23.6c-18.5-4.7-36.8-9.9-55.2-14.6
	c-18.3-4.6-36.7-8.3-55.3-11.4c-18.5-3-37.2-5.2-55.8-7.3c-18.6-2.2-37.3-3.9-56-5.5c-23.9-2-47.7-4.8-71.6-6.1
	c-23.7-1.2-47.5-0.5-70.9,3.4c-0.8,0.1-0.6,1.3,0.2,1.3c35.3-3.7,71-0.1,106.2,3.7c36.8,4,73.8,7.2,110.5,12.4
	c18.6,2.6,37.2,6.2,55.6,10c18.5,3.8,36.6,9,54.7,14.3c36.7,10.7,73.8,19.4,111.3,27.1c15.3,3.1,30.7,6.2,46,9.5V720.3z"/>
<path class="st0" d="M492.4,703.1c-15-3.6-30-6.9-45.1-9.8c-9.6-1.9-19.3-3.5-29-4.9c-9.8-1.4-19.6-2.3-29.4-3.2
	c-19.3-1.7-38.5-3.9-57.7-6.1c-11.1-1.3-22.2-2.7-33.2-4.2c-5.6-0.8-11.2-1.5-16.7-2.3c-2.9-0.4-5.8-0.6-8.7-1
	c-2.9-0.4-5.8-1-8.8-1.4c-1-0.2-1.1,1.4-0.1,1.6c2.3,0.5,4.7,0.9,7,1.4c2.6,0.5,5.1,1.3,7.7,1.9c4.7,1.1,9.5,2,14.2,3
	c9.4,2.1,19,3.8,28.5,5.6c9.5,1.8,19,3.5,28.5,4.8c9.6,1.3,19.2,2.4,28.9,3.4c9.8,1,19.6,1.4,29.4,2.3c9.8,0.9,19.5,2.1,29.2,3.7
	c18.6,3,37,6.9,55.4,11.1V703.1z"/>
<path class="st0" d="M492.4,688c-8-1.5-16-2.9-24.1-4c-8.2-1.2-16.3-3.4-24.4-5.2c-13.7-3-27.7-5.5-41.8-3.7c-1.1,0.1-1,2,0.1,2
	c8.2-0.5,16.4,0.4,24.5,1.6c8.4,1.3,16.7,3.2,24.9,5.2c3.9,0.9,7.8,1.9,11.7,2.8c4.6,1,9.3,1.5,13.9,2.3c5.1,0.9,10.1,1.8,15.2,2.8
	V688z"/>
<g>
	<path class="st1" d="M340.6,702c15.8,3,31.4,7.1,47,11c15.6,3.9,31.2,8.5,47.2,10.6c1.2,0.2,1.6-1.8,0.4-2.1
		c-15.3-5.1-31-8.9-46.7-12.9c-15.7-4-31.6-7.2-47.8-9C339.2,699.4,339.1,701.7,340.6,702L340.6,702z"/>
</g>
<path class="st2" d="M492.4,753.2c-69.2-16.7-211.4-47-387.4-43.7c-11.7,0.2-44.4,1.8-56,2.4c93.7,0.2,239.5,27.1,239.5,27.1
	c-103.2-6.9-229.3-7.6-229.3-7.6c49.5,5.9,111.9,15.1,111.9,15.1c90.6,2.4,153.7,20.8,153.7,20.8c2,0.6,4,1.1,6,1.7h160.6l0.8-2.3
	V753.2z"/>
<path class="st3" d="M492.4,748.8c-4.9-1.3-9.8-2.6-14.6-3.8c-18.9-5-37.8-9.4-57-12.5c-22.4-3.6-44.8-7.2-67.3-10.2
	c-23.6-3.1-47.4-5.5-71.1-7.7c-42.3-3.9-114.2-2.6-107.6-2.4c20.3,2.3,40.6,4.7,61,6.7c20.6,2.1,41.2,4.4,61.7,7
	c17.3,2.2,34.6,4.7,51.8,7.5c-4.5-0.5-9.1-1-13.6-1.4c-18.2-1.6-36.4-3.5-54.6-4.4c-36.8-1.7-73.6,0.7-110.4,0.8
	c-17.7,0.1-35.4,0.5-53.1,1.2c-8.9,0.3-17.7,0.6-26.6,0.5c-8.9-0.1-17.8-0.9-26.7-1.4c-17.1-1.1-34.3-1.5-51.4,0.5
	c-17.1,1.9-34.2,3.6-51.2,5.9c-8.6,1.2-17.2,2.6-25.6,4.4c-7.6,1.6-15.1,3.6-22.8,4.8c-14.3,2.3-29.8,3.9-42.6,11.3
	c-0.2,0.1-0.3,0.2-0.4,0.4c-6.4,1.5-12.7,3.2-19,5.1c-17.2,5.1,26.4-10,44.4-17c4.8-1.8,9.7-3.1,14.7-4.3
	c12.8-4.2,25.8-7.5,38.9-10.5c4.7-1.1,9.5-2.2,14.3-3.3c-5.1,0.2-10.1,0.4-15.2,0.7c-3.7,0.6-7.4,1.2-11.2,1.8
	c-10.7,1.7-21.4,3.6-32,5.6c-10.5,2-21,4.3-31.4,6.8c-10.4,2.5-20.7,5.5-31.1,8.4c-20.7,5.7-41.3,11.5-61.8,17.8
	c-2.1,0.6-4.2,1.3-6.4,2h66.7c3.1-1.1,6.3-2.2,9.4-3.3c17.6-6,35.5-11.5,53.6-15.7c3.9-0.5,7.8-1,11.7-1.5c7.8-1,15.4-2.9,23.2-4.4
	c8.5-1.7,17.1-2.8,25.8-3.9c17.1-2,34.2-3.9,51.3-5.7c17.6-1.8,35.5-0.4,53.1,1.1c8.9,0.8,17.8,1.6,26.7,1.8
	c6.8,0.1,13.7,0,20.5-0.2c16.3,0.3,32.5,1.4,48.7,2c9.2,0.3,18.4,0.4,27.6,0.2c1.5,0,3-0.1,4.5-0.2c4.1,0.5,8.2,1,12.4,1.5
	c10,1,19.9,2,29.9,2.9c19.9,1.7,39.7,3.4,59.6,4.7c8.1,0.5,16.2,0.8,24.3,1.3c2.9,0.2,5.8,0.3,8.8,0.5c4.3,0.8,8.7,1.6,13,2.4
	c18.2,3.6,37.1,8.1,54.8,14.7c1.6,0.6,3.2,1.2,4.7,1.8h11.9c-1.4-0.7-2.9-1.4-4.3-2.1c-17.2-8-36-12.8-54.5-16.8
	c-13.8-3-27.6-5.4-41.5-7.7c-8.1-1.3-16.4-2.2-24.5-3.3c-8.9-1.2-17.8-2.2-26.8-3.1c-4.1-0.4-8.2-0.8-12.3-1
	c11.1,0,22.2,0.2,33.2,0.9c16.8,0.9,33.6,2.7,50.3,4.2c17.3,1.6,34.3,4,50.9,8.9c8.4,2.5,16.7,5.4,25,8.3c7.6,2.7,15.2,4.7,22.9,6.8
	c5,1.3,10.7,2.7,16.1,5.1h12c-6.1-5.2-13.9-8.6-21.5-11.1c-8.2-2.7-16.6-4.5-24.8-7.3c-2.6-0.9-5.2-1.8-7.8-2.8
	c8.8,2,17.6,4.1,26.4,6.3c17.6,4.4,35,9.4,52.2,14.9h4l0.8-2.3V748.8z"/>
<path class="st4" d="M316.9,754.6c10.2,2.5,20.3,5.6,30.5,8.4c6.7,1.8,13.3,3.9,20,6.1h28.3c-1.4-0.4-2.8-0.7-4.2-1.1
	c-5.8-1.5-11.4-3.4-17.1-5.1c-5.1-1.6-10.2-2.9-15.4-4.2c-2.5-0.6-4.9-1.2-7.4-1.8c-2.8-0.6-5.6-1.5-8.4-1.9
	c-10.2-1.5-20.3-3.8-30.5-5.4c-13.7-2.2-27.3-4.7-41-6.6c-6.7-0.9-37.7-1.7-44.3-2.3c-1-0.1,41.8,5.4,60.6,8.5
	C297.7,750.6,307.4,752.3,316.9,754.6z"/>
<path class="st5" d="M462.2,769h3c-2.2-1.2-4.3-2.1-5.8-2.8C459.3,766.2,460.6,767.4,462.2,769z"/>
<path class="st6" d="M492.4,746.6c-2.7-0.7-5.6-1.5-8.6-2.3c-11.9-3.1-26.4-6.6-43-10.3c-16.7-3.7-35.6-7.6-56.3-11.3
	c-20.7-3.8-43.2-7.4-67-10.6c-23.9-3.2-49.1-6.1-75.3-8.3c-26.2-2.2-53.3-3.7-80.9-4.4c-27.6-0.7-55.6-0.6-83.7,0.6
	c-7,0.4-14,0.7-21,1.1l-2.6,0.1l-2.6,0.2c-1.7,0.1-3.5,0.2-5.2,0.4c-3.5,0.2-7,0.5-10.5,0.7c-0.9,0.1-1.7,0.1-2.6,0.2l-2.6,0.2
	c-1.7,0.2-3.5,0.3-5.2,0.5c-3.5,0.3-6.9,0.6-10.4,1c-1.7,0.1-3.5,0.4-5.2,0.5c-1.7,0.2-3.4,0.4-5.2,0.6c-3.4,0.4-6.9,0.8-10.3,1.2
	c-0.9,0.1-1.7,0.2-2.6,0.3l-2.6,0.3c-1.7,0.2-3.4,0.5-5.1,0.7c-3.4,0.5-6.8,0.9-10.2,1.3c-6.8,1-13.5,2-20.2,3
	c-6.7,1.1-13.3,2.2-19.9,3.3c-3.3,0.6-6.6,1.2-9.8,1.8c-1.6,0.3-3.3,0.6-4.9,0.9c-1.6,0.3-3.2,0.6-4.9,0.9
	c-25.8,5-50.6,10.7-73.9,16.7c-11.7,3-23,6.1-33.9,9.2c-5.4,1.6-10.8,3.1-16,4.7c-2.6,0.8-5.2,1.6-7.8,2.3c-1.3,0.4-2.6,0.8-3.8,1.2
	c-1.3,0.4-2.5,0.8-3.8,1.2c-2.5,0.8-5,1.6-7.5,2.3c-2.5,0.8-4.9,1.6-7.3,2.3c-2.4,0.8-4.8,1.5-7.1,2.3c-2.3,0.8-4.6,1.5-6.9,2.3
	c-2.3,0.8-4.5,1.5-6.7,2.2c-2.2,0.8-4.4,1.5-6.5,2.2c-0.8,0.3-1.5,0.5-2.3,0.8h15.8c0.5-0.2,0.9-0.3,1.4-0.5
	c2.3-0.8,4.5-1.6,6.9-2.3c2.3-0.8,4.7-1.5,7.1-2.3c2.4-0.8,4.8-1.6,7.2-2.4c2.4-0.8,4.9-1.6,7.4-2.4c1.2-0.4,2.5-0.8,3.8-1.2
	c1.3-0.4,2.5-0.8,3.8-1.2c2.6-0.8,5.1-1.6,7.7-2.4c5.2-1.6,10.5-3.1,16-4.7c2.7-0.8,5.4-1.6,8.2-2.4c2.8-0.8,5.6-1.5,8.4-2.3
	c1.4-0.4,2.8-0.8,4.2-1.2c1.4-0.4,2.8-0.8,4.3-1.1c2.9-0.8,5.7-1.5,8.6-2.3c23.2-6.1,47.9-11.8,73.6-16.9
	c25.7-5.1,52.4-9.5,79.7-12.8c3.4-0.4,6.8-0.8,10.3-1.2c1.7-0.2,3.4-0.4,5.1-0.6c1.7-0.2,3.4-0.4,5.2-0.6c3.4-0.3,6.9-0.6,10.4-1
	c1.7-0.2,3.5-0.3,5.2-0.5l2.6-0.2c0.9-0.1,1.7-0.1,2.6-0.2c3.5-0.3,6.9-0.5,10.4-0.8c1.7-0.1,3.5-0.3,5.2-0.4l2.6-0.2l2.6-0.1
	c7-0.4,14-0.7,21-1.1c27.9-1.1,55.9-1.2,83.4-0.5c27.5,0.7,54.5,2.3,80.6,4.6c26.1,2.2,51.3,5.2,75,8.5c23.8,3.3,46.2,7.1,66.8,10.9
	c20.6,3.9,39.4,7.9,56,11.7c16.6,3.8,31,7.5,42.8,10.6c3.6,1,6.9,1.9,10.1,2.7V746.6z"/>
<g>
	<path class="st4" d="M461,754.1c0.6,0.2,0.9-0.7,0.3-0.9C460.8,753,460.5,753.9,461,754.1L461,754.1z"/>
</g>
<g>
	<path class="st4" d="M465.9,749.3c0-0.3,0.1-0.6,0.1-0.8c0-0.5-0.1-1-0.3-1.5c-0.3-0.7-0.9-1.2-1.7-1.5c-0.5-0.2-1-0.2-1.5-0.1
		c-0.7,0.1-1.5,0.6-1.8,1.2c-0.1,0.2-0.3,0.5-0.4,0.7c-0.4,0.7-0.7,1.5-0.5,2.4c0.2,1.1,1,2,2,2.3c0.8,0.3,1.6,0.2,2.4-0.1
		c0.5-0.2,0.9-0.6,1.2-1C465.7,750.4,465.9,749.9,465.9,749.3L465.9,749.3z"/>
</g>
<path class="st2" d="M-126.6,769c3.5-1.8,6.6-3.4,9.2-4.6c20.2-9.6,53-18.6,59.3-25.4c5.6-6.1,61.3-23.9,71.2-26.4
	c-125.4,15-213,36.4-273.6,56.5H-126.6z"/>
<g>
	<path class="st0" d="M-180.3,769c1.4-0.5,2.9-1.1,4.2-1.6c4.3-1.7,8.6-3.2,13-4.8c9.1-3.3,18.3-6.6,27.6-9.6
		c18.7-6.1,37.6-11.1,56.9-15c38.5-7.8,77.6-12.2,116.8-8.6c19.1,1.8,38.2,4.8,57.1,8.3c9.6,1.8,19.1,3.7,28.6,5.7
		c9.6,2,19.4,4.5,29.3,4.8c1.1,0,1.5-1.5,0.4-1.9c-9.6-3.4-20-4.9-30-6.9c-10.1-2-20.3-4-30.5-5.6c-20.2-3.2-40.3-6.5-60.7-8.1
		c-19.4-1.5-38.8-0.8-58.2,0.8c-19.5,1.6-38.9,4.5-58.1,8.1c-19,3.6-37.6,8.3-55.9,14.6c-9,3.1-17.9,6.3-26.7,10.1
		c-4,1.7-7.9,3.6-11.9,5.5c-2.7,1.3-5.4,2.5-7.8,4.2H-180.3z"/>
</g>
<path class="st0" d="M-37.5,722.1c-4.7,0.3-9.5,0.5-14.2,0.9c-4.7,0.4-9.4,0.8-14.1,1.3c-9.4,1-18.6,2.6-27.8,4.6
	c-9.5,2.1-18.7,5-27.7,8.7c-9.1,3.7-17.9,8.2-27,11.8c-1.1,0.4-2.2,0.9-3.3,1.3c-0.6,0.2-1.1,0.4-1.6,0.6c-0.3,0.1-0.5,0.2-0.8,0.3
	c-0.1,0-0.7,0.2-0.7,0.3c-2.1,0.7-4.3,1.2-6.5,1.6c-2.2,0.4-4.5,0.7-6.7,0.9c-2.2,0.2-4.5,0.4-6.7,0.8c-3.7,0.7-7.5,1.4-11.2,2.3
	l-1.4,3.9c0.2,0,0.4-0.1,0.6-0.1c4.5-0.9,9.2-0.5,13.8-0.8c4.5-0.3,9-0.8,13.4-1.7c4.8-1,9.3-2.7,13.7-4.6c9-3.9,17.6-8.7,26.6-12.8
	c8.7-4,17.7-7.4,26.9-9.9c9.1-2.4,18.5-3.8,27.8-5.1c4.5-0.6,9-1.1,13.5-1.6c4.6-0.5,9.2-1.2,13.8-1.7
	C-36.7,722.9-36.9,722.1-37.5,722.1z"/>
<g>
	<path class="st0" d="M-167.9,749.1c2.9-0.7,5.8-1.3,8.8-2c3-0.7,6-1.6,9-2.6c3-0.9,6-2,8.9-3.1c1.4-0.6,2.8-1.1,4.1-1.8
		c1.4-0.7,2.8-1.2,4.1-2.1c0.4-0.3,0-0.8-0.4-0.7c-1.5,0.2-2.9,0.7-4.3,1.1c-1.5,0.4-2.9,0.8-4.3,1.2c-3,0.9-6,1.8-8.9,2.7
		c-2.9,0.9-5.9,1.8-8.7,2.9c-2.9,1.1-5.7,2.2-8.6,3.4C-168.8,748.3-168.5,749.3-167.9,749.1L-167.9,749.1z"/>
</g>
<g>
	<path class="st0" d="M-123.5,733.3c5.7-1.7,11.6-2.5,17.1-4.9c0.3-0.1,0.1-0.6-0.2-0.5c-5.9,1.1-11.5,2.9-17.1,4.8
		C-124,732.8-123.8,733.4-123.5,733.3L-123.5,733.3z"/>
</g>
<g>
	<path class="st0" d="M-141.3,735.3c2.8-1.2,5.7-2.1,8.7-2.9c2.9-0.7,5.8-1.4,8.6-2.5c0.5-0.2,0.2-0.9-0.3-0.9c-3,0.2-6,1-8.8,1.9
		c-2.9,1-5.8,2.2-8.5,3.6C-142.1,734.8-141.8,735.5-141.3,735.3L-141.3,735.3z"/>
</g>
<g>
	<path class="st0" d="M-50.2,717.9c18.2-2.5,36.6-3.8,55-3.3c1.1,0,2.3,0.1,3.4,0.1c0.3,0,0.4-0.5,0-0.5
		c-18.3-1.7-36.7-0.3-54.8,2.1c-1.3,0.2-2.6,0.3-3.8,0.5C-51.1,716.9-50.9,718-50.2,717.9L-50.2,717.9z"/>
</g>
<g>
	<path class="st0" d="M-74.9,720.4c5.9-1.5,12.1-1.5,18.1-2.5c0.3-0.1,0.3-0.5,0-0.5c-6.1-0.1-12.5,0.5-18.3,2.6
		C-75.3,720-75.1,720.5-74.9,720.4L-74.9,720.4z"/>
</g>
<g>
	<path class="st0" d="M111.9,723.3c16.1,2.8,32.3,5.1,48.4,7.5c0.3,0,0.4-0.4,0.1-0.5c-15.9-3.8-32.3-5.4-48.5-7.6
		C111.5,722.6,111.5,723.2,111.9,723.3L111.9,723.3z"/>
</g>
<g>
	<path class="st0" d="M97.4,722.5c1.2,0.5,2.5,0.7,3.8,0.9c1.4,0.2,2.9,0.3,4.3,0.2c0.3,0,0.3-0.5,0-0.5c-1.2-0.4-2.5-0.3-3.8-0.3
		c-1.4,0-2.9-0.1-4.3-0.4C97.3,722.1,97.2,722.4,97.4,722.5L97.4,722.5z"/>
</g>
<g>
	<path class="st1" d="M-3.3,738.3c9.6,0.2,19.1-0.2,28.7-0.3c9.5-0.2,19-0.1,28.5,0.4c19,1,37.9,3.6,56.6,6.5
		c6.9,1.1,13.8,2.4,20.8,3c0.7,0.1,1-1.1,0.3-1.3c-4.6-1.4-9.4-2.2-14.1-3.1c-4.7-0.9-9.4-1.6-14.1-2.4c-9.4-1.5-18.8-2.6-28.2-3.4
		c-9.5-0.9-19.1-1.2-28.6-1.3c-9.5-0.1-19,0.5-28.6,0.8c-7.1,0.2-14.2,0.4-21.3,0.3C-3.7,737.4-3.8,738.3-3.3,738.3L-3.3,738.3z"/>
</g>
<g>
	<path class="st1" d="M-54.9,745.5c4.6-1.1,9.2-1.6,13.8-2c2.3-0.2,4.6-0.4,6.9-0.8c2.4-0.3,4.7-0.9,7-1.5c0.5-0.1,0.3-0.8-0.1-0.7
		c-2.3,0.3-4.6,0.5-6.8,0.8c-2.3,0.3-4.6,0.5-6.9,0.8c-4.7,0.5-9.4,1.3-14,2.6C-55.6,744.8-55.4,745.6-54.9,745.5L-54.9,745.5z"/>
</g>
<g>
	<path class="st4" d="M-76.3,767.5c1,0.5,1.9,1,2.9,1.5h8.4c-0.4-0.2-0.9-0.5-1.3-0.7c-2.5-1.2-5.2-2.4-7.4-3.6
		c-1.2-0.7-2.5-1.4-3.6-2.3c-0.2-0.2-0.5-0.4-0.7-0.6c0,0,0,0,0,0c0,0-0.1-0.1-0.1-0.1c-0.1-0.1-0.2-0.2-0.4-0.4
		c0,0-0.1-0.1-0.1-0.1c5-5.3,11.9-8.9,18.6-11.8c7.9-3.4,16-6.3,24.1-9.3c5.5-2,11-4.1,16.1-6.9c0.6-0.3,0.2-1-0.4-0.8
		c-8.9,3-18,5.7-26.9,8.8c-7.8,2.6-15.6,5.1-22.9,9c-4.7,2.5-9.2,5.7-12.7,9.8c-0.4,0.5-0.5,1.4-0.2,1.9
		C-81.2,764.4-78.8,766.1-76.3,767.5z"/>
</g>
<g>
	<path class="st5" d="M-95.4,756.5c2.9-3.2,6.8-5,10.6-6.8c4.3-2,8.7-3.4,13.2-4.9c4.5-1.5,8.9-3,13.3-4.7c4.3-1.6,8.5-3.5,12.8-5.1
		c8.5-3.1,17.3-5.3,26.2-6.7c2.2-0.3,4.4-0.5,6.6-0.9c2-0.3,4-0.6,6-0.8c4.2-0.4,11.5-2.7,15.7-3.1c5.1-0.4-4.4,0.4-12.6,1
		c-4.2,0.3-8.3,0.9-12.4,1.4c-4.5,0.6-8.9,1.3-13.3,2.3c-4.4,1-8.7,2.2-13,3.6c-4.3,1.4-8.5,3.2-12.8,4.8c-8.8,3.4-17.9,6-26.7,9.4
		c-5.4,2.1-10.7,5.2-14.3,9.7C-96.2,756.4-95.7,756.8-95.4,756.5L-95.4,756.5z"/>
</g>
<path class="st4" d="M191.8,722.2c6.1,1.5,12.2,3.4,18.2,5c8.9,2.4,17.6,5.6,26.5,8.4c3.2,1,6.3,2,9.4,3.2c0.7,0.3,1.4,0.6,2.1,0.9
	c0.3,0.1,0.6,0.3,0.9,0.4c0.2,0.1,0.4,0.2,0.6,0.3c0.6,0.3,1.2,0.7,1.7,1.1c0.3,0.2,0.5,0.4,0.8,0.6c0.1,0.1,0.2,0.2,0.3,0.3
	c0,0,0,0,0,0c0.3,0.3,0.6,0.6,0.9,0.9c0.1,0.1,0.2,0.3,0.3,0.4c0.1,0.1,0.1,0.2,0.1,0.3c0,0.2,0.1,0.3,0.1,0.5c0,0.1,0,0.1,0,0.2
	c0,0.1,0,0.4-0.1,0.5c0,0,0,0,0,0c0,0.1-0.1,0.3-0.1,0.4c0,0.1,0,0.1,0,0.2c-0.1,0.3-0.2,0.6-0.3,0.9c-0.1,0.2-0.6,1.1-0.2,0.4
	c-0.6,0.9-1.1,1.8-1.8,2.7c-1.5,1.7-3.5,3.3-5.4,4.8c-2,1.5-4,2.8-6.1,4.2c-0.4,0.3-0.9,0.6-1.3,0.9c-0.5,0.3-0.9,0.4-1.5,0.7
	c-1.1,0.5-2.2,1-3.3,1.5c-0.4,0.1-0.6,0.4-1,0.5c-0.9,0.3-1.8,0.6-2.6,1.1c-1.7,0.9-3.4,1.7-5.1,2.6c-2.1,1.1-4.2,2.1-6.3,3.1h13.1
	c0.2-0.2,0.4-0.4,0.7-0.6c1.1-0.8,2.3-1.5,3.6-2.1c1.3-0.7,2.7-1.3,4.1-1.9c1.2-0.6,2.2-1.4,3.3-2.1c4.2-2.9,8.5-5.8,11.9-9.5
	c0.7-0.8,1.3-1.5,2.1-2.4c0.1-0.1,0.5-0.6,0,0c0.3-0.2,0.5-0.5,0.7-0.8c0.2-0.3,0.4-0.6,0.6-0.9c1-1.6,1.2-3.2,1-5
	c-0.3-2.8-2.7-5.2-5-6.8c-2.7-1.8-5.8-3.1-8.9-4.1c-3.1-1-6.3-1.9-9.5-2.7c-3.5-0.9-6.8-2-10.2-3.1c-3-0.9-6.1-1.8-9.2-2.5
	c-1.5-0.4-3-0.7-4.4-1.1c-1.6-0.4-3.3-0.9-5-1.1c-6.1-0.9-12.2-2.3-18.3-3.2c-8.2-1.3-16.3-2.8-24.5-3.9c-4-0.5-22.6-1-26.5-1.4
	c-0.6-0.1,25,3.2,36.3,5.1C180.3,719.8,186.1,720.8,191.8,722.2z"/>
<g>
	<path class="st0" d="M216.2,725.6c0-0.1,0-0.2-0.1-0.3c-0.2-0.6-0.8-1.1-1.4-1.1c-0.7,0-1.2,0.4-1.4,1.1c0,0.1,0,0.2-0.1,0.3
		c-0.3,1,0.5,1.9,1.5,1.9C215.8,727.6,216.5,726.6,216.2,725.6L216.2,725.6z"/>
</g>
<g>
	<path class="st0" d="M191.6,724.8c1.6,0,1.6-2.5,0-2.5C190,722.3,190,724.8,191.6,724.8L191.6,724.8z"/>
</g>
<g>
	<path class="st7" d="M161.9,754.1c-0.1,0.1-0.1,0.2-0.2,0.3C162,754,162,753.9,161.9,754.1z"/>
	<path class="st7" d="M190.4,744.7C190.7,744.7,190.6,744.7,190.4,744.7L190.4,744.7z"/>
	<path class="st7" d="M-27.5,739.6c2.5-0.8,5-1.4,7.6-1.8c2.6-0.4,5.1-0.8,7.7-1.1c5.1-0.5,10.4-0.6,15.6-0.5c2.9,0,5.7,0.1,8.6,0.1
		c2.8-0.1,5.6-0.2,8.4-0.3c5.6-0.3,11.2-0.7,16.8-1.3c5.5-0.5,10.9-1.1,16.5-1.1c4,0,7.9,0.1,11.9,0.4c-2.9,0.5-5.8,1.2-8.6,1.8
		c-0.1,0-0.2,0.1-0.4,0.1c-0.7,0-1.4,0.1-2,0.1c-4.4,0.4-8.8,1.1-13.2,1.9c-4.2,0.8-8.2,1.9-12.4,2.8c-1.4,0.3-2.9,0.7-4.3,1
		c-2.2,0.4-4.5,0.9-6.6,1.6c-1.3,0.4-2.7,0.9-4,1.4c-0.3,0.1-0.6,0.2-1,0.4c-3.8,1.2-7.5,2.4-11.3,3.5c-1.6,0.5-3.1,0.9-4.6,1.6
		c-1,0.4-2,0.8-3,1.2c-2.6,1.1-5.1,2.2-7.5,3.5c-2.3,1.3-4.8,2.9-5.9,5.4c-1.1,2.6,0.7,4.9,2.6,6.4c1.1,0.9,2.4,1.6,3.7,2.3H6.4
		c-0.2-0.2-0.5-0.3-0.7-0.4c-0.5-0.3-0.9-0.7-1.4-1.1c0,0-0.1-0.1-0.1-0.1c-0.1-0.1-0.2-0.2-0.2-0.2c-0.2-0.2-0.5-0.5-0.7-0.7
		c-0.2-0.2-0.3-0.4-0.5-0.6c-0.1-0.1-0.1-0.2-0.2-0.3c0,0,0,0,0,0c-0.3-0.5-0.5-1-0.8-1.5c-0.1-0.2-0.2-0.5-0.3-0.7
		c0-0.1-0.1-0.2-0.1-0.3c-0.2-0.5-0.2-1.1-0.3-1.6c0-0.1,0-0.2,0-0.3c0-0.3,0-0.5,0-0.8c0-0.2,0-0.3,0-0.5c0,0,0.1-0.6,0.2-0.7
		c0-0.1,0.2-0.4,0.2-0.5c0.1-0.2,0.2-0.3,0.3-0.5c0.2-0.2,0.3-0.5,0.5-0.7c0.1-0.1,0.2-0.2,0.3-0.3c0,0,0.1-0.1,0.1-0.1
		c2.2-2.2,4.4-3.6,6.9-5c2.8-1.5,5.7-2.8,8.6-4c1.1-0.5,2.3-1,3.3-1.5c2.3-0.8,4.6-1.5,6.9-2.2c2.6-0.3,5.2-0.6,7.8-0.8
		c5.3-0.5,10.5-1.2,15.7-2c-0.6,0.3-1.1,0.6-1.7,0.8c-3.1,1.5-6.4,2.9-9.4,4.7c-1.6,0.9-3.2,1.9-4.7,3c-0.7,0-1.4,0.1-1.9,0.2
		c-1.6,0.3-3.2,0.6-4.7,1.1c-3,1-5.9,2.8-7.2,5.8c-0.6,1.5,0.4,2.9,1.7,3.5c0.3,0.2,0.6,0.3,0.9,0.4c-0.3,0.5-0.6,1-0.8,1.5
		c-1.3,1.4-2,3.2-1.2,5.3c0.2,0.5,0.5,1,0.8,1.4H33c-0.9-0.4-1.8-0.9-2.7-1.5c-0.1-0.1-0.1-0.1-0.2-0.2c0,0-0.2-0.4-0.3-0.5
		c0-0.1-0.1-0.1-0.1-0.2c0,0.1-0.1-0.2-0.1-0.3c-0.2-0.7-0.2-0.8-0.1-1.5c0.1-0.4,0.5-1.2,0.9-1.7c0.4-0.4,0.8-0.7,1.2-1.1
		c1,0.1,2,0.1,3,0c0.1,0.1,0.2,0.2,0.3,0.3c1.3,0.9,2.7,1.1,4.1,1.7c1.3,0.6,2.9,0.9,4.3,1.4c2.7,0.9,5.5,1.7,8.4,2.3
		c1.7,0.4,3.4,0.8,5.1,1.3h54.5c1.9-0.5,3.8-1.1,5.7-1.6c2.6-0.7,5.2-1.4,7.8-2.1c5.4-1.4,10.9-2.7,16.3-3.9
		c2.3-0.5,4.5-1.1,6.8-1.3c1.9-0.2,3.7-0.4,5.5-0.8c2.1-0.4,4.1-1.1,5.9-2.3c0.8-0.5,1.4-1.2,1.9-2c0.1-0.1,0.1-0.2,0.2-0.3
		c0.1-0.3,0.2-0.4,0.3-0.5c0.1-0.3,0.3-0.6,0.4-0.9c1.7-5.4-4.2-8.8-8.3-10.5c-5.6-2.3-11.7-3.5-17.6-4.7c-2.6-0.5-5.1-0.9-7.7-1.3
		c-0.9-0.1-1.9-0.3-2.8-0.4c-0.3-0.1-0.7-0.1-1-0.2c-0.3-0.1-1.5-0.3-0.1,0c-5.8-1.2-11.6-2.2-17.5-2.6c-2.7-0.2-5.5-0.3-8.2-0.5
		c-0.9-0.1-1.8-0.3-2.7-0.5c-1.2-0.2-2.5-0.2-3.7-0.2c-1.6-0.1-3.2,0-4.8,0c-9.5-0.8-18.9-2.1-28.4-2.4c0.1,0,0.2,0,0.2,0
		c2.8,0,5.6-0.3,8.5-0.4c3-0.1,5.9-0.3,8.9-0.4c4.9-0.2,9.7-0.3,14.6-0.2c2,0.1,4.1,0.3,6.1,0.5c4.5,0.4,9,0.5,13.6,0.8
		c4.5,0.3,9,0.8,13.5,1.5c4,0.6,7.8,1.6,11.7,2.5c4.3,1,8.5,2.4,12.9,3.2c0.2,0,0.5,0.1,0.7,0.1c0,0.2,0.1,0.4,0.4,0.5
		c2.5,1.2,5.3,1.7,8,2.2c3.2,0.7,6.4,1.4,9.5,2.5c3.1,1,6.1,2.2,9,3.6c0.2,0.1,0.2,0.1,0.1,0.1c0.3,0.1,0.5,0.3,0.8,0.4
		c0.4,0.2,0.4,0.2,0.8,0.4c0.6,0.3,1.2,0.7,1.8,1.1c0.8,0.5,1.6,1.2,2.4,1.7c-0.7,1.7-3.5,2.7-5,3.3c-2.4,0.9-5,1.4-7.4,2.1
		c-0.6,0.2-0.5,1.1,0.2,1c2.8-0.5,5.6-0.9,8.3-1.8c1.3-0.4,2.6-1,3.8-1.8c1.1-0.8,2-1.7,2.9-2.7c0.3-0.4,0.3-1,0.1-1.4
		c-0.5-1.3-1.9-2.4-3-3.3c-1.2-0.9-2.6-1.7-4-2.4c-1.2-0.6-2.5-1.1-3.8-1.5c0,0,0.1,0,0.1,0c0,0,0.2,0,0.4,0.1
		c0.3,0.1,0.6,0.1,0.9,0.2c2.8,0.7,5.6,1.1,8.4,1.7c0.4,0.1,0.7,0.1,1.1,0.2c0.1,0,0.2,0,0.3,0.1c0.1,0,0.2,0,0.2,0
		c1,0.2,1.9,0.4,2.9,0.6c0.4,0.1,0.7,0.1,1.1,0.2c0,0,0.1,0,0.2,0c-0.1,0-0.1,0-0.2-0.1c0.2,0.1,0.3,0.1,0.5,0.1
		c0.7,0.2,1.4,0.4,2.1,0.7c0.6,0.2,1.2,0.5,1.8,0.7c0.1,0.1,0.3,0.1,0.4,0.2c0.3,0.2,0.6,0.3,0.9,0.5c0.2,0.1,0.5,0.3,0.7,0.5
		c0.1,0.1,0.2,0.1,0.2,0.2c0.2,0.2,0.3,0.3,0.5,0.5c0.1,0.1,0.1,0.2,0.2,0.3c0,0,0,0,0,0c0.1,0.1,0.1,0.2,0.2,0.3
		c0,0,0.1,0.4,0.1,0.5c0,0,0,0,0,0c0,0.1,0,0.2,0,0.3c0,0,0,0,0,0.1c0,0.1-0.1,0.3-0.1,0.3c-0.1,0.2-0.2,0.4-0.2,0.6
		c-0.1,0.1-0.1,0.2-0.2,0.3c-0.1,0.2-0.3,0.4-0.5,0.6c0,0-0.1,0.1-0.1,0.1c0,0-0.2,0.2-0.3,0.3c-0.4,0.4-0.9,0.8-1.3,1.1
		c-0.2,0.2-0.5,0.4-0.8,0.5c0,0,0,0,0,0c0,0,0,0-0.1,0c-0.2,0.1-0.4,0.2-0.6,0.3c-1.3,0.7-2.6,1.4-3.9,1.9c-2.8,1.2-5.5,1.9-8.5,2.7
		c-2.4,0.6-4.9,1.1-7.3,1.7c-1.9,0.4-3.7,0.8-5.6,1.2c-2.4,0.5-4.7,0.7-7.1,1.1c-4.7,0.7-9.5,1-14.2,1.6c-4.7,0.5-9.3,1.3-13.9,2
		c-4.6,0.7-9.2,1.3-13.8,2c-2,0.3-4.1,0.6-6.1,0.9h34c1.6-0.3,3.1-0.6,4.7-0.8c4.7-0.9,9.3-1.9,14-2.7c6.2-1.1,12.5-2.4,18.5-4.1
		c3.2-0.9,6-1.7,9-3c2.6-1.1,5.1-2.6,6.9-4.7c1.7-2.1,2.3-4.8,1.3-7.4c-0.1-0.2-0.2-0.4-0.2-0.5c1.7,0.6,3.4,1.4,4.9,2.4
		c0.8,0.5,1.6,1.2,2,1.9c0.2,0.4,0.4,0.7,0.4,1c0,0.3,0,0.8,0,1c-0.7,3-4.5,4.4-7,5.4c-3.5,1.4-7.1,2.4-10.6,3.6
		c-4.8,1.7-9.5,3.7-14.4,5.2c-3.1,0.9-6.3,1.8-9.4,2.6h9c2-0.6,4.1-1.2,6.1-1.9c4.5-1.6,8.9-3.4,13.4-4.9c3.5-1.2,7-2.2,10.2-4
		c2.4-1.3,5.2-3.5,5-6.6c-0.1-2.1-1.6-3.9-3.4-5.1c-2.2-1.5-4.8-2.5-7.4-3.4c-0.5-0.2-1.1-0.3-1.6-0.5c-0.9-0.6-2-1.2-2.9-1.7
		c-1.3-0.6-2.7-1.1-4-1.6c-1.4-0.6-2.9-1-4.4-1.3c-2.9-0.7-5.7-1.2-8.6-1.7c-0.1,0-0.2,0-0.3-0.1c-0.2-0.1-0.5-0.1-0.7-0.2
		c-1.3-0.3-2.7-0.5-4.1-0.8c-2.3-0.4-4.6-0.8-7-1.1c-4.8-0.7-9.6-1-14.4-1.5c-1.2-0.1-2.4-0.3-3.5-0.4c-1.4-0.2-2.2-0.5-3.4-0.7
		c-2-0.4-4.1-0.8-6.1-1.2c-2-0.4-3.7-0.7-5.8-1c-2-0.3-4-0.6-6.1-0.8c-9-0.9-18.1-1-27.1-1.5c-2.5-0.1-4.9-0.4-7.4-0.5
		c-2-0.1-4,0-6,0c-5.6,0.1-11.3,0.5-16.9,0.8c-2.9,0.2-5.7,0.4-8.6,0.6c-2.4,0.2-4.9,0.6-7.3,0.8c-1.9,0.2-3.7,0.4-5.6,0.7
		c-0.3,0.1-0.4,0.3-0.4,0.5c-8,0.5-16,1.5-23.9,2.2c-5.6,0.5-11.2,0.9-16.8,1c-3.4,0.1-6.8,0.2-10.1,0.4c2.3-0.5,4.6-0.9,6.9-1.3
		c4.4-0.8,8.9-1.4,13.4-1.8c4.4-0.4,8.8-1,13-2.1c2.2-0.6,4.3-1.3,6.5-1.8c2.2-0.5,4.5-1,6.7-1.4c1.5-0.3,3.1-0.5,4.7-0.9
		c1.6-0.4,3.3-0.7,4.9-0.9c3.2-0.4,6.4-0.6,9.6-1c0.3,0,0.2-0.4,0-0.5c-4.6-0.6-9.2-0.1-13.8,0.1c-4.6,0.2-9.2,1-13.7,1.7
		c-2.2,0.3-4.5,0.5-6.7,0.8c-2.1,0.3-4.3,0.8-6.4,1.3c-4.3,1.1-8.6,2.4-13,3.2c-6.3,1.2-12.6,2.6-18.6,5c0,0-0.1,0-0.1,0
		c-3,0.4-6,0.8-9,1.4c-3.1,0.7-6.2,1.8-9.2,3.1C-28.4,739.1-28,739.8-27.5,739.6z M-6.7,765.4c-0.6-0.3-1.2-0.6-1.8-0.9
		c-0.3-0.1-0.6-0.3-0.9-0.4c-0.1-0.1-0.3-0.1-0.4-0.2c0,0,0,0,0,0c-1.1-0.5-2.1-1.1-3.1-1.8c-0.1-0.1-0.3-0.2-0.4-0.3c0,0,0,0,0,0
		c0.4-0.4,0.9-0.8,1.4-1.1c0.2-0.2,0.5-0.3,0.7-0.5c0,0,0,0,0.1,0c0.1-0.1,0.2-0.1,0.3-0.2c0.6-0.4,1.2-0.7,1.9-1.1
		c2.3-1.2,4.6-2.3,6.9-3.4c-1.1,1.6-1.8,3.4-1.8,5.6c0,2.5,0.9,4.8,2.5,6.6C-3.2,767-4.9,766.2-6.7,765.4z M77,737.7
		c1.5,0,3,0,4.5,0c3.2,0,6.4-0.2,9.5-0.5c0.3,0,0.7-0.1,1-0.1c3.7,0.5,7.4,1,11.1,1.4c-0.3,0-0.6,0-1,0c-5.4,0.1-10.8,0.8-16.2,1.3
		c-5.5,0.6-11,1.5-16.4,2.8c-1.3,0.3-2.6,0.7-4,1c-0.7,0.2-1.3,0.4-2,0.5c-0.3,0.1-0.7,0.2-1,0.3c-0.2,0-0.6,0.2-0.9,0.3
		c0,0,0.1,0,0.1,0c-1.5,0.5-3.1,0.9-4.6,1.3c-0.4,0.1-0.9,0.2-1.3,0.3c-0.4,0.1-0.7,0.2-1.1,0.3c0.6-0.2-0.1,0-0.2,0
		c-1,0.3-2,0.6-3,0.9c-1.5,0.4-2.9,0.9-4.3,1.3c-1.2,0-2.4,0.1-3.5,0.3c-1.1,0.2-2.3,0.5-3.3,0.9c1-0.6,1.9-1.2,2.9-1.8
		c3-1.7,6.1-3.2,9.1-4.9c2.4-1.3,4.8-2.5,7.3-3.6c1.4-0.2,2.7-0.5,4.1-0.7c3-0.5,6.1-1,9.1-1.4C74.1,737.7,75.5,737.7,77,737.7z"/>
	<path class="st7" d="M197.9,749.2C197.9,749.4,197.8,749.6,197.9,749.2L197.9,749.2z"/>
	<path class="st7" d="M92.6,744.1c0,0,0.1,0,0.1,0c0,0,0.1,0,0.1,0C92.7,744.1,92.6,744.1,92.6,744.1z"/>
	<path class="st7" d="M38.7,756.6C38.7,756.6,38.7,756.6,38.7,756.6C38.7,756.6,38.7,756.7,38.7,756.6c0,0.1-0.1,0.1-0.1,0.1
		C38.6,756.7,38.6,756.7,38.7,756.6z"/>
	<path class="st7" d="M80.2,746.4C80.2,746.4,80.3,746.5,80.2,746.4c-0.2,0.1-0.4,0.1-0.7,0.1c0,0-0.1,0-0.1,0
		C79.7,746.5,80,746.4,80.2,746.4z"/>
	<path class="st7" d="M-13.8,761.4C-13.9,761.2-13.9,761.1-13.8,761.4C-13.8,761.4-13.8,761.4-13.8,761.4z"/>
	<path class="st7" d="M-13.8,761.4L-13.8,761.4c0-0.1,0-0.1-0.1-0.2C-13.9,761.2-13.8,761.3-13.8,761.4z"/>
	<path class="st7" d="M2.6,765.6C2.8,765.8,2.7,765.7,2.6,765.6L2.6,765.6z"/>
	<path class="st7" d="M-36.4,769c-0.3-0.8-0.4-1.6-0.5-2.4c0-1.4,0.4-2.7,1.2-4c0.5-0.8,0.9-1.3,1.4-1.7c0.7-0.7,1.4-1.3,2.1-1.9
		c1.4-1.3,3-2.6,4.5-3.8c0.7-0.6,1.5-1.1,2.3-1.7c0,0,0.1,0,0.1,0c0,0,0.1,0,0.1-0.1c0.2-0.1,0.4-0.2,0.6-0.3
		c0.4-0.2,0.8-0.4,1.2-0.7c1.3-0.8,2.7-1.5,4.1-2.3c1.5-0.9,3.1-1.7,4.7-2.5c3.4-1.6,6.8-3.1,10.4-4.2c3-0.9,6.2-1.8,9.4-1.7
		c0.6,0,0.6-0.8,0.1-0.9c-3-0.5-6.2-0.3-9.3,0.1c-3.7,0.5-7.2,1.5-10.8,2.5c-3.2,0.9-6.7,2.2-9.9,3.8c-3.6,1.9-6.9,3.8-9.5,7
		c-1.3,1.7-2.4,3.5-3.5,5.3c-1.1,1.8-1.9,3.9-2,6c-0.1,1.2,0.2,2.3,0.6,3.4H-36.4z"/>
	<path class="st8" d="M188.8,745.7c-2.3-0.9-4.7-1.8-7.1-2.4c-2.3-0.5-4.7-0.8-7-1.1c0,0,0,0-0.1,0c-4.7-1.8-9.5-2.9-14.5-3.8
		c-3.4-0.6-6.8-1.6-10.1-2.5c-1.6-0.4-3.3-0.8-5-1c-1.7-0.2-3.5-0.3-5.2-0.6c-3.5-0.5-7.1-1.1-10.7-1.3c-3.6-0.1-7.2-0.5-10.7-0.1
		c-0.2,0-0.2,0.3,0,0.4c2.5,0.3,5,0.4,7.5,0.7c1.3,0.2,2.6,0.4,3.8,0.7c1.2,0.3,2.4,0.4,3.6,0.7c1.8,0.3,3.5,0.7,5.3,1.1
		c1.7,0.4,3.4,0.9,5.1,1.3c3.3,0.9,6.7,1.3,10.1,1.6c3.5,0.3,6.9,0.7,10.4,1.3c1.8,0.3,3.6,0.6,5.4,1c-2.6-0.1-5.3-0.2-7.9-0.3
		c-4.4-0.1-8.7-0.4-13-0.8c-6.2-0.5-12.4-1.3-18.6-1.7c0-0.2-0.1-0.3-0.3-0.4c-1.4-0.3-2.9-0.4-4.3-0.5c-1.9-0.2-3.8-0.5-5.7-0.6
		c-2.2-0.2-4.5-0.3-6.7-0.5c-4.4-0.3-8.8-0.5-13.1-0.6c-1.6,0-3.1-0.1-4.7,0c-1.9,0.1-3.8,0.3-5.8,0.4c-7,0.4-14.1,0.5-21.1,1.2
		c-1.6,0.2-3.2,0.4-4.7,0.6c-1.7,0.3-3,0.5-4.5,0.8c-1.6,0.3-3.2,0.7-4.7,1c-0.9,0.2-1.6,0.4-2.7,0.6c-0.9,0.1-1.8,0.2-2.8,0.3
		c-3.7,0.4-7.5,0.7-11.2,1.2c-1.8,0.3-3.6,0.5-5.4,0.9c-1.1,0.2-2.1,0.4-3.2,0.6c-0.2,0-0.4,0.1-0.5,0.1c-0.1,0-0.1,0-0.2,0
		c-2.2,0.5-4.5,0.9-6.7,1.4c-1.2,0.3-2.3,0.6-3.4,1.1c-1,0.4-2.1,0.8-3.1,1.3c-0.8,0.4-1.5,0.8-2.3,1.3c-0.4,0.1-0.9,0.3-1.3,0.4
		c-2,0.7-4,1.4-5.7,2.6c-1.4,1-2.5,2.4-2.6,4c-0.1,2.4,2,4.1,3.9,5.1c2.5,1.4,5.3,2.2,8,3.1c3.5,1.2,6.9,2.6,10.4,3.8
		c1.6,0.5,3.1,1,4.7,1.4l7,0c-2.5-0.6-4.9-1.3-7.3-2c-3.8-1.1-7.4-2.7-11.2-4c-2.8-0.9-5.6-1.7-8.3-2.8c-2-0.8-4.9-1.9-5.5-4.2
		c0-0.2,0-0.6,0-0.8c0-0.3,0.1-0.5,0.3-0.8c0.3-0.5,0.9-1.1,1.5-1.5c1.2-0.8,2.5-1.4,3.8-1.9c-0.1,0.1-0.1,0.3-0.2,0.4
		c-0.7,2-0.3,4.1,1,5.7c1.4,1.7,3.4,2.8,5.4,3.7c2.4,1,4.5,1.6,7,2.3c4.7,1.3,9.6,2.3,14.4,3.1c3.6,0.6,7.3,1.4,10.9,2
		c1.2,0.2,2.4,0.4,3.7,0.6l26.4-0.1c-1.6-0.2-3.2-0.4-4.8-0.7c-3.6-0.5-7.2-1-10.8-1.5c-3.6-0.5-7.2-1.1-10.8-1.5
		c-3.7-0.4-7.4-0.6-11-1.2c-1.8-0.3-3.7-0.5-5.5-0.8c-1.5-0.3-2.9-0.6-4.4-0.9c-1.9-0.4-3.8-0.8-5.7-1.3c-2.4-0.6-4.5-1.2-6.6-2.1
		c-1-0.4-2.1-0.9-3-1.5c-0.1-0.1-0.3-0.2-0.4-0.3c0,0,0,0,0,0c0,0,0,0,0,0c-0.2-0.1-0.4-0.3-0.6-0.4c-0.4-0.3-0.7-0.6-1-0.9
		c0,0-0.2-0.2-0.2-0.2c0,0,0-0.1-0.1-0.1c-0.1-0.2-0.2-0.3-0.4-0.5c-0.1-0.1-0.1-0.2-0.1-0.2c-0.1-0.2-0.1-0.3-0.2-0.5
		c0-0.1-0.1-0.2-0.1-0.3c0,0,0,0,0,0c0-0.1,0-0.1,0-0.2c0,0,0,0,0,0c0-0.1,0.1-0.4,0.1-0.4c0-0.1,0.1-0.2,0.1-0.3c0,0,0,0,0,0
		c0.1-0.1,0.1-0.1,0.2-0.2c0.1-0.1,0.2-0.3,0.4-0.4c0.1-0.1,0.1-0.1,0.2-0.1c0.2-0.1,0.3-0.3,0.5-0.4c0.2-0.1,0.4-0.3,0.7-0.4
		c0.1,0,0.2-0.1,0.3-0.1c0.5-0.2,0.9-0.4,1.4-0.6c0.5-0.2,1.1-0.4,1.7-0.5c0.1,0,0.3-0.1,0.4-0.1c-0.1,0-0.1,0-0.2,0
		c0.1,0,0.1,0,0.1,0c0.3-0.1,0.5-0.1,0.8-0.1c0.8-0.1,1.5-0.3,2.3-0.4c0,0,0.1,0,0.2,0c0.1,0,0.1,0,0.2,0c0.3-0.1,0.6-0.1,0.8-0.2
		c2.2-0.4,4.4-0.8,6.6-1.3c0.2-0.1,0.5-0.1,0.7-0.2c0.1,0,0.3-0.1,0.3-0.1c0,0,0,0,0.1,0c-1,0.3-2,0.7-2.9,1.2
		c-1.1,0.5-2.1,1.2-3.1,1.9c-0.9,0.6-1.9,1.5-2.3,2.5c-0.1,0.3-0.2,0.8,0.1,1.1c0.7,0.8,1.4,1.5,2.3,2.1c0.9,0.6,1.9,1.1,3,1.4
		c2.1,0.7,4.3,1,6.5,1.4c0.5,0.1,0.6-0.6,0.1-0.8c-1.9-0.6-3.9-1-5.8-1.6c-1.2-0.4-3.4-1.2-3.9-2.5c0.6-0.4,1.2-0.9,1.8-1.3
		c0.5-0.3,0.9-0.6,1.4-0.9c0.4-0.2,0.3-0.2,0.6-0.3c0.2-0.1,0.4-0.2,0.6-0.3c-0.1,0.1-0.1,0,0.1,0c2.2-1.1,4.6-2.1,7-2.8
		c2.4-0.8,4.9-1.4,7.4-1.9c2.1-0.5,4.2-0.8,6.2-1.8c0.2-0.1,0.3-0.2,0.3-0.4c0.2,0,0.4-0.1,0.5-0.1c3.4-0.6,6.7-1.7,10-2.5
		c3.1-0.7,6-1.5,9.1-2c3.5-0.5,7-1,10.5-1.2c3.5-0.2,7-0.3,10.5-0.6c1.6-0.1,3.2-0.3,4.7-0.4c3.8-0.1,7.6,0,11.4,0.1
		c2.3,0.1,4.6,0.2,6.9,0.3c2.2,0.1,4.4,0.3,6.6,0.3c0.1,0,0.1,0,0.2,0c-7.4,0.3-14.7,1.3-22.1,1.9c-1.3,0-2.5,0-3.8,0
		c-0.9,0-1.9,0-2.9,0.2c-0.7,0.1-1.4,0.3-2.1,0.4c-2.1,0.1-4.2,0.2-6.4,0.4c-4.6,0.3-9.1,1.1-13.6,2.1c1.1-0.2,0.2,0-0.1,0
		c-0.3,0-0.5,0.1-0.8,0.1c-0.7,0.1-1.5,0.2-2.2,0.4c-2,0.3-4,0.7-6,1.1c-4.6,0.9-9.3,1.9-13.7,3.7c-3.2,1.3-7.8,4-6.4,8.2
		c0.1,0.2,0.2,0.5,0.3,0.7c0.1,0.1,0.1,0.2,0.2,0.4c0,0.1,0.1,0.2,0.1,0.3c0.4,0.6,0.9,1.1,1.5,1.5c1.4,0.9,2.9,1.5,4.6,1.8
		c1.4,0.3,2.9,0.4,4.3,0.6c1.8,0.2,3.6,0.6,5.3,1c4.3,1,8.5,1.9,12.7,3c2,0.5,4,1.1,6.1,1.6c1.5,0.4,3,0.8,4.5,1.2l42.4-0.1
		c1.3-0.4,2.7-0.7,4-1c2.2-0.5,4.4-1.1,6.5-1.8c1.1-0.4,2.3-0.6,3.3-1.1c1.1-0.5,2.2-0.6,3.2-1.3c0.1-0.1,0.2-0.1,0.3-0.2
		c0.8,0,1.6,0,2.3,0c0.3,0.3,0.6,0.6,0.9,0.8c0.3,0.4,0.6,1,0.7,1.3c0.1,0.5,0,0.6-0.1,1.1c0,0.1-0.1,0.3-0.1,0.2c0,0,0,0.1-0.1,0.1
		c0,0.1-0.2,0.4-0.2,0.4c0,0.1-0.1,0.1-0.1,0.2c-0.7,0.4-1.4,0.8-2.1,1.1l7.1,0c0.3-0.3,0.5-0.7,0.7-1.1c0.6-1.6,0.1-3-0.9-4.1
		c-0.1-0.4-0.4-0.8-0.6-1.2c0.2-0.1,0.5-0.2,0.7-0.3c1-0.5,1.8-1.6,1.3-2.8c-1-2.4-3.3-3.7-5.6-4.5c-1.2-0.4-2.4-0.7-3.7-0.9
		c-0.4-0.1-1-0.1-1.5-0.1c-1.2-0.8-2.4-1.6-3.6-2.3c-2.4-1.4-4.9-2.4-7.3-3.6c-0.4-0.2-0.9-0.4-1.3-0.6c4.1,0.6,8.1,1.2,12.2,1.5
		c2,0.2,4.1,0.4,6.1,0.6c1.8,0.6,3.6,1.1,5.3,1.7c0.8,0.4,1.7,0.8,2.6,1.2c2.3,0.9,4.5,1.9,6.7,3.1c2,1.1,3.7,2.1,5.4,3.8
		c0,0,0.1,0.1,0.1,0.1c0.1,0.1,0.1,0.2,0.2,0.2c0.1,0.2,0.3,0.4,0.4,0.5c0.1,0.1,0.2,0.2,0.2,0.4c0,0.1,0.2,0.3,0.2,0.4
		c0,0.1,0.1,0.5,0.2,0.6c0,0.1,0,0.3,0,0.4c0,0.2,0,0.4,0,0.6c0,0.1,0,0.2,0,0.3c-0.1,0.4-0.1,0.8-0.2,1.3c0,0.1-0.1,0.1-0.1,0.2
		c-0.1,0.2-0.2,0.4-0.2,0.5c-0.2,0.4-0.4,0.8-0.6,1.2c0,0,0,0,0,0c0,0.1-0.1,0.1-0.1,0.2c-0.1,0.2-0.2,0.3-0.4,0.5
		c-0.2,0.2-0.3,0.4-0.5,0.5c-0.1,0.1-0.1,0.1-0.2,0.2c0,0-0.1,0.1-0.1,0.1c-0.3,0.3-0.7,0.6-1.1,0.9c-0.2,0.1-0.4,0.2-0.5,0.3
		l15-0.1c1-0.5,2-1.1,2.9-1.8c1.5-1.2,2.9-3,2-5c-0.8-2-2.8-3.2-4.6-4.2c-1.9-1-3.9-1.9-5.9-2.7c-0.8-0.3-1.6-0.6-2.4-1
		c-1.2-0.5-2.4-0.8-3.6-1.2c-2.9-0.9-5.9-1.8-8.8-2.7c-0.2-0.1-0.5-0.2-0.7-0.3c-1-0.4-2.1-0.7-3.1-1c-1.7-0.5-3.4-0.9-5.2-1.2
		c-1.1-0.3-2.2-0.6-3.3-0.8c-3.2-0.7-6.4-1.5-9.6-2.2c-3.4-0.6-6.8-1.2-10.2-1.4c-0.5,0-1-0.1-1.6-0.1c-0.1,0-0.2,0-0.3-0.1
		c-2.2-0.5-4.5-1-6.7-1.4c3.1-0.2,6.2-0.4,9.3-0.4c4.3,0,8.5,0.5,12.8,0.8c4.3,0.4,8.7,0.7,13.1,0.9c2.2,0.1,4.4,0.2,6.5,0.2
		c2.2,0,4.4,0,6.7-0.1c4,0,8.1,0,12.1,0.4c2,0.2,4,0.5,6,0.8c2,0.3,4,0.7,5.9,1.4C188.9,746.4,189.2,745.8,188.8,745.7z
		 M168.3,768.2c1.2-1.5,1.9-3.2,1.9-5.2c0-1.7-0.5-3.1-1.4-4.3c1.8,0.8,3.6,1.7,5.4,2.6c0.5,0.3,1,0.5,1.5,0.8
		c0.1,0,0.1,0.1,0.2,0.1c0,0,0,0,0,0c0.2,0.1,0.4,0.3,0.6,0.4c0.4,0.3,0.7,0.5,1.1,0.9c0,0,0,0,0,0c-0.1,0.1-0.2,0.1-0.3,0.2
		c-0.8,0.5-1.6,1-2.4,1.4c0,0,0,0,0,0c-0.1,0.1-0.2,0.1-0.3,0.2c-0.2,0.1-0.5,0.2-0.7,0.3c-0.5,0.2-0.9,0.5-1.4,0.7
		C171.1,767,169.7,767.6,168.3,768.2z M110.5,745.2c2.4,0.3,4.7,0.6,7.1,1.1c1.1,0.2,2.1,0.4,3.2,0.5c1.9,0.8,3.8,1.8,5.7,2.7
		c2.4,1.2,4.8,2.4,7.1,3.7c0.8,0.4,1.5,0.9,2.3,1.4c-0.8-0.3-1.7-0.5-2.6-0.7c-0.9-0.2-1.8-0.3-2.7-0.2c-1.1-0.4-2.3-0.7-3.4-1
		c-0.8-0.2-1.6-0.4-2.3-0.7c-0.1,0-0.6-0.2-0.2,0c-0.3-0.1-0.6-0.2-0.9-0.2c-0.3-0.1-0.7-0.2-1-0.2c-1.2-0.3-2.4-0.6-3.6-1
		c0,0,0,0,0.1,0c-0.2-0.1-0.6-0.2-0.7-0.2c-0.3-0.1-0.5-0.1-0.8-0.2c-0.5-0.1-1-0.3-1.5-0.4c-1-0.3-2-0.5-3.1-0.8
		c-4.2-1-8.5-1.7-12.7-2.2c-4.2-0.4-8.4-0.9-12.6-1c-0.2,0-0.5,0-0.7,0c2.9-0.3,5.7-0.7,8.6-1.1c0.3,0,0.5,0,0.8,0.1
		c2.5,0.2,4.9,0.3,7.4,0.3c1.2,0,2.3,0,3.5,0C108.4,745.1,109.5,745.1,110.5,745.2z"/>
</g>
<g>
	<path class="st0" d="M193.5,728c0.1,0,0.1-0.2,0-0.2C193.4,727.8,193.4,728,193.5,728L193.5,728z"/>
</g>
<g>
	<path class="st0" d="M195.4,731c0.9,0,0.9-1.3,0-1.3C194.5,729.7,194.5,731,195.4,731L195.4,731z"/>
</g>
<g>
	<path class="st0" d="M199.1,723.1c1,0,1-1.6,0-1.6C198.1,721.5,198.1,723.1,199.1,723.1L199.1,723.1z"/>
</g>
<g>
	<path class="st0" d="M200.6,727C200.6,727,200.6,727,200.6,727c-0.3-0.3-0.6-0.5-0.9-0.5c-0.3,0-0.6,0.2-0.8,0.4c0,0-0.1,0-0.1,0.1
		c-0.3,0.3-0.4,0.8-0.3,1.2c0.1,0.5,0.7,0.9,1.2,0.9c0.4,0,0.9-0.2,1.1-0.6C201.1,728.1,201.1,727.4,200.6,727L200.6,727z"/>
</g>
<g>
	<path class="st0" d="M205.4,723.9c1.3,0,1.3-2.1,0-2.1C204,721.8,204,723.9,205.4,723.9L205.4,723.9z"/>
</g>
<g>
	<path class="st0" d="M180.4,731.3c1.2,0,1.2-1.8,0-1.8C179.2,729.5,179.2,731.3,180.4,731.3L180.4,731.3z"/>
</g>
<g>
	<path class="st0" d="M216.1,739c0,0,0-0.1-0.1-0.1c-0.2-0.5-0.7-0.8-1.3-0.8c-0.5,0-1,0.3-1.3,0.8c0,0.1-0.1,0.1-0.1,0.2
		c-0.1,0.2-0.2,0.5-0.2,0.8c0,0.3,0.1,0.5,0.2,0.8c0.3,0.5,0.8,0.8,1.3,0.8c0.5,0,1.1-0.3,1.3-0.8c0.1-0.2,0.2-0.5,0.2-0.8
		C216.3,739.5,216.2,739.2,216.1,739L216.1,739z"/>
</g>
<g>
	<path class="st0" d="M222.9,733.2c2,0,2-3.1,0-3.1C220.9,730.1,220.9,733.2,222.9,733.2L222.9,733.2z"/>
</g>
<g>
	<path class="st0" d="M227,736.6c0,0.2,0,0.4,0,0.6c0,0.8,0.7,1.5,1.5,1.5c0.8,0,1.5-0.7,1.5-1.5c0-0.2,0-0.4,0-0.6
		c0-0.8-0.7-1.5-1.5-1.5C227.7,735.1,227,735.8,227,736.6L227,736.6z"/>
</g>
<g>
	<path class="st0" d="M236.6,726.6c1.5,0,1.5-2.4,0-2.4C235.1,724.2,235.1,726.6,236.6,726.6L236.6,726.6z"/>
</g>
<g>
	<path class="st0" d="M249.1,737.4c1.7,0,1.7-2.7,0-2.7C247.4,734.7,247.4,737.4,249.1,737.4L249.1,737.4z"/>
</g>
<g>
	<path class="st0" d="M236,739.3c1.9,0,1.9-2.9,0-2.9C234.1,736.4,234.1,739.3,236,739.3L236,739.3z"/>
</g>
<g>
	<path class="st0" d="M235.3,747c0-0.2-0.1-0.4-0.2-0.6c0,0,0,0,0-0.1c-0.2-0.3-0.2-0.3,0-0.1c0,0,0-0.1-0.1-0.1
		c-0.2-0.2-0.3-0.4-0.5-0.5c-0.2-0.1-0.4-0.2-0.7-0.2c-0.5-0.1-0.9,0.3-0.8,0.8c0,0.1,0.1,0.3,0.1,0.4c0,0.2,0.1,0.3,0.2,0.4
		c-0.1-0.3-0.1-0.2,0-0.1c0,0,0,0,0,0c-0.1-0.2,0-0.4,0.1-0.6c-0.1,0.2-0.1,0.4-0.2,0.6c-0.1,0.7,0.3,1.5,1.1,1.5
		C234.9,748.4,235.4,747.7,235.3,747L235.3,747z"/>
</g>
<g>
	<path class="st0" d="M201.6,750c1.9,0,1.9-3,0-3C199.7,747,199.7,750,201.6,750L201.6,750z"/>
</g>
<g>
	<path class="st5" d="M-52.5,755c0.3-0.3,0.7-0.5,1-0.8c0,0,0,0,0,0C-51.8,754.6-52.2,754.7-52.5,755C-52.5,755-52.5,755-52.5,755
		L-52.5,755z"/>
</g>
<g>
	<path class="st0" d="M-80.6,739.2c0.2,0,0.4,0,0.6-0.2c0.2-0.1,0.3-0.2,0.4-0.4c0.1-0.1,0.1-0.2,0.1-0.3c0-0.2,0.1-0.3,0-0.5
		c-0.1-0.3-0.2-0.5-0.5-0.6c0.1,0.1,0.2,0.2,0.3,0.3c-0.1-0.2-0.4-0.5-0.7-0.4c-0.2,0-0.3,0-0.4,0.1c-0.1,0.1-0.2,0.2-0.3,0.3
		c0.2-0.1,0.3-0.3,0.5-0.4c-0.2,0.1-0.3,0.1-0.5,0.3c-0.1,0.1-0.2,0.3-0.3,0.5c0-0.1,0.1-0.2,0.1-0.2c0,0,0,0.1,0,0.1
		c0.1-0.1,0.1-0.1,0.2-0.2c0,0,0,0,0,0c0.1-0.1,0.1-0.1,0.2-0.2c0,0,0,0-0.1,0c0.1,0,0.2-0.1,0.2-0.1c0,0,0,0,0,0c0.1,0,0.2,0,0.3,0
		c0,0,0,0-0.1,0c-0.5,0-1,0.5-1,1c0,0.3,0.1,0.5,0.3,0.7C-81.1,739-80.8,739.2-80.6,739.2L-80.6,739.2z"/>
</g>
<g>
	<path class="st0" d="M-89,744.6C-89,744.6-89,744.6-89,744.6c0.1,0.2,0.3,0.4,0.4,0.6c0,0,0,0,0-0.1c0-0.1-0.1-0.4-0.3-0.4
		c-0.1-0.1-0.3-0.2-0.5-0.3c0.2,0.1,0.4,0.3,0.5,0.4c0,0,0-0.1,0-0.1c-0.1-0.1-0.2-0.2-0.3-0.3c-0.1-0.1-0.3-0.1-0.4-0.1
		c-0.2,0-0.3,0-0.4,0.1c-0.1,0.1-0.2,0.2-0.3,0.3c0,0,0,0.1,0,0.1c0.2-0.1,0.4-0.3,0.5-0.4c-0.2,0-0.3,0.1-0.4,0.3
		c-0.1,0.1-0.2,0.3-0.3,0.4c0,0,0,0,0,0.1c0.2-0.2,0.3-0.4,0.5-0.6c0,0,0,0,0,0c-0.2,0.1-0.3,0.2-0.4,0.4c-0.1,0.2-0.2,0.5-0.1,0.8
		c0.1,0.4,0.5,0.8,1,0.8c0.5,0,0.9-0.3,1-0.8c0-0.2,0-0.4,0-0.5c0-0.1-0.1-0.2-0.1-0.2C-88.7,744.8-88.9,744.7-89,744.6L-89,744.6z"
		/>
</g>
<g>
	<path class="st0" d="M-72.4,733.9c0.3,0,0.7-0.1,0.9-0.4c0.2-0.2,0.4-0.6,0.4-0.9s-0.1-0.7-0.4-0.9c-0.2-0.2-0.6-0.4-0.9-0.4
		c-0.3,0-0.7,0.1-0.9,0.4c-0.2,0.2-0.4,0.6-0.4,0.9s0.1,0.7,0.4,0.9C-73.1,733.7-72.8,733.9-72.4,733.9L-72.4,733.9z"/>
</g>
<g>
	<path class="st0" d="M-86.3,737.7c0-0.2,0-0.4-0.1-0.6c0,0.1,0,0.1,0.1,0.2c0-0.1-0.1-0.2-0.2-0.3c-0.1-0.1-0.3-0.2-0.5-0.2
		c-0.2,0-0.4,0.1-0.5,0.2c-0.3,0.3-0.3,0.9,0.1,1.1c0.1,0,0.1,0.1,0.2,0.1c-0.1-0.1-0.2-0.1-0.3-0.2c0,0,0,0,0,0
		c0,0-0.1-0.1-0.1-0.1c0,0,0,0,0,0c0-0.1,0-0.1-0.1-0.2c0,0,0,0.1,0,0.1c0-0.1,0-0.1,0-0.2c0,0,0,0.1,0,0.1c0,0.1,0,0.1,0,0.2
		c0,0.1,0.1,0.2,0.2,0.3c0.1,0.1,0.3,0.2,0.5,0.2c0.2,0,0.4-0.1,0.5-0.2c0,0,0.1-0.1,0.1-0.1C-86.3,737.9-86.3,737.8-86.3,737.7
		L-86.3,737.7z"/>
</g>
<g>
	<path class="st0" d="M-85.4,743.7C-85.4,743.7-85.4,743.7-85.4,743.7C-85.4,743.7-85.4,743.6-85.4,743.7c0,0,0,0.1,0,0.1
		s0,0.1,0.1,0.2c0,0,0-0.1,0-0.1c0,0.2,0.2,0.4,0.4,0.4c0.3,0.1,0.6-0.1,0.6-0.4c0.1-0.3-0.1-0.6-0.4-0.6c-0.1,0-0.3,0-0.4,0.1
		C-85.3,743.4-85.4,743.5-85.4,743.7L-85.4,743.7z"/>
</g>
<g>
	<path class="st0" d="M-94.1,743c0.9,0,0.9-1.4,0-1.4C-95,741.6-95,743-94.1,743L-94.1,743z"/>
</g>
<g>
	<path class="st0" d="M-104.1,759.7c-0.1-0.1-0.2-0.2-0.3-0.2C-104.3,759.5-104.3,759.5-104.1,759.7c-0.1-0.1-0.1-0.1-0.1-0.1
		c0.1,0.1,0.2,0.3,0.2,0.4c0,0,0-0.1,0-0.1c0-0.1-0.1-0.3-0.2-0.4c-0.2-0.2-0.4-0.2-0.6-0.2c-0.1,0-0.3,0-0.4,0.1
		c-0.2,0.1-0.3,0.3-0.4,0.5c0,0,0,0.1,0,0.1c0.1-0.1,0.2-0.3,0.2-0.4c0,0,0,0,0,0c0.1,0,0.1-0.1,0.2-0.1c-0.1,0.1-0.2,0.1-0.3,0.2
		c-0.1,0.1-0.2,0.3-0.3,0.5c0,0.2,0,0.4,0,0.5c0.1,0.4,0.5,0.8,1,0.8c0.4,0,0.7-0.2,0.9-0.5c0.1-0.2,0.1-0.3,0.1-0.5
		C-103.8,760.1-103.9,759.9-104.1,759.7L-104.1,759.7z"/>
</g>
<g>
	<path class="st0" d="M-98.2,752.2c0.9,0,0.9-1.5,0-1.5C-99.2,750.7-99.2,752.2-98.2,752.2L-98.2,752.2z"/>
</g>
<g>
	<path class="st0" d="M-77.1,742.8C-77.1,742.8-77.1,742.8-77.1,742.8c-0.2-0.2-0.3-0.2-0.5-0.2c-0.2,0-0.3,0.1-0.4,0.2
		c0,0,0,0-0.1,0.1c-0.2,0.2-0.2,0.4-0.2,0.6c0.1,0.3,0.3,0.5,0.6,0.5c0.2,0,0.4-0.1,0.6-0.3C-76.8,743.4-76.9,743-77.1,742.8
		L-77.1,742.8z"/>
</g>
<g>
	<path class="st0" d="M-91.8,749.3C-91.8,749.3-91.8,749.2-91.8,749.3c0-0.2-0.1-0.3-0.2-0.4c-0.2-0.2-0.4-0.2-0.6,0
		c-0.1,0.1-0.1,0.2-0.2,0.3c0,0,0,0,0,0.1c-0.1,0.3,0.2,0.7,0.5,0.7C-92,749.9-91.7,749.6-91.8,749.3L-91.8,749.3z"/>
</g>
<g>
	<path class="st0" d="M-102,754.1c0.5,0,0.9-0.4,0.9-0.9c0-0.5-0.4-0.9-0.9-0.9c-0.5,0-0.9,0.4-0.9,0.9
		C-102.9,753.7-102.5,754.1-102,754.1L-102,754.1z"/>
</g>
<g>
	<path class="st0" d="M-62.7,732.3c0-0.1,0-0.2,0-0.3c0-0.1,0-0.2,0-0.3c-0.1-0.2-0.2-0.3-0.3-0.5c-0.3-0.4-1.1-0.4-1.4,0
		c-0.1,0.1-0.1,0.2-0.2,0.2c-0.1,0.2-0.1,0.4-0.1,0.6c0,0.1,0,0.2,0,0.3c0,0.3,0.1,0.5,0.3,0.7c0.2,0.2,0.5,0.3,0.7,0.3
		c0.3,0,0.5-0.1,0.7-0.3C-62.8,732.8-62.7,732.6-62.7,732.3L-62.7,732.3z"/>
</g>
<g>
	<path class="st0" d="M-75.5,739.9c0.9,0,0.9-1.4,0-1.4C-76.4,738.5-76.4,739.9-75.5,739.9L-75.5,739.9z"/>
</g>
<g>
	<path class="st0" d="M-76,736.8c0.8,0,0.8-1.3,0-1.3C-76.8,735.5-76.8,736.8-76,736.8L-76,736.8z"/>
</g>
<g>
	<path class="st0" d="M-51.8,728c0.7,0,1.3-0.6,1.3-1.3s-0.6-1.3-1.3-1.3c-0.7,0-1.3,0.6-1.3,1.3S-52.4,728-51.8,728L-51.8,728z"/>
</g>
<g>
	<path class="st0" d="M-55.7,728.9c0-0.1-0.1-0.2-0.2-0.2c0,0.2,0,0.5,0,0.7c0,0,0,0,0,0c0,0,0-0.1,0.1-0.1c0-0.1,0.1-0.2,0.1-0.2
		c0-0.1-0.1-0.2-0.1-0.3c0,0-0.1-0.1-0.1-0.1c-0.1-0.1-0.2-0.1-0.3-0.1c-0.2,0-0.3,0.1-0.5,0.2c-0.1,0.1-0.1,0.1-0.2,0.2
		c-0.1,0.2-0.1,0.5,0,0.7c0.1,0.2,0.4,0.4,0.6,0.4c0.3,0,0.5-0.1,0.6-0.4C-55.6,729.4-55.6,729.1-55.7,728.9L-55.7,728.9z"/>
</g>
<g>
	<path class="st0" d="M-72.1,727.4c-0.1-0.1-0.2-0.2-0.3-0.2c-0.1,0-0.2,0.1-0.3,0.2c-0.1,0.1-0.2,0.3-0.1,0.4
		c0.1,0.2,0.2,0.3,0.4,0.3c0.2,0,0.3-0.1,0.4-0.2c0-0.1,0.1-0.1,0.1-0.2C-72,727.6-72,727.5-72.1,727.4L-72.1,727.4z"/>
</g>
<g>
	<path class="st0" d="M-75.7,730.5c0-0.2-0.1-0.5-0.2-0.6c-0.1-0.1-0.1-0.1-0.2-0.1c0,0-0.1-0.1,0,0c0,0-0.1-0.1,0,0
		c-0.1-0.2-0.4-0.3-0.6-0.2c-0.3,0.1-0.4,0.4-0.4,0.7c0,0.1,0.1,0.2,0.1,0.3c0,0,0,0.1,0,0.1c0.1,0.1,0-0.2,0,0c0-0.1,0-0.1,0-0.2
		c0,0,0,0,0,0.1c0,0.3,0.3,0.6,0.6,0.6C-75.9,731.1-75.6,730.8-75.7,730.5L-75.7,730.5z"/>
</g>
<g>
	<path class="st0" d="M-99.7,745.9c0.7,0,0.7-1.2,0-1.2C-100.5,744.7-100.5,745.9-99.7,745.9L-99.7,745.9z"/>
</g>
<g>
	<path class="st0" d="M-94.4,747C-94.4,747-94.4,746.9-94.4,747C-94.5,746.9-94.5,746.9-94.4,747c-0.1-0.2-0.1-0.3-0.2-0.4
		c0,0,0,0,0,0c-0.1-0.1-0.3-0.1-0.4,0c0,0,0,0,0,0c-0.1,0.1-0.2,0.1-0.2,0.3c0,0,0,0,0,0c0,0,0,0,0,0.1c-0.1,0.3,0.2,0.6,0.5,0.6
		C-94.6,747.6-94.3,747.3-94.4,747L-94.4,747z"/>
</g>
<g>
	<path class="st0" d="M-92.5,743.5c0,0.1,0,0.2,0,0.3c0,0,0-0.1,0-0.1c0,0,0,0,0,0C-92.5,743.7-92.5,743.7-92.5,743.5
		c0,0.1,0,0.1,0,0.1C-92.5,743.6-92.5,743.6-92.5,743.5C-92.5,743.6-92.5,743.6-92.5,743.5c0.1,0,0.1,0,0.1,0c0,0,0,0,0,0
		c0,0,0.1,0,0.1-0.1C-92.4,743.5-92.5,743.5-92.5,743.5c0,0.1,0,0.1,0,0.1c-0.1,0.2,0.1,0.5,0.3,0.5c0.2,0,0.4,0,0.5-0.1
		c0.1-0.1,0.1-0.2,0.1-0.2c0-0.1,0-0.2,0-0.2c0-0.1-0.1-0.2-0.1-0.3c-0.1-0.1-0.2-0.1-0.3-0.1c-0.1,0-0.2,0-0.3,0.1
		C-92.5,743.3-92.5,743.4-92.5,743.5L-92.5,743.5z"/>
</g>
<g>
	<path class="st2" d="M-60.2,728c0,0-0.1,0-0.1,0c0.2,0.1,0.3,0.3,0.5,0.4C-59.9,728.1-60,728-60.2,728c-0.1-0.1-0.1-0.1-0.2-0.1
		c-0.1,0-0.2,0-0.4,0c-0.3,0-0.7,0.1-0.9,0.4c0.1-0.1,0.1-0.1,0.2-0.2c0,0,0,0,0,0c-0.3,0.2-0.5,0.5-0.5,0.9c0,0.5,0.3,0.9,0.8,1.1
		c0.5,0.1,1-0.1,1.2-0.5c0.3-0.4,0.2-1-0.2-1.3c0,0,0,0,0,0c0.1,0.2,0.2,0.3,0.3,0.5c0,0,0,0,0,0c0,0.1,0,0.2,0,0.3c0,0,0,0,0,0
		c0,0.1,0,0.2,0,0.3c0,0,0,0,0-0.1c0,0.1-0.1,0.2-0.1,0.2c0,0,0,0,0,0c-0.1,0.1-0.1,0.1-0.2,0.2c0,0,0,0,0,0
		c-0.1,0.1-0.1,0.1-0.2,0.2c0,0,0,0,0.1-0.1c0.2-0.1,0.3-0.2,0.4-0.4c-0.2,0.1-0.3,0.3-0.5,0.4c0,0,0.1,0,0.1,0
		c0.3-0.1,0.6-0.4,0.6-0.8C-59.6,728.3-59.9,728.1-60.2,728L-60.2,728z"/>
</g>
<g>
	<path class="st4" d="M-58.1,753.9c0-0.1,0-0.1,0-0.2c0-0.1-0.1-0.2-0.1-0.2c-0.1-0.1-0.2-0.1-0.4-0.1c-0.1,0-0.2,0-0.3,0.1
		c-0.1,0.1-0.2,0.2-0.2,0.3c0,0.1,0,0.1,0,0.2c-0.1,0.3,0.2,0.7,0.5,0.7C-58.3,754.6-58,754.2-58.1,753.9L-58.1,753.9z"/>
</g>
<g>
	<path class="st2" d="M-67.9,736c-0.1,0-0.1,0-0.2,0c0.1,0.1,0.2,0.1,0.3,0.2C-67.9,736.1-67.9,736.1-67.9,736
		c-0.2-0.1-0.3-0.1-0.4-0.1c-0.1,0-0.2,0-0.3,0.1c0,0,0,0,0,0c-0.1,0.1-0.2,0.1-0.2,0.2c-0.1,0.1-0.1,0.2-0.1,0.3
		c0,0.1,0,0.2,0.1,0.3c0.1,0.1,0.1,0.2,0.2,0.2c0,0,0,0,0,0c0.1,0.1,0.2,0.1,0.3,0.1c0.1,0,0.2,0,0.3-0.1c0.1,0,0.1-0.1,0.2-0.1
		c-0.1,0.1-0.2,0.1-0.3,0.2c0.1,0,0.1,0,0.2,0c0.1,0,0.2-0.1,0.3-0.2c0.1-0.1,0.2-0.3,0.2-0.4c0-0.1,0-0.2-0.1-0.3
		C-67.6,736.2-67.7,736.1-67.9,736L-67.9,736z"/>
</g>
<g>
	<path class="st9" d="M5.2,768.4c1,0,1-1.6,0-1.6C4.2,766.9,4.2,768.4,5.2,768.4L5.2,768.4z"/>
</g>
<g>
	<path class="st9" d="M-0.9,762.3c0,0.1,0.1,0.3,0.1,0.4c0.1,0.4,0.5,0.8,1,0.8c0.4,0,0.9-0.3,1-0.8c0-0.1,0.1-0.3,0.1-0.4
		c0.2-0.7-0.3-1.4-1.1-1.4C-0.6,760.9-1.1,761.6-0.9,762.3L-0.9,762.3z"/>
</g>
<g>
	<path class="st9" d="M10.2,760.8c1.7,0,1.7-2.6,0-2.6C8.5,758.2,8.5,760.8,10.2,760.8L10.2,760.8z"/>
</g>
<g>
	<path class="st9" d="M25,755.7c-0.1,0-0.2,0.1-0.2,0.1c-0.2,0.1-0.4,0.3-0.5,0.5c-0.1,0.2-0.2,0.4-0.2,0.7c0,0.2,0.1,0.5,0.2,0.7
		c0.1,0.2,0.3,0.4,0.5,0.5c0.1,0,0.2,0.1,0.2,0.1c0.2,0.1,0.5,0.2,0.8,0.2c0.3,0,0.5-0.1,0.8-0.2c0.5-0.3,0.7-0.8,0.7-1.3
		c0-0.5-0.3-1-0.7-1.3c-0.2-0.1-0.5-0.2-0.8-0.2C25.5,755.5,25.3,755.6,25,755.7L25,755.7z"/>
</g>
<g>
	<path class="st9" d="M6.6,753.9c0-0.1,0-0.1,0-0.2c0-0.1,0-0.1,0-0.2c0,0,0-0.1,0-0.1c0-0.4-0.1-0.7-0.4-1c-0.5-0.6-1.5-0.6-2,0
		c-0.2,0.2-0.3,0.4-0.4,0.6c0,0.1,0,0.3-0.1,0.4c0,0.1,0,0.1,0,0.2c0,0.1,0,0.2,0,0.2c0,0.4,0.2,0.8,0.4,1c0.3,0.3,0.6,0.4,1,0.4
		c0.4,0,0.8-0.2,1-0.4C6.5,754.7,6.7,754.3,6.6,753.9L6.6,753.9z"/>
</g>
<g>
	<path class="st9" d="M12.7,746.3c-0.3,0-0.5,0-0.8,0.1c-0.2,0.1-0.4,0.2-0.6,0.3c-0.2,0.2-0.4,0.6-0.4,0.9c0,0.2,0.1,0.4,0.2,0.6
		c0.2,0.3,0.5,0.5,0.8,0.6c0.3,0,0.5,0.1,0.8,0.1c0.3,0,0.7-0.2,0.9-0.4c0.2-0.2,0.4-0.6,0.4-0.9c0-0.3-0.1-0.7-0.4-0.9
		C13.4,746.5,13,746.3,12.7,746.3L12.7,746.3z"/>
</g>
<g>
	<path class="st9" d="M17.7,760.2C17.7,760.2,17.7,760.1,17.7,760.2C17.7,760.1,17.7,760.2,17.7,760.2L17.7,760.2z"/>
</g>
<g>
	<path class="st9" d="M-12.3,764.8c1.1,0,1.1-1.7,0-1.7C-13.4,763-13.4,764.8-12.3,764.8L-12.3,764.8z"/>
</g>
<g>
	<path class="st9" d="M-5.7,757.5c-0.1,0-0.1,0-0.2,0.1c-0.1,0-0.1,0-0.2,0.1c-0.3,0.1-0.6,0.4-0.6,0.7c0,0.3,0.2,0.6,0.5,0.7
		c0.1,0,0.1,0,0.2,0.1c0.1,0,0.1,0,0.2,0.1c0.5,0.2,1.1-0.3,1.1-0.8C-4.6,757.7-5.1,757.3-5.7,757.5L-5.7,757.5z"/>
</g>
<g>
	<path class="st9" d="M-17.3,755.7c1.5,0,1.5-2.3,0-2.3C-18.8,753.4-18.8,755.7-17.3,755.7L-17.3,755.7z"/>
</g>
<g>
	<path class="st9" d="M37.1,766.3c0-0.4,0.1-0.7,0.1-1.1c0,0.2,0,0.4-0.1,0.5c0-0.1,0-0.1,0-0.1c-0.1,0.2-0.1,0.3-0.2,0.5
		c0.2-0.4,0.3-0.7,0.3-1.2c0,0.2,0,0.3-0.1,0.5c0-0.1,0-0.1,0-0.2c0.1-0.2,0.1-0.4,0.1-0.6c0.1-0.9-0.9-1.8-1.7-1.7
		c-0.4,0.1-0.6,0.1-1,0.2c-0.1,0-0.1,0-0.2,0.1c0.1-0.1,0.3-0.1,0.4-0.2c-0.6,0.2-1.2,0.5-1.5,1.1c-0.2,0.4-0.3,0.7-0.3,1.2
		c0,0.3,0.1,0.6,0.1,0.9c0.1,0.3,0.3,0.6,0.5,0.9c0.4,0.4,0.9,0.6,1.4,0.6c0.4,0,0.7-0.1,1-0.3C36.6,767.2,37,766.8,37.1,766.3
		L37.1,766.3z"/>
</g>
<g>
	<path class="st9" d="M45.4,757.3c0.1,0,0.3,0,0.4-0.1c0.4-0.1,0.6-0.5,0.6-0.8c0-0.4-0.3-0.8-0.6-0.8c-0.1,0-0.3,0-0.4-0.1
		c-0.3,0-0.5,0-0.7,0.1c-0.3,0.2-0.5,0.5-0.5,0.8c0,0.3,0.1,0.5,0.3,0.7c0.1,0.1,0.3,0.2,0.4,0.2C45.1,757.4,45.3,757.4,45.4,757.3
		L45.4,757.3z"/>
</g>
<g>
	<path class="st9" d="M49.9,760.2c-0.2,0-0.3,0.1-0.5,0.1c-0.5,0.1-0.8,0.6-0.8,1.1c0,0.5,0.3,1,0.8,1.1c0.2,0,0.3,0.1,0.5,0.1
		c0.3,0.1,0.6,0,0.9-0.1c0.4-0.2,0.6-0.6,0.6-1c0-0.3-0.1-0.6-0.4-0.9C50.7,760.2,50.3,760.1,49.9,760.2L49.9,760.2z"/>
</g>
<g>
	<path class="st9" d="M27.7,759.8c0.4,0,0.4-0.6,0-0.6C27.3,759.2,27.3,759.8,27.7,759.8L27.7,759.8z"/>
</g>
<g>
	<path class="st9" d="M48.3,742c0.7,0,0.7-1.1,0-1.1C47.6,740.8,47.6,742,48.3,742L48.3,742z"/>
</g>
<g>
	<path class="st9" d="M26.7,765.5c0-0.1-0.1-0.3-0.1-0.4c-0.1-0.4-0.4-0.6-0.8-0.6c-0.4,0-0.7,0.3-0.8,0.6c0,0.1-0.1,0.3-0.1,0.4
		c-0.2,0.6,0.3,1.2,0.9,1.2C26.4,766.7,26.9,766.1,26.7,765.5L26.7,765.5z"/>
</g>
<g>
	<path class="st9" d="M33.9,748.4c1,0,1-1.5,0-1.5C32.9,746.9,32.9,748.4,33.9,748.4L33.9,748.4z"/>
</g>
<g>
	<path class="st9" d="M57.4,748.6c-0.1,0-0.2,0.1-0.4,0.1c0.1,0,0.1,0,0.2,0c0,0-0.1,0-0.1,0c0.1,0,0.1,0,0.2,0
		C57.4,748.7,57.4,748.7,57.4,748.6c0,0.1,0,0.2,0.1,0.2c-0.1-0.1,0.2,0.2,0.1,0.1c0.2,0.2,0.1,0.1,0.1,0
		C57.6,748.8,57.5,748.6,57.4,748.6c-0.2-0.3-0.6-0.3-0.7-0.1c-0.1,0.2-0.3,0.3-0.3,0.5c-0.1,0.3,0,0.5,0.1,0.8
		c0.2,0.4,0.6,0.5,1,0.6c0.6,0.2,1.2-0.3,1.2-0.9C58.6,748.9,58,748.4,57.4,748.6L57.4,748.6z"/>
</g>
<g>
	<path class="st9" d="M-36.1,753.8c1.4,0,1.4-2.2,0-2.2C-37.5,751.5-37.5,753.8-36.1,753.8L-36.1,753.8z"/>
</g>
<g>
	<path class="st10" d="M145.8,768.5c1.6,0,1.6-2.5,0-2.5C144.2,766,144.2,768.5,145.8,768.5L145.8,768.5z"/>
</g>
<g>
	<path class="st10" d="M153.3,766.8c1,0,1-1.6,0-1.6C152.3,765.2,152.3,766.8,153.3,766.8L153.3,766.8z"/>
</g>
<g>
	<path class="st10" d="M147.2,760.7c0,0.1,0.1,0.3,0.1,0.4c0.1,0.4,0.5,0.8,1,0.8c0.4,0,0.9-0.3,1-0.8c0-0.1,0.1-0.3,0.1-0.4
		c0.2-0.7-0.3-1.4-1.1-1.4C147.5,759.2,147,760,147.2,760.7L147.2,760.7z"/>
</g>
<g>
	<path class="st10" d="M158.3,759.2c1.7,0,1.7-2.6,0-2.6C156.6,756.6,156.6,759.2,158.3,759.2L158.3,759.2z"/>
</g>
<g>
	<path class="st10" d="M159.5,767.7c1.3,0,1.3-2.1,0-2.1C158.2,765.6,158.2,767.7,159.5,767.7L159.5,767.7z"/>
</g>
<g>
	<path class="st10" d="M173.1,754.1c-0.1,0-0.2,0.1-0.2,0.1c-0.2,0.1-0.4,0.3-0.5,0.5c-0.1,0.2-0.2,0.4-0.2,0.7
		c0,0.2,0.1,0.5,0.2,0.7c0.1,0.2,0.3,0.4,0.5,0.5c0.1,0,0.2,0.1,0.2,0.1c0.2,0.1,0.5,0.2,0.8,0.2c0.3,0,0.5-0.1,0.8-0.2
		c0.5-0.3,0.7-0.8,0.7-1.3c0-0.5-0.3-1-0.7-1.3c-0.2-0.1-0.5-0.2-0.8-0.2C173.6,753.9,173.4,753.9,173.1,754.1L173.1,754.1z"/>
</g>
<g>
	<path class="st10" d="M154.7,752.2c0-0.1,0-0.1,0-0.2c0-0.1,0-0.1,0-0.2c0,0,0-0.1,0-0.1c0-0.4-0.1-0.7-0.4-1c-0.5-0.6-1.5-0.6-2,0
		c-0.2,0.2-0.3,0.4-0.4,0.6c0,0.1,0,0.3-0.1,0.4c0,0.1,0,0.1,0,0.2c0,0.1,0,0.2,0,0.2c0,0.4,0.2,0.8,0.4,1c0.3,0.3,0.6,0.4,1,0.4
		c0.4,0,0.8-0.2,1-0.4C154.6,753,154.8,752.6,154.7,752.2L154.7,752.2z"/>
</g>
<g>
	<path class="st10" d="M160.8,744.7c-0.3,0-0.5,0-0.8,0.1c-0.2,0.1-0.4,0.2-0.6,0.3c-0.2,0.2-0.4,0.6-0.4,0.9c0,0.2,0.1,0.4,0.2,0.6
		c0.2,0.3,0.5,0.5,0.8,0.6c0.3,0,0.5,0.1,0.8,0.1c0.3,0,0.7-0.2,0.9-0.4c0.2-0.2,0.4-0.6,0.4-0.9c0-0.3-0.1-0.7-0.4-0.9
		C161.5,744.8,161.1,744.6,160.8,744.7L160.8,744.7z"/>
</g>
<g>
	<path class="st10" d="M165.8,758.5C165.8,758.5,165.8,758.5,165.8,758.5C165.7,758.5,165.7,758.5,165.8,758.5L165.8,758.5z"/>
</g>
<g>
	<path class="st10" d="M135.8,763.1c1.1,0,1.1-1.7,0-1.7C134.7,761.4,134.7,763.1,135.8,763.1L135.8,763.1z"/>
</g>
<g>
	<path class="st10" d="M142.4,755.8c-0.1,0-0.1,0-0.2,0.1c-0.1,0-0.1,0-0.2,0.1c-0.3,0.1-0.6,0.4-0.6,0.7c0,0.3,0.2,0.6,0.5,0.7
		c0.1,0,0.1,0,0.2,0.1c0.1,0,0.1,0,0.2,0.1c0.5,0.2,1.1-0.3,1.1-0.8C143.5,756.1,142.9,755.7,142.4,755.8L142.4,755.8z"/>
</g>
<g>
	<path class="st10" d="M130.8,754c1.5,0,1.5-2.3,0-2.3C129.3,751.7,129.3,754,130.8,754L130.8,754z"/>
</g>
<g>
	<path class="st10" d="M175.8,758.2c0.4,0,0.4-0.6,0-0.6C175.4,757.6,175.4,758.2,175.8,758.2L175.8,758.2z"/>
</g>
<g>
	<path class="st10" d="M174.8,763.9c0-0.1-0.1-0.3-0.1-0.4c-0.1-0.4-0.4-0.6-0.8-0.6c-0.4,0-0.7,0.3-0.8,0.6c0,0.1-0.1,0.3-0.1,0.4
		c-0.2,0.6,0.3,1.2,0.9,1.2C174.5,765.1,175,764.5,174.8,763.9L174.8,763.9z"/>
</g>
<path class="st11" d="M124,730c-7.3-9.6-18.8-15.7-31.8-15.7c-13,0-24.6,6.2-31.9,15.9c-5.1,6.7-8.1,15.1-8.1,24.1
	c0,0.1,0,0.2,0,0.3c10.5,2.7,24.7,4.4,40.4,4.4c15.3,0,29.2-1.6,39.6-4.2c0-0.2,0-0.3,0-0.5C132.2,745.1,129.2,736.7,124,730z"/>
<g>
	<path class="st4" d="M133,743.4c-0.7,0.3-1.4,0.6-2.1,0.8c-3.5,2.3-7.9,3.5-12,4.2c-4.9,0.9-9.9,1.4-14.8,2.1
		c-3.4,0.4-6.7,0.9-10,1.8c-0.3,0.1-0.2,0.6,0.1,0.5c5.4-0.5,10.9-0.9,16.3-1.4c4.7-0.5,9.5-0.9,14.1-2.1c3-0.8,5.9-2,8.4-3.9
		c0.3-0.2,0.4-0.7,0.3-1.1C133.2,744,133.1,743.7,133,743.4z"/>
</g>
<g>
	<path class="st5" d="M139.8,749c-2,1.4-4.5,2-6.9,2.5c-2.7,0.6-5.4,0.8-8.1,1c-2.7,0.3-5.4,0.6-8.1,0.9c-2.6,0.3-5.3,0.9-7.9,1.2
		c-5.2,0.6-10.5,0.8-15.7,0.4c-1.3-0.1-2.6-0.3-3.8-0.4c-1.2-0.1-2.3-0.2-3.5-0.4c-2.4-0.3-6.9,0.1-9.3-0.3
		c-2.9-0.4,2.6,0.4,7.2,1.1c2.4,0.4,4.8,0.5,7.2,0.8c2.6,0.3,5.2,0.4,7.8,0.4c2.6,0,5.2-0.1,7.8-0.4c2.6-0.2,5.2-0.7,7.9-1
		c5.4-0.8,10.9-1,16.3-1.8c3.3-0.5,6.7-1.5,9.3-3.6C140.2,749.2,140,748.9,139.8,749L139.8,749z"/>
</g>
</svg>
