<?xml version="1.0" encoding="utf-8"?>
<!-- Generator: Adobe Illustrator 19.0.0, SVG Export Plug-In . SVG Version: 6.00 Build 0)  -->
<svg version="1.1" id="Layer_1" xmlns="http://www.w3.org/2000/svg" xmlns:xlink="http://www.w3.org/1999/xlink" x="0px" y="0px"
	 viewBox="-587 633.2 242.2 151.1" style="enable-background:new -587 633.2 242.2 151.1;" xml:space="preserve">
<style type="text/css">
	.st0{fill:#9B701C;}
	.st1{fill:#CE9228;}
	.st2{fill:#3C255E;}
	.st3{fill:#561F68;}
	.st4{fill:#2D194C;}
	.st5{fill:#7DE3FF;}
	.st6{fill:#A06CAE;}
	.st7{opacity:0.8;fill:#43C7F4;enable-background:new    ;}
	.st8{fill:#FFFFFF;}
	.st9{opacity:0.5;}
	.st10{fill:#27AAE1;}
	.st11{fill:#7B279B;}
</style>
<g id="XMLID_75_">
	<g id="XMLID_79_">
		<g id="XMLID_161_">
			<g id="XMLID_220_">
				<path id="XMLID_111_" class="st0" d="M-458,640.8c-0.6-0.2-1.2-0.4-1.8-0.5c-8.5-2.2-17.2,0.7-22.7,7c4.2,0.3,8.4,0.9,12.6,1.7
					c2.1,0.4,4.3,0.9,6.4,1.5c7.1,1.9,13.8,4.4,20,7.5C-444.8,650.2-450.3,643.6-458,640.8z"/>
				<path id="XMLID_110_" class="st1" d="M-457.1,641.2c-0.3-0.1-0.6-0.3-0.9-0.4c-0.6-0.2-1.2-0.4-1.8-0.5
					c-8.5-2.2-17.2,0.7-22.7,7c3,0.2,6.1,0.6,9.2,1.1C-469.1,643.9-463.3,641.3-457.1,641.2z"/>
				<path id="XMLID_109_" class="st2" d="M-509.3,657.5c6.8-4.2,14.2-6.6,20-7.9c-12.8-0.1-25,2.4-35.2,7.3
					C-520.3,656.7-515.2,656.9-509.3,657.5z"/>
				<path id="XMLID_108_" class="st2" d="M-452.2,670c-1-8.1-3.6-12.9-4.9-14.8c-2.3-0.8-4.6-1.5-7-2.1c-2.4-0.6-4.8-1.2-7.2-1.6
					c-2,1-6.7,4-11.5,10.5c5.1,1.1,10.3,2.3,15.4,3.7C-462.3,667-457.2,668.4-452.2,670z"/>
				<path id="XMLID_107_" class="st2" d="M-482.1,649.9c-4.9,0.6-15.1,2.5-24.6,7.9c6.8,0.8,14.4,2.1,22.2,3.7
					c4.1-5.7,8.2-8.9,10.8-10.6C-476.5,650.5-479.3,650.2-482.1,649.9z"/>
				<path id="XMLID_106_" class="st2" d="M-440.5,662.5c4.4,4,9.7,9.7,13.5,16.7c5.4,2.3,10,4.7,13.5,7
					C-419.9,676.9-429.2,668.7-440.5,662.5z"/>
				<path id="XMLID_105_" class="st2" d="M-429.4,678.2c-5.6-9.4-13.6-16.1-17.6-19c-2.5-1.2-5.1-2.2-7.8-3.2
					c1.5,2.7,3.4,7.5,4.2,14.5C-442.9,672.9-435.7,675.5-429.4,678.2z"/>
				<path id="XMLID_104_" class="st3" d="M-424.3,683.4c-11.4-5.4-26.9-10.8-43.9-15.3c-16.9-4.5-33.1-7.4-45.7-8.4
					c-13.6-1-19,0.7-19.5,2.5c-0.2,0.8,0.5,2.2,2.7,4c0-0.2,0-0.4,0.1-0.6c0.8-3,7.4-3.9,19.6-2.7c11.5,1.1,26.4,4,42,8.1
					c15.6,4.1,30,8.9,40.5,13.6c11.2,5,16.5,9,15.7,12c0,0.2-0.1,0.4-0.2,0.5c2.8-0.5,4.1-1.4,4.3-2.2
					C-408.1,693.4-411.9,689.3-424.3,683.4z"/>
				<path id="XMLID_240_" class="st4" d="M-407,691.9c-6.7-13.1-18.5-24.4-33.5-32.4c-1.1-10.1-8.2-19-18.6-21.7
					c-10.2-2.7-20.6,1.3-26.6,9.3c-17.8-0.9-34.5,3.1-47.2,11.6c-1.5,0.7-2.5,1.7-2.9,3c-2.3,8.6,29.2,21.8,61.5,30.3
					s66.1,12.6,68.4,4C-405.6,694.6-406,693.3-407,691.9z M-408.5,695.2c-0.2,0.8-1.5,1.7-4.3,2.2c0.1-0.2,0.2-0.3,0.2-0.5
					c0.8-3-4.5-7-15.7-12c-10.6-4.7-24.9-9.5-40.5-13.6c-15.6-4.1-30.5-7-42-8.1c-12.2-1.2-18.8-0.3-19.6,2.7c0,0.2-0.1,0.4-0.1,0.6
					c-2.2-1.8-2.9-3.2-2.7-4c0.5-1.8,5.8-3.5,19.5-2.5c12.5,0.9,28.8,3.9,45.7,8.4s32.5,9.9,43.9,15.3
					C-411.9,689.3-408.1,693.4-408.5,695.2z M-528.9,666.2c0.9-3.5,22.7-3.1,59.6,6.6s56,20.2,55.1,23.6c-0.9,3.5-22.7,3.1-59.6-6.6
					C-510.7,680.1-529.9,669.7-528.9,666.2z M-459.8,640.3c8.7,2.3,14.8,9.4,16.4,17.7c-6.2-3.1-12.9-5.6-20-7.5
					c-6.4-1.7-12.7-2.7-19-3.2C-477,641-468.3,638-459.8,640.3z M-450.5,670.5c-0.8-7-2.7-11.8-4.2-14.5c2.7,1,5.3,2,7.8,3.2
					c3.9,2.9,11.9,9.6,17.6,19C-435.7,675.5-442.9,672.9-450.5,670.5z M-506.7,657.8c9.5-5.4,19.8-7.2,24.6-7.9
					c2.8,0.2,5.5,0.6,8.3,1c-2.6,1.6-6.7,4.8-10.8,10.6C-492.4,659.9-499.9,658.6-506.7,657.8z M-471.3,651.4c2.4,0.5,4.8,1,7.2,1.6
					c2.4,0.6,4.7,1.3,7,2.1c1.2,1.9,3.9,6.8,4.9,14.8c-5-1.6-10.1-3-15.2-4.4c-5.1-1.4-10.3-2.6-15.4-3.7
					C-478,655.4-473.3,652.5-471.3,651.4z M-427,679.2c-3.8-7.1-9.1-12.8-13.5-16.7c11.2,6.2,20.5,14.4,27,23.7
					C-417,683.9-421.6,681.6-427,679.2z M-509.3,657.5c-5.8-0.6-11-0.8-15.2-0.6c10.2-5,22.4-7.5,35.2-7.3
					C-495.1,650.9-502.5,653.3-509.3,657.5z"/>
				<path id="XMLID_232_" class="st3" d="M-414.2,696.5c0.9-3.5-18.2-13.9-55.1-23.6c-37-9.8-58.7-10.2-59.6-6.7
					c-0.9,3.5,18.2,13.9,55.1,23.6C-436.9,699.6-415.1,699.9-414.2,696.5z M-481.9,679.8c3,0.3,6.8,1,10.8,2.1c4,1,7.7,2.3,10.4,3.5
					c3.7,1.6,5,2.9,4.6,4.3c-0.4,1.5-2.2,1.9-6.1,1.5c-3-0.3-6.8-1-10.8-2.1c-4-1-7.7-2.3-10.4-3.5c-3.7-1.6-5-2.9-4.6-4.3
					C-487.7,679.8-485.9,679.4-481.9,679.8z"/>
				<path id="XMLID_92_" class="st5" d="M-484.2,682.3c1.9,1.1,5.9,2.7,11.8,4.2c6,1.6,10.2,2.1,12.4,2.1c-1.9-1.1-5.9-2.7-11.8-4.2
					C-477.7,682.9-482,682.3-484.2,682.3z"/>
				<path id="XMLID_221_" class="st6" d="M-483.4,685.6c2.7,1.2,6.4,2.4,10.4,3.5c4,1,7.8,1.8,10.8,2.1c4,0.4,5.8,0,6.1-1.5
					c0.4-1.5-0.9-2.7-4.6-4.3c-2.7-1.2-6.4-2.4-10.4-3.5c-4-1-7.8-1.8-10.8-2.1c-4-0.4-5.8,0-6.1,1.5
					C-488.4,682.7-487.1,684-483.4,685.6z M-460,688.7c-2.2,0-6.4-0.6-12.4-2.1c-6-1.6-9.9-3.2-11.8-4.2c2.2,0,6.4,0.6,12.4,2.1
					S-461.9,687.6-460,688.7z"/>
			</g>
			<g id="XMLID_163_">
				<g id="XMLID_330_">
					<g id="XMLID_342_">
						<g id="XMLID_350_">
							<path id="XMLID_351_" class="st0" d="M-517,668.4c-3-1.2-4.7-2.2-3.7-2.4s4.5,0.8,7.6,2c3,1.2,4.3,2.1,3.1,2.2
								C-511.2,670.3-514.2,669.5-517,668.4z"/>
						</g>
						<g id="XMLID_347_">
							<path id="XMLID_349_" class="st0" d="M-431.8,696.2c-1.8-0.5-2.6-0.9-1.8-0.9c0.9,0,3.2,0.4,5.2,0.9s2.7,0.9,1.7,0.9
								C-427.8,697.1-430,696.7-431.8,696.2z"/>
							<path id="XMLID_348_" class="st0" d="M-512.1,674.9c-1.8-0.5-4-1.2-4.9-1.7s-0.1-0.5,1.8,0c2,0.5,4.2,1.3,5,1.8
								C-509.4,675.5-510.3,675.4-512.1,674.9z"/>
						</g>
						<g id="XMLID_345_">
							<path id="XMLID_346_" class="st0" d="M-425,692.8c-2.9-0.4-6-1.2-7-1.8s0.5-0.8,3.6-0.4c3.3,0.4,6.7,1.4,7.6,2
								C-420,693.1-421.9,693.2-425,692.8z"/>
						</g>
						<g id="XMLID_343_">
							<path id="XMLID_344_" class="st0" d="M-463.6,677.5c-0.4,0.7-3.4,0.5-6.7-0.4c-3.3-0.9-6.1-2.2-6.2-3.1
								c-0.1-0.9,2.9-0.9,6.8,0.1C-465.9,675.3-463.2,676.8-463.6,677.5z"/>
						</g>
					</g>
					<g id="XMLID_331_">
						<g id="XMLID_340_">
							<path id="XMLID_341_" class="st0" d="M-502.9,668.9c-2.3-1.3-2-2.1,0.8-1.6c3,0.5,7.2,2,9.2,3.3c1.9,1.2,1.1,1.7-1.6,1.3
								C-497.1,671.4-500.8,670.1-502.9,668.9z"/>
						</g>
						<g id="XMLID_337_">
							<path id="XMLID_339_" class="st0" d="M-442,695.1c-1.2-0.4-1.3-0.6-0.2-0.4c1.2,0.2,3.2,0.6,4.5,1c1.2,0.4,1.2,0.6,0,0.4
								C-438.9,695.9-440.8,695.5-442,695.1z"/>
							<path id="XMLID_338_" class="st0" d="M-518.2,671c-2.5-0.8-4.8-1.8-5.1-2.2c-0.3-0.4,1.7-0.1,4.5,0.8
								c2.7,0.9,4.9,1.8,4.9,2.2C-513.8,672.1-515.8,671.8-518.2,671z"/>
						</g>
						<g id="XMLID_334_">
							<path id="XMLID_336_" class="st0" d="M-425.1,695.8c-2.5-0.5-4.3-1.2-4.1-1.4c0.2-0.3,2.6,0,5.3,0.6c2.8,0.6,4.6,1.3,4.2,1.5
								C-420.2,696.6-422.6,696.3-425.1,695.8z"/>
							<path id="XMLID_335_" class="st0" d="M-503.1,678.8c-1.2-0.3-3.1-0.8-4.3-1.3c-1.2-0.5-1.1-0.6,0.2-0.4
								c1.3,0.3,3.3,0.9,4.4,1.4C-501.7,679-501.8,679.1-503.1,678.8z"/>
						</g>
						<g id="XMLID_332_">
							<path id="XMLID_333_" class="st0" d="M-436.8,686.5c-2.5,0-6.3-0.8-8.7-1.7c-2.5-0.9-2.9-1.8-0.7-1.9
								c2.4-0.1,6.8,0.7,9.5,1.8C-434,685.8-434.2,686.6-436.8,686.5z"/>
						</g>
					</g>
				</g>
			</g>
		</g>
		<path id="XMLID_112_" class="st7" d="M-460,688.7l-7.1,55.4c-1.7,13.6-13.5,23.7-27.2,23.2l-9.9-0.3
			c-13.8-1.9-21.1-17.4-13.8-29.2l33.9-55.4L-460,688.7z"/>
		<path id="XMLID_67_" class="st4" d="M-481.5,752.1c0.2-0.2,0.3-0.4,0.4-0.8l0,0c0-0.2,0.1-0.4,0.1-0.5c0.1-0.2,0.1-0.4,0.2-0.5
			c0.4-1.4,0.8-2.7,1.8-3.8c1.2,0.4,2.6-0.2,2.6-0.2c0.1,0,0.2-0.2,0.1-0.3c0-0.1-0.1-0.2-0.2-0.2c-1.3,0-2.3-0.7-2.7-1.1l0,0v-0.1
			c0-0.4-0.1-0.9-0.1-1.3l0,0c0-0.2-0.2-0.4-0.4-0.4c-0.2-0.1-0.4,0-0.5,0.2l-0.4,0.5l0,0c-0.1-0.1-0.3-0.2-0.4-0.3
			c-1.3-0.9-1.7-1.5-2.1-2.9c-0.7-2.1-1.4-3.7-2.3-5.1c-1-1.5-0.9-1.6-0.5-3.1c0-0.2,0.1-0.3,0.1-0.5c0.4-1.4,0.7-2.8,0.5-4.4
			c-0.2-1.3-0.5-2.9-1.9-4v-0.1c0-0.8-0.1-2.8-0.5-3.9c-0.2-0.4-0.4-0.7-0.6-1c-0.4-0.6-0.7-1-0.2-2c0.6-1,0.9-1.5,1.1-2.4
			c0-0.2,0-0.3-0.1-0.4s-0.3-0.1-0.4,0c-0.6,0.3-1.2,0.7-1.5,1.2c-0.3,0.5-0.3,1-0.3,1.4c0,0.2,0,0.3,0,0.5
			c-0.1,0.9,0.2,1.3,0.5,1.8c0.1,0.2,0.3,0.5,0.4,0.8c0.3,0.6,0.4,1.1,0.5,1.7c0.1,0.8-0.4,1.6-1.2,1.9c-0.2,0.1-0.4,0.2-0.5,0.2
			l0,0l0,0c-2.1,0.7-3.7,1.1-5.4-0.3c-0.3-0.3-0.7-0.5-1.1-0.5c-0.3-0.1-0.6-0.1-0.9-0.1c-1.2-0.2-2.4-0.4-3.4-1
			c-0.2-0.1-0.4-0.1-0.7-0.1h-0.3c-0.4,0-0.9,0-1.4,0c-0.3,0-0.7,0.2-0.9,0.4c0,0.1-0.1,0.1-0.1,0.3c-0.1,0.3,0,0.6,0.1,0.8
			c0.2,0.2,0.5,0.3,0.8,0.2c0.8-0.2,1.7,0,2.7,0.5c0.6,0.3,1.1,1,1.6,1.7c0.3,0.5,0.7,0.9,1.1,1.3c-1.4,0.7-2.5,1-3.5,0.9
			c-0.1,0-0.3,0-0.4,0c-0.8,0-1.5-0.1-2.3,0.5c-0.1,0.1-0.2,0.1-0.3,0.2c-0.2,0.1-0.4,0.2-0.5,0.4c-0.2,0.3-0.1,0.7,0.2,0.9
			c0.3,0.2,0.6,0.3,0.9,0.1c0.6-0.4,1.3-0.8,2.1-0.7s1.6,0,2.4,0c0.2,0,0.5,0,0.7,0c0.3,0,2.5-0.1,1.4,4.3c-0.3,1.1-0.3,4.2,0.1,5.2
			c0.1,0.1,0.1,0.2,0.2,0.3c0.2,0.3,0.3,0.7,0.4,1c0.2,0.7,0,1.6-0.4,1.7c-0.2,0.1-0.5,0.2-0.7,0.2c-1,0.4-2.1,0.7-3.1,0.9
			c-0.7,0.1-1.6,0.9-2.1,1.3c-0.2,0.2-0.3,0.5-0.2,0.8l0,0l0,0c0.1,0.2,0.3,0.4,0.5,0.5c0.2,0.1,0.5,0,0.7-0.1c1.3-1,2.7-1,4.2-1.1
			c0.3,0,0.5,0,0.8,0l0,0c0.2,0,0.3,0,0.3,0c-0.1,0.1-0.3,0.2-0.4,0.3c-0.1,0.1-0.2,0.1-0.2,0.2h-0.1l-0.6,0.4c-0.5,0.3-1,0.7-1.5,1
			c-0.5,0.4-0.9,1-1.2,1.6c-0.2,0.3-0.3,0.6-0.5,0.8c-0.2,0.3-0.2,0.6,0,0.9l0,0c0.2,0.3,0.5,0.5,0.8,0.4c0.3,0,0.6-0.2,0.8-0.5
			c0.6-1.4,1.5-2.2,2.9-2.6c0.9-0.3,1.7-0.1,2.4,0.4c0.8,0.7,1.7,0.9,2.7,0.6c0.9-0.2,2,0,3,0.3c0.6,0.2,1.3,0.3,1.9,0.4
			c0.6,0,1,0.3,1.2,0.7c0.2,0.6,0.5,1.1,0.7,1.7c0.1,0.3,0.3,0.7,0.4,1l0,0c0.1,0.2,0.2,0.4,0.4,0.6c0.4,0.3,0.9,0.5,1.4,0.7
			C-482.1,752.2-481.7,752.3-481.5,752.1z"/>
		<path id="XMLID_65_" class="st8" d="M-477.6,721c-0.7-0.4-1.3,0.8-0.6,1.2C-477.5,722.5-476.9,721.4-477.6,721z"/>
		<path id="XMLID_64_" class="st8" d="M-506.6,734.7c-0.7-0.4-1.3,0.8-0.6,1.2C-506.4,736.2-505.9,735.1-506.6,734.7z"/>
		<path id="XMLID_63_" class="st8" d="M-487,697.2c-0.7-0.4-1.3,0.8-0.6,1.2C-486.8,698.7-486.2,697.6-487,697.2z"/>
		<path id="XMLID_62_" class="st8" d="M-489.3,758.7c-0.7-0.4-1.3,0.8-0.6,1.2C-489.1,760.3-488.6,759.1-489.3,758.7z"/>
		<path id="XMLID_61_" class="st8" d="M-518.9,757.7c-0.7-0.4-1.3,0.8-0.6,1.2C-518.8,759.2-518.2,758-518.9,757.7z"/>
		<path id="XMLID_60_" class="st8" d="M-498.5,770.2c-0.7-0.4-1.3,0.8-0.6,1.2C-498.3,771.7-497.7,770.6-498.5,770.2z"/>
		<path id="XMLID_59_" class="st8" d="M-471.9,695.1c-0.7-0.4-1.3,0.8-0.6,1.2C-471.7,696.6-471.2,695.4-471.9,695.1z"/>
		<path id="XMLID_58_" class="st8" d="M-481,706.3c-1-0.5-1.7,1.1-0.7,1.5C-480.7,708.3-480,706.8-481,706.3z"/>
		<path id="XMLID_57_" class="st8" d="M-510.8,745.7c-1-0.5-1.7,1.1-0.7,1.5C-510.5,747.7-509.8,746.2-510.8,745.7z"/>
		<path id="XMLID_56_" class="st8" d="M-486.2,775.7c-1-0.5-1.7,1.1-0.7,1.5C-485.9,777.7-485.2,776.2-486.2,775.7z"/>
		<path id="XMLID_55_" class="st8" d="M-480.3,688.8c-1-0.5-1.7,1.1-0.7,1.5C-480.1,690.9-479.3,689.3-480.3,688.8z"/>
		<path id="XMLID_54_" class="st8" d="M-485.6,733c-1-0.5-1.7,1.1-0.7,1.5C-485.4,735-484.6,733.5-485.6,733z"/>
		<path id="XMLID_53_" class="st8" d="M-497.4,716.6c-1-0.5-1.7,1.1-0.7,1.5C-497.1,718.7-496.4,717.1-497.4,716.6z"/>
	</g>
</g>
<g id="XMLID_74_" class="st9">
	<path id="XMLID_118_" class="st10" d="M-461.8,721.4c0,0,0.2,2.4,0.2,6c0.1,3.6,0.1,8.5-0.1,13.3c-0.1,1.2-0.1,2.4-0.2,3.6
		c0,1.2-0.1,2.4-0.3,3.5c-0.2,1.1-0.4,2.2-0.6,3.3c-0.1,0.5-0.3,1-0.4,1.5c-0.2,0.5-0.3,0.9-0.5,1.4c-0.3,0.9-0.7,1.7-1,2.4
		c-0.2,0.3-0.4,0.7-0.5,0.9c-0.2,0.3-0.4,0.5-0.5,0.8c-0.4,0.4-0.6,0.8-0.9,1c-0.2,0.2-0.3,0.3-0.3,0.3l-0.2-0.2
		c0,0,0.1-0.1,0.1-0.4c0.1-0.2,0.2-0.7,0.3-1.1c0.1-0.5,0.2-1.1,0.3-1.8s0.2-1.5,0.3-2.4c0.1-0.9,0.2-1.8,0.3-2.8
		c0.1-1,0.2-2.1,0.4-3.2c0.3-2.2,0.8-4.5,1.1-6.9c0.7-4.7,1.1-9.5,1.4-13.1c0.3-3.6,0.5-6,0.5-6L-461.8,721.4z"/>
</g>
<g id="XMLID_66_">
	<path id="XMLID_132_" class="st10" d="M-487.5,773.3c0,0-1.4,0.4-3.5,0.9s-4.9,1.1-7.7,1.5c-1.4,0.2-2.9,0.5-4.2,0.6
		c-1.4,0-2.7-0.2-3.8-0.5c-0.6-0.2-1.1-0.4-1.5-0.6c-0.2-0.1-0.4-0.2-0.6-0.3c-0.2-0.1-0.3-0.2-0.5-0.3c-0.3-0.2-0.5-0.4-0.6-0.6
		s-0.2-0.2-0.2-0.2l0.2-0.2c0,0,0.4,0.1,0.9,0.1c0.3,0,0.7,0,1.1,0s0.9-0.1,1.4-0.1c1-0.1,2.2-0.2,3.5-0.2c1.3,0,2.7,0.2,4.1,0.2
		s2.8-0.1,4.1-0.1s2.6-0.1,3.6-0.1c2.1-0.1,3.6-0.2,3.6-0.2L-487.5,773.3z"/>
</g>
<g id="XMLID_81_">
	<path id="XMLID_121_" class="st10" d="M-505.8,709.5c0,0-0.5,0.8-1.4,2.2c-0.4,0.7-1,1.5-1.6,2.4c-0.6,0.9-1.4,1.9-2.2,3
		c-0.8,1.1-1.7,2.3-2.7,3.5c-1,1.2-2.2,2.4-3.4,3.6c-1.2,1.3-2.3,2.6-3.3,4.2c-1,1.5-1.9,3.1-2.6,4.8c-0.4,0.8-0.8,1.7-1.1,2.5
		c-0.4,0.8-0.7,1.7-1.1,2.5c-0.8,1.6-1.4,3.3-2,4.8c-0.3,0.8-0.6,1.6-0.9,2.3c-0.3,0.8-0.5,1.5-0.8,2.2c-0.5,1.4-0.9,2.8-1.2,4.1
		c-0.1,0.6-0.3,1.3-0.4,1.9c-0.1,0.6-0.2,1.2-0.2,1.7s-0.1,1-0.1,1.5s0,0.9,0,1.3c0,0.8,0.1,1.4,0.1,1.8c0,0.4,0.1,0.7,0.1,0.7
		l-0.3,0.1c0,0-0.1-0.2-0.3-0.6c-0.2-0.4-0.5-1-0.8-1.8c-0.1-0.4-0.3-0.9-0.4-1.4c-0.1-0.5-0.2-1-0.3-1.6c-0.1-0.6-0.1-1.2-0.1-1.9
		c0-0.7,0-1.4,0.1-2.1c0.1-0.7,0.2-1.5,0.3-2.2c0.1-0.8,0.3-1.5,0.5-2.4c0.2-0.8,0.5-1.6,0.8-2.4c0.3-0.8,0.6-1.6,1-2.4
		c0.7-1.6,1.6-3.2,2.5-4.8c0.9-1.6,2-3.1,3.2-4.6c1.1-1.5,2.3-3,3.3-4.5c1.1-1.5,1.9-3.1,2.8-4.6c0.9-1.5,1.7-3,2.6-4.3
		c0.9-1.3,1.9-2.4,2.9-3.5c1-1,1.8-2,2.7-2.7c0.8-0.8,1.6-1.4,2.2-2c1.3-1,2.1-1.5,2.1-1.5V709.5z"/>
</g>
<g id="XMLID_3_">
	<path id="XMLID_4_" class="st4" d="M-434,664.8c0,0-0.9-0.3-2.5-0.8c-0.8-0.2-1.7-0.6-2.7-0.9c-1-0.3-2.2-0.9-3.5-1.3
		c-1.3-0.5-2.7-1-4.1-1.7c-1.4-0.7-2.9-1.5-4.4-2.3c-1.6-0.8-3.1-1.5-4.9-2.1c-1.7-0.6-3.5-1-5.3-1.3c-0.9-0.2-1.9-0.3-2.7-0.4
		c-0.9-0.2-1.8-0.2-2.7-0.4c-1.8-0.4-3.6-0.5-5.2-0.7c-0.9-0.1-1.7-0.2-2.5-0.3c-0.9-0.1-1.6-0.1-2.3-0.2c-1.5-0.1-2.9-0.1-4.3-0.1
		c-0.6,0.1-1.3,0.1-1.9,0.1c-0.6,0.1-1.2,0.1-1.7,0.3s-1,0.2-1.5,0.3c-0.5,0.1-0.9,0.2-1.3,0.3c-0.8,0.2-1.3,0.5-1.7,0.6
		c-0.4,0.1-0.6,0.3-0.6,0.3l-0.2-0.3c0,0,0.2-0.1,0.5-0.4c0.3-0.3,0.8-0.7,1.5-1.2c0.4-0.2,0.8-0.5,1.2-0.8c0.5-0.2,0.9-0.5,1.5-0.7
		c0.6-0.3,1.1-0.4,1.8-0.6c0.7-0.2,1.4-0.4,2.1-0.5c0.7-0.1,1.5-0.2,2.2-0.3c0.8-0.1,1.5-0.1,2.4-0.1c0.8,0,1.7,0.1,2.5,0.1
		c0.9,0.1,1.7,0.2,2.6,0.3c1.7,0.3,3.5,0.7,5.3,1.2c1.8,0.4,3.5,1.1,5.3,1.9c1.7,0.7,3.5,1.4,5.2,2c1.7,0.7,3.5,1,5.2,1.5
		c1.7,0.5,3.3,0.9,4.8,1.4c1.5,0.5,2.8,1.2,4.1,1.9c1.2,0.7,2.4,1.2,3.3,1.9c1,0.6,1.8,1.2,2.5,1.6c1.3,1,2,1.6,2,1.6L-434,664.8z"
		/>
</g>
<g id="XMLID_5_">
	<path id="XMLID_6_" class="st3" d="M-442.9,674.1c0,0,2.3,0.7,5.7,2c3.4,1.2,8,2.9,12.4,4.8c1.1,0.5,2.2,0.9,3.3,1.5
		c1.1,0.4,2.2,0.9,3.2,1.5c1,0.6,1.9,1.2,2.9,1.7c0.4,0.3,0.8,0.6,1.3,0.9c0.4,0.4,0.7,0.6,1.1,1c0.7,0.6,1.3,1.3,1.9,1.8
		c0.2,0.3,0.5,0.6,0.7,0.8c0.2,0.3,0.3,0.6,0.6,0.8c0.2,0.5,0.5,0.8,0.6,1.2c0.1,0.3,0.2,0.4,0.2,0.4l-0.3,0.1c0,0-0.1-0.1-0.3-0.2
		c-0.2-0.2-0.6-0.4-0.9-0.7c-0.4-0.3-1-0.6-1.6-0.9s-1.3-0.7-2.1-1.1c-0.8-0.4-1.6-0.8-2.5-1.3c-0.9-0.5-1.9-0.9-2.8-1.5
		c-1.9-1.1-3.9-2.4-6.1-3.5c-4.1-2.3-8.5-4.4-11.7-6s-5.4-2.6-5.4-2.6L-442.9,674.1z"/>
</g>
<g id="XMLID_7_">
	<path id="XMLID_8_" class="st11" d="M-487.9,665.5c0,0-2.4-0.7-6.2-1.5c-3.7-0.9-8.8-2-13.8-2.8c-1.3-0.2-2.5-0.4-3.8-0.6
		c-1.2-0.3-2.5-0.4-3.7-0.5c-1.2,0-2.4-0.1-3.5-0.1c-0.5,0-1.1,0.1-1.6,0.1c-0.6,0.1-1,0.1-1.6,0.2c-1,0.1-1.9,0.3-2.7,0.5
		c-0.4,0.1-0.8,0.2-1,0.3c-0.4,0.1-0.6,0.3-0.9,0.3c-0.5,0.3-1,0.4-1.2,0.7c-0.2,0.2-0.4,0.2-0.4,0.2l0.2,0.2c0,0,0.1-0.1,0.4,0
		c0.2-0.1,0.8,0,1.2-0.1c0.5,0,1.2,0,1.9,0.1c0.7,0.1,1.6,0.1,2.5,0.2c1,0.1,1.9,0.2,3,0.3c1.1,0.1,2.2,0.3,3.4,0.3
		c2.3,0.2,4.8,0.2,7.4,0.4c5,0.3,10.1,1,13.8,1.5c3.8,0.5,6.3,0.8,6.3,0.8L-487.9,665.5z"/>
</g>
<path class="st1" d="M-468,642.3c0,0,10,1.8,9.2,1.5s-16.8,3-16.8,3L-468,642.3z"/>
</svg>
