<?xml version="1.0" encoding="utf-8"?>
<!-- Generator: Adobe Illustrator 19.0.0, SVG Export Plug-In . SVG Version: 6.00 Build 0)  -->
<svg version="1.1" id="Layer_1" xmlns="http://www.w3.org/2000/svg" xmlns:xlink="http://www.w3.org/1999/xlink" x="0px" y="0px"
	 viewBox="0 0 242.2 151.1" style="enable-background:new 0 0 242.2 151.1;" xml:space="preserve">
<style type="text/css">
	.st0{opacity:0.5;}
	.st1{fill:#27AAE1;}
	.st2{fill:#FFFFFF;}
	.st3{fill:#2B3990;}
	.st4{fill:#4E4E4E;}
	.st5{fill:#3C4D85;}
</style>
<g id="XMLID_74_" class="st0">
	<path id="XMLID_72_" class="st1" d="M89.4,72.3c0,0,0.7,4,1.4,8.1c0.2,1,0.5,2,0.7,2.9c0.1,0.5,0.1,0.9,0.1,1.3c0,0.4,0,0.8,0,1.2
		c0,0.4,0,0.7-0.1,1c0,0.3,0,0.6-0.1,0.8c0,0.5,0,0.7,0,0.7l-0.2,0.2c0,0-0.3-0.1-0.7-0.5c-0.2-0.2-0.4-0.4-0.6-0.7
		c-0.2-0.3-0.4-0.6-0.6-1c-0.4-0.8-0.7-1.7-0.9-2.7c-0.1-1,0-2.1,0-3.1c0-1,0-2.1,0.1-3.1c0.1-1,0.1-1.9,0.2-2.7
		c0.2-1.6,0.3-2.6,0.3-2.6L89.4,72.3z"/>
</g>
<g id="XMLID_66_">
	<path id="XMLID_70_" class="st1" d="M100.2,94.2c0,0,0.6-0.1,1.5-0.2c0.9-0.1,2.1-0.2,3.3-0.3c0.6,0,1.2-0.3,1.7-0.3
		c0.3,0,0.5,0,0.7,0.1c0.2,0.1,0.4,0.1,0.7,0.2c0.2,0.1,0.4,0.2,0.6,0.2c0.2,0.1,0.3,0.2,0.4,0.2c0.2,0.1,0.5,0.2,0.5,0.2l0.2,0.2
		c0,0,0,0.1,0,0.2c0,0.1-0.1,0.3-0.2,0.4c-0.1,0.1-0.3,0.3-0.5,0.5c-0.2,0.1-0.4,0.3-0.7,0.4c-0.5,0.2-1.1,0.4-1.7,0.4
		c-0.6,0-1.2-0.3-1.8-0.5c-0.6-0.2-1.2-0.3-1.8-0.5c-0.6-0.2-1.1-0.4-1.5-0.5c-0.9-0.3-1.4-0.6-1.4-0.6L100.2,94.2z"/>
</g>
<g id="XMLID_81_">
	<path id="XMLID_73_" class="st1" d="M108.1,67.1c0,0,0.5,0.1,1.1,0.5c0.7,0.4,1.5,0.9,2.4,1.8c0.4,0.4,0.9,0.9,1.3,1.5
		c0.4,0.6,0.6,1.3,0.9,2c0.3,0.7,0.6,1.5,1,2.1c0.4,0.6,1,1.2,1.6,1.8c0.6,0.6,1.2,1.2,1.6,1.9c0.5,0.7,0.9,1.4,1.2,2.1
		c0.4,0.7,0.6,1.4,0.8,2.2c0.2,0.7,0.2,1.4,0.2,2.1c0,0.7-0.1,1.3-0.2,1.8c-0.1,0.5-0.3,1-0.5,1.3c-0.2,0.4-0.4,0.6-0.5,0.8
		c-0.1,0.2-0.2,0.2-0.2,0.2l-0.3-0.1c0,0,0-0.1-0.1-0.3c0-0.2,0-0.5-0.1-0.8c0-0.2-0.1-0.3-0.1-0.5c-0.1-0.2-0.1-0.4-0.2-0.6
		c-0.1-0.4-0.3-0.9-0.5-1.4c-0.2-0.5-0.4-1-0.6-1.6c-0.2-0.6-0.4-1.2-0.7-1.9c-0.2-0.7-0.4-1.4-0.7-2.1c-0.3-0.7-0.5-1.5-0.7-2.2
		c-0.2-0.8-0.5-1.5-0.9-2.2c-0.4-0.7-1-1.2-1.6-1.6c-0.6-0.5-1.2-0.9-1.7-1.4c-0.5-0.5-0.8-1-1.1-1.5c-0.6-1-1.1-1.9-1.4-2.6
		c-0.3-0.7-0.4-1.1-0.4-1.1L108.1,67.1z"/>
</g>
<g id="XMLID_61_">
	<g id="XMLID_75_">
		<path id="XMLID_59_" class="st2" d="M190.6,19.6c1.4-1.4,5-2.8,5-2.8l9.6,0.3l-1.2,2.8l-8-0.5l-29.4,34l3.1,5l7.5,1l-2,2.6
			l-12.5,1.7l-1.4,1.6c0,0-2.8-0.4-5.6,0c-2.8,0.4-3.9,4.1-3.9,4.1l10.7,0.9l3.2,2.2l-4.5,7.6l-2.7-4.2L135,75.9l-0.3,1l14.6,2.8
			l-2,7.8l-5.4-1.2l-9.7,6L91.9,73c0,0-7.6-3.1-13.7-3.7c-6.1-0.6-6.5,2.6-6.5,2.6l2.7,9.1L49,79.9l-4.4-1.6l3.8-11.1L32,73.7
			c1.8-1.8,3.8-3,3.8-3L50.1,62c7.3-6.7,10.8-5.1,10.8-5.1l84.1,7.5l2-5.2C154.9,52.1,189.4,20.9,190.6,19.6z"/>
		<path id="XMLID_58_" class="st3" d="M48.5,67.1l-3.8,11.1l4.4,1.6L74.4,81l-2.7-9.1c0,0,0.3-3.2,6.5-2.6
			c6.1,0.6,13.7,3.7,13.7,3.7l40.3,19.3l9.7-6l5.4,1.2l2-7.8l-14.6-2.8l0.3-1l23.4,0.3l2.7,4.2l4.5-7.6l-3.2-2.2l-10.7-0.9
			c0,0,1.1-3.7,3.9-4.1c2.8-0.4,5.6,0,5.6,0l1.4-1.6l12.5-1.7l2-2.6l-7.5-1l-3.1-5l29.4-34l8,0.5l1.2-2.8l-9.6-0.3
			c0,0-3.7,1.4-5,2.8c-1.2,1.3-35.7,32.4-43.6,39.6l0.6-1.6c0,0,39.3-37.2,42.2-39.4c2.9-2.2,6-2.4,6-2.4h11.4l-1.4,5.8l-3,0.4
			l-0.7,0.5l5,1.5l-22.9,35.8l-5.4-0.7l-2.8,4.3l-10.8,2.9l5.9,0.8c2.5,1.3,0.6,3.8,0.6,3.8h-2.6c2.9,2.6,2.6,6.8,2.6,6.8l6.2,0.9
			l2.9,1.2l2.9,3.4l-1,4.7l-3.7,0.8l-8.3-0.2l-0.2,0.9c4-1.1,3.4,0.7,3.4,0.7c2.3,6.5-2.5,7.1-2.5,7.1l-4.5-2.5l0.6,2.6l-0.7,1.9
			l10.4,5l-13.3,2.6l30.2,11.8h-11.4L46.6,88.1c0,0-12.5-2.4-16.2-7.2c-2-2.5-0.3-5.2,1.6-7.2L48.5,67.1z"/>
	</g>
	<polygon id="XMLID_57_" class="st2" points="199.9,22.4 195.6,22.4 182.3,37.1 185.1,42 	"/>
	<polygon id="XMLID_56_" class="st2" points="180.5,39.7 168.9,52.9 169.3,54.4 175.1,54.7 183.4,44.6 	"/>
	<path id="XMLID_55_" class="st4" d="M54.3,60.1L54.3,60.1c0.1-0.2,2.9-3.6,6.3-3.4l0,0.3c-3.1-0.2-5.7,2.9-6,3.2L53.4,64l76.9,8.2
		l1-5.2c0.5-1.7,2.4-2.8,4.2-3.3c0.3,0,0.5,0.1,0.8,0.1c-1.8,0.5-4.1,1.5-4.6,3.3l-1.1,5.4l-77.4-8.2l-0.2,0L54.3,60.1z"/>
	
		<ellipse id="XMLID_54_" transform="matrix(-0.9892 -0.1465 0.1465 -0.9892 329.3191 210.8288)" class="st5" cx="172.4" cy="93.3" rx="1.6" ry="3.3"/>
	<path id="XMLID_53_" class="st5" d="M161.6,88.9c-0.3,2,0.4,3.8,1.5,4c1.1,0.2,2.3-1.3,2.6-3.4c0.3-2-0.4-3.8-1.5-4
		C163,85.4,161.9,86.9,161.6,88.9z"/>
</g>
</svg>
