<?xml version="1.0" encoding="utf-8"?>
<!-- Generator: Adobe Illustrator 19.0.0, SVG Export Plug-In . SVG Version: 6.00 Build 0)  -->
<svg version="1.1" id="Capa_1" xmlns="http://www.w3.org/2000/svg" xmlns:xlink="http://www.w3.org/1999/xlink" x="0px" y="0px"
	 viewBox="115 -165.1 430.1 430.1" style="enable-background:new 115 -165.1 430.1 430.1;" xml:space="preserve">
<g id="oLQevd_1_">
	<g>
		<path d="M117.3,207.9c0-72.9,0-145.9,0-218.8c0.2-0.3,0.5-0.5,0.6-0.8c0.8-2.2,2.4-3.6,4.5-4.6c1.4-0.7,2.8-1.2,4.3-1.7
			c4.6-1.4,9.3-2,14-2.1c6-0.2,12-0.3,18-0.3c6,0.1,12,0.4,17.9,1.7c3,0.6,5.9,1.5,8.4,3.2c2.3,1.5,3.5,3.6,3.5,6.4
			c0,2.1,0,4.3,0,6.4c0,56.8,0,113.7,0,170.5c0,0.5,0,1.1,0,1.6c0,0.5,0.1,0.9,0.2,1.4c0.8,0,1.5,0,2.2,0c11.2,0,22.5,0,33.7,0
			c7.1,0,14.2-0.3,21.3-1c8.8-0.9,17.5-2.6,25.9-5.4c19.5-6.6,34.8-18.6,45.5-36.3c4.5-7.5,7.9-15.4,10.5-23.7
			c4.5-14.4,6.4-29.2,7-44.2c0.6-13.6,0.2-27.2-2-40.7c-1.6-10-4-19.9-7.8-29.3c-5.8-14.3-14.3-26.6-26.4-36.3
			c-13.7-11.1-29.5-17.2-46.9-19.6c-9.5-1.3-19.1-1.8-28.8-1.8c-27.9,0-55.8,0-83.7,0c-1.8,0-3.7,0-5.5-0.4
			c-7.8-1.6-13.3-5.8-15.3-13.9c-0.3-1-0.4-2.1-0.6-3.1c-0.2-0.9-0.4-1.7-0.7-2.5c0-5.6,0-11.2,0-16.7c0.2-0.8,0.6-1.7,0.7-2.5
			c1.2-8.1,5.8-13.2,13.5-15.6c2.7-0.8,5.5-1,8.3-1c29.6,0,59.2,0,88.7,0c18.3,0,36.5,1.2,54.6,4.6c14,2.6,27.6,6.6,40.6,12.5
			c20.8,9.4,38.6,22.8,52.6,41c11.8,15.4,19.9,32.7,25.1,51.4c4.6,16.4,6.8,33.2,7.4,50.3c0.7,21.7-0.4,43.2-4.6,64.5
			c-2.8,14.6-7.2,28.8-13.6,42.3c-7.4,15.6-17,29.6-29.7,41.5c-14.4,13.5-31.2,23.2-49.7,29.8c-17.6,6.3-35.8,9.6-54.4,11.4
			c-10.4,1-20.8,1.5-31.3,1.5c-28.9,0-57.9,0-86.8,0c-1.7,0-3.3-0.1-5-0.4c-8.5-1.7-14.5-6.9-15.8-16.3
			C117.9,209.6,117.6,208.7,117.3,207.9z"/>
		<path d="M496.9,228.9c-1-0.1-2-0.3-3-0.3c-4.8-0.2-9.5-0.6-14.1-1.8c-1.9-0.5-3.7-1.2-5.4-2.1c-2.6-1.4-3.9-3.7-3.9-6.7
			c0-0.5,0-1.1,0-1.6c0-76.6,0-153.1-0.1-229.7c0-6,2.6-8,6.5-9.6c3.4-1.4,7-2.1,10.7-2.5c10.4-1.2,20.9-1.1,31.3-0.3
			c3.8,0.3,7.6,0.9,11.2,2.1c1.7,0.6,3.3,1.3,4.9,2.2c2.5,1.4,3.8,3.7,3.7,6.6c0,0.6,0,1.2,0,1.8c0,76.4,0,152.9,0,229.3
			c0,0.4,0,0.7,0,1.1c0.2,4-1.7,6.5-5.2,8.1c-3.1,1.4-6.4,2.1-9.8,2.5c-3.2,0.4-6.5,0.5-9.8,0.8c-0.6,0-1.2,0.2-1.7,0.3
			C507.1,228.9,502,228.9,496.9,228.9z"/>
		<path d="M543.9-85.1c-0.1,0.9-0.3,1.9-0.3,2.8c-0.3,4.7-1.3,9.3-3.1,13.6c-2.2,5.2-6,8.9-11.3,11c-4.2,1.7-8.5,2.6-12.9,3.2
			c-8,0.9-16,0.9-24,0c-4.1-0.5-8.2-1.3-12.1-2.8c-5.5-2.1-9.3-5.8-11.5-11.2c-1.5-3.6-2.3-7.4-2.7-11.2c-0.7-6.9-0.7-13.8,0.3-20.6
			c0.5-3.6,1.4-7.1,2.9-10.4c2.3-5,6-8.6,11.1-10.7c4.2-1.7,8.6-2.6,13.1-3.2c2-0.2,4-0.5,6-0.7c3.8,0,7.6,0,11.4,0
			c1.9,0.2,3.9,0.5,5.8,0.7c4.4,0.5,8.8,1.4,12.9,3.1c5.2,2.1,8.8,5.7,11,10.8c1.8,4.2,2.8,8.6,3,13.1c0,0.9,0.2,1.7,0.3,2.6
			C543.9-91.7,543.9-88.4,543.9-85.1z"/>
	</g>
</g>
    <use id="Layer 6 copy" href="#img1" transform="matrix(1,0,0,1,0,0)"/>
</svg>
