<?xml version="1.0" encoding="utf-8"?>
<!-- Generator: Adobe Illustrator 19.0.0, SVG Export Plug-In . SVG Version: 6.00 Build 0)  -->
<svg version="1.1" id="Layer_1" xmlns="http://www.w3.org/2000/svg" xmlns:xlink="http://www.w3.org/1999/xlink" x="0px" y="0px"
	 viewBox="350 -100 800 300" style="enable-background:new 350 -100 800 300;" xml:space="preserve">
<style type="text/css">
	.st0{fill:#CBCBCB;}
	.st1{fill:#D9D9D9;}
	.st2{fill:#E4E4E4;}
	.st3{fill:#F0F0F0;}
	.st4{fill:#6A6A6A;}
	.st5{fill:#696969;}
	.st6{fill:#F6F6F6;}
	.st7{fill:#606060;}
	.st8{fill:#727272;}
	.st9{fill:#5E5E5E;}
	.st10{fill:#E2E2E2;}
	.st11{fill:#747474;}
	.st12{fill:#D2D2D2;}
	.st13{fill:#5D5D5D;}
	.st14{fill:#C9C9C9;}
	.st15{fill:#686868;}
	.st16{fill:#C1C1C1;}
	.st17{fill:#B7B7B7;}
	.st18{fill:#FAFAFA;}
	.st19{fill:#767676;}
	.st20{fill:#B4B4B4;}
	.st21{fill:#676767;}
	.st22{fill:#CACACA;}
	.st23{fill:#F9F9F9;}
	.st24{fill:#C8C8C8;}
	.st25{fill:#E5E5E5;}
	.st26{fill:#C7C7C7;}
	.st27{fill:#E0E0E0;}
</style>
<g id="_x31_hdRbI.tif">
	<g>
		<path class="st0" d="M754-3.4c20.1,0,40.2,0.1,60.3,0.1c2,1.8,0.4,3.4-0.4,4.8c-2.7,4.4-3.1,9.1-2.5,14.2c2.2-1.5,3.1-3.8,4.7-5.6
			c1.8-2.4,4.3-4.7,2.1-8.2c-0.6-1.7-3.3-3-0.7-5.1c19.5,0,39.1,0.2,58.6,0c4.6,0,7,1.4,8.5,5.9c8.1,23.5,16.7,46.8,24.7,70.4
			c3.1,9.1,7.2,17.4,13.8,24.5c-1.7,2.2-4.2,2-6.6,2.1c-11.8,0.2-23.5,0.1-35.3,0.1c-2.6,0-5.3,0.4-7.6-1.5
			c-6.6-1.9,1.5-2.5,0.4-3.9c0.9-2.3,2.7-4.1,3.9-6.3c1-6-2.3-10.8-4.4-16c-1-2.6-3.3-2-5.2-2.1c-2.7-0.2-5.3-0.1-8-0.1
			c-8.9,0-8.9,0-12.3,8.2c-1,3.8-3.6,7.2-2.7,11.4c0.7,3.2,3.5,5.2,4.9,8.1c-2.3,1.5-4.9,2.2-7.6,2.1c-6.9,0-13.9,0.1-20.8,0
			c-2.4,0-4.9,0.2-6.9-1.7c-0.2-3.8,4.1-5.2,4.8-8.5c0.8-1.4,1.1-3,1.7-4.5c1.4-2.6,2.2-5.6,3.4-8.3c0.5-1.3,0.9-2.6,1.4-3.9
			c1.3-2.8,0-4.5-2.4-6c-6.7-4.2-10.1-10.8-12.8-17c0.2,1.9,0.3,4.7,0.4,7.5c-0.5,3.6,4.7,6.4,1.5,10.4c-2,1-4.1,1-6.2,1
			c-7.7-0.1-15.3,0.6-23-0.3c-3.7-1.1-2.6-3.3-1.3-5.6c0.9-1.5,1.8-3.1,2.4-4.8c2.3-7.3,1.1-9-6.4-9.1c-3.7,0-7.4,0-11,0.1
			c-2.2,0-4.2,0.2-4.2,3.1c-0.3,2.2-1.2,4.2-1.2,6.4c-1,8.2-4.2,15.6-8.2,22.6c-11.1,16.9-25.5,29.4-46,33.4
			c-9.4,1.8-18.8,1-28.2,0.7c-12.6-2.5-23.6-8-32.9-16.8c-3.2-3-6.3-3.9-10.5-1.9c-5.5,2.6-11.3,3.2-17.4,3.2
			c-12.5-0.1-25,0-37.5-0.1c-2.6,0-5.4,0.5-7.6-1.5c-1.7-2.4,1.7-3,1.7-4.8c2.1-5,2.9-10.1,2.8-15.6c-0.1-17.6,0-35.2,0-52.8
			c0-7.9,0.6-15.9-2.7-23.5c-0.5-1.5-3.1-2.1-2.1-4c0.7-1.4,2.6-0.6,4-0.6c16.6-0.1,33.2-0.2,49.7-0.2c2-1.5,4.3-1.8,6.7-1.7
			c6.7,1.1,12.4-0.8,17.1-5.7c9.6-6.1,19.5-11.5,31-12.9c7.5-1.7,15-1.7,22.5,0c10.7,1.4,20.1,5.8,28.8,11.9c5.4,3.8,10.5,8,17.8,7
			C751.9-5,753.1-4.3,754-3.4z"/>
		<path class="st1" d="M575.3,1.5c3.6,2.2,4.5,5.6,4.5,9.5c0,24,0,48.1,0,72.1c0,4.2-1.2,7.7-4.6,10.2c-0.1-24.4-0.2-48.9-0.2-73.3
			c0-2.9-0.1-5.7-2.2-8C568.3,7.2,570.4,4,575.3,1.5z"/>
		<path class="st2" d="M878.8,89.3c-1.1,2.2-2.8,3.8-4.9,5c0.6-5-2.1-9.1-3.7-13.4c-0.7-1.9-2.3-2.8-4.3-2.8c-4.5,0-9,0.1-13.5,0
			c-3.2-0.1-4.2,1.8-4.9,4.4c-0.6,2.4-1.5,4.7-2.2,7c-2.5-4.2,1-7.6,1.6-11.4c1.3-1.9,2.3-4.1,4.7-4.9c4.6-0.8,9.3-0.2,14-0.5
			c5.8-0.3,9.1,2.4,10.7,7.8C877.1,83.5,878.3,86.3,878.8,89.3z"/>
		<path class="st3" d="M817.3-3.2c-0.5,2.1,1.7,3.1,2.1,4.8c0.6,3.3-3.8,5.4-2.2,8.9c-1.7,3.4-3.9,6.4-6.9,9.4
			c-2.6-8.8,0.4-16,4-23.1C815.3-3.2,816.3-3.2,817.3-3.2z"/>
		<path class="st4" d="M581.1,0.4c14,0,27.1,0,40.2,0c5.1,0,10.3,0.3,15.4-0.1c4.7-0.4,6.9,1.3,7,5.9c0,2.8,0.9,5.6-0.3,8.5
			c-10.9-3.8-22.1-1.2-33-1.9c-2.6-0.2-3.7,1.1-3.6,3.7c0.1,6,0.1,11.9,0,17.9c-0.1,3.9,1.7,4.3,5,3.8c5.9-0.8,11.9-2.1,17.7-1.5
			c15.6,1.4,24.9,15.9,21.6,32.5c-3.1,15.6-13,24-30,24.7c-11.9,0.5-23.8,0.2-35.8,0.2c-2.7,0-4.8-0.2-2.8-3.6
			c1.4-2.5,1.2-5.2,1.2-7.8c0-23.8,0-47.7,0-71.5C583.7,7.6,583.4,4.2,581.1,0.4z"/>
		<path class="st4" d="M914.2,93.9c-11.3,0-21.5,0-32.3,0c5-9.9-1.1-18-3.4-26.7c-0.6-2.2-2.5-2.5-4.4-2.5c-7.8,0-15.6,0.1-23.4-0.1
			c-3.1-0.1-4.5,1.3-5.2,4.1c-1.8,7.6-6.9,14.6-4.4,23.2c0.8,2.8-1.8,2.1-3.2,2.1c-4.9,0.1-9.8,0-14.8,0
			c11.7-25.9,19.1-53,28.1-79.5c0.9-2.5,2.4-5.2,1.6-7.7c-2.5-7.4,2.1-6.8,6.7-6.5c6.3,0.3,13.7-2.2,18.7,1.1
			c4.9,3.1,4.9,10.9,7,16.6c6.9,19.1,13.8,38.3,20.4,57.5C907.8,81.7,910.3,87.7,914.2,93.9z"/>
		<path class="st5" d="M654.9,69.3c9.7,14.6,21.4,24,38,26.5c25.9,3.9,50.3-12.5,57.1-38.7c2-7.7,2-15.4,0.4-23.2
			c-0.3-1.4-3.1-4.3,0.7-4.7c2.6-0.3,4.8,1.2,5.5,4.6c1.9,10.7,1.8,21.4-1.6,31.7c-16.6,50.1-75.3,59.8-107.5,28.3
			c-2.8-2.8-3.2-4.4-0.2-7.2C651.8,82.3,653.4,76.4,654.9,69.3z"/>
		<path class="st5" d="M648.9,41.3c-5.5-4.2-10.7-7.5-16.9-8.5c-1.2-0.2-2.4-0.4-2.8-2c-0.4-1.8,3.6-13,5.2-13.6c3-1,5.6,0.6,8,2.2
			c2.1,1.3,3.2,3.6,5.1,6.9c1.1-8.4,0.3-15.6,0.1-22.7c-0.1-3.4,0.7-5.8,3.3-8.1C675.2-25.2,713.6-24,736.6-2
			c4.2,4,5.8,8.1,4.3,14.6C725.2-3.3,707.3-11,685.2-4C663.2,3,652.6,19,648.9,41.3z"/>
		<path class="st5" d="M796.4,63.4c-6,1.7-5.9-1.5-5.8-7.4c0.5-17.4,1.1-34.9-0.4-52.4c0-0.4-0.4-1-0.2-1.2c3.5-4.1,8.2-1.2,12.3-2
			c2.6-0.5,4.1,0.8,3.3,3.5c-2.6,8.9-1,18.3-2,27.4c-0.8,7.5,0.6,16.1,1.1,24.2C805.3,63.4,805.4,63.4,796.4,63.4z"/>
		<path class="st5" d="M839.5,0.7c-5.9,7.5-10.9,14-16.2,20.2c-2.7,3.3-3.5,6-0.7,9.8c3,4.1,5,9,8.1,13c4.1,5.3,3.6,10.2,1.4,16
			c-1.8,4.5-4.1,4.1-6.9,1.9c-1.9-1.5-3.6-3.5-4.8-5.5c-3.9-6.8-7.5-13.7-11.3-20.5c-1.6-2.9-1.3-5.4,0.7-8
			c3.9-5,7.7-10.1,11.5-15.2c1.2-1.6,3.2-3.5,3.1-5.2c-0.4-9,5.9-6.7,10.8-6.8C836.3,0.4,837.2,0.6,839.5,0.7z"/>
		<path class="st5" d="M778.8,21.7c0,6-0.2,11.9,0.1,17.9c0.1,3.4-1.5,4.1-4.5,4.1c-2.8,0-4.9-0.4-4.4-4c0.2-1.2,0.1-2.5,0.1-3.7
			c-0.1-4.1,1.2-9.4-0.9-11.9c-1.9-2.3-6.9,1.4-10.7,1.8c-7.7,0.8-12.9-3.3-13.2-10.9c-0.1-2.9,0.5-5.9-0.1-8.6
			c-1.6-6.7,2.6-6,6.8-5.9c2.7,0.1,2.9,1.2,2.5,3.5c-0.5,2.8-0.5,5.7-0.4,8.6c0.3,7.4,3.5,9.9,10.7,8.9c3.7-0.5,5.4-2.2,5.2-6.1
			c-0.2-3.5,0.5-7.1-0.2-10.5c-0.8-4.4,1.3-4.4,4.6-4.5c3.8-0.1,4.9,0.8,4.5,4.7C778.4,10.5,778.8,16.1,778.8,21.7z"/>
		<path class="st6" d="M845.5,17.8c-2.8,8.7-5.5,17.5-8.6,27.1c-4.7-5.3-7.4-10.8-10.3-16c-0.9-3.6,1.9-5.5,3.7-7.9
			c2.5-3.3,5-6.5,7.7-9.5c1.5-1.6,3-3.7,5.7-2.4c2.3,1.2,2.9,3.2,2.3,5.7C845.8,15.8,846.1,16.9,845.5,17.8z"/>
		<path class="st4" d="M693.4,59.2c5-2.9,10.1-1.3,15-1.5c0.4,0,1.1,0.3,1.1,0.5c0.4,8.1,11.9,11.5,8.6,21.1
			c-0.6,1.8,0.3,4.3-2.6,4.8c-2.2,0.4-4.1-0.1-4.7-2.7c-0.6-2.7-2.9-1.6-4.5-2c-5.4-1.5-8-6.6-5.8-11.4c3-6.5,3-6.5-3.9-6.9
			C695.6,60.8,694.5,61,693.4,59.2z"/>
		<path class="st7" d="M700.2,43.5c-14,0-28,0-42,0c-1.7,0-4.6,0.8-4.5-1.7c0-2.4,2.9-1.6,4.6-1.6c28.2,0,56.4,0,84.6,0
			c1.5,0,4-0.9,4.2,1.3c0.2,2.7-2.6,2-4.2,2C728.6,43.5,714.4,43.5,700.2,43.5z"/>
		<path class="st7" d="M653.7,52.3c3,0,5,0,7.1,0c26.5,0,53.1,0,79.6,0c1.6,0,3.3-0.1,4.9,0.2c0.6,0.1,1.1,1,1.7,1.5
			c-0.6,0.5-1,1.4-1.7,1.5c-1.4,0.3-2.9,0.2-4.3,0.2c-26.7,0-53.5,0-80.2,0C658.5,55.7,655.8,56.5,653.7,52.3z"/>
		<path class="st8" d="M700.3,31.3c-12.8,0-25.5,0.1-38.3-0.1c-2,0-6,1.7-5.9-1.7c0.1-2.9,4.1-1.8,6.3-1.8c16-0.1,32.1,0,48.1,0
			c9.9,0,19.7,0,29.6,0c1.8,0,4.5-0.2,4.6,2c0,2.7-2.8,1.6-4.4,1.6C727,31.4,713.6,31.4,700.3,31.3
			C700.3,31.4,700.3,31.3,700.3,31.3z"/>
		<path class="st9" d="M661.5,18.4c5.6-4.2,72.8-3.9,77.1,0C712.9,18.4,687.7,18.4,661.5,18.4z"/>
		<path class="st0" d="M787.1,45.8c-3.4-2.9-4.7-5.5-4.7-9c0.1-9.8,0-19.6,0.1-29.5c0-1.9-0.7-4.9,2-4.9c2.4,0,2.4,3.1,2.5,4.9
			C787.2,19.7,787.1,32.2,787.1,45.8z"/>
		<path class="st10" d="M766.3,10.1c0,1.4,0,2.9,0,4.3c0.1,2.8-1.6,3.4-4,3.5c-4,0-5-2.6-4.7-5.7c0.5-4.5-2.3-10.5,4-12.9
			c2.3-0.9,4,1.8,4.5,4.1c0.4,2.2,0.1,4.5,0.1,6.7C766.3,10.1,766.3,10.1,766.3,10.1z"/>
		<path class="st11" d="M676.8,64.6c5.3,0,10.7,0,16,0c1.1,0,2.8-0.3,2.8,1.5c0,1.4-1.4,1.9-2.7,2c-4.1,0.1-8.2,0.1-12.3,0.1
			c-6.4,0-12.7,0-19.1,0c-1.5,0-3.3-0.3-3.4-1.9c-0.1-2.2,2-1.6,3.3-1.6C666.5,64.5,671.7,64.6,676.8,64.6z"/>
		<path class="st12" d="M845.5,17.8c-0.1-1.8,0.1-3.8-0.5-5.4c-0.9-2.3-2.4-3.9-4.9-1.3c-5.1,5.5-10.4,10.7-13.5,17.8
			c-2-2.2-0.9-4.1,0.6-5.9c4.8-6.1,9.6-12.2,14.5-18.2c1.1-1.4,2.1-4.1,4.7-2.5c2.1,1.3,3,3.5,2.5,5.9
			C848.1,11.5,847.5,14.9,845.5,17.8z"/>
		<path class="st13" d="M725.7,6c-16.6,0-33.2,0-49.8,0c0-0.6,0-1.1,0-1.7c16.5-1,33.1-0.6,49.6-0.3C725.6,4.8,725.6,5.4,725.7,6z"
			/>
		<path class="st14" d="M878.8,89.3c-3.7-2.1-3.4-6.3-4.6-9.7c-1.3-3.7-3.3-5.3-7.2-5.2c-5.5,0.2-11.1,0-16.6,0.1
			c-0.3-2.1,0.9-3.4,2.6-3.6c7.4-0.7,15-2.3,22.2,1.1C877.1,77.6,881.6,82.7,878.8,89.3z"/>
		<path class="st15" d="M666,76.8c10.8,0.4,20.8-0.8,30.5,1.7C687.7,81.8,670.1,80.7,666,76.8z"/>
		<path class="st16" d="M809.6,57.2c0-3.3,0-6.5,0-11.3c2.4,4.1,4.3,6.9,6,10c2.6,4.8,5.7,8.9,10.9,11.1c4.3,1.8,1.3,4.2,0.5,6.4
			c-5-1.7-8.5-5.3-11.4-9.5C813.9,61.4,811.9,59.1,809.6,57.2z"/>
		<path class="st17" d="M875.1,72c-6.4,0-12.7,0-19.1,0c-2.3,0-4.6-0.1-5.7,2.5c-1.2,1.2-2.4,2.4-3.5,3.7c2.5-9.7,2.5-9.7,12-9.7
			c3.9,0,7.8,0,11.7,0C872.9,68.5,875,68.8,875.1,72z"/>
		<path class="st18" d="M623.1,32.4c-3.6,1.1-7.3,1.4-11.1,1.2c-1.1-6.8,0.2-9.4,5.2-10c2.7-0.3,5.5-0.4,7.2,2.2
			C626,28.3,624.6,30.4,623.1,32.4z"/>
		<path class="st19" d="M743.3,64.6c-0.5,2.8-1.8,3.5-3.3,3.5c-5.3,0.1-10.7,0.1-16,0c-1.4,0-3.2-0.3-3-2.2c0.2-1.7,1.8-1.3,3-1.3
			C730.3,64.5,736.7,64.6,743.3,64.6z"/>
		<path class="st12" d="M761.7,45.6c-0.5-4.5-1-8.4-1.5-12.2c-0.3-2.6,0.9-4,3.3-4.1c2.7-0.1,2.5,2.1,2.6,3.9
			C766.4,37.6,766.1,41.8,761.7,45.6z"/>
		<path class="st20" d="M610.8,22.6c-0.9-4.5,0.6-6.5,5.4-6c3,0.3,6.1,0.1,9.2,0.1c3.8,0,4.9,1.4,2.7,4.8
			C622.4,22.1,616.5,21.3,610.8,22.6z"/>
		<path class="st18" d="M634.1-3.3c2.5-2.5,4.9-5,7.4-7.5c3.1,2.3,6.5,1.2,9.9,1.1C647-3.9,641.2-1.8,634.1-3.3z"/>
		<path class="st21" d="M715.6,89.3c-9.9,3.4-19.8,3.2-29.8,0C695.8,89.3,705.7,89.3,715.6,89.3z"/>
		<path class="st2" d="M623.1,32.4c-0.1-2.2,2.8-4.8-0.3-6.6c-2.4-1.4-5.3-1.2-7.7-0.2c-3.6,1.5-3.1,4.9-3,8c-2.6-2.5-1-5.7-1.1-8.5
			c3-3.4,11.8-5.2,15.3-3c1.2,0.7,1.4,1.9,0.7,3.1C626,27.8,627.2,31.5,623.1,32.4z"/>
		<path class="st15" d="M735.9,76.9c-5,5.1-9.9,3-14.3,3.2c-0.8,0-1.6-0.7-1.5-1.6c0.2-1.1,1.1-1.7,2.2-1.7
			C726.5,76.9,730.5,76.9,735.9,76.9z"/>
		<path class="st14" d="M626.9,25.1c-3.3-3.6-10.6-3.6-16.1-0.1c0-0.8,0-1.7,0-2.5c5.6-3.7,11.4-3.1,17.4-1.1
			C628,22.8,628.1,24.2,626.9,25.1z"/>
		<path class="st22" d="M606,64.6c0-2.3-0.2-4.5,0.1-6.8c0.5-3.6-2.2-8.4,4.4-9.6c7.7-1.5,13.4-0.2,16.1,5.2
			c3.5,6.9,3.7,14.3,0.8,21.5c-2.6,6.4-13.2,9.5-19.2,6.1c-1.9-1.1-2.2-2.8-2.2-4.7C606,72.4,606,68.5,606,64.6z"/>
		<path class="st22" d="M862.3,18.3c4,12,7.3,22.3,10.8,32.6c1,3-0.2,3.7-2.8,3.6c-5.3,0-10.7-0.1-16,0c-3.7,0.1-4.1-1.3-2.9-4.5
			C854.9,40.1,858.3,30,862.3,18.3z"/>
		<path class="st23" d="M619.4,77c-7.4,2.2-8.7,1.3-8.8-5.8c0-2.2,0.1-4.4,0.2-6.6c2.3-4.6,4.1-5.1,7.2-1.6
			C621.8,67.3,622,72,619.4,77z"/>
		<path class="st24" d="M610.8,59.7c0.6-2.6-2.2-6.6,2.8-7.4c4.7-0.7,8.9,0.3,10.2,5.5c1.2,5.1,2.2,10.4-0.7,15.5
			c-1.9-1.6-1.6-4-2.2-6.1C619.3,61.1,617.3,59.5,610.8,59.7z"/>
		<path class="st25" d="M610.8,59.7c4.9-2.7,9.3-1.1,10.8,4.1c0.9,3.1,1.8,6.2,1.5,9.6c-0.4,2.1-1.6,3.4-3.7,3.7
			c-0.7-4.2,1.4-8.8-2-12.7c-2.5-2.9-4.5-3.5-6.6,0.2C610.8,62.9,610.8,61.3,610.8,59.7z"/>
		<path class="st26" d="M857.9,44.8c0.6-4,2.5-7.6,4.1-11.8c2.8,4.4,3.5,9.3,5.2,13.7c0.7,1.8,0.3,3.2-2.1,3
			C862.7,48.1,861.5,44.6,857.9,44.8z"/>
		<path class="st27" d="M857.9,44.8c6.8-4.8,5.2,2.8,7.2,4.9c-1.4,0.1-2.8,0.1-4.2,0.3C856.1,50.5,855.8,48.4,857.9,44.8z"/>
	</g>
</g>
</svg>
