<?xml version="1.0" encoding="utf-8"?>
<!-- Generator: Adobe Illustrator 19.0.0, SVG Export Plug-In . SVG Version: 6.00 Build 0)  -->
<svg version="1.1" id="Layer_1" xmlns="http://www.w3.org/2000/svg" xmlns:xlink="http://www.w3.org/1999/xlink" x="0px" y="0px"
	 viewBox="-1148.5 -738.1 1973.3 1977" style="enable-background:new -1148.5 -738.1 1973.3 1977;" xml:space="preserve">
<style type="text/css">
	.st0{fill:#FFFFFF;}
</style>
<g id="_x32_By5VT_1_">
	<g id="XMLID_3_">
		<path id="XMLID_15_" class="st0" d="M829.8-734.2c0.5,515.4,1.1,1030.7,1.6,1546.1c-660.1,0.7-1320.2,1.4-1980.3,2.1
			c-0.5-508.1-1.1-1016.3-1.6-1524.4c1.2,0.1,2.4,0,3.6,0.3c53,12.7,106.7,21.8,160.8,28c69.6,8.1,139.3,15.6,209.1,21.3
			c66.6,5.5,133.4,9.3,200.2,12.2c75.9,3.3,151.8,5.6,227.8,7c148.3,2.7,296.7,1.3,444.9-3.9c90.9-3.2,181.7-7.5,272.3-14.9
			c52.6-4.3,105.1-9.2,157.5-14.6c60.7-6.2,121-14.6,181-26.1C748.5-709.1,790.1-718.3,829.8-734.2z"/>
	</g>
</g>
</svg>
