<?xml version="1.0" encoding="utf-8"?>
<!-- Generator: Adobe Illustrator 19.0.0, SVG Export Plug-In . SVG Version: 6.00 Build 0)  -->
<svg version="1.1" id="Layer_1" xmlns="http://www.w3.org/2000/svg" xmlns:xlink="http://www.w3.org/1999/xlink" x="0px" y="0px"
	 viewBox="350 -100 800 300" style="enable-background:new 350 -100 800 300;" xml:space="preserve">
<style type="text/css">
	.st0{fill:#FFFFFF;}
</style>
<g id="XMLID_47_">
	<path id="XMLID_77_" class="st0" d="M612.5,74.9l-6.9-25.2L595.5,73c-0.4,0.8-0.8,1.3-1.3,1.7c-0.5,0.4-1.1,0.6-1.9,0.6
		c-1.5,0-2.5-0.8-3.2-2.4l-10.1-23.3l-6.9,25.2h-6.2l9.2-33.7c0.4-1.7,1.5-2.6,3.1-2.6c0.7,0,1.3,0.2,1.8,0.5c0.6,0.4,1,0.9,1.3,1.6
		l11,25.3l11-25.3c0.6-1.4,1.6-2.1,3-2.1c1.5,0,2.5,0.9,3,2.6l9.2,33.7H612.5z"/>
	<path id="XMLID_74_" class="st0" d="M637.2,74.9c-2.5,0-4.8-0.5-6.9-1.4c-2.1-0.9-4-2.2-5.5-3.8c-1.6-1.6-2.8-3.6-3.6-5.8
		c-0.9-2.2-1.3-4.6-1.3-7.2c0-2.6,0.4-5,1.3-7.2c0.9-2.2,2.1-4,3.6-5.5c1.6-1.5,3.4-2.7,5.5-3.5c2.1-0.8,4.4-1.3,6.9-1.3h8.7
		c2.6,0,5,0.4,7.1,1.3c2.2,0.9,4,2.1,5.5,3.6c1.5,1.5,2.7,3.4,3.6,5.5c0.9,2.2,1.3,4.5,1.3,7.1c0,2.6-0.4,5-1.3,7.2
		c-0.9,2.2-2.1,4.2-3.6,5.8c-1.6,1.6-3.4,2.9-5.5,3.8c-2.1,0.9-4.5,1.4-7,1.4H637.2z M645.9,68.6c1.6,0,3.2-0.3,4.5-0.9
		c1.4-0.6,2.6-1.4,3.6-2.4c1-1,1.8-2.3,2.3-3.7c0.6-1.4,0.8-3,0.8-4.7c0-1.7-0.3-3.2-0.8-4.7c-0.6-1.4-1.3-2.7-2.3-3.7
		c-1-1-2.2-1.8-3.6-2.4c-1.4-0.6-2.9-0.9-4.5-0.9h-8.7c-1.6,0-3.1,0.3-4.5,0.9c-1.4,0.6-2.5,1.4-3.5,2.4c-1,1-1.8,2.2-2.3,3.6
		c-0.6,1.4-0.8,3-0.8,4.7c0,1.7,0.3,3.2,0.8,4.7c0.6,1.4,1.3,2.7,2.3,3.7c1,1,2.2,1.8,3.5,2.4c1.4,0.6,2.9,0.9,4.5,0.9H645.9z"/>
	<path id="XMLID_71_" class="st0" d="M679.2,74.9V45.3h-13.6V39h33.5v6.3h-13.6v29.6H679.2z"/>
	<path id="XMLID_68_" class="st0" d="M718.7,74.9c-2.5,0-4.8-0.5-6.9-1.4c-2.1-0.9-4-2.2-5.5-3.8c-1.6-1.6-2.8-3.6-3.6-5.8
		c-0.9-2.2-1.3-4.6-1.3-7.2c0-2.6,0.4-5,1.3-7.2c0.9-2.2,2.1-4,3.6-5.5c1.6-1.5,3.4-2.7,5.5-3.5c2.1-0.8,4.4-1.3,6.9-1.3h8.7
		c2.6,0,5,0.4,7.1,1.3c2.2,0.9,4,2.1,5.5,3.6c1.5,1.5,2.7,3.4,3.6,5.5c0.9,2.2,1.3,4.5,1.3,7.1c0,2.6-0.4,5-1.3,7.2
		c-0.9,2.2-2.1,4.2-3.6,5.8c-1.6,1.6-3.4,2.9-5.5,3.8c-2.1,0.9-4.5,1.4-7,1.4H718.7z M727.5,68.6c1.6,0,3.2-0.3,4.5-0.9
		c1.4-0.6,2.6-1.4,3.6-2.4c1-1,1.8-2.3,2.3-3.7c0.6-1.4,0.8-3,0.8-4.7c0-1.7-0.3-3.2-0.8-4.7c-0.6-1.4-1.3-2.7-2.3-3.7
		c-1-1-2.2-1.8-3.6-2.4c-1.4-0.6-2.9-0.9-4.5-0.9h-8.7c-1.6,0-3.1,0.3-4.5,0.9c-1.4,0.6-2.5,1.4-3.5,2.4c-1,1-1.8,2.2-2.3,3.6
		c-0.6,1.4-0.8,3-0.8,4.7c0,1.7,0.3,3.2,0.8,4.7c0.6,1.4,1.3,2.7,2.3,3.7c1,1,2.2,1.8,3.5,2.4c1.4,0.6,2.9,0.9,4.5,0.9H727.5z"/>
	<path id="XMLID_66_" class="st0" d="M783.4,74.9l-9.1-10h-18.5l-4.6-5.5h24.6c2.3,0,4-0.6,5.1-1.8c1.2-1.2,1.7-3,1.7-5.3
		s-0.6-4.1-1.8-5.2c-1.2-1.1-2.9-1.7-5.1-1.7h-19.5v29.6h-6.2V39h25.7c2,0,3.9,0.3,5.5,0.9c1.6,0.6,3,1.5,4.1,2.6
		c1.1,1.1,2,2.5,2.6,4.1c0.6,1.6,0.9,3.4,0.9,5.4c0,3-0.6,5.5-1.9,7.5c-1.3,2-3.1,3.5-5.4,4.4l10.8,10.9H783.4z"/>
	<path id="XMLID_64_" class="st0" d="M795.5,74.9V39h6.3v29.6h24.1v6.3H795.5z"/>
	<path id="XMLID_62_" class="st0" d="M867.7,74.9l-5.4-9H840l-2.9-5.1h22.3l-8-13.4l-16.3,27.5h-7.1l20.6-34.3
		c0.4-0.6,0.8-1.1,1.3-1.5c0.5-0.4,1.1-0.5,1.8-0.5c0.7,0,1.3,0.2,1.7,0.5s0.9,0.9,1.3,1.5l20.7,34.3H867.7z"/>
	<path id="XMLID_59_" class="st0" d="M879.1,74.9V39h26.2c1.7,0,3.3,0.2,4.8,0.6c1.4,0.4,2.7,1,3.7,1.8c1,0.8,1.8,1.7,2.4,2.9
		c0.6,1.2,0.8,2.5,0.8,4c0,1.2-0.1,2.2-0.4,3c-0.3,0.9-0.6,1.6-1.1,2.2c-0.5,0.6-1,1.1-1.6,1.5c-0.6,0.4-1.2,0.7-1.9,0.9
		c1.6,0.5,3,1.5,4,2.9c1.1,1.4,1.6,3.1,1.6,5.2c0,1.6-0.3,3.1-0.8,4.5c-0.5,1.3-1.3,2.5-2.3,3.4c-1,1-2.2,1.7-3.6,2.2
		c-1.4,0.5-3,0.8-4.8,0.8H879.1z M879.1,59.3l6-5.3h20.2c1.8,0,3.1-0.3,3.9-1c0.9-0.7,1.3-1.8,1.3-3.4c0-1-0.2-1.7-0.5-2.3
		c-0.4-0.6-0.9-1-1.6-1.3c-0.7-0.3-1.5-0.5-2.4-0.6c-0.9-0.1-2-0.1-3.1-0.1h-17.6v23.4h18.1c1.1,0,2.2-0.1,3.1-0.2
		c1-0.2,1.8-0.4,2.5-0.8s1.2-0.9,1.6-1.5c0.4-0.6,0.6-1.3,0.6-2.2c0-1.5-0.5-2.6-1.4-3.4c-0.9-0.8-2.3-1.2-4-1.2H879.1z"/>
	<path id="XMLID_57_" class="st0" d="M930.8,71.9c0,1-0.3,1.7-1,2.4c-0.7,0.6-1.5,1-2.4,1s-1.7-0.3-2.4-1c-0.6-0.6-0.9-1.4-0.9-2.4
		s0.3-1.8,0.9-2.4c0.6-0.6,1.4-1,2.4-1s1.8,0.3,2.4,1C930.5,70.2,930.8,71,930.8,71.9z"/>
	<path id="XMLID_50_" class="st0" d="M938.7,74.9V39h32v6.3h-25.8v23.3h25.8v6.3H938.7z M942.8,59.3l1.2-5.3h25.2v5.3H942.8z"/>
	<path id="XMLID_48_" class="st0" d="M1008.1,39h6.1v20c0,2.8-0.4,5.2-1.1,7.2c-0.7,2.1-1.9,3.8-3.4,5.1c-1.5,1.3-3.5,2.4-6,3
		c-2.4,0.7-5.4,1-8.9,1c-3.5,0-6.4-0.3-8.8-1c-2.4-0.7-4.4-1.7-6-3c-1.5-1.3-2.7-3-3.4-5.1c-0.7-2.1-1.1-4.5-1.1-7.2V39h6.5v20
		c0,1.8,0.2,3.4,0.7,4.6c0.4,1.3,1.2,2.3,2.2,3.2c1,0.8,2.3,1.4,4,1.8s3.7,0.6,6.2,0.6c2.5,0,4.5-0.2,6.2-0.6c1.7-0.4,3-1,4-1.8
		c1-0.8,1.7-1.9,2.2-3.2c0.4-1.3,0.7-2.8,0.7-4.6V39z"/>
</g>
<path id="XMLID_36_" class="st0" d="M531.4,29.5L531.4,29.5l-14-12.3l4.2-4.8l1.9,1.7c0.9,0.8,2.3,0.7,3.1-0.3
	c0.6-0.9,0.4-2.1-0.4-2.8L507.3-5.7c-0.9-0.8-2.3-0.7-3.1,0.4c-0.6,0.9-0.4,2.1,0.4,2.8l1.8,1.6l-29.3,33.2
	c-0.1,0.1-0.2,0.3-0.3,0.4c-0.1,0.1-0.3,0.2-0.4,0.3c-14.2,16-12.6,40.6,3.4,54.8c16,14.2,40.6,12.6,54.8-3.4l0.1-0.1
	C549,68.3,547.4,43.7,531.4,29.5z M504,32.5l12.4,10.9l-6.6,7.5c-1.5-0.8-3.3-1.1-4.9-1l-4.5-13.3L504,32.5z M487.1,57.1l9.7,2
	c0.1,1.7,0.6,3.4,1.6,4.8l-6.5,7.4C488.2,67.3,486.6,62.1,487.1,57.1z M501.4,66.6c1.5,0.8,3.3,1.1,4.9,1l3.1,9.3
	c-4.9,1.1-10.3,0.1-14.6-2.9L501.4,66.6z M509.1,61.9c-1.7,2-4.7,2.1-6.7,0.4c-2-1.7-2.1-4.7-0.4-6.7c1.7-2,4.7-2.1,6.7-0.4
	C510.7,56.9,510.9,59.9,509.1,61.9z M512.3,64.6c0.6-0.7,1-1.4,1.4-2.1l9.7,2c-0.1,0.2-0.1,0.4-0.2,0.5c-0.8,2.2-2,4.2-3.5,6l0,0
	c0,0,0,0,0,0c0,0,0,0,0,0l0,0c-1.8,2-3.8,3.5-6.1,4.6l-3.1-9.3C511,65.8,511.7,65.3,512.3,64.6z M514.5,58.4
	c-0.1-1.7-0.6-3.4-1.6-4.8l6.5-7.4c3.6,3.9,5.2,9.1,4.7,14.1L514.5,58.4z M500.9,51.2c-0.7,0.4-1.4,1-1.9,1.7
	c-0.6,0.7-1,1.4-1.4,2.1l-9.7-2c0.8-2.4,2-4.6,3.8-6.6c0.1-0.1,0.2-0.3,0.3-0.4c0.1-0.1,0.3-0.2,0.4-0.3l4.9-5.5L500.9,51.2z
	 M528.7,32.7C528.7,32.7,528.7,32.7,528.7,32.7c3.8,3.4,6.7,7.4,8.6,11.7c0,0.2,0.1,0.4,0.2,0.6c1,2.4,1.8,4.9,2.2,7.5
	c-0.3-1.4-0.6-2.8-1-4.1c-3.2,3.8-6.9,5.6-10.7,6.2c0.3,1.5,0.4,3,0.4,4.5c0,0.1,0,0.1,0,0.2c0,2.5-0.5,4.9-1.3,7.2
	c-0.9,2.7-2.4,5.2-4.4,7.5c0,0,0,0,0,0c0,0,0,0,0,0c0,0,0,0,0,0c0,0,0,0,0,0l0,0c0,0,0,0,0,0c-2.7,3.1-6.1,5.2-9.7,6.5
	c0,0-0.1,0-0.1,0c0,0-0.1,0-0.1,0c-7.4,2.4-15.9,1-22.2-4.5c-3.9-3.5-6.4-8-7.3-12.8c0.9,4.7,3.4,9.1,7.2,12.5
	c6.3,5.5,14.8,7,22.2,4.5c0,0,0.1,0,0.1,0c0,0,0.1,0,0.1,0c3.6-1.2,7-3.4,9.7-6.5c0,0,0,0,0,0l0,0c0,0,0,0,0,0c0,0,0,0,0,0
	c0,0,0,0,0,0c0,0,0,0,0,0c2-2.3,3.4-4.8,4.4-7.5c0.8-2.3,1.2-4.7,1.3-7.2c0-0.1,0-0.1,0-0.2c0-6.3-2.6-12.6-7.7-17.1c0,0,0,0,0,0
	l-13.9-12.3l8-9L528.7,32.7z M539.9,53.9c0-0.3-0.1-0.5-0.1-0.8C539.8,53.3,539.9,53.6,539.9,53.9z M479.6,35.8
	c0.1-0.1,0.2-0.3,0.3-0.4c0.1-0.1,0.2-0.2,0.4-0.3l29.3-33.2l8.9,7.9l-22,25c0,0,0,0,0,0.1l-7,8c-6.7-0.5-12.1,1.2-15.7,2.8
	c-2.8,6.6-3.4,13.9-1.9,20.7C469.5,55.8,472,44.4,479.6,35.8z"/>
<path id="XMLID_35_" class="st0" d="M484.1,34.1c-1.9,0-3.5,1.6-3.5,3.5c0,1.9,1.6,3.5,3.5,3.5c1.9,0,3.5-1.6,3.5-3.5
	C487.6,35.6,486,34.1,484.1,34.1z"/>
<path id="XMLID_34_" class="st0" d="M491.5,32.4c-0.8,0-1.4,0.6-1.4,1.4c0,0.8,0.6,1.4,1.4,1.4c0.8,0,1.4-0.6,1.4-1.4
	C492.9,33,492.3,32.4,491.5,32.4z"/>
<g id="XMLID_33_">
	<g>
		<path class="st0" d="M470.5,49.9c0.9,6-3.8,11.3-0.3,17c0.8,1.2,2.8,0.8,2.8-0.8c0-3,0-6.1,0-9.1c0-2.3-0.9-7.4,1.4-9
			c1.6-1.1,0.1-3.7-1.5-2.6c-2.1,1.5-2.8,3.5-2.9,6.1c-0.3,4.8,0,9.8,0.1,14.7c0.9-0.3,1.9-0.5,2.8-0.8c-3-4.8,1.4-11,0.6-16.3
			C473.1,47.2,470.2,48,470.5,49.9L470.5,49.9z"/>
	</g>
</g>
<g id="XMLID_1_">
	<g>
		<path class="st0" d="M480.9,60.3c3.8,12,11.9,25.5,26.4,23.9c1.5-0.2,2.2-2.6,0.4-2.9c-2.2-0.5-4.4-0.9-6.6-1.4
			c-0.3,1-0.5,1.9-0.8,2.9c8.4,1.3,21.5,0.2,25.8-8.5c0.8-1.5-1.1-3-2.4-1.8c-2.2,2.1-4.6,4-7.2,5.6c0.6,0.8,1.2,1.6,1.8,2.4
			c6.4-6.9,12.8-14.4,12.1-24.4c-0.1-1.9-3.1-1.9-3,0c0.7,9.2-5.3,16-11.2,22.3c-1.1,1.2,0.3,3.3,1.8,2.4c2.8-1.8,5.3-3.8,7.8-6.1
			c-0.8-0.6-1.6-1.2-2.4-1.8c-3.7,7.3-15.4,8.2-22.5,7.1c-1.9-0.3-2.7,2.5-0.8,2.9c2.2,0.5,4.4,0.9,6.6,1.4c0.1-1,0.3-2,0.4-2.9
			c-13.2,1.5-20.1-10.9-23.5-21.7C483.2,57.7,480.3,58.5,480.9,60.3L480.9,60.3z"/>
	</g>
</g>
<g id="XMLID_40_">
	<g>
		<path class="st0" d="M517.5,80c0.1-0.9,0.7-1.6,1.6-2c0.7-0.3,0.9-1.4,0.5-2.1c-0.4-0.8-1.3-0.9-2.1-0.5c-1.8,0.8-2.9,2.6-3,4.6
			c-0.1,0.8,0.7,1.5,1.5,1.5C516.9,81.5,517.5,80.8,517.5,80L517.5,80z"/>
	</g>
</g>
<g id="XMLID_41_">
	<g>
		<path class="st0" d="M512.7,78.2c-5.7-0.5-11.5-0.9-17.2-1.4c-1.7-0.1-2,2.6-0.4,2.9c3.6,0.8,7.2,1.5,10.7,2.3
			c1.9,0.4,2.7-2.5,0.8-2.9c-3.6-0.8-7.2-1.5-10.7-2.3c-0.1,1-0.3,2-0.4,2.9c5.7,0.5,11.5,0.9,17.2,1.4
			C514.6,81.4,514.6,78.4,512.7,78.2L512.7,78.2z"/>
	</g>
</g>
<g id="XMLID_44_">
	<g>
		<path class="st0" d="M502.5,81.7c-1.5-1.1-2.9-2.4-4.2-3.8c-0.5,0.8-1,1.7-1.5,2.5c3.1,0.5,6.2,1,9.3,1.5c1.9,0.3,2.7-2.6,0.8-2.9
			c-3.1-0.5-6.2-1-9.3-1.5c-1.4-0.2-2.5,1.3-1.5,2.5c1.5,1.6,3.1,3,4.8,4.3C502.6,85.5,504.1,82.9,502.5,81.7L502.5,81.7z"/>
	</g>
</g>
<path id="XMLID_73_" d="M478.6,41.9c-1.1,0-2,0.9-2,2c0,1.1,0.9,2,2,2c1.1,0,2-0.9,2-2C480.6,42.8,479.7,41.9,478.6,41.9z"/>
<circle id="XMLID_79_" cx="478.7" cy="53.9" r="1"/>
<circle id="XMLID_80_" cx="533.8" cy="52.8" r="3"/>
<circle id="XMLID_86_" class="st0" cx="530.5" cy="47.2" r="1.2"/>
</svg>
