<?xml version="1.0" encoding="utf-8"?>
<!-- Generator: Adobe Illustrator 19.0.0, SVG Export Plug-In . SVG Version: 6.00 Build 0)  -->
<svg version="1.1" id="Layer_1" xmlns="http://www.w3.org/2000/svg" xmlns:xlink="http://www.w3.org/1999/xlink" x="0px" y="0px"
	 viewBox="350 -100 800 300" style="enable-background:new 350 -100 800 300;" xml:space="preserve">
<style type="text/css">
	.st0{fill:#FFFFFF;}
</style>
<g id="UPLpJC_1_">
	<g id="XMLID_2_">
		<path id="XMLID_138_" class="st0" d="M501.6,7.1c0.5,0,1-0.1,1.5-0.1c13.6,0,27.2,0,40.7,0c1.3,0,2.6,0.1,3.8,0.4
			c3.4,0.9,5.7,3.8,5.7,7.3c0,10.6,0.1,21.2,0,31.9c0,4.3-3.5,7.7-7.8,7.8c-6.9,0.1-13.9,0.1-20.8,0c-1.3,0-1.6,0.4-1.6,1.7
			c0.1,6,0,12.1,0,18.2c0,0.5,0,1.1,0,1.9c-7.3,0-14.4,0-21.6,0C501.6,53.1,501.6,30.1,501.6,7.1z M523.1,30.7c0,1.8,0,3.7,0,5.5
			c0,0.9,0.3,1.2,1.2,1.2c2.4,0,4.7-0.1,7.1,0c1,0,1.5-0.5,1.5-1.3c0.1-3.6,0.1-7.2,0-10.7c0-0.8-0.6-1.3-1.5-1.2
			c-2.3,0.1-4.6,0.1-6.9,0c-1.1,0-1.3,0.4-1.3,1.4C523.2,27.3,523.1,29,523.1,30.7z"/>
		<path id="XMLID_135_" class="st0" d="M867.5,5.4c1,0.2,2,0.4,3,0.6c6,1,9.5,4.6,10.8,10.4c4.1,18,8.1,35.9,12.2,53.9
			c0.4,1.7,0.8,3.4,1.2,5.2c-0.6,0-1,0.1-1.5,0.1c-4.9,0-9.8,0-14.7,0c-1,0-1.5-0.3-1.6-1.3c-0.5-3.1-1.2-6.1-1.8-9.2
			c-0.1-0.8-0.5-1-1.2-1c-5.5,0-11.1,0-16.6,0c-0.8,0-1.1,0.3-1.3,1.1c-0.6,3.1-1.3,6.2-1.9,9.3c-0.1,0.7-0.4,1.1-1.1,1.1
			c-5.3,0-10.5,0-15.8,0c-0.2,0-0.4-0.1-0.7-0.2c1.2-5.3,2.4-10.6,3.6-15.9c3.2-14.3,6.4-28.7,9.7-43c1.5-6.7,5.7-10.2,12.5-10.8
			c0.4,0,0.9-0.2,1.3-0.3C864.9,5.4,866.2,5.4,867.5,5.4z M871.4,48.1c0-0.3,0-0.5,0-0.7c-1.7-8.3-3.5-16.7-5.2-25
			c-0.1-0.3-0.4-0.6-0.6-0.9c-0.2,0.3-0.5,0.6-0.6,0.9c-1.3,6.4-2.6,12.7-3.9,19.1c-0.4,2.2-0.8,4.3-1.3,6.6
			C863.7,48.1,867.5,48.1,871.4,48.1z"/>
		<path id="XMLID_134_" class="st0" d="M1001.1,24.8c-4.5,0-9.1,0-13.6,0c-1.2,0-1.5,0.4-1.5,1.6c0,15.8,0,31.6,0,47.4
			c0,1.8,0,1.8-1.8,1.8c-5,0-10,0-15,0c-1.2,0-1.6-0.4-1.6-1.6c0-15.8,0-31.7,0-47.5c0-1.4-0.3-1.8-1.8-1.8c-2.4,0.1-4.9,0-7.5,0
			c0.9-8.1-2.5-13.9-9.3-18.2c0.9,0,1.4,0,1.9,0c16.1,0,32.2,0,48.4,0c0.6,0,1.2,0,1.8-0.1C1001.1,12.6,1001.1,18.7,1001.1,24.8z"/>
		<path id="XMLID_131_" class="st0" d="M534,103.3c-0.2-0.1-0.4-0.2-0.6-0.3c-4.5-0.7-6.8-5-5.4-9.8c1.1-3.6,4.2-4.9,7.1-4.8
			c3.8,0.1,6.2,2.4,6.9,5.8c0.9,4.6-2.1,8.3-5.6,8.7c-0.2,0-0.3,0.2-0.5,0.3C535.3,103.3,534.6,103.3,534,103.3z M534.9,91.8
			c-2.3,0-3.7,1.6-3.7,4c0,2.4,1.6,4,3.8,4c2.2,0,3.8-1.8,3.8-4.1C538.7,93.5,537.1,91.8,534.9,91.8z"/>
		<path id="XMLID_128_" class="st0" d="M828.7,103.3c-0.2-0.1-0.4-0.2-0.6-0.3c-4.5-0.7-6.8-5-5.4-9.8c1.1-3.6,4.2-4.9,7.1-4.8
			c3.8,0.1,6.2,2.4,6.9,5.8c0.9,4.6-2.1,8.3-5.6,8.7c-0.2,0-0.3,0.2-0.5,0.3C830,103.3,829.3,103.3,828.7,103.3z M829.5,91.8
			c-2.3,0-3.7,1.6-3.7,4c0,2.4,1.6,4,3.8,4c2.2,0,3.8-1.8,3.8-4.1C833.4,93.4,831.8,91.8,829.5,91.8z"/>
		<path id="XMLID_127_" class="st0" d="M701.2,103.3c-1.1-0.4-2.3-0.7-3.3-1.2c-2.6-1.4-3.8-4.4-3.2-7.9c0.4-2.8,2.6-5,5.5-5.5
			c4-0.7,7.3,1.1,8.1,4.6c0,0.1,0,0.3,0,0.5c-1.5-0.1-2.9,0.6-4.1-1.2c-1-1.5-3.6-1.3-5,0.1c-1.2,1.2-1.5,3.6-0.7,5.3
			c0.7,1.5,2.1,2.4,3.7,2.1c0.8-0.1,1.8-0.5,2.1-1.1c1-1.8,2.5-1.1,4-1.2c-0.2,2.6-2,4.6-4.6,5.2c-0.4,0.1-0.9,0.2-1.3,0.4
			C701.9,103.3,701.5,103.3,701.2,103.3z"/>
		<path id="XMLID_126_" class="st0" d="M794.5,46.7c0.3-0.8,0.5-1.2,0.6-1.6c3.8-12.3,7.6-24.6,11.4-37c0.3-1.1,0.8-1.6,2.1-1.6
			c6.6,0.1,13.1,0,19.7,0c0.5,0,1,0,1.6,0c0,0.6,0.1,1.1,0.1,1.6c0,21.9,0,43.8,0,65.7c0,1.3-0.3,1.8-1.7,1.8
			c-5.4-0.1-10.7-0.1-16.1,0c-1.3,0-1.6-0.4-1.6-1.6c0.1-9.6,0-19.2,0-28.8c0-1.3,0.2-2.6,0.2-4c-0.2,0.6-0.4,1.2-0.6,1.8
			c-3.1,10.4-6.3,20.8-9.3,31.2c-0.3,1.1-0.8,1.5-1.9,1.4c-3.6-0.1-7.3-0.1-10.9,0c-1.2,0-1.7-0.4-2-1.5
			c-3.2-10.6-6.5-21.2-9.7-31.8c-0.1-0.5-0.3-0.9-0.6-1.7c0,1.9,0,3.3,0,4.8c0,9.5,0,19,0,28.5c0,1.3-0.3,1.8-1.7,1.7
			c-4.2-0.1-8.4-0.1-12.6,0c-1.2,0-1.6-0.3-1.6-1.6c0-22,0-44,0-66c0-1.2,0.4-1.5,1.6-1.5c6.3,0.1,12.7,0.1,19,0
			c1.1,0,1.6,0.3,1.9,1.4c3.8,12.4,7.7,24.7,11.6,37.1C794,45.5,794.2,45.9,794.5,46.7z"/>
		<path id="XMLID_123_" class="st0" d="M613.2,41.5c0,8.5-0.1,17.1,0,25.6c0.1,5.5-3.8,9-9,8.9c-11.3-0.1-22.5,0-33.8,0
			c-5.6,0-8.9-3.4-9-9c0-17,0-34.1,0-51.1c0-5.4,3.2-8.8,8.6-8.9c11.5-0.1,23-0.1,34.5,0c5.5,0,8.6,3.3,8.6,8.8
			C613.2,24.4,613.2,33,613.2,41.5z M591.7,59c0-11.6,0-23.1,0-34.8c-2.5,0-4.8,0.1-7.2,0c-1.3-0.1-1.6,0.4-1.6,1.6
			c0,10.5,0,21,0,31.6c0,0.3-0.1,0.6,0,0.8c0.2,0.3,0.5,0.7,0.7,0.8C586.4,59,589,59,591.7,59z"/>
		<path id="XMLID_120_" class="st0" d="M917.9,54.8c0,0.8,0,1.3,0,1.8c0,5.9,0,11.7,0,17.6c0,1-0.3,1.4-1.3,1.4c-4.9,0-9.7,0-14.6,0
			c-0.9,0-1.2-0.2-1.2-1.2c0-22.4,0-44.7,0-67.1c0-0.2,0.1-0.4,0.1-0.7c0.4,0,0.9-0.1,1.3-0.1c9,0,17.9,0,26.9,0
			c12.1,0,20.3,7.6,21.5,19.6c0.5,4.4,0.1,8.8-1.6,12.9c-1.4,3.6-3.7,6.5-6.9,8.6c-0.9,0.6-1,1.1-0.6,2.1c3.6,8,7.1,16,10.6,24
			c0.2,0.5,0.4,1,0.6,1.7c-0.7,0-1.1,0.1-1.6,0.1c-5.5,0-11.1,0-16.6,0c-1.2,0-1.7-0.4-2.1-1.5c-2.3-6-4.7-12-7.1-18
			c-0.4-1-0.9-1.4-1.9-1.3C921.7,54.9,919.8,54.8,917.9,54.8z M919,36.5c3.2,0,6.3,0,9.3,0c0.3,0,0.9-0.6,1-0.9c0.9-4,0.9-8,0-12
			c-0.1-0.4-0.7-0.9-1.1-1c-2.8-0.1-5.5-0.1-8.3,0c-0.3,0-0.8,0.6-0.8,0.9C919,27.7,919,32,919,36.5z"/>
		<path id="XMLID_119_" class="st0" d="M704,76c0-5.8,0-11.3,0-17.1c0.6,0,1.1,0,1.6,0c7.1,0,14.1,0,21.2,0c1.3,0,1.7-0.3,1.9-1.7
			c0.2-2.3-0.6-3.6-2.6-4.8c-5.5-3.4-10.8-7.1-16.2-10.7c-2.7-1.8-4.9-3.9-5.6-7.3c-0.2-1.2-0.4-2.4-0.4-3.6c0-5.2,0-10.3,0-15.5
			c0-4.8,3.1-8.1,7.9-8.4c0.5,0,0.9,0,1.4,0c11.7,0,23.5,0,35.2,0c1.3,0,1.7,0.4,1.7,1.7c-0.1,4.7-0.1,9.3,0,14
			c0,1.2-0.4,1.5-1.5,1.5c-7.1,0-14.2,0-21.3,0c-0.5,0-1.1,0-1.6,0c-0.6,2.8-0.5,3.2,1.6,4.6c5.6,3.7,11.1,7.6,16.8,11.2
			c4.1,2.6,6,6.3,6,11c0,5.5,0.1,11,0,16.5c-0.1,5.2-3.5,8.6-8.7,8.6c-12,0-23.9,0-35.9,0C705.1,76,704.6,76,704,76z"/>
		<path id="XMLID_118_" class="st0" d="M665.5,59c0,5.7,0,11.3,0,17c-14.3,0-28.5,0-43,0c0-0.5-0.1-1-0.1-1.5c0-21.9,0-43.9,0-65.8
			c0-1.3,0.3-1.7,1.6-1.6c6,0.1,12,0.1,18,0c1.4,0,1.7,0.5,1.7,1.8c0,16,0,32.1,0,48.1c0,2.1,0,2.1,2.2,2.1c6,0,11.9,0,17.9,0
			C664.4,59,664.9,59,665.5,59z"/>
		<path id="XMLID_117_" class="st0" d="M694.7,76c-7.1,0-14.1,0-21.1,0c0-0.6-0.1-1-0.1-1.5c0-21.9,0-43.8,0-65.7
			c0-1.5,0.4-1.8,1.8-1.8c6,0.1,11.9,0.1,17.9,0c1.2,0,1.7,0.3,1.7,1.6c0,22,0,44,0,65.9C694.8,75,694.7,75.4,694.7,76z"/>
		<path id="XMLID_113_" class="st0" d="M851.6,88.7c2.2,0,4.2-0.2,6.3,0c3.5,0.3,4.9,3.5,3,6.8c1.8,1.3,1.9,3,1.2,4.9
			c-0.7,1.9-2.4,2.5-4.2,2.5c-2.1,0-4.1,0-6.3,0C851.6,98.2,851.6,93.5,851.6,88.7z M854.9,97.1c0,0.7-0.2,1.3,0,1.8
			c0.1,0.4,0.4,0.9,0.7,0.9c0.8,0.1,1.7,0.2,2.5-0.1c0.5-0.2,1-1,1-1.5c0-0.4-0.7-1-1.2-1.1C856.9,97,856,97.1,854.9,97.1z
			 M854.9,94.2c0.9,0,1.7,0.1,2.4-0.1c0.4-0.1,1-0.7,1-1.1c0-0.4-0.6-1-1-1.1c-0.7-0.2-1.5-0.1-2.4-0.1
			C854.9,92.7,854.9,93.4,854.9,94.2z"/>
		<path id="XMLID_112_" class="st0" d="M938.8,102.9c0-2.4,0-4.5,0-7c-0.6,0.4-0.9,0.7-1.2,1c-1.9,1.8-3.7,3.6-5.6,5.3
			c-0.4,0.4-1,0.6-1.7,1c0-5,0-9.7,0-14.4c1.1,0,2.1,0,3.4,0c0,2.2,0,4.4,0,6.6c0.1,0,0.2,0.1,0.3,0.1c1.8-1.7,3.5-3.3,5.3-5
			c0.5-0.5,1-1.1,1.6-1.5c0.3-0.2,0.8-0.4,1.1-0.3c0.2,0,0.4,0.6,0.4,0.9c0,4.1,0,8.1,0,12.2c0,0.9-0.3,1.1-1.2,1.1
			C940.5,102.9,939.8,102.9,938.8,102.9z"/>
		<path id="XMLID_111_" class="st0" d="M556.4,88.4c0.8,0.4,1.3,0.6,1.7,0.9c1.9,1.8,3.8,3.6,5.8,5.4c0.3,0.3,0.7,0.6,1.2,1.1
			c0-2.5,0-4.7,0-6.9c1.2,0,2.2,0,3.4,0c0,4.6,0,9.3,0,14.3c-0.7-0.4-1.2-0.5-1.7-0.9c-1.9-1.7-3.7-3.5-5.5-5.2
			c-0.3-0.3-0.7-0.6-1.2-1.1c0,2.5,0,4.6,0,6.7c-0.2,0.2-0.3,0.3-0.4,0.3c-3.3,0.3-3.3,0.3-3.3-2.9
			C556.4,96.3,556.4,92.6,556.4,88.4z"/>
		<path id="XMLID_110_" class="st0" d="M630.4,96.2c0,2.2,0,4.4,0,6.5c-0.2,0.1-0.3,0.2-0.4,0.2c-4,0.1-3.1,0.5-3.2-3
			c-0.1-3.1,0-6.3,0-9.4c0-0.5,0-1.1,0-2.1c0.8,0.4,1.3,0.6,1.7,0.9c1.9,1.8,3.8,3.6,5.8,5.4c0.3,0.3,0.6,0.5,1.2,1c0-2.5,0-4.7,0-7
			c1.3,0,2.3,0,3.4,0c0,4.7,0,9.4,0,14.4c-0.7-0.4-1.3-0.7-1.7-1c-2.2-2-4.3-4-6.4-6.1C630.6,96.1,630.5,96.1,630.4,96.2z"/>
		<path id="XMLID_109_" class="st0" d="M911.3,88.7c1.2,0,2.3,0,3.4,0c0,4.7,0,9.4,0,14.1c-1.1,0-2.1,0-3.4,0c0-1.5,0-2.9,0-4.4
			c0-1-0.2-1.4-1.3-1.4c-1.1,0.1-2.2,0-3.5,0c0,1.9,0,3.8,0,5.7c-1.2,0-2.3,0-3.4,0c0-4.7,0-9.3,0-14.1c1.1,0,2.1,0,3.3,0
			c0,1.7,0,3.3,0,5.2c1.5,0,2.8,0.1,4.1,0c0.3,0,0.7-0.6,0.7-1C911.4,91.5,911.3,90.2,911.3,88.7z"/>
		<path id="XMLID_106_" class="st0" d="M746.2,88.7c2.3,0,4.4-0.2,6.6,0c2.9,0.3,4.7,2.6,4.5,5.6c-0.1,2.9-2.1,4.9-5.1,5
			c-0.8,0-1.7,0-2.7,0c0,1.2,0,2.3,0,3.5c-1.2,0-2.3,0-3.4,0C746.2,98.2,746.2,93.5,746.2,88.7z M749.6,96.3c1.4-0.5,3.2,0.7,4-1.1
			c0.3-0.8,0.3-2-0.1-2.7c-0.9-1.3-2.5-0.5-3.8-0.7C749.6,93.3,749.6,94.6,749.6,96.3z"/>
		<path id="XMLID_105_" class="st0" d="M657.9,97.1c0,1,0,1.8,0,2.8c1.3,0,2.5,0,3.7,0c1.8,0,1.8,0,1.8,1.8c0,0.3,0,0.6-0.1,1.1
			c-2.9,0-5.9,0-8.9,0c0-4.7,0-9.3,0-14c2.8,0,5.6,0,8.5,0c0,0.9,0,1.9,0,3c-1.7,0-3.3,0-5.1,0c0,0.7,0,1.4,0,2.3
			c1.2,0,2.3,0.1,3.5,0c1.3-0.1,1.2,0.7,1.3,1.6c0,0.9-0.1,1.5-1.2,1.4C660.3,97,659.1,97.1,657.9,97.1z"/>
		<path id="XMLID_104_" class="st0" d="M961.5,91.8c0,0.8,0,1.4,0,2.3c1.2,0,2.4,0,3.6,0c1.3-0.1,1.1,0.9,1.2,1.7
			c0,0.8-0.1,1.4-1.2,1.3c-1.1-0.1-2.3,0-3.6,0c0,0.9,0,1.7,0,2.8c1.1,0,2.2,0,3.3,0c2.2,0,2.2,0,2.1,2.2c0,0.2,0,0.4-0.1,0.7
			c-2.9,0-5.8,0-8.8,0c0-4.7,0-9.3,0-14c2.8,0,5.6,0,8.5,0c0,1,0,1.9,0,3C964.9,91.8,963.2,91.8,961.5,91.8z"/>
		<path id="XMLID_103_" class="st0" d="M796.1,102.9c1.1-1.6,1.9-3,2.8-4.4c2.1-3.2,2.1-3.2,0-6.3c-0.7-1.1-1.4-2.1-2.1-3.2
			c3.6-1.6,4.6,1.1,6,3.6c0.6-0.9,1.2-1.6,1.5-2.4c0.6-1.3,1.5-1.8,2.9-1.6c0.5,0.1,1,0,1.9,0c-0.7,1.1-1.3,2-1.9,2.8
			c-0.8,1.3-2.3,2.5-2.3,3.8c0,1.3,1.4,2.6,2.2,3.9c0.7,1.2,1.5,2.3,2.4,3.7c-1.4,0-2.5,0.1-3.6,0c-0.3,0-0.7-0.5-1-0.8
			c-0.7-1.2-1.4-2.4-2.3-3.9c-0.7,1.2-1.4,2.1-1.8,3.1c-0.6,1.3-1.5,1.9-2.9,1.6C797.6,102.8,797,102.9,796.1,102.9z"/>
		<path id="XMLID_100_" class="st0" d="M874.9,102.9c1.3-2.9,2.6-5.7,3.8-8.4c0.8-1.8,1.6-3.6,2.5-5.4c0.2-0.3,0.6-0.7,1-0.7
			c0.3,0,0.9,0.3,1,0.6c2,4.3,4,8.6,6,12.9c0.1,0.2,0.1,0.4,0.2,0.9c-1,0-2,0.1-2.9,0c-0.3,0-0.6-0.5-0.8-0.8
			c-0.3-0.8-0.9-1.1-1.7-1c-0.9,0.1-1.8,0.1-2.8,0c-1.1-0.1-2.1,0-2.5,1.4c-0.1,0.2-0.5,0.5-0.8,0.5
			C877,103,876.1,102.9,874.9,102.9z M882.3,93.9c-0.7,1.5-1.2,2.7-1.8,4.1c1.2,0,2.3,0,3.5,0C883.5,96.7,882.9,95.5,882.3,93.9z"/>
		<path id="XMLID_97_" class="st0" d="M783.2,102.9c-0.9,0-1.7,0.1-2.4,0c-0.5-0.1-1.1-0.4-1.2-0.8c-0.4-0.9-1-1.2-2-1.1
			c-0.8,0.1-1.7,0.1-2.5,0c-1.2-0.1-2.2,0-2.6,1.4c-0.1,0.2-0.5,0.5-0.8,0.5c-0.9,0.1-1.7,0-2.7,0c0.1-0.4,0.1-0.7,0.3-1
			c1.9-4.2,3.9-8.5,5.8-12.7c0.2-0.4,0.7-0.8,1.1-0.8c0.3,0,0.8,0.3,1,0.7c2,4.3,4,8.5,5.9,12.8
			C783.1,102.1,783.1,102.4,783.2,102.9z M777.9,98c-0.6-1.3-1.1-2.5-1.8-4.1c-0.7,1.5-1.2,2.7-1.7,4.1C775.6,98,776.6,98,777.9,98z
			"/>
		<path id="XMLID_96_" class="st0" d="M732.1,88.7c0,1.1,0,2,0,3.1c-1.1,0-2.2,0-3.5,0c0,3.8,0,7.4,0,11.1c-1.2,0-2.3,0-3.5,0
			c0-3.6,0-7.2,0-11c-0.9,0-1.7,0-2.5,0c-1.1,0.1-1-0.8-0.9-1.4c0.1-0.7-0.5-1.7,0.9-1.8C725.6,88.7,728.8,88.7,732.1,88.7z"/>
		<path id="XMLID_95_" class="st0" d="M611,99.2c0.8,0.7,1.6,1,1.7,1.5c0.4,1.8,0.1,2.1-1.8,2.1c-1.6,0-3.2,0-5,0c0-1,0-1.8,0-2.8
			c1.7,0.1,1.6-1,1.6-2.2c-0.1-2,0-4,0-6.1c-0.6-0.1-1-0.2-1.6-0.3c0-0.9,0-1.7,0-2.7c2.2,0,4.3,0,6.6,0c0,0.9,0,1.7,0,2.7
			c-1.7-0.2-1.6,0.9-1.6,2.1C611,95.6,611,97.6,611,99.2z"/>
		<path id="XMLID_94_" class="st0" d="M584,88.7c1.1,0,2.2,0,3.4,0c0,3.7,0,7.2,0,11c1.5,0,2.9,0,4.2,0c1.1,0,1,0.7,0.9,1.3
			c-0.1,0.7,0.5,1.8-0.8,1.8c-2.5,0.1-5.1,0-7.7,0C584,98.2,584,93.5,584,88.7z"/>
	</g>
</g>
</svg>
