<?xml version="1.0" encoding="utf-8"?>
<!-- Generator: Adobe Illustrator 19.0.0, SVG Export Plug-In . SVG Version: 6.00 Build 0)  -->
<svg version="1.1" id="Capa_1" xmlns="http://www.w3.org/2000/svg" xmlns:xlink="http://www.w3.org/1999/xlink" x="0px" y="0px"
	 viewBox="-493 494.2 430.1 430.1" style="enable-background:new -493 494.2 430.1 430.1;" xml:space="preserve">
<style type="text/css">
	.st0{fill:url(#SVGID_1_);}
	.st1{fill:url(#SVGID_2_);}
	.st2{fill:url(#SVGID_3_);}
</style>
<g>
	
		<linearGradient id="SVGID_1_" gradientUnits="userSpaceOnUse" x1="-251.1836" y1="575.0413" x2="-521.2124" y2="845.0701" gradientTransform="matrix(1 0 0 -1 0 1419.7601)">
		<stop  offset="0" style="stop-color:#73413D"/>
		<stop  offset="1" style="stop-color:#9B5D48"/>
	</linearGradient>
	<path class="st0" d="M-208.9,644.3c-5.2-18.6-13.3-35.9-25.1-51.4c-14-18.2-31.7-31.6-52.6-41c-13-5.9-26.6-9.9-40.6-12.5
		c-18-3.4-36.3-4.5-54.6-4.6c-29.6,0-59.2,0-88.7,0c-2.8,0-5.6,0.2-8.3,1c-7.7,2.4-12.3,7.6-13.5,15.6c-0.1,0.9-0.5,1.7-0.7,2.5
		c0,5.6,0,11.2,0,16.7c0.2,0.8,0.5,1.7,0.7,2.5c0.2,1,0.3,2.1,0.6,3.1c2,8,7.5,12.2,15.3,13.9c1.8,0.4,3.7,0.4,5.5,0.4
		c27.9,0,55.8,0,83.7,0c9.6,0,19.2,0.5,28.8,1.8c17.4,2.4,33.1,8.6,46.9,19.6c12.1,9.7,20.6,22.1,26.4,36.3
		c3.9,9.4,6.2,19.3,7.8,29.3c2.2,13.5,2.6,27.1,2,40.7c-0.6,15-2.6,29.8-7,44.2c-2.6,8.3-6,16.3-10.5,23.7
		c-10.7,17.7-26,29.7-45.5,36.3c-8.4,2.8-17.1,4.5-25.9,5.4c-7.1,0.8-14.2,1-21.3,1c-11.2,0-22.5,0-33.7,0c-0.7,0-1.4,0-2.2,0
		c-0.1-0.5-0.1-1-0.2-1.4c0-0.5,0-1.1,0-1.6c0-56.8,0-113.7,0-170.5c0-2.1,0-4.3,0-6.4c0-2.8-1.2-4.9-3.5-6.4
		c-2.6-1.7-5.5-2.5-8.4-3.2c-5.9-1.3-11.9-1.7-17.9-1.7c-6-0.1-12,0.1-18,0.3c-4.8,0.2-9.5,0.8-14,2.1c-1.5,0.4-2.9,1-4.3,1.7
		c-2,1-3.7,2.4-4.5,4.6c-0.1,0.3-0.4,0.6-0.6,0.8c0,72.9,0,145.9,0,218.8c0.2,0.9,0.6,1.7,0.7,2.6c1.3,9.4,7.3,14.6,15.8,16.3
		c1.6,0.3,3.3,0.4,5,0.4c28.9,0,57.9,0,86.8,0c10.5,0,20.9-0.5,31.3-1.5c18.6-1.8,36.8-5.1,54.4-11.4c18.6-6.6,35.3-16.3,49.7-29.8
		c12.7-11.8,22.3-25.9,29.7-41.5c6.4-13.5,10.7-27.6,13.6-42.3c4.1-21.3,5.3-42.9,4.6-64.5C-202,677.5-204.2,660.7-208.9,644.3z"/>
	
		<linearGradient id="SVGID_2_" gradientUnits="userSpaceOnUse" x1="-28.7794" y1="583.0298" x2="-182.4905" y2="736.7409" gradientTransform="matrix(1 0 0 -1 0 1419.7601)">
		<stop  offset="0" style="stop-color:#73413D"/>
		<stop  offset="1" style="stop-color:#9B5D48"/>
	</linearGradient>
	<path class="st1" d="M-71.5,874.6c0-76.4,0-152.9,0-229.3c0-0.6,0-1.2,0-1.8c0-2.9-1.2-5.2-3.7-6.6c-1.5-0.9-3.2-1.6-4.9-2.2
		c-3.6-1.2-7.4-1.8-11.2-2.1c-10.4-0.8-20.9-0.9-31.3,0.3c-3.7,0.4-7.3,1.1-10.7,2.5c-3.9,1.7-6.5,3.6-6.5,9.6
		c0.1,76.6,0.1,153.1,0.1,229.7c0,0.5,0,1.1,0,1.6c0,3,1.3,5.3,3.9,6.7c1.7,0.9,3.6,1.6,5.4,2.1c4.6,1.2,9.3,1.6,14.1,1.8
		c1,0,2,0.2,3,0.3c5.1,0,10.2,0,15.3,0c0.6-0.1,1.2-0.2,1.7-0.3c3.3-0.3,6.5-0.4,9.8-0.8c3.4-0.4,6.7-1.1,9.8-2.5
		c3.5-1.6,5.4-4.1,5.2-8.1C-71.6,875.3-71.5,874.9-71.5,874.6z"/>
	
		<linearGradient id="SVGID_3_" gradientUnits="userSpaceOnUse" x1="-76.1201" y1="821.4518" x2="-134.8597" y2="880.1915" gradientTransform="matrix(1 0 0 -1 0 1419.7601)">
		<stop  offset="0" style="stop-color:#73413D"/>
		<stop  offset="1" style="stop-color:#9B5D48"/>
	</linearGradient>
	<path class="st2" d="M-66.6,560.8c-0.3-4.5-1.2-8.9-3-13.1c-2.2-5.1-5.9-8.7-11-10.8c-4.2-1.7-8.5-2.6-12.9-3.1
		c-1.9-0.2-3.9-0.5-5.8-0.7c-3.8,0-7.6,0-11.4,0c-2,0.2-4,0.5-6,0.7c-4.5,0.5-8.9,1.4-13.1,3.2c-5.1,2.1-8.8,5.7-11.1,10.7
		c-1.5,3.3-2.4,6.8-2.9,10.4c-1,6.9-1.1,13.7-0.3,20.6c0.4,3.8,1.3,7.6,2.7,11.2c2.2,5.4,6,9.1,11.5,11.2c3.9,1.5,8,2.4,12.1,2.8
		c8,0.9,16,0.9,24,0c4.4-0.5,8.8-1.4,12.9-3.2c5.2-2.2,9-5.8,11.3-11c1.9-4.4,2.9-8.9,3.1-13.6c0.1-0.9,0.2-1.9,0.3-2.8
		c0-3.3,0-6.7,0-10C-66.4,562.5-66.6,561.6-66.6,560.8z"/>
</g>
<g id="Layer_6_copy" transform="matrix(1,0,0,1,0,0)">
</g>
</svg>
