<?xml version="1.0" encoding="utf-8"?>
<!-- Generator: Adobe Illustrator 19.0.0, SVG Export Plug-In . SVG Version: 6.00 Build 0)  -->
<svg version="1.1" id="Layer_1" xmlns="http://www.w3.org/2000/svg" xmlns:xlink="http://www.w3.org/1999/xlink" x="0px" y="0px"
	 viewBox="-683 684.3 50 50" style="enable-background:new -683 684.3 50 50;" xml:space="preserve">
<style type="text/css">
	.st0{fill:url(#SVGID_1_);}
</style>
<g>
	<g>
		<linearGradient id="SVGID_1_" gradientUnits="userSpaceOnUse" x1="-641.85" y1="725.0701" x2="-674.1575" y2="692.7625">
			<stop  offset="0" style="stop-color:#73413D"/>
			<stop  offset="1" style="stop-color:#9B5D48"/>
		</linearGradient>
		<path class="st0" d="M-638.6,700.9c-0.1-2.1-0.4-3.5-0.9-4.7c-0.5-1.3-1.2-2.4-2.2-3.5c-1.1-1.1-2.2-1.8-3.5-2.3
			c-1.2-0.5-2.7-0.8-4.7-0.9c-2.1-0.1-2.7-0.1-8-0.1c-5.3,0-6,0-8,0.1c-2.1,0.1-3.5,0.4-4.7,0.9c-1.3,0.5-2.4,1.2-3.5,2.3
			c-1.2,1.1-1.9,2.2-2.4,3.5c-0.5,1.2-0.8,2.7-0.9,4.7c-0.1,2.1-0.1,2.7-0.1,8s0,6,0.1,8c0.1,2.1,0.4,3.5,0.9,4.7
			c0.5,1.3,1.2,2.4,2.2,3.5c1.1,1.1,2.2,1.8,3.5,2.3c1.2,0.5,2.7,0.8,4.7,0.9c2.1,0.1,2.7,0.1,8,0.1c5.3,0,6,0,8-0.1
			c2.1-0.1,3.5-0.4,4.7-0.9c1.3-0.5,2.4-1.2,3.5-2.3c1.1-1.1,1.8-2.2,2.2-3.5c0.5-1.2,0.8-2.7,0.9-4.7c0.1-2.1,0.1-2.7,0.1-8
			C-638.5,703.7-638.5,703-638.6,700.9z M-642.6,716.6c-0.1,1.8-0.4,2.8-0.7,3.5c-0.3,0.9-0.8,1.5-1.4,2.2c-0.7,0.7-1.3,1.1-2.2,1.4
			c-0.7,0.3-1.7,0.6-3.5,0.7c-2,0.1-2.6,0.1-7.6,0.1s-5.6,0-7.6-0.1c-1.8-0.1-2.8-0.4-3.5-0.7c-0.9-0.4-1.6-0.8-2.2-1.4
			c-0.7-0.7-1.1-1.3-1.4-2.2c-0.3-0.7-0.6-1.7-0.7-3.5c-0.1-2-0.1-2.6-0.1-7.6s0-5.6,0.1-7.6c0.1-1.8,0.4-2.8,0.7-3.5
			c0.3-0.9,0.8-1.5,1.4-2.2c0.7-0.7,1.3-1.1,2.2-1.4c0.7-0.3,1.7-0.6,3.5-0.7c2-0.1,2.6-0.1,7.6-0.1s5.6,0,7.6,0.1
			c1.8,0.1,2.8,0.4,3.5,0.7c0.9,0.3,1.5,0.8,2.2,1.4c0.7,0.7,1.1,1.3,1.4,2.2c0.3,0.7,0.6,1.7,0.7,3.5c0.1,2,0.1,2.6,0.1,7.6
			S-642.5,714.6-642.6,716.6z M-658,698.5c-5.8,0-10.5,4.7-10.5,10.5c0,5.8,4.7,10.5,10.5,10.5s10.5-4.7,10.5-10.5
			S-652.2,698.5-658,698.5z M-658,715.5c-3.6,0-6.5-2.9-6.5-6.5c0-3.6,2.9-6.5,6.5-6.5s6.5,2.9,6.5,6.5
			C-651.5,712.6-654.4,715.5-658,715.5z M-647,696.5c-1.4,0-2.5,1.1-2.5,2.5c0,1.4,1.1,2.5,2.5,2.5s2.5-1.1,2.5-2.5
			C-644.5,697.6-645.6,696.5-647,696.5z"/>
	</g>
</g>
</svg>
